<?xml version="1.0" encoding="UTF-8"?>
<!DOCTYPE svg PUBLIC "-//W3C//DTD SVG 1.1//EN" "http://www.w3.org/Graphics/SVG/1.1/DTD/svg11.dtd">
<!-- Creator: CorelDRAW X5 -->
<svg xmlns="http://www.w3.org/2000/svg" xml:space="preserve" width="100%" height="100%" shape-rendering="geometricPrecision" text-rendering="geometricPrecision" image-rendering="optimizeQuality" fill-rule="evenodd" clip-rule="evenodd"
viewBox="0 0 24000 18000"
 xmlns:xlink="http://www.w3.org/1999/xlink">
<a>
 <g id="Layer_x0020_1">
  <metadata id="CorelCorpID_0Corel-Layer"/>
  <polygon id="Leafinf_pilo_no" onclick="parent.replacechar('Leafinf_pilo_no')" onmousemove="parent.showtooltip('Leafinf_pilo_no','Face inf&#233;rieure : sans pilosit&#233;')" onmouseout="parent.hidetooltip('Leafinf_pilo_no')" cursor="pointer" fill="#78B43C" fill-rule="nonzero" stroke="black" stroke-width="7.62" stroke-linejoin="bevel" points="3456,2896 1356,6104 10644,6104 8544,2896 ">
   <metadata id="CorelCorpID_1">
    <odm name="Name" value="sans" type="0"/>
   </metadata>
  </polygon>
  <g id="Leafinf_pilo_few" onclick="parent.replacechar('Leafinf_pilo_few')" onmousemove="parent.showtooltip('Leafinf_pilo_few','Face inf&#233;rieure : peu de pilosit&#233;')" onmouseout="parent.hidetooltip('Leafinf_pilo_few')" cursor="pointer">
   <polygon fill="#78B43C" fill-rule="nonzero" stroke="#2C2C2B" stroke-width="7.62" stroke-linejoin="bevel" points="15456,7993 13356,11202 22644,11202 20544,7993 "/>
   <polyline fill="none" fill-rule="nonzero" stroke="black" stroke-width="7.62" stroke-linejoin="bevel" points="16094,8735 15990,9092 15922,9505 15891,9979 15879,10293 "/>
   <polyline fill="none" fill-rule="nonzero" stroke="black" stroke-width="7.62" stroke-linejoin="bevel" points="21758,8888 21654,9288 21586,9731 21555,10261 21543,10600 "/>
   <polyline fill="none" fill-rule="nonzero" stroke="black" stroke-width="7.62" stroke-linejoin="bevel" points="20270,7194 20166,7582 20098,8038 20067,8574 20049,8912 "/>
   <polyline fill="none" fill-rule="nonzero" stroke="black" stroke-width="7.62" stroke-linejoin="bevel" points="19206,7307 19101,7695 19027,8132 19002,8668 18984,9013 "/>
   <polyline fill="none" fill-rule="nonzero" stroke="black" stroke-width="7.62" stroke-linejoin="bevel" points="19767,6887 19663,7281 19595,7731 19564,8248 19552,8599 "/>
   <polyline fill="none" fill-rule="nonzero" stroke="black" stroke-width="7.62" stroke-linejoin="bevel" points="18607,6827 18509,7221 18435,7664 18404,8188 18392,8533 "/>
   <polyline fill="none" fill-rule="nonzero" stroke="black" stroke-width="7.62" stroke-linejoin="bevel" points="17266,6798 17162,7211 17094,7642 17063,8178 17051,8517 "/>
   <polyline fill="none" fill-rule="nonzero" stroke="black" stroke-width="7.62" stroke-linejoin="bevel" points="15958,7139 15853,7533 15779,7977 15755,8507 15736,8858 "/>
   <polyline fill="none" fill-rule="nonzero" stroke="black" stroke-width="7.62" stroke-linejoin="bevel" points="17674,7138 17576,7532 17502,7975 17471,8499 17459,8844 "/>
   <polyline fill="none" fill-rule="nonzero" stroke="black" stroke-width="7.62" stroke-linejoin="bevel" points="17392,9031 17293,9426 17219,9869 17188,10393 17176,10738 "/>
   <polyline fill="none" fill-rule="nonzero" stroke="black" stroke-width="7.62" stroke-linejoin="bevel" points="14738,8565 14633,8922 14565,9335 14534,9809 14522,10123 "/>
   <polyline fill="none" fill-rule="nonzero" stroke="black" stroke-width="7.62" stroke-linejoin="bevel" points="21306,8407 21201,8807 21134,9251 21103,9780 21090,10119 "/>
   <polyline fill="none" fill-rule="nonzero" stroke="black" stroke-width="7.62" stroke-linejoin="bevel" points="20640,7699 20536,8087 20462,8531 20437,9060 20419,9405 "/>
   <polyline fill="none" fill-rule="nonzero" stroke="black" stroke-width="7.62" stroke-linejoin="bevel" points="20922,8492 20817,8886 20743,9335 20719,9853 20700,10204 "/>
   <polyline fill="none" fill-rule="nonzero" stroke="black" stroke-width="7.62" stroke-linejoin="bevel" points="15256,9248 15151,9636 15077,10079 15052,10603 15034,10954 "/>
   <polyline fill="none" fill-rule="nonzero" stroke="black" stroke-width="7.62" stroke-linejoin="bevel" points="19411,8790 19306,9178 19238,9621 19207,10151 19195,10490 "/>
   <polyline fill="none" fill-rule="nonzero" stroke="black" stroke-width="7.62" stroke-linejoin="bevel" points="15381,7552 15276,7872 15202,8235 15178,8666 15159,8950 "/>
   <polyline fill="none" fill-rule="nonzero" stroke="black" stroke-width="7.62" stroke-linejoin="bevel" points="18585,8975 18481,9369 18407,9819 18382,10336 18364,10687 "/>
   <polyline fill="none" fill-rule="nonzero" stroke="black" stroke-width="7.62" stroke-linejoin="bevel" points="18020,8452 17915,8828 17848,9228 17817,9715 17798,10029 "/>
   <polyline fill="none" fill-rule="nonzero" stroke="black" stroke-width="7.62" stroke-linejoin="bevel" points="16672,9385 16567,9761 16499,10161 16468,10642 16456,10962 "/>
   <polyline fill="none" fill-rule="nonzero" stroke="black" stroke-width="7.62" stroke-linejoin="bevel" points="19876,9155 19772,9543 19698,9980 19673,10510 19655,10855 "/>
   <polyline fill="none" fill-rule="nonzero" stroke="black" stroke-width="7.62" stroke-linejoin="bevel" points="16826,7335 16728,7729 16654,8173 16623,8696 16611,9041 "/>
  </g>
  <g id="Leafinf_pilo_lot" onclick="parent.replacechar('Leafinf_pilo_lot')" onmousemove="parent.showtooltip('Leafinf_pilo_lot','Face inf&#233;rieure : pilosit&#233; importante')" onmouseout="parent.hidetooltip('Leafinf_pilo_lot')" cursor="pointer">
   <polygon fill="#78B43C" fill-rule="nonzero" stroke="#2C2C2B" stroke-width="7.62" stroke-linejoin="bevel" points="3456,11246 1356,14454 10644,14454 8544,11246 "/>
   <polyline fill="none" fill-rule="nonzero" stroke="black" stroke-width="7.62" stroke-linejoin="bevel" points="2964,12637 2859,12995 2791,13407 2760,13881 2748,14196 "/>
   <polyline fill="none" fill-rule="nonzero" stroke="black" stroke-width="7.62" stroke-linejoin="bevel" points="9815,12508 9710,12908 9642,13351 9611,13881 9599,14220 "/>
   <polyline fill="none" fill-rule="nonzero" stroke="black" stroke-width="7.62" stroke-linejoin="bevel" points="9714,12026 9610,12414 9536,12858 9511,13387 9493,13732 "/>
   <polyline fill="none" fill-rule="nonzero" stroke="black" stroke-width="7.62" stroke-linejoin="bevel" points="8696,12253 8591,12647 8517,13097 8492,13614 8474,13965 "/>
   <polyline fill="none" fill-rule="nonzero" stroke="black" stroke-width="7.62" stroke-linejoin="bevel" points="7835,12362 7731,12750 7657,13194 7632,13717 7614,14068 "/>
   <polyline fill="none" fill-rule="nonzero" points="7552,12071 7447,12459 7380,12902 7349,13432 7336,13771 "/>
   <polyline fill="none" fill-rule="nonzero" stroke="black" stroke-width="7.62" stroke-linejoin="bevel" points="7367,12500 7262,12821 7188,13184 7164,13615 7145,13898 "/>
   <polyline fill="none" fill-rule="nonzero" stroke="black" stroke-width="7.62" stroke-linejoin="bevel" points="6727,12256 6622,12650 6548,13099 6523,13617 6505,13968 "/>
   <polyline fill="none" fill-rule="nonzero" stroke="black" stroke-width="7.62" stroke-linejoin="bevel" points="5879,12553 5774,12929 5706,13329 5676,13815 5657,14130 "/>
   <polyline fill="none" fill-rule="nonzero" stroke="black" stroke-width="7.62" stroke-linejoin="bevel" points="5152,12553 5047,12929 4980,13329 4949,13809 4937,14130 "/>
   <polyline fill="none" fill-rule="nonzero" points="4836,12748 4731,13105 4657,13512 4633,13999 4614,14313 "/>
   <polyline fill="none" fill-rule="nonzero" points="4220,12631 4115,13001 4042,13407 4017,13881 3998,14208 "/>
   <polyline fill="none" fill-rule="nonzero" points="2194,12440 2089,12841 2015,13278 1991,13814 1972,14159 "/>
   <polyline fill="none" fill-rule="nonzero" stroke="black" stroke-width="7.62" stroke-linejoin="bevel" points="2607,11722 2502,12122 2428,12572 2404,13083 2385,13428 "/>
   <polyline fill="none" fill-rule="nonzero" stroke="black" stroke-width="7.62" stroke-linejoin="bevel" points="9474,10858 9369,11264 9295,11701 9270,12237 9252,12576 "/>
   <polyline fill="none" fill-rule="nonzero" stroke="black" stroke-width="7.62" stroke-linejoin="bevel" points="8937,12306 8833,12700 8759,13149 8734,13667 8716,14011 "/>
   <polyline fill="none" fill-rule="nonzero" stroke="black" stroke-width="7.62" stroke-linejoin="bevel" points="9036,10451 8932,10845 8864,11289 8833,11818 8821,12169 "/>
   <polyline fill="none" fill-rule="nonzero" stroke="black" stroke-width="7.62" stroke-linejoin="bevel" points="8507,10580 8402,10981 8328,11418 8303,11948 8285,12286 "/>
   <polyline fill="none" fill-rule="nonzero" stroke="black" stroke-width="7.62" stroke-linejoin="bevel" points="7891,10673 7786,11067 7712,11523 7688,12058 7669,12397 "/>
   <polyline fill="none" fill-rule="nonzero" stroke="black" stroke-width="7.62" stroke-linejoin="bevel" points="7180,12292 7076,12674 7002,13117 6977,13647 6959,13992 "/>
   <polyline fill="none" fill-rule="nonzero" stroke="black" stroke-width="7.62" stroke-linejoin="bevel" points="6764,10710 6659,11110 6585,11553 6560,12077 6542,12422 "/>
   <polyline fill="none" fill-rule="nonzero" stroke="black" stroke-width="7.62" stroke-linejoin="bevel" points="6320,11092 6216,11480 6142,11929 6117,12453 6099,12798 "/>
   <polyline fill="none" fill-rule="nonzero" stroke="black" stroke-width="7.62" stroke-linejoin="bevel" points="6133,12278 6028,12684 5954,13127 5929,13651 5911,13996 "/>
   <polyline fill="none" fill-rule="nonzero" points="5138,12157 5033,12564 4959,13001 4934,13530 4916,13875 "/>
   <polyline fill="none" fill-rule="nonzero" stroke="black" stroke-width="7.62" stroke-linejoin="bevel" points="4214,12372 4109,12766 4035,13204 4010,13733 3992,14072 "/>
   <polyline fill="none" fill-rule="nonzero" stroke="black" stroke-width="7.62" stroke-linejoin="bevel" points="5242,10803 5137,11203 5070,11646 5039,12170 5020,12527 "/>
   <polyline fill="none" fill-rule="nonzero" stroke="black" stroke-width="7.62" stroke-linejoin="bevel" points="3573,12249 3468,12656 3401,13099 3370,13623 3358,13968 "/>
   <polyline fill="none" fill-rule="nonzero" stroke="black" stroke-width="7.62" stroke-linejoin="bevel" points="3160,10964 3055,11345 2981,11801 2956,12337 2938,12676 "/>
   <polyline fill="none" fill-rule="nonzero" stroke="black" stroke-width="7.62" stroke-linejoin="bevel" points="3777,10531 3678,10919 3604,11363 3573,11892 3561,12237 "/>
   <polyline fill="none" fill-rule="nonzero" stroke="black" stroke-width="7.62" stroke-linejoin="bevel" points="10403,12705 10299,13075 10231,13475 10200,13968 10188,14276 "/>
   <polyline fill="none" fill-rule="nonzero" stroke="black" stroke-width="7.62" stroke-linejoin="bevel" points="10133,12329 10028,12724 9954,13167 9929,13691 9911,14029 "/>
   <polyline fill="none" fill-rule="nonzero" stroke="black" stroke-width="7.62" stroke-linejoin="bevel" points="8790,9570 8685,9964 8617,10402 8587,10938 8568,11282 "/>
   <polyline fill="none" fill-rule="nonzero" stroke="black" stroke-width="7.62" stroke-linejoin="bevel" points="8383,9570 8279,9958 8211,10414 8180,10950 8162,11289 "/>
   <polyline fill="none" fill-rule="nonzero" stroke="black" stroke-width="7.62" stroke-linejoin="bevel" points="7601,9570 7497,9958 7423,10396 7398,10931 7380,11276 "/>
   <polyline fill="none" fill-rule="nonzero" stroke="black" stroke-width="7.62" stroke-linejoin="bevel" points="7146,9546 7041,9940 6973,10390 6942,10907 6930,11258 "/>
   <polyline fill="none" fill-rule="nonzero" stroke="black" stroke-width="7.62" stroke-linejoin="bevel" points="6579,9570 6480,9964 6406,10408 6376,10931 6363,11276 "/>
   <polyline fill="none" fill-rule="nonzero" stroke="black" stroke-width="7.62" stroke-linejoin="bevel" points="5464,9570 5359,9983 5292,10414 5261,10950 5249,11289 "/>
   <polyline fill="none" fill-rule="nonzero" stroke="black" stroke-width="7.62" stroke-linejoin="bevel" points="4716,11798 4612,12199 4544,12642 4513,13165 4495,13523 "/>
   <polyline fill="none" fill-rule="nonzero" stroke="black" stroke-width="7.62" stroke-linejoin="bevel" points="4497,10470 4393,10870 4325,11313 4294,11837 4282,12194 "/>
   <polyline fill="none" fill-rule="nonzero" stroke="black" stroke-width="7.62" stroke-linejoin="bevel" points="8119,9570 8014,9971 7946,10420 7915,10950 7903,11295 "/>
   <polyline fill="none" fill-rule="nonzero" stroke="black" stroke-width="7.62" stroke-linejoin="bevel" points="7295,10613 7191,10995 7123,11450 7092,11974 7080,12319 "/>
   <polyline fill="none" fill-rule="nonzero" stroke="black" stroke-width="7.62" stroke-linejoin="bevel" points="6407,12352 6302,12746 6228,13196 6203,13713 6185,14058 "/>
   <polyline fill="none" fill-rule="nonzero" stroke="black" stroke-width="7.62" stroke-linejoin="bevel" points="5637,10802 5532,11196 5458,11640 5433,12163 5415,12502 "/>
   <polyline fill="none" fill-rule="nonzero" stroke="black" stroke-width="7.62" stroke-linejoin="bevel" points="4916,9570 4811,9971 4744,10402 4713,10938 4694,11289 "/>
   <polyline fill="none" fill-rule="nonzero" stroke="black" stroke-width="7.62" stroke-linejoin="bevel" points="4288,9570 4183,9971 4115,10402 4085,10938 4072,11289 "/>
   <polyline fill="none" fill-rule="nonzero" points="3672,12416 3567,12804 3493,13247 3469,13771 3450,14122 "/>
   <polyline fill="none" fill-rule="nonzero" points="8614,12215 8509,12609 8441,13046 8411,13576 8392,13920 "/>
   <polyline fill="none" fill-rule="nonzero" stroke="black" stroke-width="7.62" stroke-linejoin="bevel" points="8018,11955 7913,12343 7839,12781 7814,13310 7796,13655 "/>
   <polyline fill="none" fill-rule="nonzero" stroke="black" stroke-width="7.62" stroke-linejoin="bevel" points="3506,9798 3401,10192 3327,10636 3302,11166 3284,11517 "/>
   <polyline fill="none" fill-rule="nonzero" stroke="black" stroke-width="7.62" stroke-linejoin="bevel" points="6098,9712 6000,10106 5926,10549 5895,11073 5883,11418 "/>
   <polyline fill="none" fill-rule="nonzero" stroke="black" stroke-width="7.62" stroke-linejoin="bevel" points="5392,12284 5293,12678 5219,13122 5188,13645 5176,13990 "/>
   <polyline fill="none" fill-rule="nonzero" points="2738,11818 2633,12175 2565,12588 2534,13062 2522,13376 "/>
   <polyline fill="none" fill-rule="nonzero" stroke="black" stroke-width="7.62" stroke-linejoin="bevel" points="9278,12338 9173,12738 9105,13182 9074,13712 9062,14050 "/>
   <polyline fill="none" fill-rule="nonzero" points="9375,12394 9271,12782 9197,13225 9172,13755 9154,14100 "/>
   <polyline fill="none" fill-rule="nonzero" points="8809,12197 8704,12591 8630,13040 8605,13558 8587,13909 "/>
   <polyline fill="none" fill-rule="nonzero" points="7694,12387 7589,12775 7515,13219 7491,13742 7472,14093 "/>
   <polyline fill="none" fill-rule="nonzero" points="7411,12043 7306,12431 7238,12874 7207,13404 7195,13742 "/>
   <polyline fill="none" fill-rule="nonzero" points="7084,12868 6980,13188 6906,13552 6881,13983 6862,14266 "/>
   <polyline fill="none" fill-rule="nonzero" points="6585,12227 6481,12621 6407,13071 6382,13588 6364,13939 "/>
   <polyline fill="none" fill-rule="nonzero" points="6105,12751 6000,13126 5933,13527 5902,14013 5883,14328 "/>
   <polyline fill="none" fill-rule="nonzero" points="5378,12751 5274,13126 5206,13527 5175,14007 5163,14328 "/>
   <polyline fill="none" fill-rule="nonzero" points="4695,12720 4590,13077 4516,13484 4491,13970 4473,14284 "/>
   <polyline fill="none" fill-rule="nonzero" points="4079,12603 3974,12973 3900,13379 3876,13853 3857,14180 "/>
   <polyline fill="none" fill-rule="nonzero" points="2053,12412 1948,12812 1874,13250 1849,13786 1831,14130 "/>
   <polyline fill="none" fill-rule="nonzero" stroke="black" stroke-width="7.62" stroke-linejoin="bevel" points="2126,12315 2022,12716 1948,13165 1923,13676 1905,14021 "/>
   <polyline fill="none" fill-rule="nonzero" stroke="black" stroke-width="7.62" stroke-linejoin="bevel" points="8344,12164 8239,12558 8165,13008 8140,13525 8122,13870 "/>
   <polyline fill="none" fill-rule="nonzero" stroke="black" stroke-width="7.62" stroke-linejoin="bevel" points="7491,11359 7386,11741 7313,12184 7288,12714 7270,13059 "/>
   <polyline fill="none" fill-rule="nonzero" stroke="black" stroke-width="7.62" stroke-linejoin="bevel" points="5822,11599 5717,12006 5643,12449 5618,12973 5600,13317 "/>
   <polyline fill="none" fill-rule="nonzero" points="4996,12129 4892,12535 4818,12973 4793,13502 4775,13847 "/>
   <polyline fill="none" fill-rule="nonzero" stroke="black" stroke-width="7.62" stroke-linejoin="bevel" points="4553,11581 4448,11975 4374,12412 4350,12942 4331,13281 "/>
   <polyline fill="none" fill-rule="nonzero" stroke="black" stroke-width="7.62" stroke-linejoin="bevel" points="3942,11679 3837,12079 3769,12523 3739,13046 3720,13403 "/>
   <polyline fill="none" fill-rule="nonzero" stroke="black" stroke-width="7.62" stroke-linejoin="bevel" points="3290,11599 3186,12006 3118,12449 3087,12973 3075,13317 "/>
   <polyline fill="none" fill-rule="nonzero" stroke="black" stroke-width="7.62" stroke-linejoin="bevel" points="9244,11207 9140,11577 9072,11977 9041,12469 9029,12777 "/>
   <polyline fill="none" fill-rule="nonzero" points="9991,12301 9886,12695 9813,13139 9788,13662 9769,14001 "/>
   <polyline fill="none" fill-rule="nonzero" stroke="black" stroke-width="7.62" stroke-linejoin="bevel" points="6887,11815 6782,12209 6709,12658 6684,13176 6665,13521 "/>
   <polyline fill="none" fill-rule="nonzero" points="2937,11719 2832,12208 2758,12766 2734,13425 2715,13867 "/>
   <polyline fill="none" fill-rule="nonzero" points="8501,12554 8396,12948 8328,13385 8298,13915 8279,14260 "/>
   <polyline fill="none" fill-rule="nonzero" stroke="black" stroke-width="7.62" stroke-linejoin="bevel" points="7594,12238 7489,12626 7415,13063 7390,13593 7372,13938 "/>
   <polyline fill="none" fill-rule="nonzero" stroke="black" stroke-width="7.62" stroke-linejoin="bevel" points="4883,12228 4784,12622 4710,13065 4680,13589 4667,13934 "/>
  </g>
 </g>
<image xlink:href="tick.gif" id="imgtick" x="-10000" y="-10000" width="1500" height="1500"/>
<rect id="recttooltip" x="-10000" y="-10000" width="5500" height="600" fill-opacity="0.85" pointer-events="none"/>
<text id="textboxid" x="-10000" y="-10000" pointer-events="none"> </text>
</a></svg>
