<?xml version="1.0" encoding="UTF-8"?>
<!DOCTYPE svg PUBLIC "-//W3C//DTD SVG 1.1//EN" "http://www.w3.org/Graphics/SVG/1.1/DTD/svg11.dtd">
<!-- Creator: CorelDRAW X5 -->
<svg xmlns="http://www.w3.org/2000/svg" xml:space="preserve" shape-rendering="geometricPrecision" text-rendering="geometricPrecision" image-rendering="optimizeQuality" fill-rule="evenodd" clip-rule="evenodd"
viewBox="0 0 24000 18000"
 xmlns:xlink="http://www.w3.org/1999/xlink">
 <defs>
     <linearGradient id="id0" gradientUnits="userSpaceOnUse" x1="17285.8" y1="10995.9" x2="16008.3" y2="10700.9">
      <stop offset="0" stop-color="#2A2A29"/>
      <stop offset="1" stop-color="#FEFEFE"/>
     </linearGradient>
    <linearGradient id="id1" gradientUnits="userSpaceOnUse" x1="4143.39" y1="10562.5" x2="5299.56" y2="10295.6">
     <stop offset="0" stop-color="#2A2A29"/>
     <stop offset="1" stop-color="#FEFEFE"/>
    </linearGradient>
 </defs>
<a>
 <g id="Layer_x0020_1">
  <metadata id="CorelCorpID_0Corel-Layer"/>
  <g id="L_gra" onclick="parent.replacechar('L_gra')" onmousemove="parent.showtooltip('L_gra','Feuilles de Gramin&#233;e')" onmouseout="parent.hidetooltip('L_gra')" cursor="pointer">
   <path id="Limbe_poa" fill="#8FD400" stroke="black" stroke-width="7.62" d="M16134 12732c-161,-604 83,-1589 -103,-1967 -70,-284 -324,-618 54,-890 81,-561 1478,-1176 1574,-1231 777,-579 11,-2491 971,-1964 150,82 213,-21 395,35 508,156 790,639 880,1285 178,1270 -918,2604 190,3485 143,114 -389,-110 -430,-139 -1334,-946 -99,-2146 -404,-3583 -78,-368 -280,-804 -591,-999 -382,-20 143,983 -148,1883 -195,727 -436,1689 -1174,1891 -143,144 -279,1583 -155,2067 -267,168 -797,366 -1059,129z"/>
   <g id="tige_poa">
    <path fill="url(#id0)" stroke="#999999" stroke-width="7.62" stroke-linejoin="bevel" d="M17185 8816l-1069 -17c-47,957 -11,2829 0,3824 76,123 360,273 510,267 248,8 447,-123 555,-191 17,-1139 44,-2840 4,-3884z"/>
    <path fill="#A29A9A" stroke="black" stroke-width="7.62" stroke-linejoin="bevel" d="M16653 8943c-332,0 -538,-78 -538,-165 0,-97 205,-165 538,-165 339,0 534,85 534,180 0,87 -195,150 -534,150z"/>
   </g>
   <g id="gaine">
    <path fill="#8FD400" stroke="black" stroke-width="7.62" stroke-linejoin="bevel" d="M16643 11064c9,144 120,1574 90,1863 -371,27 -759,-180 -794,-391 -39,-556 205,-1408 67,-1842 199,277 423,385 638,369z"/>
    <path fill="#8FD400" stroke="black" stroke-width="7.62" stroke-linejoin="bevel" d="M17263 10846c-103,435 2,1115 23,1637 -40,251 -379,514 -705,440 -95,-270 -70,-1735 -55,-1960 329,16 744,-233 809,-426l-73 308z"/>
   </g>
  </g>
  <g id="L_sed" onclick="parent.replacechar('L_sed')" onmousemove="parent.showtooltip('L_sed','Feuilles de Cyperac&#233;e')" onmouseout="parent.hidetooltip('L_sed')" cursor="pointer">
   <polygon id="feuille_2" fill="#B8DB7C" stroke="black" stroke-width="7.62" stroke-linejoin="bevel" points="7848,4874 4126,10913 4726,11185 7465,5563 "/>
   <polygon fill="url(#id1)" stroke="#999999" stroke-width="7.62" stroke-linejoin="bevel" points="5245,11142 5245,9580 4683,9799 4205,9482 4198,11376 "/>
   <polygon id="feuille" fill="#8FD400" stroke="black" stroke-width="7.62" stroke-linejoin="bevel" points="7874,4870 5329,10983 5329,12913 4670,13215 4135,12915 4135,10927 4677,11185 7796,4785 "/>
   <polygon fill="#A29A9A" stroke="black" stroke-width="7.62" stroke-linejoin="bevel" points="5245,9580 4677,9799 4218,9482 "/>
   <g>
    <polygon fill="none" fill-rule="nonzero" stroke="#999999" stroke-width="7.62" points="4677,11185 4677,13177 "/>
   </g>
   <polygon fill="none" stroke="#999999" stroke-width="7.62" stroke-linejoin="bevel" points="4677,9809 4677,11104 "/>
   <polygon fill="none" stroke="black" stroke-width="7.62" stroke-linejoin="bevel" points="5257,11008 4753,11172 "/>
  </g>
 </g>
<image xlink:href="tick.gif" id="imgtick" x="-10000" y="-10000" width="1500" height="1500"/>
<rect id="recttooltip" x="-10000" y="-10000" width="5500" height="600" fill-opacity="0.85" pointer-events="none"/>
<text id="textboxid" x="-10000" y="-10000" pointer-events="none"> </text>
</a></svg>
