<?xml version="1.0" encoding="UTF-8"?>
<!DOCTYPE svg PUBLIC "-//W3C//DTD SVG 1.1//EN" "http://www.w3.org/Graphics/SVG/1.1/DTD/svg11.dtd">
<!-- Creator: CorelDRAW X5 -->
<svg xmlns="http://www.w3.org/2000/svg" xml:space="preserve" shape-rendering="geometricPrecision" text-rendering="geometricPrecision" image-rendering="optimizeQuality" fill-rule="evenodd" clip-rule="evenodd"
viewBox="0 0 24000 18000"
 xmlns:xlink="http://www.w3.org/1999/xlink">
<a>
 <g id="Layer_x0020_1">
  <metadata id="CorelCorpID_0Corel-Layer"/>
  <g id="Pod_artic" onclick="parent.replacechar('Pod_artic')" onmousemove="parent.showtooltip('Pod_artic','Gousse articulée')" onmouseout="parent.hidetooltip('Pod_artic')" cursor="pointer">
    <metadata id="CorelCorpID_1">
     <odm name="Name" value="articulé" type="0"/>
    </metadata>
   <path fill="#00C800" fill-rule="nonzero" stroke="black" stroke-width="7.62" stroke-linejoin="bevel" d="M1736 12488c419,-982 1445,-3529 2196,-5030 763,-1508 1708,-3047 2503,-4311 -38,206 -175,432 -125,619 38,188 432,369 601,526 200,200 -94,907 -369,913 -701,13 -282,-63 -106,238 138,213 -125,1032 -413,1001 -738,-63 -150,0 -81,250 81,244 -225,1020 -538,1020 -732,0 -150,-19 -81,244 69,250 -200,1001 -488,1007 -964,19 -169,-25 -75,225 56,163 -219,820 -413,820 -845,13 -163,6 -81,244 63,163 -138,832 -350,832 -957,25 -232,-125 -100,232 38,106 -225,820 -419,801 -394,-56 100,-6 -213,369 -249,299 -804,59 -1095,125 -144,19 -150,131 -213,200l-225 444c-269,-238 -319,206 88,-770z"/>
   <polygon fill="#FCD5A6" fill-rule="nonzero" stroke="black" stroke-width="7.62" stroke-linejoin="bevel" points="5484,5024 6066,5174 "/>
   <polygon fill="#FCD5A6" fill-rule="nonzero" stroke="black" stroke-width="7.62" stroke-linejoin="bevel" points="4890,6263 5503,6382 "/>
   <polygon fill="#FCD5A6" fill-rule="nonzero" stroke="black" stroke-width="7.62" stroke-linejoin="bevel" points="4239,7558 4915,7658 "/>
   <polygon fill="#FCD5A6" fill-rule="nonzero" stroke="black" stroke-width="7.62" stroke-linejoin="bevel" points="3557,8853 4176,8941 "/>
   <polygon fill="#FCD5A6" fill-rule="nonzero" stroke="black" stroke-width="7.62" stroke-linejoin="bevel" points="3150,9879 3688,9935 "/>
   <polygon fill="#FCD5A6" fill-rule="nonzero" stroke="black" stroke-width="7.62" stroke-linejoin="bevel" points="2612,11012 3282,11062 "/>
   <polygon fill="#FCD5A6" fill-rule="nonzero" stroke="black" stroke-width="7.62" stroke-linejoin="bevel" points="2349,11837 2906,11975 "/>
   <path id="gousse_sepales" fill="#FFAA00" stroke="black" stroke-width="7.62" d="M1221 13324c34,-93 166,-105 225,-209 113,-199 169,-502 227,-714 3,-407 -143,-870 195,-965 -96,289 108,455 -33,845 -8,21 488,-525 723,-545 -139,278 -231,357 -272,708 -38,322 325,-230 751,-272 26,-3 -202,558 -737,541 -74,125 -334,411 -641,520 -139,112 -33,304 -84,286 -30,-11 -123,-129 -142,-170 -48,-102 -172,6 -211,-25z"/>
  </g>
  <g id="Pod_comp" onclick="parent.replacechar('Pod_comp')" onmousemove="parent.showtooltip('Pod_comp','Gousse aplatie')" onmouseout="parent.hidetooltip('Pod_comp')" cursor="pointer">
    <metadata id="CorelCorpID_2">
     <odm name="Name" value="flat" type="0"/>
    </metadata>
   <path fill="#00C800" fill-rule="nonzero" stroke="black" stroke-width="7.62" stroke-linejoin="bevel" d="M9009 12473c419,-976 1376,-3529 2133,-5037 757,-1502 1771,-3035 2565,-4305l-131 626c368,474 660,693 432,1345 -1350,2594 -2372,4690 -3391,7170 -188,250 -400,307 -607,357 -213,63 -513,-56 -657,-25 -138,19 -144,131 -219,194l-213 444c-238,-131 -332,213 88,-770z"/>
   <polygon fill="#FCD5A6" fill-rule="nonzero" stroke="black" stroke-width="7.62" stroke-linejoin="bevel" points="12851,5397 13427,5547 "/>
   <polygon fill="#FCD5A6" fill-rule="nonzero" stroke="black" stroke-width="7.62" stroke-linejoin="bevel" points="12326,6323 12951,6366 "/>
   <polygon fill="#FCD5A6" fill-rule="nonzero" stroke="black" stroke-width="7.62" stroke-linejoin="bevel" points="11831,7080 12513,7186 "/>
   <polygon fill="#FCD5A6" fill-rule="nonzero" stroke="black" stroke-width="7.62" stroke-linejoin="bevel" points="11506,7906 12125,8050 "/>
   <polygon fill="#FCD5A6" fill-rule="nonzero" stroke="black" stroke-width="7.62" stroke-linejoin="bevel" points="11112,8775 11744,8819 "/>
   <polygon fill="#FCD5A6" fill-rule="nonzero" stroke="black" stroke-width="7.62" stroke-linejoin="bevel" points="10686,9495 11306,9495 "/>
   <polygon fill="#FCD5A6" fill-rule="nonzero" stroke="black" stroke-width="7.62" stroke-linejoin="bevel" points="10492,10120 11018,10214 "/>
   <polygon fill="#FCD5A6" fill-rule="nonzero" stroke="black" stroke-width="7.62" stroke-linejoin="bevel" points="10148,10696 10830,10752 "/>
   <polygon fill="#FCD5A6" fill-rule="nonzero" stroke="black" stroke-width="7.62" stroke-linejoin="bevel" points="9860,11378 10442,11378 "/>
   <polygon fill="#FCD5A6" fill-rule="nonzero" stroke="black" stroke-width="7.62" stroke-linejoin="bevel" points="9766,11897 10342,11897 "/>
   <path fill="#FEFEFE" fill-rule="nonzero" stroke="black" stroke-width="7.62" stroke-linejoin="bevel" d="M12232 10177c0,-361 1777,-356 1777,0 0,355 -1777,360 -1777,0z"/>
   <path fill="#2C2C2B" fill-rule="nonzero" stroke="black" stroke-width="7.62" stroke-linejoin="bevel" d="M12250 10233c-63,0 -106,-31 -106,-63 0,-44 44,-75 106,-75 75,0 125,31 125,75 0,31 -50,63 -125,63z"/>
   <path id="gousse_sepales_0" fill="#FFAA00" stroke="black" stroke-width="7.62" d="M8453 13292c42,-89 174,-90 243,-188 131,-188 214,-484 290,-690 39,-405 -64,-879 282,-943 -121,279 67,463 -109,838 -10,20 534,-479 769,-478 -164,264 -263,335 -335,680 -66,318 344,-200 773,-203 26,0 -251,537 -783,473 -85,118 -370,379 -685,461 -149,99 -61,300 -109,278 -29,-13 -111,-140 -126,-182 -39,-106 -172,-10 -208,-44z"/>
  </g>
  <g id="Pod_cylind" onclick="parent.replacechar('Pod_cylind')" onmousemove="parent.showtooltip('Pod_cylind','Gousse cylindrique')" onmouseout="parent.hidetooltip('Pod_cylind')" cursor="pointer">
    <metadata id="CorelCorpID_3">
     <odm name="Name" value="cylindrical" type="0"/>
    </metadata>
   <ellipse fill="#00C800" stroke="black" stroke-width="7.62" cx="20711" cy="4257" rx="910" ry="803"/>
   <path fill="#00C800" fill-rule="nonzero" stroke="black" stroke-width="7.62" stroke-linejoin="bevel" d="M17195 12428c-225,-313 -369,-400 -369,-845 6,-1552 1164,-3942 1477,-4636 476,-1089 1595,-3842 2359,-3466 282,150 244,-200 519,-413 -69,275 -219,619 -194,845 19,238 231,244 413,300 289,39 231,169 38,820 -1012,2070 -2090,4712 -2928,7164 -156,257 -332,319 -519,363 -175,56 -438,-56 -563,-38 -185,39 -310,510 -369,657 -31,-81 -106,-31 -100,-100 13,-250 250,-626 238,-651z"/>
   <path fill="none" fill-rule="nonzero" stroke="black" stroke-width="7.62" stroke-linejoin="bevel" d="M20292 4939c94,188 194,244 332,294 144,50 357,0 532,0"/>
   <path fill="none" fill-rule="nonzero" stroke="black" stroke-width="7.62" stroke-linejoin="bevel" d="M18027 10182c113,94 194,238 338,294 138,44 344,0 519,0"/>
   <path fill="none" fill-rule="nonzero" stroke="black" stroke-width="7.62" stroke-linejoin="bevel" d="M18591 8668c113,94 188,238 332,288 144,38 357,0 532,0"/>
   <path fill="none" fill-rule="nonzero" stroke="black" stroke-width="7.62" stroke-linejoin="bevel" d="M19147 7473c119,100 200,244 338,294 144,44 357,0 526,0"/>
   <path fill="none" fill-rule="nonzero" stroke="black" stroke-width="7.62" stroke-linejoin="bevel" d="M19717 6165c100,100 188,244 332,288 138,44 350,0 526,0"/>
   <path fill="none" fill-rule="nonzero" stroke="black" stroke-width="7.62" stroke-linejoin="bevel" d="M17683 11371c113,94 200,231 344,282 144,50 344,0 519,0"/>
   <path fill="none" fill-rule="nonzero" stroke="black" stroke-width="7.62" stroke-linejoin="bevel" d="M19879 4419c-19,113 6,163 88,244 88,81 113,44 163,63"/>
   <path fill="none" fill-rule="nonzero" stroke="black" stroke-width="7.62" stroke-linejoin="bevel" d="M17183 10876c-13,113 13,169 88,238 88,81 100,38 150,63"/>
   <path fill="none" fill-rule="nonzero" stroke="black" stroke-width="7.62" stroke-linejoin="bevel" d="M17571 9631c-6,75 6,113 75,169 81,50 94,25 138,44"/>
   <path fill="none" fill-rule="nonzero" stroke="black" stroke-width="7.62" stroke-linejoin="bevel" d="M18078 8211c-13,106 13,175 113,244 100,81 131,38 182,69"/>
   <path fill="none" fill-rule="nonzero" stroke="black" stroke-width="7.62" stroke-linejoin="bevel" d="M18547 6997c-19,106 19,156 131,232 113,81 144,44 225,56"/>
   <path fill="none" fill-rule="nonzero" stroke="black" stroke-width="7.62" stroke-linejoin="bevel" d="M19198 5539c-19,125 13,188 131,269 131,94 156,50 232,63"/>
   <path fill="#FEFEFE" fill-rule="nonzero" stroke="black" stroke-width="7.62" stroke-linejoin="bevel" d="M20618 10808c-425,0 -763,-307 -763,-695 0,-394 338,-701 763,-701 425,0 776,307 776,701 0,388 -350,695 -776,695z"/>
   <path fill="black" fill-rule="nonzero" stroke="black" stroke-width="7.62" stroke-linejoin="bevel" d="M19867 10282c-94,0 -169,-50 -169,-119 0,-63 75,-125 169,-125 88,0 169,63 169,125 0,69 -81,119 -169,119z"/>
   <path fill="none" fill-rule="nonzero" stroke="black" stroke-width="7.62" stroke-linejoin="bevel" d="M17270 12516c332,-1089 282,-1545 676,-2659 338,-982 613,-1614 1132,-2709 544,-1114 1395,-2615 2027,-3935"/>
   <path id="gousse_sepales_1" fill="#FFAA00" stroke="black" stroke-width="7.62" d="M16655 13378c20,-97 149,-128 192,-239 83,-213 95,-521 121,-739 -57,-403 -267,-840 53,-983 -53,300 173,434 90,841 -5,22 407,-591 636,-645 -98,295 -177,387 -167,740 10,324 288,-275 704,-378 25,-6 -118,581 -651,643 -55,135 -271,455 -559,608 -122,131 11,306 -41,295 -31,-6 -140,-110 -165,-148 -62,-94 -169,31 -213,6z"/>
  </g>
 </g>
<image xlink:href="tick.gif" id="imgtick" x="-10000" y="-10000" width="1500" height="1500"/>
<rect id="recttooltip" x="-10000" y="-10000" width="5500" height="600" fill-opacity="0.85" pointer-events="none"/>
<text id="textboxid" x="-10000" y="-10000" pointer-events="none"> </text>
</a></svg>
