<?xml version="1.0" encoding="UTF-8"?>
<!DOCTYPE svg PUBLIC "-//W3C//DTD SVG 1.1//EN" "http://www.w3.org/Graphics/SVG/1.1/DTD/svg11.dtd">
<!-- Creator: CorelDRAW X5 -->
<svg xmlns="http://www.w3.org/2000/svg" xml:space="preserve" width="100%" height="100%" shape-rendering="geometricPrecision" text-rendering="geometricPrecision" image-rendering="optimizeQuality" fill-rule="evenodd" clip-rule="evenodd"
viewBox="0 0 24000 18000"
 xmlns:xlink="http://www.w3.org/1999/xlink">
<a>
 <g id="Layer_x0020_1">
  <metadata id="CorelCorpID_0Corel-Layer"/>
  <g id="marge_largement_dentee" onclick="parent.replacechar('marge_largement_dentee')" onmousemove="parent.showtooltip('marge_largement_dentee','Marge largement dent&#233;e')" onmouseout="parent.hidetooltip('marge_largement_dentee')" cursor="pointer">
    <metadata id="CorelCorpID_1">
     <odm name="Name" value="large denté" type="0"/>
    </metadata>
   <polygon fill="none" stroke="black" stroke-width="7.62" stroke-linejoin="bevel" points="490,1443 7897,1443 7897,3468 490,3468 "/>
   <path fill="none" stroke="black" stroke-width="7.62" stroke-linecap="round" stroke-linejoin="bevel" d="M6842 3481c215,173 386,289 615,391 0,0 0,0 0,0 -1114,499 -1936,2091 -3984,1778 -1227,-176 -1550,-1324 -2206,-1757 0,0 -764,5 -767,5 -5,-5 3,-139 -5,-139 0,0 604,11 785,0 147,-13 433,-250 431,-286"/>
   <path fill="#78B43C" stroke="black" stroke-width="7.62" stroke-linejoin="bevel" d="M1710 3467l5114 0c-41,-34 -30,-78 91,-81 -184,-71 -446,-316 -696,-465 -49,-29 -54,-100 112,-99 -88,-30 -439,-326 -748,-421 -42,-13 -53,-80 72,-130 -178,-1 -437,-249 -909,-272 -51,-3 -401,-21 -152,-144 -369,-3 -619,32 -984,90 -40,6 -223,70 -83,-142 -127,79 -556,243 -905,559 -32,29 -8,-34 -21,-134 -80,151 -436,494 -500,719 -9,32 -64,4 -96,-82 -18,228 -182,449 -297,602z"/>
   <path fill="none" stroke="black" stroke-width="7.62" stroke-linejoin="bevel" d="M7278 3880c-980,13 -1896,53 -2868,29 -1095,-5 -1744,8 -2839,-29"/>
  </g>
  <g id="marge_denticulee" onclick="parent.replacechar('marge_denticulee')" onmousemove="parent.showtooltip('marge_denticulee','Marge denticul&#233;e')" onmouseout="parent.hidetooltip('marge_denticulee')" cursor="pointer">
    <metadata id="CorelCorpID_2">
     <odm name="Name" value="denticulé" type="0"/>
    </metadata>
   <path fill="none" stroke="black" stroke-width="7.62" stroke-linecap="round" stroke-linejoin="bevel" d="M14763 3481c215,173 386,289 615,391 0,0 0,0 0,0 -1114,499 -1936,2091 -3984,1778 -1227,-176 -1550,-1324 -2206,-1757 0,0 -764,5 -767,5 -5,-5 3,-139 -5,-139 0,0 604,11 785,0 147,-13 433,-250 431,-286"/>
   <path fill="none" stroke="black" stroke-width="7.62" stroke-linejoin="bevel" d="M15199 3880c-980,13 -1896,53 -2868,29 -1095,-5 -1744,8 -2839,-29"/>
   <path fill="#78B43C" stroke="black" stroke-width="7.62" stroke-linejoin="bevel" d="M9638 3471l5114 0c-43,-56 -168,-91 -179,-108 41,-40 15,-23 48,-42 -41,-32 -311,-97 -158,-169 -71,-66 -75,-45 -262,-99 33,-27 23,-41 67,-70 -193,-104 -123,-60 -265,-119 47,-44 39,-50 67,-71 -138,-93 -157,-82 -293,-137 45,-39 37,-38 72,-71 -199,-94 -213,-68 -312,-83 55,-33 46,-42 82,-87 -176,-92 -290,-105 -322,-79 4,-21 42,-71 61,-88 -95,-61 -300,-58 -328,-83 19,-30 17,-43 27,-80 -200,-46 -276,8 -327,-23 8,-33 -16,-21 8,-81 -217,-23 -256,-17 -351,1 9,-34 -6,-29 7,-74 -58,-9 -185,-3 -325,52 33,-16 -1,-38 -3,-95 -155,16 -105,15 -357,109 6,-29 5,-31 -21,-87 -231,60 -293,138 -298,116 4,-34 -14,-32 -27,-69 -121,45 -225,102 -259,170 -20,-58 -3,-17 -42,-77 -68,40 -104,45 -197,185 -18,-16 -30,-27 -68,-63 -110,76 -149,129 -180,203 -17,-3 -38,-14 -84,-46 -47,37 -145,219 -142,280 -1,-9 6,28 -98,-54 -51,53 -154,193 -157,296 -18,-13 -17,-16 -71,-33 -38,48 -105,197 -99,273 2,28 -73,-27 -101,-26 -125,208 -155,254 -225,427z"/>
   <polygon fill="none" stroke="black" stroke-width="7.62" stroke-linejoin="bevel" points="8415,1443 15822,1443 15822,3468 8415,3468 "/>
  </g>
  <g id="marge_dentee_crenee" onclick="parent.replacechar('marge_dentee_crenee')" onmousemove="parent.showtooltip('marge_dentee_crenee','Marge dent&#233;e -cr&#233;n&#233;e')" onmouseout="parent.hidetooltip('marge_dentee_crenee')" cursor="pointer">
    <metadata id="CorelCorpID_3">
     <odm name="Name" value="dentée_crenée" type="0"/>
    </metadata>
   <path fill="#78B43C" stroke="black" stroke-width="7.62" stroke-linejoin="bevel" d="M22680 3452l-5145 0c72,-155 216,-879 283,-408 152,-717 148,-366 248,-365 282,-732 265,-341 375,-352 317,-665 304,-314 388,-255 443,-536 355,-172 406,-117 481,-443 273,-64 355,-64 493,-376 287,-58 347,-5 625,-318 356,-64 401,51 725,-265 416,31 462,133 699,-107 467,54 442,219 911,45 512,197 498,357 723,152 369,213 368,319 728,230 341,223 311,291 37,-11 252,118 265,158l-3 38z"/>
   <path fill="none" stroke="black" stroke-width="7.62" stroke-linejoin="bevel" d="M23092 3878c-980,13 -1896,53 -2868,29 -1095,-5 -1744,8 -2839,-29"/>
   <path fill="none" stroke="black" stroke-width="7.62" stroke-linecap="round" stroke-linejoin="bevel" d="M22681 3468c215,173 354,307 583,409 0,0 0,0 0,0 -1114,499 -1936,2091 -3984,1778 -1227,-176 -1550,-1324 -2206,-1757 0,0 -764,5 -767,5 -5,-5 3,-139 -5,-139 0,0 604,11 785,0 147,-13 433,-250 431,-286"/>
   <polygon fill="none" stroke="black" stroke-width="7.62" stroke-linejoin="bevel" points="16267,1443 23674,1443 23674,3468 16267,3468 "/>
  </g>
  <g id="marge_ondulee" onclick="parent.replacechar('marge_ondulee')" onmousemove="parent.showtooltip('marge_ondulee','Marge ondul&#233;e')" onmouseout="parent.hidetooltip('marge_ondulee')" cursor="pointer">
    <metadata id="CorelCorpID_4">
     <odm name="Name" value="ondulée" type="0"/>
    </metadata>
   <polygon fill="none" stroke="black" stroke-width="7.62" stroke-linejoin="bevel" points="270,6715 7676,6715 7676,8740 270,8740 "/>
   <path fill="none" stroke="black" stroke-width="7.62" stroke-linecap="round" stroke-linejoin="bevel" d="M6623 8753c205,173 381,289 609,391 0,0 0,0 0,0 -1111,499 -1928,2091 -3979,1778 -1232,-176 -1555,-1324 -2209,-1757 0,0 -770,5 -775,5 0,-5 8,-139 0,-139 0,0 607,10 780,0 147,-13 418,-244 402,-278"/>
   <path fill="#78B43C" stroke="black" stroke-width="7.62" stroke-linejoin="bevel" d="M1457 8740l5177 0c-286,-242 -722,-389 -885,-788 -102,-218 -570,-45 -591,-415 -16,-313 -523,-352 -825,-307 -268,29 -688,365 -825,110 -234,-423 -948,110 -1058,428 -74,168 -305,97 -431,239 -202,242 -370,481 -562,733z"/>
   <path fill="#BBDCBF" stroke="black" stroke-width="7.62" d="M2051 7973l349 -105c-87,202 -210,601 -263,625 -66,11 -60,-349 -87,-520z"/>
   <path fill="#BBDCBF" stroke="black" stroke-width="7.62" d="M3288 7179c-34,294 -179,848 -116,890 68,47 331,-423 483,-633l-139 -60 -79 -118 -150 -79z"/>
   <path fill="#BBDCBF" stroke="black" stroke-width="7.62" d="M5005 7324c-110,213 -360,588 -328,649 37,55 365,-181 541,-273l-58 -110 -29 -123 -47 -121 -79 -21z"/>
   <path fill="#BBDCBF" stroke="black" stroke-width="7.62" d="M5756 7973c-81,97 -257,281 -242,307 16,10 221,-110 328,-158l-39 -53 -47 -97z"/>
   <path fill="none" stroke="black" stroke-width="7.62" stroke-linejoin="bevel" d="M7091 9144c-1053,16 -1715,-21 -2763,-45 -1177,-5 -1883,29 -3060,-11"/>
  </g>
  <g id="marge_lisse" onclick="parent.replacechar('marge_lisse')" onmousemove="parent.showtooltip('marge_lisse','Marge lisse')" onmouseout="parent.hidetooltip('marge_lisse')" cursor="pointer">
    <metadata id="CorelCorpID_5">
     <odm name="Name" value="entire" type="0"/>
    </metadata>
   <polygon fill="none" stroke="black" stroke-width="7.62" stroke-linejoin="bevel" points="8342,6715 15748,6715 15748,8740 8342,8740 "/>
   <path fill="none" stroke="black" stroke-width="7.62" stroke-linecap="round" stroke-linejoin="bevel" d="M14690 8753c215,173 386,289 615,391 0,0 0,0 0,0 -1114,499 -1936,2091 -3984,1778 -1227,-176 -1550,-1324 -2206,-1757 0,0 -764,5 -767,5 -5,-5 3,-139 -5,-139 0,0 604,10 785,0 147,-13 433,-250 431,-286"/>
   <path fill="#78B43C" stroke="black" stroke-width="7.62" stroke-linejoin="bevel" d="M9558 8740l5114 0c-830,-693 -1573,-1741 -3157,-1531 -1119,155 -1468,861 -1957,1531z"/>
   <path fill="none" stroke="black" stroke-width="7.62" stroke-linejoin="bevel" d="M15126 9152c-980,13 -1896,53 -2868,29 -1095,-5 -1744,8 -2839,-29"/>
  </g>
  <g id="marge_irreguliere" onclick="parent.replacechar('marge_irreguliere')" onmousemove="parent.showtooltip('marge_irreguliere','Marge irr&#233;guli&#232;re')" onmouseout="parent.hidetooltip('marge_irreguliere')" cursor="pointer">
    <metadata id="CorelCorpID_6">
     <odm name="Name" value="irregulier denté" type="0"/>
    </metadata>
   <polygon fill="none" stroke="black" stroke-width="7.62" stroke-linejoin="bevel" points="16260,6715 23667,6715 23667,8740 16260,8740 "/>
   <g>
    <g>
     <path fill="none" stroke="black" stroke-width="7.62" d="M17723 8741c-96,136 -216,256 -388,354 -207,118 -1090,50 -1076,50l0 126c0,0 330,11 689,11 445,0 683,101 808,311 255,426 312,561 379,619 42,-26 -9,-153 84,-112 283,347 442,509 690,509 -51,-173 -92,-244 -88,-496 96,-201 391,-78 789,36 418,120 322,234 662,330 -83,-282 -90,-428 416,-502 462,-68 417,43 983,-54 -212,-109 -153,-314 204,-343 357,-30 578,-94 655,-152 -35,-18 -80,-21 -91,-61 -48,-177 421,-272 766,-534 -28,-37 -85,-68 -161,-95m0 0c-246,-88 -678,-139 -867,-257 -73,-46 -23,-92 49,-146 -685,-165 -993,11 -1277,-43 -126,-24 -52,-154 -18,-295 -276,-26 -323,143 -803,97 -206,-20 -155,-263 -33,-528 -291,12 -593,296 -1019,549 -427,253 -490,58 -515,-76 -25,-134 46,-358 46,-358 0,0 -436,141 -567,431 -104,230 -188,445 -318,630"/>
     <path fill="none" stroke="#2A2A29" stroke-width="7.62" d="M23074 8828c0,0 -3119,465 -5727,368"/>
    </g>
    <path fill="#78B43C" stroke="black" stroke-width="7.62" stroke-linejoin="bevel" d="M17723 8741l5322 -3c-246,-88 -678,-139 -867,-257 -73,-46 -23,-92 49,-146 -685,-165 -993,11 -1277,-43 -126,-24 -52,-154 -18,-295 -276,-26 -323,143 -803,97 -206,-20 -155,-263 -33,-528 -291,12 -593,296 -1019,549 -427,253 -490,58 -515,-76 -25,-134 46,-358 46,-358 0,0 -436,141 -567,431 -104,230 -188,445 -318,630z"/>
   </g>
  </g>
  <g id="marge_pubescente" onclick="parent.replacechar('marge_pubescente')" onmousemove="parent.showtooltip('marge_pubescente','Marge pubescente')" onmouseout="parent.hidetooltip('marge_pubescente')" cursor="pointer">
    <metadata id="CorelCorpID_7">
     <odm name="Name" value="pubescent" type="0"/>
    </metadata>
   <g id="entire">
     <metadata id="CorelCorpID_8">
      <odm name="Name" value="entire" type="0"/>
     </metadata>
    <polygon fill="none" stroke="black" stroke-width="7.62" stroke-linejoin="bevel" points="262,12010 7669,12010 7669,14035 262,14035 "/>
    <path fill="none" stroke="black" stroke-width="7.62" stroke-linecap="round" stroke-linejoin="bevel" d="M6611 14048c215,173 386,289 615,391 0,0 0,0 0,0 -1114,499 -1936,2091 -3984,1778 -1227,-176 -1550,-1324 -2206,-1757 0,0 -764,5 -767,5 -5,-5 3,-139 -5,-139 0,0 604,11 785,0 147,-13 433,-250 431,-286"/>
    <path fill="#78B43C" stroke="black" stroke-width="7.62" stroke-linejoin="bevel" d="M1479 14035l5114 0c-830,-693 -1573,-1741 -3157,-1531 -1119,155 -1468,861 -1957,1531z"/>
    <path fill="none" stroke="black" stroke-width="7.62" stroke-linejoin="bevel" d="M7047 14447c-980,13 -1896,53 -2868,29 -1095,-5 -1744,8 -2839,-29"/>
   </g>
   <g>
    <path fill="none" stroke="black" stroke-width="7.62" d="M1499 14005c0,0 -19,-89 12,-117"/>
    <path fill="none" stroke="black" stroke-width="7.62" d="M1556 13921c0,0 -19,-89 12,-117"/>
    <path fill="none" stroke="black" stroke-width="7.62" d="M1611 13845c0,0 -19,-89 12,-117"/>
    <path fill="none" stroke="black" stroke-width="7.62" d="M1672 13756c0,0 -19,-89 12,-117"/>
    <path fill="none" stroke="black" stroke-width="7.62" d="M1734 13674c0,0 -19,-89 12,-117"/>
    <path fill="none" stroke="black" stroke-width="7.62" d="M1799 13577c0,0 -19,-89 12,-117"/>
    <path fill="none" stroke="black" stroke-width="7.62" d="M1870 13484c0,0 -19,-89 12,-117"/>
    <path fill="none" stroke="black" stroke-width="7.62" d="M1943 13391c0,0 -22,-89 13,-117"/>
    <path fill="none" stroke="black" stroke-width="7.62" d="M2007 13307c0,0 -19,-89 12,-117"/>
    <path fill="none" stroke="black" stroke-width="7.62" d="M2075 13228c0,0 -19,-89 12,-117"/>
    <path fill="none" stroke="black" stroke-width="7.62" d="M2158 13138c0,0 -19,-89 12,-117"/>
    <path fill="none" stroke="black" stroke-width="7.62" d="M2239 13058c0,0 -19,-89 12,-117"/>
    <path fill="none" stroke="black" stroke-width="7.62" d="M2306 12995c0,0 -19,-89 12,-117"/>
    <path fill="none" stroke="black" stroke-width="7.62" d="M2371 12938c0,0 -19,-89 12,-117"/>
    <path fill="none" stroke="black" stroke-width="7.62" d="M2446 12884c0,0 1,-91 37,-112"/>
    <path fill="none" stroke="black" stroke-width="7.62" d="M2527 12826c0,0 0,-4 1,-11 1,-7 2,-17 4,-27 6,-27 17,-62 38,-76"/>
    <path fill="none" stroke="black" stroke-width="7.62" d="M2596 12779c0,0 9,-91 47,-115"/>
    <path fill="none" stroke="black" stroke-width="7.62" d="M2685 12732c0,0 -4,-89 31,-117"/>
    <path fill="none" stroke="black" stroke-width="7.62" d="M2835 12666c0,0 5,-91 42,-110"/>
    <path fill="none" stroke="black" stroke-width="7.62" d="M2911 12634c0,0 8,-91 46,-109"/>
    <path fill="none" stroke="black" stroke-width="7.62" d="M2973 12611c0,0 16,-90 55,-104"/>
    <path fill="none" stroke="black" stroke-width="7.62" d="M3061 12575c-6,36 6,-62 45,-92"/>
    <path fill="none" stroke="black" stroke-width="7.62" d="M3136 12559c0,0 20,-89 60,-102"/>
    <path fill="none" stroke="black" stroke-width="7.62" d="M3219 12540c0,0 21,-89 60,-101"/>
    <path fill="none" stroke="black" stroke-width="7.62" d="M3306 12520c0,0 27,-85 72,-105"/>
    <path fill="none" stroke="black" stroke-width="7.62" d="M2743 12704c0,0 13,-88 53,-109"/>
    <path fill="none" stroke="black" stroke-width="7.62" d="M3402 12505c0,0 27,-85 72,-105"/>
    <path fill="none" stroke="black" stroke-width="7.62" d="M3484 12496c0,0 27,-85 72,-105"/>
    <path fill="none" stroke="black" stroke-width="7.62" d="M3562 12486c0,0 45,-78 93,-87"/>
    <path fill="none" stroke="black" stroke-width="7.62" d="M3659 12479c0,0 45,-78 93,-87"/>
    <path fill="none" stroke="black" stroke-width="7.62" d="M3754 12476c0,0 45,-78 93,-87"/>
    <path fill="none" stroke="black" stroke-width="7.62" d="M3861 12474c0,0 45,-78 93,-87"/>
    <path fill="none" stroke="black" stroke-width="7.62" d="M3961 12478c0,0 45,-78 93,-87"/>
    <path fill="none" stroke="black" stroke-width="7.62" d="M4048 12482c0,0 59,-67 108,-68"/>
    <path fill="none" stroke="black" stroke-width="7.62" d="M4159 12493c0,0 59,-67 108,-68"/>
    <path fill="none" stroke="black" stroke-width="7.62" d="M4048 12482c0,0 59,-67 108,-68"/>
    <path fill="none" stroke="black" stroke-width="7.62" d="M4260 12512c0,0 59,-67 108,-68"/>
    <path fill="none" stroke="black" stroke-width="7.62" d="M4329 12520c0,0 72,-54 119,-44"/>
    <path fill="none" stroke="black" stroke-width="7.62" d="M4438 12545c0,0 72,-54 119,-44"/>
    <path fill="none" stroke="black" stroke-width="7.62" d="M4544 12572c0,0 73,-53 120,-43"/>
    <path fill="none" stroke="black" stroke-width="7.62" d="M4636 12603c0,0 73,-53 120,-43"/>
    <path fill="none" stroke="black" stroke-width="7.62" d="M4720 12632c0,0 73,-53 120,-43"/>
    <path fill="none" stroke="black" stroke-width="7.62" d="M4800 12664c0,0 81,-38 126,-20"/>
    <path fill="none" stroke="black" stroke-width="7.62" d="M4890 12704c0,0 81,-38 126,-20"/>
    <path fill="none" stroke="black" stroke-width="7.62" d="M4978 12743c0,0 81,-38 126,-20"/>
    <path fill="none" stroke="black" stroke-width="7.62" d="M5062 12786c0,0 81,-38 126,-20"/>
    <path fill="none" stroke="black" stroke-width="7.62" d="M5147 12833c0,0 81,-38 126,-20"/>
    <path fill="none" stroke="black" stroke-width="7.62" d="M5222 12883c0,0 81,-38 126,-20"/>
    <path fill="none" stroke="black" stroke-width="7.62" d="M5298 12928c0,0 81,-38 126,-20"/>
    <path fill="none" stroke="black" stroke-width="7.62" d="M5366 12976c0,0 81,-38 126,-20"/>
    <path fill="none" stroke="black" stroke-width="7.62" d="M5428 13019c0,0 85,-27 127,-3"/>
    <path fill="none" stroke="black" stroke-width="7.62" d="M5500 13072c0,0 85,-27 127,-3"/>
    <path fill="none" stroke="black" stroke-width="7.62" d="M5565 13122c0,0 85,-27 127,-3"/>
    <path fill="none" stroke="black" stroke-width="7.62" d="M5623 13172c-4,1 80,-26 127,-3"/>
    <path fill="none" stroke="black" stroke-width="7.62" d="M5689 13225c-4,1 80,-26 127,-3"/>
    <path fill="none" stroke="black" stroke-width="7.62" d="M5741 13270c-4,1 83,-10 126,21"/>
    <path fill="none" stroke="black" stroke-width="7.62" d="M5806 13329c-4,1 83,-10 126,21"/>
    <path fill="none" stroke="black" stroke-width="7.62" d="M5876 13386c-4,1 83,-10 126,21"/>
    <path fill="none" stroke="black" stroke-width="7.62" d="M5938 13439c-4,1 83,-10 126,21"/>
    <path fill="none" stroke="black" stroke-width="7.62" d="M5996 13496c-4,1 83,-10 126,21"/>
    <path fill="none" stroke="black" stroke-width="7.62" d="M6063 13555c-4,1 83,-10 126,21"/>
    <path fill="none" stroke="black" stroke-width="7.62" d="M6120 13610c-4,1 83,-10 126,21"/>
    <path fill="none" stroke="black" stroke-width="7.62" d="M6186 13672c-4,1 83,-10 126,21"/>
    <path fill="none" stroke="black" stroke-width="7.62" d="M6245 13723c-4,1 83,-10 126,21"/>
    <path fill="none" stroke="black" stroke-width="7.62" d="M6300 13778c-4,1 83,-10 126,21"/>
    <path fill="none" stroke="black" stroke-width="7.62" d="M6359 13831c-4,1 83,-10 126,21"/>
    <path fill="none" stroke="black" stroke-width="7.62" d="M6425 13890c-4,1 83,-10 126,21"/>
    <path fill="none" stroke="black" stroke-width="7.62" d="M6484 13938c-4,1 83,-10 126,21"/>
    <path fill="none" stroke="black" stroke-width="7.62" d="M6542 13993c-4,1 83,-10 126,21"/>
   </g>
  </g>
  <g id="marge_cilliee" onclick="parent.replacechar('marge_cilliee')" onmousemove="parent.showtooltip('marge_cilliee','Marge cilli&#233;e')" onmouseout="parent.hidetooltip('marge_cilliee')" cursor="pointer">
    <metadata id="CorelCorpID_9">
     <odm name="Name" value="cilie" type="0"/>
    </metadata>
   <polygon fill="none" stroke="black" stroke-width="7.62" stroke-linejoin="bevel" points="8114,12010 15521,12010 15521,14035 8114,14035 "/>
   <path fill="none" stroke="black" stroke-width="7.62" stroke-linecap="round" stroke-linejoin="bevel" d="M14463 14048c215,173 386,289 615,391 0,0 0,0 0,0 -1114,499 -1936,2091 -3985,1778 -1227,-176 -1550,-1324 -2207,-1757 0,0 -764,5 -767,5 -5,-5 3,-139 -5,-139 0,0 604,11 785,0 147,-13 433,-250 431,-286"/>
   <path fill="#78B43C" stroke="black" stroke-width="7.62" stroke-linejoin="bevel" d="M9330 14035l5114 0c-830,-693 -1573,-1742 -3158,-1531 -1119,155 -1468,862 -1957,1531z"/>
   <path fill="none" stroke="black" stroke-width="7.62" stroke-linejoin="bevel" d="M14899 14448c-980,13 -1897,53 -2869,29 -1095,-5 -1744,8 -2840,-29"/>
   <g id="poils">
     <metadata id="CorelCorpID_10">
      <odm name="Name" value="poils" type="0"/>
     </metadata>
    <g>
     <path fill="none" stroke="black" stroke-width="7.62" d="M9369 13979c-46,-121 -117,-72 -121,-153"/>
     <path fill="none" stroke="black" stroke-width="7.62" d="M9439 13878c-46,-121 -117,-72 -121,-153"/>
     <path fill="none" stroke="black" stroke-width="7.62" d="M9503 13790c-46,-121 -117,-72 -121,-153"/>
     <path fill="none" stroke="black" stroke-width="7.62" d="M9563 13706c-46,-121 -117,-72 -121,-153"/>
     <path fill="none" stroke="black" stroke-width="7.62" d="M9619 13624c-46,-121 -117,-72 -121,-153"/>
     <path fill="none" stroke="black" stroke-width="7.62" d="M9668 13563c-46,-121 -117,-72 -121,-153"/>
    </g>
    <path fill="none" stroke="black" stroke-width="7.62" d="M9742 13450c-36,-125 -111,-82 -108,-163"/>
    <path fill="none" stroke="black" stroke-width="7.62" d="M9820 13355c-36,-125 -111,-82 -108,-163"/>
    <path fill="none" stroke="black" stroke-width="7.62" d="M9890 13273c-36,-125 -111,-82 -108,-163"/>
    <path fill="none" stroke="black" stroke-width="7.62" d="M9957 13194c-36,-125 -111,-82 -108,-163"/>
    <path fill="none" stroke="black" stroke-width="7.62" d="M10027 13127c-36,-125 -111,-82 -108,-163"/>
    <path fill="none" stroke="black" stroke-width="7.62" d="M10079 13065c-36,-125 -111,-82 -108,-163"/>
    <path fill="none" stroke="black" stroke-width="7.62" d="M10145 13007c-6,-130 -89,-105 -67,-183"/>
    <path fill="none" stroke="black" stroke-width="7.62" d="M10239 12927c-6,-130 -89,-105 -67,-183"/>
    <path fill="none" stroke="black" stroke-width="7.62" d="M10327 12864c-6,-130 -89,-105 -67,-183"/>
    <path fill="none" stroke="black" stroke-width="7.62" d="M10410 12802c-6,-130 -89,-105 -67,-183"/>
    <path fill="none" stroke="black" stroke-width="7.62" d="M10490 12757c-6,-130 -89,-105 -67,-183"/>
    <path fill="none" stroke="black" stroke-width="7.62" d="M10565 12716c-6,-130 -89,-105 -67,-183"/>
    <path fill="none" stroke="black" stroke-width="7.62" d="M10641 12678c32,-126 -54,-127 -10,-195"/>
    <path fill="none" stroke="black" stroke-width="7.62" d="M10750 12639c32,-126 -54,-127 -10,-195"/>
    <path fill="none" stroke="black" stroke-width="7.62" d="M10852 12605c32,-126 -54,-127 -10,-195"/>
    <path fill="none" stroke="black" stroke-width="7.62" d="M10950 12570c32,-126 -54,-127 -10,-195"/>
    <path fill="none" stroke="black" stroke-width="7.62" d="M11048 12550c32,-126 -54,-127 -10,-195"/>
    <path fill="none" stroke="black" stroke-width="7.62" d="M11132 12530c32,-126 -54,-127 -10,-195"/>
    <path fill="none" stroke="black" stroke-width="7.62" d="M11230 12509c64,-113 -19,-136 41,-191"/>
    <path fill="none" stroke="black" stroke-width="7.62" d="M11352 12498c64,-113 -19,-136 41,-191"/>
    <path fill="none" stroke="black" stroke-width="7.62" d="M11460 12492c64,-113 -19,-136 41,-191"/>
    <path fill="none" stroke="black" stroke-width="7.62" d="M11563 12484c64,-113 -19,-136 41,-191"/>
    <path fill="none" stroke="black" stroke-width="7.62" d="M11662 12475c64,-113 -19,-136 41,-191"/>
    <path fill="none" stroke="black" stroke-width="7.62" d="M11740 12474c64,-113 -19,-136 41,-191"/>
    <path fill="none" stroke="black" stroke-width="7.62" d="M11838 12485c82,-100 5,-137 74,-181"/>
    <path fill="none" stroke="black" stroke-width="7.62" d="M11961 12489c83,-100 5,-137 74,-181"/>
    <path fill="none" stroke="black" stroke-width="7.62" d="M12068 12501c82,-100 5,-137 74,-181"/>
    <path fill="none" stroke="black" stroke-width="7.62" d="M12172 12511c82,-100 5,-137 74,-181"/>
    <path fill="none" stroke="black" stroke-width="7.62" d="M12261 12531c83,-100 5,-137 74,-181"/>
    <path fill="none" stroke="black" stroke-width="7.62" d="M12345 12551c82,-100 5,-137 74,-181"/>
    <path fill="none" stroke="black" stroke-width="7.62" d="M12420 12571c108,-72 45,-130 123,-151"/>
    <path fill="none" stroke="black" stroke-width="7.62" d="M12533 12618c108,-72 45,-130 123,-151"/>
    <path fill="none" stroke="black" stroke-width="7.62" d="M12632 12661c108,-72 45,-130 123,-151"/>
    <path fill="none" stroke="black" stroke-width="7.62" d="M12728 12701c108,-72 45,-130 123,-151"/>
    <path fill="none" stroke="black" stroke-width="7.62" d="M12814 12752c108,-72 45,-130 123,-151"/>
    <path fill="none" stroke="black" stroke-width="7.62" d="M12890 12793c108,-72 45,-130 123,-151"/>
    <path fill="none" stroke="black" stroke-width="7.62" d="M13025 12845c120,-49 70,-119 151,-124"/>
    <path fill="none" stroke="black" stroke-width="7.62" d="M13127 12913c120,-49 70,-119 151,-124"/>
    <path fill="none" stroke="black" stroke-width="7.62" d="M13215 12975c120,-49 70,-119 151,-124"/>
    <path fill="none" stroke="black" stroke-width="7.62" d="M13301 13033c120,-49 70,-119 151,-124"/>
    <path fill="none" stroke="black" stroke-width="7.62" d="M13384 13087c120,-49 70,-119 151,-124"/>
    <path fill="none" stroke="black" stroke-width="7.62" d="M13446 13135c120,-49 70,-119 151,-124"/>
    <path fill="none" stroke="black" stroke-width="7.62" d="M13516 13205c127,-27 89,-105 170,-96"/>
    <path fill="none" stroke="black" stroke-width="7.62" d="M13610 13284c127,-27 89,-105 170,-96"/>
    <path fill="none" stroke="black" stroke-width="7.62" d="M13686 13361c127,-27 89,-105 170,-96"/>
    <path fill="none" stroke="black" stroke-width="7.62" d="M13761 13433c127,-27 89,-105 170,-96"/>
    <path fill="none" stroke="black" stroke-width="7.62" d="M13841 13485c127,-27 89,-105 170,-96"/>
    <path fill="none" stroke="black" stroke-width="7.62" d="M13923 13563c127,-27 89,-105 170,-96"/>
    <path fill="none" stroke="black" stroke-width="7.62" d="M13990 13630c129,11 116,-74 191,-42"/>
    <path fill="none" stroke="black" stroke-width="7.62" d="M14096 13712c129,11 116,-74 191,-42"/>
    <path fill="none" stroke="black" stroke-width="7.62" d="M14184 13801c129,11 116,-74 191,-42"/>
    <path fill="none" stroke="black" stroke-width="7.62" d="M14265 13873c129,11 116,-74 191,-42"/>
    <path fill="none" stroke="black" stroke-width="7.62" d="M14334 13935c129,11 116,-74 191,-42"/>
    <path fill="none" stroke="black" stroke-width="7.62" d="M14415 14006c129,11 116,-74 191,-42"/>
   </g>
  </g>
  <g id="marge_scabre" onclick="parent.replacechar('marge_scabre')" onmousemove="parent.showtooltip('marge_scabre','Marge scabre')" onmouseout="parent.hidetooltip('marge_scabre')" cursor="pointer">
    <metadata id="CorelCorpID_11">
     <odm name="Name" value="scabre" type="0"/>
    </metadata>
   <polygon fill="none" stroke="black" stroke-width="7.62" stroke-linejoin="bevel" points="16260,12010 23666,12010 23666,14035 16260,14035 "/>
   <path fill="none" stroke="black" stroke-width="7.62" stroke-linecap="round" stroke-linejoin="bevel" d="M22608 14048c215,173 386,289 615,391 0,0 0,0 0,0 -1114,499 -1936,2091 -3984,1778 -1227,-176 -1550,-1324 -2206,-1757 0,0 -764,5 -767,5 -5,-5 3,-139 -5,-139 0,0 604,10 785,0 147,-13 433,-250 431,-286"/>
   <path fill="#78B43C" stroke="black" stroke-width="7.62" stroke-linejoin="bevel" d="M17476 14035l5114 0c-830,-693 -1573,-1741 -3157,-1531 -1119,155 -1468,861 -1957,1531z"/>
   <path fill="none" stroke="black" stroke-width="7.62" stroke-linejoin="bevel" d="M23044 14447c-980,13 -1896,53 -2868,29 -1095,-5 -1744,8 -2839,-29"/>
   <path fill="none" stroke="black" stroke-width="7.62" stroke-linejoin="bevel" d="M17783 13602c-50,-53 -74,-173 53,-299 -66,144 8,189 32,184 -16,24 -84,97 -84,116z"/>
   <path fill="none" stroke="black" stroke-width="7.62" stroke-linejoin="bevel" d="M22420 13885c42,-60 134,-94 265,33 -135,-64 -167,32 -163,53 -24,-9 -89,-87 -102,-87z"/>
   <path fill="none" stroke="black" stroke-width="7.62" stroke-linejoin="bevel" d="M22208 13690c53,-63 147,-102 265,37 -129,-63 -166,18 -163,58 -24,-29 -87,-95 -102,-95z"/>
   <path fill="none" stroke="black" stroke-width="7.62" stroke-linejoin="bevel" d="M21983 13481c44,-58 134,-93 261,32 -124,-62 -161,26 -147,64 -40,-15 -97,-88 -114,-96z"/>
   <path fill="none" stroke="black" stroke-width="7.62" stroke-linejoin="bevel" d="M21748 13279c55,-55 147,-90 260,53 -120,-80 -163,5 -160,34 -23,-12 -85,-86 -101,-87z"/>
   <path fill="none" stroke="black" stroke-width="7.62" stroke-linejoin="bevel" d="M21516 13089c55,-60 144,-97 268,29 -129,-50 -165,32 -158,53 -24,-5 -84,-81 -110,-81z"/>
   <path fill="none" stroke="black" stroke-width="7.62" stroke-linejoin="bevel" d="M21259 12908c42,-74 131,-116 271,0 -134,-39 -163,42 -155,76 -21,-18 -95,-81 -116,-76z"/>
   <path fill="none" stroke="black" stroke-width="7.62" stroke-linejoin="bevel" d="M21002 12760c38,-72 127,-131 262,-27 -131,-29 -156,64 -144,81 -29,-3 -110,-58 -118,-54z"/>
   <path fill="none" stroke="black" stroke-width="7.62" stroke-linejoin="bevel" d="M20749 12644c34,-81 110,-147 263,-53 -144,-18 -152,81 -144,97 -21,0 -102,-50 -118,-45z"/>
   <path fill="none" stroke="black" stroke-width="7.62" stroke-linejoin="bevel" d="M20503 12568c26,-71 95,-147 255,-81 -134,0 -134,97 -123,116 -29,0 -116,-39 -131,-34z"/>
   <path fill="none" stroke="black" stroke-width="7.62" stroke-linejoin="bevel" d="M20230 12502c8,-77 76,-168 237,-117 -138,24 -127,116 -112,139 -18,1 -115,-27 -125,-21z"/>
   <path fill="none" stroke="black" stroke-width="7.62" stroke-linejoin="bevel" d="M19969 12487c16,-87 74,-181 239,-147 -137,37 -123,129 -105,147 -24,5 -118,-11 -134,0z"/>
   <path fill="none" stroke="black" stroke-width="7.62" stroke-linejoin="bevel" d="M19716 12483c0,-76 53,-179 226,-168 -139,53 -121,144 -92,158 -32,11 -123,0 -134,11z"/>
   <path fill="none" stroke="black" stroke-width="7.62" stroke-linejoin="bevel" d="M19431 12508c-8,-81 39,-184 210,-184 -129,58 -105,152 -87,163 -18,11 -113,11 -123,21z"/>
   <path fill="none" stroke="black" stroke-width="7.62" stroke-linejoin="bevel" d="M19158 12556c-16,-76 21,-181 186,-202 -123,66 -84,155 -63,171 -24,8 -116,21 -123,32z"/>
   <path fill="none" stroke="black" stroke-width="7.62" stroke-linejoin="bevel" d="M18893 12644c-24,-81 13,-197 181,-223 -118,81 -76,171 -60,176 -21,11 -110,34 -121,47z"/>
   <path fill="none" stroke="black" stroke-width="7.62" stroke-linejoin="bevel" d="M18628 12765c-32,-76 -16,-184 131,-250 -97,97 -39,173 -21,179 -11,18 -105,60 -110,71z"/>
   <path fill="none" stroke="black" stroke-width="7.62" stroke-linejoin="bevel" d="M18391 12925c-37,-58 -37,-173 108,-260 -100,116 -29,173 -8,173 -13,34 -100,79 -100,87z"/>
   <path fill="none" stroke="black" stroke-width="7.62" stroke-linejoin="bevel" d="M18175 13125c-47,-58 -59,-187 88,-285 -80,125 -12,183 7,179 -17,31 -94,90 -95,106z"/>
   <path fill="none" stroke="black" stroke-width="7.62" stroke-linejoin="bevel" d="M17958 13361c-42,-47 -68,-152 58,-284 -66,137 11,173 34,168 -8,39 -92,100 -92,116z"/>
   <path fill="none" stroke="black" stroke-width="7.62" stroke-linejoin="bevel" d="M17598 13871c-58,-47 -87,-158 45,-284 -66,142 13,173 29,168 -8,39 -74,97 -74,116z"/>
  </g>
 </g>
<image xlink:href="tick.gif" id="imgtick" x="-10000" y="-10000" width="1500" height="1500"/>
<rect id="recttooltip" x="-10000" y="-10000" width="5500" height="600" fill-opacity="0.85" pointer-events="none"/>
<text id="textboxid" x="-10000" y="-10000" pointer-events="none"> </text>
</a></svg>
