<?xml version="1.0" encoding="UTF-8"?>
<!DOCTYPE svg PUBLIC "-//W3C//DTD SVG 1.1//EN" "http://www.w3.org/Graphics/SVG/1.1/DTD/svg11.dtd">
<!-- Creator: CorelDRAW X5 -->
<svg xmlns="http://www.w3.org/2000/svg" xml:space="preserve" width="100%" height="100%" shape-rendering="geometricPrecision" text-rendering="geometricPrecision" image-rendering="optimizeQuality" fill-rule="evenodd" clip-rule="evenodd"
viewBox="0 0 24000 18000"
 xmlns:xlink="http://www.w3.org/1999/xlink">
<a>
 <g id="Layer_x0020_1">
  <metadata id="CorelCorpID_0Corel-Layer"/>
  <g id="sec_plat" onclick="parent.replacechar('sec_plat')" onmousemove="parent.showtooltip('sec_plat','Limbe plan')" onmouseout="parent.hidetooltip('sec_plat')" cursor="pointer">
    <metadata id="CorelCorpID_1">
     <odm name="Name" value="plat" type="0"/>
    </metadata>
   <polygon fill="#78B43C" stroke="#2C2C2B" stroke-width="7.62" stroke-linejoin="bevel" points="2415,3115 8342,3115 5427,3209 "/>
   <path fill="#78B43C" stroke="#2C2C2B" stroke-width="7.62" stroke-linejoin="bevel" d="M8345 3114l-5925 0c990,-1032 2290,-1566 3358,-1876l3806 0c-189,656 -595,1238 -1239,1876z"/>
   <polygon fill="#987F34" stroke="#2C2C2B" stroke-width="7.62" stroke-linejoin="bevel" points="5304,3133 7528,1232 7601,1244 5564,3147 "/>
   <path fill="none" stroke="#2A2A29" stroke-width="7.62" stroke-linejoin="bevel" d="M6223 1281c-216,218 -505,753 -48,1111"/>
   <path fill="none" stroke="#2A2A29" stroke-width="7.62" stroke-linejoin="bevel" d="M4901 2009c-357,301 -559,718 -582,1089"/>
   <path fill="none" stroke="#2A2A29" stroke-width="7.62" stroke-linejoin="bevel" d="M8759 1269c-338,353 -1039,1002 -2046,819"/>
   <path fill="none" stroke="#2A2A29" stroke-width="7.62" stroke-linejoin="bevel" d="M8449 2475c-497,377 -954,493 -1303,630"/>
   <path fill="#66553A" stroke="#2C2C2B" stroke-width="7.62" stroke-linejoin="bevel" d="M5410 3268c-83,0 -130,-54 -104,-123 26,-68 83,-22 164,-22 80,0 154,-45 132,22 -24,69 -111,123 -192,123z"/>
  </g>
  <g id="sec_plie" onclick="parent.replacechar('sec_plie')" onmousemove="parent.showtooltip('sec_plie','Limbe pli&#233;')" onmouseout="parent.hidetooltip('sec_plie')" cursor="pointer">
    <metadata id="CorelCorpID_2">
     <odm name="Name" value="plie" type="0"/>
    </metadata>
   <polygon fill="#78B43C" stroke="black" stroke-width="7.62" stroke-linejoin="bevel" points="20246,3001 17336,3238 14704,2394 17348,1132 19322,1883 21296,1580 "/>
   <polygon fill="#987F34" stroke="black" stroke-width="7.62" stroke-linejoin="bevel" points="17276,3218 19219,1859 19353,1888 17501,3254 "/>
   <polygon fill="#78B43C" stroke="black" stroke-width="7.62" stroke-linejoin="bevel" points="19500,1876 17809,3188 "/>
   <polygon fill="#78B43C" stroke="black" stroke-width="7.62" stroke-linejoin="bevel" points="19784,1845 18274,3147 "/>
   <polygon fill="#78B43C" stroke="black" stroke-width="7.62" stroke-linejoin="bevel" points="20152,1776 18792,3086 "/>
   <polygon fill="#78B43C" stroke="black" stroke-width="7.62" stroke-linejoin="bevel" points="20473,1715 19252,3064 "/>
   <polygon fill="#78B43C" stroke="black" stroke-width="7.62" stroke-linejoin="bevel" points="20805,1660 19707,3013 "/>
   <polygon fill="#78B43C" stroke="black" stroke-width="7.62" stroke-linejoin="bevel" points="21099,1636 20100,2954 "/>
   <polygon fill="#78B43C" stroke="black" stroke-width="7.62" stroke-linejoin="bevel" points="14705,2390 17267,3221 17556,3224 20249,3001 17482,3327 17317,3321 "/>
   <path fill="#66553A" stroke="black" stroke-width="7.62" stroke-linejoin="bevel" d="M17402 3368c-83,2 -147,-52 -140,-119 5,-67 73,-24 152,-24 85,-2 144,-47 138,17 -2,71 -71,125 -151,126z"/>
   <path fill="none" stroke="black" stroke-width="7.62" stroke-linejoin="bevel" d="M18117 1506c-284,228 -665,791 -64,1167"/>
   <path fill="none" stroke="black" stroke-width="7.62" stroke-linejoin="bevel" d="M17045 1826c-357,301 -559,718 -582,1089"/>
  </g>
  <g id="sec_gauffre" onclick="parent.replacechar('sec_gauffre')" onmousemove="parent.showtooltip('sec_gauffre','Limbe gauffr&#233;')" onmouseout="parent.hidetooltip('sec_gauffre')" cursor="pointer">
    <metadata id="CorelCorpID_3">
     <odm name="Name" value="gauffre" type="0"/>
    </metadata>
   <path fill="#78B43C" stroke="#2C2C2B" stroke-width="7.62" stroke-linejoin="bevel" d="M2720 7495c16,-24 293,-211 396,0 142,-239 585,-113 628,0 182,-204 666,-208 789,2 270,-289 1146,-145 1194,194 203,-500 1023,-407 1073,-180 208,-291 689,-163 801,-7 73,-215 329,-234 516,-16 28,-182 299,-23 417,10 -76,14 -353,-154 -419,5 -152,-159 -350,-235 -500,19 -215,-152 -530,-267 -815,10 -301,-363 -981,-14 -1058,215 -261,-505 -1044,-339 -1203,-216 -164,-225 -595,-209 -800,10 -190,-220 -512,-158 -627,0 -119,-177 -395,-38 -395,-47z"/>
   <path fill="#78B43C" stroke="#2C2C2B" stroke-width="7.62" stroke-linejoin="bevel" d="M8537 7492c-138,0 -402,-140 -422,0 -99,-132 -412,-254 -512,0 -156,-218 -703,-197 -793,0 -114,-177 -533,-256 -1125,54 -402,-239 -895,-251 -1149,-54 -203,-253 -646,-138 -793,0 -71,-125 -346,-194 -627,0 -208,-203 -268,0 -402,0 762,-805 1343,-1421 1753,-1644 265,-145 377,-3 632,-111 43,-14 350,21 410,107 343,-230 736,-118 881,0 180,-142 424,-163 724,52 386,-209 518,-126 694,-52 159,-113 301,-109 490,0 55,-71 587,-100 518,83 185,-197 429,-10 469,-10 16,568 -438,1019 -748,1575z"/>
   <polygon fill="#987F34" stroke="#2C2C2B" stroke-width="7.62" stroke-linejoin="bevel" points="5610,7547 7077,5894 7139,5891 5851,7526 "/>
   <path fill="#78B43C" stroke="#7E6D4C" stroke-width="7.62" stroke-linejoin="bevel" d="M4659 7310c24,-48 107,-192 50,-293 -43,-80 -268,-90 -405,-76 -133,12 -367,133 -453,312l-95 206 904 -149z"/>
   <path fill="none" stroke="#2C2C2B" stroke-width="7.62" stroke-linejoin="bevel" d="M4594 7090c66,-21 55,42 83,62"/>
   <path fill="none" stroke="#2C2C2B" stroke-width="7.62" stroke-linejoin="bevel" d="M4586 7185c68,-9 64,48 95,71"/>
   <path fill="none" stroke="#2C2C2B" stroke-width="7.62" stroke-linejoin="bevel" d="M4558 7272c47,14 45,76 45,113"/>
   <polygon fill="#009847" stroke="#2C2C2B" stroke-width="7.62" stroke-linejoin="bevel" points="5001,6654 5050,6678 5069,6710 "/>
   <path fill="#78B43C" stroke="#7E6D4C" stroke-width="7.62" stroke-linejoin="bevel" d="M5771 7333c17,-42 263,-248 261,-312 -2,-73 -92,-185 -263,-280 -76,-40 -272,-183 -568,-2 -102,62 -296,223 -367,357l-294 379 1231 -142z"/>
   <path fill="none" stroke="#2C2C2B" stroke-width="7.62" stroke-linejoin="bevel" d="M5887 6928c80,-14 50,64 74,95"/>
   <path fill="none" stroke="#2C2C2B" stroke-width="7.62" stroke-linejoin="bevel" d="M5849 7056c57,-10 43,55 64,83"/>
   <path fill="none" stroke="#2C2C2B" stroke-width="7.62" stroke-linejoin="bevel" d="M5808 7173c40,-5 21,38 29,55"/>
   <path fill="none" stroke="#2C2C2B" stroke-width="7.62" stroke-linejoin="bevel" d="M6362 6947c93,-161 341,-286 464,-296 128,-10 332,0 369,76 48,99 -28,268 -54,317 -24,45 -76,100 -116,149"/>
   <path fill="none" stroke="#2C2C2B" stroke-width="7.62" stroke-linejoin="bevel" d="M7620 5877c47,17 64,62 59,95"/>
   <path fill="#78B43C" stroke="#2C2C2B" stroke-width="7.62" stroke-linejoin="bevel" d="M7288 6760c118,-157 346,-81 419,-52 88,38 194,17 235,170 38,130 -97,256 -74,222l-251 360 -329 -699z"/>
   <path fill="none" stroke="#2C2C2B" stroke-width="7.62" stroke-linejoin="bevel" d="M6239 5880c76,0 149,64 182,90"/>
   <path fill="none" stroke="#7E6D4C" stroke-width="7.62" stroke-linejoin="bevel" d="M4234 6344c114,-142 156,-151 268,-173 203,-36 206,-2 324,-2 100,0 550,344 537,388 -35,125 -486,284 -383,220"/>
   <polygon fill="#009847" stroke="#2C2C2B" stroke-width="7.62" stroke-linejoin="bevel" points="5223,6536 5282,6566 "/>
   <polygon fill="#009847" stroke="#2C2C2B" stroke-width="7.62" stroke-linejoin="bevel" points="5138,6587 5166,6632 "/>
   <path fill="none" stroke="#2C2C2B" stroke-width="7.62" stroke-linejoin="bevel" d="M7540 6585c-151,-121 244,-9 826,-201 0,0 251,81 248,246 -2,104 -59,185 -142,228"/>
   <path fill="none" stroke="#2C2C2B" stroke-width="7.62" stroke-linejoin="bevel" d="M4932 6202c339,312 1040,523 1144,777"/>
   <path fill="none" stroke="#7E6D4C" stroke-width="7.62" stroke-linejoin="bevel" d="M5540 5880c97,242 144,504 126,758"/>
   <path fill="none" stroke="#7E6D4C" stroke-width="7.62" stroke-linejoin="bevel" d="M6549 6682c708,-275 1315,-23 2075,-450"/>
   <path fill="none" stroke="#7E6D4C" stroke-width="7.62" stroke-linejoin="bevel" d="M8305 5873c12,125 -69,379 -163,518"/>
   <path fill="none" stroke="#7E6D4C" stroke-width="7.62" stroke-linejoin="bevel" d="M7795 5846c-52,178 -92,554 -275,675"/>
   <path fill="none" stroke="#7E6D4C" stroke-width="7.62" stroke-linejoin="bevel" d="M7263 6550c753,118 699,478 1194,360"/>
   <polygon fill="#009847" stroke="#7E6D4C" stroke-width="7.62" stroke-linejoin="bevel" points="7032,7184 6819,7459 "/>
   <path fill="none" stroke="#7E6D4C" stroke-width="7.62" stroke-linejoin="bevel" d="M3561 7052c-284,22 -286,287 -428,429"/>
   <path fill="none" stroke="#7E6D4C" stroke-width="7.62" stroke-linejoin="bevel" d="M6408 5880c76,159 206,393 197,526"/>
   <path fill="none" stroke="#7E6D4C" stroke-width="7.62" stroke-linejoin="bevel" d="M5567 6616c-448,-21 -467,400 -1551,232"/>
   <path fill="none" stroke="#2C2C2B" stroke-width="7.62" stroke-linejoin="bevel" d="M8174 5854c45,17 62,64 59,95"/>
   <path fill="none" stroke="#2C2C2B" stroke-width="7.62" stroke-linejoin="bevel" d="M6822 6017c45,17 62,62 55,95"/>
   <path fill="none" stroke="#2C2C2B" stroke-width="7.62" stroke-linejoin="bevel" d="M6883 5938c50,17 66,66 61,97"/>
   <path fill="none" stroke="#2C2C2B" stroke-width="7.62" stroke-linejoin="bevel" d="M6784 6095c47,17 57,17 52,52"/>
   <path fill="none" stroke="#2C2C2B" stroke-width="7.62" stroke-linejoin="bevel" d="M7537 6216c48,17 64,62 59,93"/>
   <path fill="#66553A" stroke="#2C2C2B" stroke-width="7.62" stroke-linejoin="bevel" d="M5740 7790c-83,0 -147,-102 -144,-232 5,-130 76,-45 158,-45 83,0 142,-85 137,45 -2,130 -69,232 -151,232z"/>
   <polygon fill="#009847" stroke="#7E6D4C" stroke-width="7.62" stroke-linejoin="bevel" points="4804,5908 4816,6159 "/>
   <path fill="none" stroke="#2C2C2B" stroke-width="7.62" stroke-linejoin="bevel" d="M5384 5905c62,-10 102,29 132,50"/>
   <path fill="none" stroke="#2C2C2B" stroke-width="7.62" stroke-linejoin="bevel" d="M5403 6034c54,-43 119,14 145,14"/>
   <path fill="none" stroke="#2C2C2B" stroke-width="7.62" stroke-linejoin="bevel" d="M5469 6202c74,-42 111,5 113,45"/>
   <path fill="none" stroke="#2C2C2B" stroke-width="7.62" stroke-linejoin="bevel" d="M6244 6105c76,0 147,64 180,90"/>
   <path fill="none" stroke="#2C2C2B" stroke-width="7.62" stroke-linejoin="bevel" d="M6242 6318c76,0 147,64 180,90"/>
   <path fill="none" stroke="#2C2C2B" stroke-width="7.62" stroke-linejoin="bevel" d="M6130 6557c66,0 125,54 152,74"/>
   <path fill="none" stroke="#2C2C2B" stroke-width="7.62" stroke-linejoin="bevel" d="M7553 6008c45,17 62,62 55,95"/>
   <path fill="none" stroke="#2C2C2B" stroke-width="7.62" stroke-linejoin="bevel" d="M7516 6128c43,17 62,62 55,95"/>
   <path fill="none" stroke="#2C2C2B" stroke-width="7.62" stroke-linejoin="bevel" d="M8106 5989c47,17 64,62 59,95"/>
   <path fill="none" stroke="#2C2C2B" stroke-width="7.62" stroke-linejoin="bevel" d="M8068 6088c43,17 62,62 55,95"/>
   <path fill="none" stroke="#2C2C2B" stroke-width="7.62" stroke-linejoin="bevel" d="M8025 6209c47,17 64,62 57,95"/>
   <path fill="none" stroke="#2C2C2B" stroke-width="7.62" stroke-linejoin="bevel" d="M7021 6760c45,17 62,62 55,95"/>
   <path fill="none" stroke="#2C2C2B" stroke-width="7.62" stroke-linejoin="bevel" d="M6981 6843c45,17 62,62 55,95"/>
   <path fill="none" stroke="#2C2C2B" stroke-width="7.62" stroke-linejoin="bevel" d="M6929 6955c43,17 62,62 55,95"/>
   <path fill="none" stroke="#2C2C2B" stroke-width="7.62" stroke-linejoin="bevel" d="M6862 7064c45,17 64,62 57,95"/>
   <path fill="none" stroke="#2C2C2B" stroke-width="7.62" stroke-linejoin="bevel" d="M7615 6834c45,17 64,62 57,95"/>
   <path fill="none" stroke="#2C2C2B" stroke-width="7.62" stroke-linejoin="bevel" d="M7582 6955c43,17 62,62 55,95"/>
   <path fill="none" stroke="#2C2C2B" stroke-width="7.62" stroke-linejoin="bevel" d="M7534 7061c47,17 64,62 57,95"/>
   <path fill="none" stroke="#2C2C2B" stroke-width="7.62" stroke-linejoin="bevel" d="M7772 6922c35,16 47,55 42,85"/>
   <path fill="none" stroke="#2C2C2B" stroke-width="7.62" stroke-linejoin="bevel" d="M7741 7018c33,16 45,55 40,85"/>
   <path fill="none" stroke="#2C2C2B" stroke-width="7.62" stroke-linejoin="bevel" d="M7677 7104c33,16 45,55 40,85"/>
   <path fill="#78B43C" stroke="#2C2C2B" stroke-width="7.62" stroke-linejoin="bevel" d="M7982 6896c90,38 428,2 436,164 -55,145 -93,135 -132,189l-171 218 -133 -571z"/>
   <path fill="none" stroke="#2C2C2B" stroke-width="7.62" stroke-linejoin="bevel" d="M8240 7026c33,16 47,55 42,85"/>
   <path fill="none" stroke="#2C2C2B" stroke-width="7.62" stroke-linejoin="bevel" d="M8176 7113c33,16 47,55 42,85"/>
   <path fill="none" stroke="#2C2C2B" stroke-width="7.62" stroke-linejoin="bevel" d="M7141 5989c35,16 48,55 43,85"/>
   <path fill="none" stroke="#2C2C2B" stroke-width="7.62" stroke-linejoin="bevel" d="M7109 6085c33,16 47,55 42,85"/>
   <path fill="none" stroke="#2C2C2B" stroke-width="7.62" stroke-linejoin="bevel" d="M7044 6171c35,16 48,55 43,85"/>
   <polygon fill="#009847" stroke="#7E6D4C" stroke-width="7.62" stroke-linejoin="bevel" points="8835,5963 8633,6218 "/>
  </g>
  <g id="sec_courbe" onclick="parent.replacechar('sec_courbe')" onmousemove="parent.showtooltip('sec_courbe','Limbe incurv&#233;')" onmouseout="parent.hidetooltip('sec_courbe')" cursor="pointer">
    <metadata id="CorelCorpID_4">
     <odm name="Name" value="courbe" type="0"/>
    </metadata>
   <g>
    <path fill="#78B43C" stroke="#2C2C2B" stroke-width="7.62" stroke-linejoin="bevel" d="M16943 5753l-2282 1204c-77,-5 2578,1562 6278,209 336,-998 401,-1255 401,-1255 -1110,482 -2562,684 -4397,-157z"/>
    <path fill="none" stroke="black" stroke-width="7.62" d="M14661 6956c826,304 3025,1156 6275,211"/>
    <line fill="none" stroke="black" stroke-width="7.62" x1="17246" y1="5884" x2="15193" y2= "7143" />
    <line fill="none" stroke="black" stroke-width="7.62" x1="17641" y1="6029" x2="15775" y2= "7317" />
    <line fill="none" stroke="black" stroke-width="7.62" x1="18115" y1="6168" x2="16469" y2= "7468" />
    <line fill="none" stroke="black" stroke-width="7.62" x1="18570" y1="6263" x2="17100" y2= "7553" />
    <line fill="none" stroke="black" stroke-width="7.62" x1="19395" y1="6327" x2="18436" y2= "7589" />
    <line fill="none" stroke="black" stroke-width="7.62" x1="19932" y1="6294" x2="19140" y2= "7535" />
    <line fill="none" stroke="black" stroke-width="7.62" x1="20476" y1="6201" x2="19833" y2= "7429" />
    <line fill="none" stroke="black" stroke-width="7.62" x1="21024" y1="6035" x2="20457" y2= "7295" />
   </g>
   <polygon fill="#7D7432" stroke="#2C2C2B" stroke-width="7.62" stroke-linejoin="bevel" points="18872,6302 18988,6311 17854,7599 17566,7588 "/>
   <path fill="#544B31" stroke="black" stroke-width="7.62" stroke-linejoin="bevel" d="M17700 7747c-89,2 -158,-56 -150,-128 6,-72 78,-26 163,-26 91,-2 154,-50 148,19 -2,76 -76,134 -161,135z"/>
  </g>
  <g id="sec_crassu" onclick="parent.replacechar('sec_crassu')" onmousemove="parent.showtooltip('sec_crassu','Limbe turgescent / crassulescent')" onmouseout="parent.hidetooltip('sec_crassu')" cursor="pointer">
    <metadata id="CorelCorpID_5">
     <odm name="Name" value="crassulescent" type="0"/>
    </metadata>
   <path fill="#78B43C" stroke="black" stroke-width="7.62" stroke-linejoin="bevel" d="M3783 12076l2339 -1925c472,-256 1916,-234 2119,0l-1506 1947 -2952 -22z"/>
   <path fill="#78B43C" stroke="black" stroke-width="7.62" stroke-linejoin="bevel" d="M4975 12532c-827,0 -1308,-284 -1202,-443 106,-157 860,-284 1687,-284 827,0 1416,128 1310,284 -106,159 -968,443 -1795,443z"/>
  </g>
  <g id="sec_plisse" onclick="parent.replacechar('sec_plisse')" onmousemove="parent.showtooltip('sec_plisse','Limbe pliss&#233;')" onmouseout="parent.hidetooltip('sec_plisse')" cursor="pointer">
    <metadata id="CorelCorpID_6">
     <odm name="Name" value="plisse" type="0"/>
    </metadata>
   <polygon fill="#78B43C" stroke="black" stroke-width="7.62" stroke-linejoin="bevel" points="16599,12414 16933,12252 16836,12157 "/>
   <polygon fill="#78B43C" stroke="black" stroke-width="7.62" stroke-linejoin="bevel" points="17167,12478 17532,12252 17438,12154 "/>
   <polygon fill="#78B43C" stroke="black" stroke-width="7.62" stroke-linejoin="bevel" points="15984,12400 16281,12227 16186,12174 "/>
   <polygon fill="#78B43C" stroke="black" stroke-width="7.62" stroke-linejoin="bevel" points="15387,12357 15706,12231 15611,12170 "/>
   <polygon fill="#78B43C" stroke="black" stroke-width="7.62" stroke-linejoin="bevel" points="14888,12334 15168,12218 15113,12178 "/>
   <polygon fill="#78B43C" stroke="black" stroke-width="7.62" stroke-linejoin="bevel" points="13878,12244 14232,12326 14616,12189 14882,12340 15120,12187 15382,12360 15613,12176 15977,12404 16188,12170 16593,12421 16837,12178 17170,12484 17434,12215 17587,12394 17886,12176 18097,12462 18471,12153 18655,12404 19121,12156 19285,12357 19659,12176 19832,12333 20197,12176 20380,12292 20646,12166 21037,12312 21323,12190 21466,12251 22122,10203 22010,10118 21837,10199 21575,10101 21404,10220 21262,10087 21074,10257 20935,10074 20721,10274 20571,10050 20319,10308 20152,10057 19945,10298 19761,10016 19628,10186 19560,10193 19451,10046 19247,10257 19087,10080 18883,10254 18679,10084 18475,10247 18318,10108 18138,10230 17992,10104 17825,10216 17658,10114 17464,10244 17311,10165 "/>
   <polyline fill="none" stroke="black" stroke-width="7.62" points="13878,12244 14230,12297 14616,12158 14882,12306 15119,12155 15382,12326 15613,12156 15974,12350 16185,12119 16593,12367 16821,12124 17158,12414 17417,12088 17590,12338 17900,12054 18105,12382 18465,12078 18662,12365 19114,12098 19291,12316 19649,12129 19839,12306 20188,12134 20381,12266 20662,12128 21037,12285 21327,12165 21466,12250 "/>
   <line fill="none" stroke="black" stroke-width="7.62" x1="17465" y1="10244" x2="14618" y2= "12159" />
   <line fill="none" stroke="black" stroke-width="7.62" x1="17836" y1="10209" x2="15122" y2= "12154" />
   <line fill="none" stroke="black" stroke-width="7.62" stroke-linejoin="bevel" x1="18144" y1="10227" x2="15614" y2= "12155" />
   <line fill="none" stroke="black" stroke-width="7.62" stroke-linejoin="bevel" x1="18478" y1="10243" x2="16187" y2= "12117" />
   <line fill="none" stroke="black" stroke-width="7.62" x1="18882" y1="10252" x2="16821" y2= "12126" />
   <line fill="none" stroke="black" stroke-width="7.62" x1="19246" y1="10258" x2="17416" y2= "12090" />
   <line fill="none" stroke="black" stroke-width="7.62" x1="19951" y1="10291" x2="18466" y2= "12078" />
   <line fill="none" stroke="black" stroke-width="7.62" x1="20572" y1="10051" x2="19113" y2= "12101" />
   <line fill="none" stroke="black" stroke-width="7.62" x1="20936" y1="10075" x2="19651" y2= "12130" />
   <line fill="none" stroke="black" stroke-width="7.62" x1="21263" y1="10087" x2="20187" y2= "12133" />
   <line fill="none" stroke="black" stroke-width="7.62" x1="21575" y1="10102" x2="20663" y2= "12127" />
   <line fill="none" stroke="black" stroke-width="7.62" x1="22011" y1="10119" x2="21329" y2= "12165" />
   <polygon fill="#7D7432" stroke="#141516" stroke-width="7.62" stroke-linejoin="bevel" points="19541,10195 19626,10195 17725,12235 17489,12218 "/>
   <line fill="none" stroke="white" stroke-width="7.62" x1="20284" y1="10351" x2="18675" y2= "12334" />
   <line fill="none" stroke="white" stroke-width="7.62" x1="20707" y1="10309" x2="19305" y2= "12294" />
   <line fill="none" stroke="white" stroke-width="7.62" x1="21061" y1="10275" x2="19849" y2= "12273" />
   <line fill="none" stroke="white" stroke-width="7.62" x1="21391" y1="10242" x2="20386" y2= "12235" />
   <line fill="none" stroke="white" stroke-width="7.62" x1="21821" y1="10216" x2="21053" y2= "12230" />
   <line fill="none" stroke="white" stroke-width="7.62" x1="17444" y1="10248" x2="14231" y2= "12292" />
   <path fill="#544B31" stroke="black" stroke-width="7.62" stroke-linejoin="bevel" d="M17595 12396c-69,0 -123,-62 -120,-141 4,-79 64,-27 131,-27 69,0 115,-24 114,27 -1,79 -58,141 -126,141z"/>
  </g>
  <g id="sec_gout" onclick="parent.replacechar('sec_gout')" onmousemove="parent.showtooltip('sec_gout','Limbe en goutti&#232;re')" onmouseout="parent.hidetooltip('sec_gout')" cursor="pointer">
    <metadata id="CorelCorpID_7">
     <odm name="Name" value="en gouttière" type="0"/>
    </metadata>
   <path fill="#78B43C" stroke="black" stroke-width="7.62" stroke-linejoin="bevel" d="M6037 14371c-193,140 -2089,1547 -2094,1559 -5,12 -70,-2 -6,203 64,206 554,842 1339,978 1125,196 1549,-301 2050,-1029 186,-271 747,-1409 741,-1415 0,0 66,-174 -17,-148 -83,26 -496,271 -724,326 -229,55 -396,148 -652,-17 -203,-131 -442,-597 -635,-457z"/>
   <path fill="none" stroke="black" stroke-width="7.62" d="M3943 15931c120,-52 460,236 705,338 651,269 1271,377 1955,15 428,-227 519,-335 561,-369 42,-34 231,-72 123,218"/>
   <polygon fill="white" stroke="white" stroke-width="7.62" points="7316,15877 7272,15857 8040,14573 8068,14587 "/>
  </g>
  <g id="sec_double" onclick="parent.replacechar('sec_double')" onmousemove="parent.showtooltip('sec_double','Limbe pli&#233;')" onmouseout="parent.hidetooltip('sec_double')" cursor="pointer">
    <metadata id="CorelCorpID_8">
     <odm name="Name" value="section double" type="0"/>
    </metadata>
   <polygon fill="#78B43C" stroke="#2C2C2B" stroke-width="7.62" stroke-linejoin="bevel" points="21447,15965 18383,16161 17873,17142 17113,16139 13856,15645 17210,14329 19375,14723 19778,15131 20374,14737 22144,14591 "/>
   <polygon fill="#78B43C" stroke="#2C2C2B" stroke-width="7.62" stroke-linejoin="bevel" points="19362,14719 17117,16137 "/>
   <polygon fill="#78B43C" stroke="#2C2C2B" stroke-width="7.62" stroke-linejoin="bevel" points="20332,14757 18383,16150 "/>
   <polygon fill="#78B43C" stroke="#2C2C2B" stroke-width="7.62" stroke-linejoin="bevel" points="19481,16163 17920,17129 18455,16249 "/>
   <polygon fill="#78B43C" stroke="#2C2C2B" stroke-width="7.62" stroke-linejoin="bevel" points="17448,14393 14553,15720 "/>
   <polygon fill="#78B43C" stroke="#2C2C2B" stroke-width="7.62" stroke-linejoin="bevel" points="15289,15819 17847,14472 "/>
   <polygon fill="#78B43C" stroke="#2C2C2B" stroke-width="7.62" stroke-linejoin="bevel" points="16530,16013 18872,14657 "/>
   <polygon fill="#78B43C" stroke="#2C2C2B" stroke-width="7.62" stroke-linejoin="bevel" points="18345,14565 15951,15930 "/>
   <polygon fill="#78B43C" stroke="#2C2C2B" stroke-width="7.62" stroke-linejoin="bevel" points="19084,16101 20651,14728 "/>
   <polygon fill="#78B43C" stroke="#2C2C2B" stroke-width="7.62" stroke-linejoin="bevel" points="19796,16064 21006,14708 "/>
   <polygon fill="#78B43C" stroke="#2C2C2B" stroke-width="7.62" stroke-linejoin="bevel" points="20493,16024 21372,14673 "/>
   <polygon fill="#78B43C" stroke="#2C2C2B" stroke-width="7.62" stroke-linejoin="bevel" points="21068,15965 21796,14626 "/>
   <polygon fill="#78B43C" stroke="#2C2C2B" stroke-width="7.62" stroke-linejoin="bevel" points="13871,15643 17115,16139 17752,16977 17950,16977 18387,16161 21458,15960 18480,16265 17959,17105 17792,17105 17068,16221 "/>
   <path fill="#987F34" stroke="#2C2C2B" stroke-width="7.62" stroke-linejoin="bevel" d="M17880 17171c-53,7 -108,-64 -119,-148 -9,-77 49,-22 101,-20 55,2 88,-51 97,26 13,82 -2,128 -79,141z"/>
  </g>
 </g>
<image xlink:href="tick.gif" id="imgtick" x="-10000" y="-10000" width="1500" height="1500"/>
<rect id="recttooltip" x="-10000" y="-10000" width="5500" height="600" fill-opacity="0.85" pointer-events="none"/>
<text id="textboxid" x="-10000" y="-10000" pointer-events="none"> </text>
</a></svg>
