<?xml version="1.0" encoding="UTF-8"?>
<!DOCTYPE svg PUBLIC "-//W3C//DTD SVG 1.1//EN" "http://www.w3.org/Graphics/SVG/1.1/DTD/svg11.dtd">
<!-- Creator: CorelDRAW X5 -->
<svg xmlns="http://www.w3.org/2000/svg" xml:space="preserve" width="100%" height="100%" shape-rendering="geometricPrecision" text-rendering="geometricPrecision" image-rendering="optimizeQuality" fill-rule="evenodd" clip-rule="evenodd"
viewBox="0 0 24000 18000"
 xmlns:xlink="http://www.w3.org/1999/xlink">
 <g id="Layer_x0020_1">
  <metadata id="CorelCorpID_0Corel-Layer"/>
  <g id="FOEgales"  onclick="parent.replacechar('FOEgales')" onmousemove="parent.showtooltip('FOEgales','Feuilles opposées de taille égale')" onmouseout="parent.hidetooltip('FOEgales')" cursor="pointer" style="fill-opacity:1">
   <g id="simple_x0020_egales">
     <metadata id="CorelCorpID_1">
      <odm name="Name" value="simple egales" type="0"/>
     </metadata>
    <g id="elliptic">
      <metadata id="CorelCorpID_2">
       <odm name="Name" value="elliptic" type="0"/>
      </metadata>
     <rect id="nervure" fill="#00923F" stroke="#2A2A29" stroke-width="7.62" transform="matrix(2.64845E-014 -1 1 2.64845E-014 4827.58 5893)" width="39" height="838">
      <metadata id="CorelCorpID_3">
       <odm name="Name" value="nervure" type="0"/>
      </metadata>
     </rect>
     <path id="forme_x0020_limbe" fill="#00923F" stroke="black" stroke-width="7.62" d="M735 5878c2270,-1485 3087,-1450 4102,-5 -915,1361 -1931,1575 -4102,5z">
      <metadata id="CorelCorpID_4">
       <odm name="Name" value="forme limbe" type="0"/>
      </metadata>
     </path>
     <path fill="none" stroke="#999999" stroke-width="7.62" d="M3941 5875c-59,-531 -513,-779 -1007,-738"/>
     <path fill="none" stroke="#999999" stroke-width="7.62" d="M3028 5875c12,-492 -454,-648 -939,-583"/>
     <path fill="none" stroke="#999999" stroke-width="7.62" d="M2202 5875c-16,-381 -335,-471 -688,-388"/>
     <path fill="none" stroke="#999999" stroke-width="7.62" d="M1628 5875c-47,-250 -278,-259 -587,-155"/>
     <path fill="none" stroke="#999999" stroke-width="7.62" d="M4348 5875c-54,622 -329,824 -775,972"/>
     <path fill="none" stroke="#999999" stroke-width="7.62" d="M3510 5875c-13,682 -430,741 -958,692"/>
     <path fill="none" stroke="#999999" stroke-width="7.62" d="M2744 5875c5,477 -386,672 -927,495"/>
     <path fill="none" stroke="#999999" stroke-width="7.62" d="M2025 5875c-17,361 -354,409 -712,312"/>
     <path fill="none" stroke="#999999" stroke-width="7.62" d="M1387 5875c-34,197 -283,206 -502,107"/>
     <path id="nervure_0" fill="#00923F" stroke="#999999" stroke-width="7.62" d="M750 5887c-5,-5 -7,-7 -9,-9 3,-3 7,-8 15,-16l4068 0c3,4 5,8 8,12 -3,4 -6,10 -8,14 -3224,0 -2826,0 -4074,0z">
      <metadata id="CorelCorpID_5">
       <odm name="Name" value="nervure" type="0"/>
      </metadata>
     </path>
     <path fill="none" stroke="#999999" stroke-width="7.62" d="M4422 5862c-54,-622 -622,-886 -1067,-1034"/>
    </g>
    <g id="elliptic_1">
      <metadata id="CorelCorpID_6">
       <odm name="Name" value="elliptic" type="0"/>
      </metadata>
     <rect id="nervure_2" fill="#00923F" stroke="#2A2A29" stroke-width="7.62" transform="matrix(2.64845E-014 1 -1 2.64845E-014 7172.41 5854.03)" width="39" height="838">
      <metadata id="CorelCorpID_7">
       <odm name="Name" value="nervure" type="0"/>
      </metadata>
     </rect>
     <path id="forme_x0020_limbe_3" fill="#00923F" stroke="black" stroke-width="7.62" d="M11265 5878c-2270,-1485 -3087,-1450 -4102,-5 915,1361 1931,1575 4102,5z">
      <metadata id="CorelCorpID_8">
       <odm name="Name" value="forme limbe" type="0"/>
      </metadata>
     </path>
     <path fill="none" stroke="#999999" stroke-width="7.62" d="M8059 5875c59,-531 513,-779 1007,-738"/>
     <path fill="none" stroke="#999999" stroke-width="7.62" d="M8972 5875c-12,-492 454,-648 939,-583"/>
     <path fill="none" stroke="#999999" stroke-width="7.62" d="M9798 5875c16,-381 335,-471 688,-388"/>
     <path fill="none" stroke="#999999" stroke-width="7.62" d="M10372 5875c47,-250 278,-259 587,-155"/>
     <path fill="none" stroke="#999999" stroke-width="7.62" d="M7652 5875c54,622 329,824 775,972"/>
     <path fill="none" stroke="#999999" stroke-width="7.62" d="M8490 5875c13,682 430,741 958,692"/>
     <path fill="none" stroke="#999999" stroke-width="7.62" d="M9256 5875c-5,477 386,672 927,495"/>
     <path fill="none" stroke="#999999" stroke-width="7.62" d="M9975 5875c17,361 354,409 712,312"/>
     <path fill="none" stroke="#999999" stroke-width="7.62" d="M10613 5875c34,197 283,206 502,107"/>
     <path id="nervure_4" fill="#00923F" stroke="#999999" stroke-width="7.62" d="M11250 5887c5,-5 7,-7 9,-9 -3,-3 -7,-8 -15,-16l-4068 0c-3,4 -5,8 -8,12 3,4 6,10 8,14 3224,0 2826,0 4074,0z">
      <metadata id="CorelCorpID_9">
       <odm name="Name" value="nervure" type="0"/>
      </metadata>
     </path>
     <path fill="none" stroke="#999999" stroke-width="7.62" d="M7578 5862c54,-622 622,-886 1067,-1034"/>
    </g>
    <ellipse fill="#B45014" stroke="black" stroke-width="7.62" cx="6044" cy="5854" rx="565" ry="416"/>
   </g>
   <g id="comp_x0020_egales">
     <metadata id="CorelCorpID_10">
      <odm name="Name" value="comp egales" type="0"/>
     </metadata>
    <ellipse fill="#B45014" stroke="black" stroke-width="7.62" cx="5981" cy="12446" rx="565" ry="416"/>
    <g id="pinna">
     <polygon fill="#00923F" stroke="black" stroke-width="7.62" stroke-linejoin="bevel" points="1079,12488 5412,12464 "/>
     <g>
      <ellipse fill="#00923F" stroke="black" stroke-width="7.62" transform="matrix(1.40084 -1.41875 1.56653 1.54676 1117.88 12077.6)" rx="78" ry="193"/>
      <line fill="none" stroke="black" stroke-width="7.62" x1="863" y1="11816" x2="1523" y2= "12487" />
     </g>
     <g>
      <ellipse fill="#00923F" stroke="black" stroke-width="7.62" transform="matrix(1.40084 -1.41875 1.56653 1.54676 1816.69 12071.3)" rx="78" ry="193"/>
      <line fill="none" stroke="black" stroke-width="7.62" x1="1561" y1="11810" x2="2222" y2= "12481" />
     </g>
     <g>
      <ellipse fill="#00923F" stroke="black" stroke-width="7.62" transform="matrix(1.40084 -1.41875 1.56653 1.54676 2547.81 12073.3)" rx="78" ry="193"/>
      <line fill="none" stroke="black" stroke-width="7.62" x1="2293" y1="11812" x2="2953" y2= "12483" />
     </g>
     <g>
      <ellipse fill="#00923F" stroke="black" stroke-width="7.62" transform="matrix(1.40084 -1.41875 1.56653 1.54676 3171.79 12066.8)" rx="78" ry="193"/>
      <line fill="none" stroke="black" stroke-width="7.62" x1="2917" y1="11805" x2="3577" y2= "12477" />
     </g>
     <g>
      <ellipse fill="#00923F" stroke="black" stroke-width="7.62" transform="matrix(1.40084 -1.41875 1.56653 1.54676 3878.78 12062.9)" rx="78" ry="193"/>
      <line fill="none" stroke="black" stroke-width="7.62" x1="3624" y1="11801" x2="4284" y2= "12473" />
     </g>
     <g>
      <ellipse fill="#00923F" stroke="black" stroke-width="7.62" transform="matrix(1.40084 -1.41875 1.56653 1.54676 4545.86 12068.4)" rx="78" ry="193"/>
      <line fill="none" stroke="black" stroke-width="7.62" x1="4291" y1="11807" x2="4951" y2= "12478" />
     </g>
     <g>
      <ellipse fill="#00923F" stroke="black" stroke-width="7.62" transform="matrix(-1.43774 -1.38134 1.52523 -1.58751 1119.94 12897.7)" rx="78" ry="193"/>
      <line fill="none" stroke="black" stroke-width="7.62" x1="862" y1="13156" x2="1524" y2= "12487" />
     </g>
     <g>
      <ellipse fill="#00923F" stroke="black" stroke-width="7.62" transform="matrix(-1.43774 -1.38134 1.52523 -1.58751 1821.93 12893.2)" rx="78" ry="193"/>
      <line fill="none" stroke="black" stroke-width="7.62" x1="1564" y1="13152" x2="2226" y2= "12482" />
     </g>
     <g>
      <ellipse fill="#00923F" stroke="black" stroke-width="7.62" transform="matrix(-1.43774 -1.38134 1.52523 -1.58751 2545.71 12894.3)" rx="78" ry="193"/>
      <line fill="none" stroke="black" stroke-width="7.62" x1="2287" y1="13153" x2="2950" y2= "12483" />
     </g>
     <g>
      <ellipse fill="#00923F" stroke="black" stroke-width="7.62" transform="matrix(-1.43774 -1.38134 1.52523 -1.58751 3176.17 12888.5)" rx="78" ry="193"/>
      <line fill="none" stroke="black" stroke-width="7.62" x1="2918" y1="13147" x2="3580" y2= "12478" />
     </g>
     <g>
      <ellipse fill="#00923F" stroke="black" stroke-width="7.62" transform="matrix(-1.43774 -1.38134 1.52523 -1.58751 3885.69 12888.9)" rx="78" ry="193"/>
      <line fill="none" stroke="black" stroke-width="7.62" x1="3627" y1="13148" x2="4290" y2= "12478" />
     </g>
     <g>
      <ellipse fill="#00923F" stroke="black" stroke-width="7.62" transform="matrix(-1.43774 -1.38134 1.52523 -1.58751 4543.41 12885.8)" rx="78" ry="193"/>
      <line fill="none" stroke="black" stroke-width="7.62" x1="4285" y1="13145" x2="4948" y2= "12475" />
     </g>
     <rect id="nervure_5" fill="#00923F" stroke="#2A2A29" stroke-width="7.62" transform="matrix(1.36841E-013 -1 1 4.94621E-015 1079.15 12497.8)" width="39" height="4333">
      <metadata id="CorelCorpID_11">
       <odm name="Name" value="nervure" type="0"/>
      </metadata>
     </rect>
    </g>
    <g id="pinna_6">
     <polygon fill="#00923F" stroke="black" stroke-width="7.62" stroke-linejoin="bevel" points="10921,12488 6588,12464 "/>
     <g>
      <ellipse fill="#00923F" stroke="black" stroke-width="7.62" transform="matrix(-1.40084 -1.41875 -1.56653 1.54676 10882.1 12077.6)" rx="78" ry="193"/>
      <line fill="none" stroke="black" stroke-width="7.62" x1="11137" y1="11816" x2="10477" y2= "12487" />
     </g>
     <g>
      <ellipse fill="#00923F" stroke="black" stroke-width="7.62" transform="matrix(-1.40084 -1.41875 -1.56653 1.54676 10183.3 12071.3)" rx="78" ry="193"/>
      <line fill="none" stroke="black" stroke-width="7.62" x1="10439" y1="11810" x2="9778" y2= "12481" />
     </g>
     <g>
      <ellipse fill="#00923F" stroke="black" stroke-width="7.62" transform="matrix(-1.40084 -1.41875 -1.56653 1.54676 9452.2 12073.3)" rx="78" ry="193"/>
      <line fill="none" stroke="black" stroke-width="7.62" x1="9707" y1="11812" x2="9047" y2= "12483" />
     </g>
     <g>
      <ellipse fill="#00923F" stroke="black" stroke-width="7.62" transform="matrix(-1.40084 -1.41875 -1.56653 1.54676 8828.21 12066.8)" rx="78" ry="193"/>
      <line fill="none" stroke="black" stroke-width="7.62" x1="9083" y1="11805" x2="8423" y2= "12477" />
     </g>
     <g>
      <ellipse fill="#00923F" stroke="black" stroke-width="7.62" transform="matrix(-1.40084 -1.41875 -1.56653 1.54676 8121.23 12062.9)" rx="78" ry="193"/>
      <line fill="none" stroke="black" stroke-width="7.62" x1="8376" y1="11801" x2="7716" y2= "12473" />
     </g>
     <g>
      <ellipse fill="#00923F" stroke="black" stroke-width="7.62" transform="matrix(-1.40084 -1.41875 -1.56653 1.54676 7454.14 12068.4)" rx="78" ry="193"/>
      <line fill="none" stroke="black" stroke-width="7.62" x1="7709" y1="11807" x2="7049" y2= "12478" />
     </g>
     <g>
      <ellipse fill="#00923F" stroke="black" stroke-width="7.62" transform="matrix(1.43774 -1.38134 -1.52523 -1.58751 10880.1 12897.7)" rx="78" ry="193"/>
      <line fill="none" stroke="black" stroke-width="7.62" x1="11138" y1="13156" x2="10476" y2= "12487" />
     </g>
     <g>
      <ellipse fill="#00923F" stroke="black" stroke-width="7.62" transform="matrix(1.43774 -1.38134 -1.52523 -1.58751 10178.1 12893.2)" rx="78" ry="193"/>
      <line fill="none" stroke="black" stroke-width="7.62" x1="10436" y1="13152" x2="9774" y2= "12482" />
     </g>
     <g>
      <ellipse fill="#00923F" stroke="black" stroke-width="7.62" transform="matrix(1.43774 -1.38134 -1.52523 -1.58751 9454.3 12894.3)" rx="78" ry="193"/>
      <line fill="none" stroke="black" stroke-width="7.62" x1="9713" y1="13153" x2="9050" y2= "12483" />
     </g>
     <g>
      <ellipse fill="#00923F" stroke="black" stroke-width="7.62" transform="matrix(1.43774 -1.38134 -1.52523 -1.58751 8823.84 12888.5)" rx="78" ry="193"/>
      <line fill="none" stroke="black" stroke-width="7.62" x1="9082" y1="13147" x2="8420" y2= "12478" />
     </g>
     <g>
      <ellipse fill="#00923F" stroke="black" stroke-width="7.62" transform="matrix(1.43774 -1.38134 -1.52523 -1.58751 8114.32 12888.9)" rx="78" ry="193"/>
      <line fill="none" stroke="black" stroke-width="7.62" x1="8373" y1="13148" x2="7710" y2= "12478" />
     </g>
     <g>
      <ellipse fill="#00923F" stroke="black" stroke-width="7.62" transform="matrix(1.43774 -1.38134 -1.52523 -1.58751 7456.59 12885.8)" rx="78" ry="193"/>
      <line fill="none" stroke="black" stroke-width="7.62" x1="7715" y1="13145" x2="7052" y2= "12475" />
     </g>
     <rect id="nervure_7" fill="#00923F" stroke="#2A2A29" stroke-width="7.62" transform="matrix(1.36841E-013 1 -1 5.16826E-015 10920.9 12458.8)" width="39" height="4333">
      <metadata id="CorelCorpID_12">
       <odm name="Name" value="nervure" type="0"/>
      </metadata>
     </rect>
    </g>
   </g>
  </g>
  <g id="FODifferentes"  onclick="parent.replacechar('FODifferentes')" onmousemove="parent.showtooltip('FODifferentes','Feuilles opposées de taille différente')" onmouseout="parent.hidetooltip('FODifferentes')" cursor="pointer" style="fill-opacity:1">
   <g id="simple_x0020_dif">
     <metadata id="CorelCorpID_13">
      <odm name="Name" value="simple dif" type="0"/>
     </metadata>
    <g id="elliptic_8">
      <metadata id="CorelCorpID_14">
       <odm name="Name" value="elliptic" type="0"/>
      </metadata>
     <rect id="nervure_9" fill="#00923F" stroke="#2A2A29" stroke-width="7.62" transform="matrix(2.64845E-014 -1 1 2.64845E-014 16791.7 5893.02)" width="39" height="838">
      <metadata id="CorelCorpID_15">
       <odm name="Name" value="nervure" type="0"/>
      </metadata>
     </rect>
     <path id="forme_x0020_limbe_10" fill="#00923F" stroke="black" stroke-width="7.62" d="M12699 5878c2270,-1485 3087,-1450 4102,-5 -915,1361 -1931,1575 -4102,5z">
      <metadata id="CorelCorpID_16">
       <odm name="Name" value="forme limbe" type="0"/>
      </metadata>
     </path>
     <path fill="none" stroke="#999999" stroke-width="7.62" d="M15905 5875c-59,-531 -513,-779 -1007,-738"/>
     <path fill="none" stroke="#999999" stroke-width="7.62" d="M14992 5875c12,-492 -454,-648 -939,-583"/>
     <path fill="none" stroke="#999999" stroke-width="7.62" d="M14166 5875c-16,-381 -335,-471 -688,-388"/>
     <path fill="none" stroke="#999999" stroke-width="7.62" d="M13592 5875c-47,-250 -278,-259 -587,-155"/>
     <path fill="none" stroke="#999999" stroke-width="7.62" d="M16312 5875c-54,622 -329,824 -775,972"/>
     <path fill="none" stroke="#999999" stroke-width="7.62" d="M15475 5875c-13,682 -430,741 -958,692"/>
     <path fill="none" stroke="#999999" stroke-width="7.62" d="M14708 5875c5,477 -386,672 -927,495"/>
     <path fill="none" stroke="#999999" stroke-width="7.62" d="M13989 5875c-17,361 -354,409 -712,312"/>
     <path fill="none" stroke="#999999" stroke-width="7.62" d="M13351 5875c-34,197 -283,206 -502,107"/>
     <path id="nervure_11" fill="#00923F" stroke="#999999" stroke-width="7.62" d="M12714 5887c-5,-5 -7,-7 -9,-9 3,-3 7,-8 15,-16l4068 0c3,4 5,8 8,12 -3,4 -6,10 -8,14 -3224,0 -2826,0 -4074,0z">
      <metadata id="CorelCorpID_17">
       <odm name="Name" value="nervure" type="0"/>
      </metadata>
     </path>
     <path fill="none" stroke="#999999" stroke-width="7.62" d="M16387 5862c-54,-622 -622,-886 -1067,-1034"/>
    </g>
    <g id="elliptic_12">
      <metadata id="CorelCorpID_18">
       <odm name="Name" value="elliptic" type="0"/>
      </metadata>
     <rect id="nervure_13" fill="#00923F" stroke="#2A2A29" stroke-width="7.62" transform="matrix(2.64845E-014 1 -1 2.64845E-014 18981.3 5857.09)" width="22" height="469">
      <metadata id="CorelCorpID_19">
       <odm name="Name" value="nervure" type="0"/>
      </metadata>
     </rect>
     <path id="forme_x0020_limbe_14" fill="#00923F" stroke="black" stroke-width="7.62" d="M21269 5871c-1269,-830 -1725,-810 -2293,-3 511,760 1079,880 2293,3z">
      <metadata id="CorelCorpID_20">
       <odm name="Name" value="forme limbe" type="0"/>
      </metadata>
     </path>
     <path fill="none" stroke="#999999" stroke-width="7.62" d="M19477 5869c33,-297 286,-435 563,-412"/>
     <path fill="none" stroke="#999999" stroke-width="7.62" d="M19987 5869c-7,-275 254,-362 525,-326"/>
     <path fill="none" stroke="#999999" stroke-width="7.62" d="M20449 5869c9,-213 187,-263 384,-217"/>
     <path fill="none" stroke="#999999" stroke-width="7.62" d="M20770 5869c26,-140 155,-145 328,-87"/>
     <path fill="none" stroke="#999999" stroke-width="7.62" d="M19249 5869c30,348 184,460 433,543"/>
     <path fill="none" stroke="#999999" stroke-width="7.62" d="M19718 5869c7,381 240,414 535,387"/>
     <path fill="none" stroke="#999999" stroke-width="7.62" d="M20146 5869c-3,267 216,375 518,277"/>
     <path fill="none" stroke="#999999" stroke-width="7.62" d="M20548 5869c10,202 198,228 398,175"/>
     <path fill="none" stroke="#999999" stroke-width="7.62" d="M20904 5869c19,110 158,115 281,60"/>
     <path id="nervure_15" fill="#00923F" stroke="#999999" stroke-width="7.62" d="M21261 5876c3,-3 4,-4 5,-5 -2,-2 -4,-4 -9,-9l-2274 0c-1,2 -3,4 -4,7 1,2 3,6 5,8 1802,0 1580,0 2277,0z">
      <metadata id="CorelCorpID_21">
       <odm name="Name" value="nervure" type="0"/>
      </metadata>
     </path>
     <path fill="none" stroke="#999999" stroke-width="7.62" d="M19208 5862c30,-348 348,-495 597,-578"/>
    </g>
    <ellipse fill="#B45014" stroke="black" stroke-width="7.62" cx="18008" cy="5854" rx="565" ry="416"/>
   </g>
   <g id="comp_x0020_dif">
     <metadata id="CorelCorpID_22">
      <odm name="Name" value="comp dif" type="0"/>
     </metadata>
    <ellipse fill="#B45014" stroke="black" stroke-width="7.62" cx="18004" cy="12446" rx="565" ry="416"/>
    <g id="pinna_16">
     <polygon fill="#00923F" stroke="black" stroke-width="7.62" stroke-linejoin="bevel" points="13118,12488 17451,12464 "/>
     <g>
      <ellipse fill="#00923F" stroke="black" stroke-width="7.62" transform="matrix(1.40084 -1.41875 1.56653 1.54676 13156.3 12077.6)" rx="78" ry="193"/>
      <line fill="none" stroke="black" stroke-width="7.62" x1="12901" y1="11816" x2="13562" y2= "12487" />
     </g>
     <g>
      <ellipse fill="#00923F" stroke="black" stroke-width="7.62" transform="matrix(1.40084 -1.41875 1.56653 1.54676 13855.1 12071.3)" rx="78" ry="193"/>
      <line fill="none" stroke="black" stroke-width="7.62" x1="13600" y1="11810" x2="14261" y2= "12481" />
     </g>
     <g>
      <ellipse fill="#00923F" stroke="black" stroke-width="7.62" transform="matrix(1.40084 -1.41875 1.56653 1.54676 14586.2 12073.3)" rx="78" ry="193"/>
      <line fill="none" stroke="black" stroke-width="7.62" x1="14331" y1="11812" x2="14992" y2= "12483" />
     </g>
     <g>
      <ellipse fill="#00923F" stroke="black" stroke-width="7.62" transform="matrix(1.40084 -1.41875 1.56653 1.54676 15210.2 12066.8)" rx="78" ry="193"/>
      <line fill="none" stroke="black" stroke-width="7.62" x1="14955" y1="11805" x2="15616" y2= "12477" />
     </g>
     <g>
      <ellipse fill="#00923F" stroke="black" stroke-width="7.62" transform="matrix(1.40084 -1.41875 1.56653 1.54676 15917.2 12062.9)" rx="78" ry="193"/>
      <line fill="none" stroke="black" stroke-width="7.62" x1="15662" y1="11801" x2="16323" y2= "12473" />
     </g>
     <g>
      <ellipse fill="#00923F" stroke="black" stroke-width="7.62" transform="matrix(1.40084 -1.41875 1.56653 1.54676 16584.3 12068.5)" rx="78" ry="193"/>
      <line fill="none" stroke="black" stroke-width="7.62" x1="16329" y1="11807" x2="16990" y2= "12478" />
     </g>
     <g>
      <ellipse fill="#00923F" stroke="black" stroke-width="7.62" transform="matrix(-1.43774 -1.38134 1.52523 -1.58751 13158.4 12897.7)" rx="78" ry="193"/>
      <line fill="none" stroke="black" stroke-width="7.62" x1="12900" y1="13157" x2="13563" y2= "12487" />
     </g>
     <g>
      <ellipse fill="#00923F" stroke="black" stroke-width="7.62" transform="matrix(-1.43774 -1.38134 1.52523 -1.58751 13860.4 12893.3)" rx="78" ry="193"/>
      <line fill="none" stroke="black" stroke-width="7.62" x1="13602" y1="13152" x2="14265" y2= "12482" />
     </g>
     <g>
      <ellipse fill="#00923F" stroke="black" stroke-width="7.62" transform="matrix(-1.43774 -1.38134 1.52523 -1.58751 14584.1 12894.4)" rx="78" ry="193"/>
      <line fill="none" stroke="black" stroke-width="7.62" x1="14326" y1="13153" x2="14988" y2= "12483" />
     </g>
     <g>
      <ellipse fill="#00923F" stroke="black" stroke-width="7.62" transform="matrix(-1.43774 -1.38134 1.52523 -1.58751 15214.6 12888.6)" rx="78" ry="193"/>
      <line fill="none" stroke="black" stroke-width="7.62" x1="14956" y1="13147" x2="15619" y2= "12478" />
     </g>
     <g>
      <ellipse fill="#00923F" stroke="black" stroke-width="7.62" transform="matrix(-1.43774 -1.38134 1.52523 -1.58751 15924.1 12888.9)" rx="78" ry="193"/>
      <line fill="none" stroke="black" stroke-width="7.62" x1="15666" y1="13148" x2="16328" y2= "12478" />
     </g>
     <g>
      <ellipse fill="#00923F" stroke="black" stroke-width="7.62" transform="matrix(-1.43774 -1.38134 1.52523 -1.58751 16581.8 12885.8)" rx="78" ry="193"/>
      <line fill="none" stroke="black" stroke-width="7.62" x1="16324" y1="13145" x2="16986" y2= "12475" />
     </g>
     <rect id="nervure_17" fill="#00923F" stroke="#2A2A29" stroke-width="7.62" transform="matrix(1.36841E-013 -1 1 4.94621E-015 13117.6 12497.8)" width="39" height="4333">
      <metadata id="CorelCorpID_23">
       <odm name="Name" value="nervure" type="0"/>
      </metadata>
     </rect>
    </g>
    <g id="pinna_18">
     <polygon fill="#00923F" stroke="black" stroke-width="7.62" stroke-linejoin="bevel" points="20976,12485 18560,12472 "/>
     <g>
      <ellipse fill="#00923F" stroke="black" stroke-width="7.62" transform="matrix(-0.780839 -0.790818 -0.873195 0.862176 20954.2 12256.5)" rx="78" ry="193"/>
      <line fill="none" stroke="black" stroke-width="7.62" x1="21096" y1="12111" x2="20728" y2= "12485" />
     </g>
     <g>
      <ellipse fill="#00923F" stroke="black" stroke-width="7.62" transform="matrix(-0.780839 -0.790818 -0.873195 0.862176 20564.7 12253)" rx="78" ry="193"/>
      <line fill="none" stroke="black" stroke-width="7.62" x1="20707" y1="12107" x2="20339" y2= "12481" />
     </g>
     <g>
      <ellipse fill="#00923F" stroke="black" stroke-width="7.62" transform="matrix(-0.780839 -0.790818 -0.873195 0.862176 20157.1 12254.1)" rx="78" ry="193"/>
      <line fill="none" stroke="black" stroke-width="7.62" x1="20299" y1="12108" x2="19931" y2= "12483" />
     </g>
     <g>
      <ellipse fill="#00923F" stroke="black" stroke-width="7.62" transform="matrix(-0.780839 -0.790818 -0.873195 0.862176 19809.3 12250.5)" rx="78" ry="193"/>
      <line fill="none" stroke="black" stroke-width="7.62" x1="19952" y1="12105" x2="19583" y2= "12479" />
     </g>
     <g>
      <ellipse fill="#00923F" stroke="black" stroke-width="7.62" transform="matrix(-0.780839 -0.790818 -0.873195 0.862176 19415.3 12248.3)" rx="78" ry="193"/>
      <line fill="none" stroke="black" stroke-width="7.62" x1="19558" y1="12102" x2="19189" y2= "12477" />
     </g>
     <g>
      <ellipse fill="#00923F" stroke="black" stroke-width="7.62" transform="matrix(-0.780839 -0.790818 -0.873195 0.862176 19043.4 12251.4)" rx="78" ry="193"/>
      <line fill="none" stroke="black" stroke-width="7.62" x1="19186" y1="12105" x2="18817" y2= "12480" />
     </g>
     <g>
      <ellipse fill="#00923F" stroke="black" stroke-width="7.62" transform="matrix(0.801407 -0.769967 -0.850172 -0.884887 20953 12713.6)" rx="78" ry="193"/>
      <line fill="none" stroke="black" stroke-width="7.62" x1="21097" y1="12858" x2="20728" y2= "12485" />
     </g>
     <g>
      <ellipse fill="#00923F" stroke="black" stroke-width="7.62" transform="matrix(0.801407 -0.769967 -0.850172 -0.884887 20561.8 12711.2)" rx="78" ry="193"/>
      <line fill="none" stroke="black" stroke-width="7.62" x1="20706" y1="12855" x2="20336" y2= "12482" />
     </g>
     <g>
      <ellipse fill="#00923F" stroke="black" stroke-width="7.62" transform="matrix(0.801407 -0.769967 -0.850172 -0.884887 20158.3 12711.8)" rx="78" ry="193"/>
      <line fill="none" stroke="black" stroke-width="7.62" x1="20302" y1="12856" x2="19933" y2= "12483" />
     </g>
     <g>
      <ellipse fill="#00923F" stroke="black" stroke-width="7.62" transform="matrix(0.801407 -0.769967 -0.850172 -0.884887 19806.9 12708.5)" rx="78" ry="193"/>
      <line fill="none" stroke="black" stroke-width="7.62" x1="19951" y1="12853" x2="19582" y2= "12479" />
     </g>
     <g>
      <ellipse fill="#00923F" stroke="black" stroke-width="7.62" transform="matrix(0.801407 -0.769967 -0.850172 -0.884887 19411.4 12708.7)" rx="78" ry="193"/>
      <line fill="none" stroke="black" stroke-width="7.62" x1="19555" y1="12853" x2="19186" y2= "12480" />
     </g>
     <g>
      <ellipse fill="#00923F" stroke="black" stroke-width="7.62" transform="matrix(0.801407 -0.769967 -0.850172 -0.884887 19044.8 12707)" rx="78" ry="193"/>
      <line fill="none" stroke="black" stroke-width="7.62" x1="19189" y1="12851" x2="18819" y2= "12478" />
     </g>
     <rect id="nervure_19" fill="#00923F" stroke="#2A2A29" stroke-width="7.62" transform="matrix(1.36841E-013 1 -1 5.16826E-015 20975.8 12469)" width="22" height="2415">
      <metadata id="CorelCorpID_24">
       <odm name="Name" value="nervure" type="0"/>
      </metadata>
     </rect>
    </g>
   </g>
  </g>
 </g>
</svg>
