<?xml version="1.0" encoding="UTF-8"?>
<!DOCTYPE svg PUBLIC "-//W3C//DTD SVG 1.1//EN" "http://www.w3.org/Graphics/SVG/1.1/DTD/svg11.dtd">
<!-- Creator: CorelDRAW X5 -->
<svg xmlns="http://www.w3.org/2000/svg" xml:space="preserve" shape-rendering="geometricPrecision" text-rendering="geometricPrecision" image-rendering="optimizeQuality" fill-rule="evenodd" clip-rule="evenodd"
viewBox="0 0 24000 18000"
 xmlns:xlink="http://www.w3.org/1999/xlink">
<a>
 <g id="Layer_x0020_1">
  <metadata id="CorelCorpID_0Corel-Layer"/>
  <g id="Rac_fascicule" onclick="parent.replacechar('Rac_fascicule')" onmousemove="parent.showtooltip('Rac_fascicule','Racine fascicul&#233;e')" onmouseout="parent.hidetooltip('Rac_fascicule')" cursor="pointer">
    <metadata id="CorelCorpID_1">
     <odm name="Name" value="fascicule" type="0"/>
    </metadata>
   <g id="surface_sol">
    <rect id="sol" fill="#F5E146" x="527" y="3725" width="4947" height="3576">
     <metadata id="CorelCorpID_2">
      <odm name="Name" value="fascicule" type="0"/>
     </metadata>
    </rect>
    <line id="surface" fill="none" stroke="black" stroke-width="7.62" x1="527" y1="3704" x2="5473" y2= "3704" />
   </g>
   <g id="racines">
     <metadata id="CorelCorpID_3">
      <odm name="Name" value="racines" type="0"/>
     </metadata>
    <path fill="#963428" stroke="black" stroke-width="7.62" d="M5153 6256c-325,-159 -1898,-2406 -2132,-2516 554,199 1450,1888 2132,2516z"/>
    <path fill="none" stroke="black" stroke-width="7.62" d="M3298 3969c337,329 399,171 621,507"/>
    <path fill="none" stroke="black" stroke-width="7.62" d="M3855 4667c266,260 307,138 482,403"/>
    <path fill="none" stroke="black" stroke-width="7.62" d="M4598 5602c139,136 160,72 252,211"/>
    <path fill="none" stroke="black" stroke-width="7.62" d="M3741 4855c-73,-345 -163,-271 -161,-573"/>
    <path fill="#963428" stroke="black" stroke-width="7.62" d="M2392 5788c-33,-234 602,-2101 600,-2071 -29,450 -510,1472 -600,2071z"/>
    <path fill="none" stroke="black" stroke-width="7.62" d="M2914 3967c-55,303 55,275 -46,519"/>
    <path fill="none" stroke="black" stroke-width="7.62" d="M2736 4545c-43,239 38,217 -42,409"/>
    <path fill="none" stroke="black" stroke-width="7.62" d="M2549 5184c-29,162 26,147 -28,277"/>
    <path fill="none" stroke="black" stroke-width="7.62" d="M2560 4525c160,-166 90,-190 254,-300"/>
    <path fill="none" stroke="black" stroke-width="7.62" d="M2640 4849c-102,110 -121,62 -186,172"/>
    <path fill="#963428" stroke="black" stroke-width="7.62" d="M3274 6882c-177,-291 -352,-3192 -273,-3157 178,454 52,2313 273,3157z"/>
    <path fill="none" stroke="black" stroke-width="7.62" d="M3068 4080c99,432 229,333 233,712"/>
    <path fill="none" stroke="black" stroke-width="7.62" d="M3066 5034c78,341 173,265 177,565"/>
    <path fill="none" stroke="black" stroke-width="7.62" d="M2897 5045c118,-311 11,-303 166,-541"/>
    <path fill="none" stroke="black" stroke-width="7.62" d="M3070 5504c-72,204 -125,150 -148,333"/>
    <path id="tuber3" fill="#963428" stroke="black" stroke-width="7.62" d="M4587 4442c-401,226 -1417,-754 -1724,-683 510,-260 1155,851 1724,683z"/>
    <path id="tuber2" fill="#963428" stroke="black" stroke-width="7.62" d="M1562 6448c1018,-283 642,-2306 1479,-2730 -927,211 -543,2386 -1479,2730z"/>
    <path id="tuber1" fill="#963428" stroke="black" stroke-width="7.62" d="M941 4992c644,217 1489,-1313 2108,-1262 -726,-246 -1379,1409 -2108,1262z"/>
    <path fill="none" stroke="black" stroke-width="7.62" d="M2252 3814c-313,-4 -267,-109 -530,-56"/>
    <path fill="none" stroke="black" stroke-width="7.62" d="M1924 3997c-243,49 -221,-34 -415,51"/>
    <path fill="none" stroke="black" stroke-width="7.62" d="M1431 4292c-91,18 -85,-13 -158,18"/>
    <path fill="none" stroke="black" stroke-width="7.62" d="M2103 4041c165,-167 193,-94 301,-264"/>
    <path fill="none" stroke="black" stroke-width="7.62" d="M2023 3969c-110,106 -61,127 -172,195"/>
    <path fill="none" stroke="black" stroke-width="7.62" d="M1600 4208c-110,106 -61,127 -172,195"/>
    <path fill="none" stroke="black" stroke-width="7.62" d="M2509 4064c-183,178 -211,95 -331,277"/>
    <path fill="none" stroke="black" stroke-width="7.62" d="M1852 5062c-181,176 -208,94 -327,274"/>
    <path fill="none" stroke="black" stroke-width="7.62" d="M2244 4424c-52,223 25,206 -59,383"/>
    <path fill="none" stroke="black" stroke-width="7.62" d="M1628 5431c-42,180 20,166 -47,309"/>
    <path fill="none" stroke="black" stroke-width="7.62" d="M3553 3800c310,48 282,-63 532,33"/>
    <path fill="none" stroke="black" stroke-width="7.62" d="M3918 3920c246,26 217,-55 418,12"/>
    <path fill="none" stroke="black" stroke-width="7.62" d="M4389 4165c92,10 83,-22 159,3"/>
    <path fill="none" stroke="black" stroke-width="7.62" d="M3670 4011c-180,-150 -201,-76 -325,-234"/>
    <path fill="none" stroke="black" stroke-width="7.62" d="M3769 3899c119,95 73,120 190,178"/>
    <path fill="none" stroke="black" stroke-width="7.62" d="M4212 4098c119,95 73,120 190,178"/>
    <path fill="#963428" stroke="black" stroke-width="7.62" d="M4170 6799c-487,-1097 -751,-2531 -1188,-3074 560,301 746,1970 1188,3074z"/>
    <path fill="none" stroke="black" stroke-width="7.62" d="M3319 4206c132,219 180,145 250,351"/>
    <path fill="none" stroke="black" stroke-width="7.62" d="M3702 5352c130,216 178,143 248,347"/>
    <path fill="none" stroke="black" stroke-width="7.62" d="M3472 4673c-6,229 -76,193 -40,386"/>
    <path fill="none" stroke="black" stroke-width="7.62" d="M3826 5789c-5,185 -62,156 -32,311"/>
    <path fill="none" stroke="black" stroke-width="7.62" d="M3073 3803c79,243 -8,231 102,419"/>
    <path fill="#963428" stroke="black" stroke-width="7.62" d="M1033 6372c747,-939 1344,-2423 2009,-2674 -821,149 -1303,1718 -2009,2674z"/>
    <path fill="#963428" stroke="black" stroke-width="7.62" d="M968 4568c240,9 1234,-942 2066,-834 -819,-199 -1498,617 -2066,834z"/>
    <path fill="#963428" stroke="black" stroke-width="7.62" d="M4913 4437c-239,26 -1176,-812 -1944,-706 732,-192 1362,532 1944,706z"/>
   </g>
  </g>
  <g id="Rac_pivot" onclick="parent.replacechar('Rac_pivot')" onmousemove="parent.showtooltip('Rac_pivot','Racine pivotante')" onmouseout="parent.hidetooltip('Rac_pivot')" cursor="pointer">
    <metadata id="CorelCorpID_4">
     <odm name="Name" value="pivotante" type="0"/>
    </metadata>
   <g id="surface_sol_0">
    <rect fill="#F5E146" x="6528" y="3717" width="4944" height="3584"/>
    <line fill="none" stroke="black" stroke-width="7.62" x1="6528" y1="3699" x2="11472" y2= "3699" />
   </g>
   <g id="rac_piv">
    <path fill="#973528" stroke="black" stroke-width="7.62" d="M8819 3709c-159,1400 836,1940 -263,3356 1350,-988 356,-2906 654,-3340 15,-22 -239,-19 -263,-19l-128 3z"/>
    <path fill="#9E2927" stroke="black" stroke-width="7.62" d="M9096 3805c11,64 590,26 1363,143 -525,-110 -1080,-131 -1363,-143z"/>
    <g>
     <path fill="none" stroke="black" stroke-width="7.62" d="M9018 3897c329,21 393,504 660,594"/>
     <line fill="none" stroke="black" stroke-width="7.62" x1="9354" y1="4118" x2="9546" y2= "4194" />
     <line fill="none" stroke="black" stroke-width="7.62" x1="9427" y1="4251" x2="9466" y2= "4451" />
    </g>
    <g>
     <path fill="none" stroke="black" stroke-width="7.62" d="M8951 4057c-351,140 -310,663 -561,586"/>
     <line fill="none" stroke="black" stroke-width="7.62" x1="8839" y1="4119" x2="8599" y2= "4136" />
     <line fill="none" stroke="black" stroke-width="7.62" x1="8752" y1="4227" x2="8730" y2= "4371" />
     <line fill="none" stroke="black" stroke-width="7.62" x1="8646" y1="4404" x2="8475" y2= "4441" />
    </g>
    <g>
     <path fill="none" stroke="black" stroke-width="7.62" d="M9305 3851c64,81 214,87 193,242"/>
     <path fill="none" stroke="black" stroke-width="7.62" d="M9363 3899c59,21 107,-34 178,63"/>
    </g>
    <path fill="none" stroke="black" stroke-width="7.62" d="M9250 3816c115,-86 194,-1 282,-21"/>
    <path fill="#9E2927" stroke="black" stroke-width="7.62" d="M8924 3779c-1,65 -583,63 -1334,227 505,-143 1054,-198 1334,-227z"/>
    <path fill="#9E2927" stroke="black" stroke-width="7.62" d="M8995 3813c20,50 -263,163 -575,437 200,-209 448,-359 575,-437z"/>
    <g>
     <path fill="none" stroke="black" stroke-width="7.62" d="M8876 3894c-354,-67 -552,427 -859,449"/>
     <line fill="none" stroke="black" stroke-width="7.62" x1="8460" y1="4036" x2="8236" y2= "4065" />
     <line fill="none" stroke="black" stroke-width="7.62" x1="8348" y1="4158" x2="8251" y2= "4359" />
    </g>
    <g>
     <path fill="none" stroke="black" stroke-width="7.62" d="M8891 4581c-71,147 -302,210 -214,442"/>
     <path fill="none" stroke="black" stroke-width="7.62" d="M8819 4675c-85,53 -177,-15 -255,160"/>
    </g>
    <g>
     <path fill="none" stroke="black" stroke-width="7.62" d="M9077 4371c351,140 310,663 561,586"/>
     <line fill="none" stroke="black" stroke-width="7.62" x1="9189" y1="4433" x2="9430" y2= "4450" />
     <line fill="none" stroke="black" stroke-width="7.62" x1="9276" y1="4541" x2="9298" y2= "4686" />
     <line fill="none" stroke="black" stroke-width="7.62" x1="9383" y1="4718" x2="9553" y2= "4755" />
    </g>
    <g>
     <path fill="none" stroke="black" stroke-width="7.62" d="M9157 5081c220,30 240,357 416,430"/>
     <line fill="none" stroke="black" stroke-width="7.62" x1="9373" y1="5245" x2="9498" y2= "5305" />
     <line fill="none" stroke="black" stroke-width="7.62" x1="9415" y1="5338" x2="9432" y2= "5474" />
    </g>
    <g>
     <path fill="none" stroke="black" stroke-width="7.62" d="M9105 5367c-198,27 -216,321 -374,386"/>
     <line fill="none" stroke="black" stroke-width="7.62" x1="8911" y1="5515" x2="8798" y2= "5569" />
     <line fill="none" stroke="black" stroke-width="7.62" x1="8873" y1="5598" x2="8858" y2= "5721" />
    </g>
    <g>
     <path fill="none" stroke="black" stroke-width="7.62" d="M9178 5857c232,92 205,438 371,387"/>
     <line fill="none" stroke="black" stroke-width="7.62" x1="9252" y1="5898" x2="9410" y2= "5910" />
     <line fill="none" stroke="black" stroke-width="7.62" x1="9309" y1="5969" x2="9323" y2= "6065" />
     <line fill="none" stroke="black" stroke-width="7.62" x1="9379" y1="6087" x2="9492" y2= "6111" />
    </g>
    <g>
     <path fill="none" stroke="black" stroke-width="7.62" d="M9047 6008c-157,21 -171,254 -296,306"/>
     <line fill="none" stroke="black" stroke-width="7.62" x1="8893" y1="6125" x2="8804" y2= "6168" />
     <line fill="none" stroke="black" stroke-width="7.62" x1="8863" y1="6191" x2="8851" y2= "6288" />
    </g>
    <g>
     <path fill="none" stroke="black" stroke-width="7.62" d="M9052 6412c126,17 138,205 239,247"/>
     <line fill="none" stroke="black" stroke-width="7.62" x1="9176" y1="6506" x2="9248" y2= "6541" />
     <line fill="none" stroke="black" stroke-width="7.62" x1="9200" y1="6560" x2="9210" y2= "6638" />
    </g>
    <g>
     <path fill="none" stroke="black" stroke-width="7.62" d="M8940 6479c-65,87 -224,98 -196,262"/>
     <path fill="none" stroke="black" stroke-width="7.62" d="M8880 6531c-62,24 -114,-33 -187,72"/>
    </g>
    <g>
     <path fill="none" stroke="black" stroke-width="7.62" d="M8981 6593c108,68 40,244 115,324"/>
     <line fill="none" stroke="black" stroke-width="7.62" x1="9054" y1="6730" x2="9106" y2= "6792" />
     <line fill="none" stroke="black" stroke-width="7.62" x1="9054" y1="6789" x2="9031" y2= "6865" />
    </g>
    <g>
     <path fill="none" stroke="black" stroke-width="7.62" d="M8861 6790c62,39 23,139 65,185"/>
     <line fill="none" stroke="black" stroke-width="7.62" x1="8903" y1="6868" x2="8933" y2= "6903" />
     <line fill="none" stroke="black" stroke-width="7.62" x1="8903" y1="6902" x2="8890" y2= "6945" />
    </g>
    <g>
     <path fill="none" stroke="black" stroke-width="7.62" d="M8787 6811c-72,-7 -103,96 -165,106"/>
     <line fill="none" stroke="black" stroke-width="7.62" x1="8706" y1="6847" x2="8661" y2= "6857" />
     <line fill="none" stroke="black" stroke-width="7.62" x1="8685" y1="6874" x2="8669" y2= "6916" />
    </g>
    <g>
     <path fill="none" stroke="black" stroke-width="7.62" d="M8773 6908c43,27 16,97 46,129"/>
     <line fill="none" stroke="black" stroke-width="7.62" x1="8802" y1="6963" x2="8823" y2= "6987" />
     <line fill="none" stroke="black" stroke-width="7.62" x1="8802" y1="6986" x2="8793" y2= "7016" />
    </g>
    <g>
     <path fill="none" stroke="black" stroke-width="7.62" d="M8722 6923c-51,0 -66,74 -108,85"/>
     <line fill="none" stroke="black" stroke-width="7.62" x1="8668" y1="6953" x2="8638" y2= "6963" />
     <line fill="none" stroke="black" stroke-width="7.62" x1="8655" y1="6973" x2="8647" y2= "7004" />
    </g>
    <g>
     <path fill="none" stroke="black" stroke-width="7.62" d="M8711 6984c18,30 -21,66 -12,95"/>
     <line fill="none" stroke="black" stroke-width="7.62" x1="8712" y1="7027" x2="8717" y2= "7049" />
     <line fill="none" stroke="black" stroke-width="7.62" x1="8704" y1="7042" x2="8689" y2= "7057" />
    </g>
    <g>
     <path fill="none" stroke="black" stroke-width="7.62" d="M8604 3834c-45,93 -190,132 -135,279"/>
     <path fill="none" stroke="black" stroke-width="7.62" d="M8559 3893c-53,34 -111,-10 -160,101"/>
    </g>
    <path fill="none" stroke="black" stroke-width="7.62" d="M8072 3823c126,-68 192,27 282,21"/>
    <g>
     <path fill="none" stroke="black" stroke-width="7.62" d="M9635 3859c179,11 214,274 359,323"/>
     <line fill="none" stroke="black" stroke-width="7.62" x1="9818" y1="3979" x2="9922" y2= "4020" />
     <line fill="none" stroke="black" stroke-width="7.62" x1="9857" y1="4051" x2="9879" y2= "4160" />
    </g>
    <g>
     <path fill="none" stroke="black" stroke-width="7.62" d="M8196 3906c-186,-35 -291,225 -453,237"/>
     <line fill="none" stroke="black" stroke-width="7.62" x1="7977" y1="3981" x2="7859" y2= "3996" />
     <line fill="none" stroke="black" stroke-width="7.62" x1="7917" y1="4045" x2="7867" y2= "4151" />
    </g>
    <path fill="none" stroke="black" stroke-width="7.62" d="M9624 3835c115,-86 194,-1 282,-21"/>
   </g>
  </g>
  <g id="Rac_tubercule" onclick="parent.replacechar('Rac_tubercule')" onmousemove="parent.showtooltip('Rac_tubercule','Racine avec tubercules')" onmouseout="parent.hidetooltip('Rac_tubercule')" cursor="pointer">
    <metadata id="CorelCorpID_5">
     <odm name="Name" value="tubercules" type="0"/>
    </metadata>
   <g id="surface_sol_1">
    <line id="surface_2" fill="none" stroke="black" stroke-width="7.62" x1="12527" y1="3704" x2="17473" y2= "3704" >
     <metadata id="CorelCorpID_6">
      <odm name="Name" value="tubercules" type="0"/>
     </metadata>
    </line>
    <rect id="sol_3" fill="#F5E146" x="12527" y="3722" width="4946" height="3580"/>
   </g>
   <g id="rac_tuber">
    <path fill="#963428" stroke="black" stroke-width="7.62" d="M17207 6262c-325,-159 -1898,-2406 -2132,-2516 554,199 1450,1888 2132,2516z"/>
    <path fill="none" stroke="black" stroke-width="7.62" d="M15353 3976c337,329 399,171 621,507"/>
    <path fill="none" stroke="black" stroke-width="7.62" d="M15910 4673c266,260 307,138 482,403"/>
    <path fill="none" stroke="black" stroke-width="7.62" d="M16577 5545c181,177 208,94 327,274"/>
    <path fill="none" stroke="black" stroke-width="7.62" d="M15795 4861c-73,-345 -163,-271 -161,-573"/>
    <path fill="none" stroke="black" stroke-width="7.62" d="M16217 5100c52,223 -25,206 59,383"/>
    <path fill="#963428" stroke="black" stroke-width="7.62" d="M14447 5795c-33,-234 605,-2135 603,-2106 -29,450 -513,1506 -603,2106z"/>
    <path fill="none" stroke="black" stroke-width="7.62" d="M14969 3974c-55,303 55,275 -46,519"/>
    <path fill="none" stroke="black" stroke-width="7.62" d="M14790 4551c-43,239 38,217 -42,409"/>
    <path fill="none" stroke="black" stroke-width="7.62" d="M14604 5191c-29,162 26,147 -28,277"/>
    <path fill="none" stroke="black" stroke-width="7.62" d="M14614 4532c160,-166 90,-190 254,-300"/>
    <path fill="none" stroke="black" stroke-width="7.62" d="M14694 4855c-102,110 -121,62 -186,172"/>
    <path fill="#963428" stroke="black" stroke-width="7.62" d="M15329 6888c-177,-291 -352,-3192 -273,-3157 178,454 52,2313 273,3157z"/>
    <path fill="none" stroke="black" stroke-width="7.62" d="M15123 4087c99,432 229,333 233,712"/>
    <path fill="none" stroke="black" stroke-width="7.62" d="M15121 5041c78,341 173,265 177,565"/>
    <path fill="none" stroke="black" stroke-width="7.62" d="M15182 5929c53,232 117,180 120,383"/>
    <path fill="none" stroke="black" stroke-width="7.62" d="M14952 5052c118,-311 11,-303 166,-541"/>
    <path fill="none" stroke="black" stroke-width="7.62" d="M15125 5510c-72,204 -125,150 -148,333"/>
    <path id="tuber3_4" fill="#963428" stroke="black" stroke-width="7.62" d="M16642 4449c31,269 -358,226 -392,50 -322,-69 -900,-832 -1333,-733 406,-207 1024,600 1321,686 301,-186 246,48 404,-3z"/>
    <path id="tuber2_5" fill="#963428" stroke="black" stroke-width="7.62" d="M13617 6455c432,171 629,-44 547,-350 342,-436 267,-2043 932,-2381 -747,171 -676,1876 -967,2307 -638,54 -330,356 -512,424z"/>
    <path id="tuber1_6" fill="#963428" stroke="black" stroke-width="7.62" d="M12996 4999c130,304 397,217 470,-26 417,-154 1042,-1285 1638,-1236 -583,-198 -1251,998 -1631,1171 -393,-197 -324,122 -477,91z"/>
    <path fill="#963428" stroke="black" stroke-width="7.62" d="M12981 4586c240,9 1234,-942 2066,-834 -819,-199 -1498,617 -2066,834z"/>
    <path fill="none" stroke="black" stroke-width="7.62" d="M14307 3821c-313,-4 -267,-109 -530,-56"/>
    <path fill="none" stroke="black" stroke-width="7.62" d="M13978 4004c-243,49 -221,-34 -415,51"/>
    <path fill="none" stroke="black" stroke-width="7.62" d="M13486 4298c-91,18 -85,-13 -158,18"/>
    <path fill="none" stroke="black" stroke-width="7.62" d="M14157 4048c165,-167 193,-94 301,-264"/>
    <path fill="none" stroke="black" stroke-width="7.62" d="M14077 3975c-110,106 -61,127 -172,195"/>
    <path fill="none" stroke="black" stroke-width="7.62" d="M13655 4215c-110,106 -61,127 -172,195"/>
    <path fill="#963428" stroke="black" stroke-width="7.62" d="M13088 6378c747,-939 1344,-2423 2009,-2674 -821,149 -1303,1718 -2009,2674z"/>
    <path fill="none" stroke="black" stroke-width="7.62" d="M14564 4071c-183,178 -211,95 -331,277"/>
    <path fill="none" stroke="black" stroke-width="7.62" d="M13906 5069c-181,177 -208,94 -327,274"/>
    <path fill="none" stroke="black" stroke-width="7.62" d="M14298 4430c-52,223 25,206 -59,383"/>
    <path fill="none" stroke="black" stroke-width="7.62" d="M13682 5438c-42,180 20,166 -47,309"/>
    <path fill="#963428" stroke="black" stroke-width="7.62" d="M16973 4410c-238,32 -1318,-820 -2136,-634 796,-276 1549,472 2136,634z"/>
    <path fill="none" stroke="black" stroke-width="7.62" d="M15607 3807c310,48 282,-63 532,33"/>
    <path fill="none" stroke="black" stroke-width="7.62" d="M15972 3926c246,26 217,-55 418,12"/>
    <path fill="none" stroke="black" stroke-width="7.62" d="M16444 4171c92,10 83,-22 159,3"/>
    <path fill="none" stroke="black" stroke-width="7.62" d="M15725 4018c-180,-150 -201,-76 -325,-234"/>
    <path fill="none" stroke="black" stroke-width="7.62" d="M15824 3906c119,95 73,120 190,178"/>
    <path fill="none" stroke="black" stroke-width="7.62" d="M16267 4104c119,95 73,120 190,178"/>
    <path fill="#963428" stroke="black" stroke-width="7.62" d="M16225 6805c-487,-1097 -751,-2531 -1188,-3074 560,301 746,1970 1188,3074z"/>
    <path fill="none" stroke="black" stroke-width="7.62" d="M15373 4212c132,219 180,145 250,351"/>
    <path fill="none" stroke="black" stroke-width="7.62" d="M15757 5358c130,216 178,143 248,347"/>
    <path fill="none" stroke="black" stroke-width="7.62" d="M15527 4679c-6,229 -76,193 -40,386"/>
    <path fill="none" stroke="black" stroke-width="7.62" d="M15881 5795c-5,185 -62,156 -32,311"/>
    <path fill="none" stroke="black" stroke-width="7.62" d="M15128 3809c79,243 -8,231 102,419"/>
   </g>
  </g>
  <g id="Rac_flotteurs" onclick="parent.replacechar('Rac_flotteurs')" onmousemove="parent.showtooltip('Rac_flotteurs','Racines avec flotteurs')" onmouseout="parent.hidetooltip('Rac_flotteurs')" cursor="pointer">
    <metadata id="CorelCorpID_7">
     <odm name="Name" value="floteurs" type="0"/>
    </metadata>
   <g id="surface_sol_7">
    <line id="surface_8" fill="none" stroke="black" stroke-width="7.62" x1="18527" y1="3704" x2="23473" y2= "3704" >
     <metadata id="CorelCorpID_8">
      <odm name="Name" value="floteurs" type="0"/>
     </metadata>
    </line>
    <rect id="sol_9" fill="#F5E146" x="18527" y="3722" width="4946" height="3580"/>
   </g>
   <g id="racines_10">
     <metadata id="CorelCorpID_9">
      <odm name="Name" value="racines" type="0"/>
     </metadata>
    <path fill="#963428" stroke="black" stroke-width="7.62" d="M23207 6262c-325,-159 -1898,-2406 -2132,-2516 554,199 1450,1888 2132,2516z"/>
    <path fill="none" stroke="black" stroke-width="7.62" d="M21353 3976c337,329 399,171 621,507"/>
    <path fill="none" stroke="black" stroke-width="7.62" d="M21910 4673c266,260 307,138 482,403"/>
    <path fill="none" stroke="black" stroke-width="7.62" d="M22652 5608c139,136 160,72 252,211"/>
    <path fill="none" stroke="black" stroke-width="7.62" d="M21795 4861c-73,-345 -163,-271 -161,-573"/>
    <path fill="#963428" stroke="black" stroke-width="7.62" d="M20447 5795c-33,-234 602,-2101 600,-2071 -29,450 -510,1472 -600,2071z"/>
    <path fill="none" stroke="black" stroke-width="7.62" d="M20969 3974c-55,303 55,275 -46,519"/>
    <path fill="none" stroke="black" stroke-width="7.62" d="M20790 4551c-43,239 38,217 -42,409"/>
    <path fill="none" stroke="black" stroke-width="7.62" d="M20604 5191c-29,162 26,147 -28,277"/>
    <path fill="none" stroke="black" stroke-width="7.62" d="M20614 4532c160,-166 90,-190 254,-300"/>
    <path fill="none" stroke="black" stroke-width="7.62" d="M20694 4855c-102,110 -121,62 -186,172"/>
    <path fill="#963428" stroke="black" stroke-width="7.62" d="M21329 6888c-177,-291 -352,-3192 -273,-3157 178,454 52,2313 273,3157z"/>
    <path fill="none" stroke="black" stroke-width="7.62" d="M21123 4087c99,432 229,333 233,712"/>
    <path fill="none" stroke="black" stroke-width="7.62" d="M21121 5041c78,341 173,265 177,565"/>
    <path fill="none" stroke="black" stroke-width="7.62" d="M20952 5052c118,-311 11,-303 166,-541"/>
    <path fill="none" stroke="black" stroke-width="7.62" d="M21125 5510c-72,204 -125,150 -148,333"/>
    <path id="tuber3_11" fill="#963428" stroke="black" stroke-width="7.62" d="M22642 4449c-401,226 -1417,-754 -1724,-683 510,-260 1155,851 1724,683z"/>
    <path id="tuber2_12" fill="#963428" stroke="black" stroke-width="7.62" d="M19617 6455c1018,-283 642,-2306 1479,-2730 -927,211 -543,2386 -1479,2730z"/>
    <path id="tuber1_13" fill="#963428" stroke="black" stroke-width="7.62" d="M18996 4999c644,217 1489,-1313 2108,-1262 -726,-246 -1379,1409 -2108,1262z"/>
    <path fill="none" stroke="black" stroke-width="7.62" d="M20307 3821c-313,-4 -267,-109 -530,-56"/>
    <path fill="none" stroke="black" stroke-width="7.62" d="M19978 4004c-243,49 -221,-34 -415,51"/>
    <path fill="none" stroke="black" stroke-width="7.62" d="M19486 4298c-91,18 -85,-13 -158,18"/>
    <path fill="none" stroke="black" stroke-width="7.62" d="M20157 4048c165,-167 193,-94 301,-264"/>
    <path fill="none" stroke="black" stroke-width="7.62" d="M20077 3975c-110,106 -61,127 -172,195"/>
    <path fill="none" stroke="black" stroke-width="7.62" d="M19655 4215c-110,106 -61,127 -172,195"/>
    <path fill="none" stroke="black" stroke-width="7.62" d="M20564 4071c-183,178 -211,95 -331,277"/>
    <path fill="none" stroke="black" stroke-width="7.62" d="M19906 5069c-181,177 -208,94 -327,274"/>
    <path fill="none" stroke="black" stroke-width="7.62" d="M20298 4430c-52,223 25,206 -59,383"/>
    <path fill="none" stroke="black" stroke-width="7.62" d="M19682 5438c-42,180 20,166 -47,309"/>
    <path fill="none" stroke="black" stroke-width="7.62" d="M21607 3807c310,48 282,-63 532,33"/>
    <path fill="none" stroke="black" stroke-width="7.62" d="M21972 3926c246,26 217,-55 418,12"/>
    <path fill="none" stroke="black" stroke-width="7.62" d="M22444 4171c92,10 83,-22 159,3"/>
    <path fill="none" stroke="black" stroke-width="7.62" d="M21725 4018c-180,-150 -201,-76 -325,-234"/>
    <path fill="none" stroke="black" stroke-width="7.62" d="M21824 3906c119,95 73,120 190,178"/>
    <path fill="none" stroke="black" stroke-width="7.62" d="M22267 4104c119,95 73,120 190,178"/>
    <path fill="#963428" stroke="black" stroke-width="7.62" d="M22225 6805c-487,-1097 -751,-2531 -1188,-3074 560,301 746,1970 1188,3074z"/>
    <path fill="none" stroke="black" stroke-width="7.62" d="M21373 4212c132,219 180,145 250,351"/>
    <path fill="none" stroke="black" stroke-width="7.62" d="M21757 5358c130,216 178,143 248,347"/>
    <path fill="none" stroke="black" stroke-width="7.62" d="M21527 4679c-6,229 -76,193 -40,386"/>
    <path fill="none" stroke="black" stroke-width="7.62" d="M21881 5795c-5,185 -62,156 -32,311"/>
    <path fill="none" stroke="black" stroke-width="7.62" d="M21128 3809c79,243 -8,231 102,419"/>
    <path fill="#963428" stroke="black" stroke-width="7.62" d="M19088 6378c747,-939 1344,-2423 2009,-2674 -821,149 -1303,1718 -2009,2674z"/>
    <path fill="#963428" stroke="black" stroke-width="7.62" d="M19022 4575c240,9 1234,-942 2066,-834 -819,-199 -1498,617 -2066,834z"/>
    <path fill="#963428" stroke="black" stroke-width="7.62" d="M22966 4433c-239,26 -1176,-812 -1944,-706 732,-192 1362,532 1944,706z"/>
    <g id="floteurs">
      <metadata id="CorelCorpID_10">
       <odm name="Name" value="floteurs" type="0"/>
      </metadata>
     <path fill="white" stroke="black" stroke-width="7.62" d="M21058 3740c-369,-219 -753,-255 -1157,-112 -65,37 -100,32 -137,31 -18,0 13,-1 131,11 340,100 614,139 926,135 73,-1 153,-80 237,-66z"/>
     <path fill="white" stroke="black" stroke-width="7.62" d="M21021 3725c392,-174 778,-163 1162,27 60,44 95,44 132,48 18,2 -12,-2 -131,-5 -349,59 -626,65 -936,23 -72,-10 -142,-98 -227,-93z"/>
     <path fill="white" stroke="black" stroke-width="7.62" d="M21065 3715c-452,155 -767,469 -954,942 -19,87 -49,115 -77,147 -14,16 9,-12 107,-108 334,-223 571,-437 800,-718 53,-66 49,-200 124,-263z"/>
    </g>
   </g>
  </g>
  <g id="Rac_tub_reseau" onclick="parent.replacechar('Rac_tub_reseau')" onmousemove="parent.showtooltip('Rac_tub_reseau','R&#233;seau de tubercules')" onmouseout="parent.hidetooltip('Rac_tub_reseau')" cursor="pointer">
   <g id="surface_sol_14">
    <rect id="sol_15" fill="#F5E146" stroke="black" stroke-width="17.63" x="527" y="11710" width="4947" height="3576"/>
    <line id="surface_16" fill="none" stroke="black" stroke-width="17.63" x1="527" y1="11689" x2="5473" y2= "11689" />
   </g>
   <ellipse fill="#973528" stroke="black" stroke-width="17.63" transform="matrix(0.728595 -0.934441 0.895653 0.787968 2583.48 14756.2)" rx="123" ry="60"/>
   <path fill="none" stroke="black" stroke-width="17.63" d="M3503 11721c0,330 -42,1110 232,1299 201,139 316,281 383,483 38,113 -18,588 58,670"/>
   <path fill="none" stroke="black" stroke-width="17.63" d="M3496 11723c-191,339 -220,566 -220,1000 0,698 -822,505 -761,1153 22,230 217,604 163,756 -59,166 -307,281 -340,512"/>
   <path fill="none" stroke="#2A2A29" stroke-width="17.63" d="M3524 11723c0,386 -278,1343 -703,1182 -321,-122 -675,-132 -919,139 -60,66 -122,125 -149,163"/>
   <path fill="none" stroke="black" stroke-width="17.63" d="M3539 11723c42,177 45,451 120,608 99,210 271,410 206,900 -24,181 -5,360 -354,646 -380,311 -341,367 -306,747 17,186 -59,424 120,493 82,32 220,19 316,19 143,0 125,164 124,163"/>
   <path fill="none" stroke="black" stroke-width="17.63" d="M2251 12915c33,154 125,446 100,579 -20,108 -216,294 -316,536 -68,164 13,268 0,402 -13,135 -168,347 -244,301"/>
   <path fill="none" stroke="black" stroke-width="17.63" d="M3448 13863c9,141 148,243 158,364 9,106 -146,245 -110,345 48,134 491,-169 550,-225 36,-34 102,124 282,168"/>
   <path fill="none" stroke="black" stroke-width="17.63" d="M2615 13958c66,23 141,-13 196,-62 163,-144 393,-311 632,-297"/>
   <ellipse fill="#973528" stroke="black" stroke-width="17.63" transform="matrix(0.951057 -1.61317 1.61317 0.951057 2154.29 13826.7)" rx="123" ry="60"/>
   <ellipse fill="#973528" stroke="black" stroke-width="17.63" transform="matrix(1.67633 -0.347149 -0 1.67633 2280.12 12911.8)" rx="200" ry="72"/>
   <ellipse fill="#973528" stroke="black" stroke-width="17.63" transform="matrix(-0.305235 -1.8617 1.85051 -0.2022 2547.74 13960.5)" rx="123" ry="60"/>
   <ellipse fill="#973528" stroke="black" stroke-width="17.63" transform="matrix(1.1687 -0.726915 0.660841 1.21789 3068.78 13720.9)" rx="123" ry="60"/>
   <ellipse fill="#973528" stroke="black" stroke-width="17.63" transform="matrix(1.16275 -0.584721 0.329785 1.23105 3826.03 14471.2)" rx="200" ry="72"/>
   <ellipse fill="#973528" stroke="black" stroke-width="17.63" transform="matrix(-0.0270593 -1.62042 0.983972 0.0515656 3205.26 14756.3)" rx="123" ry="60"/>
   <ellipse fill="#973528" stroke="black" stroke-width="17.63" transform="matrix(1.24982 -1.16985 0.873565 1.43072 3467.02 13916.9)" rx="200" ry="72"/>
  </g>
  <g id="Rac_rhizome" onclick="parent.replacechar('Rac_rhizome')" onmousemove="parent.showtooltip('Rac_rhizome','Rhizome')" onmouseout="parent.hidetooltip('Rac_rhizome')" cursor="pointer">
   <g>
    <path fill="none" stroke="#1F1A17" stroke-width="17.63" d="M8780 11860c0,0 14,1292 366,1518 352,226 900,415 985,905 84,490 330,1016 330,1016"/>
    <g id="surface_sol_17">
     <rect id="sol_18" fill="#F5E146" stroke="black" stroke-width="17.63" x="6527" y="11722" width="4947" height="3576"/>
     <line id="surface_19" fill="none" stroke="black" stroke-width="17.63" x1="6527" y1="11702" x2="11473" y2= "11702" />
    </g>
   </g>
   <path fill="none" stroke="#1F1A17" stroke-width="17.63" d="M8850 11874c-42,127 556,760 633,1086 77,326 -14,510 -56,793 -42,283 2,1461 59,1546"/>
   <path fill="none" stroke="#1F1A17" stroke-width="17.63" d="M7387 15298c267,-50 1083,-1382 1153,-1684 70,-302 267,-1741 267,-1741 0,0 -267,478 -520,533 -253,55 -331,130 -360,216 -28,86 -160,408 -224,468 -65,60 -641,406 -740,466"/>
   <path fill="none" stroke="#1F1A17" stroke-width="17.63" d="M8801 11824c0,0 -627,1131 -641,1512 -14,381 240,1112 408,1260 169,148 373,702 373,702"/>
   <path fill="lime" stroke="#1F1A17" stroke-width="17.63" d="M10713 11774c18,-314 44,-480 50,-787 6,-306 43,655 54,781 -82,-3 -103,6 -103,6z"/>
   <path fill="#973528" stroke="#1F1A17" stroke-width="17.63" d="M6970 12076c0,0 932,3 1289,-102 358,-106 398,-227 607,-226 199,1 283,158 430,226 147,68 757,83 961,37 204,-45 476,-167 458,-249l103 2c10,0 1,102 -56,165 -90,99 -213,140 -456,198 -362,45 -907,41 -1073,-53 -166,-94 -191,-171 -349,-197 -159,-26 -285,138 -557,221 -272,82 -357,82 -530,90 -173,7 -599,22 -826,22 0,-133 -1,-95 0,-135z"/>
  </g>
  <g id="Rac_rhizome_tuber" onclick="parent.replacechar('Rac_rhizome_tuber')" onmousemove="parent.showtooltip('Rac_rhizome_tuber','Rhizome tuberis&#233;')" onmouseout="parent.hidetooltip('Rac_rhizome_tuber')" cursor="pointer">
   <g>
    <path fill="none" stroke="black" stroke-width="17.64" d="M15014 12553c0,151 10,231 41,375 30,137 -73,248 41,380 113,131 -85,386 -99,492 -23,174 -99,345 -70,521"/>
    <path fill="none" stroke="black" stroke-width="17.64" d="M15500 12512c-38,361 134,637 -105,960 -85,115 -88,260 -88,410 0,73 18,574 18,369"/>
    <path fill="none" stroke="black" stroke-width="17.64" d="M15506 12501c5,65 53,72 53,146 0,98 -21,293 47,357 236,222 140,654 140,966"/>
    <path fill="none" stroke="black" stroke-width="17.64" d="M14944 12524c0,211 -49,435 -35,650 10,148 -6,520 -70,626"/>
    <path fill="none" stroke="black" stroke-width="17.64" d="M15184 12542c98,233 222,182 222,439 0,276 146,439 146,696 0,245 3,734 217,884"/>
   </g>
   <g id="surface_sol_20">
    <rect id="sol_21" fill="#F5E146" x="12527" y="11722" width="4947" height="3576"/>
    <line id="surface_22" fill="none" stroke="black" stroke-width="7.62" x1="12527" y1="11702" x2="17473" y2= "11702" />
   </g>
   <path fill="none" stroke="black" stroke-width="17.64" d="M14452 12454c-52,127 -41,281 -41,421 0,189 -140,498 -140,673 0,113 -140,559 -140,550"/>
   <path fill="none" stroke="black" stroke-width="17.64" d="M14745 12512c-26,145 -50,255 -29,421 22,175 113,1410 -35,1469"/>
   <path fill="none" stroke="black" stroke-width="17.64" d="M14353 12401c-153,118 -152,332 -152,533 0,79 7,208 -35,269 -86,124 -129,76 -129,246"/>
   <path fill="none" stroke="black" stroke-width="17.64" d="M14470 12442c43,201 53,402 53,620l0 679"/>
   <path fill="none" stroke="black" stroke-width="17.64" d="M14019 13826c-62,-186 -126,-463 -111,-673 4,-56 29,-116 29,-176 0,-100 84,-712 117,-726 -45,41 -20,65 -6,111 13,42 -23,105 -23,158l0 135c0,109 59,169 59,275 0,74 -23,120 -23,187"/>
   <path fill="none" stroke="black" stroke-width="17.64" d="M14727 12507c-147,105 -140,809 -117,983 16,120 71,389 -41,462 -131,86 -193,209 -193,392"/>
   <path fill="#9E2927" stroke="black" stroke-width="17.64" d="M13849 11929c0,0 129,-14 275,-41 146,-27 1024,-30 1166,-11 114,16 425,36 631,15 53,-5 106,-41 138,-48 51,-10 103,-17 105,0 4,33 -5,87 -5,87 0,0 -76,334 -313,443 -238,109 -200,127 -491,178 -292,51 -335,16 -389,16 -54,0 -491,-103 -545,-119 -54,-16 -572,-281 -572,-281l0 -239z"/>
   <path fill="lime" stroke="black" stroke-width="17.64" d="M16058 11845l101 3c14,0 -9,-234 -12,-274 -3,-40 -37,-332 -39,-312l-26 232 -16 201 -8 150z"/>
  </g>
  <g id="Rac_bulbe" onclick="parent.replacechar('Rac_bulbe')" onmousemove="parent.showtooltip('Rac_bulbe','Bulbe')" onmouseout="parent.hidetooltip('Rac_bulbe')" cursor="pointer">
   <g id="surface_sol_23">
    <rect id="sol_24" fill="#F5E146" stroke="black" stroke-width="17.63" x="18527" y="11722" width="4947" height="3576"/>
    <line id="surface_25" fill="none" stroke="black" stroke-width="17.63" x1="18527" y1="11702" x2="23473" y2= "11702" />
   </g>
   <g>
    <path fill="none" stroke="black" stroke-width="17.63" d="M20900 13867c15,64 -25,91 -21,153 6,86 -6,151 -6,227 0,28 -17,130 -21,167"/>
    <path fill="none" stroke="black" stroke-width="17.63" d="M20941 13873c15,13 28,268 18,291 -14,31 -18,110 -18,147 0,21 -10,87 -7,102"/>
    <path fill="none" stroke="black" stroke-width="17.63" d="M20859 13858c-21,18 -38,57 -53,77 -71,89 -127,159 -185,265 -23,43 -65,80 -88,118 -10,16 -89,99 -94,95"/>
    <path fill="none" stroke="black" stroke-width="17.63" d="M20877 13864c-18,101 -109,165 -109,262 0,52 -11,109 -6,162 3,26 17,95 1,125"/>
    <path fill="none" stroke="black" stroke-width="17.63" d="M21050 13867c17,34 20,141 35,153 88,69 70,123 91,221 9,43 -1,90 9,132 6,27 26,51 16,37"/>
    <path fill="none" stroke="black" stroke-width="17.63" d="M21109 13855c92,92 67,210 109,333 16,46 75,218 60,226"/>
    <path fill="none" stroke="black" stroke-width="17.63" d="M21000 13878c-42,111 -3,187 -3,303 0,56 -18,88 -18,141 0,29 11,61 1,91"/>
    <path fill="none" stroke="black" stroke-width="17.63" d="M20933 13875c15,64 -22,99 -50,147 -27,46 -60,51 -85,115 -38,97 -162,155 -162,277"/>
    <path fill="none" stroke="black" stroke-width="17.63" d="M21033 13867c0,41 5,106 9,153 3,42 21,67 29,100 14,56 -13,119 6,168 14,36 12,79 12,126"/>
   </g>
   <path fill="#973528" stroke="black" stroke-width="17.63" d="M20807 11712c0,0 12,165 -47,260 -59,94 -596,679 -643,885 -47,207 6,378 112,531 106,153 487,457 558,469 71,12 221,50 363,-9 142,-59 522,-271 620,-575 97,-304 12,-449 -35,-567 -47,-118 -409,-564 -419,-584 -96,-186 -168,-291 -160,-413l-348 3z"/>
  </g>
 </g>
<image xlink:href="tick.gif" id="imgtick" x="-10000" y="-10000" width="1500" height="1500"/>
<rect id="recttooltip" x="-10000" y="-10000" width="5500" height="600" fill-opacity="0.85" pointer-events="none"/>
<text id="textboxid" x="-10000" y="-10000" pointer-events="none"> </text>
</a></svg>
