<?xml version="1.0" encoding="UTF-8"?>
<!DOCTYPE svg PUBLIC "-//W3C//DTD SVG 1.1//EN" "http://www.w3.org/Graphics/SVG/1.1/DTD/svg11.dtd">
<!-- Creator: CorelDRAW X5 -->
<svg xmlns="http://www.w3.org/2000/svg" xml:space="preserve" shape-rendering="geometricPrecision" text-rendering="geometricPrecision" image-rendering="optimizeQuality" fill-rule="evenodd" clip-rule="evenodd"
viewBox="0 0 24000 18000"
 xmlns:xlink="http://www.w3.org/1999/xlink">
<a>
 <g id="Layer_x0020_1">
  <metadata id="CorelCorpID_0Corel-Layer"/>
  <g id="Phyllo_vert" onclick="parent.replacechar('Phyllo_vert')" onmousemove="parent.showtooltip('Phyllo_vert','Feuilles verticill&#233;es')" onmouseout="parent.hidetooltip('Phyllo_vert')" cursor="pointer">
    <metadata id="CorelCorpID_1">
     <odm name="Name" value="woreled" type="0"/>
    </metadata>
   <g id="feuille7">
    <path id="limbe" fill="#00C800" stroke="black" stroke-width="7.62" d="M20264 11097c895,1258 753,4165 -483,3070 -1010,211 -685,-2474 483,-3070z">
     <metadata id="CorelCorpID_2">
      <odm name="Name" value="limbe" type="0"/>
     </metadata>
    </path>
    <path fill="none" stroke="black" stroke-width="7.62" d="M20258 11108c-164,1020 -868,2006 -482,3057"/>
   </g>
   <g id="feuille5">
    <path id="limbe_0" fill="#00C800" stroke="black" stroke-width="7.62" d="M16808 7916c802,1319 3529,2336 3011,768 592,-844 -2002,-1606 -3011,-768z">
     <metadata id="CorelCorpID_3">
      <odm name="Name" value="limbe" type="0"/>
     </metadata>
    </path>
    <path fill="none" stroke="black" stroke-width="7.62" d="M16821 7914c1002,252 2186,-5 2998,764"/>
   </g>
   <g id="feuille6">
    <path id="limbe_1" fill="#00C800" stroke="black" stroke-width="7.62" d="M22851 7586c-643,1403 -3216,2718 -2868,1086 -68,-231 3,-343 9,-569 405,-827 1957,-1103 2859,-518z">
     <metadata id="CorelCorpID_4">
      <odm name="Name" value="limbe" type="0"/>
     </metadata>
    </path>
    <path fill="none" stroke="black" stroke-width="7.62" d="M22838 7586c-966,367 -2136,233 -2853,1092"/>
   </g>
   <g id="feuille7_2">
    <path id="limbe_3" fill="#00C800" stroke="black" stroke-width="7.62" d="M20255 2495c895,1258 753,4165 -483,3070 -1010,211 -685,-2474 483,-3070z">
     <metadata id="CorelCorpID_5">
      <odm name="Name" value="limbe" type="0"/>
     </metadata>
    </path>
    <path fill="none" stroke="black" stroke-width="7.62" d="M20249 2506c-164,1020 -868,2006 -482,3057"/>
   </g>
   <path id="tige" fill="#B4AA1E" stroke="black" stroke-width="7.62" d="M19739 3840c69,-383 387,-397 445,0l0 11601c-148,94 -297,98 -445,0l0 -11601z">
    <metadata id="CorelCorpID_6">
     <odm name="Name" value="axe" type="0"/>
    </metadata>
   </path>
   <g id="feuille8">
    <path id="limbe_4" fill="#00C800" stroke="black" stroke-width="7.62" d="M16835 5835c1366,718 4168,48 2977,-890 -32,-1037 -2543,-347 -2977,890z">
     <metadata id="CorelCorpID_7">
      <odm name="Name" value="limbe" type="0"/>
     </metadata>
    </path>
    <path fill="none" stroke="black" stroke-width="7.62" d="M16845 5827c989,-299 1872,-1129 2964,-887"/>
   </g>
   <g id="feuille7_5">
    <path id="limbe_6" fill="#00C800" stroke="black" stroke-width="7.62" d="M19437 10490c1274,-679 1611,-1965 612,-2225 -872,-361 -1498,1564 -612,2225z">
     <metadata id="CorelCorpID_8">
      <odm name="Name" value="limbe" type="0"/>
     </metadata>
    </path>
    <path fill="none" stroke="black" stroke-width="7.62" d="M19435 10480c200,-741 -117,-1572 608,-2216"/>
   </g>
   <g id="feuille7_7">
    <path id="limbe_8" fill="#00C800" stroke="black" stroke-width="7.62" d="M23182 5783c-1356,738 -4225,250 -2990,-846 -89,-1027 2538,-385 2990,846z">
     <metadata id="CorelCorpID_9">
      <odm name="Name" value="limbe" type="0"/>
     </metadata>
    </path>
    <path fill="none" stroke="black" stroke-width="7.62" d="M23172 5776c-994,-285 -1888,-1102 -2977,-843"/>
   </g>
   <g id="feuille8_9">
    <path id="limbe_10" fill="#00C800" stroke="black" stroke-width="7.62" d="M16844 14437c1366,718 4168,48 2977,-890 -32,-1037 -2543,-347 -2977,890z">
     <metadata id="CorelCorpID_10">
      <odm name="Name" value="limbe" type="0"/>
     </metadata>
    </path>
    <path fill="none" stroke="black" stroke-width="7.62" d="M16854 14429c989,-299 1872,-1129 2964,-887"/>
   </g>
   <g id="feuille7_11">
    <path id="limbe_12" fill="#00C800" stroke="black" stroke-width="7.62" d="M23192 14385c-1356,738 -4225,250 -2990,-846 -89,-1027 2538,-385 2990,846z">
     <metadata id="CorelCorpID_11">
      <odm name="Name" value="limbe" type="0"/>
     </metadata>
    </path>
    <path fill="none" stroke="black" stroke-width="7.62" d="M23181 14378c-994,-285 -1888,-1102 -2977,-843"/>
   </g>
  </g>
  <g id="Phyllo_Opposee" onclick="parent.replacechar('Phyllo_Opposee')" onmousemove="parent.showtooltip('Phyllo_Opposee','Feuilles oppos&#233;es')" onmouseout="parent.hidetooltip('Phyllo_Opposee')" cursor="pointer">
    <metadata id="CorelCorpID_12">
     <odm name="Name" value="opposite" type="0"/>
    </metadata>
   <g id="feuille2">
    <path id="limbe_13" fill="#00C800" stroke="black" stroke-width="7.62" d="M14903 11463c-392,1493 -2715,3247 -2666,1596 -809,-640 1460,-2111 2666,-1596z">
     <metadata id="CorelCorpID_13">
      <odm name="Name" value="limbe" type="0"/>
     </metadata>
    </path>
    <path fill="none" stroke="black" stroke-width="7.62" d="M14890 11465c-889,528 -2096,619 -2655,1589"/>
   </g>
   <path id="tige_14" fill="#B4AA1E" stroke="black" stroke-width="7.62" d="M11825 3314c69,-383 387,-397 445,0l0 11601c-148,94 -297,98 -445,0l0 -11601z">
    <metadata id="CorelCorpID_14">
     <odm name="Name" value="axe" type="0"/>
    </metadata>
   </path>
   <g id="feuille4">
    <path id="limbe_15" fill="#00C800" stroke="black" stroke-width="7.62" d="M8732 9569c914,1244 3727,1868 3066,504 425,-946 -2134,-1426 -3066,-504z">
     <metadata id="CorelCorpID_15">
      <odm name="Name" value="limbe" type="0"/>
     </metadata>
    </path>
    <path fill="none" stroke="black" stroke-width="7.62" d="M8745 9567c1020,164 2177,-196 3054,500"/>
   </g>
   <g id="feuille6_16">
    <path id="limbe_17" fill="#00C800" stroke="black" stroke-width="7.62" d="M15083 5980c-554,1441 -3040,2914 -2794,1264 -82,-226 -19,-342 -27,-568 352,-850 1884,-1224 2821,-696z">
     <metadata id="CorelCorpID_16">
      <odm name="Name" value="limbe" type="0"/>
     </metadata>
    </path>
    <path fill="none" stroke="black" stroke-width="7.62" d="M15070 5981c-941,427 -2117,366 -2779,1269"/>
   </g>
   <g id="feuille1">
    <path id="limbe_18" fill="#00C800" stroke="black" stroke-width="7.62" d="M9234 14836c1517,283 4095,-1069 2582,-1729 -233,-1005 -2532,419 -2582,1729z">
     <metadata id="CorelCorpID_17">
      <odm name="Name" value="limbe" type="0"/>
     </metadata>
    </path>
    <path fill="none" stroke="black" stroke-width="7.62" d="M9242 14825c857,-578 1455,-1631 2570,-1723"/>
   </g>
   <g id="feuille3">
    <path id="limbe_19" fill="#00C800" stroke="black" stroke-width="7.62" d="M15268 10845c-1356,738 -4225,250 -2990,-846 -89,-1027 2538,-385 2990,846z">
     <metadata id="CorelCorpID_18">
      <odm name="Name" value="limbe" type="0"/>
     </metadata>
    </path>
    <path fill="none" stroke="black" stroke-width="7.62" d="M15257 10838c-994,-285 -1888,-1102 -2977,-843"/>
   </g>
   <g id="feuille5_20">
    <path id="limbe_21" fill="#00C800" stroke="black" stroke-width="7.62" d="M9234 8994c1517,283 4095,-1069 2582,-1729 -233,-1005 -2532,419 -2582,1729z">
     <metadata id="CorelCorpID_19">
      <odm name="Name" value="limbe" type="0"/>
     </metadata>
    </path>
    <path fill="none" stroke="black" stroke-width="7.62" d="M9242 8983c857,-578 1455,-1631 2570,-1723"/>
   </g>
   <g id="feuille7_22">
    <path id="limbe_23" fill="#00C800" stroke="black" stroke-width="7.62" d="M15268 5257c-1356,738 -4225,250 -2990,-846 -89,-1027 2538,-385 2990,846z">
     <metadata id="CorelCorpID_20">
      <odm name="Name" value="limbe" type="0"/>
     </metadata>
    </path>
    <path fill="none" stroke="black" stroke-width="7.62" d="M15257 5250c-994,-285 -1888,-1102 -2977,-843"/>
   </g>
   <g id="feuille8_24">
    <path id="limbe_25" fill="#00C800" stroke="black" stroke-width="7.62" d="M8732 3981c914,1244 3727,1868 3066,504 425,-946 -2134,-1426 -3066,-504z">
     <metadata id="CorelCorpID_21">
      <odm name="Name" value="limbe" type="0"/>
     </metadata>
    </path>
    <path fill="none" stroke="black" stroke-width="7.62" d="M8745 3979c1020,164 2177,-196 3054,500"/>
   </g>
  </g>
  <g id="Phyllo_Alterne" onclick="parent.replacechar('Phyllo_Alterne')" onmousemove="parent.showtooltip('Phyllo_Alterne','Feuilles alternes')" onmouseout="parent.hidetooltip('Phyllo_Alterne')" cursor="pointer">
    <metadata id="CorelCorpID_22">
     <odm name="Name" value="alternate" type="0"/>
    </metadata>
   <path id="tige_26" fill="#B4AA1E" stroke="black" stroke-width="7.62" d="M3763 3314c69,-383 387,-397 445,0l0 11601c-148,94 -297,98 -445,0l0 -11601z">
    <metadata id="CorelCorpID_23">
     <odm name="Name" value="axe" type="0"/>
    </metadata>
   </path>
   <g id="feuilles">
    <g id="feuille2_27">
     <path id="limbe_28" fill="#00C800" stroke="black" stroke-width="7.62" d="M7217 12095c-1334,777 -4216,373 -3013,-758 -119,-1024 2525,-459 3013,758z">
      <metadata id="CorelCorpID_24">
       <odm name="Name" value="limbe" type="0"/>
      </metadata>
     </path>
     <path fill="none" stroke="black" stroke-width="7.62" d="M7207 12088c-1001,-256 -1920,-1046 -3001,-756"/>
    </g>
    <g id="feuille1_29">
     <path id="limbe_30" fill="#00C800" stroke="black" stroke-width="7.62" d="M937 14337c1453,521 4213,-404 2824,-1296 -71,-1029 -2567,11 -2824,1296z">
      <metadata id="CorelCorpID_25">
       <odm name="Name" value="limbe" type="0"/>
      </metadata>
     </path>
     <path fill="none" stroke="black" stroke-width="7.62" d="M946 14329c938,-434 1696,-1379 2812,-1292"/>
    </g>
    <g id="feuille3_31">
     <path id="limbe_32" fill="#00C800" stroke="black" stroke-width="7.62" d="M752 10129c1322,797 4210,436 3024,-713 134,-1023 -2518,-496 -3024,713z">
      <metadata id="CorelCorpID_26">
       <odm name="Name" value="limbe" type="0"/>
      </metadata>
     </path>
     <path fill="none" stroke="black" stroke-width="7.62" d="M763 10122c1005,-241 1935,-1017 3011,-711"/>
    </g>
    <g id="feuille5_33">
     <path id="limbe_34" fill="#00C800" stroke="black" stroke-width="7.62" d="M792 6387c1379,694 4231,112 2961,-943 55,-1030 -2549,-302 -2961,943z">
      <metadata id="CorelCorpID_27">
       <odm name="Name" value="limbe" type="0"/>
      </metadata>
     </path>
     <path fill="none" stroke="black" stroke-width="7.62" d="M802 6379c984,-317 1851,-1162 2948,-940"/>
    </g>
    <g id="feuille6_35">
     <path id="limbe_36" fill="#00C800" stroke="black" stroke-width="7.62" d="M7046 4997c-1440,556 -4222,-301 -2855,-1227 46,-1030 2566,-52 2855,1227z">
      <metadata id="CorelCorpID_28">
       <odm name="Name" value="limbe" type="0"/>
      </metadata>
     </path>
     <path fill="none" stroke="black" stroke-width="7.62" d="M7037 4988c-948,-411 -1729,-1338 -2842,-1223"/>
    </g>
    <g id="feuille4_37">
     <path id="limbe_38" fill="#00C800" stroke="black" stroke-width="7.62" d="M7248 8016c-1334,777 -4216,373 -3013,-758 -119,-1024 2525,-459 3013,758z">
      <metadata id="CorelCorpID_29">
       <odm name="Name" value="limbe" type="0"/>
      </metadata>
     </path>
     <path fill="none" stroke="black" stroke-width="7.62" d="M7237 8009c-1001,-256 -1920,-1046 -3001,-756"/>
    </g>
   </g>
  </g>
 </g>
<image xlink:href="tick.gif" id="imgtick" x="-10000" y="-10000" width="1500" height="1500"/>
<rect id="recttooltip" x="-10000" y="-10000" width="5500" height="600" fill-opacity="0.85" pointer-events="none"/>
<text id="textboxid" x="-10000" y="-10000" pointer-events="none"> </text>
</a></svg>
