<?xml version="1.0" encoding="UTF-8"?>
<!DOCTYPE svg PUBLIC "-//W3C//DTD SVG 1.1//EN" "http://www.w3.org/Graphics/SVG/1.1/DTD/svg11.dtd">
<!-- Creator: CorelDRAW X5 -->
<svg xmlns="http://www.w3.org/2000/svg" xml:space="preserve" shape-rendering="geometricPrecision" text-rendering="geometricPrecision" image-rendering="optimizeQuality" fill-rule="evenodd" clip-rule="evenodd"
viewBox="0 0 24000 18000"
 xmlns:xlink="http://www.w3.org/1999/xlink">
<a>
 <g id="Layer_x0020_1">
  <metadata id="CorelCorpID_0Corel-Layer"/>
  <g id="Liane_vrilles" onclick="parent.replacechar('Liane_vrilles')" onmousemove="parent.showtooltip('Liane_vrilles','Liane avec vrilles')" onmouseout="parent.hidetooltip('Liane_vrilles')" cursor="pointer">
    <metadata id="CorelCorpID_1">
     <odm name="Name" value="avec vrille" type="0"/>
    </metadata>
   <path id="racine" fill="none" stroke="#C4C5C5" stroke-width="7.62" stroke-linejoin="bevel" d="M4120 16377l-83 1c-777,75 -782,51 -1481,132 685,49 1112,0 1437,39 58,155 44,117 117,252 102,-165 34,-141 126,-252 573,-44 903,-15 1486,-29 -1083,-95 -1199,-119 -1602,-142z">
    <metadata id="CorelCorpID_2">
     <odm name="Name" value="avec vrille" type="0"/>
    </metadata>
   </path>
   <path id="support" fill="#EF7F1A" stroke="#2A2A29" stroke-width="7.62" d="M5637 15944c78,-879 -206,-13974 128,-13342 373,513 298,9211 473,13329 27,639 -601,525 -601,13z"/>
   <polygon id="sol" fill="#FEFEFE" stroke="black" stroke-width="7.62" stroke-linejoin="bevel" points="391,16370 9732,16370 "/>
   <g id="tige">
    <path fill="#009846" stroke="#2A2A29" stroke-width="7.62" d="M3916 16324c211,-1080 372,-1418 889,-1838 1159,-838 1880,-757 1369,-1778 0,-154 -45,-413 14,-412 363,290 646,960 255,1500 -179,269 -1139,614 -1471,947 -316,316 -577,874 -577,1589 -154,130 -478,44 -478,-7z"/>
    <path fill="#009846" stroke="#2A2A29" stroke-width="7.62" d="M5586 12273c-333,-486 -662,-653 -697,-1420 -54,-1175 2490,-1751 1158,-2872 -19,-109 -39,-103 13,-352 1190,1189 750,1334 -537,2686 -590,620 -266,1139 64,1484 122,-83 51,601 0,473z"/>
    <path fill="#009846" stroke="#2A2A29" stroke-width="7.62" d="M5605 7572c-1076,-1052 -332,-1862 499,-2565 414,-350 839,-2858 2181,-1868 1013,748 533,1205 1516,1017 -179,217 -544,211 -723,211 -461,-77 -529,-945 -1247,-1100 -854,-164 -874,1703 -1976,2354 -256,256 -652,633 -262,1413 13,26 -13,461 13,538z"/>
   </g>
   <g id="fleur">
     <metadata id="CorelCorpID_3">
      <odm name="Name" value="fleur" type="0"/>
     </metadata>
    <g id="fleur2">
     <line fill="none" stroke="#CCCCCC" stroke-width="7.62" x1="9551" y1="5118" x2="8909" y2= "4233" />
     <g>
      <line fill="none" stroke="#CCCCCC" stroke-width="7.62" x1="9483" y1="4861" x2="9644" y2= "5398" />
      <line fill="none" stroke="#CCCCCC" stroke-width="7.62" x1="9269" y1="5214" x2="9862" y2= "5037" />
      <line fill="none" stroke="#CCCCCC" stroke-width="7.62" x1="9434" y1="5374" x2="9703" y2= "4875" />
      <line fill="none" stroke="#CCCCCC" stroke-width="7.62" x1="9309" y1="4999" x2="9812" y2= "5271" />
     </g>
    </g>
    <g id="fleur1">
     <line fill="none" stroke="#CCCCCC" stroke-width="7.62" x1="8918" y1="3706" x2="10164" y2= "3462" />
     <g>
      <line fill="none" stroke="#CCCCCC" stroke-width="7.62" x1="10235" y1="3150" x2="10159" y2= "3752" />
      <line fill="none" stroke="#CCCCCC" stroke-width="7.62" x1="9868" y1="3402" x2="10533" y2= "3495" />
      <line fill="none" stroke="#CCCCCC" stroke-width="7.62" x1="9961" y1="3634" x2="10446" y2= "3263" />
      <line fill="none" stroke="#CCCCCC" stroke-width="7.62" x1="10002" y1="3207" x2="10381" y2= "3703" />
     </g>
    </g>
    <g id="fleur3">
     <line fill="none" stroke="#CCCCCC" stroke-width="7.62" x1="10218" y1="4127" x2="9383" y2= "4185" />
     <g>
      <line fill="none" stroke="#CCCCCC" stroke-width="7.62" x1="10224" y1="3981" x2="10224" y2= "4317" />
      <line fill="none" stroke="#CCCCCC" stroke-width="7.62" x1="10040" y1="4147" x2="10412" y2= "4147" />
      <line fill="none" stroke="#CCCCCC" stroke-width="7.62" x1="10108" y1="4268" x2="10349" y2= "4027" />
      <line fill="none" stroke="#CCCCCC" stroke-width="7.62" x1="10100" y1="4030" x2="10343" y2= "4273" />
     </g>
    </g>
   </g>
   <g id="feuilles">
     <metadata id="CorelCorpID_4">
      <odm name="Name" value="feuilles" type="0"/>
     </metadata>
    <g id="feuille15">
     <path fill="#A0CC6E" stroke="#CCCCCC" stroke-width="7.62" d="M8287 3640c-417,100 -140,693 -6,760 207,-86 346,-841 6,-760z"/>
     <path fill="#A0CC6E" stroke="#CCCCCC" stroke-width="7.62" d="M8262 3483c-17,90 -55,615 24,797 -16,-115 -35,-316 -25,-405 6,-61 34,-277 49,-351 2,-9 -32,-61 -48,-42z"/>
    </g>
    <g id="feuille2">
     <path fill="#A0CC6E" stroke="#CCCCCC" stroke-width="7.62" d="M6482 13869c89,-643 1024,-311 1144,-119 -99,324 -1217,643 -1144,119z"/>
     <path fill="#A0CC6E" stroke="#CCCCCC" stroke-width="7.62" d="M6438 13827c132,-39 724,-145 1009,-53 -176,-8 -481,-6 -614,21 -91,18 -365,71 -473,104 -13,4 51,-45 78,-72z"/>
    </g>
    <g id="feuille3">
     <path fill="#A0CC6E" stroke="#CCCCCC" stroke-width="7.62" d="M6388 12220c-473,-525 458,-1072 703,-1037 200,310 -317,1465 -703,1037z"/>
     <path fill="#A0CC6E" stroke="#CCCCCC" stroke-width="7.62" d="M6255 12340c60,-138 454,-817 731,-991 -130,141 -343,397 -413,527 -48,89 -213,408 -261,522 -6,14 -53,-16 -56,-58z"/>
    </g>
    <g id="feuille1">
     <path fill="#A0CC6E" stroke="#CCCCCC" stroke-width="7.62" d="M5230 14228c-648,-38 -392,-996 -209,-1131 331,73 738,1162 209,1131z"/>
     <path fill="#A0CC6E" stroke="#CCCCCC" stroke-width="7.62" d="M5191 14274c-49,-129 -202,-710 -133,-1002 6,176 32,480 69,610 26,89 99,358 141,464 5,13 -49,-47 -78,-72z"/>
    </g>
    <g id="feuille18">
     <path fill="#A0CC6E" stroke="#CCCCCC" stroke-width="7.62" d="M9378 4073c-227,-369 395,-596 539,-548 87,209 -354,849 -539,548z"/>
     <path fill="#A0CC6E" stroke="#CCCCCC" stroke-width="7.62" d="M9269 4149c52,-76 380,-462 567,-536 -94,71 -251,201 -308,272 -39,48 -174,223 -215,286 -5,8 -46,4 -44,-22z"/>
    </g>
    <g id="feuille4">
     <path fill="#A0CC6E" stroke="#CCCCCC" stroke-width="7.62" d="M4845 11507c-325,628 -1165,-52 -1218,-293 219,-297 1483,-219 1218,293z"/>
     <path fill="#A0CC6E" stroke="#CCCCCC" stroke-width="7.62" d="M5083 11610c-150,-8 -1005,-158 -1264,-356 178,72 492,181 638,201 100,14 444,54 568,59 16,1 14,58 58,96z"/>
    </g>
    <g id="feuille5">
     <path fill="#A0CC6E" stroke="#CCCCCC" stroke-width="7.62" d="M5620 10450c64,-704 1098,-392 1239,-189 -91,358 -1291,763 -1239,189z"/>
     <path fill="#A0CC6E" stroke="#CCCCCC" stroke-width="7.62" d="M5439 10427c142,-49 911,-216 1226,-131 -192,1 -524,19 -667,55 -98,25 -511,131 -628,173 -14,5 40,-66 68,-97z"/>
    </g>
    <g id="feuille7">
     <path fill="#A0CC6E" stroke="#CCCCCC" stroke-width="7.62" d="M6948 8548c-157,-689 923,-712 1120,-562 24,368 -992,1124 -1120,562z"/>
     <path fill="#A0CC6E" stroke="#CCCCCC" stroke-width="7.62" d="M6774 8588c120,-91 795,-492 1121,-508 -182,60 -493,179 -618,258 -85,54 -388,272 -486,348 -12,9 -35,-59 -18,-98z"/>
    </g>
    <g id="feuille6">
     <path fill="#A0CC6E" stroke="#CCCCCC" stroke-width="7.62" d="M5445 9579c-705,-41 -426,-1085 -228,-1232 360,80 804,1266 228,1232z"/>
     <path fill="#A0CC6E" stroke="#CCCCCC" stroke-width="7.62" d="M5450 9831c-54,-140 -267,-974 -192,-1292 7,192 35,523 76,665 28,97 135,440 181,555 5,14 -28,78 -65,72z"/>
    </g>
    <g id="feuille9">
     <path fill="#A0CC6E" stroke="#CCCCCC" stroke-width="7.62" d="M5578 6300c-114,-697 965,-653 1153,-492 1,369 -1060,1061 -1153,492z"/>
     <path fill="#A0CC6E" stroke="#CCCCCC" stroke-width="7.62" d="M5401 6328c125,-83 824,-442 1150,-438 -186,48 -503,148 -632,219 -89,48 -406,241 -508,311 -12,8 -29,-55 -10,-92z"/>
    </g>
    <g id="feuille8">
     <path fill="#A0CC6E" stroke="#CCCCCC" stroke-width="7.62" d="M5310 7448c-5,-707 -1061,-482 -1219,-292 61,364 1222,869 1219,292z"/>
     <path fill="#A0CC6E" stroke="#CCCCCC" stroke-width="7.62" d="M5489 7447c-137,-61 -886,-298 -1207,-239 191,17 521,62 660,110 95,33 506,164 618,216 13,6 -46,-54 -71,-87z"/>
    </g>
    <g id="feuille10">
     <path fill="#A0CC6E" stroke="#CCCCCC" stroke-width="7.62" d="M5481 5308c473,-525 -458,-1072 -703,-1037 -200,310 317,1466 703,1037z"/>
     <path fill="#A0CC6E" stroke="#CCCCCC" stroke-width="7.62" d="M5614 5428c-60,-138 -454,-817 -731,-991 130,141 343,397 413,527 48,89 213,408 261,522 6,14 53,-16 56,-58z"/>
    </g>
    <g id="feuille12">
     <path fill="#A0CC6E" stroke="#CCCCCC" stroke-width="7.62" d="M6736 3405c547,-167 129,-935 -55,-1014 -269,131 -392,1150 55,1014z"/>
     <path fill="#A0CC6E" stroke="#CCCCCC" stroke-width="7.62" d="M6805 3617c-39,-115 -192,-810 -122,-1065 0,155 13,425 43,541 20,79 104,358 131,454 4,14 -24,66 -51,70z"/>
    </g>
    <g id="feuille17">
     <path fill="#A0CC6E" stroke="#CCCCCC" stroke-width="7.62" d="M8813 4313c-476,192 -42,845 129,900 229,-138 259,-1057 -129,-900z"/>
     <path fill="#A0CC6E" stroke="#CCCCCC" stroke-width="7.62" d="M8761 4138c-4,109 39,732 165,933 -40,-133 -97,-368 -102,-475 -3,-73 -6,-308 -1,-398 1,-11 -46,-86 -62,-60z"/>
    </g>
    <g id="feuille19">
     <path fill="#A0CC6E" stroke="#CCCCCC" stroke-width="7.62" d="M9684 4366c-127,414 533,477 660,394 31,-224 -557,-732 -660,-394z"/>
     <path fill="#A0CC6E" stroke="#CCCCCC" stroke-width="7.62" d="M9548 4314c69,61 496,356 695,380 -109,-45 -293,-132 -366,-185 -50,-37 -224,-172 -281,-222 -7,-6 -57,4 -48,28z"/>
    </g>
    <g id="feuille14">
     <path fill="#A0CC6E" stroke="#CCCCCC" stroke-width="7.62" d="M8030 2809c-337,-404 372,-784 553,-751 140,236 -278,1081 -553,751z"/>
     <path fill="#A0CC6E" stroke="#CCCCCC" stroke-width="7.62" d="M7909 2917c49,-101 380,-617 591,-738 -101,101 -266,285 -322,380 -38,65 -170,297 -209,381 -5,10 -58,9 -59,-22z"/>
    </g>
    <g id="feuille11">
     <path fill="#A0CC6E" stroke="#CCCCCC" stroke-width="7.62" d="M6763 4692c87,-536 862,-241 959,-78 -89,269 -1030,515 -959,78z"/>
     <path fill="#A0CC6E" stroke="#CCCCCC" stroke-width="7.62" d="M6628 4670c111,-30 707,-121 944,-39 -147,-10 -402,-14 -514,6 -76,14 -366,75 -457,101 -11,3 4,-46 27,-68z"/>
    </g>
    <g id="feuille16">
     <path fill="#A0CC6E" stroke="#CCCCCC" stroke-width="7.62" d="M8951 3565c-191,-564 712,-677 890,-569 52,307 -734,1029 -890,569z"/>
     <path fill="#A0CC6E" stroke="#CCCCCC" stroke-width="7.62" d="M8793 3616c93,-86 640,-485 912,-527 -148,66 -398,193 -495,270 -67,53 -301,245 -376,317 -9,9 -51,-27 -40,-61z"/>
    </g>
    <g id="feuille13">
     <path fill="#A0CC6E" stroke="#CCCCCC" stroke-width="7.62" d="M7496 3461c-347,386 337,787 516,762 147,-228 -233,-1076 -516,-762z"/>
     <path fill="#A0CC6E" stroke="#CCCCCC" stroke-width="7.62" d="M7399 3374c44,101 333,600 536,727 -95,-104 -252,-291 -303,-387 -35,-65 -156,-300 -192,-383 -4,-10 -39,12 -41,43z"/>
    </g>
   </g>
   <g id="fruit">
     <metadata id="CorelCorpID_5">
      <odm name="Name" value="fruit" type="0"/>
     </metadata>
    <g id="fruit1">
     <line fill="none" stroke="#CCCCCC" stroke-width="7.62" x1="5610" y1="5442" x2="6051" y2= "4396" />
     <path fill="#DE8585" stroke="#CCCCCC" stroke-width="7.62" d="M6174 3945c141,0 256,115 256,256 0,141 -115,256 -256,256 -141,0 -256,-115 -256,-256 0,-141 115,-256 256,-256z"/>
    </g>
    <g id="fruit3">
     <line fill="none" stroke="#CCCCCC" stroke-width="7.62" x1="6858" y1="3540" x2="7348" y2= "2516" />
     <path fill="#DE8585" stroke="#CCCCCC" stroke-width="7.62" d="M7428 2010c141,0 256,115 256,256 0,141 -115,256 -256,256 -141,0 -256,-115 -256,-256 0,-141 115,-256 256,-256z"/>
    </g>
    <g id="fruit5">
     <line fill="none" stroke="#CCCCCC" stroke-width="7.62" x1="7954" y1="2964" x2="8742" y2= "2402" />
     <path fill="#DE8585" stroke="#CCCCCC" stroke-width="7.62" d="M8886 2128c94,0 171,77 171,171 0,94 -77,171 -171,171 -94,0 -171,-77 -171,-171 0,-94 77,-171 171,-171z"/>
    </g>
    <g id="fruit4">
     <line fill="none" stroke="#CCCCCC" stroke-width="7.62" x1="8001" y1="3654" x2="7463" y2= "3348" />
     <path fill="#DE8585" stroke="#CCCCCC" stroke-width="7.62" d="M8138 3489c94,0 171,77 171,171 0,94 -77,171 -171,171 -94,0 -171,-77 -171,-171 0,-94 77,-171 171,-171z"/>
    </g>
    <g id="fruit2">
     <line fill="none" stroke="#CCCCCC" stroke-width="7.62" x1="6688" y1="4661" x2="7223" y2= "4209" />
     <path fill="#DE8585" stroke="#CCCCCC" stroke-width="7.62" d="M7439 3791c141,0 256,115 256,256 0,141 -115,256 -256,256 -141,0 -256,-115 -256,-256 0,-141 115,-256 256,-256z"/>
    </g>
   </g>
   <g id="vrille">
     <metadata id="CorelCorpID_6">
      <odm name="Name" value="vrille" type="0"/>
     </metadata>
    <path fill="#00843E" stroke="black" stroke-width="7.62" d="M5361 7070c-27,32 -2,112 -27,138 -100,-24 -722,-1024 -832,-1165 -72,-81 -294,-374 -468,-424 -780,-187 -539,1140 -78,450 101,-213 -121,-446 -110,-466 18,-2 105,2 127,4 62,45 191,300 89,520 -110,240 -321,376 -535,225 -246,-345 -47,-689 73,-782 254,-171 585,-154 846,136 86,55 902,1368 917,1364z"/>
    <path fill="#00843E" stroke="#2A2A29" stroke-width="7.62" d="M3035 5273c-110,-69 -470,-101 -583,-73 -243,61 -241,320 -162,448 -118,-643 698,-297 705,-311 11,-22 17,-35 40,-65z"/>
    <path fill="#00843E" stroke="black" stroke-width="7.62" d="M3783 5482c-66,-85 -146,-230 -317,-292 -735,-231 -599,983 -214,499 120,-151 -139,-290 -261,-352 1,-2 29,-43 44,-65 137,18 439,136 317,414 -87,262 -341,240 -429,167 -283,-236 -13,-659 113,-743 265,-153 558,-76 798,231 33,55 59,102 58,119 -34,5 -66,10 -109,22z"/>
   </g>
   <path fill="#00843E" stroke="black" stroke-width="7.62" d="M6688 4503c-38,18 7,62 -26,75 -82,-63 -241,-1230 -284,-1403 -33,-103 -115,-462 -254,-578 -652,-501 -948,941 -180,382 -93,376 -516,291 -582,80 -84,-416 238,-648 386,-684 301,-53 550,120 670,491 56,86 257,1635 272,1638z"/>
   <g id="vrille_0">
     <metadata id="CorelCorpID_7">
      <odm name="Name" value="vrille" type="0"/>
     </metadata>
    <path fill="#00843E" stroke="black" stroke-width="7.62" d="M6641 8355c27,32 2,112 27,138 100,-24 722,-1024 832,-1165 72,-81 294,-374 468,-424 780,-187 539,1140 78,450 -101,-213 121,-446 110,-466 -18,-2 -105,2 -127,4 -62,45 -191,300 -89,520 110,240 321,376 535,225 246,-345 47,-689 -73,-782 -254,-171 -585,-154 -846,136 -86,55 -902,1368 -917,1364z"/>
    <path fill="#00843E" stroke="#2A2A29" stroke-width="7.62" d="M8966 6558c110,-69 470,-101 583,-73 243,61 241,320 162,448 118,-643 -698,-297 -705,-311 -11,-22 -17,-35 -40,-65z"/>
    <path fill="#00843E" stroke="black" stroke-width="7.62" d="M8218 6768c66,-85 146,-230 317,-292 735,-231 599,983 214,499 -120,-151 139,-290 261,-352 -1,-2 -29,-43 -44,-65 -137,18 -439,136 -317,414 87,262 341,240 429,167 283,-236 13,-659 -113,-743 -265,-153 -558,-76 -798,231 -33,55 -59,102 -58,119 34,5 66,10 109,22z"/>
   </g>
   <g id="vrille_1">
     <metadata id="CorelCorpID_8">
      <odm name="Name" value="vrille" type="0"/>
     </metadata>
    <path fill="#00843E" stroke="black" stroke-width="7.62" d="M5046 11223c-27,32 -2,112 -27,138 -100,-24 -722,-1024 -832,-1165 -72,-81 -294,-374 -468,-424 -780,-187 -539,1140 -78,450 101,-213 -121,-446 -110,-466 18,-2 105,2 127,4 62,45 191,300 89,520 -110,240 -321,376 -535,225 -246,-345 -47,-689 73,-782 254,-171 585,-154 846,136 86,55 902,1368 917,1364z"/>
    <path fill="#00843E" stroke="#2A2A29" stroke-width="7.62" d="M2720 9426c-110,-69 -470,-101 -583,-73 -243,61 -241,320 -162,448 -118,-643 698,-297 705,-311 11,-22 17,-35 40,-65z"/>
    <path fill="#00843E" stroke="black" stroke-width="7.62" d="M3468 9636c-66,-85 -146,-230 -317,-292 -735,-231 -599,983 -214,499 120,-151 -139,-290 -261,-352 1,-2 29,-43 44,-65 137,18 439,136 317,414 -87,262 -341,240 -429,167 -283,-236 -13,-659 113,-743 265,-153 558,-76 798,231 33,55 59,102 58,119 -34,5 -66,10 -109,22z"/>
   </g>
  </g>
  <g id="Liane_sans" onclick="parent.replacechar('Liane_sans')" onmousemove="parent.showtooltip('Liane_sans','Liane sans vrille')" onmouseout="parent.hidetooltip('Liane_sans')" cursor="pointer">
    <metadata id="CorelCorpID_9">
     <odm name="Name" value="sans vrille" type="0"/>
    </metadata>
   <path id="racine_2" fill="none" stroke="#C4C5C5" stroke-width="7.62" stroke-linejoin="bevel" d="M16312 16377l-83 1c-777,75 -782,51 -1481,132 685,49 1112,0 1437,39 58,155 44,117 117,252 102,-165 34,-141 126,-252 573,-44 903,-15 1486,-29 -1083,-95 -1199,-119 -1602,-142z">
    <metadata id="CorelCorpID_10">
     <odm name="Name" value="sans vrille" type="0"/>
    </metadata>
   </path>
   <polygon id="sol_3" fill="#FEFEFE" stroke="black" stroke-width="7.62" stroke-linejoin="bevel" points="12583,16370 21924,16370 "/>
   <path id="support_4" fill="#EF7F1A" stroke="#2A2A29" stroke-width="7.62" d="M17829 15944c78,-879 -206,-13974 128,-13342 373,513 298,9211 473,13329 27,639 -601,525 -601,13z"/>
   <g id="tige_5">
    <path fill="#009846" stroke="#2A2A29" stroke-width="7.62" d="M16108 16324c211,-1080 372,-1418 889,-1838 1159,-838 1880,-757 1369,-1778 0,-154 -45,-413 14,-412 363,290 646,960 255,1500 -179,269 -1139,614 -1471,947 -316,316 -577,874 -577,1589 -154,130 -478,44 -478,-7z"/>
    <path fill="#009846" stroke="#2A2A29" stroke-width="7.62" d="M17778 12273c-333,-486 -662,-653 -697,-1420 -54,-1175 2490,-1751 1158,-2872 -19,-109 -39,-103 13,-352 1190,1189 750,1334 -537,2686 -590,620 -266,1139 64,1484 122,-83 51,601 0,473z"/>
    <path fill="#009846" stroke="#2A2A29" stroke-width="7.62" d="M17797 7572c-1076,-1052 -332,-1862 499,-2565 414,-350 839,-2858 2181,-1868 1013,748 533,1205 1516,1017 -179,217 -544,211 -723,211 -461,-77 -529,-945 -1247,-1100 -854,-164 -874,1703 -1976,2354 -256,256 -652,633 -262,1413 13,26 -13,461 13,538z"/>
   </g>
   <g id="fleur_6">
     <metadata id="CorelCorpID_11">
      <odm name="Name" value="fleur" type="0"/>
     </metadata>
    <g id="fleur2_7">
     <line fill="none" stroke="#CCCCCC" stroke-width="7.62" x1="21686" y1="5100" x2="21044" y2= "4216" />
     <g>
      <line fill="none" stroke="#CCCCCC" stroke-width="7.62" x1="21618" y1="4844" x2="21778" y2= "5381" />
      <line fill="none" stroke="#CCCCCC" stroke-width="7.62" x1="21403" y1="5197" x2="21997" y2= "5020" />
      <line fill="none" stroke="#CCCCCC" stroke-width="7.62" x1="21568" y1="5357" x2="21837" y2= "4858" />
      <line fill="none" stroke="#CCCCCC" stroke-width="7.62" x1="21443" y1="4982" x2="21947" y2= "5254" />
     </g>
    </g>
    <g id="fleur1_8">
     <line fill="none" stroke="#CCCCCC" stroke-width="7.62" x1="21053" y1="3689" x2="22298" y2= "3445" />
     <g>
      <line fill="none" stroke="#CCCCCC" stroke-width="7.62" x1="22369" y1="3133" x2="22293" y2= "3735" />
      <line fill="none" stroke="#CCCCCC" stroke-width="7.62" x1="22002" y1="3385" x2="22667" y2= "3477" />
      <line fill="none" stroke="#CCCCCC" stroke-width="7.62" x1="22096" y1="3617" x2="22581" y2= "3246" />
      <line fill="none" stroke="#CCCCCC" stroke-width="7.62" x1="22136" y1="3190" x2="22516" y2= "3686" />
     </g>
    </g>
    <g id="fleur3_9">
     <line fill="none" stroke="#CCCCCC" stroke-width="7.62" x1="22352" y1="4110" x2="21518" y2= "4168" />
     <g>
      <line fill="none" stroke="#CCCCCC" stroke-width="7.62" x1="22359" y1="3964" x2="22359" y2= "4300" />
      <line fill="none" stroke="#CCCCCC" stroke-width="7.62" x1="22175" y1="4130" x2="22547" y2= "4130" />
      <line fill="none" stroke="#CCCCCC" stroke-width="7.62" x1="22242" y1="4251" x2="22483" y2= "4010" />
      <line fill="none" stroke="#CCCCCC" stroke-width="7.62" x1="22235" y1="4013" x2="22478" y2= "4256" />
     </g>
    </g>
   </g>
   <g id="feuilles_10">
     <metadata id="CorelCorpID_12">
      <odm name="Name" value="feuilles" type="0"/>
     </metadata>
    <g id="feuille15_11">
     <path fill="#A0CC6E" stroke="#CCCCCC" stroke-width="7.62" d="M20479 3640c-417,100 -140,693 -6,760 207,-86 346,-841 6,-760z"/>
     <path fill="#A0CC6E" stroke="#CCCCCC" stroke-width="7.62" d="M20454 3483c-17,90 -55,615 24,797 -16,-115 -35,-316 -25,-405 6,-61 34,-277 49,-351 2,-9 -32,-61 -48,-42z"/>
    </g>
    <g id="feuille2_12">
     <path fill="#A0CC6E" stroke="#CCCCCC" stroke-width="7.62" d="M18674 13869c89,-643 1024,-311 1144,-119 -99,324 -1217,643 -1144,119z"/>
     <path fill="#A0CC6E" stroke="#CCCCCC" stroke-width="7.62" d="M18630 13827c132,-39 724,-145 1009,-53 -176,-8 -481,-6 -614,21 -91,18 -365,71 -473,104 -13,4 51,-45 78,-72z"/>
    </g>
    <g id="feuille3_13">
     <path fill="#A0CC6E" stroke="#CCCCCC" stroke-width="7.62" d="M18580 12220c-473,-525 458,-1072 703,-1037 200,310 -317,1465 -703,1037z"/>
     <path fill="#A0CC6E" stroke="#CCCCCC" stroke-width="7.62" d="M18447 12340c60,-138 454,-817 731,-991 -130,141 -343,397 -413,527 -48,89 -213,408 -261,522 -6,14 -53,-16 -56,-58z"/>
    </g>
    <g id="feuille1_14">
     <path fill="#A0CC6E" stroke="#CCCCCC" stroke-width="7.62" d="M17422 14228c-648,-38 -392,-996 -209,-1131 331,73 738,1162 209,1131z"/>
     <path fill="#A0CC6E" stroke="#CCCCCC" stroke-width="7.62" d="M17383 14274c-49,-129 -202,-710 -133,-1002 6,176 32,480 69,610 26,89 99,358 141,464 5,13 -49,-47 -78,-72z"/>
    </g>
    <g id="feuille18_15">
     <path fill="#A0CC6E" stroke="#CCCCCC" stroke-width="7.62" d="M21570 4073c-227,-369 395,-596 539,-548 87,209 -354,849 -539,548z"/>
     <path fill="#A0CC6E" stroke="#CCCCCC" stroke-width="7.62" d="M21461 4149c52,-76 380,-462 567,-536 -94,71 -251,201 -308,272 -39,48 -174,223 -215,286 -5,8 -46,4 -44,-22z"/>
    </g>
    <g id="feuille4_16">
     <path fill="#A0CC6E" stroke="#CCCCCC" stroke-width="7.62" d="M17037 11507c-325,628 -1165,-52 -1218,-293 219,-297 1483,-219 1218,293z"/>
     <path fill="#A0CC6E" stroke="#CCCCCC" stroke-width="7.62" d="M17275 11610c-150,-8 -1005,-158 -1264,-356 178,72 492,181 638,201 100,14 444,54 568,59 16,1 14,58 58,96z"/>
    </g>
    <g id="feuille5_17">
     <path fill="#A0CC6E" stroke="#CCCCCC" stroke-width="7.62" d="M17812 10450c64,-704 1098,-392 1239,-189 -91,358 -1291,763 -1239,189z"/>
     <path fill="#A0CC6E" stroke="#CCCCCC" stroke-width="7.62" d="M17631 10427c142,-49 911,-216 1226,-131 -192,1 -524,19 -667,55 -98,25 -511,131 -628,173 -14,5 40,-66 68,-97z"/>
    </g>
    <g id="feuille7_18">
     <path fill="#A0CC6E" stroke="#CCCCCC" stroke-width="7.62" d="M19140 8548c-157,-689 923,-712 1120,-562 24,368 -992,1124 -1120,562z"/>
     <path fill="#A0CC6E" stroke="#CCCCCC" stroke-width="7.62" d="M18966 8588c120,-91 795,-492 1121,-508 -182,60 -493,179 -618,258 -85,54 -388,272 -486,348 -12,9 -35,-59 -18,-98z"/>
    </g>
    <g id="feuille6_19">
     <path fill="#A0CC6E" stroke="#CCCCCC" stroke-width="7.62" d="M17637 9579c-705,-41 -426,-1085 -228,-1232 360,80 804,1266 228,1232z"/>
     <path fill="#A0CC6E" stroke="#CCCCCC" stroke-width="7.62" d="M17642 9831c-54,-140 -267,-974 -192,-1292 7,192 35,523 76,665 28,97 135,440 181,555 5,14 -28,78 -65,72z"/>
    </g>
    <g id="feuille9_20">
     <path fill="#A0CC6E" stroke="#CCCCCC" stroke-width="7.62" d="M17770 6300c-114,-697 965,-653 1153,-492 1,369 -1060,1061 -1153,492z"/>
     <path fill="#A0CC6E" stroke="#CCCCCC" stroke-width="7.62" d="M17593 6328c125,-83 824,-442 1150,-438 -186,48 -503,148 -632,219 -89,48 -406,241 -508,311 -12,8 -29,-55 -10,-92z"/>
    </g>
    <g id="feuille8_21">
     <path fill="#A0CC6E" stroke="#CCCCCC" stroke-width="7.62" d="M17502 7448c-5,-707 -1061,-482 -1219,-292 61,364 1222,869 1219,292z"/>
     <path fill="#A0CC6E" stroke="#CCCCCC" stroke-width="7.62" d="M17681 7447c-137,-61 -886,-298 -1207,-239 191,17 521,62 660,110 95,33 506,164 618,216 13,6 -46,-54 -71,-87z"/>
    </g>
    <g id="feuille10_22">
     <path fill="#A0CC6E" stroke="#CCCCCC" stroke-width="7.62" d="M17673 5308c473,-525 -458,-1072 -703,-1037 -200,310 317,1466 703,1037z"/>
     <path fill="#A0CC6E" stroke="#CCCCCC" stroke-width="7.62" d="M17806 5428c-60,-138 -454,-817 -731,-991 130,141 343,397 413,527 48,89 213,408 261,522 6,14 53,-16 56,-58z"/>
    </g>
    <g id="feuille12_23">
     <path fill="#A0CC6E" stroke="#CCCCCC" stroke-width="7.62" d="M18928 3405c547,-167 129,-935 -55,-1014 -269,131 -392,1150 55,1014z"/>
     <path fill="#A0CC6E" stroke="#CCCCCC" stroke-width="7.62" d="M18997 3617c-39,-115 -192,-810 -122,-1065 0,155 13,425 43,541 20,79 104,358 131,454 4,14 -24,66 -51,70z"/>
    </g>
    <g id="feuille17_24">
     <path fill="#A0CC6E" stroke="#CCCCCC" stroke-width="7.62" d="M21005 4313c-476,192 -42,845 129,900 229,-138 259,-1057 -129,-900z"/>
     <path fill="#A0CC6E" stroke="#CCCCCC" stroke-width="7.62" d="M20953 4138c-4,109 39,732 165,933 -40,-133 -97,-368 -102,-475 -3,-73 -6,-308 -1,-398 1,-11 -46,-86 -62,-60z"/>
    </g>
    <g id="feuille19_25">
     <path fill="#A0CC6E" stroke="#CCCCCC" stroke-width="7.62" d="M21876 4366c-127,414 533,477 660,394 31,-224 -557,-732 -660,-394z"/>
     <path fill="#A0CC6E" stroke="#CCCCCC" stroke-width="7.62" d="M21740 4314c69,61 496,356 695,380 -109,-45 -293,-132 -366,-185 -50,-37 -224,-172 -281,-222 -7,-6 -57,4 -48,28z"/>
    </g>
    <g id="feuille14_26">
     <path fill="#A0CC6E" stroke="#CCCCCC" stroke-width="7.62" d="M20222 2809c-337,-404 372,-784 553,-751 140,236 -278,1081 -553,751z"/>
     <path fill="#A0CC6E" stroke="#CCCCCC" stroke-width="7.62" d="M20101 2917c49,-101 380,-617 591,-738 -101,101 -266,285 -322,380 -38,65 -170,297 -209,381 -5,10 -58,9 -59,-22z"/>
    </g>
    <g id="feuille11_27">
     <path fill="#A0CC6E" stroke="#CCCCCC" stroke-width="7.62" d="M18955 4692c87,-536 862,-241 959,-78 -89,269 -1030,515 -959,78z"/>
     <path fill="#A0CC6E" stroke="#CCCCCC" stroke-width="7.62" d="M18820 4670c111,-30 707,-121 944,-39 -147,-10 -402,-14 -514,6 -76,14 -366,75 -457,101 -11,3 4,-46 27,-68z"/>
    </g>
    <g id="feuille16_28">
     <path fill="#A0CC6E" stroke="#CCCCCC" stroke-width="7.62" d="M21143 3565c-191,-564 712,-677 890,-569 52,307 -734,1029 -890,569z"/>
     <path fill="#A0CC6E" stroke="#CCCCCC" stroke-width="7.62" d="M20985 3616c93,-86 640,-485 912,-527 -148,66 -398,193 -495,270 -67,53 -301,245 -376,317 -9,9 -51,-27 -40,-61z"/>
    </g>
    <g id="feuille13_29">
     <path fill="#A0CC6E" stroke="#CCCCCC" stroke-width="7.62" d="M19688 3461c-347,386 337,787 516,762 147,-228 -233,-1076 -516,-762z"/>
     <path fill="#A0CC6E" stroke="#CCCCCC" stroke-width="7.62" d="M19591 3374c44,101 333,600 536,727 -95,-104 -252,-291 -303,-387 -35,-65 -156,-300 -192,-383 -4,-10 -39,12 -41,43z"/>
    </g>
   </g>
   <g id="fruit_30">
     <metadata id="CorelCorpID_13">
      <odm name="Name" value="fruit" type="0"/>
     </metadata>
    <g id="fruit1_31">
     <line fill="none" stroke="#CCCCCC" stroke-width="7.62" x1="17802" y1="5442" x2="18243" y2= "4396" />
     <path fill="#DE8585" stroke="#CCCCCC" stroke-width="7.62" d="M18366 3945c141,0 256,115 256,256 0,141 -115,256 -256,256 -141,0 -256,-115 -256,-256 0,-141 115,-256 256,-256z"/>
    </g>
    <g id="fruit3_32">
     <line fill="none" stroke="#CCCCCC" stroke-width="7.62" x1="19050" y1="3540" x2="19540" y2= "2516" />
     <path fill="#DE8585" stroke="#CCCCCC" stroke-width="7.62" d="M19620 2010c141,0 256,115 256,256 0,141 -115,256 -256,256 -141,0 -256,-115 -256,-256 0,-141 115,-256 256,-256z"/>
    </g>
    <g id="fruit5_33">
     <line fill="none" stroke="#CCCCCC" stroke-width="7.62" x1="20146" y1="2964" x2="20934" y2= "2402" />
     <path fill="#DE8585" stroke="#CCCCCC" stroke-width="7.62" d="M21078 2128c94,0 171,77 171,171 0,94 -77,171 -171,171 -94,0 -171,-77 -171,-171 0,-94 77,-171 171,-171z"/>
    </g>
    <g id="fruit4_34">
     <line fill="none" stroke="#CCCCCC" stroke-width="7.62" x1="20193" y1="3654" x2="19655" y2= "3348" />
     <path fill="#DE8585" stroke="#CCCCCC" stroke-width="7.62" d="M20330 3489c94,0 171,77 171,171 0,94 -77,171 -171,171 -94,0 -171,-77 -171,-171 0,-94 77,-171 171,-171z"/>
    </g>
    <g id="fruit2_35">
     <line fill="none" stroke="#CCCCCC" stroke-width="7.62" x1="18880" y1="4661" x2="19415" y2= "4209" />
     <path fill="#DE8585" stroke="#CCCCCC" stroke-width="7.62" d="M19631 3791c141,0 256,115 256,256 0,141 -115,256 -256,256 -141,0 -256,-115 -256,-256 0,-141 115,-256 256,-256z"/>
    </g>
   </g>
  </g>
 </g>
<image xlink:href="tick.gif" id="imgtick" x="-10000" y="-10000" width="1500" height="1500"/>
<rect id="recttooltip" x="-10000" y="-10000" width="5500" height="600" fill-opacity="0.85" pointer-events="none"/>
<text id="textboxid" x="-10000" y="-10000" pointer-events="none"> </text>
</a>
</svg>
