<?xml version="1.0" encoding="UTF-8"?>
<!DOCTYPE svg PUBLIC "-//W3C//DTD SVG 1.1//EN" "http://www.w3.org/Graphics/SVG/1.1/DTD/svg11.dtd">
<!-- Creator: CorelDRAW X5 -->
<svg xmlns="http://www.w3.org/2000/svg" xml:space="preserve" shape-rendering="geometricPrecision" text-rendering="geometricPrecision" image-rendering="optimizeQuality" fill-rule="evenodd" clip-rule="evenodd"
viewBox="0 0 24000 18000"
 xmlns:xlink="http://www.w3.org/1999/xlink">
<a>
 <g id="Layer_x0020_1">
  <metadata id="CorelCorpID_0Corel-Layer"/>
  <g id="Sans_feuilles" onclick="parent.replacechar('Sans_feuilles')" onmousemove="parent.showtooltip('Sans_feuilles','Feuilles absentes ou r&#233;duites')" onmouseout="parent.hidetooltip('Sans_feuilles')" cursor="pointer">
    <metadata id="CorelCorpID_1">
     <odm name="Name" value="sans feuille" type="0"/>
    </metadata>
   <g id="fsdeeuille">
     <metadata id="CorelCorpID_2">
      <odm name="Name" value="feuille" type="0"/>
     </metadata>
    <path fill="#E5E5E5" stroke="black" stroke-width="7.62" d="M17978 15348c-2358,291 -675,-3981 99,-4336 1157,525 1928,4625 -99,4336z"/>
    <path fill="#CCCCCC" stroke="black" stroke-width="7.62" d="M17827 16019c-81,-511 -260,-3985 253,-5002 -365,1651 -284,3336 -4,4966 9,50 -161,151 -249,36z"/>
   </g>
   <g id="croix">
     <metadata id="CorelCorpID_3">
      <odm name="Name" value="croix" type="0"/>
     </metadata>
    <path fill="red" stroke="#7F7F7F" stroke-width="7.62" d="M16528 12269l5 -6c47,-55 131,-62 185,-14l2601 2330c110,99 76,191 -59,81l-2718 -2206c-56,-45 -61,-130 -14,-185z"/>
    <path fill="red" stroke="#7F7F7F" stroke-width="7.62" d="M16648 14686l5 6c47,55 131,62 185,14l2601 -2330c110,-99 76,-191 -59,-81l-2718 2206c-56,45 -61,130 -14,185z"/>
   </g>
  </g>
  <g id="Monocotyledone" onclick="parent.replacechar('Monocotyledone')" onmousemove="parent.showtooltip('Monocotyledone','Feuilles de gramin&#233;e ou de cyperac&#233;e')" onmouseout="parent.hidetooltip('Monocotyledone')" cursor="pointer">
   <g id="limbe">
    <g id="limbe_0">
     <path id="limbe_1" fill="#00923F" stroke="black" stroke-width="7.62" stroke-linejoin="bevel" d="M5020 15718l-381 71c-680,-779 2090,-4461 2828,-5541 -1081,1842 -1703,4460 -2447,5469z"/>
     <path fill="none" stroke="black" stroke-width="7.62" d="M7361 10413c-939,1446 -2109,3876 -2373,4662"/>
     <path fill="none" stroke="black" stroke-width="7.62" d="M7261 10560c-939,1446 -1999,3307 -2263,4093"/>
     <path fill="none" stroke="black" stroke-width="7.62" d="M7326 10462c-957,1440 -2005,3069 -2300,3800"/>
     <path fill="none" stroke="black" stroke-width="7.62" d="M7295 10514c-829,1566 -2077,5042 -2307,4943"/>
    </g>
    <path fill="none" stroke="black" stroke-width="7.62" d="M7311 10492c-1036,1657 -2064,4709 -2277,4671"/>
   </g>
   <g id="tige">
    <path fill="#00923F" stroke="black" stroke-width="7.62" stroke-linejoin="bevel" d="M4965 13676l-314 -13c-14,732 -3,2163 0,2924 22,94 106,209 150,204 73,6 131,-94 163,-146 5,-871 13,-2171 1,-2969z"/>
    <path fill="#B2B2B2" stroke="black" stroke-width="7.62" stroke-linejoin="bevel" d="M4809 13753c-98,0 -158,-42 -158,-89 0,-52 60,-89 158,-89 99,0 157,46 157,97 0,47 -57,81 -157,81z"/>
   </g>
   <g id="gaine">
    <path fill="#00923F" stroke="black" stroke-width="7.62" stroke-linejoin="bevel" d="M4555 15615c14,121 81,152 164,189 2,77 27,876 13,1031 -90,-31 -145,-100 -155,-214 -7,-299 26,-727 -18,-962l-4 -43z"/>
    <path fill="#00923F" stroke="black" stroke-width="7.62" stroke-linejoin="bevel" d="M5113 15599c-23,239 -11,738 -10,1019 -23,134 -71,177 -197,215 -40,-147 -33,-910 -22,-1031 58,-31 199,-143 233,-246l-4 42z"/>
   </g>
  </g>
  <g id="Composee" onclick="parent.replacechar('Composee')" onmousemove="parent.showtooltip('Composee','Feuilles compos&#233;es')" onmouseout="parent.hidetooltip('Composee')" cursor="pointer">
    <metadata id="CorelCorpID_4">
     <odm name="Name" value="comp" type="0"/>
    </metadata>
   <g id="fceuille_comp">
    <path id="rachis" fill="#00923F" stroke="black" stroke-width="7.62" stroke-linejoin="bevel" d="M16806 3536l65 0c62,1331 -1,2491 180,3941 -31,17 -185,-387 -366,-157 232,-279 116,-3372 122,-3784z">
     <metadata id="CorelCorpID_5">
      <odm name="Name" value="comp" type="0"/>
     </metadata>
    </path>
    <g id="fol2">
     <path fill="#00923F" stroke="black" stroke-width="7.62" d="M15332 5804c224,599 715,1233 1420,815 27,-853 -922,-846 -1420,-815z"/>
     <polygon fill="#00923F" stroke="black" stroke-width="7.62" stroke-linejoin="bevel" points="15342,5810 16805,6655 "/>
    </g>
    <g id="fol4">
     <path fill="#00923F" stroke="black" stroke-width="7.62" d="M15303 4810c231,620 739,1274 1468,842 28,-882 -953,-874 -1468,-842z"/>
     <polygon fill="#00923F" stroke="black" stroke-width="7.62" stroke-linejoin="bevel" points="15312,4816 16825,5690 "/>
    </g>
    <g id="fol6">
     <path fill="#00923F" stroke="black" stroke-width="7.62" d="M15451 3923c208,557 664,1145 1319,757 25,-793 -857,-786 -1319,-757z"/>
     <polygon fill="#00923F" stroke="black" stroke-width="7.62" stroke-linejoin="bevel" points="15460,3928 16819,4713 "/>
    </g>
    <g id="fol8">
     <path fill="#00923F" stroke="black" stroke-width="7.62" d="M15695 3231c170,455 542,935 1077,618 20,-647 -700,-642 -1077,-618z"/>
     <polygon fill="#00923F" stroke="black" stroke-width="7.62" stroke-linejoin="bevel" points="15703,3235 16813,3877 "/>
    </g>
    <g id="fol7">
     <path fill="#00923F" stroke="black" stroke-width="7.62" d="M18000 3222c-170,455 -542,935 -1077,618 -20,-647 700,-642 1077,-618z"/>
     <polygon fill="#00923F" stroke="black" stroke-width="7.62" stroke-linejoin="bevel" points="17993,3226 16883,3867 "/>
    </g>
    <g id="fol5">
     <path fill="#00923F" stroke="black" stroke-width="7.62" d="M18268 3909c-208,557 -664,1145 -1319,757 -25,-793 857,-786 1319,-757z"/>
     <polygon fill="#00923F" stroke="black" stroke-width="7.62" stroke-linejoin="bevel" points="18259,3914 16900,4700 "/>
    </g>
    <g id="fol3">
     <path fill="#00923F" stroke="black" stroke-width="7.62" d="M18449 4794c-231,620 -739,1274 -1468,842 -28,-882 953,-874 1468,-842z"/>
     <polygon fill="#00923F" stroke="black" stroke-width="7.62" stroke-linejoin="bevel" points="18439,4799 16927,5673 "/>
    </g>
    <g id="fol1">
     <path fill="#00923F" stroke="black" stroke-width="7.62" d="M18442 5791c-224,599 -715,1233 -1420,815 -27,-853 922,-846 1420,-815z"/>
     <polygon fill="#00923F" stroke="black" stroke-width="7.62" stroke-linejoin="bevel" points="18433,5796 16970,6642 "/>
    </g>
    <g id="fol9">
     <path fill="#00923F" stroke="black" stroke-width="7.62" d="M16851 1836c-410,492 -716,1232 -4,1637 754,-400 277,-1220 4,-1637z"/>
     <polygon fill="#00923F" stroke="black" stroke-width="7.62" stroke-linejoin="bevel" points="16852,1847 16843,3537 "/>
    </g>
   </g>
   <g id="Medicago">
    <path fill="#00923F" stroke="black" stroke-width="7.62" stroke-linejoin="bevel" d="M14210 2091l41 0c31,439 10,701 102,1296 -20,6 -78,-114 -190,-29 111,-196 44,-1126 48,-1267z"/>
    <path fill="#00923F" stroke="black" stroke-width="7.62" d="M13445 2094c179,250 487,483 761,200 -95,-399 -534,-277 -761,-200z"/>
    <path fill="#00923F" stroke="black" stroke-width="7.62" d="M15035 2098c-182,248 -492,477 -763,192 99,-398 537,-271 763,-192z"/>
    <path fill="#00923F" stroke="black" stroke-width="7.62" d="M14234 1047c-260,312 -454,781 -2,1038 478,-253 176,-773 2,-1038z"/>
   </g>
   <g id="Mimosa">
     <metadata id="CorelCorpID_6">
      <odm name="Name" value="Mimosa" type="0"/>
     </metadata>
    <g>
     <polygon fill="#00923F" stroke="black" stroke-width="7.62" stroke-linejoin="bevel" points="21726,6111 20751,7796 "/>
     <g>
      <ellipse fill="#00923F" stroke="black" stroke-width="7.62" transform="matrix(-0.620331 0.163931 0.181007 0.684949 21605.6 6055.78)" rx="78" ry="193"/>
      <line fill="none" stroke="black" stroke-width="7.62" x1="21573" y1="5943" x2="21655" y2= "6235" />
     </g>
     <g>
      <ellipse fill="#00923F" stroke="black" stroke-width="7.62" transform="matrix(-0.620331 0.163931 0.181007 0.684949 21492 6249.86)" rx="78" ry="193"/>
      <line fill="none" stroke="black" stroke-width="7.62" x1="21460" y1="6137" x2="21541" y2= "6429" />
     </g>
     <g>
      <ellipse fill="#00923F" stroke="black" stroke-width="7.62" transform="matrix(-0.620331 0.163931 0.181007 0.684949 21375.5 6454.29)" rx="78" ry="193"/>
      <line fill="none" stroke="black" stroke-width="7.62" x1="21343" y1="6341" x2="21425" y2= "6633" />
     </g>
     <g>
      <ellipse fill="#00923F" stroke="black" stroke-width="7.62" transform="matrix(-0.620331 0.163931 0.181007 0.684949 21273.8 6627.44)" rx="78" ry="193"/>
      <line fill="none" stroke="black" stroke-width="7.62" x1="21242" y1="6514" x2="21323" y2= "6806" />
     </g>
     <g>
      <ellipse fill="#00923F" stroke="black" stroke-width="7.62" transform="matrix(-0.620331 0.163931 0.181007 0.684949 21159.5 6824.17)" rx="78" ry="193"/>
      <line fill="none" stroke="black" stroke-width="7.62" x1="21127" y1="6711" x2="21209" y2= "7003" />
     </g>
     <g>
      <ellipse fill="#00923F" stroke="black" stroke-width="7.62" transform="matrix(-0.620331 0.163931 0.181007 0.684949 21054.2 7011.29)" rx="78" ry="193"/>
      <line fill="none" stroke="black" stroke-width="7.62" x1="21022" y1="6898" x2="21104" y2= "7190" />
     </g>
     <g>
      <ellipse fill="#00923F" stroke="black" stroke-width="7.62" transform="matrix(-0.620331 0.163931 0.181007 0.684949 20939.6 7206.68)" rx="78" ry="193"/>
      <line fill="none" stroke="black" stroke-width="7.62" x1="20907" y1="7094" x2="20989" y2= "7385" />
     </g>
     <g>
      <ellipse fill="#00923F" stroke="black" stroke-width="7.62" transform="matrix(-0.620331 0.163931 0.181007 0.684949 20846.2 7367.49)" rx="78" ry="193"/>
      <line fill="none" stroke="black" stroke-width="7.62" x1="20814" y1="7254" x2="20896" y2= "7546" />
     </g>
     <g>
      <ellipse fill="#00923F" stroke="black" stroke-width="7.62" transform="matrix(-0.155444 -0.622512 -0.687357 0.171636 21834.2 6187.66)" rx="78" ry="193"/>
      <line fill="none" stroke="black" stroke-width="7.62" x1="21948" y1="6157" x2="21655" y2= "6235" />
     </g>
     <g>
      <ellipse fill="#00923F" stroke="black" stroke-width="7.62" transform="matrix(-0.155444 -0.622512 -0.687357 0.171636 21720.6 6382.92)" rx="78" ry="193"/>
      <line fill="none" stroke="black" stroke-width="7.62" x1="21834" y1="6352" x2="21541" y2= "6430" />
     </g>
     <g>
      <ellipse fill="#00923F" stroke="black" stroke-width="7.62" transform="matrix(-0.155444 -0.622512 -0.687357 0.171636 21605 6585.15)" rx="78" ry="193"/>
      <line fill="none" stroke="black" stroke-width="7.62" x1="21719" y1="6554" x2="21426" y2= "6632" />
     </g>
     <g>
      <ellipse fill="#00923F" stroke="black" stroke-width="7.62" transform="matrix(-0.155444 -0.622512 -0.687357 0.171636 21502.5 6760.22)" rx="78" ry="193"/>
      <line fill="none" stroke="black" stroke-width="7.62" x1="21616" y1="6730" x2="21323" y2= "6807" />
     </g>
     <g>
      <ellipse fill="#00923F" stroke="black" stroke-width="7.62" transform="matrix(-0.155444 -0.622512 -0.687357 0.171636 21389 6958.35)" rx="78" ry="193"/>
      <line fill="none" stroke="black" stroke-width="7.62" x1="21503" y1="6928" x2="21210" y2= "7005" />
     </g>
     <g>
      <ellipse fill="#00923F" stroke="black" stroke-width="7.62" transform="matrix(-0.155444 -0.622512 -0.687357 0.171636 21282.8 7141.46)" rx="78" ry="193"/>
      <line fill="none" stroke="black" stroke-width="7.62" x1="21396" y1="7111" x2="21103" y2= "7189" />
     </g>
     <g>
      <ellipse fill="#00923F" stroke="black" stroke-width="7.62" transform="matrix(-0.155444 -0.622512 -0.687357 0.171636 21168.1 7337.65)" rx="78" ry="193"/>
      <line fill="none" stroke="black" stroke-width="7.62" x1="21282" y1="7307" x2="20989" y2= "7385" />
     </g>
     <g>
      <ellipse fill="#00923F" stroke="black" stroke-width="7.62" transform="matrix(-0.155444 -0.622512 -0.687357 0.171636 21076.6 7498.62)" rx="78" ry="193"/>
      <line fill="none" stroke="black" stroke-width="7.62" x1="21190" y1="7468" x2="20897" y2= "7546" />
     </g>
    </g>
    <g>
     <polygon fill="#00923F" stroke="black" stroke-width="7.62" stroke-linejoin="bevel" points="22377,7211 20766,8019 "/>
     <g>
      <ellipse fill="#00923F" stroke="black" stroke-width="7.62" transform="matrix(-0.60845 -0.20365 -0.224864 0.67183 22306.4 7099.17)" rx="78" ry="193"/>
      <line fill="none" stroke="black" stroke-width="7.62" x1="22342" y1="6987" x2="22250" y2= "7276" />
     </g>
     <g>
      <ellipse fill="#00923F" stroke="black" stroke-width="7.62" transform="matrix(-0.60845 -0.20365 -0.224864 0.67183 22104.9 7198.96)" rx="78" ry="193"/>
      <line fill="none" stroke="black" stroke-width="7.62" x1="22140" y1="7087" x2="22048" y2= "7376" />
     </g>
     <g>
      <ellipse fill="#00923F" stroke="black" stroke-width="7.62" transform="matrix(-0.60845 -0.20365 -0.224864 0.67183 21895.3 7305.83)" rx="78" ry="193"/>
      <line fill="none" stroke="black" stroke-width="7.62" x1="21931" y1="7194" x2="21838" y2= "7482" />
     </g>
     <g>
      <ellipse fill="#00923F" stroke="black" stroke-width="7.62" transform="matrix(-0.60845 -0.20365 -0.224864 0.67183 21715.2 7394.68)" rx="78" ry="193"/>
      <line fill="none" stroke="black" stroke-width="7.62" x1="21750" y1="7282" x2="21658" y2= "7571" />
     </g>
     <g>
      <ellipse fill="#00923F" stroke="black" stroke-width="7.62" transform="matrix(-0.60845 -0.20365 -0.224864 0.67183 21511.7 7496.35)" rx="78" ry="193"/>
      <line fill="none" stroke="black" stroke-width="7.62" x1="21547" y1="7384" x2="21455" y2= "7673" />
     </g>
     <g>
      <ellipse fill="#00923F" stroke="black" stroke-width="7.62" transform="matrix(-0.60845 -0.20365 -0.224864 0.67183 21320.9 7594.93)" rx="78" ry="193"/>
      <line fill="none" stroke="black" stroke-width="7.62" x1="21356" y1="7483" x2="21264" y2= "7772" />
     </g>
     <g>
      <ellipse fill="#00923F" stroke="black" stroke-width="7.62" transform="matrix(-0.60845 -0.20365 -0.224864 0.67183 21117.8 7695.27)" rx="78" ry="193"/>
      <line fill="none" stroke="black" stroke-width="7.62" x1="21153" y1="7583" x2="21061" y2= "7872" />
     </g>
     <g>
      <ellipse fill="#00923F" stroke="black" stroke-width="7.62" transform="matrix(-0.60845 -0.20365 -0.224864 0.67183 20951.5 7778.37)" rx="78" ry="193"/>
      <line fill="none" stroke="black" stroke-width="7.62" x1="20987" y1="7666" x2="20895" y2= "7955" />
     </g>
     <g>
      <ellipse fill="#00923F" stroke="black" stroke-width="7.62" transform="matrix(0.21194 -0.605612 -0.668696 -0.234017 22425.1 7334.91)" rx="78" ry="193"/>
      <line fill="none" stroke="black" stroke-width="7.62" x1="22537" y1="7372" x2="22249" y2= "7276" />
     </g>
     <g>
      <ellipse fill="#00923F" stroke="black" stroke-width="7.62" transform="matrix(0.21194 -0.605612 -0.668696 -0.234017 22222.9 7435.71)" rx="78" ry="193"/>
      <line fill="none" stroke="black" stroke-width="7.62" x1="22335" y1="7472" x2="22047" y2= "7376" />
     </g>
     <g>
      <ellipse fill="#00923F" stroke="black" stroke-width="7.62" transform="matrix(0.21194 -0.605612 -0.668696 -0.234017 22015.3 7541.25)" rx="78" ry="193"/>
      <line fill="none" stroke="black" stroke-width="7.62" x1="22127" y1="7578" x2="21839" y2= "7482" />
     </g>
     <g>
      <ellipse fill="#00923F" stroke="black" stroke-width="7.62" transform="matrix(0.21194 -0.605612 -0.668696 -0.234017 21833.4 7631.25)" rx="78" ry="193"/>
      <line fill="none" stroke="black" stroke-width="7.62" x1="21945" y1="7668" x2="21658" y2= "7572" />
     </g>
     <g>
      <ellipse fill="#00923F" stroke="black" stroke-width="7.62" transform="matrix(0.21194 -0.605612 -0.668696 -0.234017 21629.8 7734.51)" rx="78" ry="193"/>
      <line fill="none" stroke="black" stroke-width="7.62" x1="21742" y1="7771" x2="21454" y2= "7675" />
     </g>
     <g>
      <ellipse fill="#00923F" stroke="black" stroke-width="7.62" transform="matrix(0.21194 -0.605612 -0.668696 -0.234017 21440.5 7829.24)" rx="78" ry="193"/>
      <line fill="none" stroke="black" stroke-width="7.62" x1="21552" y1="7866" x2="21265" y2= "7770" />
     </g>
     <g>
      <ellipse fill="#00923F" stroke="black" stroke-width="7.62" transform="matrix(0.21194 -0.605612 -0.668696 -0.234017 21236.9 7930.22)" rx="78" ry="193"/>
      <line fill="none" stroke="black" stroke-width="7.62" x1="21349" y1="7967" x2="21061" y2= "7871" />
     </g>
     <g>
      <ellipse fill="#00923F" stroke="black" stroke-width="7.62" transform="matrix(0.21194 -0.605612 -0.668696 -0.234017 21072 8014.49)" rx="78" ry="193"/>
      <line fill="none" stroke="black" stroke-width="7.62" x1="21184" y1="8051" x2="20896" y2= "7955" />
     </g>
    </g>
    <polygon fill="#00923F" stroke="black" stroke-width="7.62" stroke-linejoin="bevel" points="20746,7730 20789,7730 20789,8470 20746,8470 "/>
    <g>
     <polygon fill="#00923F" stroke="black" stroke-width="7.62" stroke-linejoin="bevel" points="19125,7194 20736,8002 "/>
     <g>
      <ellipse fill="#00923F" stroke="black" stroke-width="7.62" transform="matrix(0.60845 -0.20365 0.224864 0.67183 19195.9 7081.4)" rx="78" ry="193"/>
      <line fill="none" stroke="black" stroke-width="7.62" x1="19161" y1="6969" x2="19253" y2= "7258" />
     </g>
     <g>
      <ellipse fill="#00923F" stroke="black" stroke-width="7.62" transform="matrix(0.60845 -0.20365 0.224864 0.67183 19397.4 7181.2)" rx="78" ry="193"/>
      <line fill="none" stroke="black" stroke-width="7.62" x1="19362" y1="7069" x2="19454" y2= "7358" />
     </g>
     <g>
      <ellipse fill="#00923F" stroke="black" stroke-width="7.62" transform="matrix(0.60845 -0.20365 0.224864 0.67183 19607 7288.07)" rx="78" ry="193"/>
      <line fill="none" stroke="black" stroke-width="7.62" x1="19572" y1="7176" x2="19664" y2= "7465" />
     </g>
     <g>
      <ellipse fill="#00923F" stroke="black" stroke-width="7.62" transform="matrix(0.60845 -0.20365 0.224864 0.67183 19787.1 7376.92)" rx="78" ry="193"/>
      <line fill="none" stroke="black" stroke-width="7.62" x1="19752" y1="7265" x2="19844" y2= "7554" />
     </g>
     <g>
      <ellipse fill="#00923F" stroke="black" stroke-width="7.62" transform="matrix(0.60845 -0.20365 0.224864 0.67183 19990.6 7478.59)" rx="78" ry="193"/>
      <line fill="none" stroke="black" stroke-width="7.62" x1="19955" y1="7366" x2="20047" y2= "7655" />
     </g>
     <g>
      <ellipse fill="#00923F" stroke="black" stroke-width="7.62" transform="matrix(0.60845 -0.20365 0.224864 0.67183 20181.4 7577.17)" rx="78" ry="193"/>
      <line fill="none" stroke="black" stroke-width="7.62" x1="20146" y1="7465" x2="20238" y2= "7754" />
     </g>
     <g>
      <ellipse fill="#00923F" stroke="black" stroke-width="7.62" transform="matrix(0.60845 -0.20365 0.224864 0.67183 20384.5 7677.51)" rx="78" ry="193"/>
      <line fill="none" stroke="black" stroke-width="7.62" x1="20349" y1="7565" x2="20441" y2= "7854" />
     </g>
     <g>
      <ellipse fill="#00923F" stroke="black" stroke-width="7.62" transform="matrix(0.60845 -0.20365 0.224864 0.67183 20550.8 7760.61)" rx="78" ry="193"/>
      <line fill="none" stroke="black" stroke-width="7.62" x1="20516" y1="7648" x2="20608" y2= "7937" />
     </g>
     <g>
      <ellipse fill="#00923F" stroke="black" stroke-width="7.62" transform="matrix(-0.21194 -0.605612 0.668696 -0.234017 19077.2 7317.15)" rx="78" ry="193"/>
      <line fill="none" stroke="black" stroke-width="7.62" x1="18965" y1="7354" x2="19253" y2= "7258" />
     </g>
     <g>
      <ellipse fill="#00923F" stroke="black" stroke-width="7.62" transform="matrix(-0.21194 -0.605612 0.668696 -0.234017 19279.4 7417.94)" rx="78" ry="193"/>
      <line fill="none" stroke="black" stroke-width="7.62" x1="19168" y1="7455" x2="19455" y2= "7359" />
     </g>
     <g>
      <ellipse fill="#00923F" stroke="black" stroke-width="7.62" transform="matrix(-0.21194 -0.605612 0.668696 -0.234017 19487 7523.49)" rx="78" ry="193"/>
      <line fill="none" stroke="black" stroke-width="7.62" x1="19375" y1="7560" x2="19663" y2= "7464" />
     </g>
     <g>
      <ellipse fill="#00923F" stroke="black" stroke-width="7.62" transform="matrix(-0.21194 -0.605612 0.668696 -0.234017 19668.9 7613.49)" rx="78" ry="193"/>
      <line fill="none" stroke="black" stroke-width="7.62" x1="19557" y1="7650" x2="19845" y2= "7554" />
     </g>
     <g>
      <ellipse fill="#00923F" stroke="black" stroke-width="7.62" transform="matrix(-0.21194 -0.605612 0.668696 -0.234017 19872.5 7716.74)" rx="78" ry="193"/>
      <line fill="none" stroke="black" stroke-width="7.62" x1="19761" y1="7754" x2="20048" y2= "7658" />
     </g>
     <g>
      <ellipse fill="#00923F" stroke="black" stroke-width="7.62" transform="matrix(-0.21194 -0.605612 0.668696 -0.234017 20061.8 7811.48)" rx="78" ry="193"/>
      <line fill="none" stroke="black" stroke-width="7.62" x1="19950" y1="7848" x2="20238" y2= "7752" />
     </g>
     <g>
      <ellipse fill="#00923F" stroke="black" stroke-width="7.62" transform="matrix(-0.21194 -0.605612 0.668696 -0.234017 20265.4 7912.46)" rx="78" ry="193"/>
      <line fill="none" stroke="black" stroke-width="7.62" x1="20154" y1="7949" x2="20441" y2= "7853" />
     </g>
     <g>
      <ellipse fill="#00923F" stroke="black" stroke-width="7.62" transform="matrix(-0.21194 -0.605612 0.668696 -0.234017 20430.3 7996.73)" rx="78" ry="193"/>
      <line fill="none" stroke="black" stroke-width="7.62" x1="20318" y1="8033" x2="20606" y2= "7938" />
     </g>
    </g>
    <g>
     <polygon fill="#00923F" stroke="black" stroke-width="7.62" stroke-linejoin="bevel" points="19750,6064 20751,7734 "/>
     <g>
      <ellipse fill="#00923F" stroke="black" stroke-width="7.62" transform="matrix(0.622787 0.154338 -0.170415 0.687661 19870.1 6007.06)" rx="78" ry="193"/>
      <line fill="none" stroke="black" stroke-width="7.62" x1="19901" y1="5893" x2="19823" y2= "6187" />
     </g>
     <g>
      <ellipse fill="#00923F" stroke="black" stroke-width="7.62" transform="matrix(0.622787 0.154338 -0.170415 0.687661 19986.7 6199.36)" rx="78" ry="193"/>
      <line fill="none" stroke="black" stroke-width="7.62" x1="20017" y1="6086" x2="19940" y2= "6379" />
     </g>
     <g>
      <ellipse fill="#00923F" stroke="black" stroke-width="7.62" transform="matrix(0.622787 0.154338 -0.170415 0.687661 20106.3 6401.96)" rx="78" ry="193"/>
      <line fill="none" stroke="black" stroke-width="7.62" x1="20137" y1="6288" x2="20060" y2= "6582" />
     </g>
     <g>
      <ellipse fill="#00923F" stroke="black" stroke-width="7.62" transform="matrix(0.622787 0.154338 -0.170415 0.687661 20210.7 6573.52)" rx="78" ry="193"/>
      <line fill="none" stroke="black" stroke-width="7.62" x1="20241" y1="6460" x2="20164" y2= "6753" />
     </g>
     <g>
      <ellipse fill="#00923F" stroke="black" stroke-width="7.62" transform="matrix(0.622787 0.154338 -0.170415 0.687661 20328 6768.47)" rx="78" ry="193"/>
      <line fill="none" stroke="black" stroke-width="7.62" x1="20358" y1="6655" x2="20281" y2= "6948" />
     </g>
     <g>
      <ellipse fill="#00923F" stroke="black" stroke-width="7.62" transform="matrix(0.622787 0.154338 -0.170415 0.687661 20436.1 6953.94)" rx="78" ry="193"/>
      <line fill="none" stroke="black" stroke-width="7.62" x1="20467" y1="6840" x2="20389" y2= "7133" />
     </g>
     <g>
      <ellipse fill="#00923F" stroke="black" stroke-width="7.62" transform="matrix(0.622787 0.154338 -0.170415 0.687661 20553.8 7147.53)" rx="78" ry="193"/>
      <line fill="none" stroke="black" stroke-width="7.62" x1="20584" y1="7034" x2="20507" y2= "7327" />
     </g>
     <g>
      <ellipse fill="#00923F" stroke="black" stroke-width="7.62" transform="matrix(0.622787 0.154338 -0.170415 0.687661 20649.6 7306.89)" rx="78" ry="193"/>
      <line fill="none" stroke="black" stroke-width="7.62" x1="20680" y1="7193" x2="20603" y2= "7486" />
     </g>
     <g>
      <ellipse fill="#00923F" stroke="black" stroke-width="7.62" transform="matrix(0.145819 -0.624837 0.689924 0.161009 19643.5 6142.44)" rx="78" ry="193"/>
      <line fill="none" stroke="black" stroke-width="7.62" x1="19529" y1="6114" x2="19824" y2= "6187" />
     </g>
     <g>
      <ellipse fill="#00923F" stroke="black" stroke-width="7.62" transform="matrix(0.145819 -0.624837 0.689924 0.161009 19760.2 6335.92)" rx="78" ry="193"/>
      <line fill="none" stroke="black" stroke-width="7.62" x1="19646" y1="6307" x2="19940" y2= "6380" />
     </g>
     <g>
      <ellipse fill="#00923F" stroke="black" stroke-width="7.62" transform="matrix(0.145819 -0.624837 0.689924 0.161009 19878.8 6536.35)" rx="78" ry="193"/>
      <line fill="none" stroke="black" stroke-width="7.62" x1="19765" y1="6507" x2="20059" y2= "6581" />
     </g>
     <g>
      <ellipse fill="#00923F" stroke="black" stroke-width="7.62" transform="matrix(0.145819 -0.624837 0.689924 0.161009 19984.1 6709.82)" rx="78" ry="193"/>
      <line fill="none" stroke="black" stroke-width="7.62" x1="19870" y1="6681" x2="20164" y2= "6754" />
     </g>
     <g>
      <ellipse fill="#00923F" stroke="black" stroke-width="7.62" transform="matrix(0.145819 -0.624837 0.689924 0.161009 20100.6 6906.17)" rx="78" ry="193"/>
      <line fill="none" stroke="black" stroke-width="7.62" x1="19987" y1="6877" x2="20281" y2= "6950" />
     </g>
     <g>
      <ellipse fill="#00923F" stroke="black" stroke-width="7.62" transform="matrix(0.145819 -0.624837 0.689924 0.161009 20209.6 7087.62)" rx="78" ry="193"/>
      <line fill="none" stroke="black" stroke-width="7.62" x1="20096" y1="7059" x2="20390" y2= "7132" />
     </g>
     <g>
      <ellipse fill="#00923F" stroke="black" stroke-width="7.62" transform="matrix(0.145819 -0.624837 0.689924 0.161009 20327.3 7282.02)" rx="78" ry="193"/>
      <line fill="none" stroke="black" stroke-width="7.62" x1="20213" y1="7253" x2="20507" y2= "7326" />
     </g>
     <g>
      <ellipse fill="#00923F" stroke="black" stroke-width="7.62" transform="matrix(0.145819 -0.624837 0.689924 0.161009 20421.3 7441.56)" rx="78" ry="193"/>
      <line fill="none" stroke="black" stroke-width="7.62" x1="20307" y1="7413" x2="20601" y2= "7486" />
     </g>
    </g>
   </g>
  </g>
  <g id="Simple" onclick="parent.replacechar('Simple')" onmousemove="parent.showtooltip('Simple','Feuilles larges')" onmouseout="parent.hidetooltip('Simple')" cursor="pointer">
    <metadata id="CorelCorpID_7">
     <odm name="Name" value="simple" type="0"/>
    </metadata>
   <path id="simple1" fill="#00923F" stroke="black" stroke-width="7.62" d="M3739 3018c0,-152 6,-338 6,-477 -85,-287 -683,-274 -629,-562 303,0 -60,-414 142,-414 215,0 152,-291 253,-392 88,-88 149,-330 253,-468 33,-27 138,264 215,322 179,144 92,518 401,581 115,127 -136,133 -136,284 0,51 198,59 205,76 112,260 -509,302 -638,575 -32,93 35,550 -73,474z">
    <metadata id="CorelCorpID_8">
     <odm name="Name" value="simple" type="0"/>
    </metadata>
   </path>
   <path id="simple2" fill="#00923F" stroke="black" stroke-width="7.62" d="M8099 2998c17,36 55,25 59,-6 -44,-225 248,-214 115,-297 0,-63 198,-88 261,-88 85,0 -134,-96 -201,-164 -47,-47 98,-103 170,-126 69,-22 259,-88 226,-101 -94,-38 72,-101 157,-201 -239,66 -585,-11 -396,-154 52,-40 88,104 88,-19 0,-50 91,-101 138,-79 94,47 -101,-60 38,-104 195,-63 57,-16 -13,-16 -60,0 -330,38 -330,-66 0,-145 135,-327 223,-462 37,-57 -228,42 -316,90 -97,-62 -122,-392 -166,-496 -113,79 -66,620 -233,453 -60,-60 -35,123 -113,85 -107,-53 -164,-242 -22,41 53,107 113,160 113,286 0,19 -249,41 -384,-25 -148,-72 40,35 66,82 38,70 201,104 204,245 120,-38 179,142 101,142 -101,0 -396,-53 -387,-50 123,41 308,346 315,346 207,0 264,182 35,182 -242,50 72,-16 72,160 0,2 89,-72 50,110 60,-37 110,104 127,231z"/>
   <path id="simple5" fill="#00923F" stroke="black" stroke-width="7.62" d="M8178 8813c-339,-1052 -226,-2299 19,-2484 205,198 288,1314 -19,2484z"/>
   <path id="simple3" fill="#00923F" stroke="black" stroke-width="7.62" stroke-linecap="round" stroke-linejoin="bevel" d="M3827 8805l-50 -2c16,-491 -17,-616 -66,-623 -106,-19 -168,160 -309,126 -68,-39 158,-122 23,-143 -72,-11 -171,17 -230,-108 0,0 0,0 0,0 179,-112 206,0 340,51 123,47 45,-75 -56,-127 -154,-80 -221,68 -362,-111 62,-63 185,50 237,-4 -54,-142 -271,-69 -213,-306 138,-67 146,179 206,155 26,-10 -15,-113 28,-128 123,17 16,216 100,272 126,85 -66,-153 87,-224 172,160 -58,291 63,376 39,28 164,171 140,-170 -16,-113 -138,-61 -138,-202 80,-42 67,48 100,66 68,27 59,-107 33,-139 -100,-116 -308,-27 -333,-211 54,-22 215,83 174,2 -40,-120 -184,-31 -107,-244 187,18 150,154 217,272 92,132 60,-276 56,-290 -132,-55 -290,8 -256,-259 135,-28 136,175 264,127 19,-47 -3,-99 -39,-126 -266,-186 -15,-95 37,-87 -7,-62 -166,-59 -173,-205 108,-53 115,91 173,91 57,-39 -116,-197 25,-296 56,17 65,102 51,154 -56,216 27,-17 111,-6 20,91 -149,159 -107,191 19,10 72,-64 107,-69 61,96 -133,118 -130,190 40,49 42,-46 97,-44 17,114 -137,93 -99,197 54,146 15,-189 247,-154 52,168 -50,196 -155,252 -76,46 -94,393 -60,419 87,0 5,-288 271,-322 114,186 -151,246 -106,283 34,28 98,-96 190,-33 9,158 -349,65 -359,283 6,51 -47,251 -2,345 29,46 164,-42 138,-219 -19,-79 -59,-148 36,-215 84,83 41,120 24,208 -2,12 13,89 24,36 125,-113 -63,-345 295,-352 64,110 -11,199 -111,236 -80,38 -112,138 -27,83 101,-66 114,-150 226,-69 47,120 -540,140 -472,326 9,24 141,-145 272,-164 18,69 -112,109 -52,144 101,-33 92,-84 196,-26 -15,223 -308,11 -343,103 -22,56 131,29 126,141 -97,53 -156,-107 -254,-117 -114,-11 -86,606 -102,665z"/>
   <g id="simple0">
    <path fill="#00923F" stroke="black" stroke-width="7.62" d="M6024 6488c-2643,327 -757,-4462 111,-4859 1296,588 2160,5184 -111,4859z"/>
    <path fill="#00923F" stroke="black" stroke-width="7.62" d="M5854 7240c-91,-573 -291,-4466 284,-5606 -409,1851 -318,3738 -4,5566 10,56 -181,169 -280,41z"/>
   </g>
  </g>
 </g>
<image xlink:href="tick.gif" id="imgtick" x="-10000" y="-10000" width="1500" height="1500"/>
<rect id="recttooltip" x="-10000" y="-10000" width="5500" height="600" fill-opacity="0.85" pointer-events="none"/>
<text id="textboxid" x="-10000" y="-10000" pointer-events="none"> </text>
</a></svg>
