<?xml version="1.0" encoding="UTF-8"?>
<!DOCTYPE svg PUBLIC "-//W3C//DTD SVG 1.1//EN" "http://www.w3.org/Graphics/SVG/1.1/DTD/svg11.dtd">
<!-- Creator: CorelDRAW X5 -->
<svg xmlns="http://www.w3.org/2000/svg" xml:space="preserve" shape-rendering="geometricPrecision" text-rendering="geometricPrecision" image-rendering="optimizeQuality" fill-rule="evenodd" clip-rule="evenodd"
viewBox="0 0 24000 18000"
 xmlns:xlink="http://www.w3.org/1999/xlink">
<a>
 <g id="Layer_x0020_1">
  <metadata id="CorelCorpID_0Corel-Layer"/>
  <g id="lamina_linear" onclick="parent.replacechar('lamina_linear')" onmousemove="parent.showtooltip('lamina_linear','Limbe linéaire')" onmouseout="parent.hidetooltip('lamina_linear')" cursor="pointer">
   <rect id="nervure" fill="#00923F" stroke="black" stroke-width="7.62" x="1057" y="7139" width="57" height="1276">
    <metadata id="CorelCorpID_1">
     <odm name="Name" value="nervure" type="0"/>
    </metadata>
   </rect>
   <path id="limbe" fill="#00923F" stroke="black" stroke-width="7.62" d="M1093 1061c300,800 200,1324 200,3001 0,1676 100,2901 -202,3086 -299,-185 -199,-1086 -199,-3086 0,-2000 -100,-2100 200,-3001z">
    <metadata id="CorelCorpID_2">
     <odm name="Name" value="limbe" type="0"/>
    </metadata>
   </path>
   <path id="nervure_0" fill="#00923F" stroke="black" stroke-width="7.62" d="M1069 1073c13,-4 25,-5 38,-3l0 6072c-13,2 -26,3 -38,0 0,-5242 0,-4039 0,-6068z">
    <metadata id="CorelCorpID_3">
     <odm name="Name" value="nervure" type="0"/>
    </metadata>
   </path>
  </g>
  <g id="lamina_elliptic" onclick="parent.replacechar('lamina_elliptic')" onmousemove="parent.showtooltip('lamina_elliptic','Limbe elliptique')" onmouseout="parent.hidetooltip('lamina_elliptic')" cursor="pointer">
    <metadata id="CorelCorpID_4">
     <odm name="Name" value="elliptic" type="0"/>
    </metadata>
   <rect id="nervure_1" fill="#00923F" stroke="black" stroke-width="7.62" x="5166" y="7183" width="57" height="1232">
    <metadata id="CorelCorpID_5">
     <odm name="Name" value="nervure" type="0"/>
    </metadata>
   </rect>
   <path id="forme_x0020_limbe" fill="#00923F" stroke="black" stroke-width="7.62" d="M5188 1169c2183,3336 2130,4537 8,6028 -2000,-1344 -2314,-2838 -8,-6028z">
    <metadata id="CorelCorpID_6">
     <odm name="Name" value="forme limbe" type="0"/>
    </metadata>
   </path>
   <path fill="none" stroke="black" stroke-width="7.62" d="M5193 5880c780,-87 1144,-753 1084,-1480"/>
   <path fill="none" stroke="black" stroke-width="7.62" d="M5193 4539c723,18 952,-668 857,-1381"/>
   <path fill="none" stroke="black" stroke-width="7.62" d="M5193 3324c560,-24 692,-492 571,-1011"/>
   <path fill="none" stroke="black" stroke-width="7.62" d="M5193 2480c367,-69 381,-409 228,-862"/>
   <path fill="none" stroke="black" stroke-width="7.62" d="M5193 6478c-914,-79 -1210,-484 -1429,-1139"/>
   <path fill="none" stroke="black" stroke-width="7.62" d="M5193 5247c-1002,-19 -1089,-632 -1018,-1408"/>
   <path fill="none" stroke="black" stroke-width="7.62" d="M5193 4121c-702,8 -987,-567 -728,-1362"/>
   <path fill="none" stroke="black" stroke-width="7.62" d="M5193 3064c-531,-25 -601,-520 -459,-1047"/>
   <path fill="none" stroke="black" stroke-width="7.62" d="M5193 2126c-289,-50 -303,-416 -157,-738"/>
   <path id="nervure_2" fill="#00923F" stroke="black" stroke-width="7.62" d="M5175 1190c7,-7 10,-10 14,-13 5,4 12,11 24,22l0 5979c-6,4 -11,7 -17,11 -6,-4 -15,-9 -20,-12 0,-4738 0,-4154 0,-5988z">
    <metadata id="CorelCorpID_7">
     <odm name="Name" value="nervure" type="0"/>
    </metadata>
   </path>
   <path fill="none" stroke="black" stroke-width="7.62" d="M5211 6587c914,-79 1302,-914 1520,-1569"/>
  </g>
  <g id="lamina_lobed" onclick="parent.replacechar('lamina_lobed')" onmousemove="parent.showtooltip('lamina_lobed','Limbe lobé')" onmouseout="parent.hidetooltip('lamina_lobed')" cursor="pointer">
   <rect id="nervure_3" fill="#00923F" stroke="black" stroke-width="7.62" x="10776" y="6125" width="57" height="2290">
    <metadata id="CorelCorpID_8">
     <odm name="Name" value="nervure" type="0"/>
    </metadata>
   </rect>
   <path id="limbe_4" fill="#00923F" stroke="black" stroke-width="7.62" d="M10813 1334c222,110 441,764 768,1092 -109,436 196,483 327,546 136,64 32,440 436,546 196,358 -327,436 323,806 -432,395 -189,747 53,991 40,74 -922,931 -158,822 -68,498 -631,612 -1746,873 -1068,-370 -1710,-280 -1746,-764 327,0 327,-436 -109,-764 218,-327 22,-992 -109,-1200 492,-1 327,-327 436,-655 338,-79 218,-546 327,-655 109,0 418,-59 327,-436 309,-59 546,-1091 869,-1201z">
    <metadata id="CorelCorpID_9">
     <odm name="Name" value="limbe" type="0"/>
    </metadata>
   </path>
   <g id="nervures">
    <path fill="none" stroke="black" stroke-width="7.62" d="M10807 6177c-250,-525 -1383,-2271 -1518,-2552"/>
    <path fill="none" stroke="black" stroke-width="7.62" d="M10817 6790c163,-141 1431,-100 1746,-655"/>
    <path fill="none" stroke="black" stroke-width="7.62" d="M10817 6504c-478,-301 -1550,192 -1746,-259"/>
    <path fill="none" stroke="black" stroke-width="7.62" d="M10817 5966c248,-585 1332,-1973 1528,-2449"/>
    <path id="nervure_5" fill="#00923F" stroke="black" stroke-width="7.62" d="M10780 1353c14,-11 23,-16 28,-18 3,3 6,5 8,8l0 5660c-11,9 -23,5 -37,-1 0,-4899 0,-3752 0,-5649z">
     <metadata id="CorelCorpID_10">
      <odm name="Name" value="nervure" type="0"/>
     </metadata>
    </path>
    <path fill="none" stroke="black" stroke-width="7.62" d="M10813 4026c110,-374 674,-1296 760,-1600"/>
    <path fill="none" stroke="black" stroke-width="7.62" d="M10817 3844c-132,-313 -769,-1055 -873,-1309"/>
   </g>
  </g>
  <g id="lamina_deeply_lobed" onclick="parent.replacechar('lamina_deeply_lobed')" onmousemove="parent.showtooltip('lamina_deeply_lobed','Limbe profondément lobé')" onmouseout="parent.hidetooltip('lamina_deeply_lobed')" cursor="pointer">
    <metadata id="CorelCorpID_11">
     <odm name="Name" value="prof lobee" type="0"/>
    </metadata>
   <rect id="nervure_6" fill="#00923F" stroke="black" stroke-width="7.62" x="16303" y="7183" width="57" height="1232">
    <metadata id="CorelCorpID_12">
     <odm name="Name" value="nervure" type="0"/>
    </metadata>
   </rect>
   <path id="forme_x0020_limbe_7" fill="#00923F" stroke="black" stroke-width="7.62" d="M16325 1169c151,231 182,659 456,690 329,38 -317,1449 474,830 222,402 -1127,2511 429,954 182,479 -1691,3311 259,1273 -22,883 -565,1546 -1610,2281 -859,-578 -1407,-1183 -1570,-1938 2278,1264 -58,-946 131,-1523 1976,1556 293,-749 530,-1175 674,823 305,-252 379,-618 527,183 346,-530 522,-775z">
    <metadata id="CorelCorpID_13">
     <odm name="Name" value="forme limbe" type="0"/>
    </metadata>
   </path>
   <path fill="none" stroke="black" stroke-width="7.62" d="M16350 5662c550,-279 817,-830 1115,-1620"/>
   <path fill="none" stroke="black" stroke-width="7.62" d="M16350 3759c509,-37 582,-351 794,-870"/>
   <path fill="none" stroke="black" stroke-width="7.62" d="M16329 2480c267,-85 330,-127 427,-473"/>
   <path fill="none" stroke="black" stroke-width="7.62" d="M16329 6478c-816,-118 -948,-359 -1381,-1004"/>
   <path fill="none" stroke="black" stroke-width="7.62" d="M16329 5247c-582,-58 -621,-621 -1242,-1241"/>
   <path fill="none" stroke="black" stroke-width="7.62" d="M16329 4121c-447,-206 -424,-632 -757,-1264"/>
   <path fill="none" stroke="black" stroke-width="7.62" d="M16329 3064c-309,-162 -261,-523 -459,-1047"/>
   <path id="nervure_8" fill="#00923F" stroke="black" stroke-width="7.62" d="M16312 1190c7,-7 10,-10 14,-13 5,4 12,11 24,22l0 5979c-6,4 -11,7 -17,11 -6,-4 -15,-9 -20,-12 0,-4738 0,-4154 0,-5988z">
    <metadata id="CorelCorpID_14">
     <odm name="Name" value="nervure" type="0"/>
    </metadata>
   </path>
   <path fill="none" stroke="black" stroke-width="7.62" d="M16348 6587c914,-79 1302,-914 1520,-1569"/>
  </g>
  <g id="lamina_divided" onclick="parent.replacechar('lamina_divided')" onmousemove="parent.showtooltip('lamina_divided','Limbe divisé')" onmouseout="parent.hidetooltip('lamina_divided')" cursor="pointer">
    <metadata id="CorelCorpID_15">
     <odm name="Name" value="divided" type="0"/>
    </metadata>
   <path id="limbe_9" fill="#00923F" stroke="black" stroke-width="7.62" stroke-linecap="round" stroke-linejoin="bevel" d="M21483 8415l-146 -5c-117,-1434 -49,-1787 -193,-1807 -308,-54 -486,463 -894,366 -197,-114 457,-353 68,-414 -209,-33 -497,48 -666,-313 0,0 0,0 0,0 520,-325 597,-1 986,148 357,137 129,-216 -164,-369 -448,-233 -641,198 -1049,-321 181,-181 537,146 688,-11 -157,-412 -787,-201 -618,-888 400,-194 423,518 597,448 76,-30 -43,-328 82,-371 357,49 47,626 289,789 366,247 -192,-443 252,-650 497,465 -169,843 183,1091 114,80 394,517 323,-470 -47,-328 -318,-198 -318,-609 232,-121 194,138 290,192 131,6 63,-306 28,-406 -291,-336 -825,-76 -897,-607 157,-65 622,241 504,5 -116,-349 -533,-89 -310,-708 543,51 435,446 629,789 267,382 -29,-815 74,-815 -381,-159 -753,-2 -653,-776 390,-80 395,506 765,369 55,-137 -8,-288 -114,-367 -772,-538 -43,-275 107,-252 -20,-179 -483,-170 -502,-596 312,-153 335,263 503,263 100,-81 -337,-571 72,-859 163,50 188,297 149,447 -164,626 77,-48 323,-19 58,262 -433,462 -311,554 56,28 209,-184 309,-199 177,279 -384,341 -378,550 117,142 123,-132 281,-127 48,332 -398,270 -287,570 157,423 43,-548 716,-447 152,486 -145,569 -450,732 -219,134 -273,1140 -175,1215 254,0 15,-835 785,-933 331,538 -437,713 -306,821 98,81 284,-278 550,-95 28,459 -946,161 -975,795 18,147 -130,755 0,1028 84,133 403,-124 326,-636 -55,-228 -170,-429 105,-622 243,240 120,347 68,604 -7,34 39,258 70,105 362,-327 -181,-1000 855,-1021 185,320 -33,577 -322,685 -233,111 -325,400 -79,239 292,-192 331,-435 654,-200 136,347 -1564,406 -1368,946 25,70 409,-420 789,-474 53,199 -324,316 -152,417 292,-96 267,-243 567,-76 -43,647 -892,33 -995,299 -63,162 381,83 366,409 -281,155 -451,-311 -736,-339 -331,-33 -251,1757 -296,1926z">
    <metadata id="CorelCorpID_16">
     <odm name="Name" value="divided" type="0"/>
    </metadata>
   </path>
   <path id="nervure_10" fill="#00923F" stroke="black" stroke-width="7.62" d="M21390 1335c7,-9 10,-12 13,-15 5,5 11,13 23,26l0 7055c-5,4 -11,9 -16,13 -6,-4 -14,-10 -19,-14 0,-5591 0,-4901 0,-7065z">
    <metadata id="CorelCorpID_17">
     <odm name="Name" value="nervure" type="0"/>
    </metadata>
   </path>
  </g>
  <g id="lamina_filiform" onclick="parent.replacechar('lamina_filiform')" onmousemove="parent.showtooltip('lamina_filiform','Limbe filiforme')" onmouseout="parent.hidetooltip('lamina_filiform')" cursor="pointer">
    <metadata id="CorelCorpID_18">
     <odm name="Name" value="filiforme" type="0"/>
    </metadata>
   <path id="nervure_11" fill="#00923F" stroke="black" stroke-width="7.62" d="M2797 9062c19,-9 43,-80 52,-83 13,5 14,81 47,95 0,141 0,281 0,422 0,13 161,5 140,-308 81,242 -44,322 -140,380 0,238 0,501 0,739 0,26 550,32 481,-740 184,725 -361,788 -481,811l0 5883c-15,4 -30,9 -46,14 -16,-5 -38,-10 -54,-14 0,-4265 0,-4961 0,-5958 -288,-36 -605,-203 -495,-772 -63,699 493,733 493,714 0,-209 2,-454 2,-733 -54,-35 -232,-126 -141,-374 -23,287 141,317 141,301 0,-115 0,-240 0,-375z">
    <metadata id="CorelCorpID_19">
     <odm name="Name" value="nervure" type="0"/>
    </metadata>
   </path>
   <g>
    <path fill="#00923F" stroke="black" stroke-width="7.62" d="M2888 14422c-33,-37 -30,-108 -19,-115 263,-69 615,-205 860,-358 51,-94 43,-909 251,-1106 62,99 -135,423 -169,1023 -15,123 321,-201 366,-253 52,-60 111,-105 129,-155 -6,-121 -9,-198 -7,-371 2,-200 84,-218 39,3 -21,102 -17,453 69,239 94,-152 154,-278 191,-447 25,-115 34,107 3,181 -19,48 -87,222 -122,271 -170,237 311,183 397,35 21,-36 -11,58 -24,68 -337,254 -400,17 -472,42 -96,140 -454,410 -521,503 -10,13 87,128 108,138 295,142 517,33 795,-157 103,-70 149,-50 49,49 -226,225 -725,375 -987,51 -80,-76 -580,284 -937,358z"/>
    <path fill="none" stroke="black" stroke-width="7.62" d="M2880 14370c872,-254 1617,-808 1728,-1489"/>
    <path fill="none" stroke="black" stroke-width="7.62" d="M3780 13965c280,401 726,308 1052,-24"/>
    <path fill="none" stroke="black" stroke-width="7.62" d="M3972 12911c-129,372 -197,683 -193,1054"/>
    <path fill="none" stroke="black" stroke-width="7.62" d="M4375 13407c131,187 339,144 491,-11"/>
    <path fill="none" stroke="black" stroke-width="7.62" d="M4335 12966c-27,181 -31,329 3,498"/>
   </g>
   <g>
    <path fill="#00923F" stroke="black" stroke-width="7.62" d="M2898 12859c-35,-35 -36,-106 -25,-114 209,-117 615,-231 837,-409 45,-97 -12,-910 184,-1119 68,95 -110,430 -107,1031 -7,124 308,-220 350,-275 48,-63 105,-111 119,-162 -13,-120 -21,-197 -29,-370 -10,-200 71,-223 39,1 -15,103 10,454 83,234 84,-158 137,-287 164,-457 18,-116 40,105 14,181 -17,49 -73,227 -105,278 -155,247 321,164 398,11 19,-37 -8,58 -20,69 -321,274 -398,41 -469,71 -87,146 -428,437 -490,533 -9,14 95,123 116,132 303,124 518,2 784,-205 99,-76 146,-59 52,46 -212,238 -701,418 -982,111 -85,-71 -726,450 -913,414z"/>
    <path fill="none" stroke="black" stroke-width="7.62" d="M2887 12808c855,-306 1565,-904 1635,-1590"/>
    <path fill="none" stroke="black" stroke-width="7.62" d="M3761 12350c304,384 744,264 1049,-88"/>
    <path fill="none" stroke="black" stroke-width="7.62" d="M3890 11286c-107,379 -156,694 -129,1063"/>
    <path fill="none" stroke="black" stroke-width="7.62" d="M4322 11757c142,179 347,123 489,-41"/>
    <path fill="none" stroke="black" stroke-width="7.62" d="M4255 11319c-16,182 -11,330 34,497"/>
   </g>
   <g>
    <path fill="#00923F" stroke="black" stroke-width="7.62" d="M2894 11331c-30,-26 -36,-81 -28,-89 158,-107 472,-226 636,-383 29,-80 -73,-722 68,-901 60,71 -57,349 -13,826 3,99 230,-196 259,-242 34,-54 75,-96 83,-137 -19,-94 -30,-155 -49,-291 -22,-158 41,-182 31,-2 -5,83 39,359 82,180 56,-131 89,-237 98,-374 6,-94 39,81 24,143 -10,40 -42,185 -64,228 -106,207 267,108 317,-19 12,-31 -2,47 -11,56 -236,240 -313,60 -367,89 -59,122 -310,376 -352,457 -6,12 84,91 102,96 249,77 412,-35 608,-217 73,-68 112,-57 45,33 -152,203 -527,380 -772,156 -72,-51 -545,407 -696,392z"/>
    <path fill="none" stroke="black" stroke-width="7.62" d="M2881 11292c658,-302 1180,-826 1188,-1376"/>
    <path fill="none" stroke="black" stroke-width="7.62" d="M3543 10867c268,284 609,158 827,-142"/>
    <path fill="none" stroke="black" stroke-width="7.62" d="M3572 10014c-58,308 -75,562 -28,853"/>
    <path fill="none" stroke="black" stroke-width="7.62" d="M3948 10357c125,132 284,74 386,-66"/>
    <path fill="none" stroke="black" stroke-width="7.62" d="M3864 10014c0,146 14,263 61,392"/>
   </g>
   <path fill="none" stroke="black" stroke-width="7.62" d="M2887 10342c390,-8 570,-356 493,-719"/>
   <path fill="none" stroke="black" stroke-width="7.62" d="M2894 9530c132,-55 182,-153 146,-322"/>
   <path fill="none" stroke="black" stroke-width="7.62" d="M2795 10267c-390,-8 -570,-356 -493,-719"/>
   <path fill="none" stroke="black" stroke-width="7.62" d="M2801 9477c-132,-55 -182,-153 -146,-322"/>
   <path fill="#00923F" stroke="black" stroke-width="7.62" d="M2793 11340c30,-26 36,-81 28,-89 -158,-107 -472,-226 -636,-383 -29,-80 73,-722 -68,-901 -60,71 57,349 13,826 -3,99 -230,-196 -259,-242 -34,-54 -75,-96 -83,-137 19,-94 30,-155 49,-291 22,-158 -41,-182 -31,-2 5,83 -39,359 -82,180 -56,-131 -89,-237 -98,-374 -6,-94 -39,81 -24,143 10,40 42,185 64,228 106,207 -267,108 -317,-19 -12,-31 2,47 11,56 236,240 313,60 367,89 59,122 310,376 352,457 6,12 -84,91 -102,96 -249,77 -412,-35 -608,-217 -73,-68 -112,-57 -45,33 152,203 527,380 772,156 72,-51 545,407 696,392z"/>
   <path fill="none" stroke="black" stroke-width="7.62" d="M2806 11301c-658,-302 -1180,-826 -1188,-1376"/>
   <path fill="none" stroke="black" stroke-width="7.62" d="M2144 10876c-268,284 -609,158 -827,-142"/>
   <path fill="none" stroke="black" stroke-width="7.62" d="M2115 10023c58,308 75,562 28,853"/>
   <path fill="none" stroke="black" stroke-width="7.62" d="M1740 10366c-125,132 -284,74 -386,-66"/>
   <path fill="none" stroke="black" stroke-width="7.62" d="M1823 10023c0,146 -14,263 -61,392"/>
   <g>
    <path fill="#00923F" stroke="black" stroke-width="7.62" d="M2799 14423c33,-37 30,-108 19,-115 -216,-85 -607,-221 -860,-358 -51,-94 -43,-909 -251,-1106 -62,99 135,423 169,1023 15,123 -321,-201 -366,-253 -52,-60 -111,-105 -129,-155 6,-121 9,-198 7,-371 -2,-200 -84,-218 -39,3 21,102 17,453 -69,239 -94,-152 -154,-278 -191,-447 -25,-115 -34,107 -3,181 19,48 87,222 122,271 170,237 -311,183 -397,35 -21,-36 11,58 24,68 337,254 400,17 472,42 96,140 454,410 521,503 10,13 -87,128 -108,138 -295,142 -517,33 -795,-157 -103,-70 -149,-50 -49,49 226,225 725,375 987,51 80,-76 604,280 937,358z"/>
    <path fill="none" stroke="black" stroke-width="7.62" d="M2808 14372c-872,-254 -1617,-808 -1728,-1489"/>
    <path fill="none" stroke="black" stroke-width="7.62" d="M1908 13966c-280,401 -726,308 -1052,-24"/>
    <path fill="none" stroke="black" stroke-width="7.62" d="M1715 12913c129,372 197,683 193,1054"/>
    <path fill="none" stroke="black" stroke-width="7.62" d="M1312 13409c-131,187 -339,144 -491,-11"/>
    <path fill="none" stroke="black" stroke-width="7.62" d="M1352 12967c27,181 31,329 -3,498"/>
   </g>
   <g>
    <path fill="#00923F" stroke="black" stroke-width="7.62" d="M2791 12865c35,-35 36,-106 25,-114 -209,-117 -615,-231 -837,-409 -45,-97 12,-910 -184,-1119 -68,95 110,430 107,1031 7,124 -308,-220 -350,-275 -48,-63 -105,-111 -119,-162 13,-120 21,-197 29,-370 10,-200 -71,-223 -39,1 15,103 -10,454 -83,234 -84,-158 -137,-287 -164,-457 -18,-116 -40,105 -14,181 17,49 73,227 105,278 155,247 -321,164 -398,11 -19,-37 8,58 20,69 321,274 398,41 469,71 87,146 428,437 490,533 9,14 -95,123 -116,132 -303,124 -518,2 -784,-205 -99,-76 -146,-59 -52,46 212,238 701,418 982,111 85,-71 726,450 913,414z"/>
    <path fill="none" stroke="black" stroke-width="7.62" d="M2803 12815c-855,-306 -1565,-904 -1635,-1590"/>
    <path fill="none" stroke="black" stroke-width="7.62" d="M1929 12356c-304,384 -744,264 -1049,-88"/>
    <path fill="none" stroke="black" stroke-width="7.62" d="M1800 11293c107,379 156,694 129,1063"/>
    <path fill="none" stroke="black" stroke-width="7.62" d="M1368 11763c-142,179 -347,123 -489,-41"/>
    <path fill="none" stroke="black" stroke-width="7.62" d="M1435 11325c16,182 11,330 -34,497"/>
   </g>
  </g>
  <g id="lamina_trilobed" onclick="parent.replacechar('lamina_trilobed')" onmousemove="parent.showtooltip('lamina_trilobed','Limbe trilobé')" onmouseout="parent.hidetooltip('lamina_trilobed')" cursor="pointer">
    <metadata id="CorelCorpID_20">
     <odm name="Name" value="trilobées" type="0"/>
    </metadata>
   <rect id="nervure_12" fill="#00923F" stroke="black" stroke-width="7.62" x="8742" y="14175" width="53" height="2099">
    <metadata id="CorelCorpID_21">
     <odm name="Name" value="nervure" type="0"/>
    </metadata>
   </rect>
   <path id="limbe_13" fill="#00923F" stroke="black" stroke-width="7.62" d="M8776 9782c1559,740 370,2593 645,2723 124,59 924,-755 1294,-658 351,1189 -536,2401 -1957,2375 -1098,63 -2447,-1012 -2007,-2105 571,-302 1124,669 1304,477 330,-418 -884,-1756 720,-2814z">
    <metadata id="CorelCorpID_22">
     <odm name="Name" value="limbe" type="0"/>
    </metadata>
   </path>
   <g id="nervures_14">
     <metadata id="CorelCorpID_23">
      <odm name="Name" value="nervures" type="0"/>
     </metadata>
    <path fill="none" stroke="black" stroke-width="7.62" d="M8779 14219c158,-129 1457,-1166 1618,-1939"/>
    <path fill="none" stroke="black" stroke-width="7.62" d="M8761 14219c-507,-276 -1724,-1390 -1931,-1803"/>
    <path id="nervure_15" fill="#00923F" stroke="black" stroke-width="7.62" d="M8750 9803c13,-8 21,-12 26,-14 3,2 5,4 8,6l0 4432c-10,7 -21,4 -34,-1 0,-3836 0,-2938 0,-4423z">
     <metadata id="CorelCorpID_24">
      <odm name="Name" value="nervure" type="0"/>
     </metadata>
    </path>
   </g>
  </g>
  <g id="lamina_pentalobed" onclick="parent.replacechar('lamina_pentalobed')" onmousemove="parent.showtooltip('lamina_pentalobed','Limbe pentalobé')" onmouseout="parent.hidetooltip('lamina_pentalobed')" cursor="pointer">
    <metadata id="CorelCorpID_25">
     <odm name="Name" value="pentalobee" type="0"/>
    </metadata>
   <path id="limbe_16" fill="#00923F" stroke="black" stroke-width="7.62" d="M14876 9869c727,970 848,1653 587,2743 436,-723 819,-923 1628,-1128 -14,992 -142,1389 -1216,2258 450,-168 809,-140 1042,2 -241,974 -1834,1614 -2001,1187 -4,-11 -39,-17 -40,-4 -52,388 -1826,-12 -2050,-1172 329,-142 562,-113 906,-36 -636,-471 -886,-1141 -981,-2155 708,134 1018,320 1534,1049 -331,-962 -102,-1640 590,-2743z">
    <metadata id="CorelCorpID_26">
     <odm name="Name" value="petiolule" type="0"/>
    </metadata>
   </path>
   <g id="nervure_17">
     <metadata id="CorelCorpID_27">
      <odm name="Name" value="nervure" type="0"/>
     </metadata>
    <path fill="none" stroke="black" stroke-width="7.62" d="M14898 14917c420,-1863 1813,-2469 2185,-3420"/>
    <path fill="none" stroke="black" stroke-width="7.62" d="M14889 14915c-865,-49 -1173,-567 -2009,-1137"/>
    <path fill="none" stroke="black" stroke-width="7.62" d="M14896 14917c-199,-1420 -1677,-2311 -2127,-3340"/>
    <path fill="none" stroke="black" stroke-width="7.62" d="M14904 14915c800,-86 1452,-891 1991,-1151"/>
   </g>
   <polygon id="nervure_18" fill="#00923F" stroke="black" stroke-width="7.62" points="14875,9884 14873,14913 ">
    <metadata id="CorelCorpID_28">
     <odm name="Name" value="nervure" type="0"/>
    </metadata>
   </polygon>
   <path id="nervure_19" fill="#00923F" stroke="black" stroke-width="7.62" d="M14880 9931c8,-8 11,-10 14,-14 5,5 12,11 26,24l0 6306c-6,4 -12,8 -18,12 -6,-4 -15,-9 -22,-13 0,-4997 0,-4381 0,-6315z">
    <metadata id="CorelCorpID_29">
     <odm name="Name" value="nervure" type="0"/>
    </metadata>
   </path>
   <rect id="nervure_20" fill="#00923F" stroke="black" stroke-width="7.62" x="14868" y="14974" width="60" height="1300">
    <metadata id="CorelCorpID_30">
     <odm name="Name" value="nervure" type="0"/>
    </metadata>
   </rect>
  </g>
  <g id="lamina_palmate" onclick="parent.replacechar('lamina_palmate')" onmousemove="parent.showtooltip('lamina_palmate','Limbe palmé')" onmouseout="parent.hidetooltip('lamina_palmate')" cursor="pointer">
    <metadata id="CorelCorpID_31">
     <odm name="Name" value="palmee" type="0"/>
    </metadata>
   <path id="limbe_21" fill="#00923F" stroke="black" stroke-width="7.62" d="M20624 9804c1272,1449 339,3176 76,4276 440,-731 904,-2390 2162,-2645 113,1437 -1245,2136 -2134,3350 591,-570 1460,-1357 1959,-1068 -243,983 -1853,1630 -2021,1199 -4,-11 -39,-17 -41,-4 -52,392 -1845,-12 -2070,-1184 831,-422 1661,969 2009,1047 -618,-808 -2310,-1815 -2084,-3260 1116,86 1621,1868 2143,2604 -335,-972 -1195,-2966 2,-4315z">
    <metadata id="CorelCorpID_32">
     <odm name="Name" value="petiolule" type="0"/>
    </metadata>
   </path>
   <g id="nervure_22">
     <metadata id="CorelCorpID_33">
      <odm name="Name" value="nervure" type="0"/>
     </metadata>
    <path fill="none" stroke="black" stroke-width="7.62" d="M20646 14903c425,-1882 1832,-2494 2207,-3454"/>
    <path fill="none" stroke="black" stroke-width="7.62" d="M20637 14901c-874,-50 -1185,-573 -2029,-1149"/>
    <path fill="none" stroke="black" stroke-width="7.62" d="M20644 14904c-201,-1435 -1694,-2334 -2149,-3373"/>
    <path fill="none" stroke="black" stroke-width="7.62" d="M20652 14902c808,-87 1467,-900 2011,-1162"/>
   </g>
   <polygon id="nervure_23" fill="#00923F" stroke="black" stroke-width="7.62" points="20623,9820 20621,14900 ">
    <metadata id="CorelCorpID_34">
     <odm name="Name" value="nervure" type="0"/>
    </metadata>
   </polygon>
   <path id="nervure_24" fill="#00923F" stroke="black" stroke-width="7.62" d="M20628 9867c8,-8 11,-10 15,-14 5,5 12,12 26,24l0 6369c-6,4 -12,8 -18,12 -6,-4 -16,-9 -22,-13 0,-5047 0,-4425 0,-6379z">
    <metadata id="CorelCorpID_35">
     <odm name="Name" value="nervure" type="0"/>
    </metadata>
   </path>
   <rect id="nervure_25" fill="#00923F" stroke="black" stroke-width="7.62" x="20616" y="14961" width="61" height="1313">
    <metadata id="CorelCorpID_36">
     <odm name="Name" value="nervure" type="0"/>
    </metadata>
   </rect>
  </g>
 </g>
<image xlink:href="tick.gif" id="imgtick" x="-10000" y="-10000" width="1500" height="1500"/>
<rect id="recttooltip" x="-10000" y="-10000" width="5500" height="600" fill-opacity="0.85" pointer-events="none"/>
<text id="textboxid" x="-10000" y="-10000" pointer-events="none"> </text>
</a></svg>
