<?xml version="1.0" encoding="UTF-8"?>
<!DOCTYPE svg PUBLIC "-//W3C//DTD SVG 1.1//EN" "http://www.w3.org/Graphics/SVG/1.1/DTD/svg11.dtd">
<!-- Creator: CorelDRAW X5 -->
<svg xmlns="http://www.w3.org/2000/svg" xml:space="preserve" width="100%" height="100%" shape-rendering="geometricPrecision" text-rendering="geometricPrecision" image-rendering="optimizeQuality" fill-rule="evenodd" clip-rule="evenodd"
viewBox="0 0 24000 18000"
 xmlns:xlink="http://www.w3.org/1999/xlink">
<a>
 <g id="Layer_x0020_1">
  <metadata id="CorelCorpID_0Corel-Layer"/>
  <g id="Tigepilo_lot" onclick=" parent.replacechar('Tigepilo_lot')" onmousemove=" showtooltip('Tigepilo_lot','Tige : pilosit&#233; importante')" onmouseout=" hidetooltip('Tigepilo_lot')" cursor="pointer" >
    <metadata id="CorelCorpID_1">
     <odm name="Name" value="pubescent" type="0"/>
    </metadata>
   <g id="glabrous">
     <metadata id="CorelCorpID_2">
      <odm name="Name" value="glabrous" type="0"/>
     </metadata>
    <path fill="#786432" fill-rule="nonzero" stroke="black" stroke-width="7.62" stroke-linejoin="bevel" d="M17732 1450l0 14320c127,1291 3457,1228 3420,0l0 -14320 -3420 0z"/>
    <path fill="yellow" fill-rule="nonzero" stroke="black" stroke-width="7.62" stroke-linejoin="bevel" d="M19430 2376c-925,0 -1689,-386 -1689,-878 0,-482 763,-878 1689,-878 949,0 1712,396 1712,878 0,491 -763,878 -1712,878z"/>
   </g>
   <path fill="none" stroke="black" stroke-width="7.62" d="M17597 15053c246,185 493,370 493,370"/>
   <path fill="none" stroke="black" stroke-width="7.62" d="M18147 15053c246,185 493,370 493,370"/>
   <path fill="none" stroke="black" stroke-width="7.62" d="M18696 15053c246,185 493,370 493,370"/>
   <path fill="none" stroke="black" stroke-width="7.62" d="M17597 15603c246,185 493,370 493,370"/>
   <path fill="none" stroke="black" stroke-width="7.62" d="M18147 15603c246,185 493,370 493,370"/>
   <path fill="none" stroke="black" stroke-width="7.62" d="M18696 15603c246,185 493,370 493,370"/>
   <path fill="none" stroke="black" stroke-width="7.62" d="M21387 15053c-246,185 -493,370 -493,370"/>
   <path fill="none" stroke="black" stroke-width="7.62" d="M20838 15053c-246,185 -493,370 -493,370"/>
   <path fill="none" stroke="black" stroke-width="7.62" d="M20288 15053c-246,185 -493,370 -493,370"/>
   <path fill="none" stroke="black" stroke-width="7.62" d="M21387 15603c-246,185 -493,370 -493,370"/>
   <path fill="none" stroke="black" stroke-width="7.62" d="M20838 15603c-246,185 -493,370 -493,370"/>
   <path fill="none" stroke="black" stroke-width="7.62" d="M20288 15603c-246,185 -493,370 -493,370"/>
   <path fill="none" stroke="black" stroke-width="7.62" d="M17597 13954c246,185 493,370 493,370"/>
   <path fill="none" stroke="black" stroke-width="7.62" d="M18147 13954c246,185 493,370 493,370"/>
   <path fill="none" stroke="black" stroke-width="7.62" d="M18696 13954c246,185 493,370 493,370"/>
   <path fill="none" stroke="black" stroke-width="7.62" d="M17597 14504c246,185 493,370 493,370"/>
   <path fill="none" stroke="black" stroke-width="7.62" d="M18147 14504c246,185 493,370 493,370"/>
   <path fill="none" stroke="black" stroke-width="7.62" d="M18696 14504c246,185 493,370 493,370"/>
   <path fill="none" stroke="black" stroke-width="7.62" d="M21387 13954c-246,185 -493,370 -493,370"/>
   <path fill="none" stroke="black" stroke-width="7.62" d="M20838 13954c-246,185 -493,370 -493,370"/>
   <path fill="none" stroke="black" stroke-width="7.62" d="M20288 13954c-246,185 -493,370 -493,370"/>
   <path fill="none" stroke="black" stroke-width="7.62" d="M21387 14504c-246,185 -493,370 -493,370"/>
   <path fill="none" stroke="black" stroke-width="7.62" d="M20838 14504c-246,185 -493,370 -493,370"/>
   <path fill="none" stroke="black" stroke-width="7.62" d="M20288 14504c-246,185 -493,370 -493,370"/>
   <path fill="none" stroke="black" stroke-width="7.62" d="M17597 12855c246,185 493,370 493,370"/>
   <path fill="none" stroke="black" stroke-width="7.62" d="M18147 12855c246,185 493,370 493,370"/>
   <path fill="none" stroke="black" stroke-width="7.62" d="M18696 12855c246,185 493,370 493,370"/>
   <path fill="none" stroke="black" stroke-width="7.62" d="M17597 13405c246,185 493,370 493,370"/>
   <path fill="none" stroke="black" stroke-width="7.62" d="M18147 13405c246,185 493,370 493,370"/>
   <path fill="none" stroke="black" stroke-width="7.62" d="M18696 13405c246,185 493,370 493,370"/>
   <path fill="none" stroke="black" stroke-width="7.62" d="M21387 12855c-246,185 -493,370 -493,370"/>
   <path fill="none" stroke="black" stroke-width="7.62" d="M20838 12855c-246,185 -493,370 -493,370"/>
   <path fill="none" stroke="black" stroke-width="7.62" d="M20288 12855c-246,185 -493,370 -493,370"/>
   <path fill="none" stroke="black" stroke-width="7.62" d="M21387 13405c-246,185 -493,370 -493,370"/>
   <path fill="none" stroke="black" stroke-width="7.62" d="M20838 13405c-246,185 -493,370 -493,370"/>
   <path fill="none" stroke="black" stroke-width="7.62" d="M20288 13405c-246,185 -493,370 -493,370"/>
   <path fill="none" stroke="black" stroke-width="7.62" d="M17597 11756c246,185 493,370 493,370"/>
   <path fill="none" stroke="black" stroke-width="7.62" d="M18147 11756c246,185 493,370 493,370"/>
   <path fill="none" stroke="black" stroke-width="7.62" d="M18696 11756c246,185 493,370 493,370"/>
   <path fill="none" stroke="black" stroke-width="7.62" d="M17597 12306c246,185 493,370 493,370"/>
   <path fill="none" stroke="black" stroke-width="7.62" d="M18147 12306c246,185 493,370 493,370"/>
   <path fill="none" stroke="black" stroke-width="7.62" d="M18696 12306c246,185 493,370 493,370"/>
   <path fill="none" stroke="black" stroke-width="7.62" d="M21387 11756c-246,185 -493,370 -493,370"/>
   <path fill="none" stroke="black" stroke-width="7.62" d="M20838 11756c-246,185 -493,370 -493,370"/>
   <path fill="none" stroke="black" stroke-width="7.62" d="M20288 11756c-246,185 -493,370 -493,370"/>
   <path fill="none" stroke="black" stroke-width="7.62" d="M21387 12306c-246,185 -493,370 -493,370"/>
   <path fill="none" stroke="black" stroke-width="7.62" d="M20838 12306c-246,185 -493,370 -493,370"/>
   <path fill="none" stroke="black" stroke-width="7.62" d="M20288 12306c-246,185 -493,370 -493,370"/>
   <path fill="none" stroke="black" stroke-width="7.62" d="M17597 10657c246,185 493,370 493,370"/>
   <path fill="none" stroke="black" stroke-width="7.62" d="M18147 10657c246,185 493,370 493,370"/>
   <path fill="none" stroke="black" stroke-width="7.62" d="M18696 10657c246,185 493,370 493,370"/>
   <path fill="none" stroke="black" stroke-width="7.62" d="M17597 11207c246,185 493,370 493,370"/>
   <path fill="none" stroke="black" stroke-width="7.62" d="M18147 11207c246,185 493,370 493,370"/>
   <path fill="none" stroke="black" stroke-width="7.62" d="M18696 11207c246,185 493,370 493,370"/>
   <path fill="none" stroke="black" stroke-width="7.62" d="M21387 10657c-246,185 -493,370 -493,370"/>
   <path fill="none" stroke="black" stroke-width="7.62" d="M20838 10657c-246,185 -493,370 -493,370"/>
   <path fill="none" stroke="black" stroke-width="7.62" d="M20288 10657c-246,185 -493,370 -493,370"/>
   <path fill="none" stroke="black" stroke-width="7.62" d="M21387 11207c-246,185 -493,370 -493,370"/>
   <path fill="none" stroke="black" stroke-width="7.62" d="M20838 11207c-246,185 -493,370 -493,370"/>
   <path fill="none" stroke="black" stroke-width="7.62" d="M20288 11207c-246,185 -493,370 -493,370"/>
   <path fill="none" stroke="black" stroke-width="7.62" d="M17597 9558c246,185 493,370 493,370"/>
   <path fill="none" stroke="black" stroke-width="7.62" d="M18147 9558c246,185 493,370 493,370"/>
   <path fill="none" stroke="black" stroke-width="7.62" d="M18696 9558c246,185 493,370 493,370"/>
   <path fill="none" stroke="black" stroke-width="7.62" d="M17597 10108c246,185 493,370 493,370"/>
   <path fill="none" stroke="black" stroke-width="7.62" d="M18147 10108c246,185 493,370 493,370"/>
   <path fill="none" stroke="black" stroke-width="7.62" d="M18696 10108c246,185 493,370 493,370"/>
   <path fill="none" stroke="black" stroke-width="7.62" d="M21387 9558c-246,185 -493,370 -493,370"/>
   <path fill="none" stroke="black" stroke-width="7.62" d="M20838 9558c-246,185 -493,370 -493,370"/>
   <path fill="none" stroke="black" stroke-width="7.62" d="M20288 9558c-246,185 -493,370 -493,370"/>
   <path fill="none" stroke="black" stroke-width="7.62" d="M21387 10108c-246,185 -493,370 -493,370"/>
   <path fill="none" stroke="black" stroke-width="7.62" d="M20838 10108c-246,185 -493,370 -493,370"/>
   <path fill="none" stroke="black" stroke-width="7.62" d="M20288 10108c-246,185 -493,370 -493,370"/>
   <path fill="none" stroke="black" stroke-width="7.62" d="M17597 8459c246,185 493,370 493,370"/>
   <path fill="none" stroke="black" stroke-width="7.62" d="M18147 8459c246,185 493,370 493,370"/>
   <path fill="none" stroke="black" stroke-width="7.62" d="M18696 8459c246,185 493,370 493,370"/>
   <path fill="none" stroke="black" stroke-width="7.62" d="M17597 9009c246,185 493,370 493,370"/>
   <path fill="none" stroke="black" stroke-width="7.62" d="M18147 9009c246,185 493,370 493,370"/>
   <path fill="none" stroke="black" stroke-width="7.62" d="M18696 9009c246,185 493,370 493,370"/>
   <path fill="none" stroke="black" stroke-width="7.62" d="M21387 8459c-246,185 -493,370 -493,370"/>
   <path fill="none" stroke="black" stroke-width="7.62" d="M20838 8459c-246,185 -493,370 -493,370"/>
   <path fill="none" stroke="black" stroke-width="7.62" d="M20288 8459c-246,185 -493,370 -493,370"/>
   <path fill="none" stroke="black" stroke-width="7.62" d="M21387 9009c-246,185 -493,370 -493,370"/>
   <path fill="none" stroke="black" stroke-width="7.62" d="M20838 9009c-246,185 -493,370 -493,370"/>
   <path fill="none" stroke="black" stroke-width="7.62" d="M20288 9009c-246,185 -493,370 -493,370"/>
   <path fill="none" stroke="black" stroke-width="7.62" d="M17597 7360c246,185 493,370 493,370"/>
   <path fill="none" stroke="black" stroke-width="7.62" d="M18147 7360c246,185 493,370 493,370"/>
   <path fill="none" stroke="black" stroke-width="7.62" d="M18696 7360c246,185 493,370 493,370"/>
   <path fill="none" stroke="black" stroke-width="7.62" d="M17597 7909c246,185 493,370 493,370"/>
   <path fill="none" stroke="black" stroke-width="7.62" d="M18147 7909c246,185 493,370 493,370"/>
   <path fill="none" stroke="black" stroke-width="7.62" d="M18696 7909c246,185 493,370 493,370"/>
   <path fill="none" stroke="black" stroke-width="7.62" d="M21387 7360c-246,185 -493,370 -493,370"/>
   <path fill="none" stroke="black" stroke-width="7.62" d="M20838 7360c-246,185 -493,370 -493,370"/>
   <path fill="none" stroke="black" stroke-width="7.62" d="M20288 7360c-246,185 -493,370 -493,370"/>
   <path fill="none" stroke="black" stroke-width="7.62" d="M21387 7909c-246,185 -493,370 -493,370"/>
   <path fill="none" stroke="black" stroke-width="7.62" d="M20838 7909c-246,185 -493,370 -493,370"/>
   <path fill="none" stroke="black" stroke-width="7.62" d="M20288 7909c-246,185 -493,370 -493,370"/>
   <path fill="none" stroke="black" stroke-width="7.62" d="M17597 6261c246,185 493,370 493,370"/>
   <path fill="none" stroke="black" stroke-width="7.62" d="M18147 6261c246,185 493,370 493,370"/>
   <path fill="none" stroke="black" stroke-width="7.62" d="M18696 6261c246,185 493,370 493,370"/>
   <path fill="none" stroke="black" stroke-width="7.62" d="M17597 6810c246,185 493,370 493,370"/>
   <path fill="none" stroke="black" stroke-width="7.62" d="M18147 6810c246,185 493,370 493,370"/>
   <path fill="none" stroke="black" stroke-width="7.62" d="M18696 6810c246,185 493,370 493,370"/>
   <path fill="none" stroke="black" stroke-width="7.62" d="M21387 6261c-246,185 -493,370 -493,370"/>
   <path fill="none" stroke="black" stroke-width="7.62" d="M20838 6261c-246,185 -493,370 -493,370"/>
   <path fill="none" stroke="black" stroke-width="7.62" d="M20288 6261c-246,185 -493,370 -493,370"/>
   <path fill="none" stroke="black" stroke-width="7.62" d="M21387 6810c-246,185 -493,370 -493,370"/>
   <path fill="none" stroke="black" stroke-width="7.62" d="M20838 6810c-246,185 -493,370 -493,370"/>
   <path fill="none" stroke="black" stroke-width="7.62" d="M20288 6810c-246,185 -493,370 -493,370"/>
   <path fill="none" stroke="black" stroke-width="7.62" d="M17597 5162c246,185 493,370 493,370"/>
   <path fill="none" stroke="black" stroke-width="7.62" d="M18147 5162c246,185 493,370 493,370"/>
   <path fill="none" stroke="black" stroke-width="7.62" d="M18696 5162c246,185 493,370 493,370"/>
   <path fill="none" stroke="black" stroke-width="7.62" d="M17597 5711c246,185 493,370 493,370"/>
   <path fill="none" stroke="black" stroke-width="7.62" d="M18147 5711c246,185 493,370 493,370"/>
   <path fill="none" stroke="black" stroke-width="7.62" d="M18696 5711c246,185 493,370 493,370"/>
   <path fill="none" stroke="black" stroke-width="7.62" d="M21387 5162c-246,185 -493,370 -493,370"/>
   <path fill="none" stroke="black" stroke-width="7.62" d="M20838 5162c-246,185 -493,370 -493,370"/>
   <path fill="none" stroke="black" stroke-width="7.62" d="M20288 5162c-246,185 -493,370 -493,370"/>
   <path fill="none" stroke="black" stroke-width="7.62" d="M21387 5711c-246,185 -493,370 -493,370"/>
   <path fill="none" stroke="black" stroke-width="7.62" d="M20838 5711c-246,185 -493,370 -493,370"/>
   <path fill="none" stroke="black" stroke-width="7.62" d="M20288 5711c-246,185 -493,370 -493,370"/>
   <path fill="none" stroke="black" stroke-width="7.62" d="M17597 4063c246,185 493,370 493,370"/>
   <path fill="none" stroke="black" stroke-width="7.62" d="M18147 4063c246,185 493,370 493,370"/>
   <path fill="none" stroke="black" stroke-width="7.62" d="M18696 4063c246,185 493,370 493,370"/>
   <path fill="none" stroke="black" stroke-width="7.62" d="M17597 4612c246,185 493,370 493,370"/>
   <path fill="none" stroke="black" stroke-width="7.62" d="M18147 4612c246,185 493,370 493,370"/>
   <path fill="none" stroke="black" stroke-width="7.62" d="M18696 4612c246,185 493,370 493,370"/>
   <path fill="none" stroke="black" stroke-width="7.62" d="M21387 4063c-246,185 -493,370 -493,370"/>
   <path fill="none" stroke="black" stroke-width="7.62" d="M20838 4063c-246,185 -493,370 -493,370"/>
   <path fill="none" stroke="black" stroke-width="7.62" d="M20288 4063c-246,185 -493,370 -493,370"/>
   <path fill="none" stroke="black" stroke-width="7.62" d="M21387 4612c-246,185 -493,370 -493,370"/>
   <path fill="none" stroke="black" stroke-width="7.62" d="M20838 4612c-246,185 -493,370 -493,370"/>
   <path fill="none" stroke="black" stroke-width="7.62" d="M20288 4612c-246,185 -493,370 -493,370"/>
   <path fill="none" stroke="black" stroke-width="7.62" d="M17597 2964c246,185 493,370 493,370"/>
   <path fill="none" stroke="black" stroke-width="7.62" d="M18147 2964c246,185 493,370 493,370"/>
   <path fill="none" stroke="black" stroke-width="7.62" d="M18696 2964c246,185 493,370 493,370"/>
   <path fill="none" stroke="black" stroke-width="7.62" d="M17597 3513c246,185 493,370 493,370"/>
   <path fill="none" stroke="black" stroke-width="7.62" d="M18147 3513c246,185 493,370 493,370"/>
   <path fill="none" stroke="black" stroke-width="7.62" d="M18696 3513c246,185 493,370 493,370"/>
   <path fill="none" stroke="black" stroke-width="7.62" d="M21387 2964c-246,185 -493,370 -493,370"/>
   <path fill="none" stroke="black" stroke-width="7.62" d="M20838 2964c-246,185 -493,370 -493,370"/>
   <path fill="none" stroke="black" stroke-width="7.62" d="M20288 2964c-246,185 -493,370 -493,370"/>
   <path fill="none" stroke="black" stroke-width="7.62" d="M21387 3513c-246,185 -493,370 -493,370"/>
   <path fill="none" stroke="black" stroke-width="7.62" d="M20838 3513c-246,185 -493,370 -493,370"/>
   <path fill="none" stroke="black" stroke-width="7.62" d="M20288 3513c-246,185 -493,370 -493,370"/>
   <path fill="none" stroke="black" stroke-width="7.62" d="M17597 1865c246,185 493,370 493,370"/>
   <path fill="none" stroke="black" stroke-width="7.62" d="M18865 2054c246,185 493,370 493,370"/>
   <path fill="none" stroke="black" stroke-width="7.62" d="M17597 2414c246,185 493,370 493,370"/>
   <path fill="none" stroke="black" stroke-width="7.62" d="M18147 2414c246,185 493,370 493,370"/>
   <path fill="none" stroke="black" stroke-width="7.62" d="M18696 2414c246,185 493,370 493,370"/>
   <path fill="none" stroke="black" stroke-width="7.62" d="M21387 1865c-246,185 -493,370 -493,370"/>
   <path fill="none" stroke="black" stroke-width="7.62" d="M20838 1865c-246,185 -493,370 -493,370"/>
   <path fill="none" stroke="black" stroke-width="7.62" d="M21387 2414c-246,185 -493,370 -493,370"/>
   <path fill="none" stroke="black" stroke-width="7.62" d="M20838 2414c-246,185 -493,370 -493,370"/>
   <path fill="none" stroke="black" stroke-width="7.62" d="M20288 2414c-246,185 -493,370 -493,370"/>
  </g>
  <g id="Tigepilo_few" onclick=" parent.replacechar('Tigepilo_few')" onmousemove=" showtooltip('Tigepilo_few','Tige : peu de pilosit&#233;')" onmouseout=" hidetooltip('Tigepilo_few')" cursor="pointer" >
   <g id="glabrous_0">
     <metadata id="CorelCorpID_3">
      <odm name="Name" value="glabrous" type="0"/>
     </metadata>
    <path fill="#786432" fill-rule="nonzero" stroke="black" stroke-width="7.62" stroke-linejoin="bevel" d="M10240 1450l0 14320c127,1291 3457,1228 3420,0l0 -14320 -3420 0z"/>
    <path fill="yellow" fill-rule="nonzero" stroke="black" stroke-width="7.62" stroke-linejoin="bevel" d="M11938 2376c-925,0 -1689,-386 -1689,-878 0,-482 763,-878 1689,-878 949,0 1712,396 1712,878 0,491 -763,878 -1712,878z"/>
   </g>
   <path fill="none" stroke="black" stroke-width="7.62" d="M10655 15053c246,185 493,370 493,370"/>
   <path fill="none" stroke="black" stroke-width="7.62" d="M11204 15053c246,185 493,370 493,370"/>
   <path fill="none" stroke="black" stroke-width="7.62" d="M10105 15603c246,185 493,370 493,370"/>
   <path fill="none" stroke="black" stroke-width="7.62" d="M11204 15603c246,185 493,370 493,370"/>
   <path fill="none" stroke="black" stroke-width="7.62" d="M13895 15053c-246,185 -493,370 -493,370"/>
   <path fill="none" stroke="black" stroke-width="7.62" d="M13345 15053c-246,185 -493,370 -493,370"/>
   <path fill="none" stroke="black" stroke-width="7.62" d="M13895 15603c-246,185 -493,370 -493,370"/>
   <path fill="none" stroke="black" stroke-width="7.62" d="M12796 15603c-246,185 -493,370 -493,370"/>
   <path fill="none" stroke="black" stroke-width="7.62" d="M10655 13954c246,185 493,370 493,370"/>
   <path fill="none" stroke="black" stroke-width="7.62" d="M11204 13954c246,185 493,370 493,370"/>
   <path fill="none" stroke="black" stroke-width="7.62" d="M10105 14504c246,185 493,370 493,370"/>
   <path fill="none" stroke="black" stroke-width="7.62" d="M13895 13954c-246,185 -493,370 -493,370"/>
   <path fill="none" stroke="black" stroke-width="7.62" d="M13345 13954c-246,185 -493,370 -493,370"/>
   <path fill="none" stroke="black" stroke-width="7.62" d="M12796 14504c-246,185 -493,370 -493,370"/>
   <path fill="none" stroke="black" stroke-width="7.62" d="M10105 12855c246,185 493,370 493,370"/>
   <path fill="none" stroke="black" stroke-width="7.62" d="M10655 12855c246,185 493,370 493,370"/>
   <path fill="none" stroke="black" stroke-width="7.62" d="M11204 12855c246,185 493,370 493,370"/>
   <path fill="none" stroke="black" stroke-width="7.62" d="M10105 13405c246,185 493,370 493,370"/>
   <path fill="none" stroke="black" stroke-width="7.62" d="M13895 12855c-246,185 -493,370 -493,370"/>
   <path fill="none" stroke="black" stroke-width="7.62" d="M13345 12855c-246,185 -493,370 -493,370"/>
   <path fill="none" stroke="black" stroke-width="7.62" d="M12796 13405c-246,185 -493,370 -493,370"/>
   <path fill="none" stroke="black" stroke-width="7.62" d="M10105 11756c246,185 493,370 493,370"/>
   <path fill="none" stroke="black" stroke-width="7.62" d="M10655 11756c246,185 493,370 493,370"/>
   <path fill="none" stroke="black" stroke-width="7.62" d="M11204 12306c246,185 493,370 493,370"/>
   <path fill="none" stroke="black" stroke-width="7.62" d="M13895 11756c-246,185 -493,370 -493,370"/>
   <path fill="none" stroke="black" stroke-width="7.62" d="M13345 11756c-246,185 -493,370 -493,370"/>
   <path fill="none" stroke="black" stroke-width="7.62" d="M12796 12306c-246,185 -493,370 -493,370"/>
   <path fill="none" stroke="black" stroke-width="7.62" d="M10655 10657c246,185 493,370 493,370"/>
   <path fill="none" stroke="black" stroke-width="7.62" d="M11204 10657c246,185 493,370 493,370"/>
   <path fill="none" stroke="black" stroke-width="7.62" d="M10105 11207c246,185 493,370 493,370"/>
   <path fill="none" stroke="black" stroke-width="7.62" d="M11204 11207c246,185 493,370 493,370"/>
   <path fill="none" stroke="black" stroke-width="7.62" d="M13895 10657c-246,185 -493,370 -493,370"/>
   <path fill="none" stroke="black" stroke-width="7.62" d="M13345 10657c-246,185 -493,370 -493,370"/>
   <path fill="none" stroke="black" stroke-width="7.62" d="M13895 11207c-246,185 -493,370 -493,370"/>
   <path fill="none" stroke="black" stroke-width="7.62" d="M12796 11207c-246,185 -493,370 -493,370"/>
   <path fill="none" stroke="black" stroke-width="7.62" d="M10105 9558c246,185 493,370 493,370"/>
   <path fill="none" stroke="black" stroke-width="7.62" d="M10655 9558c246,185 493,370 493,370"/>
   <path fill="none" stroke="black" stroke-width="7.62" d="M11204 9558c246,185 493,370 493,370"/>
   <path fill="none" stroke="black" stroke-width="7.62" d="M10105 10108c246,185 493,370 493,370"/>
   <path fill="none" stroke="black" stroke-width="7.62" d="M13895 9558c-246,185 -493,370 -493,370"/>
   <path fill="none" stroke="black" stroke-width="7.62" d="M13345 9558c-246,185 -493,370 -493,370"/>
   <path fill="none" stroke="black" stroke-width="7.62" d="M12796 10108c-246,185 -493,370 -493,370"/>
   <path fill="none" stroke="black" stroke-width="7.62" d="M10105 8459c246,185 493,370 493,370"/>
   <path fill="none" stroke="black" stroke-width="7.62" d="M10655 8459c246,185 493,370 493,370"/>
   <path fill="none" stroke="black" stroke-width="7.62" d="M11204 8459c246,185 493,370 493,370"/>
   <path fill="none" stroke="black" stroke-width="7.62" d="M13345 8459c-246,185 -493,370 -493,370"/>
   <path fill="none" stroke="black" stroke-width="7.62" d="M13895 9009c-246,185 -493,370 -493,370"/>
   <path fill="none" stroke="black" stroke-width="7.62" d="M12796 9009c-246,185 -493,370 -493,370"/>
   <path fill="none" stroke="black" stroke-width="7.62" d="M10105 7360c246,185 493,370 493,370"/>
   <path fill="none" stroke="black" stroke-width="7.62" d="M10655 7360c246,185 493,370 493,370"/>
   <path fill="none" stroke="black" stroke-width="7.62" d="M11204 7360c246,185 493,370 493,370"/>
   <path fill="none" stroke="black" stroke-width="7.62" d="M13895 7360c-246,185 -493,370 -493,370"/>
   <path fill="none" stroke="black" stroke-width="7.62" d="M13345 7360c-246,185 -493,370 -493,370"/>
   <path fill="none" stroke="black" stroke-width="7.62" d="M12796 7360c-246,185 -493,370 -493,370"/>
   <path fill="none" stroke="black" stroke-width="7.62" d="M13895 7909c-246,185 -493,370 -493,370"/>
   <path fill="none" stroke="black" stroke-width="7.62" d="M12796 7909c-246,185 -493,370 -493,370"/>
   <path fill="none" stroke="black" stroke-width="7.62" d="M10105 6261c246,185 493,370 493,370"/>
   <path fill="none" stroke="black" stroke-width="7.62" d="M10655 6261c246,185 493,370 493,370"/>
   <path fill="none" stroke="black" stroke-width="7.62" d="M11204 6261c246,185 493,370 493,370"/>
   <path fill="none" stroke="black" stroke-width="7.62" d="M13895 6261c-246,185 -493,370 -493,370"/>
   <path fill="none" stroke="black" stroke-width="7.62" d="M13345 6261c-246,185 -493,370 -493,370"/>
   <path fill="none" stroke="black" stroke-width="7.62" d="M12796 6810c-246,185 -493,370 -493,370"/>
   <path fill="none" stroke="black" stroke-width="7.62" d="M10655 5162c246,185 493,370 493,370"/>
   <path fill="none" stroke="black" stroke-width="7.62" d="M11204 5162c246,185 493,370 493,370"/>
   <path fill="none" stroke="black" stroke-width="7.62" d="M10105 5711c246,185 493,370 493,370"/>
   <path fill="none" stroke="black" stroke-width="7.62" d="M13345 5162c-246,185 -493,370 -493,370"/>
   <path fill="none" stroke="black" stroke-width="7.62" d="M12796 5162c-246,185 -493,370 -493,370"/>
   <path fill="none" stroke="black" stroke-width="7.62" d="M13895 5711c-246,185 -493,370 -493,370"/>
   <path fill="none" stroke="black" stroke-width="7.62" d="M12796 5711c-246,185 -493,370 -493,370"/>
   <path fill="none" stroke="black" stroke-width="7.62" d="M10655 4063c246,185 493,370 493,370"/>
   <path fill="none" stroke="black" stroke-width="7.62" d="M11204 4063c246,185 493,370 493,370"/>
   <path fill="none" stroke="black" stroke-width="7.62" d="M10105 4612c246,185 493,370 493,370"/>
   <path fill="none" stroke="black" stroke-width="7.62" d="M13345 4063c-246,185 -493,370 -493,370"/>
   <path fill="none" stroke="black" stroke-width="7.62" d="M12796 4063c-246,185 -493,370 -493,370"/>
   <path fill="none" stroke="black" stroke-width="7.62" d="M13895 4612c-246,185 -493,370 -493,370"/>
   <path fill="none" stroke="black" stroke-width="7.62" d="M10105 2964c246,185 493,370 493,370"/>
   <path fill="none" stroke="black" stroke-width="7.62" d="M10655 2964c246,185 493,370 493,370"/>
   <path fill="none" stroke="black" stroke-width="7.62" d="M11204 2964c246,185 493,370 493,370"/>
   <path fill="none" stroke="black" stroke-width="7.62" d="M10105 3513c246,185 493,370 493,370"/>
   <path fill="none" stroke="black" stroke-width="7.62" d="M13345 2964c-246,185 -493,370 -493,370"/>
   <path fill="none" stroke="black" stroke-width="7.62" d="M13895 3513c-246,185 -493,370 -493,370"/>
   <path fill="none" stroke="black" stroke-width="7.62" d="M12796 3513c-246,185 -493,370 -493,370"/>
   <path fill="none" stroke="black" stroke-width="7.62" d="M10105 1865c246,185 493,370 493,370"/>
   <path fill="none" stroke="black" stroke-width="7.62" d="M10105 2414c246,185 493,370 493,370"/>
   <path fill="none" stroke="black" stroke-width="7.62" d="M13895 1865c-246,185 -493,370 -493,370"/>
   <path fill="none" stroke="black" stroke-width="7.62" d="M13895 2414c-246,185 -493,370 -493,370"/>
   <path fill="none" stroke="black" stroke-width="7.62" d="M12796 2414c-246,185 -493,370 -493,370"/>
  </g>
  <g id="Tigepilo_no" onclick=" parent.replacechar('Tigepilo_no')" onmousemove=" showtooltip('Tigepilo_no','Tige : sans pilosit&#233;')" onmouseout=" hidetooltip('Tigepilo_no')" cursor="pointer" >
    <metadata id="CorelCorpID_4">
     <odm name="Name" value="glabre" type="0"/>
    </metadata>
   <path fill="#786432" fill-rule="nonzero" stroke="black" stroke-width="7.62" stroke-linejoin="bevel" d="M3052 1450l0 14320c127,1291 3457,1228 3420,0l0 -14320 -3420 0z"/>
   <path fill="yellow" fill-rule="nonzero" stroke="black" stroke-width="7.62" stroke-linejoin="bevel" d="M4750 2376c-925,0 -1689,-386 -1689,-878 0,-482 763,-878 1689,-878 949,0 1712,396 1712,878 0,491 -763,878 -1712,878z"/>
  </g>
 </g>
<image xlink:href="tick.gif" id="imgtick" x="-10000" y="-10000" width="1500" height="1500"/>
<rect id="recttooltip" x="-10000" y="-10000" width="5500" height="600" fill-opacity="0.85" pointer-events="none"/>
<text id="textboxid" x="-10000" y="-10000" pointer-events="none"> </text>
</a></svg>
