<?xml version="1.0" encoding="UTF-8"?>
<!DOCTYPE svg PUBLIC "-//W3C//DTD SVG 1.1//EN" "http://www.w3.org/Graphics/SVG/1.1/DTD/svg11.dtd">
<!-- Creator: CorelDRAW X5 -->
<svg xmlns="http://www.w3.org/2000/svg" xml:space="preserve" width="100%" height="100%" shape-rendering="geometricPrecision" text-rendering="geometricPrecision" image-rendering="optimizeQuality" fill-rule="evenodd" clip-rule="evenodd"
viewBox="0 0 24000 18000"
 xmlns:xlink="http://www.w3.org/1999/xlink">
<a>
 <g id="Layer_x0020_1">
  <metadata id="CorelCorpID_0Corel-Layer"/>
  <g id="Ins_petiole" onclick="parent.replacechar('Ins_petiole')" onmousemove="parent.showtooltip('Ins_petiole','Feuille petiol&#233;e')" onmouseout="parent.hidetooltip('Ins_petiole')" cursor="pointer">
    <metadata id="CorelCorpID_1">
     <odm name="Name" value="petiolée" type="0"/>
    </metadata>
   <path fill="#B4AA1E" fill-rule="nonzero" stroke="black" stroke-width="7.62" stroke-linejoin="bevel" d="M4310 1436l0 4542c156,345 957,382 1136,14l0 -4552 -1136 -3z"/>
   <ellipse fill="#FAFA00" stroke="black" stroke-width="7.62" cx="4877" cy="1432" rx="570" ry="238"/>
   <path fill="#00C800" stroke="black" stroke-width="7.62" stroke-linejoin="bevel" d="M3665 3879c-3073,-1356 -2184,886 -2847,2674 1417,514 5294,-2120 2847,-2674z"/>
   <path fill="#00C800" stroke="black" stroke-width="7.62" stroke-linejoin="bevel" d="M4294 2841c-2749,1305 -1281,2083 -3269,3597 1985,-1383 1153,-2596 4142,-3266 -142,-14 -311,-3 -423,-37 -112,-41 -368,-233 -450,-294z"/>
  </g>
  <g id="Ins_sessile" onclick="parent.replacechar('Ins_sessile')" onmousemove="parent.showtooltip('Ins_sessile','Feuille sessile')" onmouseout="parent.hidetooltip('Ins_sessile')" cursor="pointer">
    <metadata id="CorelCorpID_2">
     <odm name="Name" value="sessile" type="0"/>
    </metadata>
   <path fill="#B4AA1E" fill-rule="nonzero" stroke="black" stroke-width="7.62" stroke-linejoin="bevel" d="M9396 1274l0 4542c156,345 957,382 1136,14l0 -4552 -1136 -3z"/>
   <ellipse fill="#FAFA00" stroke="black" stroke-width="7.62" cx="9964" cy="1270" rx="570" ry="238"/>
   <path fill="#00C800" stroke="black" stroke-width="7.62" stroke-linejoin="bevel" d="M10056 2911c-504,61 -531,-210 -649,-257 -3283,314 -2127,1288 -2762,2999 754,267 1751,-402 2630,-2025 294,-328 565,-598 781,-717z"/>
   <path id="nervure" fill="#00C800" stroke="black" stroke-width="7.62" stroke-linejoin="bevel" d="M9434 2675c-2228,1055 -1481,1674 -2583,2864 1285,-893 314,-2005 3063,-2613 -331,3 -416,-199 -480,-250z">
    <metadata id="CorelCorpID_3">
     <odm name="Name" value="nervure" type="0"/>
    </metadata>
   </path>
  </g>
  <g id="Ins_embrass" onclick="parent.replacechar('Ins_embrass')" onmousemove="parent.showtooltip('Ins_embrass','Feuille embrassante')" onmouseout="parent.hidetooltip('Ins_embrass')" cursor="pointer">
    <metadata id="CorelCorpID_4">
     <odm name="Name" value="engainante" type="0"/>
    </metadata>
   <path fill="#B4AA1E" fill-rule="nonzero" stroke="black" stroke-width="7.62" stroke-linejoin="bevel" d="M15089 1274l0 4542c156,345 957,382 1136,14l0 -4552 -1136 -3z"/>
   <ellipse fill="#FAFA00" stroke="black" stroke-width="7.62" cx="15656" cy="1270" rx="570" ry="238"/>
   <path fill="#00C800" fill-rule="nonzero" stroke="black" stroke-width="7.62" stroke-linejoin="bevel" d="M15088 2554c0,322 3,1846 3,2085 13,52 25,175 222,195 201,23 100,13 240,13 165,-6 214,-62 249,-32 29,26 94,87 107,149 13,62 13,172 -26,230 -45,68 -165,104 -256,162 -505,155 -648,152 -1172,3 -903,-246 -1350,-641 -2088,-1230l-1004 -903 2632 -1463c330,269 719,479 1092,793z"/>
   <path id="nervure_0" fill="#00C800" stroke="black" stroke-width="7.62" stroke-linejoin="bevel" d="M15090 4109c-971,-1569 -1309,-878 -2286,-1598 772,881 1606,61 2289,2056 -6,-235 -5,-389 -3,-458z">
    <metadata id="CorelCorpID_5">
     <odm name="Name" value="nervure" type="0"/>
    </metadata>
   </path>
   <path fill="#00C800" stroke="black" stroke-width="7.62" stroke-linejoin="bevel" d="M16222 3488l-14 1059c-78,9 -88,189 -32,281 55,92 170,184 253,97 83,-88 221,-373 184,-700 -37,-327 -147,-437 -286,-626 -138,-189 -106,-111 -106,-111z"/>
  </g>
  <g id="Ins_decurente" onclick="parent.replacechar('Ins_decurente')" onmousemove="parent.showtooltip('Ins_decurente','Feuille d&#233;currente')" onmouseout="parent.hidetooltip('Ins_decurente')" cursor="pointer">
   <path fill="#B4AA1E" stroke="black" stroke-width="7.62" stroke-linejoin="bevel" d="M21138 4008l0 2615c135,302 1032,375 1157,27l0 -2350 -1157 -293z"/>
   <path fill="#00C800" stroke="black" stroke-width="7.62" stroke-linejoin="bevel" d="M20132 981c731,594 1920,1289 2231,1747 247,357 265,494 283,613 18,137 18,238 18,302 0,73 -18,146 -37,247 -18,82 -155,229 -210,284 -27,46 -311,137 -265,110 0,-18 -55,-366 -119,-393 -265,-146 -494,-366 -549,-347 -101,0 -347,18 -311,219 18,46 91,128 229,247 174,146 0,-27 219,174 9,9 156,165 174,201 55,64 91,174 91,229 0,64 0,265 0,347 0,649 18,896 18,914 0,27 73,338 -183,165 -110,-64 -101,-101 -73,-192 46,-110 -219,-174 -128,-338 165,-311 -210,-247 -183,-457 37,-293 293,-384 128,-475 -156,-82 -384,46 -887,-110 -887,-238 -1317,-613 -2030,-1189l-969 -869 2551 -1426z"/>
   <path fill="#B4AA1E" stroke="black" stroke-width="7.62" stroke-linejoin="bevel" d="M22295 4291c0,-155 0,-210 0,-210l8 -1308 -1138 -9 0 1198c-10,37 42,174 105,247 63,82 146,82 230,91 94,18 293,18 377,64m418 -73l0 0 0 0z"/>
   <line fill="none" stroke="black" stroke-width="7.62" stroke-linejoin="bevel" x1="21848" y1="3033" x2="21848" y2= "3920" />
   <path id="nervure_1" fill="#00C800" stroke="black" stroke-width="7.62" stroke-linejoin="bevel" d="M21165 3277c-991,-1602 -1304,-856 -2302,-1591 787,899 1603,58 2300,2093 -6,-239 0,-432 2,-502z">
    <metadata id="CorelCorpID_6">
     <odm name="Name" value="nervure" type="0"/>
    </metadata>
   </path>
   <ellipse fill="#FAFA00" stroke="black" stroke-width="7.62" cx="21737" cy="2781" rx="570" ry="238"/>
  </g>
  <g id="Ins_ochrea" onclick="parent.replacechar('Ins_ochrea')" onmousemove="parent.showtooltip('Ins_ochrea','Feuille &#224; ochr&#233;a')" onmouseout="parent.hidetooltip('Ins_ochrea')" cursor="pointer">
    <metadata id="CorelCorpID_7">
     <odm name="Name" value="ochrea" type="0"/>
    </metadata>
   <path fill="#00C800" stroke="black" stroke-width="7.62" d="M3713 9708c716,-692 1145,-1132 1790,-1683 376,433 988,1194 1924,1756 1,342 35,505 27,934 -249,37 -408,-189 -789,-268 -1061,-221 -2518,-539 -2953,-739z"/>
   <path fill="none" stroke="black" stroke-width="7.62" stroke-linejoin="bevel" d="M4659 8821c820,642 2622,1318 2673,1694"/>
   <path fill="none" stroke="black" stroke-width="7.62" stroke-linejoin="bevel" d="M4397 9074c844,645 2609,1106 2824,1469"/>
   <path fill="none" stroke="black" stroke-width="7.62" stroke-linejoin="bevel" d="M3976 9467c930,417 2002,659 3009,988"/>
   <path fill="none" stroke="black" stroke-width="7.62" stroke-linejoin="bevel" d="M4940 8561c745,684 2123,1279 2412,1746"/>
   <path fill="none" stroke="black" stroke-width="7.62" stroke-linejoin="bevel" d="M5259 8258c630,767 2082,1544 2103,1804"/>
   <path fill="#00C800" stroke="black" stroke-width="7.62" stroke-linejoin="bevel" d="M6884 7842c582,645 185,2357 572,2888 353,339 693,380 1099,47 188,-165 266,-1997 286,-2965 34,0 -527,-926 -1957,30z"/>
   <line fill="none" x1="8635" y1="8219" x2="8635" y2= "7883" />
   <path fill="none" stroke="black" stroke-width="7.62" stroke-linejoin="bevel" d="M8208 10730c185,-40 104,-1604 131,-2229 326,-77 467,-635 501,-726 -242,-487 -756,-158 -1506,-150 42,247 56,359 -16,397m16 55c182,145 958,403 1301,-195"/>
   <path fill="#00C800" stroke="black" stroke-width="7.62" stroke-linejoin="bevel" d="M8471 7495c91,-6 285,89 377,302 2,121 -194,419 -203,449 -6,-83 -15,-230 -12,-342 -44,71 -97,185 -161,195 -4,-128 2,-430 0,-603z"/>
   <path fill="#B4AA1E" fill-rule="nonzero" stroke="black" stroke-width="7.62" stroke-linejoin="bevel" d="M8471 8099l0 -1161 -1152 -3c1,572 -12,814 1,1160 331,191 813,250 1151,4z"/>
   <path fill="#B4AA1E" fill-rule="nonzero" stroke="black" stroke-width="7.62" stroke-linejoin="bevel" d="M8574 10777c-361,204 -533,322 -1137,-75l19 858c388,251 792,217 1123,0l-4 -784z"/>
   <ellipse fill="#FAFA00" stroke="black" stroke-width="7.62" cx="7895" cy="6936" rx="578" ry="242"/>
  </g>
  <g id="Ins_gaine_ferme" onclick="parent.replacechar('Ins_gaine_ferme')" onmousemove="parent.showtooltip('Ins_gaine_ferme','Feuille &#224; gaine ferm&#233;e')" onmouseout="parent.hidetooltip('Ins_gaine_ferme')" cursor="pointer">
    <metadata id="CorelCorpID_8">
     <odm name="Name" value="gaine fermée" type="0"/>
    </metadata>
   <path fill="#B4AA1E" fill-rule="nonzero" stroke="black" stroke-width="7.62" stroke-linejoin="bevel" d="M15005 11058c-361,204 -533,322 -1137,-75l19 552c388,394 792,344 1123,0l-4 -477z"/>
   <path fill="#00C800" stroke="black" stroke-width="7.62" stroke-linejoin="bevel" d="M12487 6719l-16 559c223,60 347,81 491,289 135,234 397,776 435,1256 38,479 58,1668 58,1668 0,0 77,748 1036,767 959,19 826,-832 825,-862 -14,-741 38,-1790 39,-2612 0,-182 -162,-965 -1328,-813 -452,59 -402,122 -891,141 -274,-217 -400,-305 -649,-393z"/>
   <path fill="none" stroke="black" stroke-width="7.62" d="M13998 11062c0,0 -320,-262 -340,-454"/>
   <path fill="none" stroke="black" stroke-width="7.62" d="M14124 11087c42,16 -165,-191 -192,-436"/>
   <path fill="none" stroke="black" stroke-width="7.62" d="M14316 11096c0,0 -54,-365 -25,-436"/>
   <path fill="none" stroke="black" stroke-width="7.62" d="M14501 11114c0,0 159,-273 159,-427"/>
   <path fill="none" stroke="black" stroke-width="7.62" d="M14697 11115c0,0 240,-212 240,-442"/>
   <path fill="none" stroke="black" stroke-width="7.62" d="M14860 11110c24,15 322,-282 331,-417"/>
   <path fill="none" stroke="black" stroke-width="7.62" d="M15343 7685c40,471 -984,952 -1650,352 -160,-144 -660,-625 -960,-675"/>
   <path fill="none" stroke="black" stroke-width="7.62" d="M12474 6998c0,0 634,96 790,663"/>
   <path fill="#B4AA1E" fill-rule="nonzero" stroke="black" stroke-width="7.62" stroke-linejoin="bevel" d="M15005 8165l0 -1161 -1152 -3c1,572 -12,814 1,1160 331,191 813,250 1151,4z"/>
   <ellipse fill="#FAFA00" stroke="black" stroke-width="7.62" cx="14429" cy="7002" rx="578" ry="242"/>
  </g>
  <g id="Ins_gram" onclick="parent.replacechar('Ins_gram')" onmousemove="parent.showtooltip('Ins_gram','Feuille &#224; gaine de gramin&#233;e')" onmouseout="parent.hidetooltip('Ins_gram')" cursor="pointer">
    <metadata id="CorelCorpID_9">
     <odm name="Name" value="gaine ouverte" type="0"/>
    </metadata>
   <path fill="#00C800" stroke="black" stroke-width="7.62" stroke-linejoin="bevel" d="M13462 13493c606,672 193,2454 595,3007 368,354 721,396 1145,49 196,-172 277,-2079 298,-3087 35,0 -193,-259 -2037,31z"/>
   <line fill="none" x1="15286" y1="13885" x2="15286" y2= "13535" />
   <path fill="none" stroke="black" stroke-width="7.62" stroke-linejoin="bevel" d="M14841 16500c193,-42 109,-1670 137,-2321 340,-80 487,-662 522,-756 -252,-508 -788,-165 -1568,-156 43,257 58,374 -17,414m17 57c189,151 998,420 1355,-203"/>
   <path fill="#00C800" stroke="black" stroke-width="7.62" d="M10048 12712c745,-721 1192,-1179 1864,-1753 391,451 1029,1243 2003,1828 1,356 6,447 -1,894 -260,38 -396,-117 -792,-200 -1104,-230 -2622,-562 -3075,-769z"/>
   <path fill="none" stroke="black" stroke-width="7.62" stroke-linejoin="bevel" d="M11033 11788c854,669 2730,1372 2783,1764"/>
   <path fill="none" stroke="black" stroke-width="7.62" stroke-linejoin="bevel" d="M10760 12051c879,672 2716,1152 2940,1530"/>
   <path fill="none" stroke="black" stroke-width="7.62" stroke-linejoin="bevel" d="M10322 12461c968,434 2084,686 3133,1029"/>
   <path fill="none" stroke="black" stroke-width="7.62" stroke-linejoin="bevel" d="M11326 11517c775,712 2211,1332 2511,1818"/>
   <path fill="none" stroke="black" stroke-width="7.62" stroke-linejoin="bevel" d="M11657 11201c656,799 2168,1608 2190,1879"/>
   <path fill="#00C800" stroke="black" stroke-width="7.62" stroke-linejoin="bevel" d="M15115 13132c95,-7 297,93 393,315 2,126 -202,437 -212,467 -6,-87 -15,-240 -13,-357 -45,74 -102,193 -168,203 -5,-134 2,-448 0,-628z"/>
   <path fill="#B4AA1E" fill-rule="nonzero" stroke="black" stroke-width="7.62" stroke-linejoin="bevel" d="M15116 13760l0 -1209 -1199 -4c1,596 -13,847 1,1208 344,198 847,261 1198,5z"/>
   <path fill="#B4AA1E" fill-rule="nonzero" stroke="black" stroke-width="7.62" stroke-linejoin="bevel" d="M15222 16549c-376,213 -556,335 -1184,-78l19 575c404,411 825,358 1169,0l-4 -497z"/>
   <ellipse fill="#FAFA00" stroke="black" stroke-width="7.62" cx="14516" cy="12549" rx="601" ry="252"/>
  </g>
  <g id="Ins_poilue" onclick="parent.replacechar('Ins_poilue')" onmousemove="parent.showtooltip('Ins_poilue','Feuille &#224; gaine de gramin&#233;e et noeud pubescent')" onmouseout="parent.hidetooltip('Ins_poilue')" cursor="pointer">
    <metadata id="CorelCorpID_10">
     <odm name="Name" value="gaine poilue" type="0"/>
    </metadata>
   <path fill="#00C800" stroke="black" stroke-width="7.62" stroke-linejoin="bevel" d="M4688 13519c602,668 191,2438 591,2987 365,351 716,393 1137,49 195,-170 275,-2066 296,-3067 35,0 -191,-257 -2024,31z"/>
   <line fill="none" x1="6499" y1="13908" x2="6499" y2= "13560" />
   <path fill="none" stroke="black" stroke-width="7.62" stroke-linejoin="bevel" d="M6058 16506c191,-42 108,-1659 136,-2306 337,-80 483,-657 518,-751 -250,-504 -782,-163 -1558,-155 43,255 58,371 -16,411m16 57c188,150 991,417 1346,-202"/>
   <path fill="#00C800" stroke="black" stroke-width="7.62" d="M1296 12742c740,-716 1184,-1171 1852,-1741 388,448 1022,1235 1990,1816 1,354 6,444 -1,888 -258,38 -393,-117 -787,-199 -1097,-229 -2604,-558 -3054,-764z"/>
   <path fill="none" stroke="black" stroke-width="7.62" stroke-linejoin="bevel" d="M2274 11825c848,664 2712,1363 2765,1753"/>
   <path fill="none" stroke="black" stroke-width="7.62" stroke-linejoin="bevel" d="M2003 12086c873,668 2698,1144 2921,1520"/>
   <path fill="none" stroke="black" stroke-width="7.62" stroke-linejoin="bevel" d="M1568 12493c962,431 2070,681 3113,1022"/>
   <path fill="none" stroke="black" stroke-width="7.62" stroke-linejoin="bevel" d="M2565 11556c770,708 2196,1323 2495,1806"/>
   <path fill="none" stroke="black" stroke-width="7.62" stroke-linejoin="bevel" d="M2894 11242c651,794 2154,1597 2176,1866"/>
   <path fill="#00C800" stroke="black" stroke-width="7.62" stroke-linejoin="bevel" d="M6330 13160c95,-6 295,92 390,313 2,125 -201,434 -210,464 -6,-86 -15,-238 -12,-354 -45,73 -101,191 -167,202 -5,-133 2,-445 0,-624z"/>
   <path fill="#B4AA1E" fill-rule="nonzero" stroke="black" stroke-width="7.62" stroke-linejoin="bevel" d="M6330 13784l0 -1201 -1191 -4c1,592 -13,842 1,1200 342,197 841,259 1190,5z"/>
   <path fill="#B4AA1E" fill-rule="nonzero" stroke="black" stroke-width="7.62" stroke-linejoin="bevel" d="M6436 16554c-374,211 -552,333 -1176,-77l19 571c402,408 820,356 1161,0l-4 -494z"/>
   <ellipse fill="#FAFA00" stroke="black" stroke-width="7.62" cx="5734" cy="12581" rx="597" ry="250"/>
   <path fill="none" stroke="black" stroke-width="7.62" d="M6202 17132c190,-138 383,-260 597,-428"/>
   <path fill="none" stroke="black" stroke-width="7.62" d="M6309 16945c167,-165 339,-315 525,-513"/>
   <path fill="none" stroke="black" stroke-width="7.62" d="M5417 16936c-190,-138 -383,-260 -597,-428"/>
   <path fill="none" stroke="black" stroke-width="7.62" d="M5382 16720c-156,-175 -319,-335 -493,-545"/>
   <path fill="none" stroke="black" stroke-width="7.62" d="M5751 17004c-95,-214 -202,-416 -304,-669"/>
   <path fill="none" stroke="black" stroke-width="7.62" d="M5887 17035c20,-234 25,-462 59,-732"/>
   <path fill="none" stroke="black" stroke-width="7.62" d="M6116 17021c70,-224 123,-446 214,-703"/>
   <path fill="none" stroke="black" stroke-width="7.62" d="M6156 16150c70,-224 123,-446 214,-703"/>
   <path fill="none" stroke="black" stroke-width="7.62" d="M6187 15486c-70,-224 -123,-446 -214,-703"/>
   <path fill="none" stroke="black" stroke-width="7.62" d="M6130 16388c-70,-224 -123,-446 -214,-703"/>
   <path fill="none" stroke="black" stroke-width="7.62" d="M6192 15042c70,-224 123,-446 214,-703"/>
   <path fill="none" stroke="black" stroke-width="7.62" d="M6170 15828c-144,-185 -272,-374 -448,-582"/>
  </g>
  <g id="Ins_cyper" onclick="parent.replacechar('Ins_cyper')" onmousemove="parent.showtooltip('Ins_cyper','Feuille de cyp&#233;rac&#233;e')" onmouseout="parent.hidetooltip('Ins_cyper')" cursor="pointer">
    <metadata id="CorelCorpID_11">
     <odm name="Name" value="cyperacee" type="0"/>
    </metadata>
   <polygon fill="#00C800" stroke="black" stroke-width="7.62" stroke-linejoin="bevel" points="18863,12015 22334,14231 21493,14599 18613,12514 "/>
   <polygon fill="#B4AA1E" stroke="black" stroke-width="7.62" stroke-linejoin="bevel" points="20758,14540 20758,12432 21552,12731 22219,12301 22235,14855 "/>
   <polygon fill="#00C800" stroke="black" stroke-width="7.62" stroke-linejoin="bevel" points="18426,12688 20646,14323 20646,16924 21572,17335 22321,16931 22321,14251 21562,14599 18219,12117 "/>
   <polygon fill="#FAFA00" stroke="black" stroke-width="7.62" stroke-linejoin="bevel" points="20758,12432 21562,12731 22203,12301 "/>
   <polygon fill="#00C800" stroke="black" stroke-width="7.62" stroke-linejoin="bevel" points="21562,14599 21562,17282 "/>
   <polygon fill="#00C800" stroke="black" stroke-width="7.62" stroke-linejoin="bevel" points="21562,12744 21562,14491 "/>
   <polygon fill="#00C800" stroke="black" stroke-width="8.82" stroke-linejoin="bevel" points="20744,14360 21454,14576 "/>
  </g>
 </g>
<image xlink:href="tick.gif" id="imgtick" x="-10000" y="-10000" width="1500" height="1500"/>
<rect id="recttooltip" x="-10000" y="-10000" width="5500" height="600" fill-opacity="0.85" pointer-events="none"/>
<text id="textboxid" x="-10000" y="-10000" pointer-events="none"> </text>
</a></svg>
