<?xml version="1.0" encoding="UTF-8"?>
<!DOCTYPE svg PUBLIC "-//W3C//DTD SVG 1.1//EN" "http://www.w3.org/Graphics/SVG/1.1/DTD/svg11.dtd">
<!-- Creator: CorelDRAW X5 -->
<svg xmlns="http://www.w3.org/2000/svg" xml:space="preserve" width="100%" height="100%" shape-rendering="geometricPrecision" text-rendering="geometricPrecision" image-rendering="optimizeQuality" fill-rule="evenodd" clip-rule="evenodd"
viewBox="0 0 24000 18000"
 xmlns:xlink="http://www.w3.org/1999/xlink">
<a>
 <g id="Layer_x0020_1">
  <metadata id="CorelCorpID_0Corel-Layer"/>
  <g id="L_bip" onclick="parent.replacechar('L_bip')" onmousemove="parent.showtooltip('L_bip','Feuille compos&#233;e bipenn&#233;e')" onmouseout="parent.hidetooltip('L_bip')" cursor="pointer">
    <metadata id="CorelCorpID_1">
     <odm name="Name" value="Mimosa" type="0"/>
    </metadata>
   <g>
    <polygon fill="#00923F" stroke="black" stroke-width="7.62" stroke-linejoin="bevel" points="18326,6882 16986,9198 "/>
    <g>
     <ellipse fill="#00923F" stroke="black" stroke-width="7.62" transform="matrix(-0.852487 0.225281 0.248747 0.941287 18160.6 6806.96)" rx="78" ry="193"/>
     <line fill="none" stroke="black" stroke-width="7.62" x1="18116" y1="6651" x2="18229" y2= "7053" />
    </g>
    <g>
     <ellipse fill="#00923F" stroke="black" stroke-width="7.62" transform="matrix(-0.852487 0.225281 0.248747 0.941287 18004.4 7073.66)" rx="78" ry="193"/>
     <line fill="none" stroke="black" stroke-width="7.62" x1="17960" y1="6918" x2="18072" y2= "7319" />
    </g>
    <g>
     <ellipse fill="#00923F" stroke="black" stroke-width="7.62" transform="matrix(-0.852487 0.225281 0.248747 0.941287 17844.4 7354.59)" rx="78" ry="193"/>
     <line fill="none" stroke="black" stroke-width="7.62" x1="17800" y1="7199" x2="17912" y2= "7600" />
    </g>
    <g>
     <ellipse fill="#00923F" stroke="black" stroke-width="7.62" transform="matrix(-0.852487 0.225281 0.248747 0.941287 17704.6 7592.54)" rx="78" ry="193"/>
     <line fill="none" stroke="black" stroke-width="7.62" x1="17660" y1="7437" x2="17773" y2= "7838" />
    </g>
    <g>
     <ellipse fill="#00923F" stroke="black" stroke-width="7.62" transform="matrix(-0.852487 0.225281 0.248747 0.941287 17547.5 7862.91)" rx="78" ry="193"/>
     <line fill="none" stroke="black" stroke-width="7.62" x1="17503" y1="7707" x2="17616" y2= "8109" />
    </g>
    <g>
     <ellipse fill="#00923F" stroke="black" stroke-width="7.62" transform="matrix(-0.852487 0.225281 0.248747 0.941287 17402.9 8120.05)" rx="78" ry="193"/>
     <line fill="none" stroke="black" stroke-width="7.62" x1="17359" y1="7965" x2="17471" y2= "8366" />
    </g>
    <g>
     <ellipse fill="#00923F" stroke="black" stroke-width="7.62" transform="matrix(-0.852487 0.225281 0.248747 0.941287 17245.4 8388.56)" rx="78" ry="193"/>
     <line fill="none" stroke="black" stroke-width="7.62" x1="17201" y1="8233" x2="17313" y2= "8634" />
    </g>
    <g>
     <ellipse fill="#00923F" stroke="black" stroke-width="7.62" transform="matrix(-0.852487 0.225281 0.248747 0.941287 17117 8609.56)" rx="78" ry="193"/>
     <line fill="none" stroke="black" stroke-width="7.62" x1="17073" y1="8454" x2="17185" y2= "8855" />
    </g>
    <g>
     <ellipse fill="#00923F" stroke="black" stroke-width="7.62" transform="matrix(-0.213618 -0.855483 -0.944596 0.23587 18474.8 6988.18)" rx="78" ry="193"/>
     <line fill="none" stroke="black" stroke-width="7.62" x1="18631" y1="6946" x2="18228" y2= "7053" />
    </g>
    <g>
     <ellipse fill="#00923F" stroke="black" stroke-width="7.62" transform="matrix(-0.213618 -0.855483 -0.944596 0.23587 18318.6 7256.51)" rx="78" ry="193"/>
     <line fill="none" stroke="black" stroke-width="7.62" x1="18475" y1="7214" x2="18072" y2= "7321" />
    </g>
    <g>
     <ellipse fill="#00923F" stroke="black" stroke-width="7.62" transform="matrix(-0.213618 -0.855483 -0.944596 0.23587 18159.8 7534.43)" rx="78" ry="193"/>
     <line fill="none" stroke="black" stroke-width="7.62" x1="18316" y1="7492" x2="17913" y2= "7599" />
    </g>
    <g>
     <ellipse fill="#00923F" stroke="black" stroke-width="7.62" transform="matrix(-0.213618 -0.855483 -0.944596 0.23587 18018.9 7775.02)" rx="78" ry="193"/>
     <line fill="none" stroke="black" stroke-width="7.62" x1="18175" y1="7733" x2="17772" y2= "7840" />
    </g>
    <g>
     <ellipse fill="#00923F" stroke="black" stroke-width="7.62" transform="matrix(-0.213618 -0.855483 -0.944596 0.23587 17862.9 8047.3)" rx="78" ry="193"/>
     <line fill="none" stroke="black" stroke-width="7.62" x1="18019" y1="8005" x2="17616" y2= "8112" />
    </g>
    <g>
     <ellipse fill="#00923F" stroke="black" stroke-width="7.62" transform="matrix(-0.213618 -0.855483 -0.944596 0.23587 17717 8298.94)" rx="78" ry="193"/>
     <line fill="none" stroke="black" stroke-width="7.62" x1="17873" y1="8257" x2="17470" y2= "8364" />
    </g>
    <g>
     <ellipse fill="#00923F" stroke="black" stroke-width="7.62" transform="matrix(-0.213618 -0.855483 -0.944596 0.23587 17559.4 8568.56)" rx="78" ry="193"/>
     <line fill="none" stroke="black" stroke-width="7.62" x1="17716" y1="8526" x2="17313" y2= "8633" />
    </g>
    <g>
     <ellipse fill="#00923F" stroke="black" stroke-width="7.62" transform="matrix(-0.213618 -0.855483 -0.944596 0.23587 17433.6 8789.76)" rx="78" ry="193"/>
     <line fill="none" stroke="black" stroke-width="7.62" x1="17590" y1="8748" x2="17187" y2= "8854" />
    </g>
   </g>
   <g>
    <polygon fill="#00923F" stroke="black" stroke-width="7.62" stroke-linejoin="bevel" points="19221,8395 17007,9505 "/>
    <g>
     <ellipse fill="#00923F" stroke="black" stroke-width="7.62" transform="matrix(-0.836158 -0.279865 -0.309018 0.923258 19123.7 8240.81)" rx="78" ry="193"/>
     <line fill="none" stroke="black" stroke-width="7.62" x1="19172" y1="8087" x2="19046" y2= "8484" />
    </g>
    <g>
     <ellipse fill="#00923F" stroke="black" stroke-width="7.62" transform="matrix(-0.836158 -0.279865 -0.309018 0.923258 18846.8 8377.96)" rx="78" ry="193"/>
     <line fill="none" stroke="black" stroke-width="7.62" x1="18895" y1="8224" x2="18769" y2= "8621" />
    </g>
    <g>
     <ellipse fill="#00923F" stroke="black" stroke-width="7.62" transform="matrix(-0.836158 -0.279865 -0.309018 0.923258 18558.7 8524.83)" rx="78" ry="193"/>
     <line fill="none" stroke="black" stroke-width="7.62" x1="18607" y1="8371" x2="18481" y2= "8768" />
    </g>
    <g>
     <ellipse fill="#00923F" stroke="black" stroke-width="7.62" transform="matrix(-0.836158 -0.279865 -0.309018 0.923258 18311.2 8646.93)" rx="78" ry="193"/>
     <line fill="none" stroke="black" stroke-width="7.62" x1="18360" y1="8493" x2="18233" y2= "8890" />
    </g>
    <g>
     <ellipse fill="#00923F" stroke="black" stroke-width="7.62" transform="matrix(-0.836158 -0.279865 -0.309018 0.923258 18031.5 8786.64)" rx="78" ry="193"/>
     <line fill="none" stroke="black" stroke-width="7.62" x1="18080" y1="8632" x2="17953" y2= "9029" />
    </g>
    <g>
     <ellipse fill="#00923F" stroke="black" stroke-width="7.62" transform="matrix(-0.836158 -0.279865 -0.309018 0.923258 17769.4 8922.11)" rx="78" ry="193"/>
     <line fill="none" stroke="black" stroke-width="7.62" x1="17818" y1="8768" x2="17691" y2= "9165" />
    </g>
    <g>
     <ellipse fill="#00923F" stroke="black" stroke-width="7.62" transform="matrix(-0.836158 -0.279865 -0.309018 0.923258 17490.3 9060.01)" rx="78" ry="193"/>
     <line fill="none" stroke="black" stroke-width="7.62" x1="17539" y1="8906" x2="17412" y2= "9303" />
    </g>
    <g>
     <ellipse fill="#00923F" stroke="black" stroke-width="7.62" transform="matrix(-0.836158 -0.279865 -0.309018 0.923258 17261.7 9174.21)" rx="78" ry="193"/>
     <line fill="none" stroke="black" stroke-width="7.62" x1="17310" y1="9020" x2="17184" y2= "9417" />
    </g>
    <g>
     <ellipse fill="#00923F" stroke="black" stroke-width="7.62" transform="matrix(0.291257 -0.832258 -0.918952 -0.321597 19286.8 8564.79)" rx="78" ry="193"/>
     <line fill="none" stroke="black" stroke-width="7.62" x1="19440" y1="8615" x2="19045" y2= "8483" />
    </g>
    <g>
     <ellipse fill="#00923F" stroke="black" stroke-width="7.62" transform="matrix(0.291257 -0.832258 -0.918952 -0.321597 19008.9 8703.3)" rx="78" ry="193"/>
     <line fill="none" stroke="black" stroke-width="7.62" x1="19163" y1="8754" x2="18767" y2= "8622" />
    </g>
    <g>
     <ellipse fill="#00923F" stroke="black" stroke-width="7.62" transform="matrix(0.291257 -0.832258 -0.918952 -0.321597 18723.6 8848.35)" rx="78" ry="193"/>
     <line fill="none" stroke="black" stroke-width="7.62" x1="18877" y1="8899" x2="18482" y2= "8767" />
    </g>
    <g>
     <ellipse fill="#00923F" stroke="black" stroke-width="7.62" transform="matrix(0.291257 -0.832258 -0.918952 -0.321597 18473.7 8972.03)" rx="78" ry="193"/>
     <line fill="none" stroke="black" stroke-width="7.62" x1="18627" y1="9023" x2="18232" y2= "8891" />
    </g>
    <g>
     <ellipse fill="#00923F" stroke="black" stroke-width="7.62" transform="matrix(0.291257 -0.832258 -0.918952 -0.321597 18193.8 9113.93)" rx="78" ry="193"/>
     <line fill="none" stroke="black" stroke-width="7.62" x1="18347" y1="9164" x2="17952" y2= "9033" />
    </g>
    <g>
     <ellipse fill="#00923F" stroke="black" stroke-width="7.62" transform="matrix(0.291257 -0.832258 -0.918952 -0.321597 17933.7 9244.11)" rx="78" ry="193"/>
     <line fill="none" stroke="black" stroke-width="7.62" x1="18087" y1="9295" x2="17692" y2= "9163" />
    </g>
    <g>
     <ellipse fill="#00923F" stroke="black" stroke-width="7.62" transform="matrix(0.291257 -0.832258 -0.918952 -0.321597 17653.9 9382.89)" rx="78" ry="193"/>
     <line fill="none" stroke="black" stroke-width="7.62" x1="17808" y1="9433" x2="17412" y2= "9302" />
    </g>
    <g>
     <ellipse fill="#00923F" stroke="black" stroke-width="7.62" transform="matrix(0.291257 -0.832258 -0.918952 -0.321597 17427.4 9498.7)" rx="78" ry="193"/>
     <line fill="none" stroke="black" stroke-width="7.62" x1="17581" y1="9549" x2="17186" y2= "9417" />
    </g>
   </g>
   <polygon fill="#00923F" stroke="black" stroke-width="7.62" stroke-linejoin="bevel" points="16979,9107 17039,9107 17039,10124 16979,10124 "/>
   <g>
    <polygon fill="#00923F" stroke="black" stroke-width="7.62" stroke-linejoin="bevel" points="14752,8370 16966,9481 "/>
    <g>
     <ellipse fill="#00923F" stroke="black" stroke-width="7.62" transform="matrix(0.836158 -0.279865 0.309018 0.923258 14849 8216.41)" rx="78" ry="193"/>
     <line fill="none" stroke="black" stroke-width="7.62" x1="14801" y1="8062" x2="14927" y2= "8459" />
    </g>
    <g>
     <ellipse fill="#00923F" stroke="black" stroke-width="7.62" transform="matrix(0.836158 -0.279865 0.309018 0.923258 15126 8353.55)" rx="78" ry="193"/>
     <line fill="none" stroke="black" stroke-width="7.62" x1="15078" y1="8199" x2="15204" y2= "8596" />
    </g>
    <g>
     <ellipse fill="#00923F" stroke="black" stroke-width="7.62" transform="matrix(0.836158 -0.279865 0.309018 0.923258 15414.1 8500.42)" rx="78" ry="193"/>
     <line fill="none" stroke="black" stroke-width="7.62" x1="15366" y1="8346" x2="15492" y2= "8743" />
    </g>
    <g>
     <ellipse fill="#00923F" stroke="black" stroke-width="7.62" transform="matrix(0.836158 -0.279865 0.309018 0.923258 15661.6 8622.52)" rx="78" ry="193"/>
     <line fill="none" stroke="black" stroke-width="7.62" x1="15613" y1="8468" x2="15740" y2= "8865" />
    </g>
    <g>
     <ellipse fill="#00923F" stroke="black" stroke-width="7.62" transform="matrix(0.836158 -0.279865 0.309018 0.923258 15941.3 8762.23)" rx="78" ry="193"/>
     <line fill="none" stroke="black" stroke-width="7.62" x1="15893" y1="8608" x2="16019" y2= "9005" />
    </g>
    <g>
     <ellipse fill="#00923F" stroke="black" stroke-width="7.62" transform="matrix(0.836158 -0.279865 0.309018 0.923258 16203.4 8897.7)" rx="78" ry="193"/>
     <line fill="none" stroke="black" stroke-width="7.62" x1="16155" y1="8743" x2="16281" y2= "9140" />
    </g>
    <g>
     <ellipse fill="#00923F" stroke="black" stroke-width="7.62" transform="matrix(0.836158 -0.279865 0.309018 0.923258 16482.5 9035.6)" rx="78" ry="193"/>
     <line fill="none" stroke="black" stroke-width="7.62" x1="16434" y1="8881" x2="16561" y2= "9278" />
    </g>
    <g>
     <ellipse fill="#00923F" stroke="black" stroke-width="7.62" transform="matrix(0.836158 -0.279865 0.309018 0.923258 16711.1 9149.8)" rx="78" ry="193"/>
     <line fill="none" stroke="black" stroke-width="7.62" x1="16663" y1="8996" x2="16789" y2= "9393" />
    </g>
    <g>
     <ellipse fill="#00923F" stroke="black" stroke-width="7.62" transform="matrix(-0.291257 -0.832258 0.918952 -0.321597 14686 8540.38)" rx="78" ry="193"/>
     <line fill="none" stroke="black" stroke-width="7.62" x1="14532" y1="8591" x2="14928" y2= "8459" />
    </g>
    <g>
     <ellipse fill="#00923F" stroke="black" stroke-width="7.62" transform="matrix(-0.291257 -0.832258 0.918952 -0.321597 14963.8 8678.9)" rx="78" ry="193"/>
     <line fill="none" stroke="black" stroke-width="7.62" x1="14810" y1="8729" x2="15205" y2= "8598" />
    </g>
    <g>
     <ellipse fill="#00923F" stroke="black" stroke-width="7.62" transform="matrix(-0.291257 -0.832258 0.918952 -0.321597 15249.2 8823.94)" rx="78" ry="193"/>
     <line fill="none" stroke="black" stroke-width="7.62" x1="15096" y1="8874" x2="15491" y2= "8743" />
    </g>
    <g>
     <ellipse fill="#00923F" stroke="black" stroke-width="7.62" transform="matrix(-0.291257 -0.832258 0.918952 -0.321597 15499.1 8947.62)" rx="78" ry="193"/>
     <line fill="none" stroke="black" stroke-width="7.62" x1="15345" y1="8998" x2="15741" y2= "8866" />
    </g>
    <g>
     <ellipse fill="#00923F" stroke="black" stroke-width="7.62" transform="matrix(-0.291257 -0.832258 0.918952 -0.321597 15779 9089.52)" rx="78" ry="193"/>
     <line fill="none" stroke="black" stroke-width="7.62" x1="15625" y1="9140" x2="16021" y2= "9008" />
    </g>
    <g>
     <ellipse fill="#00923F" stroke="black" stroke-width="7.62" transform="matrix(-0.291257 -0.832258 0.918952 -0.321597 16039.1 9219.7)" rx="78" ry="193"/>
     <line fill="none" stroke="black" stroke-width="7.62" x1="15885" y1="9270" x2="16281" y2= "9138" />
    </g>
    <g>
     <ellipse fill="#00923F" stroke="black" stroke-width="7.62" transform="matrix(-0.291257 -0.832258 0.918952 -0.321597 16318.8 9358.48)" rx="78" ry="193"/>
     <line fill="none" stroke="black" stroke-width="7.62" x1="16165" y1="9409" x2="16560" y2= "9277" />
    </g>
    <g>
     <ellipse fill="#00923F" stroke="black" stroke-width="7.62" transform="matrix(-0.291257 -0.832258 0.918952 -0.321597 16545.4 9474.29)" rx="78" ry="193"/>
     <line fill="none" stroke="black" stroke-width="7.62" x1="16392" y1="9525" x2="16787" y2= "9393" />
    </g>
   </g>
   <g>
    <polygon fill="#00923F" stroke="black" stroke-width="7.62" stroke-linejoin="bevel" points="15611,6818 16987,9113 "/>
    <g>
     <ellipse fill="#00923F" stroke="black" stroke-width="7.62" transform="matrix(0.855862 0.212098 -0.234192 0.945014 15775.6 6739.99)" rx="78" ry="193"/>
     <line fill="none" stroke="black" stroke-width="7.62" x1="15817" y1="6584" x2="15711" y2= "6987" />
    </g>
    <g>
     <ellipse fill="#00923F" stroke="black" stroke-width="7.62" transform="matrix(0.855862 0.212098 -0.234192 0.945014 15935.9 7004.26)" rx="78" ry="193"/>
     <line fill="none" stroke="black" stroke-width="7.62" x1="15978" y1="6848" x2="15872" y2= "7251" />
    </g>
    <g>
     <ellipse fill="#00923F" stroke="black" stroke-width="7.62" transform="matrix(0.855862 0.212098 -0.234192 0.945014 16100.3 7282.68)" rx="78" ry="193"/>
     <line fill="none" stroke="black" stroke-width="7.62" x1="16142" y1="7127" x2="16036" y2= "7529" />
    </g>
    <g>
     <ellipse fill="#00923F" stroke="black" stroke-width="7.62" transform="matrix(0.855862 0.212098 -0.234192 0.945014 16243.7 7518.45)" rx="78" ry="193"/>
     <line fill="none" stroke="black" stroke-width="7.62" x1="16286" y1="7362" x2="16179" y2= "7765" />
    </g>
    <g>
     <ellipse fill="#00923F" stroke="black" stroke-width="7.62" transform="matrix(0.855862 0.212098 -0.234192 0.945014 16404.9 7786.36)" rx="78" ry="193"/>
     <line fill="none" stroke="black" stroke-width="7.62" x1="16447" y1="7630" x2="16341" y2= "8033" />
    </g>
    <g>
     <ellipse fill="#00923F" stroke="black" stroke-width="7.62" transform="matrix(0.855862 0.212098 -0.234192 0.945014 16553.5 8041.24)" rx="78" ry="193"/>
     <line fill="none" stroke="black" stroke-width="7.62" x1="16595" y1="7885" x2="16489" y2= "8288" />
    </g>
    <g>
     <ellipse fill="#00923F" stroke="black" stroke-width="7.62" transform="matrix(0.855862 0.212098 -0.234192 0.945014 16715.1 8307.29)" rx="78" ry="193"/>
     <line fill="none" stroke="black" stroke-width="7.62" x1="16757" y1="8151" x2="16651" y2= "8554" />
    </g>
    <g>
     <ellipse fill="#00923F" stroke="black" stroke-width="7.62" transform="matrix(0.855862 0.212098 -0.234192 0.945014 16846.9 8526.27)" rx="78" ry="193"/>
     <line fill="none" stroke="black" stroke-width="7.62" x1="16889" y1="8370" x2="16783" y2= "8773" />
    </g>
    <g>
     <ellipse fill="#00923F" stroke="black" stroke-width="7.62" transform="matrix(0.200391 -0.858678 0.948124 0.221265 15464.3 6926.04)" rx="78" ry="193"/>
     <line fill="none" stroke="black" stroke-width="7.62" x1="15308" y1="6886" x2="15712" y2= "6987" />
    </g>
    <g>
     <ellipse fill="#00923F" stroke="black" stroke-width="7.62" transform="matrix(0.200391 -0.858678 0.948124 0.221265 15624.5 7191.93)" rx="78" ry="193"/>
     <line fill="none" stroke="black" stroke-width="7.62" x1="15468" y1="7152" x2="15872" y2= "7253" />
    </g>
    <g>
     <ellipse fill="#00923F" stroke="black" stroke-width="7.62" transform="matrix(0.200391 -0.858678 0.948124 0.221265 15787.6 7467.36)" rx="78" ry="193"/>
     <line fill="none" stroke="black" stroke-width="7.62" x1="15631" y1="7428" x2="16035" y2= "7528" />
    </g>
    <g>
     <ellipse fill="#00923F" stroke="black" stroke-width="7.62" transform="matrix(0.200391 -0.858678 0.948124 0.221265 15932.2 7705.75)" rx="78" ry="193"/>
     <line fill="none" stroke="black" stroke-width="7.62" x1="15776" y1="7666" x2="16180" y2= "7767" />
    </g>
    <g>
     <ellipse fill="#00923F" stroke="black" stroke-width="7.62" transform="matrix(0.200391 -0.858678 0.948124 0.221265 16092.4 7975.59)" rx="78" ry="193"/>
     <line fill="none" stroke="black" stroke-width="7.62" x1="15936" y1="7936" x2="16340" y2= "8036" />
    </g>
    <g>
     <ellipse fill="#00923F" stroke="black" stroke-width="7.62" transform="matrix(0.200391 -0.858678 0.948124 0.221265 16242.2 8224.95)" rx="78" ry="193"/>
     <line fill="none" stroke="black" stroke-width="7.62" x1="16085" y1="8185" x2="16490" y2= "8286" />
    </g>
    <g>
     <ellipse fill="#00923F" stroke="black" stroke-width="7.62" transform="matrix(0.200391 -0.858678 0.948124 0.221265 16403.9 8492.1)" rx="78" ry="193"/>
     <line fill="none" stroke="black" stroke-width="7.62" x1="16247" y1="8452" x2="16652" y2= "8553" />
    </g>
    <g>
     <ellipse fill="#00923F" stroke="black" stroke-width="7.62" transform="matrix(0.200391 -0.858678 0.948124 0.221265 16533.1 8711.34)" rx="78" ry="193"/>
     <line fill="none" stroke="black" stroke-width="7.62" x1="16376" y1="8672" x2="16781" y2= "8772" />
    </g>
   </g>
  </g>
  <g id="L_imp" onclick="parent.replacechar('L_imp')" onmousemove="parent.showtooltip('L_imp','Feuille compos&#233;e imparipenn&#233;e')" onmouseout="parent.hidetooltip('L_imp')" cursor="pointer">
    <metadata id="CorelCorpID_2">
     <odm name="Name" value="imparipinnate" type="0"/>
    </metadata>
   <path id="Rachis" fill="#00923F" stroke="black" stroke-width="7.62" stroke-linejoin="bevel" d="M20517 13907c-24,-3729 -59,-1239 -146,6 -151,1098 -114,2614 566,2932 66,-41 -9,2 69,-115 51,-162 -34,104 -294,-325 -281,-428 -252,-1413 -195,-2498z">
    <metadata id="CorelCorpID_3">
     <odm name="Name" value="imparipinnate" type="0"/>
    </metadata>
   </path>
   <g id="foliole">
    <path fill="#00923F" stroke="black" stroke-width="7.62" stroke-linejoin="bevel" d="M20410 12924c17,-356 -844,-718 -991,-437 -29,299 956,880 982,507l9 -70z"/>
    <path fill="#00923F" stroke="black" stroke-width="7.62" stroke-linejoin="bevel" d="M20427 12993c-27,6 41,-15 24,-40 -114,-60 -667,-367 -1018,-474 558,261 924,479 995,514z"/>
   </g>
   <g id="foliole_0">
    <path fill="#00923F" stroke="black" stroke-width="7.62" stroke-linejoin="bevel" d="M20521 12922c-17,-356 844,-718 991,-437 29,299 -956,880 -982,507l-9 -70z"/>
    <path fill="#00923F" stroke="black" stroke-width="7.62" stroke-linejoin="bevel" d="M20504 12991c27,6 -41,-15 -24,-40 114,-60 667,-367 1018,-474 -558,261 -924,479 -995,514z"/>
   </g>
   <g id="foliole_1">
    <path fill="#00923F" stroke="black" stroke-width="7.62" stroke-linejoin="bevel" d="M20356 13625c-40,-439 -1159,-771 -1291,-407 15,371 1324,956 1292,494l-1 -87z"/>
    <path fill="#00923F" stroke="black" stroke-width="7.62" stroke-linejoin="bevel" d="M20389 13707c-32,11 48,-24 23,-52 -150,-58 -882,-364 -1331,-449 730,247 1217,468 1309,501z"/>
   </g>
   <g id="foliole_2">
    <path fill="#00923F" stroke="black" stroke-width="7.62" stroke-linejoin="bevel" d="M20265 14586c-49,-534 -1408,-936 -1568,-495 18,450 1609,1161 1570,600l-2 -106z"/>
    <path fill="#00923F" stroke="black" stroke-width="7.62" stroke-linejoin="bevel" d="M20305 14686c-39,14 58,-29 27,-63 -183,-71 -1071,-442 -1618,-545 887,300 1478,568 1590,609z"/>
   </g>
   <g id="foliole_3">
    <path fill="#00923F" stroke="black" stroke-width="7.62" stroke-linejoin="bevel" d="M20326 15771c-57,-625 -1648,-1096 -1835,-579 21,527 1882,1358 1837,702l-2 -124z"/>
    <path fill="#00923F" stroke="black" stroke-width="7.62" stroke-linejoin="bevel" d="M20373 15888c-46,16 68,-33 32,-74 -214,-83 -1254,-517 -1893,-638 1037,351 1730,665 1861,712z"/>
   </g>
   <g id="foliole_4">
    <path fill="#00923F" stroke="black" stroke-width="7.62" stroke-linejoin="bevel" d="M20545 13635c40,-439 1159,-771 1291,-407 -15,371 -1324,956 -1292,494l1 -87z"/>
    <path fill="#00923F" stroke="black" stroke-width="7.62" stroke-linejoin="bevel" d="M20513 13718c32,11 -48,-24 -23,-52 150,-58 882,-364 1331,-449 -730,247 -1217,468 -1309,501z"/>
   </g>
   <g id="foliole_5">
    <path fill="#00923F" stroke="black" stroke-width="7.62" stroke-linejoin="bevel" d="M20515 14604c48,-534 1408,-936 1568,-495 -18,450 -1609,1161 -1570,600l2 -106z"/>
    <path fill="#00923F" stroke="black" stroke-width="7.62" stroke-linejoin="bevel" d="M20475 14704c39,14 -58,-29 -27,-63 183,-71 1071,-442 1618,-545 -887,300 -1478,568 -1590,609z"/>
   </g>
   <g id="foliole_6">
    <path fill="#00923F" stroke="black" stroke-width="7.62" stroke-linejoin="bevel" d="M20575 15753c57,-625 1648,-1096 1835,-579 -21,527 -1882,1358 -1837,702l2 -124z"/>
    <path fill="#00923F" stroke="black" stroke-width="7.62" stroke-linejoin="bevel" d="M20529 15871c46,16 -68,-33 -32,-74 214,-83 1254,-517 1893,-638 -1037,351 -1730,665 -1861,712z"/>
   </g>
   <g id="foliole_7">
    <path fill="#00923F" stroke="black" stroke-width="7.62" stroke-linejoin="bevel" d="M20381 12528c-319,-159 -164,-1084 152,-1074 275,120 347,980 -37,1104l-115 -30z"/>
    <path fill="#00923F" stroke="black" stroke-width="7.62" stroke-linejoin="bevel" d="M20505 12580c19,-21 -55,28 -69,1 4,-129 5,-762 84,-1120 -45,614 -11,1041 -15,1119z"/>
   </g>
  </g>
  <g id="L_pari_alt" onclick="parent.replacechar('L_pari_alt')" onmousemove="parent.showtooltip('L_pari_alt','Feuille compos&#233;e, paripenn&#233;e, &#224; folioles alternes')" onmouseout="parent.hidetooltip('L_pari_alt')" cursor="pointer">
    <metadata id="CorelCorpID_4">
     <odm name="Name" value="alterne" type="0"/>
    </metadata>
   <path id="Rachis_8" fill="#00923F" stroke="black" stroke-width="7.62" stroke-linejoin="bevel" d="M13837 14058c-23,-3537 -56,-1175 -139,6 -144,1042 -108,2479 537,2781 62,-39 -8,2 66,-109 48,-154 -32,98 -279,-308 -267,-406 -239,-1340 -185,-2370z">
    <metadata id="CorelCorpID_5">
     <odm name="Name" value="alterne" type="0"/>
    </metadata>
   </path>
   <g id="foliole_9">
    <path fill="#00923F" stroke="black" stroke-width="7.62" stroke-linejoin="bevel" d="M13839 13048c-16,-338 801,-681 940,-415 28,283 -907,835 -931,481l-8 -66z"/>
    <path fill="#00923F" stroke="black" stroke-width="7.62" stroke-linejoin="bevel" d="M13822 13113c26,6 -39,-14 -23,-38 108,-57 633,-349 966,-450 -529,247 -877,455 -943,488z"/>
   </g>
   <g id="foliole_10">
    <path fill="#00923F" stroke="black" stroke-width="7.62" stroke-linejoin="bevel" d="M13684 13659c-38,-417 -1100,-731 -1224,-386 14,351 1256,906 1226,469l-1 -82z"/>
    <path fill="#00923F" stroke="black" stroke-width="7.62" stroke-linejoin="bevel" d="M13715 13737c-31,11 45,-22 21,-49 -143,-55 -836,-345 -1263,-426 692,234 1154,444 1242,475z"/>
   </g>
   <g id="foliole_11">
    <path fill="#00923F" stroke="black" stroke-width="7.62" stroke-linejoin="bevel" d="M13598 14702c-46,-506 -1336,-888 -1488,-469 17,427 1526,1101 1489,569l-2 -100z"/>
    <path fill="#00923F" stroke="black" stroke-width="7.62" stroke-linejoin="bevel" d="M13636 14797c-37,13 55,-27 26,-60 -173,-67 -1016,-419 -1534,-517 841,285 1402,539 1508,577z"/>
   </g>
   <g id="foliole_12">
    <path fill="#00923F" stroke="black" stroke-width="7.62" stroke-linejoin="bevel" d="M13693 15949c-54,-593 -1563,-1039 -1741,-549 20,500 1786,1289 1742,666l-2 -117z"/>
    <path fill="#00923F" stroke="black" stroke-width="7.62" stroke-linejoin="bevel" d="M13737 16060c-44,15 64,-32 30,-70 -203,-79 -1189,-491 -1796,-605 984,333 1641,630 1765,675z"/>
   </g>
   <g id="foliole_13">
    <path fill="#00923F" stroke="black" stroke-width="7.62" stroke-linejoin="bevel" d="M13852 14124c38,-417 1100,-731 1224,-386 -14,351 -1256,906 -1226,469l1 -82z"/>
    <path fill="#00923F" stroke="black" stroke-width="7.62" stroke-linejoin="bevel" d="M13821 14202c31,11 -45,-22 -21,-49 143,-55 836,-345 1263,-426 -692,234 -1154,444 -1242,475z"/>
   </g>
   <g id="foliole_14">
    <path fill="#00923F" stroke="black" stroke-width="7.62" stroke-linejoin="bevel" d="M13859 15318c54,-593 1563,-1039 1741,-549 -20,500 -1786,1289 -1742,666l2 -117z"/>
    <path fill="#00923F" stroke="black" stroke-width="7.62" stroke-linejoin="bevel" d="M13815 15429c43,15 -64,-32 -30,-70 203,-79 1189,-491 1796,-605 -984,333 -1641,630 -1765,675z"/>
   </g>
   <g id="foliole_15">
    <path fill="#00923F" stroke="black" stroke-width="7.62" stroke-linejoin="bevel" d="M13801 12238c-38,-243 542,-525 663,-344 42,202 -411,586 -634,420l-29 -77z"/>
    <path fill="#00923F" stroke="black" stroke-width="7.62" stroke-linejoin="bevel" d="M13822 12328c19,2 -38,-20 -28,-38 74,-49 429,-301 662,-400 -363,220 -588,410 -633,439z"/>
   </g>
   <g id="foliole_16">
    <path fill="#00923F" stroke="black" stroke-width="7.62" stroke-linejoin="bevel" d="M13782 12646c38,-243 -542,-525 -663,-344 -42,202 411,586 634,420l29 -77z"/>
    <path fill="#00923F" stroke="black" stroke-width="7.62" stroke-linejoin="bevel" d="M13762 12737c-19,2 38,-20 28,-38 -74,-49 -429,-301 -662,-400 363,220 588,410 633,439z"/>
   </g>
  </g>
  <g id="L_pari_op" onclick="parent.replacechar('L_pari_op')" onmousemove="parent.showtooltip('L_pari_op','Feuille compos&#233;e, paripenn&#233;e, &#224; folioles oppos&#233;es')" onmouseout="parent.hidetooltip('L_pari_op')" cursor="pointer">
    <metadata id="CorelCorpID_6">
     <odm name="Name" value="paripinnate" type="0"/>
    </metadata>
   <path id="Rachis_17" fill="#00923F" stroke="black" stroke-width="7.62" stroke-linejoin="bevel" d="M6827 13907c-24,-3729 -59,-1239 -146,6 -151,1098 -114,2614 566,2932 66,-41 -9,2 69,-115 51,-162 -34,104 -294,-325 -281,-428 -252,-1413 -195,-2498z">
    <metadata id="CorelCorpID_7">
     <odm name="Name" value="paripinnate" type="0"/>
    </metadata>
   </path>
   <g id="foliole_18">
    <path fill="#00923F" stroke="black" stroke-width="7.62" stroke-linejoin="bevel" d="M6729 12215c12,-251 -595,-506 -698,-308 -21,211 674,621 692,358l6 -49z"/>
    <path fill="#00923F" stroke="black" stroke-width="7.62" stroke-linejoin="bevel" d="M6741 12264c-19,4 29,-10 17,-28 -80,-42 -470,-259 -718,-334 393,184 652,338 701,362z"/>
   </g>
   <g id="foliole_19">
    <path fill="#00923F" stroke="black" stroke-width="7.62" stroke-linejoin="bevel" d="M6844 12230c-6,-251 607,-495 705,-296 16,211 -688,608 -700,345l-5 -49z"/>
    <path fill="#00923F" stroke="black" stroke-width="7.62" stroke-linejoin="bevel" d="M6831 12278c19,5 -29,-11 -16,-28 81,-41 476,-251 726,-321 -398,177 -659,326 -709,350z"/>
   </g>
   <g id="foliole_20">
    <path fill="#00923F" stroke="black" stroke-width="7.62" stroke-linejoin="bevel" d="M6720 12924c17,-356 -844,-718 -991,-437 -29,299 956,880 982,507l9 -70z"/>
    <path fill="#00923F" stroke="black" stroke-width="7.62" stroke-linejoin="bevel" d="M6737 12993c-27,6 41,-15 24,-40 -114,-60 -667,-367 -1018,-474 558,261 924,479 995,514z"/>
   </g>
   <g id="foliole_21">
    <path fill="#00923F" stroke="black" stroke-width="7.62" stroke-linejoin="bevel" d="M6868 12930c-17,-356 844,-718 991,-437 29,299 -956,880 -982,507l-9 -70z"/>
    <path fill="#00923F" stroke="black" stroke-width="7.62" stroke-linejoin="bevel" d="M6851 12999c27,6 -41,-15 -24,-40 114,-60 667,-367 1018,-474 -558,261 -924,479 -995,514z"/>
   </g>
   <g id="foliole_22">
    <path fill="#00923F" stroke="black" stroke-width="7.62" stroke-linejoin="bevel" d="M6666 13625c-40,-439 -1159,-771 -1291,-407 15,371 1324,956 1292,494l-1 -87z"/>
    <path fill="#00923F" stroke="black" stroke-width="7.62" stroke-linejoin="bevel" d="M6699 13707c-32,11 48,-24 23,-52 -150,-58 -882,-364 -1331,-449 730,247 1217,468 1309,501z"/>
   </g>
   <g id="foliole_23">
    <path fill="#00923F" stroke="black" stroke-width="7.62" stroke-linejoin="bevel" d="M6575 14586c-49,-534 -1408,-936 -1568,-495 18,450 1609,1161 1570,600l-2 -106z"/>
    <path fill="#00923F" stroke="black" stroke-width="7.62" stroke-linejoin="bevel" d="M6615 14686c-39,14 58,-29 27,-63 -183,-71 -1071,-442 -1618,-545 887,300 1478,568 1590,609z"/>
   </g>
   <g id="foliole_24">
    <path fill="#00923F" stroke="black" stroke-width="7.62" stroke-linejoin="bevel" d="M6636 15771c-57,-625 -1648,-1096 -1835,-579 21,527 1882,1358 1837,702l-2 -124z"/>
    <path fill="#00923F" stroke="black" stroke-width="7.62" stroke-linejoin="bevel" d="M6683 15888c-46,16 68,-33 32,-74 -214,-83 -1254,-517 -1893,-638 1037,351 1730,665 1861,712z"/>
   </g>
   <g id="foliole_25">
    <path fill="#00923F" stroke="black" stroke-width="7.62" stroke-linejoin="bevel" d="M6855 13635c40,-439 1159,-771 1291,-407 -15,371 -1324,956 -1292,494l1 -87z"/>
    <path fill="#00923F" stroke="black" stroke-width="7.62" stroke-linejoin="bevel" d="M6822 13718c32,11 -48,-24 -23,-52 150,-58 882,-364 1331,-449 -730,247 -1217,468 -1309,501z"/>
   </g>
   <g id="foliole_26">
    <path fill="#00923F" stroke="black" stroke-width="7.62" stroke-linejoin="bevel" d="M6825 14604c48,-534 1408,-936 1568,-495 -18,450 -1609,1161 -1570,600l2 -106z"/>
    <path fill="#00923F" stroke="black" stroke-width="7.62" stroke-linejoin="bevel" d="M6785 14704c39,14 -58,-29 -27,-63 183,-71 1071,-442 1618,-545 -887,300 -1478,568 -1590,609z"/>
   </g>
   <g id="foliole_27">
    <path fill="#00923F" stroke="black" stroke-width="7.62" stroke-linejoin="bevel" d="M6885 15753c57,-625 1648,-1096 1835,-579 -21,527 -1882,1358 -1837,702l2 -124z"/>
    <path fill="#00923F" stroke="black" stroke-width="7.62" stroke-linejoin="bevel" d="M6839 15871c46,16 -68,-33 -32,-74 214,-83 1254,-517 1893,-638 -1037,351 -1730,665 -1861,712z"/>
   </g>
  </g>
  <g id="L_5pl" onclick="parent.replacechar('L_5pl')" onmousemove="parent.showtooltip('L_5pl','Feuille compos&#233;e palm&#233;e')" onmouseout="parent.hidetooltip('L_5pl')" cursor="pointer">
    <metadata id="CorelCorpID_8">
     <odm name="Name" value="5_folioles" type="0"/>
    </metadata>
   <path id="Rachis_28" fill="#00923F" stroke="black" stroke-width="7.62" stroke-linejoin="bevel" d="M9628 10164c84,-2212 -122,-715 -168,27 -40,658 80,1536 887,1612 72,-34 53,-63 134,-143 45,-102 -85,35 -418,-173 -358,-204 -459,-685 -435,-1324z">
    <metadata id="CorelCorpID_9">
     <odm name="Name" value="5_folioles" type="0"/>
    </metadata>
   </path>
   <g>
    <path fill="#00923F" stroke="black" stroke-width="7.62" stroke-linejoin="bevel" d="M9857 9234c322,-234 1187,350 1014,658 -261,210 -1407,-355 -1074,-608l60 -51z"/>
    <path fill="#00923F" stroke="black" stroke-width="7.62" stroke-linejoin="bevel" d="M9615 9165c12,34 -13,-54 26,-54 145,81 867,460 1229,764 -675,-418 -1169,-658 -1256,-710z"/>
   </g>
   <g id="foliole_29">
    <path fill="#00923F" stroke="black" stroke-width="7.62" stroke-linejoin="bevel" d="M9868 8970c-71,-594 1320,-1351 1598,-906 85,496 -1068,1266 -1593,931l-5 -25z"/>
    <path fill="#00923F" stroke="black" stroke-width="7.62" stroke-linejoin="bevel" d="M9664 9128c51,5 -76,-16 -48,-62 204,-124 1191,-759 1827,-1012 -1001,556 -1654,1001 -1779,1074z"/>
   </g>
   <g id="foliole_30">
    <path fill="#00923F" stroke="black" stroke-width="7.62" stroke-linejoin="bevel" d="M9590 8741c-676,-229 -392,-2227 220,-2184 528,260 551,1726 -114,2193l-106 -9z"/>
    <path fill="#00923F" stroke="black" stroke-width="7.62" stroke-linejoin="bevel" d="M9661 9038c-37,21 -27,91 -82,17 12,-286 39,-1693 206,-2484 -111,1362 -113,2294 -124,2468z"/>
   </g>
   <g id="foliole_31">
    <path fill="#00923F" stroke="black" stroke-width="7.62" stroke-linejoin="bevel" d="M9356 8972c101,-590 -1251,-1415 -1550,-985 -110,491 964,1308 1536,1042l14 -57z"/>
    <path fill="#00923F" stroke="black" stroke-width="7.62" stroke-linejoin="bevel" d="M9552 9140c-51,2 77,-12 51,-60 -198,-134 -1152,-818 -1774,-1103 972,606 1601,1083 1723,1162z"/>
   </g>
   <g>
    <path fill="#00923F" stroke="black" stroke-width="7.62" stroke-linejoin="bevel" d="M9351 9240c-325,-230 -1183,362 -1008,669 263,207 1403,-370 1068,-619l-60 -50z"/>
    <path fill="#00923F" stroke="black" stroke-width="7.62" stroke-linejoin="bevel" d="M9592 9170c-12,34 12,-55 -27,-54 -144,82 -862,469 -1222,776 670,-425 1162,-670 1248,-722z"/>
   </g>
  </g>
  <g id="L_4fl" onclick="parent.replacechar('L_4fl')" onmousemove="parent.showtooltip('L_4fl','Feuille compos&#233;e &#224; quatre folioles')" onmouseout="parent.hidetooltip('L_4fl')" cursor="pointer">
    <metadata id="CorelCorpID_10">
     <odm name="Name" value="4-folioles" type="0"/>
    </metadata>
   <path id="Rachis_32" fill="#00923F" stroke="#2A2A29" stroke-width="7.62" stroke-linejoin="bevel" d="M3449 9525c476,-2679 -28,-891 -209,4 -160,794 -163,1883 808,2113 93,-30 75,-67 187,-151 72,-117 -136,143 -507,-166 -401,-309 -416,-1027 -279,-1800z">
    <metadata id="CorelCorpID_11">
     <odm name="Name" value="4-folioles" type="0"/>
    </metadata>
   </path>
   <path fill="#00923F" stroke="#2A2A29" stroke-width="7.62" d="M3511 8338c-169,-285 -5,-468 261,-971 243,-598 410,-758 700,-631 383,92 726,571 792,757 255,716 -670,719 -968,796 -270,36 -494,267 -785,49z"/>
   <path fill="#00923F" stroke="#2A2A29" stroke-width="7.62" d="M3532 8392c-300,140 -640,-282 -926,-299 -678,-310 -729,-537 -575,-813 129,-372 637,-676 830,-715 472,-95 628,578 676,882 9,272 241,676 -5,945z"/>
   <path fill="#00923F" stroke="#2A2A29" stroke-width="7.62" d="M3464 8168c279,-178 385,156 972,194 603,64 778,420 661,714 -80,386 -547,744 -730,816 -708,278 -745,-565 -832,-861 -45,-269 -279,-565 -70,-863z"/>
   <path fill="#00923F" stroke="#2A2A29" stroke-width="7.62" d="M3683 8352c113,311 -267,586 -449,956 -282,495 -530,618 -792,440 -359,-162 -608,-696 -638,-890 -117,-751 661,-573 968,-594 272,15 666,-181 911,88z"/>
   <path fill="#00923F" d="M3998 8342c-1177,-1783 -1234,1795 0,0z"/>
   <line fill="none" stroke="#2A2A29" stroke-width="7.62" x1="2204" y1="7482" x2="3211" y2= "8105" />
   <line fill="none" stroke="#2A2A29" stroke-width="7.62" x1="2513" y1="7124" x2="3300" y2= "7981" />
   <line fill="none" stroke="#2A2A29" stroke-width="7.62" x1="2836" y1="6828" x2="3428" y2= "7924" />
   <line fill="none" stroke="#2A2A29" stroke-width="7.62" x1="3645" y1="8689" x2="4316" y2= "9661" />
   <line fill="none" stroke="#2A2A29" stroke-width="7.62" x1="3751" y1="8613" x2="4643" y2= "9383" />
   <line fill="none" stroke="#2A2A29" stroke-width="7.62" x1="3821" y1="8454" x2="4887" y2= "9069" />
   <line fill="none" stroke="#2A2A29" stroke-width="7.62" x1="2314" y1="7310" x2="3238" y2= "8030" />
   <line fill="none" stroke="#2A2A29" stroke-width="7.62" x1="2663" y1="6965" x2="3379" y2= "7964" />
   <line fill="none" stroke="#2A2A29" stroke-width="7.62" x1="4325" y1="6881" x2="3737" y2= "7840" />
   <line fill="none" stroke="#2A2A29" stroke-width="7.62" x1="4648" y1="7159" x2="3866" y2= "7920" />
   <line fill="none" stroke="#2A2A29" stroke-width="7.62" x1="4798" y1="7345" x2="3958" y2= "8012" />
   <line fill="none" stroke="#2A2A29" stroke-width="7.62" x1="5032" y1="7575" x2="3998" y2= "8114" />
   <line fill="none" stroke="#2A2A29" stroke-width="7.62" x1="2049" y1="8658" x2="3194" y2= "8335" />
   <line fill="none" stroke="#2A2A29" stroke-width="7.62" x1="2235" y1="9108" x2="3229" y2= "8459" />
   <line fill="none" stroke="#2A2A29" stroke-width="7.62" x1="2407" y1="9422" x2="3304" y2= "8631" />
   <line fill="none" stroke="#2A2A29" stroke-width="7.62" x1="2610" y1="9617" x2="3455" y2= "8649" />
   <line fill="none" stroke="#2A2A29" stroke-width="7.62" x1="2142" y1="8861" x2="3167" y2= "8437" />
  </g>
  <g id="L_3fl" onclick="parent.replacechar('L_3fl')" onmousemove="parent.showtooltip('L_3fl','Feuille trifoliol&#233;e')" onmouseout="parent.hidetooltip('L_3fl')" cursor="pointer">
    <metadata id="CorelCorpID_12">
     <odm name="Name" value="3-folioles" type="0"/>
    </metadata>
   <path id="Rachis_33" fill="#00923F" stroke="black" stroke-width="7.62" stroke-linejoin="bevel" d="M19639 4165c-16,-2475 -13,-820 -97,4 -75,731 -76,1735 376,1946 43,-27 -6,1 46,-76 34,-108 -22,69 -195,-216 -187,-284 -167,-938 -130,-1658z">
    <metadata id="CorelCorpID_13">
     <odm name="Name" value="3-folioles" type="0"/>
    </metadata>
   </path>
   <path fill="#00923F" fill-rule="nonzero" stroke="black" stroke-width="7.62" d="M19596 3605c345,-336 1287,-1950 0,-2257 -1246,313 -406,1881 0,2257z"/>
   <path fill="#00923F" fill-rule="nonzero" stroke="black" stroke-width="7.62" d="M19596 3599c-406,-191 -2121,-464 -1814,974 765,1124 1698,-400 1814,-974z"/>
   <path fill="#00923F" fill-rule="nonzero" stroke="black" stroke-width="7.62" d="M19596 3599c426,-191 2133,-464 1837,974 -774,1124 -1695,-400 -1837,-974z"/>
   <path fill="#00923F" stroke="black" stroke-width="7.62" stroke-linejoin="bevel" d="M19585 3647c56,3 21,-12 50,-64 387,178 1260,665 1799,990 -603,-232 -1713,-1014 -1848,-926z"/>
   <path fill="#00923F" stroke="black" stroke-width="7.62" stroke-linejoin="bevel" d="M19635 3646c-56,3 -21,-12 -50,-64 -387,178 -1260,665 -1799,990 603,-232 1713,-1014 1848,-926z"/>
   <path fill="#00923F" stroke="black" stroke-width="7.62" stroke-linejoin="bevel" d="M19635 3600c-22,61 -46,30 -74,-6 13,-316 -149,-1371 35,-2246 -123,1507 51,2060 39,2252z"/>
  </g>
  <g id="L_3flB" onclick="parent.replacechar('L_3flB')" onmousemove="parent.showtooltip('L_3flB','Feuille trifoliol&#233;e')" onmouseout="parent.hidetooltip('L_3flB')" cursor="pointer">
    <metadata id="CorelCorpID_14">
     <odm name="Name" value="3-folioles B" type="0"/>
    </metadata>
   <g id="foliole_34">
    <path fill="#00923F" stroke="black" stroke-width="7.62" stroke-linejoin="bevel" d="M12988 3736c180,-907 -1403,-1270 -1886,-1146 118,349 987,1848 1855,1226l30 -80z"/>
    <path fill="#00923F" stroke="black" stroke-width="7.62" stroke-linejoin="bevel" d="M13195 3984c-56,3 85,-14 56,-66 -219,-149 -1274,-905 -1963,-1220 1076,670 1772,1198 1907,1286z"/>
   </g>
   <g id="foliole_35">
    <path fill="#00923F" stroke="black" stroke-width="7.62" stroke-linejoin="bevel" d="M13522 3736c-180,-907 1344,-1211 1827,-1087 -118,349 -929,1790 -1797,1167l-30 -80z"/>
    <path fill="#00923F" stroke="black" stroke-width="7.62" stroke-linejoin="bevel" d="M13316 3984c56,3 -85,-14 -56,-66 219,-149 1274,-905 1963,-1220 -1076,670 -1772,1198 -1907,1286z"/>
   </g>
   <path id="Rachis_36" fill="#00923F" stroke="black" stroke-width="7.62" stroke-linejoin="bevel" d="M13297 4608c44,-1583 -71,-769 -108,3 -27,567 -84,1340 416,1503 48,-21 -6,1 51,-59 37,-83 -25,53 -216,-167 -207,-220 -185,-725 -144,-1281z"/>
   <g id="foliole_37">
    <path fill="#00923F" stroke="black" stroke-width="7.62" stroke-linejoin="bevel" d="M13236 3542c-992,-381 -297,-2366 303,-2671 213,425 1010,1998 -185,2681l-117 -10z"/>
    <path fill="#00923F" stroke="black" stroke-width="7.62" stroke-linejoin="bevel" d="M13315 3872c-41,23 -30,100 -91,18 13,-316 44,-1874 227,-2749 -123,1507 -125,2539 -137,2731z"/>
   </g>
  </g>
  <g id="L_bi" onclick="parent.replacechar('L_bi')" onmousemove="parent.showtooltip('L_bi','Feuille compos&#233;e &#224; deux folioles')" onmouseout="parent.hidetooltip('L_bi')" cursor="pointer">
    <metadata id="CorelCorpID_15">
     <odm name="Name" value="3-folioles B" type="0"/>
    </metadata>
   <g id="foliole_38">
    <path fill="#00923F" stroke="black" stroke-width="7.62" stroke-linejoin="bevel" d="M6130 3736c180,-907 -1403,-1270 -1886,-1146 118,349 987,1848 1855,1226l30 -80z"/>
    <path fill="#00923F" stroke="black" stroke-width="7.62" stroke-linejoin="bevel" d="M6337 3984c-56,3 85,-14 56,-66 -219,-149 -1274,-905 -1963,-1220 1076,670 1772,1198 1907,1286z"/>
   </g>
   <g id="foliole_39">
    <path fill="#00923F" stroke="black" stroke-width="7.62" stroke-linejoin="bevel" d="M6664 3736c-180,-907 1344,-1211 1827,-1087 -118,349 -929,1790 -1797,1167l-30 -80z"/>
    <path fill="#00923F" stroke="black" stroke-width="7.62" stroke-linejoin="bevel" d="M6458 3984c56,3 -85,-14 -56,-66 219,-149 1274,-905 1963,-1220 -1076,670 -1772,1198 -1907,1286z"/>
   </g>
   <path id="Rachis_40" fill="#00923F" stroke="black" stroke-width="7.62" stroke-linejoin="bevel" d="M6439 4608c44,-1583 -71,-769 -108,3 -27,567 -84,1340 416,1503 48,-21 -6,1 51,-59 37,-83 -25,53 -216,-167 -207,-220 -185,-725 -144,-1281z"/>
  </g>
 </g>
<image xlink:href="tick.gif" id="imgtick" x="-10000" y="-10000" width="1500" height="1500"/>
<rect id="recttooltip" x="-10000" y="-10000" width="5500" height="600" fill-opacity="0.85" pointer-events="none"/>
<text id="textboxid" x="-10000" y="-10000" pointer-events="none"> </text>
</a></svg>
