<?xml version="1.0" encoding="UTF-8"?>
<!DOCTYPE svg PUBLIC "-//W3C//DTD SVG 1.1//EN" "http://www.w3.org/Graphics/SVG/1.1/DTD/svg11.dtd">
<!-- Creator: CorelDRAW X5 -->
<svg xmlns="http://www.w3.org/2000/svg" xml:space="preserve" width="100%" height="100%" shape-rendering="geometricPrecision" text-rendering="geometricPrecision" image-rendering="optimizeQuality" fill-rule="evenodd" clip-rule="evenodd"
viewBox="0 0 24000 18000"
 xmlns:xlink="http://www.w3.org/1999/xlink">
<a>
 <g id="Layer_x0020_1">
  <metadata id="CorelCorpID_0Corel-Layer"/>
  <g id="Stp_no" onclick="parent.replacechar('Stp_no')" onmousemove="parent.showtooltip('Stp_no','Stipule absente')" onmouseout="parent.hidetooltip('Stp_no')" cursor="pointer">
    <metadata id="CorelCorpID_1">
     <odm name="Name" value="sans" type="0"/>
    </metadata>
   <path fill="#B4AA1E" fill-rule="nonzero" stroke="black" stroke-width="7.62" stroke-linejoin="bevel" d="M6069 3170l0 3098c198,458 1142,423 1252,-12l0 -3113 -1252 28z"/>
   <ellipse fill="#FAFA00" stroke="black" stroke-width="7.62" cx="6693" cy="3167" rx="626" ry="262"/>
   <path fill="#00C800" fill-rule="nonzero" stroke="black" stroke-width="7.62" stroke-linejoin="bevel" d="M4042 1147c233,213 1355,853 1102,2122 -12,55 0,83 0,103 0,0 0,0 0,0 680,288 1711,383 1699,1391 -87,198 -261,28 -257,-20 95,-849 -1517,-1260 -1580,-1233 -1952,826 -3232,-486 -3327,-553 0,0 0,0 0,0 229,-284 2284,-1810 2363,-1810z"/>
   <path fill="none" fill-rule="nonzero" stroke="black" stroke-width="7.62" stroke-linecap="round" stroke-linejoin="bevel" d="M4998 3510c-616,-134 -1027,-454 -2126,-1517"/>
   <path fill="none" fill-rule="nonzero" stroke="black" stroke-width="7.62" stroke-linecap="round" stroke-linejoin="bevel" d="M3386 1629c0,0 529,450 403,1004"/>
   <path fill="none" fill-rule="nonzero" stroke="black" stroke-width="7.62" stroke-linecap="round" stroke-linejoin="bevel" d="M3797 1341c0,0 217,178 415,537 146,292 134,257 194,597 63,312 36,644 28,604"/>
   <path fill="none" fill-rule="nonzero" stroke="black" stroke-width="7.62" stroke-linecap="round" stroke-linejoin="bevel" d="M2532 2273c790,723 1458,719 1458,719"/>
   <path fill="none" fill-rule="nonzero" stroke="black" stroke-width="7.62" stroke-linecap="round" stroke-linejoin="bevel" d="M2054 2665c0,0 399,352 1189,589 759,209 1403,154 1403,154"/>
   <path fill="none" fill-rule="nonzero" stroke="black" stroke-width="7.62" stroke-linejoin="bevel" d="M2975 1946c1486,1391 1865,1359 2165,1426"/>
  </g>
  <g id="Stp_lanc" onclick="parent.replacechar('Stp_lanc')" onmousemove="parent.showtooltip('Stp_lanc','Stipule lanceol&#233;e')" onmouseout="parent.hidetooltip('Stp_lanc')" cursor="pointer">
    <metadata id="CorelCorpID_2">
     <odm name="Name" value="lanceolée" type="0"/>
    </metadata>
   <path fill="#B4AA1E" fill-rule="nonzero" stroke="black" stroke-width="7.62" stroke-linejoin="bevel" d="M13040 3170l0 3098c198,458 1142,423 1252,-12l0 -3113 -1252 28z"/>
   <ellipse fill="#FAFA00" stroke="black" stroke-width="7.62" cx="13665" cy="3167" rx="626" ry="262"/>
   <path fill="#00C800" fill-rule="nonzero" stroke="black" stroke-width="7.62" stroke-linejoin="bevel" d="M13471 4682c-472,-698 -614,-697 -1449,-636 743,26 972,502 972,502 43,122 27,153 66,268 47,145 550,106 410,-133z"/>
   <path fill="#00C800" fill-rule="nonzero" stroke="black" stroke-width="7.62" stroke-linejoin="bevel" d="M11013 1147c233,213 1355,853 1102,2122 -12,55 0,83 0,103 0,0 0,0 0,0 680,288 1711,383 1699,1391 -87,198 -261,28 -257,-20 95,-850 -1517,-1260 -1580,-1233 -1952,826 -3232,-486 -3327,-553 0,0 0,0 0,0 229,-284 2284,-1810 2363,-1810z"/>
   <path fill="#00C800" fill-rule="nonzero" stroke="black" stroke-width="7.62" stroke-linejoin="bevel" d="M13901 4629c472,-698 614,-697 1449,-636 -743,26 -972,502 -972,502 -43,122 -27,153 -66,268 -47,145 -550,106 -410,-133z"/>
   <path fill="none" fill-rule="nonzero" stroke="black" stroke-width="7.62" stroke-linecap="round" stroke-linejoin="bevel" d="M11970 3510c-616,-134 -1027,-454 -2126,-1517"/>
   <path fill="none" fill-rule="nonzero" stroke="black" stroke-width="7.62" stroke-linecap="round" stroke-linejoin="bevel" d="M10358 1630c0,0 529,450 403,1004"/>
   <path fill="none" fill-rule="nonzero" stroke="black" stroke-width="7.62" stroke-linecap="round" stroke-linejoin="bevel" d="M10769 1341c0,0 217,178 415,537 146,292 134,257 194,597 63,312 36,644 28,604"/>
   <path fill="none" fill-rule="nonzero" stroke="black" stroke-width="7.62" stroke-linecap="round" stroke-linejoin="bevel" d="M9504 2273c790,723 1458,719 1458,719"/>
   <path fill="none" fill-rule="nonzero" stroke="black" stroke-width="7.62" stroke-linecap="round" stroke-linejoin="bevel" d="M9026 2665c0,0 399,352 1189,589 759,209 1403,154 1403,154"/>
   <path fill="none" fill-rule="nonzero" stroke="black" stroke-width="7.62" stroke-linejoin="bevel" d="M9947 1946c1486,1391 1865,1359 2165,1426"/>
  </g>
  <g id="Stp_epine" onclick="parent.replacechar('Stp_epine')" onmousemove="parent.showtooltip('Stp_epine','Stipule &#233;pineuse')" onmouseout="parent.hidetooltip('Stp_epine')" cursor="pointer">
    <metadata id="CorelCorpID_3">
     <odm name="Name" value="épineuse" type="0"/>
    </metadata>
   <path fill="#B4AA1E" fill-rule="nonzero" stroke="black" stroke-width="7.62" stroke-linejoin="bevel" d="M20196 3170l0 3098c198,458 1142,423 1252,-12l0 -3113 -1252 28z"/>
   <ellipse fill="#FAFA00" stroke="black" stroke-width="7.62" cx="20821" cy="3167" rx="626" ry="262"/>
   <path fill="#00C800" fill-rule="nonzero" stroke="black" stroke-width="7.62" stroke-linejoin="bevel" d="M18169 1147c233,213 1355,853 1102,2122 -12,55 0,83 0,103 0,0 0,0 0,0 680,288 1711,383 1699,1391 -87,198 -261,28 -257,-20 95,-850 -1517,-1260 -1580,-1233 -1952,826 -3232,-486 -3327,-553 0,0 0,0 0,0 229,-284 2284,-1810 2363,-1810z"/>
   <path fill="black" fill-rule="nonzero" stroke="black" stroke-width="7.62" stroke-linejoin="bevel" d="M21115 4719c59,-87 984,-1608 1079,-1656 0,0 -944,1695 -948,1723 0,0 -130,91 -130,-67z"/>
   <path fill="black" fill-rule="nonzero" stroke="black" stroke-width="7.62" stroke-linejoin="bevel" d="M20533 4700c-43,-79 -980,-1616 -1079,-1659 0,0 956,1699 964,1727 0,0 138,79 115,-67z"/>
   <path fill="none" fill-rule="nonzero" stroke="black" stroke-width="7.62" stroke-linecap="round" stroke-linejoin="bevel" d="M19125 3510c-616,-134 -1027,-454 -2126,-1517"/>
   <path fill="none" fill-rule="nonzero" stroke="black" stroke-width="7.62" stroke-linecap="round" stroke-linejoin="bevel" d="M17513 1629c0,0 529,450 403,1004"/>
   <path fill="none" fill-rule="nonzero" stroke="black" stroke-width="7.62" stroke-linecap="round" stroke-linejoin="bevel" d="M17924 1341c0,0 217,178 415,537 146,292 134,257 194,597 63,312 36,644 28,604"/>
   <path fill="none" fill-rule="nonzero" stroke="black" stroke-width="7.62" stroke-linecap="round" stroke-linejoin="bevel" d="M16660 2273c790,723 1458,719 1458,719"/>
   <path fill="none" fill-rule="nonzero" stroke="black" stroke-width="7.62" stroke-linecap="round" stroke-linejoin="bevel" d="M16182 2665c0,0 399,352 1189,589 759,209 1403,154 1403,154"/>
   <path fill="none" fill-rule="nonzero" stroke="black" stroke-width="7.62" stroke-linejoin="bevel" d="M17102 1946c1486,1391 1865,1359 2165,1426"/>
  </g>
  <g id="Stp_gland" onclick="parent.replacechar('Stp_gland')" onmousemove="parent.showtooltip('Stp_gland','Stipule glanduleuse')" onmouseout="parent.hidetooltip('Stp_gland')" cursor="pointer">
    <metadata id="CorelCorpID_4">
     <odm name="Name" value="glanduleuse" type="0"/>
    </metadata>
   <path fill="#B4AA1E" fill-rule="nonzero" stroke="black" stroke-width="7.62" stroke-linejoin="bevel" d="M6069 8655l0 3098c198,458 1142,423 1252,-12l0 -3113 -1252 28z"/>
   <path fill="#00C800" fill-rule="nonzero" stroke="black" stroke-width="7.62" stroke-linejoin="bevel" d="M4042 6632c233,213 1355,853 1102,2122 -12,55 0,83 0,103 0,0 0,0 0,0 680,288 1711,383 1699,1391 -87,198 -261,28 -257,-20 95,-850 -1517,-1260 -1580,-1233 -1952,826 -3232,-486 -3327,-553 0,0 0,0 0,0 229,-284 2284,-1810 2363,-1810z"/>
   <path fill="none" fill-rule="nonzero" stroke="black" stroke-width="7.62" stroke-linecap="round" stroke-linejoin="bevel" d="M4998 8994c-616,-134 -1027,-454 -2126,-1517"/>
   <path fill="none" fill-rule="nonzero" stroke="black" stroke-width="7.62" stroke-linecap="round" stroke-linejoin="bevel" d="M3386 7114c0,0 529,450 403,1004"/>
   <path fill="none" fill-rule="nonzero" stroke="black" stroke-width="7.62" stroke-linecap="round" stroke-linejoin="bevel" d="M3797 6825c0,0 217,178 415,537 146,292 134,257 194,597 63,312 36,644 28,604"/>
   <path fill="none" fill-rule="nonzero" stroke="black" stroke-width="7.62" stroke-linecap="round" stroke-linejoin="bevel" d="M2532 7758c790,723 1458,719 1458,719"/>
   <path fill="none" fill-rule="nonzero" stroke="black" stroke-width="7.62" stroke-linecap="round" stroke-linejoin="bevel" d="M2054 8149c0,0 399,352 1189,589 759,209 1403,154 1403,154"/>
   <path fill="none" fill-rule="nonzero" stroke="black" stroke-width="7.62" stroke-linejoin="bevel" d="M2975 7430c1486,1391 1865,1359 2165,1426"/>
   <ellipse fill="#FAFA00" stroke="black" stroke-width="7.62" cx="6693" cy="8651" rx="626" ry="262"/>
   <path fill="#00C800" stroke="black" stroke-width="7.62" stroke-linejoin="bevel" d="M6930 10309c105,44 221,-71 252,-236 31,-165 42,-299 -11,-364 -95,27 -188,137 -242,259 -54,122 -105,297 1,341z"/>
   <path fill="#00C800" stroke="black" stroke-width="7.62" stroke-linejoin="bevel" d="M6498 10321c-105,44 -221,-71 -252,-236 -31,-165 -42,-299 11,-364 95,27 188,137 242,259 54,122 105,297 -1,341z"/>
  </g>
  <g id="Stp_col" onclick="parent.replacechar('Stp_col')" onmousemove="parent.showtooltip('Stp_col','Collerette stipulaire')" onmouseout="parent.hidetooltip('Stp_col')" cursor="pointer">
    <metadata id="CorelCorpID_5">
     <odm name="Name" value="colerette" type="0"/>
    </metadata>
   <path fill="#00C800" fill-rule="nonzero" stroke="black" stroke-width="7.62" stroke-linejoin="bevel" d="M12301 9262c643,-550 980,-1212 1030,-1610 705,765 1106,1143 1113,1146 -437,31 -920,244 -1445,463 -679,283 -624,583 -900,726 -46,27 -123,86 -364,86 -242,0 -298,-43 -354,-70 -434,-237 -515,-601 -1167,-851 -384,-147 -680,-335 -1061,-397 715,-616 1093,-1060 1189,-1166 10,348 341,1461 729,1712 434,278 861,182 1232,-40z"/>
   <path fill="none" fill-rule="nonzero" stroke="black" stroke-width="7.62" stroke-linejoin="bevel" d="M9731 8242c639,454 768,848 1298,1272"/>
   <path fill="none" fill-rule="nonzero" stroke="black" stroke-width="7.62" stroke-linejoin="bevel" d="M10086 7874c7,431 166,474 242,894"/>
   <path fill="none" fill-rule="nonzero" stroke="black" stroke-width="7.62" stroke-linejoin="bevel" d="M9463 8497c159,-10 1156,672 1305,805"/>
   <path fill="#B4AA1E" fill-rule="nonzero" stroke="black" stroke-width="7.62" stroke-linejoin="bevel" d="M11077 8655l0 3098c198,458 1142,423 1252,-12l0 -3113 -1252 28z"/>
   <ellipse fill="#FAFA00" stroke="black" stroke-width="7.62" cx="11702" cy="8651" rx="626" ry="262"/>
   <path fill="#00C800" fill-rule="nonzero" stroke="black" stroke-width="7.62" stroke-linejoin="bevel" d="M10245 9278c407,252 1368,537 1474,27 156,477 1073,235 1600,-53 -199,129 -1172,845 -1368,871 -192,30 -328,30 -530,-7 -172,-30 -1013,-712 -1176,-838z"/>
   <path fill="none" fill-rule="nonzero" stroke="black" stroke-width="7.62" stroke-linejoin="bevel" d="M13861 8242c-517,411 -940,822 -1486,1173"/>
   <path fill="none" fill-rule="nonzero" stroke="black" stroke-width="7.62" stroke-linejoin="bevel" d="M13566 7934c-7,248 -136,486 -279,784"/>
   <path fill="none" fill-rule="nonzero" stroke="black" stroke-width="7.62" stroke-linejoin="bevel" d="M12873 9058c76,-43 633,-283 1276,-515"/>
  </g>
  <g id="Stp_falcif" onclick="parent.replacechar('Stp_falcif')" onmousemove="parent.showtooltip('Stp_falcif','Stipule falciforme')" onmouseout="parent.hidetooltip('Stp_falcif')" cursor="pointer">
    <metadata id="CorelCorpID_6">
     <odm name="Name" value="falciforme" type="0"/>
    </metadata>
   <path fill="#B4AA1E" fill-rule="nonzero" stroke="black" stroke-width="7.62" stroke-linejoin="bevel" d="M20155 8655l0 3098c198,458 1142,423 1252,-12l0 -3113 -1252 28z"/>
   <path fill="#00C800" fill-rule="nonzero" stroke="black" stroke-width="7.62" stroke-linejoin="bevel" d="M18128 6632c233,213 1355,853 1102,2122 -12,55 0,83 0,103 0,0 0,0 0,0 680,288 1711,383 1699,1391 -87,198 -261,28 -257,-20 95,-850 -1517,-1260 -1580,-1233 -1952,826 -3232,-486 -3327,-553 0,0 0,0 0,0 229,-284 2284,-1810 2363,-1810z"/>
   <path fill="none" fill-rule="nonzero" stroke="black" stroke-width="7.62" stroke-linecap="round" stroke-linejoin="bevel" d="M19084 8994c-616,-134 -1027,-454 -2126,-1517"/>
   <path fill="none" fill-rule="nonzero" stroke="black" stroke-width="7.62" stroke-linecap="round" stroke-linejoin="bevel" d="M17472 7114c0,0 529,450 403,1004"/>
   <path fill="none" fill-rule="nonzero" stroke="black" stroke-width="7.62" stroke-linecap="round" stroke-linejoin="bevel" d="M17883 6825c0,0 217,178 415,537 146,292 134,257 194,597 63,312 36,644 28,604"/>
   <path fill="none" fill-rule="nonzero" stroke="black" stroke-width="7.62" stroke-linecap="round" stroke-linejoin="bevel" d="M16619 7758c790,723 1458,719 1458,719"/>
   <path fill="none" fill-rule="nonzero" stroke="black" stroke-width="7.62" stroke-linecap="round" stroke-linejoin="bevel" d="M16141 8149c0,0 399,352 1189,589 759,209 1403,154 1403,154"/>
   <path fill="none" fill-rule="nonzero" stroke="black" stroke-width="7.62" stroke-linejoin="bevel" d="M17061 7430c1486,1391 1865,1359 2165,1426"/>
   <ellipse fill="#FAFA00" stroke="black" stroke-width="7.62" cx="20780" cy="8651" rx="626" ry="262"/>
   <path fill="#00C800" stroke="black" stroke-width="7.62" stroke-linejoin="bevel" d="M20677 10202c0,0 -1503,-103 -1069,-934 -693,951 294,1137 1078,994 -10,-28 -13,-35 -9,-60z"/>
   <path fill="none" stroke="black" stroke-width="7.62" d="M20673 10222c0,0 -1668,125 -1072,-944"/>
   <path fill="#00C800" stroke="black" stroke-width="7.62" stroke-linejoin="bevel" d="M20931 10205c0,0 1503,-103 1069,-934 693,951 -294,1137 -1078,994 10,-28 13,-35 9,-60z"/>
   <path fill="none" stroke="black" stroke-width="7.62" stroke-linejoin="bevel" d="M20935 10224c0,0 1668,125 1072,-944"/>
  </g>
  <g id="Stp_apend" onclick="parent.replacechar('Stp_apend')" onmousemove="parent.showtooltip('Stp_apend','Stipule appendicul&#233;e')" onmouseout="parent.hidetooltip('Stp_apend')" cursor="pointer">
    <metadata id="CorelCorpID_7">
     <odm name="Name" value="apendiculée" type="0"/>
    </metadata>
   <path fill="#B4AA1E" fill-rule="nonzero" stroke="black" stroke-width="7.62" stroke-linejoin="bevel" d="M6070 13739l0 3098c198,458 1142,423 1252,-12l0 -3113 -1252 28z"/>
   <ellipse fill="#FAFA00" stroke="black" stroke-width="7.62" cx="6695" cy="13736" rx="626" ry="262"/>
   <path fill="#00C800" fill-rule="nonzero" stroke="black" stroke-width="7.62" stroke-linejoin="bevel" d="M4816 11255c180,245 1120,1060 643,2210 -22,50 -16,78 -19,97 0,0 0,0 0,0 588,400 1544,683 1344,1632 -119,170 -251,-23 -239,-67 249,-785 -1197,-1475 -1261,-1461 -1998,414 -2961,-1065 -3038,-1146 0,0 0,0 0,0 270,-226 2496,-1281 2571,-1266z"/>
   <path fill="none" fill-rule="nonzero" stroke="black" stroke-width="7.62" stroke-linecap="round" stroke-linejoin="bevel" d="M5276 13666c-557,-242 -885,-622 -1723,-1832"/>
   <path fill="none" fill-rule="nonzero" stroke="black" stroke-width="7.62" stroke-linecap="round" stroke-linejoin="bevel" d="M4106 11587c0,0 416,525 192,1023"/>
   <path fill="none" fill-rule="nonzero" stroke="black" stroke-width="7.62" stroke-linecap="round" stroke-linejoin="bevel" d="M4548 11392c0,0 172,209 291,585 83,304 79,268 71,600 1,307 -87,615 -87,576"/>
   <path fill="none" fill-rule="nonzero" stroke="black" stroke-width="7.62" stroke-linecap="round" stroke-linejoin="bevel" d="M3179 12035c611,831 1242,953 1242,953"/>
   <path fill="none" fill-rule="nonzero" stroke="black" stroke-width="7.62" stroke-linecap="round" stroke-linejoin="bevel" d="M2654 12315c0,0 311,407 1013,779 677,340 1296,409 1296,409"/>
   <path fill="none" fill-rule="nonzero" stroke="black" stroke-width="7.62" stroke-linejoin="bevel" d="M3659 11809c1142,1592 1506,1633 1777,1753"/>
   <path fill="#00C800" fill-rule="nonzero" stroke="black" stroke-width="7.62" stroke-linejoin="bevel" d="M6629 14905c-65,-198 -1111,-1058 -1210,-1061 -99,-4 -301,563 -255,1027 58,505 852,662 837,673 -42,30 -68,677 129,864 399,-49 479,-845 514,-978 30,-122 49,-335 -15,-525z"/>
   <path fill="none" fill-rule="nonzero" stroke="black" stroke-width="7.62" stroke-linejoin="bevel" d="M5431 13970c-42,422 308,818 932,1468 -27,95 -167,814 -190,909"/>
   <polygon fill="#009847" fill-rule="nonzero" stroke="black" stroke-width="7.62" stroke-linejoin="bevel" points="6024,15533 6473,15408 6618,15411 "/>
   <path fill="#00C800" fill-rule="nonzero" stroke="black" stroke-width="7.62" stroke-linejoin="bevel" d="M6744 14958c65,-198 1111,-1058 1210,-1061 99,-4 301,563 255,1027 -58,505 -852,662 -837,673 42,30 68,677 -129,864 -399,-49 -479,-845 -514,-978 -30,-122 -49,-335 15,-525z"/>
   <path fill="none" fill-rule="nonzero" stroke="black" stroke-width="7.62" stroke-linejoin="bevel" d="M7943 14022c42,422 -308,818 -932,1468 27,95 167,814 190,909"/>
   <polygon fill="#009847" fill-rule="nonzero" stroke="black" stroke-width="7.62" stroke-linejoin="bevel" points="7349,15586 6900,15460 6756,15464 "/>
  </g>
  <g id="Stp_lacin" onclick="parent.replacechar('Stp_lacin')" onmousemove="parent.showtooltip('Stp_lacin','Stipule lacini&#233;e')" onmouseout="parent.hidetooltip('Stp_lacin')" cursor="pointer">
    <metadata id="CorelCorpID_8">
     <odm name="Name" value="laciniée" type="0"/>
    </metadata>
   <path fill="#B4AA1E" fill-rule="nonzero" stroke="black" stroke-width="7.62" stroke-linejoin="bevel" d="M17299 13739l0 3098c198,458 1142,423 1252,-12l0 -3113 -1252 28z"/>
   <ellipse fill="#FAFA00" stroke="black" stroke-width="7.62" cx="17923" cy="13720" rx="626" ry="262"/>
   <path fill="#00C800" stroke="black" stroke-width="7.62" d="M18075 14482c-123,244 80,662 1,906 195,36 248,12 476,-85 -31,-707 250,-1216 629,-1501 -479,370 -412,431 -735,1090 -16,-190 50,-650 296,-1047 -237,266 -333,913 -382,1110 -79,-97 86,-883 79,-869 -142,312 -95,711 -190,987 -56,-281 -63,-584 1,-818 -107,123 -80,747 -104,881 -59,-11 -109,-509 -71,-656z"/>
   <path fill="#00C800" stroke="black" stroke-width="7.62" d="M17757 14482c94,169 -47,656 32,900 -195,36 -262,18 -490,-79 31,-707 -269,-1216 -648,-1501 479,370 412,431 735,1090 16,-190 -50,-650 -296,-1047 237,266 333,913 382,1110 79,-97 -85,-883 -79,-869 142,312 95,711 190,987 56,-281 63,-584 -1,-818 107,123 80,747 104,881 91,22 65,-471 71,-656z"/>
   <path fill="#00C800" fill-rule="nonzero" stroke="black" stroke-width="7.62" stroke-linejoin="bevel" d="M15272 11716c233,213 1355,853 1102,2122 -12,55 0,83 0,103 0,0 0,0 0,0 680,288 1711,383 1699,1391 -87,198 -261,28 -257,-20 95,-850 -1517,-1260 -1580,-1233 -1952,826 -3232,-486 -3327,-553 0,0 0,0 0,0 229,-284 2284,-1810 2363,-1810z"/>
   <path fill="none" fill-rule="nonzero" stroke="black" stroke-width="7.62" stroke-linecap="round" stroke-linejoin="bevel" d="M16228 14079c-616,-134 -1027,-454 -2126,-1517"/>
   <path fill="none" fill-rule="nonzero" stroke="black" stroke-width="7.62" stroke-linecap="round" stroke-linejoin="bevel" d="M14616 12198c0,0 529,450 403,1004"/>
   <path fill="none" fill-rule="nonzero" stroke="black" stroke-width="7.62" stroke-linecap="round" stroke-linejoin="bevel" d="M15027 11910c0,0 217,178 415,537 146,292 134,257 194,597 63,312 36,644 28,604"/>
   <path fill="none" fill-rule="nonzero" stroke="black" stroke-width="7.62" stroke-linecap="round" stroke-linejoin="bevel" d="M13763 12842c790,723 1458,719 1458,719"/>
   <path fill="none" fill-rule="nonzero" stroke="black" stroke-width="7.62" stroke-linecap="round" stroke-linejoin="bevel" d="M13285 13233c0,0 399,352 1189,589 759,209 1403,154 1403,154"/>
   <path fill="none" fill-rule="nonzero" stroke="black" stroke-width="7.62" stroke-linejoin="bevel" d="M14205 12514c1486,1391 1865,1359 2165,1426"/>
  </g>
 </g>
<image xlink:href="tick.gif" id="imgtick" x="-10000" y="-10000" width="1500" height="1500"/>
<rect id="recttooltip" x="-10000" y="-10000" width="5500" height="600" fill-opacity="0.85" pointer-events="none"/>
<text id="textboxid" x="-10000" y="-10000" pointer-events="none"> </text>
</a></svg>
