<?xml version="1.0" encoding="UTF-8"?>
<!DOCTYPE svg PUBLIC "-//W3C//DTD SVG 1.1//EN" "http://www.w3.org/Graphics/SVG/1.1/DTD/svg11.dtd">
<!-- Creator: CorelDRAW X5 -->
<svg xmlns="http://www.w3.org/2000/svg" xml:space="preserve" width="100%" height="100%" shape-rendering="geometricPrecision" text-rendering="geometricPrecision" image-rendering="optimizeQuality" fill-rule="evenodd" clip-rule="evenodd"
viewBox="0 0 24000 18000"
 xmlns:xlink="http://www.w3.org/1999/xlink">
<a>
 <g id="Layer_x0020_1">
  <metadata id="CorelCorpID_0Corel-Layer"/>
  <g id="Cycle_Annual" onclick=" parent.replacechar('Cycle_Annual')" onmousemove=" showtooltip('Cycle_Annual','Plante annuelle')" onmouseout=" hidetooltip('Cycle_Annual')" cursor="pointer">
   <rect fill="white" x="1844" y="1773" width="5044" height="14644"/>
   <line fill="none" stroke="#009846" stroke-width="17.64" x1="4428" y1="13708" x2="4428" y2= "7052" />
   <path fill="#009846" d="M4489 7589c92,-162 720,-953 795,-1036 76,-83 239,-229 239,-229 0,0 -88,224 -155,312 -67,88 -474,894 -587,1073 -112,178 -257,248 -339,237 -71,-150 -45,-195 47,-357z"/>
   <path fill="#009846" d="M4003 10571c-175,-207 -1273,-1829 -1352,-1971 -80,-142 -165,-465 -165,-465 0,0 243,267 332,402 89,134 1267,1563 1446,1792 179,228 219,404 177,502 -216,4 -264,-53 -439,-260z"/>
   <path fill="#009846" d="M4639 12740c195,-256 1500,-1641 1904,-2027 404,-386 941,-783 941,-783 0,0 -523,569 -680,765 -157,196 -1584,2003 -1800,2245 -216,242 -461,371 -574,358 -40,-231 14,-302 208,-558z"/>
   <path fill="none" stroke="#2A2A29" stroke-width="7.62" d="M4424 13687c0,0 -222,-40 -451,337 -229,377 -235,517 -520,574"/>
   <path fill="none" stroke="#2A2A29" stroke-width="7.62" d="M4429 13692c0,0 480,387 480,710 0,323 0,856 81,856"/>
   <path fill="none" stroke="#2A2A29" stroke-width="7.62" d="M4426 13693c0,0 -249,1166 -147,1661 102,495 -210,1295 -210,1295"/>
   <path fill="none" stroke="#2A2A29" stroke-width="7.62" d="M4431 13708c34,128 365,426 269,1121 -96,695 6,1293 6,1293"/>
   <path fill="none" stroke="#2A2A29" stroke-width="7.62" d="M4431 13682c0,0 -757,975 -669,1366 88,391 -236,682 -318,865"/>
   <path fill="none" stroke="#2A2A29" stroke-width="7.62" d="M4418 13680c0,0 528,158 665,508 137,350 178,335 235,476"/>
   <path fill="none" stroke="#009846" stroke-width="7.62" d="M4425 7159c0,0 73,-4372 -298,-5694"/>
   <g>
    <path fill="none" stroke="#009846" stroke-width="7.62" d="M4361 3414c0,0 -1141,-512 -1302,-845"/>
    <path fill="#A75F4A" d="M5267 4200c46,12 80,-16 99,-87 19,-70 8,-111 -41,-180 -101,72 -107,65 -126,136 -19,70 22,119 68,131z"/>
    <path fill="none" stroke="#009846" stroke-width="7.62" d="M4414 4587c0,0 1830,-1010 2313,-790"/>
    <path fill="#A75F4A" d="M5999 3863c46,12 80,-16 99,-87 19,-70 8,-111 -41,-180 -101,72 -107,65 -126,136 -19,70 22,119 68,131z"/>
    <path fill="#A75F4A" d="M6624 3757c34,-34 77,-26 129,26 51,52 62,92 54,177 -124,-12 -125,-3 -177,-55 -51,-52 -40,-114 -6,-148z"/>
    <path fill="#A75F4A" d="M5775 3947c34,-34 77,-26 129,26 51,52 62,92 54,177 -124,-12 -125,-3 -177,-55 -51,-52 -40,-114 -6,-148z"/>
    <path fill="#A75F4A" d="M2772 4610c-47,4 -76,-29 -82,-102 -7,-72 10,-111 71,-171 88,88 94,83 101,155 7,72 -42,113 -90,118z"/>
    <path fill="none" stroke="#009846" stroke-width="7.62" d="M4423 5432c-3,-2 -2056,-1144 -2699,-1152"/>
    <path fill="#A75F4A" d="M2121 4361c-46,12 -80,-16 -99,-87 -19,-70 -8,-111 41,-180 101,72 107,65 126,136 19,70 -22,119 -68,131z"/>
    <path fill="#A75F4A" d="M1847 4271c9,-47 -22,-78 -93,-92 -71,-14 -111,0 -177,54 79,96 73,102 144,116 71,14 117,-31 126,-78z"/>
    <path fill="#A75F4A" d="M2461 4475c-34,-34 -77,-26 -129,26 -51,52 -62,92 -54,177 124,-12 125,-3 177,-55 51,-52 40,-114 6,-148z"/>
    <path fill="#A75F4A" d="M3198 4803c-34,-34 -77,-26 -129,26 -51,52 -62,92 -54,177 124,-12 125,-3 177,-55 51,-52 40,-114 6,-148z"/>
    <path fill="#A75F4A" d="M3173 2706c-37,30 -79,18 -125,-39 -46,-56 -53,-97 -37,-181 122,24 124,16 170,72 46,56 28,118 -8,148z"/>
    <path fill="#A75F4A" d="M3374 2878c-34,-34 -88,-18 -140,33 -51,52 -62,92 -54,177 124,-12 125,-3 177,-55 51,-52 51,-122 17,-155z"/>
    <path fill="#A75F4A" d="M3721 3090c-34,-34 -77,-26 -129,26 -51,52 -62,92 -54,177 124,-12 125,-3 177,-55 51,-52 40,-114 6,-148z"/>
    <path fill="#A75F4A" d="M4154 1603c47,-9 65,-49 52,-120 -13,-72 -40,-104 -115,-145 -61,108 -68,105 -55,177 13,72 71,98 118,89z"/>
    <path fill="#A75F4A" d="M4209 1825c-18,-44 7,-81 74,-108 68,-27 109,-21 184,20 -59,109 -52,114 -120,141 -68,27 -121,-8 -138,-52z"/>
    <path fill="none" stroke="#009846" stroke-width="7.62" d="M4308 2686c0,0 615,-322 629,-498"/>
    <path fill="#A75F4A" d="M4960 2226c46,12 80,-16 99,-87 19,-70 8,-111 -41,-180 -101,72 -107,65 -126,136 -19,70 22,119 68,131z"/>
    <path fill="#A75F4A" d="M4735 2427c34,-34 77,-26 129,26 51,52 62,92 54,177 -124,-12 -125,-3 -177,-55 -51,-52 -40,-114 -6,-148z"/>
    <path fill="#A75F4A" d="M4257 2081c13,-46 -15,-80 -85,-100 -70,-20 -111,-11 -181,37 69,103 63,108 133,129 70,20 119,-20 133,-66z"/>
    <path fill="none" stroke="#009846" stroke-width="7.62" d="M4419 5433c0,0 -681,136 -744,300"/>
    <path fill="#A75F4A" d="M3709 5704c-41,-25 -81,-7 -119,55 -38,62 -39,104 -12,185 118,-40 121,-33 159,-95 38,-62 12,-120 -29,-145z"/>
    <path fill="#A75F4A" d="M3917 5586c-42,23 -81,3 -116,-61 -35,-64 -34,-106 -2,-185 115,46 119,39 154,103 35,64 6,121 -36,144z"/>
    <path fill="none" stroke="#009846" stroke-width="7.62" d="M4361 3425c0,0 -609,333 -621,509"/>
    <path fill="#A75F4A" d="M3765 3895c-46,-12 -79,18 -97,88 -18,71 -7,111 44,180 100,-73 106,-67 123,-138 18,-71 -24,-119 -71,-130z"/>
    <path fill="#A75F4A" d="M3927 3721c-33,34 -77,27 -129,-24 -52,-51 -64,-91 -57,-176 124,9 125,1 178,52 52,51 42,114 9,148z"/>
    <path fill="none" stroke="#009846" stroke-width="7.62" d="M4415 4592c0,0 681,136 744,300"/>
    <path fill="#A75F4A" d="M5125 4863c41,-25 81,-7 119,55 38,62 39,104 12,185 -118,-40 -121,-33 -159,-95 -38,-62 -12,-120 29,-145z"/>
    <path fill="#A75F4A" d="M4917 4745c42,23 81,3 116,-61 35,-64 34,-106 2,-185 -115,46 -119,39 -154,103 -35,64 -6,121 36,144z"/>
   </g>
  </g>
  <g id="Cycle_Vivacious" onclick=" parent.replacechar('Cycle_Vivacious')" onmousemove=" showtooltip('Cycle_Vivacious','Plante vivace')" onmouseout=" hidetooltip('Cycle_Vivacious')" cursor="pointer">
   <rect fill="white" x="7268" y="9203" width="7837" height="7837"/>
   <path fill="none" stroke="#86776F" stroke-width="17.64" d="M11384 14553c-7,16 -2608,-386 -3996,-1079 -213,-106 -188,-108 -432,-181"/>
   <path fill="none" stroke="#86776F" stroke-width="17.64" d="M11390 14539c56,-53 1775,1368 3183,1836"/>
   <path fill="none" stroke="#86776F" stroke-width="17.64" d="M11397 14562c-518,297 -886,765 -1389,978 -95,40 -98,37 -386,125"/>
   <g>
    <path fill="none" stroke="#2A2A29" stroke-width="7.62" d="M11429 14547c0,0 3,139 -82,226 -84,87 -114,112 -169,270 -54,158 -11,104 -82,202 -71,98 -123,204 -106,264"/>
    <path fill="none" stroke="#2A2A29" stroke-width="7.62" d="M11530 15269c11,-90 -46,-144 -57,-237 -11,-93 24,-133 16,-201 -78,-646 -103,-35 -139,155 -10,53 -54,117 -57,207 -3,90 -49,158 -27,264 22,106 3,103 3,103"/>
    <path fill="none" stroke="#2A2A29" stroke-width="7.62" d="M11437 14547c27,23 -68,287 -46,428 22,140 1,55 21,127 20,72 29,125 22,195 -7,70 3,97 -12,125"/>
    <path fill="none" stroke="#2A2A29" stroke-width="7.62" d="M11427 14548c0,0 -109,150 -109,220 0,132 7,153 -65,261 -54,82 -71,131 -73,220 -3,90 0,169 3,210"/>
    <path fill="none" stroke="#2A2A29" stroke-width="7.62" d="M11431 14545c0,0 109,150 109,220 0,132 -7,153 65,261 54,82 71,131 73,220 3,90 0,169 -3,210"/>
   </g>
   <path fill="none" stroke="#86776F" stroke-width="17.64" d="M11437 14564c24,55 1343,-299 2448,-360"/>
   <path fill="#009846" d="M12321 12541c-37,31 -111,-5 -72,-67 39,-62 297,-267 405,-361 108,-94 232,-291 431,-492 -157,229 -420,599 -469,647 -111,109 -171,204 -296,273z"/>
   <path fill="none" stroke="#009846" stroke-width="7.62" d="M12876 11036c42,71 -1292,3326 -1448,3510"/>
   <path fill="none" stroke="#009846" stroke-width="7.62" d="M11421 14531c176,-325 44,-1560 44,-1560"/>
   <path fill="#009846" d="M12023 13069c18,53 118,64 119,-21 1,-84 -125,-414 -175,-572 -50,-158 -85,-643 -158,-959 10,318 70,1031 88,1107 43,173 42,302 126,445z"/>
   <path fill="#009846" d="M11722 13748c-36,55 23,148 101,87 78,-61 296,-414 406,-573 111,-160 534,-549 775,-846 -285,244 -901,824 -958,896 -130,165 -249,259 -324,437z"/>
   <path fill="#009846" d="M11472 14456c30,71 -48,180 -136,80 -88,-100 -328,-659 -399,-754 -71,-95 -283,-469 -396,-939 307,626 619,983 666,1078 109,218 205,316 265,536z"/>
   <path fill="#009846" d="M11542 14018c22,51 -41,120 -97,57 -56,-63 -211,-352 -280,-502 -69,-150 -338,-574 -495,-857 202,246 629,821 666,889 84,157 169,253 205,413z"/>
   <path fill="#009846" d="M11556 13571c-11,31 -69,37 -69,-12 -1,-49 73,-240 102,-332 29,-92 49,-373 92,-557 -6,184 -41,598 -51,642 -25,101 -24,175 -73,258z"/>
   <path fill="#009846" d="M11481 13415c2,20 23,29 33,2 10,-27 -12,-129 -16,-188 -4,-58 -30,-180 -32,-293 -15,103 16,255 10,328 5,64 -17,92 4,150z"/>
   <path fill="none" stroke="#86755D" stroke-width="35.28" d="M12865 11066c0,0 556,-398 970,-498m-956 489c0,0 442,-774 876,-948m-886 963c0,0 189,-988 399,-1358m-393 1353c0,0 -384,-520 -692,-779m690 773c0,0 -11,-817 -248,-1163"/>
   <path fill="#009846" d="M11511 14547c-64,43 -171,30 -90,-75 81,-106 579,-442 658,-530 79,-88 658,-535 1006,-810 -292,305 -980,967 -1064,1032 -193,149 -306,282 -510,383z"/>
   <path fill="#009846" d="M11501 14489c-48,45 -226,4 -103,-84 123,-88 343,-389 480,-526 138,-137 460,-597 710,-886 -190,324 -653,1032 -714,1101 -139,157 -211,291 -374,395z"/>
   <g>
    <g>
     <path fill="none" stroke="#2A2A29" stroke-width="7.62" d="M7520 13920c1,-50 23,-102 15,-151 -9,-50 -21,-97 -18,-145 -14,-84 -17,-82 -24,-91 -6,-4 -6,142 -11,218 -2,30 -18,67 -15,116"/>
     <path fill="none" stroke="#2A2A29" stroke-width="7.62" d="M7495 13507c0,0 -39,88 -36,126 6,72 9,83 -16,146 -19,48 -24,75 -21,124"/>
     <path fill="none" stroke="#2A2A29" stroke-width="7.62" d="M7495 13506c-6,3 52,76 56,114 7,72 4,84 38,139 26,41 35,67 40,116"/>
    </g>
    <g>
     <path fill="#009846" d="M7494 13540c70,7 165,-215 193,-276 63,-135 112,-315 153,-402 -79,108 -110,254 -188,384 -22,37 -230,269 -158,294z"/>
     <path fill="none" stroke="#009846" stroke-width="7.62" d="M7505 13539c0,0 -20,-285 26,-401"/>
     <path fill="#009846" d="M7508 13344c58,-4 93,-198 108,-252 33,-119 60,-265 75,-341 -47,98 -68,193 -116,320 -13,33 -129,262 -67,272z"/>
     <path fill="#009846" d="M7493 13461c-69,-9 -144,-254 -158,-320 -31,-146 -64,-295 -104,-368 59,77 97,198 147,333 15,40 190,348 115,355z"/>
     <path fill="#009846" d="M7509 13252c-37,-15 -53,-198 -54,-246 -2,-107 -49,-284 -64,-341 29,42 80,208 94,309 4,30 66,282 24,277z"/>
     <path fill="#009846" d="M7519 13195c22,-16 12,-165 13,-201 2,-85 3,-185 -2,-231 -7,41 -18,146 -19,223 0,23 -18,218 8,209z"/>
    </g>
   </g>
   <g>
    <g>
     <path fill="none" stroke="#2A2A29" stroke-width="7.62" d="M9959 16012c-1,-57 -26,-116 -17,-173 10,-57 24,-111 20,-166 16,-96 31,-117 26,-133 7,-5 8,191 14,278 2,34 20,76 17,132"/>
     <path fill="none" stroke="#2A2A29" stroke-width="7.62" d="M9991 15539c0,0 41,101 38,145 -6,82 -11,95 18,167 22,54 27,86 24,142"/>
     <path fill="none" stroke="#2A2A29" stroke-width="7.62" d="M9987 15539c7,3 -60,86 -64,130 -8,82 -4,96 -44,158 -30,47 -40,77 -46,132"/>
    </g>
    <g>
     <path fill="#009846" d="M9987 15554c-74,0 -187,-244 -210,-310 -53,-148 -218,-367 -270,-437 72,41 250,232 321,366 21,40 237,362 159,381z"/>
     <path fill="none" stroke="#009846" stroke-width="7.62" d="M9993 15551c0,0 40,-321 2,-447"/>
     <path fill="#009846" d="M10001 15322c-60,-10 -120,-224 -130,-281 -23,-128 -129,-329 -162,-393 53,43 173,223 213,342 12,35 145,328 79,332z"/>
     <path fill="#009846" d="M10005 15465c73,-3 174,-252 195,-320 46,-150 200,-377 249,-449 -70,45 -239,244 -303,381 -19,41 -219,374 -141,388z"/>
     <path fill="#009846" d="M10007 15226c40,-13 74,-202 80,-252 12,-112 78,-293 98,-351 -35,41 -111,205 -134,310 -7,31 -89,293 -44,293z"/>
     <path fill="#009846" d="M9995 15165c-34,-20 -4,-175 -2,-212 4,-90 12,-194 25,-242 8,44 15,156 10,236 -1,24 8,231 -33,218z"/>
    </g>
   </g>
   <g>
    <g>
     <path fill="none" stroke="#2A2A29" stroke-width="7.62" d="M9137 14089c0,0 13,107 -45,181 -58,74 -80,95 -109,222 -30,127 0,81 -47,163 -47,81 -79,168 -61,213"/>
     <path fill="none" stroke="#2A2A29" stroke-width="7.62" d="M9272 14640c1,-70 -47,-108 -63,-179 -16,-71 8,-105 -3,-157 -111,-494 -82,-19 -95,131 -4,42 -33,95 -28,165 5,70 -25,126 0,206 25,80 10,80 10,80"/>
     <path fill="none" stroke="#2A2A29" stroke-width="7.62" d="M9144 14089c23,16 -30,228 -2,335 28,107 5,43 26,96 21,54 32,94 33,150 0,55 10,75 1,97"/>
     <path fill="none" stroke="#2A2A29" stroke-width="7.62" d="M9135 14090c0,0 -72,124 -67,179 10,102 17,118 -30,207 -36,67 -44,107 -39,176 5,70 13,131 19,162"/>
     <path fill="none" stroke="#2A2A29" stroke-width="7.62" d="M9138 14088c0,0 96,107 102,162 10,102 7,119 71,197 49,59 65,96 74,165 9,69 13,131 14,162"/>
    </g>
    <g>
     <path fill="none" stroke="#009846" stroke-width="7.62" d="M9130 14078c111,-265 -180,-1961 -180,-1961"/>
     <g>
      <path fill="#009846" d="M9196 13975c-20,47 -108,23 -102,-54 6,-77 109,-426 165,-566 56,-140 144,-544 233,-828 -36,290 -178,962 -200,1029 -51,155 -12,294 -96,419z"/>
      <path fill="#009846" d="M9163 14015c29,52 -23,143 -99,72 -76,-70 -306,-484 -369,-552 -63,-68 -256,-340 -381,-696 287,460 556,711 601,781 102,160 183,229 247,394z"/>
      <path fill="#009846" d="M9183 13671c21,38 -22,96 -70,52 -48,-44 -191,-256 -256,-366 -65,-110 -307,-417 -451,-624 176,174 552,585 586,635 78,115 151,182 191,303z"/>
      <path fill="#009846" d="M9158 13324c-6,25 -50,34 -55,-4 -4,-38 37,-192 52,-265 15,-73 9,-293 27,-438 10,143 16,466 11,501 -11,80 -5,137 -36,206z"/>
      <path fill="#009846" d="M9201 14083c-46,38 -130,37 -75,-51 54,-88 413,-387 467,-462 54,-75 467,-466 714,-706 -202,259 -682,826 -742,883 -137,131 -215,242 -364,337z"/>
      <path fill="#009846" d="M9188 14039c-33,39 -175,21 -86,-57 88,-78 234,-328 330,-445 96,-117 309,-498 479,-742 -122,266 -424,850 -465,908 -95,133 -141,242 -258,335z"/>
     </g>
     <path fill="none" stroke="#86755D" stroke-width="35.28" d="M8966 12165c0,0 -265,-211 -677,-210m664 201c0,0 -199,-367 -554,-602m563 616c0,0 -118,-465 -92,-857m85 852c0,0 88,-176 573,-339m-570 334c-4,0 122,-277 361,-690"/>
    </g>
   </g>
   <g>
    <g>
     <path fill="none" stroke="#2A2A29" stroke-width="7.62" d="M13544 14773c-1,-69 -32,-142 -21,-212 12,-70 29,-136 25,-203 20,-118 24,-115 34,-128 9,-6 9,199 16,305 3,41 25,93 21,162"/>
     <path fill="none" stroke="#2A2A29" stroke-width="7.62" d="M13579 14196c0,0 55,123 50,176 -8,100 -13,116 23,204 27,66 34,105 30,174"/>
     <path fill="none" stroke="#2A2A29" stroke-width="7.62" d="M13579 14194c8,4 -73,106 -78,159 -10,100 -5,117 -54,194 -37,58 -49,94 -56,162"/>
    </g>
    <g>
     <path fill="#009846" d="M13581 14243c-97,9 -231,-300 -270,-386 -88,-189 -156,-440 -213,-561 111,151 154,354 263,537 31,51 322,376 221,410z"/>
     <path fill="none" stroke="#009846" stroke-width="7.62" d="M13565 14240c0,0 29,-398 -36,-560"/>
     <path fill="#009846" d="M13561 13968c-81,-6 -129,-277 -150,-352 -46,-166 -84,-370 -105,-476 65,137 94,270 161,448 17,46 180,367 93,381z"/>
     <path fill="#009846" d="M13582 14132c97,-13 201,-355 220,-447 43,-204 89,-412 145,-514 -82,108 -136,276 -205,465 -21,56 -266,486 -160,496z"/>
     <path fill="#009846" d="M13560 13840c52,-22 75,-276 76,-344 3,-149 69,-398 89,-476 -41,59 -112,290 -131,432 -6,42 -93,394 -34,388z"/>
     <path fill="#009846" d="M13546 13761c-31,-23 -17,-231 -18,-281 -3,-119 -4,-258 3,-323 10,57 25,204 27,311 1,32 25,305 -11,293z"/>
    </g>
   </g>
   <g>
    <g>
     <path fill="none" stroke="#2A2A29" stroke-width="7.62" d="M14263 16224c0,0 -25,105 24,186 49,80 68,104 83,233 15,129 -9,81 28,167 37,86 59,176 36,219"/>
     <path fill="none" stroke="#2A2A29" stroke-width="7.62" d="M14065 16756c7,-70 59,-102 83,-170 24,-68 4,-105 22,-156 168,-478 84,-9 79,141 -1,42 22,98 9,167 -13,69 11,128 -24,205 -34,77 -19,78 -19,78"/>
     <path fill="none" stroke="#2A2A29" stroke-width="7.62" d="M14257 16223c-24,13 3,230 -37,333 -40,103 -10,42 -37,93 -27,51 -43,90 -50,145 -6,55 -19,73 -12,97"/>
     <path fill="none" stroke="#2A2A29" stroke-width="7.62" d="M14265 16226c0,0 57,132 46,186 -22,100 -31,115 6,209 28,71 32,111 19,180 -13,69 -28,128 -37,159"/>
     <path fill="none" stroke="#2A2A29" stroke-width="7.62" d="M14262 16223c0,0 -108,95 -120,149 -22,100 -21,117 -94,187 -55,53 -76,87 -93,155 -17,68 -28,128 -33,160"/>
    </g>
    <path fill="none" stroke="#009846" stroke-width="7.62" d="M14272 16214c-79,-276 352,-1555 352,-1555"/>
    <g>
     <path fill="#009846" d="M14210 16128c14,49 105,35 108,-42 3,-77 -59,-436 -98,-582 -39,-146 -80,-557 -135,-849 2,292 65,976 79,1046 33,160 -22,294 47,428z"/>
     <path fill="#009846" d="M14231 16184c-28,53 26,142 100,71 75,-72 296,-490 358,-559 61,-69 250,-345 367,-703 -278,465 -542,722 -586,793 -99,162 -179,232 -239,398z"/>
     <path fill="#009846" d="M14265 15720c-14,32 24,75 60,37 36,-38 135,-217 180,-310 45,-92 217,-354 318,-529 -129,151 -402,504 -425,547 -54,97 -108,156 -132,255z"/>
     <path fill="#009846" d="M14324 15485c3,25 46,40 55,3 9,-37 -15,-195 -21,-269 -7,-74 26,-292 24,-438 -27,141 -70,461 -69,496 2,81 -11,137 12,208z"/>
     <path fill="#009846" d="M14210 16192c29,42 171,41 92,-46 -79,-87 -195,-353 -276,-481 -81,-127 -249,-531 -390,-792 90,278 322,894 357,956 79,143 112,256 217,363z"/>
    </g>
    <path fill="none" stroke="#86755D" stroke-width="35.28" d="M14619 14658c0,0 243,-99 549,-9m-537 5c0,0 227,-229 542,-327m-552 335c0,0 188,-320 254,-617m-248 614c0,0 -27,-150 -352,-376m351 372c3,1 -31,-232 -118,-591"/>
   </g>
   <path fill="#86776F" d="M6973 13295c1,-6 -11,-10 -18,-11 -8,-2 -12,-2 -34,0 4,4 25,16 33,17 8,2 18,0 19,-6z"/>
   <path fill="#86776F" d="M9628 15663c-2,-8 -14,-4 -21,-2 -8,2 -16,4 -30,17 12,2 30,0 38,-3 8,-2 16,-4 14,-12z"/>
   <path fill="#86776F" d="M14564 16371c2,-5 11,-3 19,1 8,4 2,-1 15,13 -4,1 -14,1 -23,-1 -10,-2 -12,-8 -10,-13z"/>
   <path fill="#86776F" d="M13875 14202c0,-6 8,-7 19,-6 11,1 11,2 21,6 -4,3 -15,7 -25,8 -10,1 -14,-2 -15,-8z"/>
  </g>
  <g id="Cycle_Perenial" onclick=" parent.replacechar('Cycle_Perenial')" onmousemove=" showtooltip('Cycle_Perenial','Plante perenne')" onmouseout=" hidetooltip('Cycle_Perenial')" cursor="pointer">
   <path fill="#009847" stroke="#2C2C2B" stroke-width="7.62" stroke-linejoin="bevel" d="M16936 10224c-550,278 -1302,62 -1513,-466 144,-249 273,-360 384,-396 -111,-139 -500,-234 -539,-612 116,-141 449,-293 526,-345 -62,-337 -77,-602 59,-890 203,-28 373,-62 694,219 -93,-296 -116,-1240 44,-1350 85,-103 301,-100 460,-100 -23,-149 -108,-478 75,-633 154,-134 442,-23 519,21 28,-90 80,-298 201,-357 195,21 457,44 534,59 188,-507 305,-470 793,-508 1029,149 874,209 1123,477 821,-343 714,261 955,643 552,-48 1045,380 566,894 224,-90 177,-81 283,-43 121,59 211,157 231,260 708,-116 1223,166 689,836 911,124 526,840 260,782 149,87 209,317 281,435 -116,792 -650,1394 -1905,841 -528,253 -778,277 -1681,96 -700,419 -746,17 -1648,230 -790,186 -972,-99 -1392,-91z"/>
   <path fill="#CA8B28" stroke="#2C2C2B" stroke-width="7.62" stroke-linejoin="bevel" d="M18985 13748c62,-1265 108,-2086 149,-3163 -126,-442 -730,-669 -1106,-730 -651,-77 -995,162 -1430,208 -293,8 -607,-23 -707,-239 113,21 237,141 414,144 594,15 874,-193 1510,-280 -293,-226 -597,-285 -1011,-553 -98,-26 -828,-15 -1047,-437 139,33 165,260 869,311 -80,-159 -283,-316 -381,-633 -44,-131 -44,-419 67,-499 -31,211 13,730 399,990 69,-5 64,-28 82,-64 93,-180 0,-404 44,-517 159,242 80,610 51,705 411,314 656,386 1085,602 436,220 1018,302 1279,499l-21 -16 -78 -47c5,-303 8,-615 13,-907 5,-282 9,-564 14,-855 0,-10 1,-45 -9,-69 -108,-244 -798,-673 -945,-820 -337,-126 -854,-129 -1173,-656 324,237 450,447 1060,509 -105,-159 -592,-813 -502,-1188 144,404 278,810 586,1070 90,-252 -39,-589 -31,-820 190,499 105,630 129,939 131,157 489,532 887,563 15,-532 28,-728 41,-1196 -152,-257 -324,-535 -298,-941 28,180 46,329 314,769 152,-213 3,-823 93,-975 95,154 90,615 116,702 159,-170 180,-327 265,-514 28,177 -108,406 -239,651 8,910 -26,910 -21,1466 1011,-612 1137,-1121 1402,-1816 8,383 -278,885 -468,1188 548,-141 648,-365 854,-556 -139,221 -167,424 -928,658 -419,414 -609,468 -841,810 -23,864 -33,1556 -10,2073 558,-471 1456,-486 2212,-1209 -10,-242 -172,-949 67,-1132 -57,121 -121,777 46,1054 355,-206 697,-702 967,-1286 23,432 -347,717 -494,1036 484,0 725,-368 826,-327 -422,440 -581,306 -923,476 -483,316 -700,550 -1093,790 1008,296 1620,-23 1888,-231 -512,581 -1134,478 -2029,355 -622,213 -1047,316 -1461,928 -116,941 15,684 -8,3179l-473 0z"/>
  </g>
 </g>
<image xlink:href="tick.gif" id="imgtick" x="-10000" y="-10000" width="1500" height="1500"/>
<rect id="recttooltip" x="-10000" y="-10000" width="5500" height="600" fill-opacity="0.85" pointer-events="none"/>
<text id="textboxid" x="-10000" y="-10000" pointer-events="none"> </text>
</a></svg>
