<?xml version="1.0" encoding="UTF-8"?>
<!DOCTYPE svg PUBLIC "-//W3C//DTD SVG 1.1//EN" "http://www.w3.org/Graphics/SVG/1.1/DTD/svg11.dtd">
<!-- Creator: CorelDRAW X5 -->
<svg xmlns="http://www.w3.org/2000/svg" xml:space="preserve" width="100%" height="100%" shape-rendering="geometricPrecision" text-rendering="geometricPrecision" image-rendering="optimizeQuality" fill-rule="evenodd" clip-rule="evenodd"
viewBox="0 0 24000 18000"
 xmlns:xlink="http://www.w3.org/1999/xlink">
<a>
 <g id="Layer_x0020_1">
  <metadata id="CorelCorpID_0Corel-Layer"/>
  <g id="ake_no" onclick="parent.replacechar('ake_no')" onmousemove="parent.showtooltip('ake_no','Ak&#232;ne sans pappus')" onmouseout="parent.hidetooltip('ake_no')" cursor="pointer">
   <path fill="#DBE501" stroke="black" stroke-width="7.62" d="M5624 1839c255,55 334,7 481,9 88,1 257,-190 448,-120 630,372 63,5129 -476,6550 -408,-310 -1528,-5808 -453,-6439z"/>
   <path fill="none" stroke="black" stroke-width="7.62" d="M6101 1876c-623,1871 -265,4053 -22,6378"/>
   <g>
    <path fill="white" stroke="black" stroke-width="7.62" d="M5860 1574c0,0 418,-46 510,-7 50,-3 100,29 148,152 -295,-5 -288,122 -432,123 -290,20 -342,31 -458,-10 -12,-4 193,-244 233,-258z"/>
    <path fill="none" stroke="black" stroke-width="7.62" d="M5969 1683c-113,0 -191,164 -328,136"/>
    <path fill="none" stroke="black" stroke-width="7.62" d="M5971 1681c60,28 63,138 143,158"/>
    <path fill="none" stroke="black" stroke-width="7.62" d="M5971 1689c107,-81 301,4 412,-121"/>
    <path fill="none" stroke="black" stroke-width="7.62" d="M5959 1681c-18,-41 -87,-44 -99,-98"/>
   </g>
  </g>
  <g id="ake_ecaille" onclick="parent.replacechar('ake_ecaille')" onmousemove="parent.showtooltip('ake_ecaille','Ak&#232;ne &#224; pappus &#233;cailleux')" onmouseout="parent.hidetooltip('ake_ecaille')" cursor="pointer">
   <path fill="#DBE501" stroke="black" stroke-width="7.62" d="M11624 1839c255,55 334,7 481,9 88,1 257,-190 448,-120 630,372 63,5129 -476,6550 -408,-310 -1528,-5808 -453,-6439z"/>
   <path fill="none" stroke="black" stroke-width="7.62" d="M12101 1876c-623,1871 -265,4053 -22,6378"/>
   <path fill="none" stroke="black" stroke-width="7.62" d="M11631 1836c-101,-154 -143,-423 -178,-514 66,23 102,110 120,113 -12,-60 -156,-338 -162,-418 36,44 164,260 240,388 0,13 15,-14 65,-37 28,59 124,419 124,354 0,-133 74,-325 81,-457 18,-33 34,13 65,57 0,-40 92,-502 92,-489 0,212 -36,483 -19,687 43,-252 37,-161 37,-200 0,-27 68,398 81,384 27,-27 157,-327 170,-367 0,-1 17,63 28,96 66,-66 150,-389 228,-473 -16,112 -83,554 -146,753 -81,-10 -233,103 -339,134 -254,28 -379,28 -487,-9z"/>
  </g>
  <g id="ake_dente" onclick="parent.replacechar('ake_dente')" onmousemove="parent.showtooltip('ake_dente','Ak&#232;ne &#224; pappus dent&#233;')" onmouseout="parent.hidetooltip('ake_dente')" cursor="pointer">
    <metadata id="CorelCorpID_1">
     <odm name="Name" value="ake_dente" type="0"/>
    </metadata>
   <polygon fill="white" stroke="#141516" stroke-width="7.62" points="18223,3091 18294,729 18106,2936 17898,2946 17702,738 17769,3096 "/>
   <path fill="#DBE501" stroke="black" stroke-width="7.62" d="M17770 3061c207,45 271,6 390,7 72,1 -2,-1 153,56 510,302 261,4003 -175,5154 -331,-251 -1238,-4706 -367,-5217z"/>
   <path fill="none" stroke="black" stroke-width="7.62" d="M18157 3090c-505,1516 -215,3284 -18,5168"/>
  </g>
  <g id="ake_plumose" onclick="parent.replacechar('ake_plumose')" onmousemove="parent.showtooltip('ake_plumose','Ak&#232;ne &#224; pappus plumeux')" onmouseout="parent.hidetooltip('ake_plumose')" cursor="pointer">
   <line fill="none" stroke="black" stroke-width="4.62" x1="2909" y1="9727" x2="3549" y2= "12866" />
   <line fill="none" stroke="black" stroke-width="4.62" x1="3296" y1="9665" x2="3606" y2= "12866" />
   <line fill="none" stroke="black" stroke-width="4.62" x1="3687" y1="9592" x2="3662" y2= "12860" />
   <line fill="none" stroke="black" stroke-width="4.62" x1="4194" y1="9654" x2="3698" y2= "12855" />
   <line fill="none" stroke="black" stroke-width="4.62" x1="4555" y1="9763" x2="3750" y2= "12840" />
   <line fill="none" stroke="black" stroke-width="4.62" x1="4963" y1="9881" x2="3807" y2= "12814" />
   <line fill="none" stroke="black" stroke-width="4.62" x1="5320" y1="10072" x2="3874" y2= "12778" />
   <line fill="none" stroke="black" stroke-width="4.62" x1="2553" y1="9882" x2="3503" y2= "12877" />
   <line fill="none" stroke="black" stroke-width="4.62" x1="2218" y1="9957" x2="3457" y2= "12869" />
   <line fill="none" stroke="black" stroke-width="4.62" x1="1980" y1="10119" x2="3426" y2= "12866" />
   <line fill="none" stroke="black" stroke-width="4.62" x1="5563" y1="10253" x2="3931" y2= "12772" />
   <line fill="none" stroke="black" stroke-width="4.62" x1="5872" y1="10397" x2="3973" y2= "12772" />
   <line fill="none" stroke="black" stroke-width="4.62" x1="1717" y1="10326" x2="3410" y2= "12866" />
   <line fill="none" stroke="black" stroke-width="4.62" x1="3389" y1="12861" x2="1407" y2= "10506" />
   <polyline fill="none" stroke="black" stroke-width="4.62" points="5945,10604 3962,12814 6089,10790 "/>
   <path fill="#DBE501" stroke="black" stroke-width="7.62" d="M3376 12850c166,36 217,5 313,6 57,1 167,-123 291,-78 409,242 41,3334 -309,4257 -265,-201 -993,-3775 -294,-4185z"/>
   <path fill="none" stroke="black" stroke-width="7.62" d="M3687 12874c-405,1216 -172,2634 -14,4146"/>
  </g>
  <g id="diakene" onclick="parent.replacechar('diakene')" onmousemove="parent.showtooltip('diakene','Ak&#232;ne aplati')" onmouseout="parent.hidetooltip('diakene')" cursor="pointer">
    <metadata id="CorelCorpID_2">
     <odm name="Name" value="ake_aplati" type="0"/>
    </metadata>
   <g>
    <path fill="#DBE501" stroke="black" stroke-width="7.62" d="M9052 11117c13,-90 137,-190 292,-121 -31,-164 -262,-99 -333,58 -26,-78 -263,-285 -330,-76 118,-54 304,51 299,144 -58,34 -160,26 -160,204 -103,40 -347,-135 -593,724 -44,153 -225,1106 -246,1264 -21,157 -100,640 -58,1023 42,383 388,718 572,792 184,73 362,100 509,105 147,5 535,-26 734,-225 199,-199 294,-414 315,-650 21,-236 -26,-970 -26,-1106 0,-136 -167,-1088 -231,-1253 -106,-273 -202,-659 -590,-669 -22,-123 -41,-177 -153,-212z"/>
    <line fill="none" stroke="black" stroke-width="7.62" x1="9013" y1="11502" x2="9016" y2= "15228" />
    <path fill="none" stroke="black" stroke-width="7.62" d="M8910 15227c0,0 -365,-353 -290,-1746 75,-1393 228,-1878 311,-2067"/>
    <path fill="none" stroke="black" stroke-width="7.62" d="M8781 15210c0,0 -286,-115 -421,-708 -134,-594 -91,-1354 -49,-1553 42,-199 287,-1609 561,-1584"/>
    <path fill="none" stroke="black" stroke-width="7.62" d="M8818 11329c45,21 126,88 196,168 56,-60 120,-138 193,-169"/>
    <path fill="none" stroke="black" stroke-width="7.62" d="M9119 15227c0,0 365,-353 290,-1746 -75,-1393 -228,-1878 -311,-2067"/>
    <path fill="none" stroke="black" stroke-width="7.62" d="M9248 15210c0,0 286,-115 421,-708 134,-594 91,-1354 49,-1553 -42,-199 -287,-1615 -561,-1590"/>
   </g>
   <g>
    <path fill="#DBE501" stroke="black" stroke-width="7.62" d="M10090 16408c0,0 -530,-621 -1072,-634 -542,-12 -1042,539 -1078,618 326,21 2151,15 2151,15z"/>
    <path fill="white" stroke="black" stroke-width="7.62" d="M9785 16283c0,0 -391,-366 -720,-369 -329,-2 -765,303 -791,358 229,15 1510,11 1510,11z"/>
    <path fill="#DBE501" stroke="black" stroke-width="7.62" d="M10087 16403c0,0 -534,619 -1076,632 -542,12 -1038,-556 -1074,-635 326,-21 2151,3 2151,3z"/>
    <path fill="white" stroke="black" stroke-width="7.62" d="M9778 16525c0,0 -391,366 -720,369 -329,2 -765,-303 -791,-358 229,-15 1510,-11 1510,-11z"/>
   </g>
  </g>
  <g id="ake_bicon" onclick="parent.replacechar('ake_bicon')" onmousemove="parent.showtooltip('ake_bicon','Ak&#232;ne biconvexe')" onmouseout="parent.hidetooltip('ake_bicon')" cursor="pointer">
    <metadata id="CorelCorpID_3">
     <odm name="Name" value="ake_bicon" type="0"/>
    </metadata>
   <line fill="none" stroke="black" stroke-width="7.62" x1="15059" y1="9036" x2="15037" y2= "9969" />
   <path fill="none" stroke="black" stroke-width="7.62" d="M15063 9049c199,-66 384,-779 384,-996"/>
   <path fill="none" stroke="black" stroke-width="7.62" d="M15052 9049c-199,-66 -483,-770 -483,-987"/>
   <path fill="#DBE501" stroke="black" stroke-width="7.62" d="M15031 9869c-2308,1265 -1201,4634 36,5691 1596,-1963 1738,-4932 -36,-5691z"/>
   <ellipse fill="#DBE501" stroke="black" stroke-width="7.62" cx="15089" cy="16700" rx="1201" ry="334"/>
  </g>
  <g id="ake_trigone" onclick="parent.replacechar('ake_trigone')" onmousemove="parent.showtooltip('ake_trigone','Ak&#232;ne trigone')" onmouseout="parent.hidetooltip('ake_trigone')" cursor="pointer">
    <metadata id="CorelCorpID_4">
     <odm name="Name" value="ake_ trigone" type="0"/>
    </metadata>
   <polygon fill="#DBE501" stroke="black" stroke-width="7.62" points="20179,17035 21112,16179 22124,17035 "/>
   <path fill="none" stroke="black" stroke-width="7.62" d="M21282 9162c-178,-59 -648,-851 -616,-1086"/>
   <path fill="none" stroke="black" stroke-width="7.62" d="M21293 9159c178,-59 413,-932 413,-1127"/>
   <path fill="#DBE501" stroke="black" stroke-width="7.62" d="M21229 10068c-1148,1389 -2259,3317 -211,5702 122,-31 114,-14 251,-89 399,-1521 836,-4347 -40,-5613z"/>
   <path fill="none" stroke="black" stroke-width="7.62" d="M21115 15495c-364,-1378 -647,-3855 97,-5418 166,-926 16,-980 16,-2130"/>
   <polyline fill="none" stroke="black" stroke-width="7.62" points="21104,15575 21046,15730 21240,15652 21104,15575 "/>
  </g>
 </g>
<image xlink:href="tick.gif" id="imgtick" x="-10000" y="-10000" width="1500" height="1500"/>
<rect id="recttooltip" x="-10000" y="-10000" width="5500" height="600" fill-opacity="0.85" pointer-events="none"/>
<text id="textboxid" x="-10000" y="-10000" pointer-events="none"> </text>
</a></svg>
