<?xml version="1.0" encoding="UTF-8"?>
<!DOCTYPE svg PUBLIC "-//W3C//DTD SVG 1.1//EN" "http://www.w3.org/Graphics/SVG/1.1/DTD/svg11.dtd">
<!-- Creator: CorelDRAW X5 -->
<svg xmlns="http://www.w3.org/2000/svg" xml:space="preserve" shape-rendering="geometricPrecision" text-rendering="geometricPrecision" image-rendering="optimizeQuality" fill-rule="evenodd" clip-rule="evenodd"
viewBox="0 0 24000 18000"
 xmlns:xlink="http://www.w3.org/1999/xlink">
<a>
 <g id="Layer_x0020_1">
  <metadata id="CorelCorpID_0Corel-Layer"/>
  <g id="Fl_red" onclick="parent.replacechar('Fl_red')" onmousemove="parent.showtooltip('Fl_red','Fleurs rouges')" onmouseout="parent.hidetooltip('Fl_red')" cursor="pointer">
    <metadata id="CorelCorpID_1">
     <odm name="Name" value="rouge" type="0"/>
    </metadata>
   <g id="fleur_x0020_blanche">
    <line fill="none" stroke="black" stroke-width="7.62" x1="22584" y1="14068" x2="21469" y2= "14772" />
    <line fill="none" stroke="black" stroke-width="7.62" x1="20573" y1="13038" x2="21436" y2= "13610" />
    <line id="petiole" fill="none" stroke="black" stroke-width="7.62" x1="22209" y1="12013" x2="21440" y2= "12547" />
    <path fill="#009341" stroke="black" stroke-width="7.62" d="M21436 12557c-1,85 9,97 6,134 0,0 172,20 293,6 32,-13 590,-157 607,-410 -104,94 -355,282 -585,313 -287,-24 -317,-38 -322,-42z"/>
    <path fill="#009341" stroke="black" stroke-width="7.62" d="M21430 13620c19,102 -1,96 5,140 0,0 -228,25 -375,13 -39,-14 -489,-96 -633,-332 128,110 324,186 602,216 345,-39 396,-31 401,-36z"/>
    <path id="feuille" fill="#009341" stroke="black" stroke-width="7.62" d="M21471 14778c-3,116 0,101 -1,149 0,0 249,10 404,-23 40,-20 564,-215 687,-487 -122,135 -376,289 -669,358 -374,4 -415,7 -421,3z"/>
    <path id="tige" fill="none" stroke="#2A2A29" stroke-width="7.62" d="M21447 10697c-44,402 -12,4292 48,5167"/>
   </g>
   <g id="fl1">
     <metadata id="CorelCorpID_2">
      <odm name="Name" value="fl1" type="0"/>
     </metadata>
    <path fill="#C81400" stroke="#F2B3CD" stroke-width="7.62" stroke-linejoin="bevel" d="M22529 14331c-126,-15 246,724 -314,452 -396,-244 233,-383 138,-497 -113,-147 -392,282 -486,125 -94,-175 -137,-522 45,-588 80,-29 342,215 426,184 157,-60 -229,-421 -87,-516 104,-77 321,-85 411,5 53,59 -113,429 -39,465 163,107 344,-331 488,-152 84,102 177,318 95,421 -46,71 -421,-110 -477,-48 -110,115 427,260 340,396 -49,72 -221,238 -315,225 -105,-18 -107,-454 -226,-471z"/>
    <path fill="white" stroke="black" stroke-width="7.62" stroke-linejoin="bevel" d="M22598 14039c59,55 67,138 25,189 -49,52 -139,53 -197,-7 -59,-55 -70,-140 -21,-192 51,-46 132,-46 193,11z"/>
   </g>
   <g id="fl1_0">
     <metadata id="CorelCorpID_3">
      <odm name="Name" value="fl1" type="0"/>
     </metadata>
    <path fill="#C81400" stroke="#F2B3CD" stroke-width="7.62" stroke-linejoin="bevel" d="M22269 12167c-126,-15 246,724 -314,452 -396,-244 233,-383 138,-497 -113,-147 -392,282 -486,125 -94,-175 -137,-522 45,-588 80,-29 342,215 426,184 157,-60 -229,-421 -87,-516 104,-77 321,-85 411,5 53,59 -113,429 -39,465 163,107 344,-331 488,-152 84,102 177,318 95,421 -46,71 -421,-110 -477,-48 -110,115 427,260 340,396 -49,72 -221,238 -315,225 -105,-18 -107,-454 -226,-471z"/>
    <path fill="white" stroke="black" stroke-width="7.62" stroke-linejoin="bevel" d="M22339 11874c59,55 67,138 25,189 -49,52 -139,53 -197,-7 -59,-55 -70,-140 -21,-192 51,-46 132,-46 193,11z"/>
   </g>
   <g id="fl1_1">
     <metadata id="CorelCorpID_4">
      <odm name="Name" value="fl1" type="0"/>
     </metadata>
    <path fill="#C81400" stroke="#F2B3CD" stroke-width="7.62" stroke-linejoin="bevel" d="M20321 13009c-126,-15 246,724 -314,452 -396,-244 233,-383 138,-497 -113,-147 -392,282 -486,125 -94,-175 -137,-522 45,-588 80,-29 342,215 426,184 157,-60 -229,-421 -87,-516 104,-77 321,-85 411,5 53,59 -113,429 -39,465 163,107 344,-331 488,-152 84,102 177,318 95,421 -46,71 -421,-110 -477,-48 -110,115 427,260 340,396 -49,72 -221,238 -315,225 -105,-18 -107,-454 -226,-471z"/>
    <path fill="white" stroke="black" stroke-width="7.62" stroke-linejoin="bevel" d="M20390 12717c59,55 67,138 25,189 -49,52 -139,53 -197,-7 -59,-55 -70,-140 -21,-192 51,-46 132,-46 193,11z"/>
   </g>
  </g>
  <g id="Fl_pink" onclick="parent.replacechar('Fl_pink')" onmousemove="parent.showtooltip('Fl_pink','Fleurs violettes &#224; mauve')" onmouseout="parent.hidetooltip('Fl_pink')" cursor="pointer">
    <metadata id="CorelCorpID_5">
     <odm name="Name" value="rose" type="0"/>
    </metadata>
   <g id="fleur_x0020_blanche_2">
    <line fill="none" stroke="black" stroke-width="7.62" x1="17986" y1="14068" x2="16871" y2= "14772" />
    <line fill="none" stroke="black" stroke-width="7.62" x1="15975" y1="13038" x2="16838" y2= "13610" />
    <line id="petiole_3" fill="none" stroke="black" stroke-width="7.62" x1="17611" y1="12013" x2="16842" y2= "12547" />
    <path fill="#009341" stroke="black" stroke-width="7.62" d="M16838 12557c-1,85 9,97 6,134 0,0 172,20 293,6 32,-13 590,-157 607,-410 -104,94 -355,282 -585,313 -287,-24 -317,-38 -322,-42z"/>
    <path fill="#009341" stroke="black" stroke-width="7.62" d="M16832 13620c19,102 -1,96 5,140 0,0 -228,25 -375,13 -39,-14 -489,-96 -633,-332 128,110 324,186 602,216 345,-39 396,-31 401,-36z"/>
    <path id="feuille_4" fill="#009341" stroke="black" stroke-width="7.62" d="M16873 14778c-3,116 0,101 -1,149 0,0 249,10 404,-23 40,-20 564,-215 687,-487 -122,135 -376,289 -669,358 -374,4 -415,7 -421,3z"/>
    <path id="tige_5" fill="none" stroke="#2A2A29" stroke-width="7.62" d="M16849 10697c-44,402 -12,4292 48,5167"/>
   </g>
   <g id="fl1_6">
     <metadata id="CorelCorpID_6">
      <odm name="Name" value="fl1" type="0"/>
     </metadata>
    <path fill="#E67CB4" stroke="#F2B3CD" stroke-width="7.62" stroke-linejoin="bevel" d="M17931 14331c-126,-15 246,724 -314,452 -396,-244 233,-383 138,-497 -113,-147 -392,282 -486,125 -94,-175 -137,-522 45,-588 80,-29 342,215 426,184 157,-60 -229,-421 -87,-516 104,-77 321,-85 411,5 53,59 -113,429 -39,465 163,107 344,-331 488,-152 84,102 177,318 95,421 -46,71 -421,-110 -477,-48 -110,115 427,260 340,396 -49,72 -221,238 -315,225 -105,-18 -107,-454 -226,-471z"/>
    <path fill="white" stroke="black" stroke-width="7.62" stroke-linejoin="bevel" d="M18000 14039c59,55 67,138 25,189 -49,52 -139,53 -197,-7 -59,-55 -70,-140 -21,-192 51,-46 132,-46 193,11z"/>
   </g>
   <g id="fl1_7">
     <metadata id="CorelCorpID_7">
      <odm name="Name" value="fl1" type="0"/>
     </metadata>
    <path fill="#E67CB4" stroke="#F2B3CD" stroke-width="7.62" stroke-linejoin="bevel" d="M17671 12167c-126,-15 246,724 -314,452 -396,-244 233,-383 138,-497 -113,-147 -392,282 -486,125 -94,-175 -137,-522 45,-588 80,-29 342,215 426,184 157,-60 -229,-421 -87,-516 104,-77 321,-85 411,5 53,59 -113,429 -39,465 163,107 344,-331 488,-152 84,102 177,318 95,421 -46,71 -421,-110 -477,-48 -110,115 427,260 340,396 -49,72 -221,238 -315,225 -105,-18 -107,-454 -226,-471z"/>
    <path fill="white" stroke="black" stroke-width="7.62" stroke-linejoin="bevel" d="M17741 11874c59,55 67,138 25,189 -49,52 -139,53 -197,-7 -59,-55 -70,-140 -21,-192 51,-46 132,-46 193,11z"/>
   </g>
   <g id="fl1_8">
     <metadata id="CorelCorpID_8">
      <odm name="Name" value="fl1" type="0"/>
     </metadata>
    <path fill="#E67CB4" stroke="#F2B3CD" stroke-width="7.62" stroke-linejoin="bevel" d="M15723 13009c-126,-15 246,724 -314,452 -396,-244 233,-383 138,-497 -113,-147 -392,282 -486,125 -94,-175 -137,-522 45,-588 80,-29 342,215 426,184 157,-60 -229,-421 -87,-516 104,-77 321,-85 411,5 53,59 -113,429 -39,465 163,107 344,-331 488,-152 84,102 177,318 95,421 -46,71 -421,-110 -477,-48 -110,115 427,260 340,396 -49,72 -221,238 -315,225 -105,-18 -107,-454 -226,-471z"/>
    <path fill="white" stroke="black" stroke-width="7.62" stroke-linejoin="bevel" d="M15792 12717c59,55 67,138 25,189 -49,52 -139,53 -197,-7 -59,-55 -70,-140 -21,-192 51,-46 132,-46 193,11z"/>
   </g>
  </g>
  <g id="Fl_green" onclick="parent.replacechar('Fl_green')" onmousemove="parent.showtooltip('Fl_green','Fleurs vertes')" onmouseout="parent.hidetooltip('Fl_green')" cursor="pointer">
    <metadata id="CorelCorpID_9">
     <odm name="Name" value="verte" type="0"/>
    </metadata>
   <line fill="none" stroke="black" stroke-width="7.62" x1="13207" y1="14068" x2="12093" y2= "14772" />
   <line fill="none" stroke="black" stroke-width="7.62" x1="11197" y1="13038" x2="12060" y2= "13610" />
   <line id="petiole_9" fill="none" stroke="black" stroke-width="7.62" x1="12832" y1="12013" x2="12063" y2= "12547" />
   <path fill="#009341" stroke="black" stroke-width="7.62" d="M12059 12557c-1,85 9,97 6,134 0,0 172,20 293,6 32,-13 590,-157 607,-410 -104,94 -355,282 -585,313 -287,-24 -317,-38 -322,-42z"/>
   <path fill="#009341" stroke="black" stroke-width="7.62" d="M12054 13620c19,102 -1,96 5,140 0,0 -228,25 -375,13 -39,-14 -489,-96 -633,-332 128,110 324,186 602,216 345,-39 396,-31 401,-36z"/>
   <path id="feuille_10" fill="#009341" stroke="black" stroke-width="7.62" d="M12094 14778c-3,116 0,101 -1,149 0,0 249,10 404,-23 40,-20 564,-215 687,-487 -122,135 -376,289 -669,358 -374,4 -415,7 -421,3z"/>
   <g id="fl2">
     <metadata id="CorelCorpID_10">
      <odm name="Name" value="fl2" type="0"/>
     </metadata>
    <path fill="lime" stroke="#7F7F7F" stroke-width="7.62" stroke-linejoin="bevel" d="M13137 14324c-126,-15 246,724 -314,452 -396,-244 233,-383 138,-497 -113,-147 -392,282 -486,125 -94,-175 -137,-522 45,-588 80,-29 342,215 426,184 157,-60 -229,-421 -87,-516 104,-77 321,-85 411,5 53,59 -113,429 -39,465 163,107 344,-331 488,-152 84,102 177,318 95,421 -46,71 -421,-110 -477,-48 -110,115 427,260 340,396 -49,72 -221,238 -315,225 -105,-18 -107,-454 -226,-471z"/>
    <path fill="white" stroke="black" stroke-width="7.62" stroke-linejoin="bevel" d="M13206 14032c59,55 67,138 25,189 -49,52 -139,53 -197,-7 -59,-55 -70,-140 -21,-192 51,-46 132,-46 193,11z"/>
   </g>
   <g id="fl3">
     <metadata id="CorelCorpID_11">
      <odm name="Name" value="fl3" type="0"/>
     </metadata>
    <path fill="lime" stroke="#7F7F7F" stroke-width="7.62" stroke-linejoin="bevel" d="M12908 12145c-126,-15 246,724 -314,452 -396,-244 233,-383 138,-497 -113,-147 -392,282 -486,125 -94,-175 -137,-522 45,-588 80,-29 342,215 426,184 157,-60 -229,-421 -87,-516 104,-77 321,-85 411,5 53,59 -113,429 -39,465 163,107 344,-331 488,-152 84,102 177,318 95,421 -46,71 -421,-110 -477,-48 -110,115 427,260 340,396 -49,72 -221,238 -315,225 -105,-18 -107,-454 -226,-471z"/>
    <path fill="white" stroke="black" stroke-width="7.62" stroke-linejoin="bevel" d="M12977 11852c59,55 67,138 25,189 -49,52 -139,53 -197,-7 -59,-55 -70,-140 -21,-192 51,-46 132,-46 193,11z"/>
   </g>
   <g id="fl1_11">
     <metadata id="CorelCorpID_12">
      <odm name="Name" value="fl1" type="0"/>
     </metadata>
    <path fill="lime" stroke="#7F7F7F" stroke-width="7.62" stroke-linejoin="bevel" d="M10871 12967c-126,-15 246,724 -314,452 -396,-244 233,-383 138,-497 -113,-147 -392,282 -486,125 -94,-175 -137,-522 45,-588 80,-29 342,215 426,184 157,-60 -229,-421 -87,-516 104,-77 321,-85 411,5 53,59 -113,429 -39,465 163,107 344,-331 488,-152 84,102 177,318 95,421 -46,71 -421,-110 -477,-48 -110,115 427,260 340,396 -49,72 -221,238 -315,225 -105,-18 -107,-454 -226,-471z"/>
    <path fill="white" stroke="black" stroke-width="7.62" stroke-linejoin="bevel" d="M10940 12675c59,55 67,138 25,189 -49,52 -139,53 -197,-7 -59,-55 -70,-140 -21,-192 51,-46 132,-46 193,11z"/>
   </g>
   <path id="tige_12" fill="none" stroke="#2A2A29" stroke-width="7.62" d="M12071 10697c-44,402 -12,4292 48,5167"/>
  </g>
  <g id="Fl_blue" onclick="parent.replacechar('Fl_blue')" onmousemove="parent.showtooltip('Fl_blue','Fleurs bleues')" onmouseout="parent.hidetooltip('Fl_blue')" cursor="pointer">
    <metadata id="CorelCorpID_13">
     <odm name="Name" value=" bleu" type="0"/>
    </metadata>
   <line fill="none" stroke="black" stroke-width="7.62" x1="8397" y1="14068" x2="7282" y2= "14772" />
   <line fill="none" stroke="black" stroke-width="7.62" x1="6387" y1="13038" x2="7249" y2= "13610" />
   <line id="petiole_13" fill="none" stroke="black" stroke-width="7.62" x1="8022" y1="12013" x2="7253" y2= "12547" />
   <path fill="#009341" stroke="black" stroke-width="7.62" d="M7249 12557c-1,85 9,97 6,134 0,0 172,20 293,6 32,-13 590,-157 607,-410 -104,94 -355,282 -585,313 -287,-24 -317,-38 -322,-42z"/>
   <path fill="#009341" stroke="black" stroke-width="7.62" d="M7244 13620c19,102 -1,96 5,140 0,0 -228,25 -375,13 -39,-14 -489,-96 -633,-332 128,110 324,186 602,216 345,-39 396,-31 401,-36z"/>
   <path id="feuille_14" fill="#009341" stroke="black" stroke-width="7.62" d="M7284 14778c-3,116 0,101 -1,149 0,0 249,10 404,-23 40,-20 564,-215 687,-487 -122,135 -376,289 -669,358 -374,4 -415,7 -421,3z"/>
   <g id="fl2_15">
     <metadata id="CorelCorpID_14">
      <odm name="Name" value="fl2" type="0"/>
     </metadata>
    <path fill="blue" stroke="#7F7F7F" stroke-width="7.62" stroke-linejoin="bevel" d="M8327 14324c-126,-15 246,724 -314,452 -396,-244 233,-383 138,-497 -113,-147 -392,282 -486,125 -94,-175 -137,-522 45,-588 80,-29 342,215 426,184 157,-60 -229,-421 -87,-516 104,-77 321,-85 411,5 53,59 -113,429 -39,465 163,107 344,-331 488,-152 84,102 177,318 95,421 -46,71 -421,-110 -477,-48 -110,115 427,260 340,396 -49,72 -221,238 -315,225 -105,-18 -107,-454 -226,-471z"/>
    <path fill="white" stroke="black" stroke-width="7.62" stroke-linejoin="bevel" d="M8396 14032c59,55 67,138 25,189 -49,52 -139,53 -197,-7 -59,-55 -70,-140 -21,-192 51,-46 132,-46 193,11z"/>
   </g>
   <g id="fl3_16">
     <metadata id="CorelCorpID_15">
      <odm name="Name" value="fl3" type="0"/>
     </metadata>
    <path fill="blue" stroke="#7F7F7F" stroke-width="7.62" stroke-linejoin="bevel" d="M8098 12145c-126,-15 246,724 -314,452 -396,-244 233,-383 138,-497 -113,-147 -392,282 -486,125 -94,-175 -137,-522 45,-588 80,-29 342,215 426,184 157,-60 -229,-421 -87,-516 104,-77 321,-85 411,5 53,59 -113,429 -39,465 163,107 344,-331 488,-152 84,102 177,318 95,421 -46,71 -421,-110 -477,-48 -110,115 427,260 340,396 -49,72 -221,238 -315,225 -105,-18 -107,-454 -226,-471z"/>
    <path fill="white" stroke="black" stroke-width="7.62" stroke-linejoin="bevel" d="M8167 11852c59,55 67,138 25,189 -49,52 -139,53 -197,-7 -59,-55 -70,-140 -21,-192 51,-46 132,-46 193,11z"/>
   </g>
   <g id="fl1_17">
     <metadata id="CorelCorpID_16">
      <odm name="Name" value="fl1" type="0"/>
     </metadata>
    <path fill="blue" stroke="#7F7F7F" stroke-width="7.62" stroke-linejoin="bevel" d="M6061 12967c-126,-15 246,724 -314,452 -396,-244 233,-383 138,-497 -113,-147 -392,282 -486,125 -94,-175 -137,-522 45,-588 80,-29 342,215 426,184 157,-60 -229,-421 -87,-516 104,-77 321,-85 411,5 53,59 -113,429 -39,465 163,107 344,-331 488,-152 84,102 177,318 95,421 -46,71 -421,-110 -477,-48 -110,115 427,260 340,396 -49,72 -221,238 -315,225 -105,-18 -107,-454 -226,-471z"/>
    <path fill="white" stroke="black" stroke-width="7.62" stroke-linejoin="bevel" d="M6130 12675c59,55 67,138 25,189 -49,52 -139,53 -197,-7 -59,-55 -70,-140 -21,-192 51,-46 132,-46 193,11z"/>
   </g>
   <path id="tige_18" fill="none" stroke="#2A2A29" stroke-width="7.62" d="M7260 10697c-44,402 -12,4292 48,5167"/>
  </g>
  <g id="Fl_pinkish" onclick="parent.replacechar('Fl_pinkish')" onmousemove="parent.showtooltip('Fl_pinkish','Fleurs roses')" onmouseout="parent.hidetooltip('Fl_pinkish')" cursor="pointer">
    <metadata id="CorelCorpID_17">
     <odm name="Name" value="roseatre" type="0"/>
    </metadata>
   <line fill="none" stroke="black" stroke-width="7.62" x1="3587" y1="14068" x2="2472" y2= "14772" />
   <line fill="none" stroke="black" stroke-width="7.62" x1="1576" y1="13038" x2="2439" y2= "13610" />
   <line id="petiole_19" fill="none" stroke="black" stroke-width="7.62" x1="3212" y1="12013" x2="2443" y2= "12547" />
   <path fill="#009341" stroke="black" stroke-width="7.62" d="M2439 12557c-1,85 9,97 6,134 0,0 172,20 293,6 32,-13 590,-157 607,-410 -104,94 -355,282 -585,313 -287,-24 -317,-38 -322,-42z"/>
   <path fill="#009341" stroke="black" stroke-width="7.62" d="M2433 13620c19,102 -1,96 5,140 0,0 -228,25 -375,13 -39,-14 -489,-96 -633,-332 128,110 324,186 602,216 345,-39 396,-31 401,-36z"/>
   <path id="feuille_20" fill="#009341" stroke="black" stroke-width="7.62" d="M2474 14778c-3,116 0,101 -1,149 0,0 249,10 404,-23 40,-20 564,-215 687,-487 -122,135 -376,289 -669,358 -374,4 -415,7 -421,3z"/>
   <g id="fl2_21">
     <metadata id="CorelCorpID_18">
      <odm name="Name" value="fl2" type="0"/>
     </metadata>
    <path fill="#F5D5F0" stroke="#7F7F7F" stroke-width="7.62" stroke-linejoin="bevel" d="M3517 14324c-126,-15 246,724 -314,452 -396,-244 233,-383 138,-497 -113,-147 -392,282 -486,125 -94,-175 -137,-522 45,-588 80,-29 342,215 426,184 157,-60 -229,-421 -87,-516 104,-77 321,-85 411,5 53,59 -113,429 -39,465 163,107 344,-331 488,-152 84,102 177,318 95,421 -46,71 -421,-110 -477,-48 -110,115 427,260 340,396 -49,72 -221,238 -315,225 -105,-18 -107,-454 -226,-471z"/>
    <path fill="white" stroke="black" stroke-width="7.62" stroke-linejoin="bevel" d="M3586 14032c59,55 67,138 25,189 -49,52 -139,53 -197,-7 -59,-55 -70,-140 -21,-192 51,-46 132,-46 193,11z"/>
   </g>
   <g id="fl3_22">
     <metadata id="CorelCorpID_19">
      <odm name="Name" value="fl3" type="0"/>
     </metadata>
    <path fill="#F5D5F0" stroke="#7F7F7F" stroke-width="7.62" stroke-linejoin="bevel" d="M3288 12145c-126,-15 246,724 -314,452 -396,-244 233,-383 138,-497 -113,-147 -392,282 -486,125 -94,-175 -137,-522 45,-588 80,-29 342,215 426,184 157,-60 -229,-421 -87,-516 104,-77 321,-85 411,5 53,59 -113,429 -39,465 163,107 344,-331 488,-152 84,102 177,318 95,421 -46,71 -421,-110 -477,-48 -110,115 427,260 340,396 -49,72 -221,238 -315,225 -105,-18 -107,-454 -226,-471z"/>
    <path fill="white" stroke="black" stroke-width="7.62" stroke-linejoin="bevel" d="M3357 11852c59,55 67,138 25,189 -49,52 -139,53 -197,-7 -59,-55 -70,-140 -21,-192 51,-46 132,-46 193,11z"/>
   </g>
   <g id="fl1_23">
     <metadata id="CorelCorpID_20">
      <odm name="Name" value="fl1" type="0"/>
     </metadata>
    <path fill="#F5D5F0" stroke="#7F7F7F" stroke-width="7.62" stroke-linejoin="bevel" d="M1251 12967c-126,-15 246,724 -314,452 -396,-244 233,-383 138,-497 -113,-147 -392,282 -486,125 -94,-175 -137,-522 45,-588 80,-29 342,215 426,184 157,-60 -229,-421 -87,-516 104,-77 321,-85 411,5 53,59 -113,429 -39,465 163,107 344,-331 488,-152 84,102 177,318 95,421 -46,71 -421,-110 -477,-48 -110,115 427,260 340,396 -49,72 -221,238 -315,225 -105,-18 -107,-454 -226,-471z"/>
    <path fill="white" stroke="black" stroke-width="7.62" stroke-linejoin="bevel" d="M1320 12675c59,55 67,138 25,189 -49,52 -139,53 -197,-7 -59,-55 -70,-140 -21,-192 51,-46 132,-46 193,11z"/>
   </g>
   <path id="tige_24" fill="none" stroke="#2A2A29" stroke-width="7.62" d="M2450 10697c-44,402 -12,4292 48,5167"/>
  </g>
  <g id="Fl_brown" onclick="parent.replacechar('Fl_brown')" onmousemove="parent.showtooltip('Fl_brown','Fleurs brunes')" onmouseout="parent.hidetooltip('Fl_brown')" cursor="pointer">
    <metadata id="CorelCorpID_21">
     <odm name="Name" value="maron" type="0"/>
    </metadata>
   <line fill="none" stroke="black" stroke-width="7.62" x1="22628" y1="5432" x2="21513" y2= "6136" />
   <line fill="none" stroke="black" stroke-width="7.62" x1="20618" y1="4402" x2="21480" y2= "4974" />
   <line id="petiole_25" fill="none" stroke="black" stroke-width="7.62" x1="22253" y1="3377" x2="21484" y2= "3911" />
   <path fill="#009341" stroke="black" stroke-width="7.62" d="M21480 3921c-1,85 9,97 6,134 0,0 172,20 293,6 32,-13 590,-157 607,-410 -104,94 -355,282 -585,313 -287,-24 -317,-38 -322,-42z"/>
   <path fill="#009341" stroke="black" stroke-width="7.62" d="M21475 4984c19,102 -1,96 5,140 0,0 -228,25 -375,13 -39,-14 -489,-96 -633,-332 128,110 324,186 602,216 345,-39 396,-31 401,-36z"/>
   <path id="feuille_26" fill="#009341" stroke="black" stroke-width="7.62" d="M21515 6142c-3,116 0,101 -1,149 0,0 249,10 404,-23 40,-20 564,-215 687,-487 -122,135 -376,289 -669,358 -374,4 -415,7 -421,3z"/>
   <g id="fl2_27">
     <metadata id="CorelCorpID_22">
      <odm name="Name" value="fl2" type="0"/>
     </metadata>
    <path fill="#B47800" stroke="#7F7F7F" stroke-width="7.62" stroke-linejoin="bevel" d="M22558 5688c-126,-15 246,724 -314,452 -396,-244 233,-383 138,-497 -113,-147 -392,282 -486,125 -94,-175 -137,-522 45,-588 80,-29 342,215 426,184 157,-60 -229,-421 -87,-516 104,-77 321,-85 411,5 53,59 -113,429 -39,465 163,107 344,-331 488,-152 84,102 177,318 95,421 -46,71 -421,-110 -477,-48 -110,115 427,260 340,396 -49,72 -221,238 -315,225 -105,-18 -107,-454 -226,-471z"/>
    <path fill="white" stroke="black" stroke-width="7.62" stroke-linejoin="bevel" d="M22627 5396c59,55 67,138 25,189 -49,52 -139,53 -197,-7 -59,-55 -70,-140 -21,-192 51,-46 132,-46 193,11z"/>
   </g>
   <g id="fl3_28">
     <metadata id="CorelCorpID_23">
      <odm name="Name" value="fl3" type="0"/>
     </metadata>
    <path fill="#B47800" stroke="#7F7F7F" stroke-width="7.62" stroke-linejoin="bevel" d="M22329 3509c-126,-15 246,724 -314,452 -396,-244 233,-383 138,-497 -113,-147 -392,282 -486,125 -94,-175 -137,-522 45,-588 80,-29 342,215 426,184 157,-60 -229,-421 -87,-516 104,-77 321,-85 411,5 53,59 -113,429 -39,465 163,107 344,-331 488,-152 84,102 177,318 95,421 -46,71 -421,-110 -477,-48 -110,115 427,260 340,396 -49,72 -221,238 -315,225 -105,-18 -107,-454 -226,-471z"/>
    <path fill="white" stroke="black" stroke-width="7.62" stroke-linejoin="bevel" d="M22398 3216c59,55 67,138 25,189 -49,52 -139,53 -197,-7 -59,-55 -70,-140 -21,-192 51,-46 132,-46 193,11z"/>
   </g>
   <g id="fl1_29">
     <metadata id="CorelCorpID_24">
      <odm name="Name" value="fl1" type="0"/>
     </metadata>
    <path fill="#B47800" stroke="#7F7F7F" stroke-width="7.62" stroke-linejoin="bevel" d="M20292 4331c-126,-15 246,724 -314,452 -396,-244 233,-383 138,-497 -113,-147 -392,282 -486,125 -94,-175 -137,-522 45,-588 80,-29 342,215 426,184 157,-60 -229,-421 -87,-516 104,-77 321,-85 411,5 53,59 -113,429 -39,465 163,107 344,-331 488,-152 84,102 177,318 95,421 -46,71 -421,-110 -477,-48 -110,115 427,260 340,396 -49,72 -221,238 -315,225 -105,-18 -107,-454 -226,-471z"/>
    <path fill="white" stroke="black" stroke-width="7.62" stroke-linejoin="bevel" d="M20361 4039c59,55 67,138 25,189 -49,52 -139,53 -197,-7 -59,-55 -70,-140 -21,-192 51,-46 132,-46 193,11z"/>
   </g>
   <path id="tige_30" fill="none" stroke="#2A2A29" stroke-width="7.62" d="M21491 2061c-44,402 -12,4292 48,5167"/>
  </g>
  <g id="Fl_orange" onclick="parent.replacechar('Fl_orange')" onmousemove="parent.showtooltip('Fl_orange','Fleurs oranges')" onmouseout="parent.hidetooltip('Fl_orange')" cursor="pointer">
    <metadata id="CorelCorpID_25">
     <odm name="Name" value="orange" type="0"/>
    </metadata>
   <line fill="none" stroke="black" stroke-width="7.62" x1="18030" y1="5432" x2="16915" y2= "6136" />
   <line fill="none" stroke="black" stroke-width="7.62" x1="16019" y1="4402" x2="16882" y2= "4974" />
   <line id="petiole_31" fill="none" stroke="black" stroke-width="7.62" x1="17655" y1="3377" x2="16886" y2= "3911" />
   <path fill="#009341" stroke="black" stroke-width="7.62" d="M16882 3921c-1,85 9,97 6,134 0,0 172,20 293,6 32,-13 590,-157 607,-410 -104,94 -355,282 -585,313 -287,-24 -317,-38 -322,-42z"/>
   <path fill="#009341" stroke="black" stroke-width="7.62" d="M16876 4984c19,102 -1,96 5,140 0,0 -228,25 -375,13 -39,-14 -489,-96 -633,-332 128,110 324,186 602,216 345,-39 396,-31 401,-36z"/>
   <path id="feuille_32" fill="#009341" stroke="black" stroke-width="7.62" d="M16917 6142c-3,116 0,101 -1,149 0,0 249,10 404,-23 40,-20 564,-215 687,-487 -122,135 -376,289 -669,358 -374,4 -415,7 -421,3z"/>
   <g id="fl2_33">
     <metadata id="CorelCorpID_26">
      <odm name="Name" value="fl2" type="0"/>
     </metadata>
    <path fill="#FFAA00" stroke="#7F7F7F" stroke-width="7.62" stroke-linejoin="bevel" d="M17960 5688c-126,-15 246,724 -314,452 -396,-244 233,-383 138,-497 -113,-147 -392,282 -486,125 -94,-175 -137,-522 45,-588 80,-29 342,215 426,184 157,-60 -229,-421 -87,-516 104,-77 321,-85 411,5 53,59 -113,429 -39,465 163,107 344,-331 488,-152 84,102 177,318 95,421 -46,71 -421,-110 -477,-48 -110,115 427,260 340,396 -49,72 -221,238 -315,225 -105,-18 -107,-454 -226,-471z"/>
    <path fill="white" stroke="black" stroke-width="7.62" stroke-linejoin="bevel" d="M18029 5396c59,55 67,138 25,189 -49,52 -139,53 -197,-7 -59,-55 -70,-140 -21,-192 51,-46 132,-46 193,11z"/>
   </g>
   <g id="fl3_34">
     <metadata id="CorelCorpID_27">
      <odm name="Name" value="fl3" type="0"/>
     </metadata>
    <path fill="#FFAA00" stroke="#7F7F7F" stroke-width="7.62" stroke-linejoin="bevel" d="M17731 3509c-126,-15 246,724 -314,452 -396,-244 233,-383 138,-497 -113,-147 -392,282 -486,125 -94,-175 -137,-522 45,-588 80,-29 342,215 426,184 157,-60 -229,-421 -87,-516 104,-77 321,-85 411,5 53,59 -113,429 -39,465 163,107 344,-331 488,-152 84,102 177,318 95,421 -46,71 -421,-110 -477,-48 -110,115 427,260 340,396 -49,72 -221,238 -315,225 -105,-18 -107,-454 -226,-471z"/>
    <path fill="white" stroke="black" stroke-width="7.62" stroke-linejoin="bevel" d="M17800 3216c59,55 67,138 25,189 -49,52 -139,53 -197,-7 -59,-55 -70,-140 -21,-192 51,-46 132,-46 193,11z"/>
   </g>
   <g id="fl1_35">
     <metadata id="CorelCorpID_28">
      <odm name="Name" value="fl1" type="0"/>
     </metadata>
    <path fill="#FFAA00" stroke="#7F7F7F" stroke-width="7.62" stroke-linejoin="bevel" d="M15694 4331c-126,-15 246,724 -314,452 -396,-244 233,-383 138,-497 -113,-147 -392,282 -486,125 -94,-175 -137,-522 45,-588 80,-29 342,215 426,184 157,-60 -229,-421 -87,-516 104,-77 321,-85 411,5 53,59 -113,429 -39,465 163,107 344,-331 488,-152 84,102 177,318 95,421 -46,71 -421,-110 -477,-48 -110,115 427,260 340,396 -49,72 -221,238 -315,225 -105,-18 -107,-454 -226,-471z"/>
    <path fill="white" stroke="black" stroke-width="7.62" stroke-linejoin="bevel" d="M15763 4039c59,55 67,138 25,189 -49,52 -139,53 -197,-7 -59,-55 -70,-140 -21,-192 51,-46 132,-46 193,11z"/>
   </g>
   <path id="tige_36" fill="none" stroke="#2A2A29" stroke-width="7.62" d="M16893 2061c-44,402 -12,4292 48,5167"/>
  </g>
  <g id="Fl_yellow" onclick="parent.replacechar('Fl_yellow')" onmousemove="parent.showtooltip('Fl_yellow','Fleurs jaunes')" onmouseout="parent.hidetooltip('Fl_yellow')" cursor="pointer">
    <metadata id="CorelCorpID_29">
     <odm name="Name" value="jaune" type="0"/>
    </metadata>
   <line fill="none" stroke="black" stroke-width="7.62" x1="13207" y1="5432" x2="12093" y2= "6136" />
   <line fill="none" stroke="black" stroke-width="7.62" x1="11197" y1="4402" x2="12060" y2= "4974" />
   <line id="petiole_37" fill="none" stroke="black" stroke-width="7.62" x1="12832" y1="3377" x2="12063" y2= "3911" />
   <path fill="#009341" stroke="black" stroke-width="7.62" d="M12059 3921c-1,85 9,97 6,134 0,0 172,20 293,6 32,-13 590,-157 607,-410 -104,94 -355,282 -585,313 -287,-24 -317,-38 -322,-42z"/>
   <path fill="#009341" stroke="black" stroke-width="7.62" d="M12054 4984c19,102 -1,96 5,140 0,0 -228,25 -375,13 -39,-14 -489,-96 -633,-332 128,110 324,186 602,216 345,-39 396,-31 401,-36z"/>
   <path id="feuille_38" fill="#009341" stroke="black" stroke-width="7.62" d="M12094 6142c-3,116 0,101 -1,149 0,0 249,10 404,-23 40,-20 564,-215 687,-487 -122,135 -376,289 -669,358 -374,4 -415,7 -421,3z"/>
   <g id="fl2_39">
     <metadata id="CorelCorpID_30">
      <odm name="Name" value="fl2" type="0"/>
     </metadata>
    <path fill="yellow" stroke="#7F7F7F" stroke-width="7.62" stroke-linejoin="bevel" d="M13137 5688c-126,-15 246,724 -314,452 -396,-244 233,-383 138,-497 -113,-147 -392,282 -486,125 -94,-175 -137,-522 45,-588 80,-29 342,215 426,184 157,-60 -229,-421 -87,-516 104,-77 321,-85 411,5 53,59 -113,429 -39,465 163,107 344,-331 488,-152 84,102 177,318 95,421 -46,71 -421,-110 -477,-48 -110,115 427,260 340,396 -49,72 -221,238 -315,225 -105,-18 -107,-454 -226,-471z"/>
    <path fill="white" stroke="black" stroke-width="7.62" stroke-linejoin="bevel" d="M13206 5396c59,55 67,138 25,189 -49,52 -139,53 -197,-7 -59,-55 -70,-140 -21,-192 51,-46 132,-46 193,11z"/>
   </g>
   <g id="fl3_40">
     <metadata id="CorelCorpID_31">
      <odm name="Name" value="fl3" type="0"/>
     </metadata>
    <path fill="yellow" stroke="#7F7F7F" stroke-width="7.62" stroke-linejoin="bevel" d="M12908 3509c-126,-15 246,724 -314,452 -396,-244 233,-383 138,-497 -113,-147 -392,282 -486,125 -94,-175 -137,-522 45,-588 80,-29 342,215 426,184 157,-60 -229,-421 -87,-516 104,-77 321,-85 411,5 53,59 -113,429 -39,465 163,107 344,-331 488,-152 84,102 177,318 95,421 -46,71 -421,-110 -477,-48 -110,115 427,260 340,396 -49,72 -221,238 -315,225 -105,-18 -107,-454 -226,-471z"/>
    <path fill="white" stroke="black" stroke-width="7.62" stroke-linejoin="bevel" d="M12977 3216c59,55 67,138 25,189 -49,52 -139,53 -197,-7 -59,-55 -70,-140 -21,-192 51,-46 132,-46 193,11z"/>
   </g>
   <g id="fl1_41">
     <metadata id="CorelCorpID_32">
      <odm name="Name" value="fl1" type="0"/>
     </metadata>
    <path fill="yellow" stroke="#7F7F7F" stroke-width="7.62" stroke-linejoin="bevel" d="M10871 4331c-126,-15 246,724 -314,452 -396,-244 233,-383 138,-497 -113,-147 -392,282 -486,125 -94,-175 -137,-522 45,-588 80,-29 342,215 426,184 157,-60 -229,-421 -87,-516 104,-77 321,-85 411,5 53,59 -113,429 -39,465 163,107 344,-331 488,-152 84,102 177,318 95,421 -46,71 -421,-110 -477,-48 -110,115 427,260 340,396 -49,72 -221,238 -315,225 -105,-18 -107,-454 -226,-471z"/>
    <path fill="white" stroke="black" stroke-width="7.62" stroke-linejoin="bevel" d="M10940 4039c59,55 67,138 25,189 -49,52 -139,53 -197,-7 -59,-55 -70,-140 -21,-192 51,-46 132,-46 193,11z"/>
   </g>
   <path id="tige_42" fill="none" stroke="#2A2A29" stroke-width="7.62" d="M12071 2061c-44,402 -12,4292 48,5167"/>
  </g>
  <g id="Fl_white_yel" onclick="parent.replacechar('Fl_white_yel')" onmousemove="parent.showtooltip('Fl_white_yel','Fleurs jaunes et blanches')" onmouseout="parent.hidetooltip('Fl_white_yel')" cursor="pointer">
    <metadata id="CorelCorpID_33">
     <odm name="Name" value="blanche_jaune" type="0"/>
    </metadata>
   <line fill="none" stroke="black" stroke-width="7.62" x1="8385" y1="5432" x2="7270" y2= "6136" />
   <line fill="none" stroke="black" stroke-width="7.62" x1="6374" y1="4402" x2="7237" y2= "4974" />
   <line id="petiole_43" fill="none" stroke="black" stroke-width="7.62" x1="8010" y1="3377" x2="7240" y2= "3911" />
   <path fill="#009341" stroke="black" stroke-width="7.62" d="M7236 3921c-1,85 9,97 6,134 0,0 172,20 293,6 32,-13 590,-157 607,-410 -104,94 -355,282 -585,313 -287,-24 -317,-38 -322,-42z"/>
   <path fill="#009341" stroke="black" stroke-width="7.62" d="M7231 4984c19,102 -1,96 5,140 0,0 -228,25 -375,13 -39,-14 -489,-96 -633,-332 128,110 324,186 602,216 345,-39 396,-31 401,-36z"/>
   <path id="feuille_44" fill="#009341" stroke="black" stroke-width="7.62" d="M7272 6142c-3,116 0,101 -1,149 0,0 249,10 404,-23 40,-20 564,-215 687,-487 -122,135 -376,289 -669,358 -374,4 -415,7 -421,3z"/>
   <g id="fl2_45">
     <metadata id="CorelCorpID_34">
      <odm name="Name" value="fl2" type="0"/>
     </metadata>
    <path fill="white" stroke="#7F7F7F" stroke-width="7.62" stroke-linejoin="bevel" d="M8314 5688c-126,-15 246,724 -314,452 -396,-244 233,-383 138,-497 -113,-147 -392,282 -486,125 -94,-175 -137,-522 45,-588 80,-29 342,215 426,184 157,-60 -229,-421 -87,-516 104,-77 321,-85 411,5 53,59 -113,429 -39,465 163,107 344,-331 488,-152 84,102 177,318 95,421 -46,71 -421,-110 -477,-48 -110,115 427,260 340,396 -49,72 -221,238 -315,225 -105,-18 -107,-454 -226,-471z"/>
    <path fill="yellow" stroke="black" stroke-width="7.62" stroke-linejoin="bevel" d="M8509 5258c146,136 166,343 61,469 -122,130 -347,131 -490,-18 -146,-136 -173,-347 -51,-478 127,-113 327,-113 481,27z"/>
   </g>
   <path id="tige_46" fill="none" stroke="#2A2A29" stroke-width="7.62" d="M7248 2061c-44,402 -12,4292 48,5167"/>
   <g id="fl2_47">
     <metadata id="CorelCorpID_35">
      <odm name="Name" value="fl2" type="0"/>
     </metadata>
    <path fill="white" stroke="#7F7F7F" stroke-width="7.62" stroke-linejoin="bevel" d="M8203 3444c-126,-15 246,724 -314,452 -396,-244 233,-383 138,-497 -113,-147 -392,282 -486,125 -94,-175 -137,-522 45,-588 80,-29 342,215 426,184 157,-60 -229,-421 -87,-516 104,-77 321,-85 411,5 53,59 -113,429 -39,465 163,107 344,-331 488,-152 84,102 177,318 95,421 -46,71 -421,-110 -477,-48 -110,115 427,260 340,396 -49,72 -221,238 -315,225 -105,-18 -107,-454 -226,-471z"/>
    <path fill="yellow" stroke="black" stroke-width="7.62" stroke-linejoin="bevel" d="M8397 3014c146,136 166,343 61,469 -122,130 -347,131 -490,-18 -146,-136 -173,-347 -51,-478 127,-113 327,-113 481,27z"/>
   </g>
   <g id="fl2_48">
     <metadata id="CorelCorpID_36">
      <odm name="Name" value="fl2" type="0"/>
     </metadata>
    <path fill="white" stroke="#7F7F7F" stroke-width="7.62" stroke-linejoin="bevel" d="M6073 4423c-126,-15 246,724 -314,452 -396,-244 233,-383 138,-497 -113,-147 -392,282 -486,125 -94,-175 -137,-522 45,-588 80,-29 342,215 426,184 157,-60 -229,-421 -87,-516 104,-77 321,-85 411,5 53,59 -113,429 -39,465 163,107 344,-331 488,-152 84,102 177,318 95,421 -46,71 -421,-110 -477,-48 -110,115 427,260 340,396 -49,72 -221,238 -315,225 -105,-18 -107,-454 -226,-471z"/>
    <path fill="yellow" stroke="black" stroke-width="7.62" stroke-linejoin="bevel" d="M6268 3993c146,136 166,343 61,469 -122,130 -347,131 -490,-18 -146,-136 -173,-347 -51,-478 127,-113 327,-113 481,27z"/>
   </g>
  </g>
  <g id="Fl_white" onclick="parent.replacechar('Fl_white')" onmousemove="parent.showtooltip('Fl_white','Fleurs blanches')" onmouseout="parent.hidetooltip('Fl_white')" cursor="pointer">
    <metadata id="CorelCorpID_37">
     <odm name="Name" value="blanche" type="0"/>
    </metadata>
   <line fill="none" stroke="black" stroke-width="7.62" x1="3587" y1="5432" x2="2472" y2= "6136" />
   <line fill="none" stroke="black" stroke-width="7.62" x1="1576" y1="4402" x2="2439" y2= "4974" />
   <line id="petiole_49" fill="none" stroke="black" stroke-width="7.62" x1="3212" y1="3377" x2="2443" y2= "3911" />
   <path fill="#009341" stroke="black" stroke-width="7.62" d="M2439 3921c-1,85 9,97 6,134 0,0 172,20 293,6 32,-13 590,-157 607,-410 -104,94 -355,282 -585,313 -287,-24 -317,-38 -322,-42z"/>
   <path fill="#009341" stroke="black" stroke-width="7.62" d="M2433 4984c19,102 -1,96 5,140 0,0 -228,25 -375,13 -39,-14 -489,-96 -633,-332 128,110 324,186 602,216 345,-39 396,-31 401,-36z"/>
   <path id="feuille_50" fill="#009341" stroke="black" stroke-width="7.62" d="M2474 6142c-3,116 0,101 -1,149 0,0 249,10 404,-23 40,-20 564,-215 687,-487 -122,135 -376,289 -669,358 -374,4 -415,7 -421,3z"/>
   <g id="fl2_51">
     <metadata id="CorelCorpID_38">
      <odm name="Name" value="fl2" type="0"/>
     </metadata>
    <path fill="white" stroke="#7F7F7F" stroke-width="7.62" stroke-linejoin="bevel" d="M3517 5688c-126,-15 246,724 -314,452 -396,-244 233,-383 138,-497 -113,-147 -392,282 -486,125 -94,-175 -137,-522 45,-588 80,-29 342,215 426,184 157,-60 -229,-421 -87,-516 104,-77 321,-85 411,5 53,59 -113,429 -39,465 163,107 344,-331 488,-152 84,102 177,318 95,421 -46,71 -421,-110 -477,-48 -110,115 427,260 340,396 -49,72 -221,238 -315,225 -105,-18 -107,-454 -226,-471z"/>
    <path fill="white" stroke="black" stroke-width="7.62" stroke-linejoin="bevel" d="M3586 5396c59,55 67,138 25,189 -49,52 -139,53 -197,-7 -59,-55 -70,-140 -21,-192 51,-46 132,-46 193,11z"/>
   </g>
   <g id="fl3_52">
     <metadata id="CorelCorpID_39">
      <odm name="Name" value="fl3" type="0"/>
     </metadata>
    <path fill="white" stroke="#7F7F7F" stroke-width="7.62" stroke-linejoin="bevel" d="M3288 3509c-126,-15 246,724 -314,452 -396,-244 233,-383 138,-497 -113,-147 -392,282 -486,125 -94,-175 -137,-522 45,-588 80,-29 342,215 426,184 157,-60 -229,-421 -87,-516 104,-77 321,-85 411,5 53,59 -113,429 -39,465 163,107 344,-331 488,-152 84,102 177,318 95,421 -46,71 -421,-110 -477,-48 -110,115 427,260 340,396 -49,72 -221,238 -315,225 -105,-18 -107,-454 -226,-471z"/>
    <path fill="white" stroke="black" stroke-width="7.62" stroke-linejoin="bevel" d="M3357 3216c59,55 67,138 25,189 -49,52 -139,53 -197,-7 -59,-55 -70,-140 -21,-192 51,-46 132,-46 193,11z"/>
   </g>
   <g id="fl1_53">
     <metadata id="CorelCorpID_40">
      <odm name="Name" value="fl1" type="0"/>
     </metadata>
    <path fill="white" stroke="#7F7F7F" stroke-width="7.62" stroke-linejoin="bevel" d="M1251 4331c-126,-15 246,724 -314,452 -396,-244 233,-383 138,-497 -113,-147 -392,282 -486,125 -94,-175 -137,-522 45,-588 80,-29 342,215 426,184 157,-60 -229,-421 -87,-516 104,-77 321,-85 411,5 53,59 -113,429 -39,465 163,107 344,-331 488,-152 84,102 177,318 95,421 -46,71 -421,-110 -477,-48 -110,115 427,260 340,396 -49,72 -221,238 -315,225 -105,-18 -107,-454 -226,-471z"/>
    <path fill="white" stroke="black" stroke-width="7.62" stroke-linejoin="bevel" d="M1320 4039c59,55 67,138 25,189 -49,52 -139,53 -197,-7 -59,-55 -70,-140 -21,-192 51,-46 132,-46 193,11z"/>
   </g>
   <path id="tige_54" fill="none" stroke="#2A2A29" stroke-width="7.62" d="M2450 2061c-44,402 -12,4292 48,5167"/>
  </g>
 </g>
<image xlink:href="tick.gif" id="imgtick" x="-10000" y="-10000" width="1500" height="1500"/>
<rect id="recttooltip" x="-10000" y="-10000" width="5500" height="600" fill-opacity="0.85" pointer-events="none"/>
<text id="textboxid" x="-10000" y="-10000" pointer-events="none"> </text>
</a></svg>
