<?xml version="1.0" encoding="UTF-8"?>
<!DOCTYPE svg PUBLIC "-//W3C//DTD SVG 1.1//EN" "http://www.w3.org/Graphics/SVG/1.1/DTD/svg11.dtd">
<!-- Creator: CorelDRAW X5 -->
<svg xmlns="http://www.w3.org/2000/svg" xml:space="preserve" width="100%" height="100%" shape-rendering="geometricPrecision" text-rendering="geometricPrecision" image-rendering="optimizeQuality" fill-rule="evenodd" clip-rule="evenodd"
viewBox="0 0 24000 18000"
 xmlns:xlink="http://www.w3.org/1999/xlink">
<a>
 <g id="Layer_x0020_1">
  <metadata id="CorelCorpID_0Corel-Layer"/>
  <g id="pilo_inf_glande" onclick="parent.replacechar('pilo_inf_glande')" onmousemove="parent.showtooltip('pilo_inf_glande','Glandes')" onmouseout="parent.hidetooltip('pilo_inf_glande')" cursor="pointer">
    <metadata id="CorelCorpID_1">
     <odm name="Name" value="dots" type="0"/>
    </metadata>
   <polygon fill="#74BE5A" fill-rule="nonzero" stroke="black" stroke-width="7.62" stroke-linejoin="bevel" points="19686,13119 18557,14844 23550,14844 22421,13119 "/>
   <path fill="white" fill-rule="nonzero" stroke="black" stroke-width="7.62" stroke-linejoin="bevel" d="M20368 13868c-182,0 -328,26 -328,-149 0,-175 149,-315 331,-315 182,0 331,139 331,315 0,175 -152,149 -334,149z"/>
   <path fill="white" fill-rule="nonzero" stroke="black" stroke-width="7.62" stroke-linejoin="bevel" d="M21097 14560c-185,0 -328,26 -328,-146 0,-175 146,-318 328,-318 185,0 331,142 331,318 0,172 -149,146 -331,146z"/>
   <path fill="white" fill-rule="nonzero" stroke="black" stroke-width="7.62" stroke-linejoin="bevel" d="M21775 13825c-185,0 -328,26 -328,-146 0,-175 146,-318 331,-318 182,0 331,142 331,318 0,172 -152,146 -334,146z"/>
  </g>
  <g id="pilo_inf_app" onclick="parent.replacechar('pilo_inf_app')" onmousemove="parent.showtooltip('pilo_inf_app','Poils appliqu&#233;s')" onmouseout="parent.hidetooltip('pilo_inf_app')" cursor="pointer">
    <metadata id="CorelCorpID_2">
     <odm name="Name" value="poils appliqués" type="0"/>
    </metadata>
   <polygon id="sans" fill="#74BE5A" fill-rule="nonzero" stroke="black" stroke-width="7.62" stroke-linejoin="bevel" points="13644,13119 12515,14844 17507,14844 16378,13119 ">
    <metadata id="CorelCorpID_3">
     <odm name="Name" value="sans" type="0"/>
    </metadata>
   </polygon>
   <path fill="white" stroke="black" stroke-width="7.62" d="M15396 13558l-120 0c-17,0 27,-161 385,-221 358,-60 1086,-57 1229,-50 -168,11 -897,50 -954,64 -57,14 -375,43 -468,107 -93,64 -65,94 -71,100z"/>
   <path fill="white" stroke="black" stroke-width="7.62" d="M15363 14233l-120 0c-17,0 27,-161 385,-221 358,-60 1086,-57 1229,-50 -168,11 -897,50 -954,64 -57,14 -375,43 -468,107 -93,64 -65,94 -71,100z"/>
   <path fill="white" stroke="black" stroke-width="7.62" d="M13137 14576l-120 0c-17,0 27,-161 385,-221 358,-60 1086,-57 1229,-50 -168,11 -897,50 -954,64 -57,14 -375,43 -468,107 -93,64 -65,94 -71,100z"/>
   <path fill="white" stroke="black" stroke-width="7.62" d="M13772 13493l-120 0c-17,0 27,-161 385,-221 358,-60 1086,-57 1229,-50 -168,11 -897,50 -954,64 -57,14 -375,43 -468,107 -93,64 -65,94 -71,100z"/>
   <path fill="white" stroke="black" stroke-width="7.62" d="M16423 14594l-120 0c-17,0 27,-161 385,-221 358,-60 1086,-57 1229,-50 -168,11 -897,50 -954,64 -57,14 -375,43 -468,107 -93,64 -65,94 -71,100z"/>
   <path fill="white" stroke="black" stroke-width="7.62" d="M14542 14679l-120 0c-17,0 27,-161 385,-221 358,-60 1086,-57 1229,-50 -168,11 -897,50 -954,64 -57,14 -375,43 -468,107 -93,64 -65,94 -71,100z"/>
   <path fill="white" stroke="black" stroke-width="7.62" d="M13809 14006l-120 0c-17,0 27,-161 385,-221 358,-60 1086,-57 1229,-50 -168,11 -897,50 -954,64 -57,14 -375,43 -468,107 -93,64 -65,94 -71,100z"/>
   <path fill="white" stroke="black" stroke-width="7.62" d="M16171 13820l-120 0c-17,0 27,-161 385,-221 358,-60 1086,-57 1229,-50 -168,11 -897,50 -954,64 -57,14 -375,43 -468,107 -93,64 -65,94 -71,100z"/>
  </g>
  <g id="pilo_inf_laine" onclick="parent.replacechar('pilo_inf_laine')" onmousemove="parent.showtooltip('pilo_inf_laine','Poils laineux')" onmouseout="parent.hidetooltip('pilo_inf_laine')" cursor="pointer">
    <metadata id="CorelCorpID_4">
     <odm name="Name" value="poils laineux" type="0"/>
    </metadata>
   <polygon id="sans_0" fill="#74BE5A" fill-rule="nonzero" stroke="black" stroke-width="7.62" stroke-linejoin="bevel" points="7298,13119 6169,14844 11162,14844 10033,13119 ">
    <metadata id="CorelCorpID_5">
     <odm name="Name" value="sans" type="0"/>
    </metadata>
   </polygon>
   <path fill="white" stroke="black" stroke-width="7.62" d="M8513 13852l74 0c9,0 -74,-298 -248,-359 -174,-61 -175,83 -303,113 -127,30 -93,34 -184,-34 -91,-69 -135,-30 -243,17 -108,47 -165,62 -167,-2 -2,-64 69,-123 140,-138 71,-15 183,-7 182,-98 -1,-174 -157,-169 -273,-192 -25,-5 -556,-20 -595,-5 -158,61 110,365 -98,315 -225,-55 -411,-135 -654,-74 -79,20 -407,93 -579,84 175,22 438,-25 581,-59 213,-51 426,19 634,81 251,75 63,-247 120,-290 25,-19 573,0 573,0 0,0 226,25 236,111 10,86 -104,47 -155,71 -80,38 -215,121 -157,241 77,160 337,-81 386,-34 117,110 177,93 231,89 140,-13 224,-233 371,-79 79,83 123,253 128,243z"/>
   <path fill="white" stroke="black" stroke-width="7.62" d="M10465 14611l78 8c-11,-165 25,-94 -2,-287 -27,-193 -276,-144 -380,-184 -104,-40 -143,-77 -154,-211 -11,-134 -66,-139 -206,-198 -140,-59 -209,-78 -139,-158 70,-81 209,-35 272,0 63,35 139,120 224,97 216,-117 63,-319 -34,-384 -95,-64 -382,-100 -438,-118 -145,-48 -345,-70 -449,-292 -122,-260 -365,164 -366,461 -1,226 437,600 691,733 -68,-46 -641,-458 -649,-733 -11,-237 207,-624 278,-443 97,248 429,301 479,321 37,15 350,72 420,117 87,41 168,179 91,255 -77,76 -160,-39 -228,-65 -107,-41 -298,-96 -366,49 -91,194 364,236 361,316 -7,190 62,230 114,274 134,114 443,-13 419,238 -13,135 -8,205 -17,205z"/>
   <path fill="white" stroke="black" stroke-width="7.62" d="M8724 13941l-104 -3c0,0 169,-378 299,-497 130,-119 197,-179 375,-70 342,211 296,-26 433,-2 114,20 304,317 351,-42 120,-435 396,-195 676,-135 119,26 352,-335 666,-119 314,217 296,177 559,209 -209,34 -423,-68 -548,-158 -312,-227 -565,148 -696,107 -312,-97 -545,-230 -616,121 -72,350 -243,153 -350,94 -160,-88 -77,213 -508,-37 -121,-70 -215,-25 -296,62 -82,88 -251,440 -240,469z"/>
   <path fill="white" stroke="black" stroke-width="7.62" d="M9081 13926l76 9c0,0 -42,-485 -111,-646 -69,-161 -104,-244 -255,-132 -291,216 -208,-68 -311,-55 -87,11 -285,352 -244,-95 5,-548 -244,-288 -458,-248 -91,17 -183,-455 -455,-227 -271,227 -250,180 -446,188 143,68 319,-31 427,-127 273,-240 376,251 478,217 245,-81 440,-215 418,224 -22,438 143,218 232,158 133,-88 11,270 373,18 102,-71 160,-5 200,113 41,118 88,571 74,605z"/>
   <path fill="white" stroke="black" stroke-width="7.62" d="M7212 14259l-70 12c-8,1 1,-414 152,-525 151,-110 185,84 313,103 128,20 97,31 167,-77 70,-108 121,-62 235,-16 113,45 170,56 158,-31 -13,-87 -94,-155 -165,-163 -71,-8 -175,20 -195,-103 -39,-235 110,-253 214,-303 22,-11 522,-118 563,-104 164,57 -20,511 166,408 200,-110 358,-249 603,-206 79,14 407,60 568,18 -161,58 -421,38 -565,15 -214,-34 -400,95 -583,213 -221,142 -116,-323 -181,-372 -28,-21 -543,93 -543,93 0,0 -209,70 -198,188 11,118 110,46 163,71 84,38 232,129 205,299 -36,229 -338,-54 -374,17 -86,168 -146,155 -199,157 -135,6 -266,-277 -370,-46 -56,124 -58,362 -65,349z"/>
   <path fill="white" stroke="black" stroke-width="7.62" d="M7743 14619l-120 -3c0,0 195,-436 345,-572 150,-137 227,-206 431,-80 394,243 341,-30 499,-2 132,23 350,365 404,-49 138,-501 456,-225 779,-155 137,30 406,-386 767,-137 361,250 341,203 644,241 -241,39 -488,-78 -631,-182 -360,-262 -651,170 -801,124 -359,-112 -627,-264 -710,139 -83,403 -280,176 -403,108 -184,-101 -89,245 -585,-42 -140,-81 -247,-29 -341,72 -94,101 -289,507 -276,540z"/>
   <path fill="white" stroke="black" stroke-width="7.62" d="M8878 14678l-80 0c-9,0 80,-323 269,-388 188,-66 190,90 327,122 138,32 101,37 199,-37 98,-74 146,-32 263,19 117,51 178,67 181,-3 3,-69 -74,-133 -152,-149 -77,-16 -198,-8 -197,-106 2,-188 170,-182 295,-207 27,-5 601,-22 644,-5 171,66 -119,395 106,340 243,-59 444,-146 707,-80 85,21 440,101 626,90 -189,24 -474,-27 -629,-64 -231,-55 -461,20 -686,88 -272,81 -68,-267 -130,-314 -27,-20 -620,0 -620,0 0,0 -245,27 -255,120 -11,93 113,51 168,77 86,41 233,131 170,261 -84,173 -364,-87 -418,-37 -127,119 -192,101 -250,96 -151,-14 -242,-252 -402,-85 -86,89 -133,274 -138,263z"/>
   <path fill="white" stroke="black" stroke-width="7.62" d="M8417 14787l104 -3c0,0 -168,-376 -297,-493 -129,-118 -195,-178 -372,-69 -340,209 -294,-26 -430,-2 -114,20 -302,315 -348,-42 -119,-432 -393,-194 -671,-134 -118,25 -350,-333 -662,-118 -312,215 -294,175 -555,207 207,34 420,-67 544,-157 310,-226 561,147 691,107 310,-96 541,-228 612,120 71,348 241,152 348,93 159,-87 77,211 505,-36 120,-70 213,-25 294,62 81,87 249,437 238,465z"/>
  </g>
  <g id="pilo_inf_cl" onclick="parent.replacechar('pilo_inf_cl')" onmousemove="parent.showtooltip('pilo_inf_cl','Poils courts et longs')" onmouseout="parent.hidetooltip('pilo_inf_cl')" cursor="pointer">
    <metadata id="CorelCorpID_6">
     <odm name="Name" value="poils courts &amp; longs" type="0"/>
    </metadata>
   <polygon fill="#74BE5A" fill-rule="nonzero" stroke="#2C2C2B" stroke-width="7.62" stroke-linejoin="bevel" points="1370,13119 241,14844 5234,14844 4105,13119 "/>
   <path fill="white" fill-rule="nonzero" stroke="black" stroke-width="7.62" stroke-linejoin="bevel" d="M2575 13507c33,-662 7,-1414 79,-1967 76,-560 202,-904 381,-1364 -123,520 -281,1033 -308,1566 -20,543 -20,1189 -26,1768 -23,23 -7,60 -56,60 -33,0 -46,-43 -70,-63z"/>
   <polyline fill="none" fill-rule="nonzero" points="1105,13868 1049,14060 1013,14282 996,14536 990,14705 "/>
   <polyline fill="none" fill-rule="nonzero" stroke="black" stroke-width="7.62" stroke-linejoin="bevel" points="4804,13388 4747,13603 4711,13841 4694,14126 4688,14308 "/>
   <polyline fill="none" fill-rule="nonzero" points="4628,13752 4572,13960 4532,14199 4519,14483 4509,14669 "/>
   <polyline fill="none" fill-rule="nonzero" points="4324,13646 4267,13858 4228,14099 4214,14378 4204,14566 "/>
   <polyline fill="none" fill-rule="nonzero" points="3724,13748 3668,13957 3628,14195 3615,14477 3605,14666 "/>
   <polyline fill="none" fill-rule="nonzero" points="3572,13563 3516,13772 3479,14010 3463,14295 3456,14477 "/>
   <polyline fill="none" fill-rule="nonzero" points="3396,14007 3340,14179 3301,14374 3287,14606 3277,14758 "/>
   <polyline fill="none" fill-rule="nonzero" points="3128,13662 3072,13874 3032,14116 3019,14394 3009,14583 "/>
   <polyline fill="none" fill-rule="nonzero" points="2870,13944 2814,14146 2777,14361 2761,14623 2751,14791 "/>
   <polyline fill="none" fill-rule="nonzero" points="2479,13944 2423,14146 2387,14361 2370,14619 2364,14791 "/>
   <polyline fill="none" fill-rule="nonzero" points="2112,13927 2056,14119 2016,14338 2003,14599 1993,14768 "/>
   <polyline fill="none" fill-rule="nonzero" points="1781,13864 1725,14063 1685,14282 1672,14536 1662,14712 "/>
   <polyline fill="none" fill-rule="nonzero" points="692,13762 635,13977 596,14212 582,14500 572,14685 "/>
   <polyline fill="none" fill-rule="nonzero" stroke="black" stroke-width="7.62" stroke-linejoin="bevel" points="990,13239 933,13454 894,13695 880,13970 870,14156 "/>
   <polyline fill="none" fill-rule="nonzero" stroke="black" stroke-width="7.62" stroke-linejoin="bevel" points="4605,12911 4549,13129 4509,13364 4496,13652 4486,13835 "/>
   <polyline fill="none" fill-rule="nonzero" stroke="black" stroke-width="7.62" stroke-linejoin="bevel" points="4499,13249 4443,13460 4403,13702 4390,13980 4380,14166 "/>
   <polyline fill="none" fill-rule="nonzero" stroke="black" stroke-width="7.62" stroke-linejoin="bevel" points="4370,12692 4314,12904 4277,13143 4261,13427 4254,13616 "/>
   <polyline fill="none" fill-rule="nonzero" stroke="black" stroke-width="7.62" stroke-linejoin="bevel" points="4085,12762 4029,12977 3989,13212 3976,13497 3966,13679 "/>
   <polyline fill="none" fill-rule="nonzero" stroke="black" stroke-width="7.62" stroke-linejoin="bevel" points="3754,12812 3698,13023 3658,13268 3645,13556 3635,13739 "/>
   <polyline fill="none" fill-rule="nonzero" stroke="black" stroke-width="7.62" stroke-linejoin="bevel" points="3433,12937 3377,13143 3337,13381 3324,13666 3314,13851 "/>
   <polyline fill="none" fill-rule="nonzero" stroke="black" stroke-width="7.62" stroke-linejoin="bevel" points="3148,12831 3092,13047 3052,13285 3039,13566 3029,13752 "/>
   <polyline fill="none" fill-rule="nonzero" stroke="black" stroke-width="7.62" stroke-linejoin="bevel" points="2910,13037 2854,13245 2814,13487 2801,13768 2791,13954 "/>
   <polyline fill="none" fill-rule="nonzero" stroke="black" stroke-width="7.62" stroke-linejoin="bevel" points="2718,13325 2662,13543 2622,13782 2609,14063 2599,14248 "/>
   <polyline fill="none" fill-rule="nonzero" points="2274,13609 2218,13828 2178,14063 2165,14348 2155,14533 "/>
   <polyline fill="none" fill-rule="nonzero" stroke="black" stroke-width="7.62" stroke-linejoin="bevel" points="2036,13315 1979,13527 1940,13762 1927,14046 1917,14229 "/>
   <polyline fill="none" fill-rule="nonzero" stroke="black" stroke-width="7.62" stroke-linejoin="bevel" points="1662,13292 1605,13507 1569,13745 1552,14027 1542,14219 "/>
   <polyline fill="none" fill-rule="nonzero" stroke="black" stroke-width="7.62" stroke-linejoin="bevel" points="1357,13325 1301,13543 1264,13782 1248,14063 1241,14248 "/>
   <polyline fill="none" fill-rule="nonzero" stroke="black" stroke-width="7.62" stroke-linejoin="bevel" points="1241,12679 1185,12884 1145,13129 1132,13417 1122,13600 "/>
   <polyline fill="none" fill-rule="nonzero" stroke="black" stroke-width="7.62" stroke-linejoin="bevel" points="1542,12735 1490,12944 1450,13182 1433,13467 1427,13652 "/>
   <polyline fill="none" fill-rule="nonzero" points="5105,13904 5049,14103 5012,14318 4996,14583 4989,14748 "/>
   <polyline fill="none" fill-rule="nonzero" points="4959,13702 4903,13914 4863,14152 4850,14434 4840,14616 "/>
   <polyline fill="none" fill-rule="nonzero" stroke="black" stroke-width="7.62" stroke-linejoin="bevel" points="4237,12219 4181,12431 4145,12666 4128,12954 4118,13139 "/>
   <polyline fill="none" fill-rule="nonzero" stroke="black" stroke-width="7.62" stroke-linejoin="bevel" points="4019,12219 3963,12428 3926,12673 3910,12961 3900,13143 "/>
   <polyline fill="none" fill-rule="nonzero" stroke="black" stroke-width="7.62" stroke-linejoin="bevel" points="3598,12219 3542,12428 3502,12663 3489,12951 3479,13136 "/>
   <polyline fill="none" fill-rule="nonzero" stroke="black" stroke-width="7.62" stroke-linejoin="bevel" points="3353,12206 3297,12418 3261,12659 3244,12937 3238,13126 "/>
   <polyline fill="none" fill-rule="nonzero" stroke="black" stroke-width="7.62" stroke-linejoin="bevel" points="3049,12219 2996,12431 2956,12669 2940,12951 2933,13136 "/>
   <polyline fill="none" fill-rule="nonzero" stroke="black" stroke-width="7.62" stroke-linejoin="bevel" points="2450,12219 2393,12441 2357,12673 2340,12961 2334,13143 "/>
   <polyline fill="none" fill-rule="nonzero" stroke="black" stroke-width="7.62" stroke-linejoin="bevel" points="2291,12702 2234,12918 2198,13156 2181,13437 2172,13629 "/>
   <polyline fill="none" fill-rule="nonzero" stroke="black" stroke-width="7.62" stroke-linejoin="bevel" points="1930,12702 1874,12918 1837,13156 1821,13437 1814,13629 "/>
   <polyline fill="none" fill-rule="nonzero" stroke="black" stroke-width="7.62" stroke-linejoin="bevel" points="3877,12219 3820,12434 3784,12676 3767,12961 3761,13146 "/>
   <polyline fill="none" fill-rule="nonzero" stroke="black" stroke-width="7.62" stroke-linejoin="bevel" points="3632,12567 3575,12772 3539,13017 3522,13298 3516,13484 "/>
   <polyline fill="none" fill-rule="nonzero" stroke="black" stroke-width="7.62" stroke-linejoin="bevel" points="3291,13441 3234,13652 3195,13894 3181,14172 3171,14358 "/>
   <polyline fill="none" fill-rule="nonzero" stroke="black" stroke-width="7.62" stroke-linejoin="bevel" points="2542,12881 2486,13093 2446,13331 2433,13613 2423,13795 "/>
   <polyline fill="none" fill-rule="nonzero" stroke="black" stroke-width="7.62" stroke-linejoin="bevel" points="2155,12219 2099,12434 2062,12666 2046,12954 2036,13143 "/>
   <polyline fill="none" fill-rule="nonzero" stroke="black" stroke-width="7.62" stroke-linejoin="bevel" points="1817,12219 1761,12434 1725,12666 1708,12954 1701,13143 "/>
   <path fill="white" fill-rule="nonzero" stroke="black" stroke-width="7.62" stroke-linejoin="bevel" d="M3830 14335c33,-662 7,-1414 79,-1967 76,-560 202,-904 381,-1364 -119,520 -281,1030 -308,1566 -20,543 -20,1189 -26,1768 -23,23 -3,56 -56,56 -33,0 -46,-40 -69,-60z"/>
   <path fill="white" fill-rule="nonzero" stroke="black" stroke-width="7.62" stroke-linejoin="bevel" d="M1390 14262c33,-662 7,-1410 79,-1963 76,-563 202,-904 381,-1364 -119,520 -281,1030 -308,1566 -20,543 -20,1185 -26,1765 -23,23 -3,60 -56,60 -33,0 -46,-43 -70,-63z"/>
   <polyline fill="none" fill-rule="nonzero" points="1486,13748 1430,13957 1390,14195 1377,14477 1367,14666 "/>
   <polyline fill="none" fill-rule="nonzero" points="4158,13838 4102,14050 4065,14285 4049,14570 4039,14755 "/>
   <polyline fill="none" fill-rule="nonzero" stroke="black" stroke-width="7.62" stroke-linejoin="bevel" points="4141,13288 4085,13497 4045,13732 4032,14017 4022,14202 "/>
   <polyline fill="none" fill-rule="nonzero" stroke="black" stroke-width="7.62" stroke-linejoin="bevel" points="1397,12341 1341,12553 1301,12792 1288,13076 1278,13265 "/>
  </g>
  <g id="pilo_inf_poilgland" onclick="parent.replacechar('pilo_inf_poilgland')" onmousemove="parent.showtooltip('pilo_inf_poilgland','Poils glanduleux')" onmouseout="parent.hidetooltip('pilo_inf_poilgland')" cursor="pointer">
    <metadata id="CorelCorpID_7">
     <odm name="Name" value="glandular hair" type="0"/>
    </metadata>
   <polygon fill="#74BE5A" fill-rule="nonzero" stroke="black" stroke-width="7.62" stroke-linejoin="bevel" points="17855,8054 16726,9779 21719,9779 20590,8054 "/>
   <path fill="white" fill-rule="nonzero" stroke="black" stroke-width="7.62" stroke-linejoin="bevel" d="M19041 8975c33,-662 7,-1410 79,-1963 76,-563 116,-56 255,-516 -56,520 -30,175 -56,712 -26,550 26,1185 20,1765 -26,26 -50,73 -83,83 -33,13 -83,17 -119,3 -36,-10 -63,-56 -96,-83z"/>
   <path fill="white" fill-rule="nonzero" stroke="black" stroke-width="7.62" stroke-linejoin="bevel" d="M19223 7031c-182,0 -331,-139 -331,-315 0,-172 149,-314 331,-314 182,0 331,142 331,314 0,176 -149,315 -331,315z"/>
  </g>
  <g id="pilo_inf_navic" onclick="parent.replacechar('pilo_inf_navic')" onmousemove="parent.showtooltip('pilo_inf_navic','Poils naviculaires')" onmouseout="parent.hidetooltip('pilo_inf_navic')" cursor="pointer">
    <metadata id="CorelCorpID_8">
     <odm name="Name" value="poils naviculaires" type="0"/>
    </metadata>
   <polygon id="sans_1" fill="#74BE5A" fill-rule="nonzero" stroke="black" stroke-width="7.62" stroke-linejoin="bevel" points="11331,8055 10202,9779 15195,9779 14066,8055 ">
    <metadata id="CorelCorpID_9">
     <odm name="Name" value="sans" type="0"/>
    </metadata>
   </polygon>
   <path fill="white" stroke="black" stroke-width="7.62" d="M12643 8503l-162 0c0,0 -245,-514 -771,-559 -526,-45 -200,-36 -965,-4 -765,31 -280,-6 -106,-25 174,-19 673,-101 1136,-49 463,51 630,250 764,364 60,-54 494,-397 1233,-381 739,17 977,48 1133,79 -526,-12 -2250,-86 -2262,575z"/>
   <path fill="white" stroke="black" stroke-width="7.62" d="M12799 9431l-152 -3c0,0 -19,-281 -169,-365 -150,-84 -223,-69 -355,-61 -132,9 142,-84 320,-45 178,40 239,157 272,198 105,-59 32,-105 589,-236 557,-131 1100,-138 1760,-56 -596,-11 -1219,-16 -1790,178 -194,66 -331,138 -396,204 -64,66 -75,123 -79,184z"/>
  </g>
  <g id="pilo_inf_scabre" onclick="parent.replacechar('pilo_inf_scabre')" onmousemove="parent.showtooltip('pilo_inf_scabre','Scabre')" onmouseout="parent.hidetooltip('pilo_inf_scabre')" cursor="pointer">
    <metadata id="CorelCorpID_10">
     <odm name="Name" value="scabre" type="0"/>
    </metadata>
   <polygon fill="#74BE5A" fill-rule="nonzero" stroke="black" stroke-width="7.62" stroke-linejoin="bevel" points="4742,8055 3613,9779 8606,9779 7477,8055 "/>
   <path fill="white" fill-rule="nonzero" stroke="black" stroke-width="7.62" stroke-linejoin="bevel" d="M4934 8286c-53,-76 215,-444 470,-473 -265,123 -242,440 -308,477 -50,30 -132,36 -162,-3z"/>
   <path fill="white" fill-rule="nonzero" stroke="black" stroke-width="7.62" stroke-linejoin="bevel" d="M6467 9594c-53,-73 215,-444 470,-473 -265,126 -242,440 -308,480 -50,30 -132,33 -162,-7z"/>
   <path fill="white" fill-rule="nonzero" stroke="black" stroke-width="7.62" stroke-linejoin="bevel" d="M6000 9101c-53,-73 215,-444 470,-473 -265,126 -242,440 -308,480 -50,30 -132,33 -162,-7z"/>
   <path fill="white" fill-rule="nonzero" stroke="black" stroke-width="7.62" stroke-linejoin="bevel" d="M7010 8955c-53,-73 215,-444 467,-473 -265,126 -242,440 -305,480 -53,30 -132,36 -162,-7z"/>
   <path fill="white" fill-rule="nonzero" stroke="black" stroke-width="7.62" stroke-linejoin="bevel" d="M6672 8276c-53,-73 215,-444 470,-473 -268,126 -242,440 -308,480 -50,30 -132,33 -162,-7z"/>
   <path fill="white" fill-rule="nonzero" stroke="black" stroke-width="7.62" stroke-linejoin="bevel" d="M5841 8448c-53,-76 215,-444 470,-473 -265,122 -242,440 -308,477 -50,30 -132,36 -162,-3z"/>
   <path fill="white" fill-rule="nonzero" stroke="black" stroke-width="7.62" stroke-linejoin="bevel" d="M5219 9498c-53,-73 215,-440 470,-470 -268,122 -242,440 -308,477 -50,30 -132,36 -162,-7z"/>
   <path fill="white" fill-rule="nonzero" stroke="black" stroke-width="7.62" stroke-linejoin="bevel" d="M4106 9564c-53,-73 215,-444 467,-473 -265,126 -242,440 -305,480 -53,30 -136,33 -162,-7z"/>
   <path fill="white" fill-rule="nonzero" stroke="black" stroke-width="7.62" stroke-linejoin="bevel" d="M4871 8932c-53,-73 215,-444 470,-473 -268,126 -245,440 -308,480 -50,30 -132,36 -162,-7z"/>
   <path fill="white" fill-rule="nonzero" stroke="black" stroke-width="7.62" stroke-linejoin="bevel" d="M7530 9468c-53,-76 215,-444 467,-473 -265,122 -242,440 -305,477 -50,30 -132,36 -162,-3z"/>
  </g>
  <g id="pilo_inf_pub" onclick="parent.replacechar('pilo_inf_pub')" onmousemove="parent.showtooltip('pilo_inf_pub','Pubescent')" onmouseout="parent.hidetooltip('pilo_inf_pub')" cursor="pointer">
    <metadata id="CorelCorpID_11">
     <odm name="Name" value="pubescent" type="0"/>
    </metadata>
   <polygon id="sans_2" fill="#74BE5A" fill-rule="nonzero" stroke="black" stroke-width="7.62" stroke-linejoin="bevel" points="19686,3577 18557,5302 23550,5302 22421,3577 ">
    <metadata id="CorelCorpID_12">
     <odm name="Name" value="sans" type="0"/>
    </metadata>
   </polygon>
   <path fill="none" stroke="black" stroke-width="7.62" d="M19716 4094c0,0 -76,-473 321,-734"/>
   <path fill="none" stroke="black" stroke-width="7.62" d="M20207 4049c0,0 -76,-473 321,-734"/>
   <path fill="none" stroke="black" stroke-width="7.62" d="M20809 4116c0,0 -76,-473 321,-734"/>
   <path fill="none" stroke="black" stroke-width="7.62" d="M21456 4105c0,0 -76,-473 321,-734"/>
   <path fill="none" stroke="black" stroke-width="7.62" d="M19293 4729c0,0 -76,-473 321,-734"/>
   <path fill="none" stroke="black" stroke-width="7.62" d="M19783 4540c0,0 -76,-473 321,-734"/>
   <path fill="none" stroke="black" stroke-width="7.62" d="M20296 4562c0,0 -76,-473 321,-734"/>
   <path fill="none" stroke="black" stroke-width="7.62" d="M21032 4517c0,0 -76,-473 321,-734"/>
   <path fill="none" stroke="black" stroke-width="7.62" d="M22035 4082c0,0 -76,-473 321,-734"/>
   <path fill="none" stroke="black" stroke-width="7.62" d="M22403 4239c0,0 -76,-473 321,-734"/>
   <path fill="none" stroke="black" stroke-width="7.62" d="M22738 4673c0,0 -76,-473 321,-734"/>
   <path fill="none" stroke="black" stroke-width="7.62" d="M19360 5186c0,0 -76,-473 321,-734"/>
   <path fill="none" stroke="black" stroke-width="7.62" d="M19828 5008c0,0 -76,-473 321,-734"/>
   <path fill="none" stroke="black" stroke-width="7.62" d="M18927 5231c0,0 -76,-473 321,-734"/>
   <path fill="none" stroke="black" stroke-width="7.62" d="M20229 5175c0,0 -76,-473 321,-734"/>
   <path fill="none" stroke="black" stroke-width="7.62" d="M21062 5153c0,0 -76,-473 321,-734"/>
   <path fill="none" stroke="black" stroke-width="7.62" d="M21638 4997c0,0 -76,-473 321,-734"/>
   <path fill="none" stroke="black" stroke-width="7.62" d="M21946 5186c0,0 -76,-473 321,-734"/>
   <path fill="none" stroke="black" stroke-width="7.62" d="M23005 5142c0,0 -76,-473 321,-734"/>
   <path fill="none" stroke="black" stroke-width="7.62" d="M20608 5041c0,0 -76,-473 321,-734"/>
   <path fill="none" stroke="black" stroke-width="7.62" d="M21545 4606c0,0 -76,-473 321,-734"/>
   <path fill="none" stroke="black" stroke-width="7.62" d="M22335 5157c0,0 -76,-473 321,-734"/>
  </g>
  <g id="pilo_inf_tuber" onclick="parent.replacechar('pilo_inf_tuber')" onmousemove="parent.showtooltip('pilo_inf_tuber','Poils tubercul&#233;s')" onmouseout="parent.hidetooltip('pilo_inf_tuber')" cursor="pointer">
    <metadata id="CorelCorpID_13">
     <odm name="Name" value="poils tuberculés" type="0"/>
    </metadata>
   <polygon id="sans_3" fill="#74BE5A" fill-rule="nonzero" stroke="black" stroke-width="7.62" stroke-linejoin="bevel" points="13848,3577 12719,5302 17712,5302 16583,3577 ">
    <metadata id="CorelCorpID_14">
     <odm name="Name" value="sans" type="0"/>
    </metadata>
   </polygon>
   <g>
    <g>
     <path fill="white" stroke="black" stroke-width="7.62" d="M14590 4175c-34,-41 -235,-38 -263,6 -182,-6 -268,87 -280,136 -59,52 -38,213 -18,241 29,21 65,28 88,44 -8,32 170,104 223,72 19,46 230,32 230,-6 2,-1 113,33 130,-26 51,4 81,8 146,-24 65,-32 65,-55 78,-81 12,-51 -4,-126 -8,-148 -13,-98 -122,-177 -166,-162 -22,-15 -20,-57 -160,-51z"/>
     <path fill="none" stroke="black" stroke-width="7.62" d="M14437 4360c0,0 -9,-61 -41,-103 -32,-42 -67,-74 -67,-74"/>
     <path fill="none" stroke="black" stroke-width="7.62" d="M14400 4365c-37,-125 -327,-105 -353,-50"/>
     <path fill="none" stroke="black" stroke-width="7.62" d="M14383 4378c-159,-36 -297,87 -267,222"/>
     <path fill="none" stroke="black" stroke-width="7.62" d="M14412 4407c-1,-11 -80,15 -73,268"/>
     <path fill="none" stroke="black" stroke-width="7.62" d="M14570 4671c0,0 -3,-256 -79,-263"/>
     <path fill="none" stroke="black" stroke-width="7.62" d="M14699 4636c-10,-97 -44,-261 -182,-242"/>
     <path fill="none" stroke="black" stroke-width="7.62" d="M14843 4614c-17,-138 -103,-257 -318,-232"/>
     <path fill="none" stroke="black" stroke-width="7.62" d="M14928 4486c-17,-196 -266,-176 -406,-110"/>
     <path fill="none" stroke="black" stroke-width="7.62" d="M14744 4224c-40,-7 -89,24 -133,45 -44,20 -90,85 -94,101"/>
     <path fill="none" stroke="black" stroke-width="7.62" d="M14590 4172c-84,44 -100,89 -98,186"/>
     <ellipse fill="white" stroke="black" stroke-width="7.62" cx="14454" cy="4384" rx="69" ry="27"/>
    </g>
    <path fill="white" stroke="black" stroke-width="7.62" d="M14544 4386c-45,25 -86,31 -136,20 -28,-8 -44,-23 -50,-48l15 -1092c4,-315 146,-775 190,-926 44,-151 123,-337 123,-337 0,0 -52,310 -92,533 -40,224 -55,513 -55,684 0,171 10,1168 5,1165z"/>
   </g>
   <g>
    <path fill="white" stroke="black" stroke-width="7.62" d="M16173 4185c-34,-41 -235,-38 -263,6 -182,-6 -268,87 -280,136 -59,52 -38,213 -18,241 29,21 65,28 88,44 -8,32 170,104 223,72 19,46 230,32 230,-6 2,-1 113,33 130,-26 51,4 81,8 146,-24 65,-32 65,-55 78,-81 12,-51 -4,-126 -8,-148 -13,-98 -122,-177 -166,-162 -22,-15 -20,-57 -160,-51z"/>
    <path fill="none" stroke="black" stroke-width="7.62" d="M16020 4370c0,0 -9,-61 -42,-103 -32,-42 -67,-74 -67,-74"/>
    <path fill="none" stroke="black" stroke-width="7.62" d="M15983 4375c-37,-125 -327,-105 -353,-50"/>
    <path fill="none" stroke="black" stroke-width="7.62" d="M15967 4388c-159,-36 -297,87 -267,222"/>
    <path fill="none" stroke="black" stroke-width="7.62" d="M15995 4417c-1,-11 -80,15 -73,268"/>
    <path fill="none" stroke="black" stroke-width="7.62" d="M16153 4681c0,0 -3,-256 -79,-263"/>
    <path fill="none" stroke="black" stroke-width="7.62" d="M16282 4646c-10,-97 -44,-261 -182,-242"/>
    <path fill="none" stroke="black" stroke-width="7.62" d="M16426 4624c-17,-138 -103,-257 -318,-232"/>
    <path fill="none" stroke="black" stroke-width="7.62" d="M16511 4496c-17,-196 -266,-176 -406,-110"/>
    <path fill="none" stroke="black" stroke-width="7.62" d="M16327 4234c-40,-7 -89,24 -133,45 -44,20 -90,85 -94,101"/>
    <path fill="none" stroke="black" stroke-width="7.62" d="M16173 4182c-84,44 -100,89 -98,186"/>
    <ellipse fill="white" stroke="black" stroke-width="7.62" cx="16037" cy="4394" rx="69" ry="27"/>
   </g>
  </g>
  <g id="pilo_inf_etoile" onclick="parent.replacechar('pilo_inf_etoile')" onmousemove="parent.showtooltip('pilo_inf_etoile','Poils &#233;toil&#233;s')" onmouseout="parent.hidetooltip('pilo_inf_etoile')" cursor="pointer">
    <metadata id="CorelCorpID_15">
     <odm name="Name" value="poils étoilés" type="0"/>
    </metadata>
   <polygon id="sans_4" fill="#74BE5A" fill-rule="nonzero" stroke="black" stroke-width="7.62" stroke-linejoin="bevel" points="7505,3578 6377,5302 11369,5302 10240,3578 ">
    <metadata id="CorelCorpID_16">
     <odm name="Name" value="sans" type="0"/>
    </metadata>
   </polygon>
   <path fill="white" stroke="black" stroke-width="7.62" d="M8970 4625l-93 5 0 -182c0,0 -218,-33 -564,366 67,-198 289,-437 399,-440 -649,-141 -1403,-129 -1527,-110 -124,19 -741,177 -841,206 -100,29 588,-282 1052,-335 98,-11 928,15 1291,115 -14,-88 -358,-389 -643,-605 -285,-215 -791,-354 -961,-390 231,12 550,45 951,261 133,71 452,180 772,715 -54,-506 -95,-667 -390,-966 181,91 272,210 318,301 46,91 175,247 203,617 297,-760 783,-913 1518,-918 -506,86 -636,140 -789,244 -103,69 -375,151 -598,696 116,-103 293,-262 631,-371 480,-154 1006,-237 1559,-91 -571,-5 -1021,-10 -1413,148 -392,158 -559,227 -703,390 461,-112 728,-166 1492,-129 334,16 1178,206 1303,306 -137,-2 -1076,-284 -2149,-191 -220,19 -350,42 -636,117 304,196 334,388 392,539 -143,-205 -81,-105 -189,-223 -13,-15 -265,-259 -385,-251l0 177z"/>
  </g>
  <g id="pilo_inf_long" onclick="parent.replacechar('pilo_inf_long')" onmousemove="parent.showtooltip('pilo_inf_long','Longs poils dress&#233;s')" onmouseout="parent.hidetooltip('pilo_inf_long')" cursor="pointer">
    <metadata id="CorelCorpID_17">
     <odm name="Name" value="long poils dressés" type="0"/>
    </metadata>
   <polygon id="sans_5" fill="#74BE5A" fill-rule="nonzero" stroke="black" stroke-width="7.62" stroke-linejoin="bevel" points="1370,3578 241,5302 5234,5302 4105,3578 ">
    <metadata id="CorelCorpID_18">
     <odm name="Name" value="sans" type="0"/>
    </metadata>
   </polygon>
   <path fill="white" stroke="black" stroke-width="7.62" d="M2171 4476l-113 0c0,0 -11,-936 17,-1173 21,-176 16,-382 183,-860 -37,259 -85,572 -90,876 -7,403 3,752 3,1156z"/>
   <g>
    <path fill="white" stroke="black" stroke-width="7.62" d="M3200 4464l-113 0c-1,-99 -4,-200 -6,-301 -4,-168 -7,-336 -2,-505 3,-124 11,-247 25,-367 21,-176 16,-382 183,-860 -29,206 -59,412 -77,619 -7,86 -12,172 -14,257 -7,403 3,752 3,1156z"/>
    <line fill="none" stroke="black" stroke-width="7.62" x1="3081" y1="3659" x2="3194" y2= "3660" />
    <line fill="none" stroke="black" stroke-width="7.62" x1="3094" y1="3384" x2="3196" y2= "3385" />
    <path fill="none" stroke="black" stroke-width="7.62" d="M3128 3057c13,1 39,4 81,6"/>
    <line fill="none" stroke="black" stroke-width="7.62" x1="3239" y1="2781" x2="3184" y2= "2774" />
    <line fill="none" stroke="black" stroke-width="7.62" x1="3199" y1="4164" x2="3081" y2= "4164" />
    <line fill="none" stroke="black" stroke-width="7.62" x1="3196" y1="3893" x2="3078" y2= "3894" />
   </g>
  </g>
 </g>
<image xlink:href="tick.gif" id="imgtick" x="-10000" y="-10000" width="1500" height="1500"/>
<rect id="recttooltip" x="-10000" y="-10000" width="5500" height="600" fill-opacity="0.85" pointer-events="none"/>
<text id="textboxid" x="-10000" y="-10000" pointer-events="none"> </text>
</a></svg>
