<?xml version="1.0" encoding="UTF-8"?>
<!DOCTYPE svg PUBLIC "-//W3C//DTD SVG 1.1//EN" "http://www.w3.org/Graphics/SVG/1.1/DTD/svg11.dtd">
<!-- Creator: CorelDRAW X5 -->
<svg xmlns="http://www.w3.org/2000/svg" xml:space="preserve" width="100%" height="100%" shape-rendering="geometricPrecision" text-rendering="geometricPrecision" image-rendering="optimizeQuality" fill-rule="evenodd" clip-rule="evenodd"
viewBox="0 0 24000 18000"
 xmlns:xlink="http://www.w3.org/1999/xlink">
<a>
 <g id="Layer_x0020_1">
  <metadata id="CorelCorpID_0Corel-Layer"/>
  <g id="apex_emarginate" onclick="parent.replacechar('apex_emarginate')" onmousemove="parent.showtooltip('apex_emarginate','Apex &#233;margin&#233;')" onmouseout="parent.hidetooltip('apex_emarginate')" cursor="pointer">
    <metadata id="CorelCorpID_1">
     <odm name="Name" value="emarginate" type="0"/>
    </metadata>
   <path fill="#78B43C" stroke="black" stroke-width="7.62" stroke-linejoin="bevel" d="M1297 4132l3409 0c-37,-775 -230,-2218 -289,-2408 -68,-635 -456,-991 -649,-1001 -100,-37 -394,36 -674,364 -146,170 -568,-499 -957,-359 -268,97 -389,467 -436,547 -96,118 -364,1702 -386,2856 -62,0 37,0 -19,0z"/>
   <polygon fill="none" stroke="black" stroke-width="7.62" stroke-linejoin="bevel" points="3070,1177 3045,4082 "/>
   <path fill="none" stroke="black" stroke-width="7.62" stroke-linejoin="bevel" d="M2317 1351c53,641 292,1008 722,1297"/>
   <path fill="none" stroke="black" stroke-width="7.62" stroke-linejoin="bevel" d="M4124 1995c-78,563 -613,1350 -1011,1487"/>
   <path fill="none" stroke="black" stroke-width="7.62" stroke-linejoin="bevel" d="M1822 3339c-22,355 103,442 299,744"/>
   <path fill="none" stroke="black" stroke-width="7.62" stroke-linejoin="bevel" d="M1318 4138c-31,712 582,1972 1335,2594 305,392 134,784 75,1291 124,75 218,65 333,65 202,-632 68,-846 348,-1325 255,-442 1297,-1571 1294,-2619"/>
  </g>
  <g id="apex_arrondi" onclick="parent.replacechar('apex_arrondi')" onmousemove="parent.showtooltip('apex_arrondi','Apex arrondi')" onmouseout="parent.hidetooltip('apex_arrondi')" cursor="pointer">
    <metadata id="CorelCorpID_2">
     <odm name="Name" value="arrondi" type="0"/>
    </metadata>
   <g>
    <path fill="#78B43C" stroke="black" stroke-width="7.62" stroke-linejoin="bevel" d="M10632 4488l-3271 0 15 -2044c0,0 129,-1743 1583,-1734 1454,8 1537,1022 1666,1634 30,846 8,2145 8,2145z"/>
    <g>
     <polyline fill="none" stroke="black" stroke-width="7.62" points="8997,1061 8997,3776 8993,4488 "/>
     <path fill="none" stroke="black" stroke-width="7.62" d="M9966 2100c-38,335 -475,1347 -967,1678"/>
     <path fill="none" stroke="black" stroke-width="7.62" d="M8171 1480c-8,293 416,905 825,1123"/>
     <path fill="none" stroke="black" stroke-width="7.62" d="M7849 3709c-11,34 142,544 458,775"/>
    </g>
   </g>
   <path fill="none" stroke="black" stroke-width="7.62" stroke-linejoin="bevel" d="M7361 4452c-31,750 554,2089 1306,2741 309,413 137,825 78,1359 122,82 218,69 330,69 203,-665 72,-887 349,-1395 259,-462 1210,-1657 1206,-2764"/>
  </g>
  <g id="apex_coin_large" onclick="parent.replacechar('apex_coin_large')" onmousemove="parent.showtooltip('apex_coin_large','Apex en coin large')" onmouseout="parent.hidetooltip('apex_coin_large')" cursor="pointer">
    <metadata id="CorelCorpID_3">
     <odm name="Name" value="coin large" type="0"/>
    </metadata>
   <path fill="none" stroke="black" stroke-width="7.62" stroke-linejoin="bevel" d="M13275 4222c-33,750 612,2079 1402,2731 324,413 144,825 82,1359 128,82 229,69 347,69 213,-665 75,-887 367,-1395 272,-462 1271,-1657 1267,-2764"/>
   <g>
    <path fill="#78B43C" stroke="black" stroke-width="7.62" stroke-linejoin="bevel" d="M16737 4222c-1156,0 -2312,0 -3468,0 -52,-498 144,-1613 177,-2139 27,-273 316,-1044 1624,-1373 1159,530 1368,928 1511,1344 155,1086 155,2121 155,2169z"/>
    <g>
     <polyline fill="none" stroke="black" stroke-width="7.62" points="15033,940 15033,3540 15029,4223 "/>
     <path fill="none" stroke="black" stroke-width="7.62" d="M16061 1935c-40,321 -504,1290 -1026,1607"/>
     <path fill="none" stroke="black" stroke-width="7.62" d="M14158 1341c-8,281 442,867 875,1076"/>
     <path fill="none" stroke="black" stroke-width="7.62" d="M13817 3476c-12,32 151,521 486,742"/>
    </g>
   </g>
  </g>
  <g id="apex_coin" onclick="parent.replacechar('apex_coin')" onmousemove="parent.showtooltip('apex_coin','Apex en coin')" onmouseout="parent.hidetooltip('apex_coin')" cursor="pointer">
    <metadata id="CorelCorpID_4">
     <odm name="Name" value="coin" type="0"/>
    </metadata>
   <path fill="#78B43C" stroke="black" stroke-width="7.62" stroke-linejoin="bevel" d="M19268 4361l3465 0c-3,0 -3,-386 -20,-508 3,-314 -364,-1703 -511,-1867 -75,-275 -953,-1215 -1094,-1277 -157,82 -950,756 -1048,1002 -98,141 -576,783 -691,1637 -20,124 -111,999 -101,1012z"/>
   <polygon fill="none" stroke="black" stroke-width="7.62" stroke-linejoin="bevel" points="21151,919 21063,4295 "/>
   <path fill="none" stroke="black" stroke-width="7.62" stroke-linejoin="bevel" d="M20447 1986c56,239 324,583 652,711"/>
   <path fill="none" stroke="black" stroke-width="7.62" stroke-linejoin="bevel" d="M22085 2697c-72,593 -583,1123 -986,1208"/>
   <path fill="none" stroke="black" stroke-width="7.62" stroke-linejoin="bevel" d="M19809 3810c108,265 226,432 416,527"/>
   <path fill="none" stroke="black" stroke-width="7.62" stroke-linejoin="bevel" d="M19268 4364c-33,750 612,2079 1402,2731 324,413 144,825 82,1359 128,82 229,69 347,69 213,-665 75,-887 367,-1395 272,-462 1271,-1657 1267,-2764"/>
  </g>
  <g id="apex_mucrone" onclick="parent.replacechar('apex_mucrone')" onmousemove="parent.showtooltip('apex_mucrone','Apex mucron&#233;')" onmouseout="parent.hidetooltip('apex_mucrone')" cursor="pointer">
    <metadata id="CorelCorpID_5">
     <odm name="Name" value="mucrone" type="0"/>
    </metadata>
   <g>
    <path fill="#78B43C" stroke="black" stroke-width="7.62" stroke-linejoin="bevel" d="M4736 12959l-3475 0 6 -593c0,0 52,-2492 1694,-2648 3,-92 1,-324 27,-324 25,6 9,194 18,324 1001,136 1485,871 1708,2450 32,812 21,792 21,792z"/>
    <g>
     <polyline fill="none" stroke="black" stroke-width="7.62" points="2992,9928 2992,12331 2988,12962 "/>
     <path fill="none" stroke="black" stroke-width="7.62" d="M3942 10848c-37,297 -466,1192 -948,1486"/>
     <path fill="none" stroke="black" stroke-width="7.62" d="M2183 10299c-7,260 408,801 809,994"/>
     <path fill="none" stroke="black" stroke-width="7.62" d="M1868 12272c-11,30 139,482 449,686"/>
    </g>
   </g>
   <path fill="none" stroke="black" stroke-width="7.62" stroke-linejoin="bevel" d="M1265 12945c-33,750 612,2079 1402,2731 324,413 144,825 82,1359 128,82 229,69 347,69 213,-665 75,-887 367,-1395 272,-462 1271,-1657 1267,-2764"/>
  </g>
  <g id="apex_apicule" onclick="parent.replacechar('apex_apicule')" onmousemove="parent.showtooltip('apex_apicule','Apex apicul&#233;')" onmouseout="parent.hidetooltip('apex_apicule')" cursor="pointer">
    <metadata id="CorelCorpID_6">
     <odm name="Name" value="apicule" type="0"/>
    </metadata>
   <path fill="none" stroke="black" stroke-width="7.62" stroke-linejoin="bevel" d="M7358 13263c16,749 588,2011 1335,2642 307,399 136,798 77,1314 121,79 217,67 328,67 201,-643 71,-858 347,-1349 257,-447 1201,-1617 1198,-2687"/>
   <g>
    <path fill="#78B43C" stroke="black" stroke-width="7.62" stroke-linejoin="bevel" d="M10644 13255l-3288 13 6 -946c0,0 7,-1657 1160,-2222 453,-222 420,-457 446,-706 24,338 167,599 435,678 732,216 1015,1046 1207,2404 32,813 34,780 34,780z"/>
    <g>
     <polyline fill="none" stroke="black" stroke-width="7.62" points="9012,10013 9012,12627 9008,13258 "/>
     <path fill="none" stroke="black" stroke-width="7.62" d="M9962 11143c-37,297 -466,1193 -948,1486"/>
     <path fill="none" stroke="black" stroke-width="7.62" d="M8203 10594c-7,260 408,802 809,995"/>
     <path fill="none" stroke="black" stroke-width="7.62" d="M7887 12568c-11,30 139,482 449,686"/>
    </g>
   </g>
  </g>
  <g id="apex_acuminate" onclick="parent.replacechar('apex_acuminate')" onmousemove="parent.showtooltip('apex_acuminate','Apex acumin&#233;')" onmouseout="parent.hidetooltip('apex_acuminate')" cursor="pointer">
    <metadata id="CorelCorpID_7">
     <odm name="Name" value="acuminate" type="0"/>
    </metadata>
   <path fill="#78B43C" stroke="black" stroke-width="7.62" stroke-linejoin="bevel" d="M16591 13149c-18,-588 -230,-1004 -263,-1101 -168,-484 -759,-927 -809,-995 -118,-44 -304,-508 -360,-653 -47,-139 -183,-836 -204,-1007 -3,177 -106,871 -156,1007 -53,139 -239,567 -372,691 -74,100 -632,555 -777,1028 -38,92 -216,552 -239,1030 -12,3 -24,0 3180,0z"/>
   <polygon fill="none" stroke="black" stroke-width="7.62" stroke-linejoin="bevel" points="14967,10312 14982,13025 "/>
   <path fill="none" stroke="black" stroke-width="7.62" stroke-linejoin="bevel" d="M15696 11546c-97,490 -325,1016 -673,1152"/>
   <path fill="none" stroke="black" stroke-width="7.62" stroke-linejoin="bevel" d="M14412 11478c92,272 239,446 537,567"/>
   <path fill="none" stroke="black" stroke-width="7.62" stroke-linejoin="bevel" d="M13954 12662c77,103 100,245 233,325"/>
   <path fill="none" stroke="black" stroke-width="7.62" stroke-linejoin="bevel" d="M13420 13158c-30,647 762,1970 1471,2534 245,286 -181,957 -234,1418 56,27 196,61 246,61 192,-567 226,-923 489,-1360 242,-396 1199,-1707 1196,-2655"/>
  </g>
  <g id="apex_coin_aigu" onclick="parent.replacechar('apex_coin_aigu')" onmousemove="parent.showtooltip('apex_coin_aigu','Apex en coin aigu')" onmouseout="parent.hidetooltip('apex_coin_aigu')" cursor="pointer">
    <metadata id="CorelCorpID_8">
     <odm name="Name" value="coin aigu" type="0"/>
    </metadata>
   <path fill="#78B43C" stroke="black" stroke-width="7.62" stroke-linejoin="bevel" d="M20332 13120c0,-1264 40,-1596 612,-3726 673,2168 747,2638 747,3726 -603,0 -587,0 -1359,0z"/>
   <polygon fill="none" stroke="black" stroke-width="7.62" stroke-linejoin="bevel" points="20944,9532 21002,13110 "/>
   <path fill="none" stroke="black" stroke-width="7.62" stroke-linejoin="bevel" d="M21300 10897c49,590 -114,1245 -298,1802"/>
   <path fill="none" stroke="black" stroke-width="7.62" stroke-linejoin="bevel" d="M20522 11607c-25,587 172,1036 344,1488"/>
   <path fill="none" stroke="black" stroke-width="7.62" stroke-linejoin="bevel" d="M21515 12336c6,255 -21,501 -120,769"/>
   <path fill="none" stroke="black" stroke-width="7.62" stroke-linejoin="bevel" d="M20335 13129c-68,627 -52,1583 510,2469 105,381 151,676 98,1128 108,68 194,55 292,55 -6,-790 -148,-818 86,-1236 228,-390 394,-1491 369,-2423"/>
  </g>
 </g>
<image xlink:href="tick.gif" id="imgtick" x="-10000" y="-10000" width="1500" height="1500"/>
<rect id="recttooltip" x="-10000" y="-10000" width="5500" height="600" fill-opacity="0.85" pointer-events="none"/>
<text id="textboxid" x="-10000" y="-10000" pointer-events="none"> </text>
</a></svg>
