<?xml version="1.0" encoding="UTF-8"?>
<!DOCTYPE svg PUBLIC "-//W3C//DTD SVG 1.1//EN" "http://www.w3.org/Graphics/SVG/1.1/DTD/svg11.dtd">
<!-- Creator: CorelDRAW X5 -->
<svg xmlns="http://www.w3.org/2000/svg" xml:space="preserve" shape-rendering="geometricPrecision" text-rendering="geometricPrecision" image-rendering="optimizeQuality" fill-rule="evenodd" clip-rule="evenodd"
viewBox="0 0 24000 18000"
 xmlns:xlink="http://www.w3.org/1999/xlink">
<a>
 <g id="Layer_x0020_1">
  <metadata id="CorelCorpID_0Corel-Layer"/>
  <g id="Epi_umb_ram" onclick="parent.replacechar('Epi_umb_ram')" onmousemove="parent.showtooltip('Epi_umb_ram','Ombelle')" onmouseout="parent.hidetooltip('Epi_umb_ram')" cursor="pointer">
   <rect id="Backgrd" fill="white" x="19200" y="12903" width="4024" height="4550"/>
   <g>
    <polygon fill="none" stroke="black" stroke-width="7.62" stroke-linejoin="bevel" points="21165,15221 22841,14273 "/>
    <polygon fill="#E32025" stroke="#2A2A29" stroke-width="7.62" stroke-linejoin="bevel" points="22383,14550 22504,14000 "/>
    <polygon fill="#E32025" stroke="#2A2A29" stroke-width="7.62" stroke-linejoin="bevel" points="22390,14530 22896,14664 "/>
    <path fill="#B4AA1E" stroke="black" stroke-width="7.62" d="M22758 14717c-57,-47 -58,-119 -14,-175 42,-51 118,-63 165,-20 53,46 61,121 21,174 -47,57 -125,62 -172,20z"/>
    <path fill="#B4AA1E" stroke="black" stroke-width="7.62" d="M22410 14190c-49,-40 -55,-116 -15,-171 45,-55 117,-64 176,-19 51,41 59,114 15,169 -45,54 -119,68 -176,21z"/>
    <path fill="#DB281E" stroke="black" stroke-width="7.62" d="M22777 14411c-81,-19 -126,-87 -111,-151 15,-63 86,-108 167,-89 74,17 118,90 103,153 -15,64 -85,105 -160,87z"/>
    <path fill="#11D975" stroke="black" stroke-width="7.62" d="M22399 14535c-47,10 -74,34 -74,34 -3,21 20,60 35,96 6,5 74,119 199,111 -169,-38 -160,-223 -159,-241z"/>
    <path fill="#11D975" stroke="black" stroke-width="7.62" d="M22387 14523c-32,32 -67,42 -67,42 -19,-9 -39,-50 -59,-85 1,-7 -52,-129 29,-226 -69,161 88,262 98,270z"/>
   </g>
   <g>
    <polygon fill="none" stroke="black" stroke-width="7.62" stroke-linejoin="bevel" points="21169,15221 22124,13549 "/>
    <polygon fill="#E32025" stroke="#2A2A29" stroke-width="7.62" stroke-linejoin="bevel" points="21872,14021 21694,13487 "/>
    <polygon fill="#E32025" stroke="#2A2A29" stroke-width="7.62" stroke-linejoin="bevel" points="21868,14001 22371,13856 "/>
    <path fill="#B4AA1E" stroke="black" stroke-width="7.62" d="M22280 13973c-73,-12 -110,-72 -102,-143 10,-65 69,-115 132,-102 70,13 114,73 108,139 -12,73 -76,117 -138,106z"/>
    <path fill="#B4AA1E" stroke="black" stroke-width="7.62" d="M21710 13699c-63,-9 -107,-72 -101,-139 10,-71 68,-114 141,-107 65,9 109,68 100,138 -11,69 -68,120 -141,108z"/>
    <path fill="#DB281E" stroke="black" stroke-width="7.62" d="M22139 13700c-79,25 -152,-10 -172,-73 -19,-61 19,-137 98,-162 73,-23 147,17 167,78 20,63 -20,134 -92,157z"/>
    <path fill="#11D975" stroke="black" stroke-width="7.62" d="M21878 14000c-35,33 -46,67 -46,67 8,19 48,41 79,64 8,1 124,64 227,-6 -165,54 -251,-110 -260,-125z"/>
    <path fill="#11D975" stroke="black" stroke-width="7.62" d="M21861 13996c-11,44 -37,70 -37,70 -21,2 -59,-23 -94,-43 -3,-7 -111,-84 -91,-209 23,174 210,180 222,182z"/>
   </g>
   <g>
    <polygon fill="none" stroke="black" stroke-width="7.62" stroke-linejoin="bevel" points="21172,15200 21142,13275 "/>
    <polygon fill="#E32025" stroke="#2A2A29" stroke-width="7.62" stroke-linejoin="bevel" points="21135,13810 21549,13428 "/>
    <polygon fill="#E32025" stroke="#2A2A29" stroke-width="7.62" stroke-linejoin="bevel" points="21149,13794 20778,13425 "/>
    <path fill="#B4AA1E" stroke="black" stroke-width="7.62" d="M20801 13571c69,25 132,-10 158,-76 22,-62 -5,-134 -66,-153 -67,-23 -135,9 -161,70 -25,69 10,139 70,159z"/>
    <path fill="#B4AA1E" stroke="black" stroke-width="7.62" d="M21432 13605c60,22 128,-12 155,-73 25,-67 -4,-133 -72,-161 -61,-24 -128,7 -154,72 -24,66 2,138 71,163z"/>
    <path fill="#DB281E" stroke="black" stroke-width="7.62" d="M21056 13400c57,60 138,65 186,19 47,-44 50,-129 -8,-189 -53,-55 -137,-56 -184,-12 -48,45 -47,127 5,182z"/>
    <path fill="#11D975" stroke="black" stroke-width="7.62" d="M21140 13789c15,46 8,81 8,81 -16,13 -62,13 -100,18 -7,-3 -140,-3 -196,-115 118,127 273,25 288,16z"/>
    <path fill="#11D975" stroke="black" stroke-width="7.62" d="M21157 13793c-12,44 -2,79 -2,79 17,12 63,9 103,8 6,-4 137,-20 181,-139 -104,141 -271,57 -282,52z"/>
   </g>
   <g>
    <polygon fill="none" stroke="black" stroke-width="7.62" stroke-linejoin="bevel" points="21186,15216 20190,13568 "/>
    <polygon fill="#E32025" stroke="#2A2A29" stroke-width="7.62" stroke-linejoin="bevel" points="20453,14034 20617,13495 "/>
    <polygon fill="#E32025" stroke="#2A2A29" stroke-width="7.62" stroke-linejoin="bevel" points="20457,14013 19950,13881 "/>
    <path fill="#B4AA1E" stroke="black" stroke-width="7.62" d="M20044 13996c73,-13 109,-75 98,-145 -12,-65 -72,-113 -134,-98 -69,14 -112,76 -104,142 13,73 79,115 140,102z"/>
    <path fill="#B4AA1E" stroke="black" stroke-width="7.62" d="M20606 13707c63,-11 105,-75 97,-142 -12,-70 -70,-113 -144,-103 -64,10 -107,70 -97,140 13,69 71,118 143,105z"/>
    <path fill="#DB281E" stroke="black" stroke-width="7.62" d="M20178 13720c80,23 152,-14 171,-77 18,-62 -22,-136 -102,-160 -73,-21 -147,21 -165,82 -18,63 23,133 96,154z"/>
    <path fill="#11D975" stroke="black" stroke-width="7.62" d="M20446 14013c36,32 48,66 48,66 -7,20 -47,43 -77,66 -8,1 -123,68 -227,-1 166,50 249,-116 257,-132z"/>
    <path fill="#11D975" stroke="black" stroke-width="7.62" d="M20463 14008c12,44 38,69 38,69 21,2 58,-24 93,-45 3,-7 109,-87 86,-211 -19,175 -205,186 -218,187z"/>
   </g>
   <g>
    <polygon fill="none" stroke="black" stroke-width="7.62" stroke-linejoin="bevel" points="21180,15206 19464,14334 "/>
    <polygon fill="#E32025" stroke="#2A2A29" stroke-width="7.62" stroke-linejoin="bevel" points="19933,14590 19788,14046 "/>
    <polygon fill="#E32025" stroke="#2A2A29" stroke-width="7.62" stroke-linejoin="bevel" points="19926,14571 19426,14726 "/>
    <path fill="#B4AA1E" stroke="black" stroke-width="7.62" d="M19566 14774c55,-50 52,-121 7,-175 -44,-49 -121,-58 -166,-13 -51,49 -55,124 -14,175 50,55 128,56 173,12z"/>
    <path fill="#B4AA1E" stroke="black" stroke-width="7.62" d="M19891 14232c48,-42 50,-119 7,-172 -48,-53 -119,-58 -176,-12 -49,43 -54,116 -8,170 47,52 122,63 177,13z"/>
    <path fill="#DB281E" stroke="black" stroke-width="7.62" d="M19534 14469c80,-23 122,-92 104,-156 -17,-62 -91,-104 -171,-82 -74,21 -114,95 -96,157 18,63 90,101 163,80z"/>
    <path fill="#11D975" stroke="black" stroke-width="7.62" d="M19917 14576c47,8 76,31 76,31 4,21 -17,61 -30,97 -6,5 -68,122 -194,120 168,-45 150,-230 148,-248z"/>
    <path fill="#11D975" stroke="black" stroke-width="7.62" d="M19929 14563c34,31 69,39 69,39 19,-10 37,-51 55,-87 -1,-7 46,-131 -39,-225 76,158 -76,266 -86,274z"/>
   </g>
   <path fill="#11D975" stroke="black" stroke-width="7.62" d="M21167 15178c-12,65 12,117 12,117 20,9 319,2 399,-204 -50,61 -135,114 -245,136l-136 -26c-15,-3 -7,-19 -29,-23z"/>
   <path fill="#11D975" stroke="black" stroke-width="7.62" d="M21171 15178c17,64 -4,118 -4,118 -17,10 -317,26 -412,-173 55,57 141,104 253,117l134 -36c15,-4 6,-19 29,-26z"/>
   <line fill="none" stroke="#2A2A29" stroke-width="7.62" stroke-linejoin="bevel" x1="21176" y1="15239" x2="21176" y2= "17042" />
  </g>
  <g id="Epi_panicle" onclick="parent.replacechar('Epi_panicle')" onmousemove="parent.showtooltip('Epi_panicle','Panicule')" onmouseout="parent.hidetooltip('Epi_panicle')" cursor="pointer">
   <rect id="Backgrd_0" fill="white" x="13315" y="12694" width="3673" height="4800"/>
   <polygon fill="none" stroke="black" stroke-width="7.62" points="14967,13360 14967,17042 "/>
   <polygon fill="none" stroke="black" stroke-width="7.62" points="15478,13839 14964,14373 "/>
   <polygon fill="none" stroke="black" stroke-width="7.62" points="15616,14051 15277,14051 "/>
   <polygon fill="none" stroke="black" stroke-width="7.62" points="15887,14849 14967,15649 "/>
   <polygon fill="none" stroke="black" stroke-width="7.62" points="15916,15225 15509,15176 "/>
   <polygon fill="none" stroke="black" stroke-width="7.62" points="15320,15333 15509,14706 "/>
   <polygon fill="none" stroke="black" stroke-width="7.62" points="14330,16023 14671,15866 "/>
   <polygon fill="none" stroke="black" stroke-width="7.62" points="14237,14395 14970,14990 "/>
   <polygon fill="none" stroke="black" stroke-width="7.62" points="14216,14690 14599,14690 "/>
   <polygon fill="none" stroke="black" stroke-width="7.62" points="14616,13687 14967,14065 "/>
   <polygon fill="none" stroke="black" stroke-width="7.62" points="14817,13687 14817,13892 "/>
   <polygon fill="none" stroke="black" stroke-width="7.62" points="15114,13530 14967,13671 "/>
   <polygon fill="none" stroke="black" stroke-width="7.62" points="15575,14919 15400,15058 "/>
   <polygon fill="none" stroke="black" stroke-width="7.62" points="15184,13972 15156,14175 "/>
   <polygon fill="none" stroke="black" stroke-width="7.62" points="14616,14174 14778,14835 "/>
   <polygon fill="none" stroke="black" stroke-width="7.62" points="15359,14793 15465,14872 "/>
   <polygon fill="none" stroke="black" stroke-width="7.62" points="14563,14362 14671,14423 "/>
   <polygon fill="none" stroke="black" stroke-width="7.62" points="13924,15587 14303,15587 "/>
   <polygon fill="none" stroke="black" stroke-width="7.62" points="14330,15050 14494,15725 "/>
   <polygon fill="none" stroke="black" stroke-width="7.62" points="14316,15381 14425,15460 "/>
   <polygon fill="none" stroke="black" stroke-width="7.62" points="13952,15303 14967,16101 "/>
   <polygon fill="none" stroke="black" stroke-width="7.62" points="16202,16149 15820,16149 "/>
   <polygon fill="none" stroke="black" stroke-width="7.62" points="15794,15619 15644,16274 "/>
   <polygon fill="none" stroke="black" stroke-width="7.62" points="15671,15764 15738,15874 "/>
   <polygon fill="none" stroke="black" stroke-width="7.62" points="16173,15866 14967,16807 "/>
   <polygon fill="none" stroke="black" stroke-width="7.62" points="16075,16461 15423,16447 "/>
   <polygon fill="none" stroke="black" stroke-width="7.62" points="15282,15960 15156,16666 "/>
   <polygon fill="none" stroke="black" stroke-width="7.62" points="15780,16352 15605,16447 "/>
   <polygon fill="none" stroke="black" stroke-width="7.62" points="14789,15490 14789,15946 14789,15960 "/>
   <path fill="#FFF500" stroke="black" stroke-width="7.62" d="M15052 13281c0,44 -34,76 -79,76 -46,0 -79,-32 -79,-76 0,-44 34,-78 79,-78 46,0 79,34 79,78z"/>
   <path fill="#DB281E" stroke="black" stroke-width="7.62" d="M16408 16149c0,55 -44,99 -104,99 -60,0 -104,-44 -104,-99 0,-58 44,-102 104,-102 60,0 104,44 104,102z"/>
   <path fill="#FFF500" stroke="black" stroke-width="7.62" d="M15250 13479c0,44 -34,76 -79,76 -46,0 -79,-32 -79,-76 0,-44 34,-78 79,-78 46,0 79,34 79,78z"/>
   <path fill="#FFF500" stroke="black" stroke-width="7.62" d="M14890 13611c0,44 -34,76 -79,76 -46,0 -79,-32 -79,-76 0,-44 34,-78 79,-78 46,0 79,34 79,78z"/>
   <path fill="#FFF500" stroke="black" stroke-width="7.62" d="M14655 13629c0,42 -34,74 -79,74 -46,0 -79,-32 -79,-74 0,-44 34,-78 79,-78 46,0 79,34 79,78z"/>
   <path fill="#B4AA1E" stroke="black" stroke-width="7.62" d="M15267 13900c0,44 -34,76 -81,76 -44,0 -78,-32 -78,-76 0,-44 34,-78 78,-78 48,0 81,34 81,78z"/>
   <path fill="#FFF500" stroke="black" stroke-width="7.62" d="M15599 13779c0,42 -34,74 -81,74 -44,0 -78,-32 -78,-74 0,-46 34,-79 78,-79 48,0 81,34 81,79z"/>
   <path fill="#FFF500" stroke="black" stroke-width="7.62" d="M15765 14039c0,44 -34,76 -79,76 -46,0 -79,-32 -79,-76 0,-44 34,-78 79,-78 46,0 79,34 79,78z"/>
   <path fill="#B4AA1E" stroke="black" stroke-width="7.62" d="M14688 14116c0,42 -34,74 -79,74 -46,0 -79,-32 -79,-74 0,-46 34,-79 79,-79 46,0 79,34 79,79z"/>
   <path fill="#B4AA1E" stroke="black" stroke-width="7.62" d="M14272 14351c0,42 -34,74 -79,74 -44,0 -78,-32 -78,-74 0,-44 34,-78 78,-78 46,0 79,34 79,78z"/>
   <path fill="#DB281E" stroke="black" stroke-width="7.62" d="M14220 14687c0,44 -34,74 -79,74 -46,0 -79,-30 -79,-74 0,-44 34,-78 79,-78 46,0 79,34 79,78z"/>
   <path fill="#B4AA1E" stroke="black" stroke-width="7.62" d="M14386 14981c0,44 -34,74 -81,74 -44,0 -78,-30 -78,-74 0,-44 34,-78 78,-78 48,0 81,34 81,78z"/>
   <path fill="#FFF500" stroke="black" stroke-width="7.62" d="M13957 15273c0,42 -34,74 -81,74 -44,0 -78,-32 -78,-74 0,-44 34,-78 78,-78 48,0 81,34 81,78z"/>
   <path fill="#B4AA1E" stroke="black" stroke-width="7.62" d="M13924 15577c0,44 -34,76 -81,76 -44,0 -78,-32 -78,-76 0,-44 34,-78 78,-78 48,0 81,34 81,78z"/>
   <path fill="#B4AA1E" stroke="black" stroke-width="7.62" d="M15596 14635c0,42 -34,74 -81,74 -44,0 -78,-32 -78,-74 0,-46 34,-79 78,-79 48,0 81,34 81,79z"/>
   <path fill="#FFF500" stroke="black" stroke-width="7.62" d="M16031 14814c0,44 -35,74 -81,74 -44,0 -78,-30 -78,-74 0,-44 34,-78 78,-78 46,0 81,34 81,78z"/>
   <path fill="#DB281E" stroke="black" stroke-width="7.62" d="M16074 15230c0,42 -34,74 -79,74 -44,0 -78,-32 -78,-74 0,-46 34,-79 78,-79 46,0 79,34 79,79z"/>
   <path fill="#DB281E" stroke="black" stroke-width="7.62" d="M15391 15949c0,55 -46,99 -106,99 -58,0 -104,-44 -104,-99 0,-58 46,-102 104,-102 60,0 106,44 106,102z"/>
   <path fill="#DB281E" stroke="black" stroke-width="7.62" d="M15894 15571c0,57 -44,99 -104,99 -60,0 -104,-42 -104,-99 0,-58 44,-102 104,-102 60,0 104,44 104,102z"/>
   <path fill="#B4AA1E" stroke="black" stroke-width="7.62" d="M16376 15826c0,57 -46,99 -106,99 -58,0 -104,-42 -104,-99 0,-58 46,-102 104,-102 60,0 106,44 106,102z"/>
   <path fill="#DB281E" stroke="black" stroke-width="7.62" d="M16285 16454c0,57 -44,99 -104,99 -60,0 -104,-42 -104,-99 0,-58 44,-102 104,-102 60,0 104,44 104,102z"/>
   <path fill="#DB281E" stroke="black" stroke-width="7.62" d="M14333 16046c0,55 -44,99 -104,99 -60,0 -104,-44 -104,-99 0,-58 44,-104 104,-104 60,0 104,46 104,104z"/>
   <path fill="#DB281E" stroke="black" stroke-width="7.62" d="M14886 15402c0,57 -44,99 -104,99 -60,0 -104,-42 -104,-99 0,-58 44,-102 104,-102 60,0 104,44 104,102z"/>
   <path fill="#11D975" stroke="black" stroke-width="7.62" d="M14973 15650c-11,31 -6,31 -6,43 0,0 70,3 111,-6 10,-5 143,-45 178,-120 -33,37 -91,66 -172,85 -105,0 -108,-1 -110,-3z"/>
   <path fill="#11D975" stroke="black" stroke-width="7.62" d="M14978 14367c-10,26 -4,25 -5,34 0,0 52,2 85,-5 9,-3 108,-33 134,-91 -25,29 -69,50 -132,64 -78,1 -82,0 -82,-2z"/>
   <path fill="#11D975" stroke="black" stroke-width="7.62" d="M14955 14069c12,21 5,21 9,30 0,0 -49,9 -79,4 -9,-2 -102,-19 -132,-71 26,25 67,39 125,48 72,-9 76,-11 78,-11z"/>
   <path fill="#11D975" stroke="black" stroke-width="7.62" d="M14963 14991c13,32 6,31 6,43 0,0 -68,4 -109,-6 -10,-5 -139,-45 -174,-120 35,37 89,66 169,85 103,0 107,-1 109,-3z"/>
   <path fill="#11D975" stroke="black" stroke-width="7.62" d="M14961 16092c17,41 10,40 10,56 0,0 -89,4 -145,-7 -13,-9 -180,-61 -224,-156 43,47 115,86 219,109 133,2 139,-1 141,-2z"/>
   <path fill="#11D975" stroke="black" stroke-width="7.62" d="M14978 16807c-14,41 -7,40 -6,58 0,0 87,0 143,-13 15,-7 180,-64 220,-163 -41,49 -111,89 -215,118 -133,4 -139,2 -141,0z"/>
  </g>
  <g id="Epi_etale" onclick="parent.replacechar('Epi_etale')" onmousemove="parent.showtooltip('Epi_etale','Rac&#232;mes repartis le long de l'axe')" onmouseout="parent.hidetooltip('Epi_etale')" cursor="pointer">
   <rect id="Backgrd_1" fill="white" x="7054" y="12610" width="3673" height="4800"/>
   <g id="axe_x0020_1">
    <g id="grain">
     <ellipse fill="#DB281E" stroke="black" stroke-width="7.62" transform="matrix(-0.572062 0.37209 -0.37209 -0.572062 8579.83 16236.4)" rx="168" ry="164"/>
     <path fill="#11D975" stroke="#2A2A29" stroke-width="7.62" d="M8706 16209c0,136 -154,194 -276,226 185,33 283,-95 341,-148 23,-21 -52,-62 -64,-78z"/>
    </g>
    <path fill="none" stroke="black" stroke-width="7.62" d="M8919 16434c-570,-635 -793,-888 -1433,-1595"/>
    <g id="grain_2">
     <ellipse fill="#DB281E" stroke="black" stroke-width="7.62" transform="matrix(-0.575974 0.366005 -0.366005 -0.575974 8315 15940.6)" rx="168" ry="164"/>
     <path fill="#11D975" stroke="#2A2A29" stroke-width="7.62" d="M8442 15914c-1,136 -156,192 -279,223 185,34 284,-92 342,-145 23,-20 -51,-62 -64,-79z"/>
    </g>
    <g id="grain_3">
     <ellipse fill="#B4AA1E" stroke="black" stroke-width="7.62" transform="matrix(-0.532711 0.338513 -0.338513 -0.532711 8075.29 15654.2)" rx="168" ry="164"/>
     <path fill="#11D975" stroke="#2A2A29" stroke-width="7.62" d="M8193 15630c-1,126 -144,178 -258,206 171,32 263,-85 317,-134 21,-19 -47,-58 -59,-73z"/>
    </g>
    <g id="grain_4">
     <ellipse fill="#B4AA1E" stroke="black" stroke-width="7.62" transform="matrix(-0.510204 0.324211 -0.324211 -0.510204 7860.11 15404.1)" rx="168" ry="164"/>
     <path fill="#11D975" stroke="#2A2A29" stroke-width="7.62" d="M7973 15381c-1,120 -138,170 -247,198 164,31 252,-82 303,-128 20,-18 -45,-55 -56,-70z"/>
    </g>
    <g id="grain_5">
     <ellipse fill="#FFF51E" stroke="black" stroke-width="7.62" transform="matrix(-0.490517 0.27955 -0.27955 -0.490517 7654.33 15165.7)" rx="168" ry="164"/>
     <path fill="#11D975" stroke="#2A2A29" stroke-width="7.62" d="M7760 15149c-7,112 -137,152 -239,173 151,36 238,-65 289,-106 20,-16 -40,-53 -49,-68z"/>
    </g>
    <g id="grain_6">
     <ellipse fill="#FFF500" stroke="black" stroke-width="7.62" transform="matrix(-0.394639 0.250775 -0.250775 -0.394639 7470 14936.8)" rx="168" ry="164"/>
     <path fill="#11D975" stroke="#2A2A29" stroke-width="7.62" d="M7557 14919c-1,93 -107,132 -191,153 127,24 195,-63 235,-99 16,-14 -35,-43 -44,-54z"/>
    </g>
   </g>
   <path fill="none" stroke="#2A2A29" stroke-width="7.62" d="M8918 14548c0,2494 0,2494 0,2494"/>
   <g id="axe_x0020_1_7">
    <g id="grain_8">
     <ellipse fill="#DB281E" stroke="black" stroke-width="7.62" transform="matrix(-0.572062 0.37209 -0.37209 -0.572062 8578.04 14963.1)" rx="168" ry="164"/>
     <path fill="#11D975" stroke="#2A2A29" stroke-width="7.62" d="M8705 14935c0,136 -154,194 -276,226 185,33 283,-95 341,-148 23,-21 -52,-62 -64,-78z"/>
    </g>
    <path fill="none" stroke="black" stroke-width="7.62" d="M8917 15161c-570,-635 -793,-888 -1433,-1595"/>
    <g id="grain_9">
     <ellipse fill="#DB281E" stroke="black" stroke-width="7.62" transform="matrix(-0.575974 0.366005 -0.366005 -0.575974 8313.21 14667.3)" rx="168" ry="164"/>
     <path fill="#11D975" stroke="#2A2A29" stroke-width="7.62" d="M8440 14641c-1,136 -156,192 -279,223 185,34 284,-92 342,-145 23,-20 -51,-62 -64,-79z"/>
    </g>
    <g id="grain_10">
     <ellipse fill="#B4AA1E" stroke="black" stroke-width="7.62" transform="matrix(-0.532711 0.338513 -0.338513 -0.532711 8073.5 14380.9)" rx="168" ry="164"/>
     <path fill="#11D975" stroke="#2A2A29" stroke-width="7.62" d="M8191 14357c-1,126 -144,178 -258,206 171,32 263,-85 317,-134 21,-19 -47,-58 -59,-73z"/>
    </g>
    <g id="grain_11">
     <ellipse fill="#B4AA1E" stroke="black" stroke-width="7.62" transform="matrix(-0.510204 0.324211 -0.324211 -0.510204 7858.32 14130.8)" rx="168" ry="164"/>
     <path fill="#11D975" stroke="#2A2A29" stroke-width="7.62" d="M7971 14107c-1,120 -138,170 -247,198 164,31 252,-82 303,-128 20,-18 -45,-55 -56,-70z"/>
    </g>
    <g id="grain_12">
     <ellipse fill="#FFF51E" stroke="black" stroke-width="7.62" transform="matrix(-0.490517 0.27955 -0.27955 -0.490517 7652.54 13892.4)" rx="168" ry="164"/>
     <path fill="#11D975" stroke="#2A2A29" stroke-width="7.62" d="M7758 13876c-7,112 -137,152 -239,173 151,36 238,-65 289,-106 20,-16 -40,-53 -49,-68z"/>
    </g>
    <g id="grain_13">
     <ellipse fill="#FFF500" stroke="black" stroke-width="7.62" transform="matrix(-0.394639 0.250775 -0.250775 -0.394639 7468.21 13663.5)" rx="168" ry="164"/>
     <path fill="#11D975" stroke="#2A2A29" stroke-width="7.62" d="M7555 13645c-1,93 -107,132 -191,153 127,24 195,-63 235,-99 16,-14 -35,-43 -44,-54z"/>
    </g>
   </g>
   <g id="axe_x0020_1_14">
    <g id="grain_15">
     <ellipse fill="#DB281E" stroke="black" stroke-width="7.62" transform="matrix(-0.572062 0.37209 -0.37209 -0.572062 8579.86 14350.1)" rx="168" ry="164"/>
     <path fill="#11D975" stroke="#2A2A29" stroke-width="7.62" d="M8706 14322c0,136 -154,194 -276,226 185,33 283,-95 341,-148 23,-21 -52,-62 -64,-78z"/>
    </g>
    <path fill="none" stroke="black" stroke-width="7.62" d="M8919 14548c-570,-635 -793,-888 -1433,-1595"/>
    <g id="grain_16">
     <ellipse fill="#DB281E" stroke="black" stroke-width="7.62" transform="matrix(-0.575974 0.366005 -0.366005 -0.575974 8315.03 14054.2)" rx="168" ry="164"/>
     <path fill="#11D975" stroke="#2A2A29" stroke-width="7.62" d="M8442 14028c-1,136 -156,192 -279,223 185,34 284,-92 342,-145 23,-20 -51,-62 -64,-79z"/>
    </g>
    <g id="grain_17">
     <ellipse fill="#B4AA1E" stroke="black" stroke-width="7.62" transform="matrix(-0.532711 0.338513 -0.338513 -0.532711 8075.32 13767.8)" rx="168" ry="164"/>
     <path fill="#11D975" stroke="#2A2A29" stroke-width="7.62" d="M8193 13743c-1,126 -144,178 -258,206 171,32 263,-85 317,-134 21,-19 -47,-58 -59,-73z"/>
    </g>
    <g id="grain_18">
     <ellipse fill="#B4AA1E" stroke="black" stroke-width="7.62" transform="matrix(-0.510204 0.324211 -0.324211 -0.510204 7860.14 13517.8)" rx="168" ry="164"/>
     <path fill="#11D975" stroke="#2A2A29" stroke-width="7.62" d="M7973 13494c-1,120 -138,170 -247,198 164,31 252,-82 303,-128 20,-18 -45,-55 -56,-70z"/>
    </g>
    <g id="grain_19">
     <ellipse fill="#FFF51E" stroke="black" stroke-width="7.62" transform="matrix(-0.490517 0.27955 -0.27955 -0.490517 7654.36 13279.3)" rx="168" ry="164"/>
     <path fill="#11D975" stroke="#2A2A29" stroke-width="7.62" d="M7760 13263c-7,112 -137,152 -239,173 151,36 238,-65 289,-106 20,-16 -40,-53 -49,-68z"/>
    </g>
    <g id="grain_20">
     <ellipse fill="#FFF500" stroke="black" stroke-width="7.62" transform="matrix(-0.394639 0.250775 -0.250775 -0.394639 7470.03 13050.4)" rx="168" ry="164"/>
     <path fill="#11D975" stroke="#2A2A29" stroke-width="7.62" d="M7557 13032c-1,93 -107,132 -191,153 127,24 195,-63 235,-99 16,-14 -35,-43 -44,-54z"/>
    </g>
   </g>
   <g id="axe_x0020_1_21">
    <g id="grain_22">
     <ellipse fill="#DB281E" stroke="black" stroke-width="7.62" transform="matrix(-0.572062 0.37209 -0.37209 -0.572062 8578.04 15614.6)" rx="168" ry="164"/>
     <path fill="#11D975" stroke="#2A2A29" stroke-width="7.62" d="M8705 15587c0,136 -154,194 -276,226 185,33 283,-95 341,-148 23,-21 -52,-62 -64,-78z"/>
    </g>
    <path fill="none" stroke="black" stroke-width="7.62" d="M8917 15812c-570,-635 -793,-888 -1433,-1595"/>
    <g id="grain_23">
     <ellipse fill="#DB281E" stroke="black" stroke-width="7.62" transform="matrix(-0.575974 0.366005 -0.366005 -0.575974 8313.21 15318.8)" rx="168" ry="164"/>
     <path fill="#11D975" stroke="#2A2A29" stroke-width="7.62" d="M8440 15292c-1,136 -156,192 -279,223 185,34 284,-92 342,-145 23,-20 -51,-62 -64,-79z"/>
    </g>
    <g id="grain_24">
     <ellipse fill="#B4AA1E" stroke="black" stroke-width="7.62" transform="matrix(-0.532711 0.338513 -0.338513 -0.532711 8073.5 15032.4)" rx="168" ry="164"/>
     <path fill="#11D975" stroke="#2A2A29" stroke-width="7.62" d="M8191 15008c-1,126 -144,178 -258,206 171,32 263,-85 317,-134 21,-19 -47,-58 -59,-73z"/>
    </g>
    <g id="grain_25">
     <ellipse fill="#B4AA1E" stroke="black" stroke-width="7.62" transform="matrix(-0.510204 0.324211 -0.324211 -0.510204 7858.32 14782.3)" rx="168" ry="164"/>
     <path fill="#11D975" stroke="#2A2A29" stroke-width="7.62" d="M7971 14759c-1,120 -138,170 -247,198 164,31 252,-82 303,-128 20,-18 -45,-55 -56,-70z"/>
    </g>
    <g id="grain_26">
     <ellipse fill="#FFF51E" stroke="black" stroke-width="7.62" transform="matrix(-0.490517 0.27955 -0.27955 -0.490517 7652.54 14543.9)" rx="168" ry="164"/>
     <path fill="#11D975" stroke="#2A2A29" stroke-width="7.62" d="M7758 14527c-7,112 -137,152 -239,173 151,36 238,-65 289,-106 20,-16 -40,-53 -49,-68z"/>
    </g>
    <g id="grain_27">
     <ellipse fill="#FFF500" stroke="black" stroke-width="7.62" transform="matrix(-0.394639 0.250775 -0.250775 -0.394639 7468.21 14315)" rx="168" ry="164"/>
     <path fill="#11D975" stroke="#2A2A29" stroke-width="7.62" d="M7555 14297c-1,93 -107,132 -191,153 127,24 195,-63 235,-99 16,-14 -35,-43 -44,-54z"/>
    </g>
   </g>
   <g id="axe_x0020_1_28">
    <g id="grain_29">
     <ellipse fill="#DB281E" stroke="black" stroke-width="7.62" transform="matrix(0.572062 0.37209 0.37209 -0.572062 9257.33 16489.9)" rx="168" ry="164"/>
     <path fill="#11D975" stroke="#2A2A29" stroke-width="7.62" d="M9131 16462c0,136 154,194 276,226 -185,33 -283,-95 -341,-148 -23,-21 52,-62 64,-78z"/>
    </g>
    <path fill="none" stroke="black" stroke-width="7.62" d="M8919 16687c570,-635 793,-888 1433,-1595"/>
    <g id="grain_30">
     <ellipse fill="#DB281E" stroke="black" stroke-width="7.62" transform="matrix(0.575974 0.366005 0.366005 -0.575974 9522.16 16194.1)" rx="168" ry="164"/>
     <path fill="#11D975" stroke="#2A2A29" stroke-width="7.62" d="M9395 16168c1,136 156,192 279,223 -185,34 -284,-92 -342,-145 -23,-20 51,-62 64,-79z"/>
    </g>
    <g id="grain_31">
     <ellipse fill="#B4AA1E" stroke="black" stroke-width="7.62" transform="matrix(0.532711 0.338513 0.338513 -0.532711 9761.87 15907.6)" rx="168" ry="164"/>
     <path fill="#11D975" stroke="#2A2A29" stroke-width="7.62" d="M9644 15883c1,126 144,178 258,206 -171,32 -263,-85 -317,-134 -21,-19 47,-58 59,-73z"/>
    </g>
    <g id="grain_32">
     <ellipse fill="#B4AA1E" stroke="black" stroke-width="7.62" transform="matrix(0.510204 0.324211 0.324211 -0.510204 9977.05 15657.6)" rx="168" ry="164"/>
     <path fill="#11D975" stroke="#2A2A29" stroke-width="7.62" d="M9865 15634c1,120 138,170 247,198 -164,31 -252,-82 -303,-128 -20,-18 45,-55 56,-70z"/>
    </g>
    <g id="grain_33">
     <ellipse fill="#FFF51E" stroke="black" stroke-width="7.62" transform="matrix(0.490517 0.27955 0.27955 -0.490517 10182.8 15419.1)" rx="168" ry="164"/>
     <path fill="#11D975" stroke="#2A2A29" stroke-width="7.62" d="M10077 15402c7,112 137,152 239,173 -151,36 -238,-65 -289,-106 -20,-16 40,-53 49,-68z"/>
    </g>
    <g id="grain_34">
     <ellipse fill="#FFF500" stroke="black" stroke-width="7.62" transform="matrix(0.394639 0.250775 0.250775 -0.394639 10367.2 15190.2)" rx="168" ry="164"/>
     <path fill="#11D975" stroke="#2A2A29" stroke-width="7.62" d="M10280 15172c1,93 107,132 191,153 -127,24 -195,-63 -235,-99 -16,-14 35,-43 44,-54z"/>
    </g>
   </g>
   <g id="axe_x0020_1_35">
    <g id="grain_36">
     <ellipse fill="#DB281E" stroke="black" stroke-width="7.62" transform="matrix(0.572062 0.37209 0.37209 -0.572062 9257.33 15891.5)" rx="168" ry="164"/>
     <path fill="#11D975" stroke="#2A2A29" stroke-width="7.62" d="M9131 15864c0,136 154,194 276,226 -185,33 -283,-95 -341,-148 -23,-21 52,-62 64,-78z"/>
    </g>
    <path fill="none" stroke="black" stroke-width="7.62" d="M8919 16089c570,-635 793,-888 1433,-1595"/>
    <g id="grain_37">
     <ellipse fill="#DB281E" stroke="black" stroke-width="7.62" transform="matrix(0.575974 0.366005 0.366005 -0.575974 9522.16 15595.7)" rx="168" ry="164"/>
     <path fill="#11D975" stroke="#2A2A29" stroke-width="7.62" d="M9395 15569c1,136 156,192 279,223 -185,34 -284,-92 -342,-145 -23,-20 51,-62 64,-79z"/>
    </g>
    <g id="grain_38">
     <ellipse fill="#B4AA1E" stroke="black" stroke-width="7.62" transform="matrix(0.532711 0.338513 0.338513 -0.532711 9761.87 15309.3)" rx="168" ry="164"/>
     <path fill="#11D975" stroke="#2A2A29" stroke-width="7.62" d="M9644 15285c1,126 144,178 258,206 -171,32 -263,-85 -317,-134 -21,-19 47,-58 59,-73z"/>
    </g>
    <g id="grain_39">
     <ellipse fill="#B4AA1E" stroke="black" stroke-width="7.62" transform="matrix(0.510204 0.324211 0.324211 -0.510204 9977.05 15059.2)" rx="168" ry="164"/>
     <path fill="#11D975" stroke="#2A2A29" stroke-width="7.62" d="M9865 15036c1,120 138,170 247,198 -164,31 -252,-82 -303,-128 -20,-18 45,-55 56,-70z"/>
    </g>
    <g id="grain_40">
     <ellipse fill="#FFF51E" stroke="black" stroke-width="7.62" transform="matrix(0.490517 0.27955 0.27955 -0.490517 10182.8 14820.8)" rx="168" ry="164"/>
     <path fill="#11D975" stroke="#2A2A29" stroke-width="7.62" d="M10077 14804c7,112 137,152 239,173 -151,36 -238,-65 -289,-106 -20,-16 40,-53 49,-68z"/>
    </g>
    <g id="grain_41">
     <ellipse fill="#FFF500" stroke="black" stroke-width="7.62" transform="matrix(0.394639 0.250774 0.250774 -0.394639 10367.2 14591.9)" rx="168" ry="164"/>
     <path fill="#11D975" stroke="#2A2A29" stroke-width="7.62" d="M10280 14574c1,93 107,132 191,153 -127,24 -195,-63 -235,-99 -16,-14 35,-43 44,-54z"/>
    </g>
   </g>
   <g id="axe_x0020_1_42">
    <g id="grain_43">
     <ellipse fill="#DB281E" stroke="black" stroke-width="7.62" transform="matrix(0.572062 0.37209 0.37209 -0.572062 9257.33 15269.6)" rx="168" ry="164"/>
     <path fill="#11D975" stroke="#2A2A29" stroke-width="7.62" d="M9131 15242c0,136 154,194 276,226 -185,33 -283,-95 -341,-148 -23,-21 52,-62 64,-78z"/>
    </g>
    <path fill="none" stroke="black" stroke-width="7.62" d="M8919 15467c570,-635 793,-888 1433,-1595"/>
    <g id="grain_44">
     <ellipse fill="#DB281E" stroke="black" stroke-width="7.62" transform="matrix(0.575974 0.366005 0.366005 -0.575974 9522.16 14973.7)" rx="168" ry="164"/>
     <path fill="#11D975" stroke="#2A2A29" stroke-width="7.62" d="M9395 14947c1,136 156,192 279,223 -185,34 -284,-92 -342,-145 -23,-20 51,-62 64,-79z"/>
    </g>
    <g id="grain_45">
     <ellipse fill="#B4AA1E" stroke="black" stroke-width="7.62" transform="matrix(0.532711 0.338513 0.338513 -0.532711 9761.87 14687.3)" rx="168" ry="164"/>
     <path fill="#11D975" stroke="#2A2A29" stroke-width="7.62" d="M9644 14663c1,126 144,178 258,206 -171,32 -263,-85 -317,-134 -21,-19 47,-58 59,-73z"/>
    </g>
    <g id="grain_46">
     <ellipse fill="#B4AA1E" stroke="black" stroke-width="7.62" transform="matrix(0.510204 0.324211 0.324211 -0.510204 9977.05 14437.3)" rx="168" ry="164"/>
     <path fill="#11D975" stroke="#2A2A29" stroke-width="7.62" d="M9865 14414c1,120 138,170 247,198 -164,31 -252,-82 -303,-128 -20,-18 45,-55 56,-70z"/>
    </g>
    <g id="grain_47">
     <ellipse fill="#FFF51E" stroke="black" stroke-width="7.62" transform="matrix(0.490517 0.27955 0.27955 -0.490517 10182.8 14198.8)" rx="168" ry="164"/>
     <path fill="#11D975" stroke="#2A2A29" stroke-width="7.62" d="M10077 14182c7,112 137,152 239,173 -151,36 -238,-65 -289,-106 -20,-16 40,-53 49,-68z"/>
    </g>
    <g id="grain_48">
     <ellipse fill="#FFF500" stroke="black" stroke-width="7.62" transform="matrix(0.394639 0.250774 0.250774 -0.394639 10367.2 13969.9)" rx="168" ry="164"/>
     <path fill="#11D975" stroke="#2A2A29" stroke-width="7.62" d="M10280 13952c1,93 107,132 191,153 -127,24 -195,-63 -235,-99 -16,-14 35,-43 44,-54z"/>
    </g>
   </g>
   <g id="axe_x0020_1_49">
    <g id="grain_50">
     <ellipse fill="#DB281E" stroke="black" stroke-width="7.62" transform="matrix(0.572062 0.37209 0.37209 -0.572062 9257.33 14676.7)" rx="168" ry="164"/>
     <path fill="#11D975" stroke="#2A2A29" stroke-width="7.62" d="M9131 14649c0,136 154,194 276,226 -185,33 -283,-95 -341,-148 -23,-21 52,-62 64,-78z"/>
    </g>
    <path fill="none" stroke="black" stroke-width="7.62" d="M8919 14874c570,-635 793,-888 1433,-1595"/>
    <g id="grain_51">
     <ellipse fill="#DB281E" stroke="black" stroke-width="7.62" transform="matrix(0.575974 0.366005 0.366005 -0.575974 9522.16 14380.9)" rx="168" ry="164"/>
     <path fill="#11D975" stroke="#2A2A29" stroke-width="7.62" d="M9395 14355c1,136 156,192 279,223 -185,34 -284,-92 -342,-145 -23,-20 51,-62 64,-79z"/>
    </g>
    <g id="grain_52">
     <ellipse fill="#B4AA1E" stroke="black" stroke-width="7.62" transform="matrix(0.532711 0.338513 0.338513 -0.532711 9761.87 14094.4)" rx="168" ry="164"/>
     <path fill="#11D975" stroke="#2A2A29" stroke-width="7.62" d="M9644 14070c1,126 144,178 258,206 -171,32 -263,-85 -317,-134 -21,-19 47,-58 59,-73z"/>
    </g>
    <g id="grain_53">
     <ellipse fill="#B4AA1E" stroke="black" stroke-width="7.62" transform="matrix(0.510204 0.324211 0.324211 -0.510204 9977.05 13844.4)" rx="168" ry="164"/>
     <path fill="#11D975" stroke="#2A2A29" stroke-width="7.62" d="M9865 13821c1,120 138,170 247,198 -164,31 -252,-82 -303,-128 -20,-18 45,-55 56,-70z"/>
    </g>
    <g id="grain_54">
     <ellipse fill="#FFF51E" stroke="black" stroke-width="7.62" transform="matrix(0.490517 0.27955 0.27955 -0.490517 10182.8 13605.9)" rx="168" ry="164"/>
     <path fill="#11D975" stroke="#2A2A29" stroke-width="7.62" d="M10077 13589c7,112 137,152 239,173 -151,36 -238,-65 -289,-106 -20,-16 40,-53 49,-68z"/>
    </g>
    <g id="grain_55">
     <ellipse fill="#FFF500" stroke="black" stroke-width="7.62" transform="matrix(0.394639 0.250775 0.250775 -0.394639 10367.2 13377)" rx="168" ry="164"/>
     <path fill="#11D975" stroke="#2A2A29" stroke-width="7.62" d="M10280 13359c1,93 107,132 191,153 -127,24 -195,-63 -235,-99 -16,-14 35,-43 44,-54z"/>
    </g>
   </g>
  </g>
  <g id="Inflo_J" onclick="parent.replacechar('Inflo_J')" onmousemove="parent.showtooltip('Inflo_J','Rac&#232;mes verticill&#233;s')" onmouseout="parent.hidetooltip('Inflo_J')" cursor="pointer">
   <rect id="Backgrd_56" fill="white" x="1127" y="12986" width="4216" height="4216"/>
   <path fill="none" stroke="#2A2A29" stroke-width="7.62" d="M3072 14548c0,2494 0,2494 0,2494"/>
   <g id="verticille">
     <metadata id="CorelCorpID_1">
      <odm name="Name" value="verticille" type="0"/>
     </metadata>
    <g id="grain_57">
     <ellipse fill="#DB281E" stroke="black" stroke-width="7.62" transform="matrix(0.459774 0.297842 0.318266 -0.43027 3353.09 16280.1)" rx="168" ry="164"/>
     <path fill="#11D975" stroke="#2A2A29" stroke-width="7.62" d="M3250 16256c-3,104 122,152 221,179 -152,21 -230,-79 -276,-121 -18,-16 44,-46 55,-58z"/>
    </g>
    <path fill="none" stroke="black" stroke-width="7.62" d="M3071 16424c482,-474 860,-650 1130,-1292"/>
    <g id="grain_58">
     <ellipse fill="#DB281E" stroke="black" stroke-width="7.62" transform="matrix(0.463123 0.293264 0.313374 -0.433403 3598.11 16068.2)" rx="168" ry="164"/>
     <path fill="#11D975" stroke="#2A2A29" stroke-width="7.62" d="M3495 16045c-2,104 123,151 223,177 -152,22 -230,-77 -277,-118 -18,-16 43,-47 54,-59z"/>
    </g>
    <g id="grain_59">
     <ellipse fill="#B4AA1E" stroke="black" stroke-width="7.62" transform="matrix(0.466484 0.208985 0.223315 -0.436548 3818.4 15846.4)" rx="168" ry="164"/>
     <path fill="#11D975" stroke="#2A2A29" stroke-width="7.62" d="M3721 15839c13,96 135,122 230,134 -136,40 -222,-41 -271,-73 -19,-12 33,-48 41,-61z"/>
    </g>
    <g id="grain_60">
     <ellipse fill="#B4AA1E" stroke="black" stroke-width="7.62" transform="matrix(0.472178 0.140061 0.149666 -0.441878 3987.45 15650.4)" rx="168" ry="164"/>
     <path fill="#11D975" stroke="#2A2A29" stroke-width="7.62" d="M3894 15655c26,89 145,99 237,98 -123,55 -216,-11 -267,-35 -20,-9 24,-50 30,-63z"/>
    </g>
    <g id="grain_61">
     <ellipse fill="#FFF51E" stroke="black" stroke-width="7.62" transform="matrix(0.447863 0.108487 0.115926 -0.419123 4123.85 15445.5)" rx="168" ry="164"/>
     <path fill="#11D975" stroke="#2A2A29" stroke-width="7.62" d="M4036 15454c29,82 141,85 226,80 -112,57 -202,0 -251,-20 -19,-8 20,-48 25,-60z"/>
    </g>
    <g id="grain_62">
     <ellipse fill="#FFF500" stroke="black" stroke-width="7.62" transform="matrix(0.369417 0.0950816 0.101602 -0.345711 4233.52 15236.5)" rx="168" ry="164"/>
     <path fill="#11D975" stroke="#2A2A29" stroke-width="7.62" d="M4161 15243c23,68 115,72 186,69 -93,46 -168,-3 -208,-20 -16,-7 17,-39 21,-49z"/>
    </g>
    <g id="axe_x0020_ext">
     <g id="grain_63">
      <ellipse fill="#DB281E" stroke="black" stroke-width="7.62" transform="matrix(0.328486 0.42349 0.452529 -0.307406 3384.24 16369.2)" rx="168" ry="164"/>
      <path fill="#11D975" stroke="#2A2A29" stroke-width="7.62" d="M3295 16315c-40,97 61,181 145,238 -151,-28 -189,-146 -217,-200 -11,-21 58,-30 72,-38z"/>
     </g>
     <path fill="none" stroke="black" stroke-width="7.62" d="M3067 16418c622,-298 867,-418 1564,-749"/>
     <g id="grain_64">
      <ellipse fill="#DB281E" stroke="black" stroke-width="7.62" transform="matrix(0.333265 0.420207 0.449021 -0.311879 3673.65 16230.1)" rx="168" ry="164"/>
      <path fill="#11D975" stroke="#2A2A29" stroke-width="7.62" d="M3584 16176c-39,98 63,180 148,236 -151,-26 -190,-144 -220,-197 -11,-21 57,-31 72,-39z"/>
     </g>
     <g id="grain_65">
      <ellipse fill="#B4AA1E" stroke="black" stroke-width="7.62" transform="matrix(0.308232 0.388644 0.415294 -0.288453 3941.08 16090.9)" rx="168" ry="164"/>
      <path fill="#11D975" stroke="#2A2A29" stroke-width="7.62" d="M3858 16041c-36,90 58,167 137,219 -140,-24 -176,-133 -203,-183 -11,-19 53,-28 66,-36z"/>
     </g>
     <g id="grain_66">
      <ellipse fill="#B4AA1E" stroke="black" stroke-width="7.62" transform="matrix(0.29521 0.372224 0.397748 -0.276266 4179.09 15970.9)" rx="168" ry="164"/>
      <path fill="#11D975" stroke="#2A2A29" stroke-width="7.62" d="M4100 15923c-34,86 56,160 131,209 -134,-23 -168,-128 -195,-175 -10,-18 51,-27 64,-34z"/>
     </g>
     <g id="grain_67">
      <ellipse fill="#FFF51E" stroke="black" stroke-width="7.62" transform="matrix(0.293252 0.334842 0.357803 -0.274434 4406.49 15856.7)" rx="168" ry="164"/>
      <path fill="#11D975" stroke="#2A2A29" stroke-width="7.62" d="M4330 15816c-28,82 60,147 132,190 -126,-16 -163,-112 -190,-155 -10,-17 46,-27 58,-35z"/>
     </g>
     <g id="grain_68">
      <ellipse fill="#FFF500" stroke="black" stroke-width="7.62" transform="matrix(0.228342 0.287912 0.307655 -0.213689 4614.67 15743.4)" rx="168" ry="164"/>
      <path fill="#11D975" stroke="#2A2A29" stroke-width="7.62" d="M4553 15707c-27,67 43,124 101,162 -104,-18 -130,-99 -150,-135 -8,-14 39,-21 49,-27z"/>
     </g>
    </g>
    <g id="grain_69">
     <ellipse fill="#DB281E" stroke="black" stroke-width="7.62" transform="matrix(0.164177 0.500237 0.534539 -0.153641 3381.14 16466.5)" rx="168" ry="164"/>
     <path fill="#11D975" stroke="#2A2A29" stroke-width="7.62" d="M3316 16388c-71,80 -5,190 55,269 -133,-72 -128,-195 -137,-255 -3,-23 65,-11 81,-14z"/>
    </g>
    <path fill="none" stroke="black" stroke-width="7.62" d="M3064 16416c692,-94 1105,-12 1742,-360"/>
    <g id="grain_70">
     <ellipse fill="#DB281E" stroke="black" stroke-width="7.62" transform="matrix(0.169834 0.49858 0.532768 -0.158936 3713.74 16442)" rx="168" ry="164"/>
     <path fill="#11D975" stroke="#2A2A29" stroke-width="7.62" d="M3648 16364c-71,81 -3,190 58,268 -134,-71 -130,-194 -139,-253 -4,-23 65,-11 81,-15z"/>
    </g>
    <g id="grain_71">
     <ellipse fill="#B4AA1E" stroke="black" stroke-width="7.62" transform="matrix(0.22821 0.434326 0.464109 -0.213565 4033.45 16395.4)" rx="168" ry="164"/>
     <path fill="#11D975" stroke="#2A2A29" stroke-width="7.62" d="M3962 16333c-53,83 25,174 92,238 -133,-47 -147,-161 -165,-214 -7,-21 58,-19 72,-24z"/>
    </g>
    <g id="grain_72">
     <ellipse fill="#B4AA1E" stroke="black" stroke-width="7.62" transform="matrix(0.278263 0.383486 0.409782 -0.260407 4295.83 16339.4)" rx="168" ry="164"/>
     <path fill="#11D975" stroke="#2A2A29" stroke-width="7.62" d="M4219 16289c-38,85 49,162 121,214 -133,-28 -163,-134 -187,-182 -9,-19 52,-25 65,-32z"/>
    </g>
    <g id="grain_73">
     <ellipse fill="#FFF51E" stroke="black" stroke-width="7.62" transform="matrix(0.280045 0.344602 0.368232 -0.262074 4538.5 16257.4)" rx="168" ry="164"/>
     <path fill="#11D975" stroke="#2A2A29" stroke-width="7.62" d="M4464 16214c-31,81 54,149 125,194 -126,-20 -159,-117 -184,-161 -10,-17 47,-26 59,-33z"/>
    </g>
    <g id="grain_74">
     <ellipse fill="#FFF500" stroke="black" stroke-width="7.62" transform="matrix(0.227292 0.288639 0.308432 -0.212706 4762.88 16156.7)" rx="168" ry="164"/>
     <path fill="#11D975" stroke="#2A2A29" stroke-width="7.62" d="M4702 16120c-27,67 43,124 101,162 -104,-18 -130,-99 -150,-136 -8,-14 39,-21 49,-26z"/>
    </g>
   </g>
   <g id="verticille_75">
     <metadata id="CorelCorpID_2">
      <odm name="Name" value="verticille" type="0"/>
     </metadata>
    <g id="grain_76">
     <ellipse fill="#DB281E" stroke="black" stroke-width="7.62" transform="matrix(-0.459774 0.297842 -0.318266 -0.43027 2790.41 16282.6)" rx="168" ry="164"/>
     <path fill="#11D975" stroke="#2A2A29" stroke-width="7.62" d="M2893 16259c3,104 -122,152 -221,179 152,21 230,-79 276,-121 18,-16 -44,-46 -55,-58z"/>
    </g>
    <path fill="none" stroke="black" stroke-width="7.62" d="M3073 16427c-482,-474 -860,-650 -1130,-1292"/>
    <g id="grain_77">
     <ellipse fill="#DB281E" stroke="black" stroke-width="7.62" transform="matrix(-0.463123 0.293264 -0.313374 -0.433403 2545.38 16070.7)" rx="168" ry="164"/>
     <path fill="#11D975" stroke="#2A2A29" stroke-width="7.62" d="M2649 16048c2,104 -123,151 -223,177 152,22 230,-77 277,-118 18,-16 -43,-47 -54,-59z"/>
    </g>
    <g id="grain_78">
     <ellipse fill="#B4AA1E" stroke="black" stroke-width="7.62" transform="matrix(-0.466484 0.208985 -0.223315 -0.436548 2325.1 15848.9)" rx="168" ry="164"/>
     <path fill="#11D975" stroke="#2A2A29" stroke-width="7.62" d="M2423 15841c-13,96 -135,122 -230,134 136,40 222,-41 271,-73 19,-12 -33,-48 -41,-61z"/>
    </g>
    <g id="grain_79">
     <ellipse fill="#B4AA1E" stroke="black" stroke-width="7.62" transform="matrix(-0.472178 0.140061 -0.149666 -0.441878 2156.04 15652.9)" rx="168" ry="164"/>
     <path fill="#11D975" stroke="#2A2A29" stroke-width="7.62" d="M2250 15658c-26,89 -145,99 -237,98 123,55 216,-11 267,-35 20,-9 -24,-50 -30,-63z"/>
    </g>
    <g id="grain_80">
     <ellipse fill="#FFF51E" stroke="black" stroke-width="7.62" transform="matrix(-0.447863 0.108487 -0.115926 -0.419123 2019.65 15448)" rx="168" ry="164"/>
     <path fill="#11D975" stroke="#2A2A29" stroke-width="7.62" d="M2107 15457c-29,82 -141,85 -226,80 112,57 202,0 251,-20 19,-8 -20,-48 -25,-60z"/>
    </g>
    <g id="grain_81">
     <ellipse fill="#FFF500" stroke="black" stroke-width="7.62" transform="matrix(-0.369417 0.0950816 -0.101602 -0.345711 1909.98 15238.9)" rx="168" ry="164"/>
     <path fill="#11D975" stroke="#2A2A29" stroke-width="7.62" d="M1982 15245c-23,68 -115,72 -186,69 93,46 168,-3 208,-20 16,-7 -17,-39 -21,-49z"/>
    </g>
    <g id="axe_x0020_ext_82">
     <g id="grain_83">
      <ellipse fill="#DB281E" stroke="black" stroke-width="7.62" transform="matrix(-0.328486 0.42349 -0.452529 -0.307406 2759.26 16371.7)" rx="168" ry="164"/>
      <path fill="#11D975" stroke="#2A2A29" stroke-width="7.62" d="M2848 16317c40,97 -61,181 -145,238 151,-28 189,-146 217,-200 11,-21 -58,-30 -72,-38z"/>
     </g>
     <path fill="none" stroke="black" stroke-width="7.62" d="M3076 16420c-622,-298 -867,-418 -1564,-749"/>
     <g id="grain_84">
      <ellipse fill="#DB281E" stroke="black" stroke-width="7.62" transform="matrix(-0.333265 0.420207 -0.449021 -0.311879 2469.85 16232.6)" rx="168" ry="164"/>
      <path fill="#11D975" stroke="#2A2A29" stroke-width="7.62" d="M2559 16179c39,98 -63,180 -148,236 151,-26 190,-144 220,-197 11,-21 -57,-31 -72,-39z"/>
     </g>
     <g id="grain_85">
      <ellipse fill="#B4AA1E" stroke="black" stroke-width="7.62" transform="matrix(-0.308232 0.388644 -0.415294 -0.288453 2202.41 16093.4)" rx="168" ry="164"/>
      <path fill="#11D975" stroke="#2A2A29" stroke-width="7.62" d="M2285 16044c36,90 -58,167 -137,219 140,-24 176,-133 203,-183 11,-19 -53,-28 -66,-36z"/>
     </g>
     <g id="grain_86">
      <ellipse fill="#B4AA1E" stroke="black" stroke-width="7.62" transform="matrix(-0.29521 0.372224 -0.397748 -0.276266 1964.41 15973.4)" rx="168" ry="164"/>
      <path fill="#11D975" stroke="#2A2A29" stroke-width="7.62" d="M2044 15926c34,86 -56,160 -131,209 134,-23 168,-128 195,-175 10,-18 -51,-27 -64,-34z"/>
     </g>
     <g id="grain_87">
      <ellipse fill="#FFF51E" stroke="black" stroke-width="7.62" transform="matrix(-0.293252 0.334842 -0.357803 -0.274434 1737.01 15859.2)" rx="168" ry="164"/>
      <path fill="#11D975" stroke="#2A2A29" stroke-width="7.62" d="M1813 15818c28,82 -60,147 -132,190 126,-16 163,-112 190,-155 10,-17 -46,-27 -58,-35z"/>
     </g>
     <g id="grain_88">
      <ellipse fill="#FFF500" stroke="black" stroke-width="7.62" transform="matrix(-0.228342 0.287912 -0.307655 -0.213689 1528.82 15745.9)" rx="168" ry="164"/>
      <path fill="#11D975" stroke="#2A2A29" stroke-width="7.62" d="M1590 15709c27,67 -43,124 -101,162 104,-18 130,-99 150,-135 8,-14 -39,-21 -49,-27z"/>
     </g>
    </g>
    <g id="grain_89">
     <ellipse fill="#DB281E" stroke="black" stroke-width="7.62" transform="matrix(-0.164177 0.500237 -0.534539 -0.153641 2762.36 16469)" rx="168" ry="164"/>
     <path fill="#11D975" stroke="#2A2A29" stroke-width="7.62" d="M2827 16390c71,80 5,190 -55,269 133,-72 128,-195 137,-255 3,-23 -65,-11 -81,-14z"/>
    </g>
    <path fill="none" stroke="black" stroke-width="7.62" d="M3079 16419c-692,-94 -1105,-12 -1742,-360"/>
    <g id="grain_90">
     <ellipse fill="#DB281E" stroke="black" stroke-width="7.62" transform="matrix(-0.169834 0.49858 -0.532768 -0.158936 2429.76 16444.5)" rx="168" ry="164"/>
     <path fill="#11D975" stroke="#2A2A29" stroke-width="7.62" d="M2496 16367c71,81 3,190 -58,268 134,-71 130,-194 139,-253 4,-23 -65,-11 -81,-15z"/>
    </g>
    <g id="grain_91">
     <ellipse fill="#B4AA1E" stroke="black" stroke-width="7.62" transform="matrix(-0.22821 0.434326 -0.464109 -0.213565 2110.05 16397.8)" rx="168" ry="164"/>
     <path fill="#11D975" stroke="#2A2A29" stroke-width="7.62" d="M2182 16335c53,83 -25,174 -92,238 133,-47 147,-161 165,-214 7,-21 -58,-19 -72,-24z"/>
    </g>
    <g id="grain_92">
     <ellipse fill="#B4AA1E" stroke="black" stroke-width="7.62" transform="matrix(-0.278263 0.383486 -0.409782 -0.260407 1847.67 16341.8)" rx="168" ry="164"/>
     <path fill="#11D975" stroke="#2A2A29" stroke-width="7.62" d="M1925 16291c38,85 -49,162 -121,214 133,-28 163,-134 186,-182 9,-19 -52,-25 -65,-32z"/>
    </g>
    <g id="grain_93">
     <ellipse fill="#FFF51E" stroke="black" stroke-width="7.62" transform="matrix(-0.280045 0.344602 -0.368232 -0.262074 1605 16259.8)" rx="168" ry="164"/>
     <path fill="#11D975" stroke="#2A2A29" stroke-width="7.62" d="M1679 16216c31,81 -54,149 -125,194 126,-20 159,-117 184,-161 10,-17 -47,-26 -59,-33z"/>
    </g>
    <g id="grain_94">
     <ellipse fill="#FFF500" stroke="black" stroke-width="7.62" transform="matrix(-0.227292 0.288639 -0.308432 -0.212706 1380.62 16159.2)" rx="168" ry="164"/>
     <path fill="#11D975" stroke="#2A2A29" stroke-width="7.62" d="M1442 16122c27,67 -43,124 -101,162 104,-18 130,-99 150,-136 8,-14 -39,-21 -49,-26z"/>
    </g>
   </g>
   <g id="verticille_95">
     <metadata id="CorelCorpID_3">
      <odm name="Name" value="verticille" type="0"/>
     </metadata>
    <g id="grain_96">
     <ellipse fill="#DB281E" stroke="black" stroke-width="7.62" transform="matrix(0.459774 0.297842 0.318266 -0.43027 3353.09 14480.3)" rx="168" ry="164"/>
     <path fill="#11D975" stroke="#2A2A29" stroke-width="7.62" d="M3250 14456c-3,104 122,152 221,179 -152,21 -230,-79 -276,-121 -18,-16 44,-46 55,-58z"/>
    </g>
    <path fill="none" stroke="black" stroke-width="7.62" d="M3071 14624c482,-474 860,-650 1130,-1292"/>
    <g id="grain_97">
     <ellipse fill="#DB281E" stroke="black" stroke-width="7.62" transform="matrix(0.463123 0.293264 0.313374 -0.433403 3598.11 14268.4)" rx="168" ry="164"/>
     <path fill="#11D975" stroke="#2A2A29" stroke-width="7.62" d="M3495 14245c-2,104 123,151 223,177 -152,22 -230,-77 -277,-118 -18,-16 43,-47 54,-59z"/>
    </g>
    <g id="grain_98">
     <ellipse fill="#B4AA1E" stroke="black" stroke-width="7.62" transform="matrix(0.466484 0.208985 0.223315 -0.436548 3818.4 14046.6)" rx="168" ry="164"/>
     <path fill="#11D975" stroke="#2A2A29" stroke-width="7.62" d="M3721 14039c13,96 135,122 230,134 -136,40 -222,-41 -271,-73 -19,-12 33,-48 41,-61z"/>
    </g>
    <g id="grain_99">
     <ellipse fill="#B4AA1E" stroke="black" stroke-width="7.62" transform="matrix(0.472178 0.140061 0.149666 -0.441878 3987.45 13850.6)" rx="168" ry="164"/>
     <path fill="#11D975" stroke="#2A2A29" stroke-width="7.62" d="M3894 13855c26,89 145,99 237,98 -123,55 -216,-11 -267,-35 -20,-9 24,-50 30,-63z"/>
    </g>
    <g id="grain_100">
     <ellipse fill="#FFF51E" stroke="black" stroke-width="7.62" transform="matrix(0.447863 0.108487 0.115926 -0.419123 4123.85 13645.7)" rx="168" ry="164"/>
     <path fill="#11D975" stroke="#2A2A29" stroke-width="7.62" d="M4036 13655c29,82 141,85 226,80 -112,57 -202,0 -251,-20 -19,-8 20,-48 25,-60z"/>
    </g>
    <g id="grain_101">
     <ellipse fill="#FFF500" stroke="black" stroke-width="7.62" transform="matrix(0.369417 0.0950816 0.101602 -0.345711 4233.52 13436.7)" rx="168" ry="164"/>
     <path fill="#11D975" stroke="#2A2A29" stroke-width="7.62" d="M4161 13443c23,68 115,72 186,69 -93,46 -168,-3 -208,-20 -16,-7 17,-39 21,-49z"/>
    </g>
    <g id="axe_x0020_ext_102">
     <g id="grain_103">
      <ellipse fill="#DB281E" stroke="black" stroke-width="7.62" transform="matrix(0.328486 0.42349 0.452529 -0.307406 3384.24 14569.4)" rx="168" ry="164"/>
      <path fill="#11D975" stroke="#2A2A29" stroke-width="7.62" d="M3295 14515c-40,97 61,181 145,238 -151,-28 -189,-146 -217,-200 -11,-21 58,-30 72,-38z"/>
     </g>
     <path fill="none" stroke="black" stroke-width="7.62" d="M3067 14618c622,-298 867,-418 1564,-749"/>
     <g id="grain_104">
      <ellipse fill="#DB281E" stroke="black" stroke-width="7.62" transform="matrix(0.333265 0.420207 0.449021 -0.311879 3673.65 14430.3)" rx="168" ry="164"/>
      <path fill="#11D975" stroke="#2A2A29" stroke-width="7.62" d="M3584 14377c-39,98 63,180 148,236 -151,-26 -190,-144 -220,-197 -11,-21 57,-31 72,-39z"/>
     </g>
     <g id="grain_105">
      <ellipse fill="#B4AA1E" stroke="black" stroke-width="7.62" transform="matrix(0.308232 0.388644 0.415294 -0.288453 3941.08 14291.1)" rx="168" ry="164"/>
      <path fill="#11D975" stroke="#2A2A29" stroke-width="7.62" d="M3858 14241c-36,90 58,167 137,219 -140,-24 -176,-133 -203,-183 -11,-19 53,-28 66,-36z"/>
     </g>
     <g id="grain_106">
      <ellipse fill="#B4AA1E" stroke="black" stroke-width="7.62" transform="matrix(0.29521 0.372224 0.397748 -0.276266 4179.09 14171.1)" rx="168" ry="164"/>
      <path fill="#11D975" stroke="#2A2A29" stroke-width="7.62" d="M4100 14124c-34,86 56,160 131,209 -134,-23 -168,-128 -195,-175 -10,-18 51,-27 64,-34z"/>
     </g>
     <g id="grain_107">
      <ellipse fill="#FFF51E" stroke="black" stroke-width="7.62" transform="matrix(0.293252 0.334842 0.357803 -0.274434 4406.49 14056.9)" rx="168" ry="164"/>
      <path fill="#11D975" stroke="#2A2A29" stroke-width="7.62" d="M4330 14016c-28,82 60,147 132,190 -126,-16 -163,-112 -190,-155 -10,-17 46,-27 58,-35z"/>
     </g>
     <g id="grain_108">
      <ellipse fill="#FFF500" stroke="black" stroke-width="7.62" transform="matrix(0.228342 0.287912 0.307655 -0.213689 4614.67 13943.7)" rx="168" ry="164"/>
      <path fill="#11D975" stroke="#2A2A29" stroke-width="7.62" d="M4553 13907c-27,67 43,124 101,162 -104,-18 -130,-99 -150,-135 -8,-14 39,-21 49,-27z"/>
     </g>
    </g>
    <g id="grain_109">
     <ellipse fill="#DB281E" stroke="black" stroke-width="7.62" transform="matrix(0.164177 0.500237 0.534539 -0.153641 3381.14 14666.7)" rx="168" ry="164"/>
     <path fill="#11D975" stroke="#2A2A29" stroke-width="7.62" d="M3316 14588c-71,80 -5,190 55,269 -133,-72 -128,-195 -137,-255 -3,-23 65,-11 81,-14z"/>
    </g>
    <path fill="none" stroke="black" stroke-width="7.62" d="M3064 14616c692,-94 1105,-12 1742,-360"/>
    <g id="grain_110">
     <ellipse fill="#DB281E" stroke="black" stroke-width="7.62" transform="matrix(0.169834 0.49858 0.532768 -0.158936 3713.74 14642.2)" rx="168" ry="164"/>
     <path fill="#11D975" stroke="#2A2A29" stroke-width="7.62" d="M3648 14564c-71,81 -3,190 58,268 -134,-71 -130,-194 -139,-253 -4,-23 65,-11 81,-15z"/>
    </g>
    <g id="grain_111">
     <ellipse fill="#B4AA1E" stroke="black" stroke-width="7.62" transform="matrix(0.22821 0.434326 0.464109 -0.213565 4033.45 14595.6)" rx="168" ry="164"/>
     <path fill="#11D975" stroke="#2A2A29" stroke-width="7.62" d="M3962 14533c-53,83 25,174 92,238 -133,-47 -147,-161 -165,-214 -7,-21 58,-19 72,-24z"/>
    </g>
    <g id="grain_112">
     <ellipse fill="#B4AA1E" stroke="black" stroke-width="7.62" transform="matrix(0.278263 0.383486 0.409782 -0.260407 4295.83 14539.6)" rx="168" ry="164"/>
     <path fill="#11D975" stroke="#2A2A29" stroke-width="7.62" d="M4219 14489c-38,85 49,162 121,214 -133,-28 -163,-134 -187,-182 -9,-19 52,-25 65,-32z"/>
    </g>
    <g id="grain_113">
     <ellipse fill="#FFF51E" stroke="black" stroke-width="7.62" transform="matrix(0.280045 0.344602 0.368232 -0.262074 4538.5 14457.6)" rx="168" ry="164"/>
     <path fill="#11D975" stroke="#2A2A29" stroke-width="7.62" d="M4464 14414c-31,81 54,149 125,194 -126,-20 -159,-117 -184,-161 -10,-17 47,-26 59,-33z"/>
    </g>
    <g id="grain_114">
     <ellipse fill="#FFF500" stroke="black" stroke-width="7.62" transform="matrix(0.227292 0.288639 0.308432 -0.212706 4762.88 14356.9)" rx="168" ry="164"/>
     <path fill="#11D975" stroke="#2A2A29" stroke-width="7.62" d="M4702 14320c-27,67 43,124 101,162 -104,-18 -130,-99 -150,-136 -8,-14 39,-21 49,-26z"/>
    </g>
   </g>
   <g id="verticille_115">
     <metadata id="CorelCorpID_4">
      <odm name="Name" value="verticille" type="0"/>
     </metadata>
    <g id="grain_116">
     <ellipse fill="#DB281E" stroke="black" stroke-width="7.62" transform="matrix(-0.459774 0.297842 -0.318266 -0.43027 2790.41 14482.8)" rx="168" ry="164"/>
     <path fill="#11D975" stroke="#2A2A29" stroke-width="7.62" d="M2893 14459c3,104 -122,152 -221,179 152,21 230,-79 276,-121 18,-16 -44,-46 -55,-58z"/>
    </g>
    <path fill="none" stroke="black" stroke-width="7.62" d="M3073 14627c-482,-474 -860,-650 -1130,-1292"/>
    <g id="grain_117">
     <ellipse fill="#DB281E" stroke="black" stroke-width="7.62" transform="matrix(-0.463123 0.293264 -0.313374 -0.433403 2545.38 14270.9)" rx="168" ry="164"/>
     <path fill="#11D975" stroke="#2A2A29" stroke-width="7.62" d="M2649 14248c2,104 -123,151 -223,177 152,22 230,-77 277,-118 18,-16 -43,-47 -54,-59z"/>
    </g>
    <g id="grain_118">
     <ellipse fill="#B4AA1E" stroke="black" stroke-width="7.62" transform="matrix(-0.466484 0.208985 -0.223315 -0.436548 2325.1 14049.1)" rx="168" ry="164"/>
     <path fill="#11D975" stroke="#2A2A29" stroke-width="7.62" d="M2423 14041c-13,96 -135,122 -230,134 136,40 222,-41 271,-73 19,-12 -33,-48 -41,-61z"/>
    </g>
    <g id="grain_119">
     <ellipse fill="#B4AA1E" stroke="black" stroke-width="7.62" transform="matrix(-0.472178 0.140061 -0.149666 -0.441878 2156.04 13853.1)" rx="168" ry="164"/>
     <path fill="#11D975" stroke="#2A2A29" stroke-width="7.62" d="M2250 13858c-26,89 -145,99 -237,98 123,55 216,-11 267,-35 20,-9 -24,-50 -30,-63z"/>
    </g>
    <g id="grain_120">
     <ellipse fill="#FFF51E" stroke="black" stroke-width="7.62" transform="matrix(-0.447863 0.108487 -0.115926 -0.419123 2019.65 13648.2)" rx="168" ry="164"/>
     <path fill="#11D975" stroke="#2A2A29" stroke-width="7.62" d="M2107 13657c-29,82 -141,85 -226,80 112,57 202,0 251,-20 19,-8 -20,-48 -25,-60z"/>
    </g>
    <g id="grain_121">
     <ellipse fill="#FFF500" stroke="black" stroke-width="7.62" transform="matrix(-0.369417 0.0950816 -0.101602 -0.345711 1909.98 13439.1)" rx="168" ry="164"/>
     <path fill="#11D975" stroke="#2A2A29" stroke-width="7.62" d="M1982 13445c-23,68 -115,72 -186,69 93,46 168,-3 208,-20 16,-7 -17,-39 -21,-49z"/>
    </g>
    <g id="axe_x0020_ext_122">
     <g id="grain_123">
      <ellipse fill="#DB281E" stroke="black" stroke-width="7.62" transform="matrix(-0.328486 0.42349 -0.452529 -0.307406 2759.26 14571.9)" rx="168" ry="164"/>
      <path fill="#11D975" stroke="#2A2A29" stroke-width="7.62" d="M2848 14517c40,97 -61,181 -145,238 151,-28 189,-146 217,-200 11,-21 -58,-30 -72,-38z"/>
     </g>
     <path fill="none" stroke="black" stroke-width="7.62" d="M3076 14620c-622,-298 -867,-418 -1564,-749"/>
     <g id="grain_124">
      <ellipse fill="#DB281E" stroke="black" stroke-width="7.62" transform="matrix(-0.333265 0.420207 -0.449021 -0.311879 2469.85 14432.8)" rx="168" ry="164"/>
      <path fill="#11D975" stroke="#2A2A29" stroke-width="7.62" d="M2559 14379c39,98 -63,180 -148,236 151,-26 190,-144 220,-197 11,-21 -57,-31 -72,-39z"/>
     </g>
     <g id="grain_125">
      <ellipse fill="#B4AA1E" stroke="black" stroke-width="7.62" transform="matrix(-0.308232 0.388644 -0.415294 -0.288453 2202.41 14293.6)" rx="168" ry="164"/>
      <path fill="#11D975" stroke="#2A2A29" stroke-width="7.62" d="M2285 14244c36,90 -58,167 -137,219 140,-24 176,-133 203,-183 11,-19 -53,-28 -66,-36z"/>
     </g>
     <g id="grain_126">
      <ellipse fill="#B4AA1E" stroke="black" stroke-width="7.62" transform="matrix(-0.29521 0.372224 -0.397748 -0.276266 1964.41 14173.6)" rx="168" ry="164"/>
      <path fill="#11D975" stroke="#2A2A29" stroke-width="7.62" d="M2044 14126c34,86 -56,160 -131,209 134,-23 168,-128 195,-175 10,-18 -51,-27 -64,-34z"/>
     </g>
     <g id="grain_127">
      <ellipse fill="#FFF51E" stroke="black" stroke-width="7.62" transform="matrix(-0.293252 0.334842 -0.357803 -0.274434 1737.01 14059.4)" rx="168" ry="164"/>
      <path fill="#11D975" stroke="#2A2A29" stroke-width="7.62" d="M1813 14018c28,82 -60,147 -132,190 126,-16 163,-112 190,-155 10,-17 -46,-27 -58,-35z"/>
     </g>
     <g id="grain_128">
      <ellipse fill="#FFF500" stroke="black" stroke-width="7.62" transform="matrix(-0.228342 0.287912 -0.307655 -0.213689 1528.82 13946.1)" rx="168" ry="164"/>
      <path fill="#11D975" stroke="#2A2A29" stroke-width="7.62" d="M1590 13909c27,67 -43,124 -101,162 104,-18 130,-99 150,-135 8,-14 -39,-21 -49,-27z"/>
     </g>
    </g>
    <g id="grain_129">
     <ellipse fill="#DB281E" stroke="black" stroke-width="7.62" transform="matrix(-0.164177 0.500237 -0.534539 -0.153641 2762.36 14669.2)" rx="168" ry="164"/>
     <path fill="#11D975" stroke="#2A2A29" stroke-width="7.62" d="M2827 14591c71,80 5,190 -55,269 133,-72 128,-195 137,-255 3,-23 -65,-11 -81,-14z"/>
    </g>
    <path fill="none" stroke="black" stroke-width="7.62" d="M3079 14619c-692,-94 -1105,-12 -1742,-360"/>
    <g id="grain_130">
     <ellipse fill="#DB281E" stroke="black" stroke-width="7.62" transform="matrix(-0.169834 0.49858 -0.532768 -0.158936 2429.76 14644.7)" rx="168" ry="164"/>
     <path fill="#11D975" stroke="#2A2A29" stroke-width="7.62" d="M2496 14567c71,81 3,190 -58,268 134,-71 130,-194 139,-253 4,-23 -65,-11 -81,-15z"/>
    </g>
    <g id="grain_131">
     <ellipse fill="#B4AA1E" stroke="black" stroke-width="7.62" transform="matrix(-0.22821 0.434326 -0.464109 -0.213565 2110.05 14598.1)" rx="168" ry="164"/>
     <path fill="#11D975" stroke="#2A2A29" stroke-width="7.62" d="M2182 14535c53,83 -25,174 -92,238 133,-47 147,-161 165,-214 7,-21 -58,-19 -72,-24z"/>
    </g>
    <g id="grain_132">
     <ellipse fill="#B4AA1E" stroke="black" stroke-width="7.62" transform="matrix(-0.278263 0.383486 -0.409782 -0.260407 1847.67 14542)" rx="168" ry="164"/>
     <path fill="#11D975" stroke="#2A2A29" stroke-width="7.62" d="M1925 14491c38,85 -49,162 -121,214 133,-28 163,-134 186,-182 9,-19 -52,-25 -65,-32z"/>
    </g>
    <g id="grain_133">
     <ellipse fill="#FFF51E" stroke="black" stroke-width="7.62" transform="matrix(-0.280045 0.344602 -0.368232 -0.262074 1605 14460.1)" rx="168" ry="164"/>
     <path fill="#11D975" stroke="#2A2A29" stroke-width="7.62" d="M1679 14416c31,81 -54,149 -125,194 126,-20 159,-117 184,-161 10,-17 -47,-26 -59,-33z"/>
    </g>
    <g id="grain_134">
     <ellipse fill="#FFF500" stroke="black" stroke-width="7.62" transform="matrix(-0.227292 0.288639 -0.308432 -0.212706 1380.62 14359.4)" rx="168" ry="164"/>
     <path fill="#11D975" stroke="#2A2A29" stroke-width="7.62" d="M1442 14322c27,67 -43,124 -101,162 104,-18 130,-99 150,-136 8,-14 -39,-21 -49,-26z"/>
    </g>
   </g>
  </g>
  <g id="Epi_4" onclick="parent.replacechar('Epi_4')" onmousemove="parent.showtooltip('Epi_4','Rac&#232;mes digit&#233;s')" onmouseout="parent.hidetooltip('Epi_4')" cursor="pointer">
   <rect id="Backgrd_135" fill="white" x="19033" y="7017" width="4299" height="4633"/>
   <g id="axe_x0020_centre">
    <g id="grain_136">
     <ellipse fill="#DB281E" stroke="black" stroke-width="7.62" transform="matrix(-0.89397 0.00602851 -0.00602851 -0.89397 20906.2 9749.26)" rx="168" ry="164"/>
     <path fill="#11D975" stroke="#2A2A29" stroke-width="7.62" d="M21065 9808c-96,150 -307,105 -465,54 181,167 379,95 481,78 39,-7 -14,-105 -16,-132z"/>
    </g>
    <path fill="none" stroke="black" stroke-width="7.62" d="M21140 10207c-179,-1103 -247,-1540 -453,-2772"/>
    <g id="grain_137">
     <ellipse fill="#DB281E" stroke="black" stroke-width="7.62" transform="matrix(-0.893983 -0.003449 0.003449 -0.893983 20823.2 9235.8)" rx="168" ry="164"/>
     <path fill="#11D975" stroke="#2A2A29" stroke-width="7.62" d="M20982 9296c-97,149 -308,101 -465,49 179,169 378,99 480,83 39,-6 -12,-105 -15,-132z"/>
    </g>
    <g id="grain_138">
     <ellipse fill="#B4AA1E" stroke="black" stroke-width="7.62" transform="matrix(-0.826834 -0.00318994 0.00318994 -0.826834 20761.3 8750.45)" rx="168" ry="164"/>
     <path fill="#11D975" stroke="#2A2A29" stroke-width="7.62" d="M20908 8807c-90,138 -285,94 -430,45 166,156 350,92 444,76 36,-6 -11,-97 -13,-122z"/>
    </g>
    <g id="grain_139">
     <ellipse fill="#B4AA1E" stroke="black" stroke-width="7.62" transform="matrix(-0.7919 -0.00305516 0.00305516 -0.7919 20700.7 8322.54)" rx="168" ry="164"/>
     <path fill="#11D975" stroke="#2A2A29" stroke-width="7.62" d="M20841 8376c-86,132 -273,90 -412,43 159,149 335,88 425,73 35,-6 -11,-93 -13,-117z"/>
    </g>
    <g id="grain_140">
     <ellipse fill="#FFF51E" stroke="black" stroke-width="7.62" transform="matrix(-0.738617 -0.0383975 0.0383975 -0.738617 20642.3 7914.08)" rx="168" ry="164"/>
     <path fill="#11D975" stroke="#2A2A29" stroke-width="7.62" d="M20771 7970c-86,119 -258,71 -386,22 142,146 309,97 393,87 33,-4 -6,-87 -7,-109z"/>
    </g>
    <g id="grain_141">
     <ellipse fill="#FFF500" stroke="black" stroke-width="7.62" transform="matrix(-0.612528 -0.00236314 0.00236314 -0.612528 20600.8 7531.33)" rx="168" ry="164"/>
     <path fill="#11D975" stroke="#2A2A29" stroke-width="7.62" d="M20709 7573c-67,102 -211,69 -319,34 123,116 259,68 329,57 27,-4 -8,-72 -10,-90z"/>
    </g>
   </g>
   <g id="axe_x0020_centre_142">
    <polyline fill="none" stroke="black" stroke-width="7.62" points="21627,7532 21139,10203 21139,11275 "/>
    <g id="grain_143">
     <ellipse fill="#DB281E" stroke="black" stroke-width="7.62" transform="matrix(0.893988 -0.00171715 -0.00171715 -0.893988 21468.6 9239.75)" rx="168" ry="164"/>
     <path fill="#11D975" stroke="#2A2A29" stroke-width="7.62" d="M21310 9300c97,149 308,102 465,50 -180,168 -379,98 -480,82 -39,-6 13,-105 15,-132z"/>
    </g>
    <g id="grain_144">
     <ellipse fill="#DB281E" stroke="black" stroke-width="7.62" transform="matrix(0.893863 0.0150588 0.0150588 -0.893863 21389 9725.69)" rx="168" ry="164"/>
     <path fill="#11D975" stroke="#2A2A29" stroke-width="7.62" d="M21229 9783c94,151 306,108 464,59 -183,165 -380,91 -481,73 -39,-7 15,-105 17,-131z"/>
    </g>
    <g id="grain_145">
     <ellipse fill="#B4AA1E" stroke="black" stroke-width="7.62" transform="matrix(0.826836 -0.00242896 -0.00242896 -0.826836 21536.9 8802.38)" rx="168" ry="164"/>
     <path fill="#11D975" stroke="#2A2A29" stroke-width="7.62" d="M21390 8858c90,138 285,94 430,46 -166,156 -350,91 -444,76 -36,-6 12,-97 14,-122z"/>
    </g>
    <g id="grain_146">
     <ellipse fill="#B4AA1E" stroke="black" stroke-width="7.62" transform="matrix(0.79146 -0.0265722 -0.0265722 -0.79146 21605.7 8376.01)" rx="168" ry="164"/>
     <path fill="#11D975" stroke="#2A2A29" stroke-width="7.62" d="M21467 8434c90,129 275,82 413,31 -154,154 -332,98 -423,86 -35,-5 8,-93 9,-117z"/>
    </g>
    <g id="grain_147">
     <ellipse fill="#FFF51E" stroke="black" stroke-width="7.62" transform="matrix(0.739136 -0.0266085 -0.0266085 -0.739136 21676.5 7951.8)" rx="168" ry="164"/>
     <path fill="#11D975" stroke="#2A2A29" stroke-width="7.62" d="M21547 8006c85,120 257,76 386,28 -144,144 -310,92 -395,81 -33,-4 7,-87 8,-109z"/>
    </g>
    <g id="grain_148">
     <ellipse fill="#FFF51E" stroke="black" stroke-width="7.62" transform="matrix(0.611374 -0.0376541 -0.0376541 -0.611374 21717.9 7608.13)" rx="168" ry="164"/>
     <path fill="#11D975" stroke="#2A2A29" stroke-width="7.62" d="M21612 7656c73,98 215,57 320,15 -116,122 -255,83 -325,76 -27,-3 4,-72 5,-91z"/>
    </g>
   </g>
   <g id="axe_x0020_ext_149">
    <g id="grain_150">
     <ellipse fill="#DB281E" stroke="black" stroke-width="7.62" transform="matrix(-0.801626 0.395745 -0.395745 -0.801626 20730.1 9901.06)" rx="168" ry="164"/>
     <path fill="#11D975" stroke="#2A2A29" stroke-width="7.62" d="M20899 9885c-21,177 -230,228 -395,251 236,71 383,-80 466,-140 32,-23 -58,-88 -72,-111z"/>
    </g>
    <path fill="none" stroke="black" stroke-width="7.62" d="M21140 10210c-643,-914 -894,-1278 -1617,-2296"/>
    <g id="grain_151">
     <ellipse fill="#DB281E" stroke="black" stroke-width="7.62" transform="matrix(-0.805776 0.387225 -0.387225 -0.805776 20431.2 9475.36)" rx="168" ry="164"/>
     <path fill="#11D975" stroke="#2A2A29" stroke-width="7.62" d="M20600 9461c-23,176 -233,226 -397,247 235,73 384,-76 468,-135 33,-23 -57,-89 -71,-112z"/>
    </g>
    <g id="grain_152">
     <ellipse fill="#B4AA1E" stroke="black" stroke-width="7.62" transform="matrix(-0.745252 0.358139 -0.358139 -0.745252 20163.6 9065.76)" rx="168" ry="164"/>
     <path fill="#11D975" stroke="#2A2A29" stroke-width="7.62" d="M20320 9052c-21,163 -215,209 -367,229 217,68 355,-70 433,-125 30,-21 -53,-82 -65,-104z"/>
    </g>
    <g id="grain_153">
     <ellipse fill="#B4AA1E" stroke="black" stroke-width="7.62" transform="matrix(-0.713765 0.343008 -0.343008 -0.713765 19922.3 8707.24)" rx="168" ry="164"/>
     <path fill="#11D975" stroke="#2A2A29" stroke-width="7.62" d="M20072 8694c-20,156 -206,200 -352,219 208,65 340,-68 414,-120 29,-20 -50,-79 -63,-99z"/>
    </g>
    <g id="grain_154">
     <ellipse fill="#FFF51E" stroke="black" stroke-width="7.62" transform="matrix(-0.681261 0.287948 -0.287948 -0.681261 19691.4 8365.27)" rx="168" ry="164"/>
     <path fill="#11D975" stroke="#2A2A29" stroke-width="7.62" d="M19832 8360c-26,145 -201,177 -338,189 191,70 320,-48 392,-93 28,-18 -43,-76 -54,-96z"/>
    </g>
    <g id="grain_155">
     <ellipse fill="#FFF500" stroke="black" stroke-width="7.62" transform="matrix(-0.552091 0.265314 -0.265314 -0.552091 19486.9 8039.05)" rx="168" ry="164"/>
     <path fill="#11D975" stroke="#2A2A29" stroke-width="7.62" d="M19603 8029c-16,121 -160,155 -272,169 161,50 263,-52 321,-93 22,-16 -39,-61 -48,-77z"/>
    </g>
   </g>
   <g id="axe_x0020_ext_156">
    <g id="grain_157">
     <ellipse fill="#DB281E" stroke="black" stroke-width="7.62" transform="matrix(0.791568 0.415497 0.415497 -0.791568 21548.6 9901.27)" rx="168" ry="164"/>
     <path fill="#11D975" stroke="#2A2A29" stroke-width="7.62" d="M21380 9881c16,177 225,234 388,261 -237,65 -381,-90 -463,-152 -32,-24 60,-87 74,-110z"/>
    </g>
    <path fill="none" stroke="black" stroke-width="7.62" d="M21131 10200c665,-898 926,-1255 1674,-2255"/>
    <g id="grain_158">
     <ellipse fill="#DB281E" stroke="black" stroke-width="7.62" transform="matrix(0.795929 0.407082 0.407082 -0.795929 21857.9 9483.12)" rx="168" ry="164"/>
     <path fill="#11D975" stroke="#2A2A29" stroke-width="7.62" d="M21689 9464c18,177 227,231 391,257 -237,68 -382,-86 -464,-147 -32,-24 59,-87 73,-110z"/>
    </g>
    <g id="grain_159">
     <ellipse fill="#B4AA1E" stroke="black" stroke-width="7.62" transform="matrix(0.736144 0.376505 0.376505 -0.736144 22135.6 9080.27)" rx="168" ry="164"/>
     <path fill="#11D975" stroke="#2A2A29" stroke-width="7.62" d="M21979 9063c17,164 210,214 362,238 -219,62 -353,-79 -429,-136 -30,-22 55,-81 68,-102z"/>
    </g>
    <g id="grain_160">
     <ellipse fill="#B4AA1E" stroke="black" stroke-width="7.62" transform="matrix(0.705042 0.360598 0.360598 -0.705042 22385.7 8727.84)" rx="168" ry="164"/>
     <path fill="#11D975" stroke="#2A2A29" stroke-width="7.62" d="M22236 8711c16,157 201,205 346,228 -210,60 -338,-76 -411,-130 -28,-21 52,-77 65,-98z"/>
    </g>
    <g id="grain_161">
     <ellipse fill="#FFF51E" stroke="black" stroke-width="7.62" transform="matrix(0.673913 0.304749 0.304749 -0.673913 22625 8391.71)" rx="168" ry="164"/>
     <path fill="#11D975" stroke="#2A2A29" stroke-width="7.62" d="M22485 8383c22,146 197,182 333,197 -193,65 -319,-56 -389,-103 -27,-18 45,-75 56,-94z"/>
    </g>
    <g id="grain_162">
     <ellipse fill="#FFF500" stroke="black" stroke-width="7.62" transform="matrix(0.545344 0.278919 0.278919 -0.545344 22837.5 8070.66)" rx="168" ry="164"/>
     <path fill="#11D975" stroke="#2A2A29" stroke-width="7.62" d="M22722 8058c13,121 156,158 268,176 -162,46 -261,-59 -318,-100 -22,-16 40,-60 50,-76z"/>
    </g>
   </g>
  </g>
  <g id="Epi_2" onclick="parent.replacechar('Epi_2')" onmousemove="parent.showtooltip('Epi_2','Rac&#232;mes digit&#233;s par paire')" onmouseout="parent.hidetooltip('Epi_2')" cursor="pointer">
   <rect id="Backgrd_163" fill="white" x="13690" y="7184" width="2922" height="4216"/>
   <g id="grain_164">
    <ellipse fill="#DB281E" stroke="black" stroke-width="7.62" transform="matrix(-0.877172 0.172589 -0.172589 -0.877172 14984 9798.79)" rx="168" ry="164"/>
    <path fill="#11D975" stroke="#2A2A29" stroke-width="7.62" d="M15151 9827c-66,165 -282,160 -447,140 209,130 390,23 487,-13 37,-14 -33,-100 -40,-126z"/>
   </g>
   <g id="axe">
    <polyline fill="none" stroke="black" stroke-width="7.62" points="15789,7532 15300,10203 15300,11275 "/>
    <path fill="none" stroke="black" stroke-width="7.62" d="M15299 10205c-382,-1051 -529,-1467 -961,-2639"/>
   </g>
   <g id="grain_165">
    <ellipse fill="#DB281E" stroke="black" stroke-width="7.62" transform="matrix(-0.878953 0.16328 -0.16328 -0.878953 14806.8 9309.8)" rx="168" ry="164"/>
    <path fill="#11D975" stroke="#2A2A29" stroke-width="7.62" d="M14974 9340c-68,164 -284,157 -448,135 208,132 390,27 487,-8 38,-14 -32,-101 -39,-127z"/>
   </g>
   <g id="grain_166">
    <ellipse fill="#DB281E" stroke="black" stroke-width="7.62" transform="matrix(0.893988 -0.00171715 -0.00171715 -0.893988 15629.8 9239.76)" rx="168" ry="164"/>
    <path fill="#11D975" stroke="#2A2A29" stroke-width="7.62" d="M15471 9300c97,149 308,102 465,50 -180,168 -379,98 -480,82 -39,-6 13,-105 15,-132z"/>
   </g>
   <g id="grain_167">
    <ellipse fill="#DB281E" stroke="black" stroke-width="7.62" transform="matrix(0.893863 0.0150588 0.0150588 -0.893863 15550.1 9725.7)" rx="168" ry="164"/>
    <path fill="#11D975" stroke="#2A2A29" stroke-width="7.62" d="M15390 9783c94,151 306,108 464,59 -183,165 -380,91 -481,73 -39,-7 15,-105 17,-131z"/>
   </g>
   <g id="grain_168">
    <ellipse fill="#B4AA1E" stroke="black" stroke-width="7.62" transform="matrix(-0.812932 0.151016 -0.151016 -0.812932 14655.4 8844.51)" rx="168" ry="164"/>
    <path fill="#11D975" stroke="#2A2A29" stroke-width="7.62" d="M14810 8872c-63,152 -262,145 -414,125 192,122 361,25 450,-8 35,-13 -29,-93 -36,-117z"/>
   </g>
   <g id="grain_169">
    <ellipse fill="#B4AA1E" stroke="black" stroke-width="7.62" transform="matrix(-0.778586 0.144635 -0.144635 -0.778586 14516.2 8435.39)" rx="168" ry="164"/>
    <path fill="#11D975" stroke="#2A2A29" stroke-width="7.62" d="M14664 8462c-60,146 -251,139 -397,120 184,117 346,24 431,-7 33,-12 -28,-89 -34,-112z"/>
   </g>
   <g id="grain_170">
    <ellipse fill="#FFF51E" stroke="black" stroke-width="7.62" transform="matrix(-0.732826 0.0999788 -0.0999788 -0.732826 14382.6 8044.99)" rx="168" ry="164"/>
    <path fill="#11D975" stroke="#2A2A29" stroke-width="7.62" d="M14520 8076c-63,133 -241,118 -376,94 166,118 321,38 403,13 32,-10 -22,-84 -27,-106z"/>
   </g>
   <g id="grain_171">
    <ellipse fill="#FFF500" stroke="black" stroke-width="7.62" transform="matrix(-0.60223 0.111874 -0.111874 -0.60223 14270.5 7676.68)" rx="168" ry="164"/>
    <path fill="#11D975" stroke="#2A2A29" stroke-width="7.62" d="M14385 7697c-47,113 -194,108 -307,92 142,91 267,18 334,-6 26,-9 -22,-69 -27,-87z"/>
   </g>
   <g id="grain_172">
    <ellipse fill="#B4AA1E" stroke="black" stroke-width="7.62" transform="matrix(0.826836 -0.00242896 -0.00242896 -0.826836 15698.1 8802.38)" rx="168" ry="164"/>
    <path fill="#11D975" stroke="#2A2A29" stroke-width="7.62" d="M15551 8858c90,138 285,94 430,46 -166,156 -350,91 -444,76 -36,-6 12,-97 14,-122z"/>
   </g>
   <g id="grain_173">
    <ellipse fill="#B4AA1E" stroke="black" stroke-width="7.62" transform="matrix(0.79146 -0.0265722 -0.0265722 -0.79146 15766.9 8376.02)" rx="168" ry="164"/>
    <path fill="#11D975" stroke="#2A2A29" stroke-width="7.62" d="M15628 8434c90,129 275,82 413,31 -154,154 -332,98 -423,86 -35,-5 8,-93 9,-117z"/>
   </g>
   <g id="grain_174">
    <ellipse fill="#FFF51E" stroke="black" stroke-width="7.62" transform="matrix(0.739136 -0.0266085 -0.0266085 -0.739136 15837.7 7951.8)" rx="168" ry="164"/>
    <path fill="#11D975" stroke="#2A2A29" stroke-width="7.62" d="M15708 8006c85,120 257,76 386,28 -144,144 -310,92 -395,81 -33,-4 7,-87 9,-109z"/>
   </g>
   <g id="grain_175">
    <ellipse fill="#FFF51E" stroke="black" stroke-width="7.62" transform="matrix(0.611374 -0.0376541 -0.0376541 -0.611374 15879.1 7608.14)" rx="168" ry="164"/>
    <path fill="#11D975" stroke="#2A2A29" stroke-width="7.62" d="M15773 7656c73,98 215,57 320,15 -116,122 -255,83 -325,75 -27,-3 4,-72 5,-91z"/>
   </g>
  </g>
  <g id="Inflo_I" onclick="parent.replacechar('Inflo_I')" onmousemove="parent.showtooltip('Inflo_I','Cyme unipare scorpioide')" onmouseout="parent.hidetooltip('Inflo_I')" cursor="pointer">
   <rect id="Backgrd_176" fill="white" x="7096" y="7310" width="3673" height="4174"/>
   <path fill="#009846" stroke="#2A2A29" stroke-width="17.64" d="M7833 9296l0 -97c0,-30 58,12 236,-35 160,-42 194,-176 192,-162 -5,48 -80,169 -177,241 -89,67 -252,53 -252,53z"/>
   <path fill="#009846" stroke="#2A2A29" stroke-width="17.64" d="M8447 8356l35 -63c11,-19 33,29 165,62 119,30 188,-44 182,-36 -20,30 -112,80 -200,93 -82,11 -182,-56 -182,-56z"/>
   <path fill="#009846" stroke="#2A2A29" stroke-width="17.64" d="M9255 7855l35 -12c11,-4 3,23 42,82 35,53 88,49 83,50 -18,4 -71,-9 -109,-35 -35,-24 -50,-85 -50,-85z"/>
   <path fill="#009846" stroke="#2A2A29" stroke-width="17.64" d="M9744 7892l29 10c9,3 -10,16 -14,74 -4,52 32,76 28,74 -14,-7 -42,-42 -53,-78 -11,-34 10,-81 10,-81z"/>
   <g>
    <ellipse fill="#E31E24" stroke="#232523" stroke-width="17.64" cx="7835" cy="8057" rx="167" ry="216"/>
    <ellipse fill="#FFED00" stroke="#2A2A29" stroke-width="7.62" cx="8813" cy="7739" rx="145" ry="174"/>
    <line fill="none" stroke="#2A2A29" stroke-width="7.62" x1="7835" y1="8273" x2="7802" y2= "11275" />
    <polyline fill="none" stroke="#2A2A29" stroke-width="7.62" points="8748,7894 8475,8279 7828,9191 "/>
    <ellipse fill="#FFED00" stroke="#2A2A29" stroke-width="7.62" cx="9479" cy="7699" rx="92" ry="110"/>
    <ellipse fill="#FFED00" stroke="#2A2A29" stroke-width="7.62" cx="9980" cy="7914" rx="61" ry="74"/>
    <ellipse fill="#FFED00" stroke="#2A2A29" stroke-width="7.62" cx="10119" cy="8234" rx="48" ry="58"/>
    <line fill="none" stroke="#2A2A29" stroke-width="7.62" x1="9410" y1="7762" x2="8463" y2= "8299" />
    <line fill="none" stroke="#2A2A29" stroke-width="7.62" x1="9921" y1="7915" x2="9263" y2= "7839" />
    <line fill="none" stroke="#2A2A29" stroke-width="7.62" x1="10075" y1="8206" x2="9752" y2= "7894" />
   </g>
  </g>
  <g id="Inflo_M" onclick="parent.replacechar('Inflo_M')" onmousemove="parent.showtooltip('Inflo_M','Cyme')" onmouseout="parent.hidetooltip('Inflo_M')" cursor="pointer">
   <rect id="Backgrd_177" fill="white" x="1210" y="6976" width="3673" height="4257"/>
   <polygon fill="#E32025" stroke="black" stroke-width="7.62" stroke-linejoin="bevel" points="3035,8301 3035,11275 "/>
   <path fill="#00C800" stroke="black" stroke-width="7.62" d="M3028 9072c0,66 33,113 33,113 21,5 314,-57 354,-274 -38,69 -111,137 -215,179l-139 0c-16,0 -10,-17 -33,-17z"/>
   <polygon fill="#E32025" stroke="black" stroke-width="7.62" stroke-linejoin="bevel" points="3028,9089 4443,7784 "/>
   <polygon fill="#E32025" stroke="black" stroke-width="7.62" stroke-linejoin="bevel" points="4084,8116 3811,7623 "/>
   <polygon fill="#E32025" stroke="black" stroke-width="7.62" stroke-linejoin="bevel" points="4094,8116 4603,8392 "/>
   <path fill="#B4B400" stroke="black" stroke-width="7.62" d="M4566 8534c-66,-33 -83,-102 -54,-167 29,-59 101,-89 156,-57 63,33 87,104 61,165 -33,66 -108,89 -163,59z"/>
   <path fill="#B4B400" stroke="black" stroke-width="7.62" d="M3742 7656c-57,-28 -80,-101 -54,-163 31,-64 99,-89 167,-59 59,28 83,97 54,161 -31,62 -101,94 -167,61z"/>
   <path fill="red" stroke="black" stroke-width="7.62" d="M3030 8300c-113,0 -203,-85 -203,-184 0,-99 90,-182 203,-182 104,0 196,83 196,182 0,99 -92,184 -196,184z"/>
   <path fill="yellow" stroke="black" stroke-width="7.62" d="M4400 7945c-83,0 -142,-56 -142,-122 0,-64 59,-125 142,-125 76,0 135,61 135,125 0,66 -59,122 -135,122z"/>
   <path fill="#00C800" stroke="black" stroke-width="7.62" d="M3035 9072c0,66 -35,113 -35,113 -19,5 -312,-57 -352,-274 38,69 109,137 214,179l139 0c16,0 10,-17 35,-17z"/>
   <polygon fill="#E32025" stroke="black" stroke-width="7.62" stroke-linejoin="bevel" points="3035,9089 1619,7784 "/>
   <polygon fill="#E32025" stroke="black" stroke-width="7.62" stroke-linejoin="bevel" points="2060,8181 2332,7689 "/>
   <polygon fill="#E32025" stroke="black" stroke-width="7.62" stroke-linejoin="bevel" points="2049,8181 1541,8456 "/>
   <path fill="#B4B400" stroke="black" stroke-width="7.62" d="M1577 8598c66,-31 83,-102 54,-167 -30,-57 -101,-89 -156,-56 -62,31 -87,102 -61,163 33,68 108,89 163,59z"/>
   <path fill="#B4B400" stroke="black" stroke-width="7.62" d="M2402 7720c57,-26 80,-101 54,-161 -31,-66 -99,-90 -167,-59 -59,26 -83,97 -54,160 31,62 101,94 167,61z"/>
   <path fill="yellow" stroke="black" stroke-width="7.62" d="M1739 8010c85,0 148,-56 148,-127 0,-68 -62,-130 -148,-130 -80,0 -142,62 -142,130 0,71 62,127 142,127z"/>
   <path fill="#00C800" stroke="black" stroke-width="7.62" d="M2048 8206c43,21 64,50 64,50 -2,21 -33,54 -56,85 -7,3 -99,99 -219,62 174,2 207,-181 210,-198z"/>
   <path fill="#00C800" stroke="black" stroke-width="7.62" d="M2075 8185c19,42 49,62 49,62 21,-2 54,-33 85,-59 2,-7 94,-102 52,-222 9,175 -174,215 -186,219z"/>
   <path fill="#00C800" stroke="black" stroke-width="7.62" d="M4082 8142c-43,21 -64,50 -64,50 2,21 33,54 56,85 7,3 99,99 219,62 -174,2 -207,-181 -210,-198z"/>
   <path fill="#00C800" stroke="black" stroke-width="7.62" d="M4054 8121c-19,42 -49,62 -49,62 -21,-2 -54,-33 -85,-59 -2,-7 -94,-102 -52,-222 -9,175 174,215 186,219z"/>
  </g>
  <g id="Inflo_H" onclick="parent.replacechar('Inflo_H')" onmousemove="parent.showtooltip('Inflo_H','Grappe')" onmouseout="parent.hidetooltip('Inflo_H')" cursor="pointer">
   <rect id="Backgrd_178" fill="white" x="19951" y="1090" width="2296" height="4383"/>
   <line fill="none" stroke="black" stroke-width="7.62" x1="21014" y1="1919" x2="21084" y2= "2016" />
   <line fill="none" stroke="black" stroke-width="7.62" x1="21212" y1="2214" x2="21088" y2= "2317" />
   <line fill="none" stroke="black" stroke-width="7.62" x1="21612" y1="4529" x2="21086" y2= "4847" />
   <line fill="none" stroke="black" stroke-width="7.62" x1="20679" y1="4008" x2="21084" y2= "4284" />
   <line fill="none" stroke="black" stroke-width="7.62" x1="21349" y1="2775" x2="21087" y2= "2983" />
   <path fill="yellow" stroke="black" stroke-width="7.62" d="M20939 1965c-69,0 -120,-52 -120,-116 0,-61 50,-118 120,-118 64,0 115,57 115,118 0,64 -50,116 -115,116z"/>
   <path fill="yellow" stroke="black" stroke-width="7.62" d="M21269 2254c-69,10 -126,-34 -136,-97 -9,-60 32,-124 101,-135 64,-10 122,40 131,100 10,64 -33,122 -96,132z"/>
   <path fill="#00C800" stroke="black" stroke-width="7.62" d="M21095 2314c-14,28 -9,28 -10,40 0,0 62,9 102,5 10,-3 132,-28 170,-92 -35,30 -87,50 -163,61 -94,-10 -97,-12 -99,-14z"/>
   <path fill="#00C800" stroke="black" stroke-width="7.62" d="M21076 2007c14,33 9,33 10,47 0,0 -59,10 -97,7 -10,-3 -125,-33 -161,-111 33,36 82,61 155,73 89,-12 92,-14 94,-16z"/>
   <line fill="none" stroke="black" stroke-width="7.62" x1="20967" y1="2498" x2="21080" y2= "2611" />
   <path fill="#B4B400" stroke="black" stroke-width="7.62" d="M20906 2533c68,16 129,-23 144,-85 14,-59 -21,-127 -89,-143 -62,-15 -125,29 -139,88 -15,62 22,125 84,140z"/>
   <path fill="#00C800" stroke="black" stroke-width="7.62" d="M21076 2608c14,28 9,28 10,40 0,0 -63,9 -102,5 -10,-3 -132,-28 -170,-92 35,29 87,50 163,61 94,-10 97,-12 99,-14z"/>
   <path fill="#B4B400" stroke="black" stroke-width="7.62" d="M21486 2851c-90,0 -156,-68 -156,-153 0,-80 66,-155 156,-155 85,0 151,75 151,155 0,85 -66,153 -151,153z"/>
   <path fill="#00C800" stroke="black" stroke-width="7.62" d="M21100 2968c-19,36 -12,36 -14,52 0,0 82,12 134,7 14,-5 174,-36 224,-122 -45,40 -115,68 -214,80 -123,-12 -128,-16 -130,-17z"/>
   <line fill="none" stroke="black" stroke-width="7.62" x1="20820" y1="3102" x2="21082" y2= "3310" />
   <path fill="#B4B400" stroke="black" stroke-width="7.62" d="M20683 3181c90,0 156,-68 156,-153 0,-80 -66,-154 -156,-154 -85,0 -151,75 -151,154 0,85 66,153 151,153z"/>
   <path fill="#00C800" stroke="black" stroke-width="7.62" d="M21073 3299c19,36 12,36 14,52 0,0 -82,12 -134,7 -14,-5 -174,-36 -224,-122 45,40 115,68 214,80 123,-12 128,-16 130,-17z"/>
   <line fill="none" stroke="black" stroke-width="7.62" x1="21409" y1="3575" x2="21088" y2= "3783" />
   <path fill="red" stroke="black" stroke-width="7.62" d="M21534 3632c-90,0 -156,-68 -156,-153 0,-80 66,-154 156,-154 85,0 151,75 151,154 0,85 -66,153 -151,153z"/>
   <path fill="#00C800" stroke="black" stroke-width="7.62" d="M21105 3776c-19,36 -12,36 -14,52 0,0 82,12 134,7 14,-5 174,-36 224,-122 -45,40 -115,68 -214,80 -123,-12 -128,-16 -130,-17z"/>
   <path fill="red" stroke="black" stroke-width="7.62" d="M20577 4047c-90,0 -156,-68 -156,-153 0,-80 66,-154 156,-154 85,0 151,75 151,154 0,85 -66,153 -151,153z"/>
   <path fill="#00C800" stroke="black" stroke-width="7.62" d="M21071 4278c19,36 12,36 14,52 0,0 -82,12 -134,7 -14,-5 -174,-36 -224,-122 45,40 115,68 214,80 123,-12 128,-16 130,-17z"/>
   <path fill="#00C800" stroke="black" stroke-width="7.62" d="M21102 4839c-19,36 -12,36 -14,52 0,0 82,12 134,7 14,-5 174,-36 224,-122 -45,40 -115,68 -214,80 -123,-12 -128,-16 -130,-17z"/>
   <path fill="red" stroke="black" stroke-width="7.62" d="M21748 4605c-90,0 -156,-68 -156,-153 0,-80 66,-154 156,-154 85,0 151,75 151,154 0,85 -66,153 -151,153z"/>
   <polygon fill="none" stroke="black" stroke-width="7.62" stroke-linejoin="bevel" points="21086,1696 21084,5453 "/>
   <path fill="yellow" stroke="black" stroke-width="7.62" d="M21099 1686c-69,0 -120,-52 -120,-116 0,-61 50,-118 120,-118 64,0 115,57 115,118 0,64 -50,116 -115,116z"/>
   <path fill="#00C800" stroke="black" stroke-width="7.62" d="M21083 1695c2,36 6,34 11,47 0,0 58,-16 91,-36 8,-8 98,-84 98,-170 -14,47 -47,90 -108,133 -85,27 -89,27 -91,26z"/>
  </g>
  <g id="Inflo_L" onclick="parent.replacechar('Inflo_L')" onmousemove="parent.showtooltip('Inflo_L','Epi contract&#233;')" onmouseout="parent.hidetooltip('Inflo_L')" cursor="pointer">
   <rect id="Backgrd_179" fill="white" x="14191" y="3136" width="1661" height="2170"/>
   <g id="grain_180">
    <ellipse fill="#DB281E" stroke="black" stroke-width="7.62" transform="matrix(1.24584 -0.0994112 -0.295761 -0.418753 15296 4379.99)" rx="168" ry="164"/>
    <path fill="#11D975" stroke="#2A2A29" stroke-width="7.62" d="M15094 4426c184,59 462,14 665,-28 -195,99 -496,88 -642,91 -57,1 -17,-50 -23,-63z"/>
   </g>
   <g id="grain_181">
    <ellipse fill="#DB281E" stroke="black" stroke-width="7.62" transform="matrix(1.25117 -0.0915358 -0.27233 -0.420545 15300.4 4599.86)" rx="168" ry="164"/>
    <path fill="#11D975" stroke="#2A2A29" stroke-width="7.62" d="M15096 4644c181,60 462,17 666,-24 -201,97 -500,85 -647,87 -57,1 -14,-51 -19,-63z"/>
   </g>
   <g id="grain_182">
    <ellipse fill="#B4AA1E" stroke="black" stroke-width="7.62" transform="matrix(1.15199 -0.0923379 -0.274717 -0.387206 15286.2 4167.5)" rx="168" ry="164"/>
    <path fill="#11D975" stroke="#2A2A29" stroke-width="7.62" d="M15100 4210c171,55 428,13 615,-26 -180,91 -458,81 -594,85 -53,1 -16,-47 -21,-59z"/>
   </g>
   <g id="grain_183">
    <ellipse fill="#B4AA1E" stroke="black" stroke-width="7.62" transform="matrix(1.09474 -0.09975 -0.296769 -0.367965 15275.3 3960.1)" rx="168" ry="164"/>
    <path fill="#11D975" stroke="#2A2A29" stroke-width="7.62" d="M15101 4003c168,51 411,8 586,-31 -165,89 -431,82 -561,87 -50,2 -19,-45 -25,-56z"/>
   </g>
   <g id="grain_184">
    <ellipse fill="#FFF51E" stroke="black" stroke-width="7.62" transform="matrix(1.02178 -0.0939957 -0.279649 -0.343441 15256.7 3747.95)" rx="168" ry="164"/>
    <path fill="#11D975" stroke="#2A2A29" stroke-width="7.62" d="M15094 3788c157,47 384,7 548,-29 -153,83 -402,77 -523,82 -47,2 -18,-42 -24,-52z"/>
   </g>
   <g id="grain_185">
    <ellipse fill="#FFF51E" stroke="black" stroke-width="7.62" transform="matrix(0.840027 -0.0850798 -0.253123 -0.28235 15218.2 3587.89)" rx="168" ry="164"/>
    <path fill="#11D975" stroke="#2A2A29" stroke-width="7.62" d="M15086 3622c133,38 318,3 451,-28 -122,70 -328,67 -428,71 -39,2 -18,-34 -23,-43z"/>
   </g>
   <line fill="none" stroke="#2A2A29" stroke-width="7.62" x1="15088" y1="3554" x2="15088" y2= "4945" />
   <g id="grain_186">
    <ellipse fill="#DB281E" stroke="black" stroke-width="7.62" transform="matrix(-1.24584 -0.0994112 0.295761 -0.418753 14872.9 4354.44)" rx="168" ry="164"/>
    <path fill="#11D975" stroke="#2A2A29" stroke-width="7.62" d="M15074 4400c-184,59 -462,14 -665,-28 195,99 496,88 642,91 57,1 17,-50 23,-63z"/>
   </g>
   <g id="grain_187">
    <ellipse fill="#DB281E" stroke="black" stroke-width="7.62" transform="matrix(-1.25117 -0.0915358 0.27233 -0.420545 14874.1 4572.45)" rx="168" ry="164"/>
    <path fill="#11D975" stroke="#2A2A29" stroke-width="7.62" d="M15078 4617c-181,60 -462,17 -666,-24 201,97 500,85 647,87 57,1 14,-51 19,-63z"/>
   </g>
   <g id="grain_188">
    <ellipse fill="#B4AA1E" stroke="black" stroke-width="7.62" transform="matrix(-1.15199 -0.0923379 0.274717 -0.387206 14893.7 4138.24)" rx="168" ry="164"/>
    <path fill="#11D975" stroke="#2A2A29" stroke-width="7.62" d="M15080 4181c-171,55 -428,13 -615,-26 180,91 458,81 594,85 53,1 16,-47 21,-59z"/>
   </g>
   <g id="grain_189">
    <ellipse fill="#B4AA1E" stroke="black" stroke-width="7.62" transform="matrix(-1.09474 -0.09975 0.296769 -0.367965 14904.7 3930.85)" rx="168" ry="164"/>
    <path fill="#11D975" stroke="#2A2A29" stroke-width="7.62" d="M15079 3973c-168,51 -411,8 -586,-31 165,89 431,82 561,87 50,2 19,-45 25,-56z"/>
   </g>
   <g id="grain_190">
    <ellipse fill="#FFF51E" stroke="black" stroke-width="7.62" transform="matrix(-1.02178 -0.0939957 0.279649 -0.343441 14926 3733.5)" rx="168" ry="164"/>
    <path fill="#11D975" stroke="#2A2A29" stroke-width="7.62" d="M15089 3773c-157,47 -384,7 -548,-29 153,83 402,77 523,82 47,2 18,-42 24,-52z"/>
   </g>
   <g id="grain_191">
    <ellipse fill="#FFF51E" stroke="black" stroke-width="7.62" transform="matrix(-0.840027 -0.0850798 0.253123 -0.28235 14953.5 3567.88)" rx="168" ry="164"/>
    <path fill="#11D975" stroke="#2A2A29" stroke-width="7.62" d="M15086 3602c-133,38 -318,3 -451,-28 122,70 328,67 428,71 39,2 18,-34 23,-43z"/>
   </g>
  </g>
  <g id="Inflo_K" onclick="parent.replacechar('Inflo_K')" onmousemove="parent.showtooltip('Inflo_K','Epi')" onmouseout="parent.hidetooltip('Inflo_K')" cursor="pointer">
   <rect id="Backgrd_192" fill="white" x="7889" y="882" width="1920" height="4383"/>
   <g id="grain_193">
    <ellipse fill="#DB281E" stroke="black" stroke-width="7.62" transform="matrix(1.24584 -0.295761 -0.295761 -1.24584 9127.62 3772.6)" rx="168" ry="164"/>
    <path fill="#11D975" stroke="#2A2A29" stroke-width="7.62" d="M8926 3909c184,176 462,41 665,-83 -195,294 -496,261 -642,271 -57,4 -17,-150 -23,-188z"/>
   </g>
   <g id="grain_194">
    <ellipse fill="#DB281E" stroke="black" stroke-width="7.62" transform="matrix(1.25117 -0.27233 -0.27233 -1.25117 9131.96 4426.72)" rx="168" ry="164"/>
    <path fill="#11D975" stroke="#2A2A29" stroke-width="7.62" d="M8928 4559c181,179 462,50 666,-71 -201,290 -500,252 -647,259 -57,3 -14,-150 -19,-189z"/>
   </g>
   <g id="grain_195">
    <ellipse fill="#B4AA1E" stroke="black" stroke-width="7.62" transform="matrix(1.15199 -0.274717 -0.274717 -1.15199 9117.81 3140.4)" rx="168" ry="164"/>
    <path fill="#11D975" stroke="#2A2A29" stroke-width="7.62" d="M8932 3267c171,162 428,38 615,-77 -180,272 -458,242 -594,252 -53,4 -16,-139 -21,-174z"/>
   </g>
   <g id="grain_196">
    <ellipse fill="#B4AA1E" stroke="black" stroke-width="7.62" transform="matrix(1.09474 -0.296769 -0.296769 -1.09474 9106.86 2523.38)" rx="168" ry="164"/>
    <path fill="#11D975" stroke="#2A2A29" stroke-width="7.62" d="M8932 2650c168,151 411,23 586,-92 -165,265 -431,245 -561,258 -50,5 -19,-133 -25,-166z"/>
   </g>
   <g id="grain_197">
    <ellipse fill="#FFF51E" stroke="black" stroke-width="7.62" transform="matrix(1.02178 -0.279649 -0.279649 -1.02178 9088.28 1892.21)" rx="168" ry="164"/>
    <path fill="#11D975" stroke="#2A2A29" stroke-width="7.62" d="M8925 2010c157,140 384,21 548,-87 -153,248 -402,230 -523,243 -47,5 -18,-124 -24,-155z"/>
   </g>
   <g id="grain_198">
    <ellipse fill="#FFF51E" stroke="black" stroke-width="7.62" transform="matrix(0.840027 -0.253123 -0.253123 -0.840027 9049.76 1415.99)" rx="168" ry="164"/>
    <path fill="#11D975" stroke="#2A2A29" stroke-width="7.62" d="M8917 1517c133,113 318,9 451,-84 -122,209 -328,199 -428,212 -39,5 -18,-102 -23,-128z"/>
   </g>
   <line fill="none" stroke="#2A2A29" stroke-width="7.62" x1="8919" y1="1315" x2="8919" y2= "5453" />
   <g id="grain_199">
    <ellipse fill="#DB281E" stroke="black" stroke-width="7.62" transform="matrix(-1.24584 -0.295761 0.295761 -1.24584 8704.5 3696.57)" rx="168" ry="164"/>
    <path fill="#11D975" stroke="#2A2A29" stroke-width="7.62" d="M8906 3833c-184,176 -462,41 -665,-83 195,294 496,261 642,271 57,4 17,-150 23,-188z"/>
   </g>
   <g id="grain_200">
    <ellipse fill="#DB281E" stroke="black" stroke-width="7.62" transform="matrix(-1.25117 -0.27233 0.27233 -1.25117 8705.66 4345.19)" rx="168" ry="164"/>
    <path fill="#11D975" stroke="#2A2A29" stroke-width="7.62" d="M8910 4478c-181,179 -462,50 -666,-71 201,290 500,252 647,259 57,3 14,-150 19,-189z"/>
   </g>
   <g id="grain_201">
    <ellipse fill="#B4AA1E" stroke="black" stroke-width="7.62" transform="matrix(-1.15199 -0.274717 0.274717 -1.15199 8725.32 3053.36)" rx="168" ry="164"/>
    <path fill="#11D975" stroke="#2A2A29" stroke-width="7.62" d="M8912 3180c-171,162 -428,38 -615,-77 180,272 458,242 594,252 53,4 16,-139 21,-174z"/>
   </g>
   <g id="grain_202">
    <ellipse fill="#B4AA1E" stroke="black" stroke-width="7.62" transform="matrix(-1.09474 -0.296769 0.296769 -1.09474 8736.27 2436.34)" rx="168" ry="164"/>
    <path fill="#11D975" stroke="#2A2A29" stroke-width="7.62" d="M8911 2563c-168,151 -411,23 -586,-92 165,265 431,245 561,258 50,5 19,-133 25,-166z"/>
   </g>
   <g id="grain_203">
    <ellipse fill="#FFF51E" stroke="black" stroke-width="7.62" transform="matrix(-1.02178 -0.279649 0.279649 -1.02178 8757.59 1849.2)" rx="168" ry="164"/>
    <path fill="#11D975" stroke="#2A2A29" stroke-width="7.62" d="M8920 1967c-157,140 -384,21 -548,-87 153,248 402,230 523,243 47,5 18,-124 24,-155z"/>
   </g>
   <g id="grain_204">
    <ellipse fill="#FFF51E" stroke="black" stroke-width="7.62" transform="matrix(-0.840027 -0.253123 0.253123 -0.840027 8785.11 1356.47)" rx="168" ry="164"/>
    <path fill="#11D975" stroke="#2A2A29" stroke-width="7.62" d="M8917 1458c-133,113 -318,9 -451,-84 122,209 328,199 428,212 39,5 18,-102 23,-128z"/>
   </g>
  </g>
  <g id="Inflo_G" onclick="parent.replacechar('Inflo_G')" onmousemove="parent.showtooltip('Inflo_G','Grappe de fleurs sessiles')" onmouseout="parent.hidetooltip('Inflo_G')" cursor="pointer">
   <rect id="Backgrd_205" fill="white" x="2045" y="882" width="2170" height="4800"/>
   <g id="grain_206">
    <ellipse fill="#DB281E" stroke="black" stroke-width="7.62" transform="matrix(1.25117 -0.27233 -0.27233 -1.25117 3286.02 4426.72)" rx="168" ry="164"/>
    <path fill="#11D975" stroke="#2A2A29" stroke-width="7.62" d="M3082 4559c181,179 462,50 666,-71 -201,290 -500,252 -647,259 -57,3 -14,-150 -19,-189z"/>
   </g>
   <g id="grain_207">
    <ellipse fill="#B4AA1E" stroke="black" stroke-width="7.62" transform="matrix(1.15199 -0.274717 -0.274717 -1.15199 3271.87 3140.4)" rx="168" ry="164"/>
    <path fill="#11D975" stroke="#2A2A29" stroke-width="7.62" d="M3086 3267c171,162 428,38 615,-77 -180,272 -458,242 -594,252 -53,4 -16,-139 -21,-174z"/>
   </g>
   <g id="grain_208">
    <ellipse fill="#FFF51E" stroke="black" stroke-width="7.62" transform="matrix(1.02178 -0.279649 -0.279649 -1.02178 3242.34 1892.21)" rx="168" ry="164"/>
    <path fill="#11D975" stroke="#2A2A29" stroke-width="7.62" d="M3080 2010c157,140 384,21 548,-87 -153,248 -402,230 -523,243 -47,5 -18,-124 -24,-155z"/>
   </g>
   <line fill="none" stroke="#2A2A29" stroke-width="7.62" x1="3074" y1="1315" x2="3074" y2= "5453" />
   <g id="grain_209">
    <ellipse fill="#DB281E" stroke="black" stroke-width="7.62" transform="matrix(-1.24584 -0.295761 0.295761 -1.24584 2858.56 3696.57)" rx="168" ry="164"/>
    <path fill="#11D975" stroke="#2A2A29" stroke-width="7.62" d="M3060 3833c-184,176 -462,41 -665,-83 195,294 496,261 642,271 57,4 17,-150 23,-188z"/>
   </g>
   <g id="grain_210">
    <ellipse fill="#B4AA1E" stroke="black" stroke-width="7.62" transform="matrix(-1.09474 -0.296769 0.296769 -1.09474 2890.33 2436.34)" rx="168" ry="164"/>
    <path fill="#11D975" stroke="#2A2A29" stroke-width="7.62" d="M3065 2563c-168,151 -411,23 -586,-92 165,265 431,245 561,258 50,5 19,-133 25,-166z"/>
   </g>
   <g id="grain_211">
    <ellipse fill="#FFF51E" stroke="black" stroke-width="7.62" transform="matrix(-0.840027 -0.253123 0.253123 -0.840027 2939.17 1356.47)" rx="168" ry="164"/>
    <path fill="#11D975" stroke="#2A2A29" stroke-width="7.62" d="M3071 1458c-133,113 -318,9 -451,-84 122,209 328,199 428,212 39,5 18,-102 23,-128z"/>
   </g>
  </g>
 </g>
<image xlink:href="tick.gif" id="imgtick" x="-10000" y="-10000" width="1500" height="1500"/>
<rect id="recttooltip" x="-10000" y="-10000" width="5500" height="600" fill-opacity="0.85" pointer-events="none"/>
<text id="textboxid" x="-10000" y="-10000" pointer-events="none"> </text>
</a></svg>
