<?xml version="1.0" encoding="UTF-8"?>
<!DOCTYPE svg PUBLIC "-//W3C//DTD SVG 1.1//EN" "http://www.w3.org/Graphics/SVG/1.1/DTD/svg11.dtd">
<!-- Creator: CorelDRAW X5 -->
<svg xmlns="http://www.w3.org/2000/svg" xml:space="preserve" width="100%" height="100%" shape-rendering="geometricPrecision" text-rendering="geometricPrecision" image-rendering="optimizeQuality" fill-rule="evenodd" clip-rule="evenodd"
viewBox="0 0 24000 18000"
 xmlns:xlink="http://www.w3.org/1999/xlink">
<a>
 <g id="Layer_x0020_1">
  <metadata id="CorelCorpID_0Corel-Layer"/>
  <g id="Fru_grain" onclick="parent.replacechar('Fru_grain')" onmousemove="parent.showtooltip('Fru_grain','Fruit des gramin&#233;es')" onmouseout="parent.hidetooltip('Fru_grain')" cursor="pointer">
   <g id="caryopsis">
    <path fill="#B2A71C" stroke="black" stroke-width="7.62" stroke-linejoin="bevel" d="M19028 12688c371,157 572,373 702,753 184,596 176,955 -110,1121 -78,86 -182,98 -294,61 -394,-94 -592,-392 -684,-788 -104,-441 -14,-788 292,-1121l94 -25z"/>
    <path fill="none" stroke="black" stroke-width="7.62" stroke-linejoin="bevel" d="M18994 12705c420,718 431,1104 486,1772"/>
    <path fill="#D5843C" stroke="#221D1A" stroke-width="7.62" stroke-linejoin="bevel" d="M19437 14642c96,0 171,-51 171,-84 0,-37 -75,-47 -171,-47 -96,0 -174,31 -174,67 0,35 78,65 174,65z"/>
   </g>
   <g id="epi">
    <path fill="#FFF500" stroke="#2A2A29" stroke-width="7.62" d="M21458 10673c223,0 216,-379 0,-379 -209,0 -215,379 0,379z"/>
    <path fill="#FFF500" stroke="#2A2A29" stroke-width="7.62" d="M21058 11132c272,0 265,-402 0,-402 -254,0 -260,402 0,402z"/>
    <path fill="#FFF500" stroke="#2A2A29" stroke-width="7.62" d="M21517 11678c313,0 306,-429 0,-429 -294,0 -302,429 0,429z"/>
    <path fill="#DA2500" stroke="#2A2A29" stroke-width="7.62" d="M21017 12283c313,0 306,-429 0,-429 -294,0 -302,429 0,429z"/>
    <path fill="#DA2500" stroke="#2A2A29" stroke-width="7.62" d="M21571 12981c379,0 370,-492 0,-492 -354,0 -363,492 0,492z"/>
    <path fill="#DA2500" stroke="#2A2A29" stroke-width="7.62" d="M20954 13696c377,0 367,-534 0,-534 -355,0 -365,534 0,534z"/>
    <path fill="#DA2500" stroke="#2A2A29" stroke-width="7.62" d="M21595 14584c398,0 388,-510 0,-510 -372,0 -383,510 0,510z"/>
    <path fill="#009341" stroke="#2A2A29" stroke-width="7.62" d="M21306 10646c-27,42 -18,45 -24,66 0,0 75,30 128,30 12,-3 170,-21 238,-131 -54,48 -125,75 -221,78 -116,-36 -122,-39 -122,-42z"/>
    <path fill="#009341" stroke="#2A2A29" stroke-width="7.62" d="M21243 11132c24,57 15,57 18,80 0,0 -101,18 -167,12 -18,-6 -215,-57 -277,-191 57,63 140,104 265,125 152,-21 158,-24 161,-27z"/>
    <path fill="#009341" stroke="#2A2A29" stroke-width="7.62" d="M21300 11669c-27,75 -15,75 -18,104 0,0 119,27 206,18 18,-9 256,-75 334,-253 -69,83 -173,140 -322,167 -185,-27 -197,-33 -200,-36z"/>
    <path fill="#009341" stroke="#2A2A29" stroke-width="7.62" d="M21246 12271c30,69 15,69 21,98 0,0 -134,24 -224,18 -24,-6 -283,-69 -370,-241 78,80 188,134 355,158 203,-24 212,-27 218,-33z"/>
    <path fill="#009341" stroke="#2A2A29" stroke-width="7.62" d="M21303 12981c-30,69 -15,69 -18,101 0,0 143,27 244,18 24,-9 304,-69 399,-250 -83,80 -206,137 -385,164 -221,-27 -230,-30 -241,-33z"/>
    <path fill="#009341" stroke="#2A2A29" stroke-width="7.62" d="M21240 13672c36,89 18,89 21,134 0,0 -170,36 -292,24 -27,-12 -364,-89 -477,-328 98,104 244,179 459,215 262,-36 274,-39 289,-45z"/>
    <path fill="#009341" stroke="#2A2A29" stroke-width="7.62" d="M21303 14575c-36,83 -18,83 -21,122 0,0 173,33 295,24 30,-12 370,-83 486,-307 -101,98 -250,167 -465,200 -268,-33 -280,-36 -295,-39z"/>
    <path fill="#009341" stroke="#2A2A29" stroke-width="7.62" d="M21237 15452c39,81 21,81 24,122 0,0 -182,30 -310,21 -33,-12 -388,-83 -510,-301 107,95 262,164 489,197 280,-33 292,-36 307,-39z"/>
    <path fill="#DA2500" stroke="#2A2A29" stroke-width="7.62" d="M20909 15464c458,0 446,-605 0,-605 -427,0 -439,605 0,605z"/>
    <polygon fill="none" stroke="#2A2A29" stroke-width="7.62" stroke-linejoin="bevel" points="21273,10077 21276,16468 "/>
   </g>
   <g id="fleche">
    <path fill="black" stroke="#2A2A29" stroke-width="7.62" stroke-linejoin="bevel" d="M19978 12520c45,-17 207,159 202,207 -150,85 -206,128 -433,221l231 -428z"/>
    <path fill="none" stroke="#2A2A29" stroke-width="7.62" d="M20615 11989c-361,162 -285,409 -531,625"/>
   </g>
  </g>
  <g id="Fru_ake" onclick="parent.replacechar('Fru_ake')" onmousemove="parent.showtooltip('Fru_ake','Ak&#232;ne')" onmouseout="parent.hidetooltip('Fru_ake')" cursor="pointer">
   <path fill="#B2A71C" stroke="black" stroke-width="7.62" d="M14985 13066c137,29 179,4 257,5 47,1 138,-102 239,-64 337,199 34,2744 -254,3503 -218,-166 -817,-3107 -242,-3444z"/>
   <path fill="none" stroke="black" stroke-width="7.62" d="M15241 13086c-333,1001 -142,2168 -12,3412"/>
   <path fill="#DBE501" stroke="black" stroke-width="7.62" d="M15114 12912c0,0 233,-26 285,-4 28,-2 52,20 79,89 -165,-7 -157,64 -237,64 -162,11 -191,18 -256,-6 -7,-2 107,-136 130,-144z"/>
   <path fill="none" stroke="black" stroke-width="7.62" d="M15175 12973c-63,0 -107,91 -183,76"/>
   <path fill="none" stroke="black" stroke-width="7.62" d="M15176 12972c34,16 35,77 80,88"/>
   <path fill="none" stroke="black" stroke-width="7.62" d="M15176 12976c60,-45 168,2 230,-67"/>
   <path fill="none" stroke="black" stroke-width="7.62" d="M15169 12972c-10,-23 -49,-24 -55,-54"/>
  </g>
  <g id="Fru_sec" onclick="parent.replacechar('Fru_sec')" onmousemove="parent.showtooltip('Fru_sec','Fruit sec')" onmouseout="parent.hidetooltip('Fru_sec')" cursor="pointer">
    <metadata id="CorelCorpID_1">
     <odm name="Name" value="fruit sec" type="0"/>
    </metadata>
   <path fill="#AAAA1E" stroke="black" stroke-width="7.62" stroke-linejoin="bevel" d="M11798 14068c-268,115 -385,269 -384,454 1,331 154,614 35,1277 -181,1007 -1442,806 -1398,-137 21,-448 22,-478 71,-804 48,-320 63,-355 67,-589 6,-402 -142,-809 -230,-982 146,40 312,231 360,320 257,476 190,455 300,706 40,91 149,116 320,-1 388,-266 756,-274 860,-245z"/>
   <g>
    <path fill="none" stroke="black" stroke-width="7.62" d="M10349 14994c0,0 -177,730 113,1151"/>
    <path fill="none" stroke="black" stroke-width="7.62" d="M10870 15366c18,63 36,698 -54,802"/>
    <path fill="none" stroke="black" stroke-width="7.62" d="M11192 14917c0,0 100,272 100,458 0,193 -50,634 -204,789"/>
   </g>
  </g>
  <g id="Fru_mure" onclick="parent.replacechar('Fru_mure')" onmousemove="parent.showtooltip('Fru_mure','M&#251;re')" onmouseout="parent.hidetooltip('Fru_mure')" cursor="pointer">
    <metadata id="CorelCorpID_2">
     <odm name="Name" value="mure" type="0"/>
    </metadata>
   <rect fill="#E7E78D" stroke="#2A2A29" stroke-width="7.62" x="17950" y="10389" width="152" height="905"/>
   <path fill="#BDD57B" stroke="#2A2A29" stroke-width="7.62" d="M18296 10394c0,0 126,299 63,661 -63,362 -47,-504 -252,-566 -205,-63 189,-94 189,-94z"/>
   <path fill="#BDD57B" stroke="#2A2A29" stroke-width="7.62" d="M17769 10395c0,0 -126,299 -63,661 63,362 47,-382 252,-566 205,-184 -189,-135 -189,-94z"/>
   <path fill="#E51A4B" stroke="#FDFCFC" stroke-width="7.62" d="M18568 9845c0,0 -58,-103 -1,-209 57,-106 69,-124 159,-165 90,-41 130,-36 188,-28 57,8 111,74 143,119 32,45 34,67 53,133 18,66 -15,176 -48,217 -33,41 -74,99 -115,107 -41,8 -38,33 -191,-9 -152,-42 -173,-115 -188,-165z"/>
   <ellipse fill="#FEFEFE" cx="18727" cy="9703" rx="41" ry="64"/>
   <path fill="#E51A4B" stroke="#FDFCFC" stroke-width="7.62" d="M18386 10325c0,0 -58,-103 -1,-209 57,-106 69,-124 159,-165 90,-41 124,-17 183,3 59,20 91,49 123,69 32,21 30,52 34,120 11,223 -173,335 -350,318 -171,-16 -132,-87 -147,-136z"/>
   <ellipse fill="#FEFEFE" cx="18540" cy="10155" rx="41" ry="64"/>
   <path fill="#E51A4B" stroke="#FDFCFC" stroke-width="7.62" d="M16876 9477c0,0 -58,-103 -1,-209 57,-106 69,-124 159,-165 90,-41 130,-36 188,-28 57,8 111,74 143,119 32,45 34,67 53,133 18,66 -15,176 -48,217 -33,41 -74,99 -115,107 -41,8 -38,33 -191,-9 -152,-42 -173,-115 -188,-165z"/>
   <ellipse fill="#FEFEFE" cx="17005" cy="9344" rx="41" ry="64"/>
   <path fill="#E51A4B" stroke="#FDFCFC" stroke-width="7.62" d="M17083 10293c0,0 -58,-103 -1,-209 57,-106 69,-124 159,-165 90,-41 130,-36 188,-28 57,8 111,74 143,119 32,45 34,67 53,133 18,66 -15,176 -48,217 -33,41 -74,99 -115,107 -41,8 -38,33 -191,-9 -152,-42 -173,-115 -188,-165z"/>
   <ellipse fill="#FEFEFE" cx="17206" cy="10214" rx="41" ry="64"/>
   <path fill="#E51A4B" stroke="#FDFCFC" stroke-width="7.62" d="M16965 9012c0,0 -58,-103 -1,-209 57,-106 69,-124 159,-165 90,-41 130,-36 188,-28 57,8 111,74 143,119 32,45 34,67 53,133 18,66 -15,176 -48,217 -33,41 -74,99 -115,107 -41,8 -38,33 -191,-9 -152,-42 -173,-115 -188,-165z"/>
   <ellipse fill="#FEFEFE" cx="17095" cy="8880" rx="41" ry="64"/>
   <path fill="#E51A4B" stroke="#FDFCFC" stroke-width="7.62" d="M18138 8552c0,0 -58,-103 -1,-209 57,-106 69,-124 159,-165 90,-41 130,-36 188,-28 57,8 111,74 143,119 32,45 34,67 53,133 18,66 -15,176 -48,217 -33,41 -74,99 -115,107 -41,8 -38,33 -191,-9 -152,-42 -173,-115 -188,-165z"/>
   <ellipse fill="#FEFEFE" stroke="#2A2A29" stroke-width="7.62" cx="18267" cy="8419" rx="41" ry="64"/>
   <path fill="#E51A4B" stroke="#FDFCFC" stroke-width="7.62" d="M18458 8900c0,0 -58,-103 -1,-209 57,-106 69,-124 159,-165 90,-41 130,-36 188,-28 57,8 111,74 143,119 32,45 34,67 53,133 18,66 -15,176 -48,217 -33,41 -74,99 -115,107 -41,8 -38,33 -191,-9 -152,-42 -173,-115 -188,-165z"/>
   <ellipse fill="#FEFEFE" stroke="#2A2A29" stroke-width="7.62" cx="18571" cy="8802" rx="41" ry="64"/>
   <path fill="#E51A4B" stroke="#FDFCFC" stroke-width="7.62" d="M17536 8432c0,0 -58,-103 -1,-209 57,-106 69,-124 159,-165 90,-41 130,-36 188,-28 57,8 111,74 143,119 32,45 34,67 53,133 18,66 -15,176 -48,217 -33,41 -74,99 -115,107 -41,8 -38,33 -191,-9 -152,-42 -173,-115 -188,-165z"/>
   <ellipse fill="#FEFEFE" cx="17666" cy="8299" rx="41" ry="64"/>
   <path fill="#E51A4B" stroke="#FDFCFC" stroke-width="7.62" d="M17836 8471c0,0 -58,-103 -1,-209 57,-106 69,-124 159,-165 90,-41 130,-36 188,-28 57,8 111,74 143,119 32,45 34,67 53,133 18,66 -15,176 -48,217 -33,41 -74,99 -115,107 -41,8 -38,33 -191,-9 -152,-42 -173,-115 -188,-165z"/>
   <ellipse fill="#FEFEFE" cx="17966" cy="8339" rx="41" ry="64"/>
   <path fill="#E51A4B" stroke="#FDFCFC" stroke-width="7.62" d="M17148 8598c0,0 -58,-103 -1,-209 57,-106 69,-124 159,-165 90,-41 130,-36 188,-28 57,8 111,74 143,119 32,45 34,67 53,133 18,66 -15,176 -48,217 -33,41 -74,99 -115,107 -41,8 -38,33 -191,-9 -152,-42 -173,-115 -188,-165z"/>
   <ellipse fill="#FEFEFE" cx="17278" cy="8465" rx="41" ry="64"/>
   <path fill="#E51A4B" stroke="#FDFCFC" stroke-width="7.62" d="M18547 9409c0,0 -70,-146 -25,-271 45,-124 69,-87 159,-128 90,-41 155,-11 212,-3 57,8 111,74 143,119 32,45 34,67 53,133 18,66 -15,176 -48,217 -33,41 -74,99 -115,107 -41,8 -174,14 -271,-22 -97,-36 -92,-103 -108,-152z"/>
   <ellipse fill="#FEFEFE" cx="18700" cy="9270" rx="41" ry="64"/>
   <path fill="#E51A4B" stroke="#FDFCFC" stroke-width="7.62" d="M16940 9941c0,0 -36,-94 -1,-209 35,-115 69,-124 159,-165 90,-41 130,-36 188,-28 57,8 111,74 143,119 32,45 34,67 53,133 18,66 -15,176 -48,217 -33,41 -74,99 -115,107 -41,8 -38,33 -191,-9 -152,-42 -157,-85 -188,-165z"/>
   <ellipse fill="#FEFEFE" cx="17050" cy="9823" rx="41" ry="64"/>
   <path fill="#E51A4B" stroke="#FDFCFC" stroke-width="7.62" d="M18104 9884c0,0 -15,-159 -1,-265 14,-106 -42,-130 153,-171 195,-41 137,-23 194,-15 57,8 111,24 143,70 32,45 71,141 65,237 -6,97 -40,182 -73,223 -33,41 -86,56 -127,64 -41,8 29,2 -123,-40 -152,-42 -216,-54 -231,-103z"/>
   <ellipse fill="#FEFEFE" cx="18276" cy="9690" rx="41" ry="64"/>
   <path fill="#E51A4B" stroke="#FDFCFC" stroke-width="7.62" d="M17956 10407c0,0 -76,-254 -19,-360 57,-106 57,-99 146,-140 90,-41 143,1 200,9 57,8 138,68 162,100 24,33 28,87 22,170 -6,83 -31,133 -36,161 -5,29 -56,117 -96,125 -41,8 -54,11 -215,0 -161,-11 -145,-63 -164,-66z"/>
   <ellipse fill="#FEFEFE" cx="18110" cy="10172" rx="41" ry="64"/>
   <path fill="#E51A4B" stroke="#FDFCFC" stroke-width="7.62" d="M17483 10293c0,0 -58,-103 -1,-209 57,-106 69,-124 159,-165 90,-41 130,-36 188,-28 57,8 111,74 143,119 32,45 34,67 53,133 18,66 -15,176 -48,217 -33,41 -74,99 -115,107 -41,8 -38,33 -191,-9 -152,-42 -173,-115 -188,-165z"/>
   <ellipse fill="#FEFEFE" cx="17612" cy="10160" rx="41" ry="64"/>
   <path fill="#E51A4B" stroke="#FDFCFC" stroke-width="7.62" d="M17144 9894c0,0 -36,-103 -1,-209 35,-106 69,-124 159,-165 90,-41 130,-36 188,-28 57,8 111,74 143,119 32,45 34,67 53,133 18,66 -15,176 -48,217 -33,41 -74,99 -115,107 -41,8 -38,33 -191,-9 -152,-42 -173,-115 -188,-165z"/>
   <ellipse fill="#FEFEFE" cx="17274" cy="9761" rx="41" ry="64"/>
   <path fill="#E51A4B" stroke="#FDFCFC" stroke-width="7.62" d="M17356 9401c0,0 -58,-103 -1,-209 57,-106 69,-124 159,-165 90,-41 130,-36 188,-28 57,8 111,74 143,119 32,45 34,67 53,133 18,66 -15,176 -48,217 -33,41 -74,99 -115,107 -41,8 -38,33 -191,-9 -152,-42 -173,-115 -188,-165z"/>
   <ellipse fill="#FEFEFE" cx="17485" cy="9268" rx="41" ry="64"/>
   <path fill="#E51A4B" stroke="#FDFCFC" stroke-width="7.62" d="M18137 9380c0,0 -90,-190 -38,-295 53,-106 2,-99 85,-140 83,-41 219,26 271,34 53,8 103,74 132,119 29,45 32,67 48,133 17,66 -14,176 -44,217 -30,41 -68,99 -106,107 -38,8 -35,33 -176,-9 -140,-42 -159,-115 -173,-165z"/>
   <ellipse fill="#FEFEFE" cx="18274" cy="9248" rx="37" ry="64"/>
   <path fill="#E51A4B" stroke="#FDFCFC" stroke-width="7.62" d="M17716 9380c0,0 -39,-220 18,-326 57,-106 26,-50 116,-91 90,-41 155,7 212,16 57,8 93,49 125,94 32,45 28,116 34,163 6,47 22,102 -17,174 -39,72 -68,136 -109,144 -41,8 -38,33 -191,-9 -152,-42 -173,-115 -188,-165z"/>
   <ellipse fill="#FEFEFE" cx="17845" cy="9247" rx="41" ry="64"/>
   <path fill="#E51A4B" stroke="#FDFCFC" stroke-width="7.62" d="M17625 9843c0,0 -52,-126 -18,-235 34,-109 93,-122 183,-134 90,-12 134,-1 185,5 51,6 108,29 140,74 32,45 25,85 28,151 3,66 15,170 -17,211 -33,41 -80,80 -121,88 -41,8 -38,33 -191,-9 -152,-42 -174,-102 -190,-151z"/>
   <ellipse fill="#FEFEFE" stroke="#FCFAF8" stroke-width="7.62" cx="17756" cy="9697" rx="41" ry="64"/>
   <path fill="#E51A4B" stroke="#FDFCFC" stroke-width="7.62" d="M17328 8926c0,0 -58,-103 -1,-209 57,-106 69,-124 159,-165 90,-41 130,-36 188,-28 57,8 111,74 143,119 32,45 34,67 53,133 18,66 -15,176 -48,217 -33,41 -74,99 -115,107 -41,8 -38,33 -191,-9 -152,-42 -173,-115 -188,-165z"/>
   <ellipse fill="#FEFEFE" cx="17457" cy="8794" rx="41" ry="64"/>
   <path fill="#E51A4B" stroke="#FDFCFC" stroke-width="7.62" d="M18170 8889c0,0 -58,-103 -1,-209 57,-106 69,-124 159,-165 90,-41 130,-36 188,-28 57,8 111,74 143,119 32,45 34,67 53,133 18,66 -15,176 -48,217 -33,41 -74,99 -115,107 -41,8 -38,33 -191,-9 -152,-42 -173,-115 -188,-165z"/>
   <ellipse fill="#FEFEFE" cx="18299" cy="8756" rx="41" ry="64"/>
   <path fill="#E51A4B" stroke="#FDFCFC" stroke-width="7.62" d="M17728 8859c0,0 -58,-103 -1,-209 57,-106 69,-124 159,-165 90,-41 130,-36 188,-28 57,8 111,74 143,119 32,45 34,67 53,133 18,66 -15,176 -48,217 -33,41 -74,99 -115,107 -41,8 -38,33 -191,-9 -152,-42 -173,-115 -188,-165z"/>
   <ellipse fill="#FEFEFE" cx="17857" cy="8726" rx="41" ry="64"/>
  </g>
  <g id="Fru_baie" onclick="parent.replacechar('Fru_baie')" onmousemove="parent.showtooltip('Fru_baie','Baie')" onmouseout="parent.hidetooltip('Fru_baie')" cursor="pointer">
    <metadata id="CorelCorpID_3">
     <odm name="Name" value="berry" type="0"/>
    </metadata>
   <path fill="#AAAA00" fill-rule="nonzero" stroke="black" stroke-width="7.62" stroke-linejoin="bevel" d="M4042 14923c0,-714 536,-1446 1246,-1446 714,0 1273,711 1273,1425 0,714 -2519,735 -2519,21z"/>
   <path fill="#FFFA89" fill-rule="nonzero" stroke="black" stroke-width="7.62" stroke-linejoin="bevel" d="M5274 16257c-710,0 -1234,-566 -1234,-1278 0,-637 493,-1043 1247,-1043 714,0 1276,326 1276,1043 0,712 -572,1278 -1289,1278z"/>
   <path fill="#00C800" fill-rule="nonzero" stroke="black" stroke-width="7.62" stroke-linejoin="bevel" d="M5223 13071c4,171 24,619 7,717 -16,100 -51,71 -106,109 -104,71 370,67 308,0 -24,-31 -95,-18 -113,-104 -20,-89 -2,-572 -7,-741l-89 20z"/>
   <path fill="red" fill-rule="nonzero" stroke="black" stroke-width="7.62" stroke-linejoin="bevel" d="M4566 14336c162,-238 646,380 615,424 -43,71 -817,-154 -615,-424z"/>
   <path fill="red" fill-rule="nonzero" stroke="black" stroke-width="7.62" stroke-linejoin="bevel" d="M4586 15678c-195,-242 528,-521 603,-437 3,5 -409,693 -603,437z"/>
   <path fill="red" fill-rule="nonzero" stroke="black" stroke-width="7.62" stroke-linejoin="bevel" d="M4411 14984c5,-360 728,-21 728,18 -4,50 -739,339 -728,-18z"/>
   <path fill="red" fill-rule="nonzero" stroke="black" stroke-width="7.62" stroke-linejoin="bevel" d="M6013 14378c-170,-237 -647,379 -615,424 54,74 809,-157 615,-424z"/>
   <path fill="red" fill-rule="nonzero" stroke="black" stroke-width="7.62" stroke-linejoin="bevel" d="M6013 15702c209,-229 -487,-549 -581,-464 -17,23 378,700 581,464z"/>
   <path fill="red" fill-rule="nonzero" stroke="black" stroke-width="7.62" stroke-linejoin="bevel" d="M6168 15026c0,-358 -725,-21 -725,13 0,33 731,354 725,-13z"/>
  </g>
  <g id="Fru_baie_cyx" onclick="parent.replacechar('Fru_baie_cyx')" onmousemove="parent.showtooltip('Fru_baie_cyx','Baie enferm&#233;e dans le calice')" onmouseout="parent.hidetooltip('Fru_baie_cyx')" cursor="pointer">
   <path fill="#FFFA89" stroke="black" stroke-width="7.62" d="M13397 7456c-1184,118 -1144,1002 -1007,1433 382,752 650,1270 912,2396 9,38 12,-287 15,-448 7,-404 45,382 59,456 45,-235 104,-499 162,-617 469,-957 1476,-1601 1221,-2555 0,-488 -1022,-645 -1361,-665z"/>
   <ellipse fill="#AAAA00" stroke="black" stroke-width="7.62" cx="13519" cy="7934" rx="560" ry="493"/>
   <path fill="#00C800" stroke="black" stroke-width="7.62" d="M13205 7148c-1353,0 -1333,1070 -1301,1286 90,603 863,1448 1382,2720l-382 -2316c-72,-620 7,-1323 588,-1323 656,0 901,237 1261,568 -110,-622 -828,-965 -1548,-935z"/>
   <path fill="none" stroke="black" stroke-width="7.62" d="M12107 7625c257,-258 905,-331 1297,-221 -2013,824 -276,1964 -276,3212"/>
   <path fill="none" stroke="black" stroke-width="7.62" d="M13508 7394c1909,147 28,2409 -92,3381"/>
   <path fill="none" stroke="black" stroke-width="7.62" d="M13327 10712c0,-667 198,-1474 198,-2124"/>
   <path fill="#00C800" stroke="black" stroke-width="7.62" d="M13383 6732c29,-6 56,1 147,-26 38,59 -66,511 -26,695 0,7 -88,7 -88,7 -42,0 -18,-505 -33,-676z"/>
   <path fill="none" stroke="black" stroke-width="7.62" d="M13519 7394c293,-117 400,-96 651,-30"/>
  </g>
  <g id="Fru_circ" onclick="parent.replacechar('Fru_circ')" onmousemove="parent.showtooltip('Fru_circ','Capsule &#224; d&#233;hiscence horizontale')" onmouseout="parent.hidetooltip('Fru_circ')" cursor="pointer">
   <path fill="#AAAA1E" stroke="black" stroke-width="7.62" stroke-linejoin="bevel" d="M7404 9191c-382,728 513,1852 1333,1922 907,-209 1509,-1096 1211,-2011l-2544 89z"/>
   <path fill="#FFFA89" stroke="black" stroke-width="7.62" stroke-linejoin="bevel" d="M8701 9467c-700,0 -1303,-215 -1303,-315 0,-100 619,-273 1319,-273 700,0 1213,84 1213,184 0,100 -530,404 -1230,404z"/>
   <path fill="#AAAA00" stroke="black" stroke-width="7.62" stroke-linejoin="bevel" d="M7421 8700c81,-496 393,-594 692,-1121 363,14 1013,-153 1428,229l-2120 893z"/>
   <path fill="#4EB148" stroke="black" stroke-width="7.62" stroke-linejoin="bevel" d="M8729 11274c-22,-8 -8,-67 -36,-103 -89,-36 -271,-47 -343,-195 25,-64 56,100 371,67 106,-22 117,-120 248,-159 50,36 -103,112 -61,159 53,59 170,-100 201,-28 -153,134 -201,162 -237,170 -39,153 -126,103 -142,89z"/>
   <path fill="#FFFA89" stroke="black" stroke-width="7.62" stroke-linejoin="bevel" d="M8660 8653c-536,195 -1166,360 -1238,148 -70,-204 427,-602 962,-798 536,-192 1102,-391 1199,-123 98,268 -388,577 -923,773z"/>
   <path fill="#E7B78B" stroke="black" stroke-width="7.62" stroke-linejoin="bevel" d="M8470 9459c-84,-123 -39,-1010 229,-1049 276,61 371,795 293,1035 -201,56 -340,78 -522,14z"/>
   <path fill="red" stroke="black" stroke-width="7.62" stroke-linejoin="bevel" d="M9075 9283c-128,-36 -220,-120 -201,-192 22,-73 145,-95 273,-56 131,36 223,117 201,193 -19,73 -142,92 -273,56z"/>
   <path fill="red" stroke="black" stroke-width="7.62" stroke-linejoin="bevel" d="M9036 8912c-103,-28 -176,-98 -159,-159 17,-64 112,-92 215,-67 106,25 179,95 162,162 -17,61 -112,89 -218,64z"/>
   <path fill="red" stroke="black" stroke-width="7.62" stroke-linejoin="bevel" d="M8520 9470c-87,3 -206,-56 -67,-109 84,-31 170,-22 187,22 17,45 -31,84 -120,86z"/>
   <path fill="red" stroke="black" stroke-width="7.62" stroke-linejoin="bevel" d="M8473 9241c-120,87 -248,109 -296,39 -45,-70 20,-195 137,-282 120,-86 248,-112 296,-36 45,67 -20,190 -137,279z"/>
   <path fill="red" stroke="black" stroke-width="7.62" stroke-linejoin="bevel" d="M8528 8516c-139,-53 -268,-39 -296,39 -25,78 70,184 204,237 139,53 271,45 296,-42 25,-75 -67,-179 -204,-234z"/>
  </g>
  <g id="Fru_malva" onclick="parent.replacechar('Fru_malva')" onmousemove="parent.showtooltip('Fru_malva','Capsule &#224; m&#233;ricarpes')" onmouseout="parent.hidetooltip('Fru_malva')" cursor="pointer">
   <polygon fill="#AB7B2E" fill-rule="nonzero" stroke="#2C2C2B" stroke-width="7.62" points="3167,11063 3143,10432 3543,10432 3521,11063 "/>
   <path fill="#FAC177" fill-rule="nonzero" stroke="#2C2C2B" stroke-width="7.62" d="M1502 8649c76,10 139,15 163,-10 112,-15 512,-512 983,-217 -141,-356 463,-636 529,-819 68,-190 27,-54 39,-78 17,20 -5,39 49,63 54,22 185,117 405,124 -27,0 644,112 507,754 110,-90 458,-59 722,-32 156,34 217,27 278,-12 -10,37 -24,61 -24,102 24,1161 -463,1058 -451,1105 119,310 -112,544 -154,685 -15,51 -15,151 -7,207 -44,-27 -102,-46 -139,-41 -59,0 -161,17 -246,37 -105,39 -510,249 -871,-49 -295,312 -824,127 -858,134 -100,-22 -176,-17 -234,-15l-122 20c15,-90 -2,-176 -5,-180 7,-163 -337,-427 -127,-773 -100,-41 -239,-288 -244,-519 -15,-120 -46,-288 -93,-366 -49,-76 -68,-78 -100,-119z"/>
   <path fill="none" fill-rule="nonzero" d="M2089 8981c-183,-105 -344,-202 -571,-317"/>
   <path fill="none" fill-rule="nonzero" d="M5169 8434c-42,34 -81,80 -144,132 -137,98 -310,363 -385,502"/>
   <path fill="#CFB51D" fill-rule="nonzero" stroke="#2C2C2B" stroke-width="7.62" d="M3696 7852c10,332 27,707 37,1056l100 2c-27,-310 -59,-619 -81,-934 -7,-56 -20,-93 -56,-124z"/>
   <path fill="#CFB51D" fill-rule="nonzero" stroke="#2C2C2B" stroke-width="7.62" d="M3867 8569l-2 -224c49,-2 224,78 239,141l-237 83z"/>
   <path fill="#CFB51D" fill-rule="nonzero" stroke="#2C2C2B" stroke-width="7.62" d="M3496 7825l-12 1124 83 -19 -32 -956c0,-56 -10,-117 -39,-149z"/>
   <path fill="#CFB51D" fill-rule="nonzero" stroke="#2C2C2B" stroke-width="7.62" d="M4613 9310c39,-95 56,-171 -5,-297 -190,-300 -224,-334 -341,-451 -100,-66 -112,-83 -188,-80 -68,15 -132,34 -200,68l0 141 734 619z"/>
   <path fill="#CFB51D" fill-rule="nonzero" stroke="#2C2C2B" stroke-width="7.62" d="M2572 8461c83,-61 276,-85 441,-144 188,-20 288,-68 422,-56l-59 763 -363 -129 -441 -434z"/>
   <path fill="none" fill-rule="nonzero" d="M4511 8868c-15,-20 -166,-178 -227,-202"/>
   <path fill="#CFB51D" fill-rule="nonzero" stroke="#2C2C2B" stroke-width="7.62" d="M2126 9251c-51,2 -90,-83 -88,-134 27,-129 34,-102 156,-297 51,-88 117,-176 183,-256 102,-85 129,-134 266,-88 110,-5 161,-12 217,29l132 54c17,-205 37,-405 51,-612 5,-54 20,-90 54,-124 -7,295 -20,622 -32,941l32 -7 0 -2 -971 497z"/>
   <path fill="none" fill-rule="nonzero" d="M2202 8817c32,-39 56,-63 102,-102"/>
   <path fill="#CFB51D" fill-rule="nonzero" stroke="#2C2C2B" stroke-width="7.62" d="M2680 10080c-188,29 -312,-207 -344,-302 -85,-105 -173,-112 -190,-190 -20,-83 -56,-249 -42,-317 5,-46 20,-132 73,-180 88,-122 132,-176 239,-229 95,-105 195,-193 412,-198 44,-195 88,-415 124,-585 15,-83 44,-117 63,-122 -24,271 -66,527 -102,810l66 -34c7,-158 34,-393 63,-539 12,-71 20,-90 66,-115 -32,280 -39,563 -46,834l-383 1168z"/>
   <path fill="none" fill-rule="nonzero" d="M2336 9783c-20,-102 10,-217 24,-327"/>
   <path fill="none" fill-rule="nonzero" d="M2914 8764c-85,44 -163,83 -246,134"/>
   <path fill="#D8BE10" fill-rule="nonzero" stroke="#2C2C2B" stroke-width="7.62" stroke-linejoin="bevel" d="M3097 8747l12 -112 20 -678c2,-49 12,-110 42,-139 10,229 7,722 10,1083l-2 2 -80 -156z"/>
   <path fill="#CFB51D" fill-rule="nonzero" stroke="#2C2C2B" stroke-width="7.62" d="M3172 8993l29 -1017c0,-59 7,-122 39,-154l5 1192 -80 -17 7 -5z"/>
   <path fill="#CFB51D" fill-rule="nonzero" stroke="#2C2C2B" stroke-width="7.62" d="M3316 7803l15 1083 -85 -15 32 -929c2,-51 12,-110 39,-139z"/>
   <path fill="#CFB51D" fill-rule="nonzero" stroke="#2C2C2B" stroke-width="7.62" d="M3367 7803c-27,102 -17,107 -20,154l-10 1019 90 -12 -32 -1002c-2,-59 -7,-80 -29,-158z"/>
   <path fill="#CFB51D" fill-rule="nonzero" stroke="#2C2C2B" stroke-width="7.62" d="M3445 7810c-20,59 -22,88 -24,137l-10 941 88 -20 -32 -927c0,-51 -5,-85 -22,-132z"/>
   <path fill="#CFB51D" fill-rule="nonzero" stroke="#2C2C2B" stroke-width="7.62" d="M3565 7835l-12 1083 81 -15 -32 -927c0,-51 -7,-112 -37,-141z"/>
   <path fill="#CFB51D" fill-rule="nonzero" stroke="#2C2C2B" stroke-width="7.62" d="M3645 7839c-12,307 -10,724 -12,1085l83 -17 -34 -927c0,-51 -7,-110 -37,-141z"/>
   <path fill="#CFB51D" fill-rule="nonzero" stroke="#2C2C2B" stroke-width="7.62" d="M2675 10085c-237,-629 144,-1027 388,-1188 27,-193 46,-475 61,-568 10,-80 29,-66 46,-98 -12,232 15,458 7,688l7 61 73 -71c-5,-195 29,-449 49,-566 12,-120 15,-76 39,-110 22,232 2,441 24,688 7,458 22,1039 34,1339 0,10 -34,54 -68,51 -80,-2 -156,-17 -302,-112 -32,-22 -76,-59 -78,-59 -15,-17 -93,5 -120,0 -80,-7 -98,-12 -161,-56z"/>
   <path fill="none" fill-rule="nonzero" d="M3189 8981c-63,39 -78,66 -183,229"/>
   <path fill="none" fill-rule="nonzero" d="M2948 10136c-15,-51 -71,-137 -76,-237"/>
   <path fill="#CFB51D" fill-rule="nonzero" stroke="#2C2C2B" stroke-width="7.62" d="M4089 9993c81,7 302,-222 395,-398 49,2 149,-161 127,-300 -10,-71 -2,-46 -46,-137 -83,-146 -427,-393 -522,-434 -32,-10 -85,-15 -151,-27 -29,-202 -20,-456 -59,-624 -12,-78 -51,-105 -71,-107 37,263 10,544 44,829 -5,5 7,12 -2,15 -10,-161 -42,-461 -68,-610 -12,-68 -22,-90 -63,-112 24,273 29,602 29,846l388 1058z"/>
   <path fill="none" fill-rule="nonzero" d="M4484 9598c0,-173 -98,-271 -149,-356"/>
   <path fill="none" fill-rule="nonzero" d="M3804 8810c71,24 163,56 246,129"/>
   <path fill="#CFB51D" fill-rule="nonzero" stroke="#2C2C2B" stroke-width="7.62" d="M4082 10034c195,-456 5,-831 -290,-1046 -15,-12 -54,-17 -66,-24 -12,-27 -12,-27 -24,-59 -27,-193 -24,-461 -37,-556 -10,-76 -41,-100 -56,-129 -10,224 -49,458 -42,685 0,20 0,39 2,51 20,15 29,27 37,34 -27,-24 -56,-61 -85,-88 5,-195 -20,-429 -27,-549 -5,-71 -27,-76 -54,-115 -20,234 -34,439 -56,685 -32,441 -2,1046 24,1324 0,20 110,63 144,61 127,-49 198,-137 219,-161 32,-22 37,-24 37,-24 7,-15 110,-5 137,-10 78,-7 107,-49 137,-81z"/>
   <path fill="none" fill-rule="nonzero" d="M3611 8998c56,54 68,85 120,200"/>
   <path fill="none" fill-rule="nonzero" d="M3818 10122c22,-56 56,-146 61,-239"/>
   <path fill="none" fill-rule="nonzero" d="M3270 8069c-12,-102 -59,-424 -59,-549"/>
   <path fill="none" fill-rule="nonzero" d="M4543 10519c-156,-212 -293,-417 -446,-495"/>
   <path fill="none" fill-rule="nonzero" d="M2531 10046c-180,134 -102,222 -458,561"/>
  </g>
  <g id="Fru_triv" onclick="parent.replacechar('Fru_triv')" onmousemove="parent.showtooltip('Fru_triv','Capsule trivalve')" onmouseout="parent.hidetooltip('Fru_triv')" cursor="pointer">
    <metadata id="CorelCorpID_4">
     <odm name="Name" value="3_valves" type="0"/>
    </metadata>
   <path fill="#FFF59D" stroke="black" stroke-width="7.62" stroke-linejoin="bevel" d="M21892 3864c-878,222 -1287,1454 -1122,1979l1152 -641 -30 -1338z"/>
   <path fill="#FFF59D" stroke="black" stroke-width="7.62" stroke-linejoin="bevel" d="M19491 3990c894,116 1467,1276 1279,1830l-1087 -556 -193 -1274z"/>
   <path fill="#AAAA00" stroke="black" stroke-width="7.62" stroke-linejoin="bevel" d="M20740 5855c-1478,-24 -1622,-768 -1341,-1690l90 -174c310,1096 310,1346 1251,1730l0 134z"/>
   <path fill="#AAAA00" stroke="black" stroke-width="7.62" stroke-linejoin="bevel" d="M20775 5860c1467,-200 1622,-967 1232,-1847l-107 -159c-185,1161 -211,1411 -1124,2006z"/>
   <path fill="#AAAA00" stroke="black" stroke-width="7.62" stroke-linejoin="bevel" d="M20762 5873c-1363,-585 -491,-1555 -9,-1835 535,268 1393,1258 9,1835z"/>
   <polygon fill="#00C800" stroke="black" stroke-width="7.62" stroke-linejoin="bevel" points="20714,5834 20830,5834 20823,6009 20729,5996 "/>
   <path fill="red" stroke="black" stroke-width="7.62" stroke-linejoin="bevel" d="M21606 4309c-82,27 -162,13 -178,-36 -17,-51 34,-112 115,-141 83,-30 162,-16 181,37 16,49 -35,110 -118,140z"/>
   <path fill="red" stroke="black" stroke-width="7.62" stroke-linejoin="bevel" d="M21605 4703c-60,27 -122,22 -138,-14 -17,-37 18,-88 77,-116 61,-29 123,-24 141,14 16,36 -19,86 -79,116z"/>
   <path fill="red" stroke="black" stroke-width="7.62" stroke-linejoin="bevel" d="M19874 4493c-83,-23 -142,-79 -128,-128 14,-52 90,-74 173,-54 86,20 144,77 131,131 -14,50 -90,72 -176,52z"/>
   <path fill="red" stroke="black" stroke-width="7.62" stroke-linejoin="bevel" d="M19880 4863c-61,-26 -99,-75 -83,-111 16,-38 76,-47 137,-22 63,25 101,74 85,113 -16,36 -76,45 -139,20z"/>
  </g>
  <g id="Fru_biv" onclick="parent.replacechar('Fru_biv')" onmousemove="parent.showtooltip('Fru_biv','Capsule bivalve')" onmouseout="parent.hidetooltip('Fru_biv')" cursor="pointer">
    <metadata id="CorelCorpID_5">
     <odm name="Name" value="capsule_2" type="0"/>
    </metadata>
   <path fill="#FFFA89" stroke="black" stroke-width="7.62" stroke-linejoin="bevel" d="M14710 3108c454,362 1021,1887 886,2686l-786 -682 -101 -2004z"/>
   <path fill="#B2A71C" stroke="black" stroke-width="7.62" stroke-linejoin="bevel" d="M15569 5777c-1016,-32 -1111,-1104 -920,-2435l60 -240c214,1570 214,2093 858,2648l2 27z"/>
   <path fill="#FFFA89" stroke="black" stroke-width="7.62" stroke-linejoin="bevel" d="M16352 2920c-498,561 -819,2394 -742,2867l818 -870 -75 -1997z"/>
   <path fill="#AAAA00" stroke="black" stroke-width="7.62" stroke-linejoin="bevel" d="M15656 5777c1009,-293 1044,-1386 778,-2651l-77 -196c-116,1574 -107,2110 -747,2857l47 -10z"/>
   <polygon fill="#00C800" stroke="black" stroke-width="7.62" stroke-linejoin="bevel" points="15569,5759 15656,5759 15656,6009 15591,5990 "/>
   <path fill="red" stroke="black" stroke-width="7.62" stroke-linejoin="bevel" d="M15248 5061c-106,-29 -180,-100 -163,-163 17,-66 115,-95 221,-69 109,26 183,97 166,166 -17,63 -115,92 -223,66z"/>
   <path fill="red" stroke="black" stroke-width="7.62" stroke-linejoin="bevel" d="M15056 4222c-106,-29 -180,-100 -163,-163 17,-66 115,-95 221,-69 109,26 183,97 166,166 -17,63 -115,92 -223,66z"/>
   <path fill="red" stroke="black" stroke-width="7.62" stroke-linejoin="bevel" d="M15989 4721c-104,35 -206,16 -226,-46 -22,-64 43,-142 146,-179 105,-39 207,-20 230,47 20,62 -45,140 -150,178z"/>
   <path fill="red" stroke="black" stroke-width="7.62" stroke-linejoin="bevel" d="M15887 5250c-77,34 -156,28 -176,-18 -22,-47 22,-112 98,-148 77,-37 156,-31 179,18 20,46 -24,110 -101,147z"/>
   <path fill="red" stroke="black" stroke-width="7.62" stroke-linejoin="bevel" d="M16089 4184c-77,34 -156,28 -176,-18 -22,-47 22,-112 98,-148 77,-37 156,-31 179,18 20,46 -24,110 -101,147z"/>
   <path fill="red" stroke="black" stroke-width="7.62" stroke-linejoin="bevel" d="M15371 5416c-77,-33 -126,-96 -106,-142 20,-48 97,-59 175,-28 80,31 128,94 108,144 -20,46 -97,57 -177,26z"/>
   <path fill="red" stroke="black" stroke-width="7.62" stroke-linejoin="bevel" d="M15176 4628c-78,-31 -128,-93 -109,-139 19,-49 96,-62 174,-32 80,30 131,91 111,142 -19,46 -96,59 -176,30z"/>
  </g>
  <g id="Fru_1graine" onclick="parent.replacechar('Fru_1graine')" onmousemove="parent.showtooltip('Fru_1graine','Capsule &#224; 1 graine')" onmouseout="parent.hidetooltip('Fru_1graine')" cursor="pointer">
    <metadata id="CorelCorpID_6">
     <odm name="Name" value="capsule 1graine" type="0"/>
    </metadata>
   <rect fill="#4EB148" stroke="black" stroke-width="7.62" x="11096" y="5447" width="248" height="562"/>
   <g>
    <ellipse fill="#AAAA00" stroke="black" stroke-width="7.62" stroke-linejoin="bevel" cx="11230" cy="3850" rx="1272" ry="1612"/>
    <g>
     <line fill="none" stroke="black" stroke-width="7.62" x1="10399" y1="4034" x2="10410" y2= "4136" />
     <line fill="none" stroke="black" stroke-width="7.62" x1="10431" y1="4255" x2="10452" y2= "4350" />
     <line fill="none" stroke="black" stroke-width="7.62" x1="10506" y1="4497" x2="10547" y2= "4592" />
     <line fill="none" stroke="black" stroke-width="7.62" x1="10621" y1="4722" x2="10677" y2= "4804" />
     <line fill="none" stroke="black" stroke-width="7.62" x1="10777" y1="4920" x2="10852" y2= "4992" />
     <line fill="none" stroke="black" stroke-width="7.62" x1="10983" y1="5073" x2="11075" y2= "5109" />
     <path fill="none" stroke="black" stroke-width="7.62" d="M11223 5124c0,0 96,-6 108,-16"/>
     <path fill="none" stroke="black" stroke-width="7.62" d="M11473 5066c0,0 88,-47 92,-53"/>
     <line fill="none" stroke="black" stroke-width="7.62" x1="11679" y1="4927" x2="11755" y2= "4847" />
     <line fill="none" stroke="black" stroke-width="7.62" x1="11892" y1="4636" x2="11843" y2= "4728" />
     <line fill="none" stroke="black" stroke-width="7.62" x1="11983" y1="4400" x2="11951" y2= "4498" />
     <line fill="none" stroke="black" stroke-width="7.62" x1="12031" y1="4147" x2="12018" y2= "4254" />
     <line fill="none" stroke="black" stroke-width="7.62" x1="12045" y1="3894" x2="12044" y2= "3998" />
     <path fill="none" stroke="black" stroke-width="7.62" d="M12026 3639c0,0 9,86 11,98"/>
     <path fill="none" stroke="black" stroke-width="7.62" d="M11978 3394c0,0 23,77 23,91"/>
     <path fill="none" stroke="black" stroke-width="7.62" d="M11887 3153c0,0 39,80 41,98"/>
     <path fill="none" stroke="black" stroke-width="7.62" d="M11749 2934c0,0 61,77 68,102"/>
     <path fill="none" stroke="black" stroke-width="7.62" d="M11563 2768c57,32 82,61 82,61"/>
     <line fill="none" stroke="black" stroke-width="7.62" x1="11432" y1="2707" x2="11316" y2= "2677" />
     <line fill="none" stroke="black" stroke-width="7.62" x1="11164" y1="2673" x2="11060" y2= "2700" />
     <line fill="none" stroke="black" stroke-width="7.62" x1="10926" y1="2762" x2="10840" y2= "2825" />
     <line fill="none" stroke="black" stroke-width="7.62" x1="10731" y1="2934" x2="10670" y2= "3014" />
     <line fill="none" stroke="black" stroke-width="7.62" x1="10593" y1="3146" x2="10546" y2= "3239" />
     <line fill="none" stroke="black" stroke-width="7.62" x1="10491" y1="3375" x2="10462" y2= "3473" />
     <line fill="none" stroke="black" stroke-width="7.62" x1="10428" y1="3616" x2="10410" y2= "3726" />
     <line fill="none" stroke="black" stroke-width="7.62" x1="10404" y1="3817" x2="10398" y2= "3909" />
    </g>
   </g>
  </g>
  <g id="Fru_corc" onclick="parent.replacechar('Fru_corc')" onmousemove="parent.showtooltip('Fru_corc','Silique')" onmouseout="parent.hidetooltip('Fru_corc')" cursor="pointer">
   <path fill="#00C800" stroke="#040404" stroke-width="7.62" stroke-linejoin="bevel" d="M5830 5602c-31,-57 63,-584 99,-605 -10,-68 115,-474 151,-469 -5,-68 141,-480 182,-516 5,-104 172,-537 209,-526 5,-115 146,-454 193,-474 0,-73 172,-464 219,-485 -5,-78 188,-500 229,-490 -5,-57 141,-360 188,-391 10,-73 177,-391 209,-380 0,-63 125,-235 156,-235 125,42 73,-78 334,172 10,52 -89,407 -120,417 5,42 -130,417 -151,427 5,42 -151,490 -188,480 0,68 -167,480 -203,469 0,78 -235,636 -266,626 0,78 -182,521 -219,500 16,57 -203,485 -235,459 0,78 -193,495 -235,464 5,78 -141,313 -162,302 -26,167 -287,438 -328,323 -10,-47 -47,63 -68,110l-94 229 -42 -68c42,-109 167,-302 141,-339z"/>
   <path fill="none" stroke="#040404" stroke-width="7.62" stroke-linejoin="bevel" d="M7519 1484c-83,172 125,396 188,229"/>
   <path fill="none" stroke="#040404" stroke-width="7.62" stroke-linejoin="bevel" d="M5966 5169c-63,177 57,375 130,209"/>
   <path fill="none" stroke="#040404" stroke-width="7.62" stroke-linejoin="bevel" d="M6117 4758c-63,182 78,427 167,235"/>
   <path fill="none" stroke="#040404" stroke-width="7.62" stroke-linejoin="bevel" d="M6300 4231c-68,172 125,464 203,276"/>
   <path fill="none" stroke="#040404" stroke-width="7.62" stroke-linejoin="bevel" d="M6493 3751c-94,250 125,521 209,334"/>
   <path fill="none" stroke="#040404" stroke-width="7.62" stroke-linejoin="bevel" d="M6706 3256c-78,167 136,516 209,318"/>
   <path fill="none" stroke="#040404" stroke-width="7.62" stroke-linejoin="bevel" d="M6930 2730c-78,162 146,500 229,313"/>
   <path fill="none" stroke="#040404" stroke-width="7.62" stroke-linejoin="bevel" d="M7139 2261c-78,172 136,516 214,313"/>
   <path fill="none" stroke="#040404" stroke-width="7.62" stroke-linejoin="bevel" d="M7347 1823c-78,167 130,490 203,297"/>
   <path fill="none" stroke="#040404" stroke-width="7.62" stroke-linejoin="bevel" d="M7681 1218c-73,120 83,354 156,156"/>
   <path fill="none" stroke="#040404" stroke-width="7.62" stroke-linejoin="bevel" d="M7754 1703c-16,68 109,52 115,-47"/>
   <path fill="none" stroke="#040404" stroke-width="7.62" stroke-linejoin="bevel" d="M7858 1385c-21,73 109,57 115,-47"/>
   <path fill="none" stroke="#040404" stroke-width="7.62" stroke-linejoin="bevel" d="M6117 5393c-10,63 94,47 94,-47"/>
   <path fill="none" stroke="#040404" stroke-width="7.62" stroke-linejoin="bevel" d="M6263 5086c-21,78 109,52 115,-57"/>
   <path fill="none" stroke="#040404" stroke-width="7.62" stroke-linejoin="bevel" d="M6482 4648c-16,63 109,57 109,-63"/>
   <path fill="none" stroke="#040404" stroke-width="7.62" stroke-linejoin="bevel" d="M6738 4132c-21,78 99,52 104,-57"/>
   <path fill="none" stroke="#040404" stroke-width="7.62" stroke-linejoin="bevel" d="M6930 3663c-26,73 99,47 109,-63"/>
   <path fill="none" stroke="#040404" stroke-width="7.62" stroke-linejoin="bevel" d="M7201 3058c-21,73 104,57 109,-63"/>
   <path fill="none" stroke="#040404" stroke-width="7.62" stroke-linejoin="bevel" d="M7389 2605c-16,68 109,52 115,-57"/>
   <path fill="none" stroke="#040404" stroke-width="7.62" stroke-linejoin="bevel" d="M7582 2135c-16,73 104,57 104,-52"/>
   <path fill="#4EB148" stroke="#040404" stroke-width="7.62" stroke-linejoin="bevel" d="M7645 1088c-21,0 -36,162 10,125m-10 -125l0 0 0 0z"/>
   <path fill="none" stroke="#040404" stroke-width="7.62" stroke-linejoin="bevel" d="M5930 5055c-26,0 -37,167 0,130"/>
   <path fill="none" stroke="#040404" stroke-width="7.62" stroke-linejoin="bevel" d="M6081 4617c-21,0 -36,167 5,120"/>
   <path fill="none" stroke="#040404" stroke-width="7.62" stroke-linejoin="bevel" d="M6263 4101c-21,0 -37,156 5,125"/>
   <path fill="none" stroke="#040404" stroke-width="7.62" stroke-linejoin="bevel" d="M6456 3564c-21,5 -31,162 5,141"/>
   <path fill="none" stroke="#040404" stroke-width="7.62" stroke-linejoin="bevel" d="M6675 3074c-16,0 -26,167 5,130"/>
   <path fill="none" stroke="#040404" stroke-width="7.62" stroke-linejoin="bevel" d="M6889 2573c-10,-5 -37,156 5,125"/>
   <path fill="none" stroke="#040404" stroke-width="7.62" stroke-linejoin="bevel" d="M7102 2104c-26,0 -36,162 5,125"/>
   <path fill="none" stroke="#040404" stroke-width="7.62" stroke-linejoin="bevel" d="M7295 1708c-16,0 -31,156 5,120"/>
   <path fill="none" stroke="#040404" stroke-width="7.62" stroke-linejoin="bevel" d="M7499 1307c-21,5 -31,167 5,130"/>
   <line fill="none" stroke="#040404" stroke-width="7.62" stroke-linejoin="bevel" x1="7613" y1="1286" x2="7551" y2= "1390" />
   <line fill="none" stroke="#040404" stroke-width="7.62" stroke-linejoin="bevel" x1="7467" y1="1531" x2="7363" y2= "1765" />
   <line fill="none" stroke="#040404" stroke-width="7.62" stroke-linejoin="bevel" x1="7290" y1="1911" x2="7165" y2= "2172" />
   <line fill="none" stroke="#040404" stroke-width="7.62" stroke-linejoin="bevel" x1="7082" y1="2297" x2="6977" y2= "2584" />
   <line fill="none" stroke="#040404" stroke-width="7.62" stroke-linejoin="bevel" x1="6878" y1="2803" x2="6738" y2= "3188" />
   <line fill="none" stroke="#040404" stroke-width="7.62" stroke-linejoin="bevel" x1="6659" y1="3319" x2="6529" y2= "3668" />
   <line fill="none" stroke="#040404" stroke-width="7.62" stroke-linejoin="bevel" x1="6435" y1="3856" x2="6320" y2= "4137" />
   <line fill="none" stroke="#040404" stroke-width="7.62" stroke-linejoin="bevel" x1="6242" y1="4325" x2="6149" y2= "4685" />
   <line fill="none" stroke="#040404" stroke-width="7.62" stroke-linejoin="bevel" x1="7837" y1="1432" x2="7759" y2= "1661" />
   <line fill="none" stroke="#040404" stroke-width="7.62" stroke-linejoin="bevel" x1="7733" y1="1765" x2="7592" y2= "2062" />
   <line fill="none" stroke="#040404" stroke-width="7.62" stroke-linejoin="bevel" x1="7566" y1="2198" x2="7400" y2= "2526" />
   <line fill="none" stroke="#040404" stroke-width="7.62" stroke-linejoin="bevel" x1="7353" y1="2646" x2="7207" y2= "2985" />
   <line fill="none" stroke="#040404" stroke-width="7.62" stroke-linejoin="bevel" x1="7160" y1="3095" x2="6946" y2= "3564" />
   <line fill="none" stroke="#040404" stroke-width="7.62" stroke-linejoin="bevel" x1="6889" y1="3705" x2="6753" y2= "4080" />
   <line fill="none" stroke="#040404" stroke-width="7.62" stroke-linejoin="bevel" x1="6680" y1="4174" x2="6545" y2= "4497" />
   <line fill="none" stroke="#040404" stroke-width="7.62" stroke-linejoin="bevel" x1="6498" y1="4585" x2="6310" y2= "4987" />
   <line fill="none" stroke="#040404" stroke-width="7.62" stroke-linejoin="bevel" x1="6086" y1="4857" x2="5982" y2= "5138" />
   <line fill="none" stroke="#040404" stroke-width="7.62" stroke-linejoin="bevel" x1="5935" y1="5258" x2="5883" y2= "5534" />
   <line fill="none" stroke="#040404" stroke-width="7.62" stroke-linejoin="bevel" x1="6253" y1="5102" x2="6133" y2= "5373" />
   <line fill="none" stroke="#040404" stroke-width="7.62" stroke-linejoin="bevel" x1="6081" y1="5477" x2="5945" y2= "5576" />
   <line fill="none" stroke="#040404" stroke-width="7.62" stroke-linejoin="bevel" x1="7905" y1="1218" x2="7879" y2= "1322" />
   <line fill="none" stroke="#040404" stroke-width="7.62" stroke-linejoin="bevel" x1="7775" y1="1124" x2="7702" y2= "1171" />
   <path fill="#4EB148" stroke="#040404" stroke-width="7.62" stroke-linejoin="bevel" d="M7645 1030c10,-94 68,-209 57,-344 136,146 42,266 94,308 73,47 83,47 141,73 78,21 146,-162 328,-167 -110,115 -219,308 -271,308 -47,-47 -224,-156 -349,-177z"/>
   <path fill="#4EB148" stroke="#040404" stroke-width="7.62" stroke-linejoin="bevel" d="M7853 1025c31,-21 120,-130 255,-156 -83,78 -136,182 -151,182 -42,0 -141,-10 -104,-26z"/>
  </g>
  <g id="Fru_pod" onclick="parent.replacechar('Fru_pod')" onmousemove="parent.showtooltip('Fru_pod','Gousse')" onmouseout="parent.hidetooltip('Fru_pod')" cursor="pointer">
   <g>
    <path id="gousse_ext" fill="#00C800" d="M1445 5022c168,-1712 1172,-3046 2098,-4521 -130,660 274,594 181,936 -408,1513 -1596,2540 -2082,4103 -91,10 -163,-27 -275,-10 53,-150 72,-329 78,-508z"/>
    <path id="gousse_ext1" fill="none" fill-rule="nonzero" stroke="black" stroke-width="7.62" d="M1445 5022c168,-1712 1172,-3046 2098,-4521 -130,660 274,594 181,936 -408,1513 -1596,2540 -2082,4103 -91,10 -163,-27 -275,-10 53,-150 72,-329 78,-508z"/>
   </g>
   <path id="gousse_int" fill="none" stroke="black" stroke-width="5.64" d="M1504 4939c159,-1617 1126,-2905 2000,-4298 -123,532 268,451 180,775 -386,1429 -1626,2610 -2086,4086 -86,9 -81,-26 -186,-9 50,-142 87,-384 92,-553z"/>
   <line id="gousse_traiIII" fill="none" stroke="black" stroke-width="4.89" x1="1748" y1="4027" x2="2112" y2= "4166" />
   <line id="gousse_traitII" fill="none" stroke="black" stroke-width="5.64" x1="1680" y1="4323" x2="1973" y2= "4409" />
   <line id="gousse_trait" fill="none" stroke="black" stroke-width="5.64" x1="1633" y1="4618" x2="1865" y2= "4680" />
   <path id="gousse_sepales" fill="#FFAA00" stroke="black" stroke-width="7.62" d="M1254 5970c0,-60 73,-94 85,-165 24,-137 -7,-321 -18,-454 -82,-232 -260,-467 -87,-590 5,184 155,237 155,489 0,14 170,-400 300,-460 -22,187 -58,251 -10,459 45,191 138,-198 372,-310 14,-7 0,359 -309,460 -17,87 -106,303 -259,429 -57,92 44,180 11,180 -19,0 -97,-48 -116,-68 -48,-48 -97,39 -126,29z"/>
  </g>
 </g>
<image xlink:href="tick.gif" id="imgtick" x="-10000" y="-10000" width="1500" height="1500"/>
<rect id="recttooltip" x="-10000" y="-10000" width="5500" height="600" fill-opacity="0.85" pointer-events="none"/>
<text id="textboxid" x="-10000" y="-10000" pointer-events="none"> </text>
</a></svg>
