<?xml version="1.0" encoding="UTF-8"?>
<!DOCTYPE svg PUBLIC "-//W3C//DTD SVG 1.1//EN" "http://www.w3.org/Graphics/SVG/1.1/DTD/svg11.dtd">
<!-- Creator: CorelDRAW X5 -->
<svg xmlns="http://www.w3.org/2000/svg" xml:space="preserve" width="100%" height="100%" shape-rendering="geometricPrecision" text-rendering="geometricPrecision" image-rendering="optimizeQuality" fill-rule="evenodd" clip-rule="evenodd"
viewBox="0 0 24000 18000"
 xmlns:xlink="http://www.w3.org/1999/xlink">
<a>
 <g id="Plan_x0020_1">
  <metadata id="CorelCorpID_0Corel-Layer"/>
  <g id="F_larges" onclick="parent.replacechar('F_larges')" onmousemove="parent.showtooltip('F_larges','Feuilles larges')" onmouseout="parent.hidetooltip('F_larges')" cursor="pointer">
   <polygon fill="#A69E00" stroke="black" stroke-width="7.62" points="3305,7829 3469,7691 4593,8281 4434,8394 "/>
   <path fill="lime" stroke="black" stroke-width="7.62" d="M4005 7993l-159 -15 -10 -796c-92,-326 -2406,-762 -2444,-2670 -39,-1908 2321,-2958 2588,-3636 267,657 2691,1736 2629,3533 -62,1797 -1746,2018 -2609,2778 -5,616 5,806 5,806z"/>
   <g>
    <line fill="none" stroke="black" stroke-width="7.62" x1="3959" y1="958" x2="3959" y2= "7018" />
    <path fill="none" stroke="black" stroke-width="7.62" d="M5109 2232c0,0 -419,930 -1150,1053"/>
    <path fill="none" stroke="black" stroke-width="7.62" d="M2213 3197c0,0 581,1175 1746,1487"/>
    <path fill="none" stroke="black" stroke-width="7.62" d="M6239 4265c0,0 -935,1567 -2259,1823"/>
   </g>
  </g>
  <g id="F_moyennes" onclick="parent.replacechar('F_moyennes')" onmousemove="parent.showtooltip('F_moyennes','Feuilles de largeur moyenne')" onmouseout="parent.hidetooltip('F_moyennes')" cursor="pointer">
    <metadata id="CorelCorpID_1">
     <odm name="Name" value="F_moyenes" type="0"/>
    </metadata>
   <polygon fill="#A69E00" stroke="black" stroke-width="7.62" points="11357,7829 11521,7691 12645,8281 12486,8394 "/>
   <g>
    <path fill="lime" stroke="black" stroke-width="7.62" d="M12016 7977l-130 0 0 -780c-353,-528 -1080,-471 -1267,-2265 -187,-1795 666,-2704 828,-3013 162,-309 491,-751 536,-991 65,227 414,804 585,1039 171,235 763,1015 828,2030 65,1015 -195,2058 -568,2468 -374,410 -538,461 -798,729 0,179 -14,782 -14,782z"/>
    <g>
     <line fill="none" stroke="black" stroke-width="7.62" x1="11968" y1="1124" x2="11968" y2= "7019" />
     <path fill="none" stroke="black" stroke-width="7.62" d="M12528 2326c0,0 -138,820 -556,962"/>
     <path fill="none" stroke="black" stroke-width="7.62" d="M11066 3170c0,0 231,1210 901,1567"/>
     <path fill="none" stroke="black" stroke-width="7.62" d="M13141 4376c0,0 -292,1173 -1169,1746"/>
    </g>
   </g>
  </g>
  <g id="F_etroites" onclick="parent.replacechar('F_etroites')" onmousemove="parent.showtooltip('F_etroites','Feuilles &#233;troites')" onmouseout="parent.hidetooltip('F_etroites')" cursor="pointer">
    <metadata id="CorelCorpID_2">
     <odm name="Name" value="F_etroites" type="0"/>
    </metadata>
   <polygon fill="#A69E00" stroke="black" stroke-width="7.62" points="19328,7829 19492,7691 20616,8281 20457,8394 "/>
   <g>
    <path fill="lime" stroke="black" stroke-width="7.62" d="M20062 8047l-127 0 -7 -934c-364,-486 -697,-1056 -632,-2582 37,-862 292,-2505 708,-3419 280,642 678,2532 704,3351 49,1550 -300,2311 -639,2653 0,179 -7,932 -7,932z"/>
    <g>
     <line fill="none" stroke="black" stroke-width="7.62" x1="19996" y1="1307" x2="20003" y2= "7096" />
     <path fill="none" stroke="black" stroke-width="7.62" d="M20272 2509c0,0 -68,820 -274,962"/>
     <path fill="none" stroke="black" stroke-width="7.62" d="M19551 3353c0,0 114,1210 445,1567"/>
     <path fill="none" stroke="black" stroke-width="7.62" d="M20574 4559c0,0 -144,1173 -577,1746"/>
    </g>
   </g>
  </g>
  <g id="F_tres_etroites" onclick="parent.replacechar('F_tres_etroites')" onmousemove="parent.showtooltip('F_tres_etroites','Feuilles tr&#232;s &#233;troites')" onmouseout="parent.hidetooltip('F_tres_etroites')" cursor="pointer">
    <metadata id="CorelCorpID_3">
     <odm name="Name" value="F_tres etroite" type="0"/>
    </metadata>
   <polygon fill="#A69E00" stroke="black" stroke-width="7.62" points="3356,16560 3520,16421 4644,17011 4485,17124 "/>
   <g>
    <path fill="lime" stroke="black" stroke-width="7.62" d="M4070 16747l-45 0 -3 -956c-129,-497 -247,-1081 -224,-2643 13,-882 103,-2564 251,-3499 99,657 240,2592 249,3430 17,1587 -106,2366 -226,2715 0,183 -2,954 -2,954z"/>
    <g>
     <line fill="none" stroke="black" stroke-width="7.62" x1="4047" y1="9848" x2="4049" y2= "15773" />
     <path fill="none" stroke="black" stroke-width="7.62" d="M4145 11078c0,0 -24,839 -97,985"/>
     <path fill="none" stroke="black" stroke-width="7.62" d="M3889 11942c0,0 40,1238 158,1604"/>
     <path fill="none" stroke="black" stroke-width="7.62" d="M4252 13176c0,0 -51,1201 -204,1787"/>
    </g>
   </g>
  </g>
  <g id="F_pliee" onclick="parent.replacechar('F_pliee')" onmousemove="parent.showtooltip('F_pliee','Pr&#233;foliaison pli&#233;e')" onmouseout="parent.hidetooltip('F_pliee')" cursor="pointer">
    <metadata id="CorelCorpID_4">
     <odm name="Name" value="F_pliée" type="0"/>
    </metadata>
   <g>
    <path fill="#8ADA00" stroke="black" stroke-width="7.62" d="M11180 17115c-327,-3 -371,222 -371,-1768 0,-1990 231,-4968 372,-5439 142,462 370,3450 370,5439 0,1990 -44,1771 -371,1768z"/>
    <line fill="none" stroke="black" stroke-width="7.62" x1="11181" y1="17116" x2="11181" y2= "9907" />
   </g>
   <g>
    <rect fill="none" stroke="black" stroke-width="7.62" x="12580" y="15051" width="19" height="47"/>
    <polygon fill="#8ADA00" stroke="black" stroke-width="7.62" points="12001,12045 13191,11788 13191,15177 12006,15448 "/>
    <polygon fill="#8ADA00" stroke="black" stroke-width="7.62" points="11923,12017 12777,11625 12777,11877 11961,12073 "/>
    <path fill="#4B8800" stroke="black" stroke-width="7.62" d="M11894 12028l5 3415c0,27 54,36 72,35 19,-1 51,-35 51,-35l0 -3394 -44 -54 -84 33z"/>
   </g>
  </g>
  <g id="F_enroulee" onclick="parent.replacechar('F_enroulee')" onmousemove="parent.showtooltip('F_enroulee','Pr&#233;foliaison enroul&#233;e')" onmouseout="parent.hidetooltip('F_enroulee')" cursor="pointer">
    <metadata id="CorelCorpID_5">
     <odm name="Name" value="F_enroulée" type="0"/>
    </metadata>
   <g>
    <path fill="#8ADA00" stroke="black" stroke-width="7.62" d="M19140 17115c-327,-3 -371,222 -371,-1768 0,-1990 231,-4968 372,-5439 142,462 370,3450 370,5439 0,1990 -44,1771 -371,1768z"/>
    <line fill="none" stroke="black" stroke-width="7.62" x1="19142" y1="17116" x2="19142" y2= "9907" />
   </g>
   <path fill="#8ADA00" stroke="black" stroke-width="7.62" d="M20043 11886c197,-227 921,-287 1177,-63 12,659 16,2587 4,3043 -198,288 -423,429 -901,479 0,-66 -1,-79 -4,-157 -188,-10 -195,-56 -247,-125 -12,-1050 -78,-2130 -28,-3177z"/>
   <g>
    <g>
     <line fill="none" stroke="black" stroke-width="7.62" x1="20950" y1="11877" x2="20952" y2= "12198" />
     <g>
      <path fill="none" stroke="black" stroke-width="7.62" d="M20045 11894c99,166 178,185 361,181 226,-5 394,-19 543,-199 -82,-174 -451,-102 -599,-13 -13,54 -10,213 -10,213"/>
      <path fill="none" stroke="black" stroke-width="7.62" d="M21220 11826c21,324 -467,497 -879,561 -18,187 -26,2958 -23,2798"/>
     </g>
    </g>
    <path fill="#4B8800" stroke="black" stroke-width="7.62" d="M19956 11949l-3 3110c0,26 49,26 74,25 25,-1 43,-21 43,-25l12 -3109 -19 -85c-19,15 -67,5 -100,48l-8 35z"/>
   </g>
  </g>
 </g>
<image xlink:href="tick.gif" id="imgtick" x="-10000" y="-10000" width="1500" height="1500"/>
<rect id="recttooltip" x="-10000" y="-10000" width="5500" height="600" fill-opacity="0.85" pointer-events="none"/>
<text id="textboxid" x="-10000" y="-10000" pointer-events="none"> </text>
</a></svg>
