<?xml version="1.0" encoding="UTF-8"?>
<!DOCTYPE svg PUBLIC "-//W3C//DTD SVG 1.1//EN" "http://www.w3.org/Graphics/SVG/1.1/DTD/svg11.dtd">
<!-- Creator: CorelDRAW X5 -->
<svg xmlns="http://www.w3.org/2000/svg" xml:space="preserve" width="100%" height="100%" shape-rendering="geometricPrecision" text-rendering="geometricPrecision" image-rendering="optimizeQuality" fill-rule="evenodd" clip-rule="evenodd"
viewBox="0 0 24000 18000"
 xmlns:xlink="http://www.w3.org/1999/xlink">
<a>
 <g id="Layer_x0020_1">
  <metadata id="CorelCorpID_0Corel-Layer"/>
  <g id="Coty_ellip" onclick="parent.replacechar('Coty_ellip')" onmousemove="parent.showtooltip('Coty_ellip','Elliptique r&#233;duit')" onmouseout="parent.hidetooltip('Coty_ellip')" cursor="pointer">
    <metadata id="CorelCorpID_1">
     <odm name="Name" value="Elliptique réduit" type="0"/>
    </metadata>
   <path fill="#99FF00" stroke="black" stroke-width="7.62" d="M2984 5277c-5,-88 -15,-287 -46,-341 -291,-360 -522,-536 -518,-875 6,-643 263,-1207 608,-1188 345,19 563,538 553,1200 -6,398 -354,598 -451,858 -37,144 -34,286 -36,347 -43,-1 -19,-1 -109,-2z"/>
   <line fill="none" stroke="black" stroke-width="7.62" x1="3023" y1="3039" x2="3023" y2= "4947" />
  </g>
  <g id="Coty_corde" onclick="parent.replacechar('Coty_corde')" onmousemove="parent.showtooltip('Coty_corde','Cotyl&#233;dons cord&#233;s')" onmouseout="parent.hidetooltip('Coty_corde')" cursor="pointer">
    <metadata id="CorelCorpID_2">
     <odm name="Name" value="Cordé" type="0"/>
    </metadata>
   <path fill="#99FF00" stroke="black" stroke-width="7.62" d="M9138 3024l0 2255 -227 0 -17 -2247c-1,-95 -61,-240 -132,-161 -71,80 -65,120 -197,200 -132,80 -509,88 -745,-117 -236,-206 -359,-803 -177,-1328 182,-525 902,-896 1399,-880 497,16 1156,357 1325,954 170,597 44,1028 -234,1267 -278,239 -669,123 -736,57 -67,-66 -99,-168 -181,-173 -82,-6 -78,174 -78,174z"/>
   <line fill="none" stroke="black" stroke-width="7.62" x1="9017" y1="1021" x2="9017" y2= "2921" />
   <path fill="none" stroke="black" stroke-width="7.62" d="M9016 2777c150,-332 853,325 1005,-651"/>
   <path fill="none" stroke="black" stroke-width="7.62" d="M9019 2791c-49,-284 -1052,230 -1140,-555"/>
  </g>
  <g id="Coty_orbic" onclick="parent.replacechar('Coty_orbic')" onmousemove="parent.showtooltip('Coty_orbic','Cotyl&#233;dons orbiculaires')" onmouseout="parent.hidetooltip('Coty_orbic')" cursor="pointer">
    <metadata id="CorelCorpID_3">
     <odm name="Name" value="0rbiculaire" type="0"/>
    </metadata>
   <path fill="#99FF00" stroke="black" stroke-width="7.62" d="M15128 5279l-239 0 -16 -1437c0,0 -1261,-838 -1261,-1636 0,-798 886,-1477 1373,-1485 487,-8 1429,830 1405,1477 -24,647 -998,1501 -1261,1644 8,192 0,1437 0,1437z"/>
   <line fill="none" stroke="black" stroke-width="7.62" x1="15008" y1="873" x2="15008" y2= "3834" />
  </g>
  <g id="Coty_sagitte" onclick="parent.replacechar('Coty_sagitte')" onmousemove="parent.showtooltip('Coty_sagitte','Cotyl&#233;dons sagitt&#233;s')" onmouseout="parent.hidetooltip('Coty_sagitte')" cursor="pointer">
    <metadata id="CorelCorpID_4">
     <odm name="Name" value="Sagité" type="0"/>
    </metadata>
   <path fill="#99FF00" stroke="black" stroke-width="7.62" d="M21101 5279l-216 0 0 -1146c0,-130 -426,-23 -663,-70 -327,-65 -328,-228 -281,-613 90,-737 678,-2677 1015,-2723 259,-35 991,2022 1075,2582 36,238 195,733 -312,794 -158,19 -635,-146 -613,30 -1,175 9,925 -5,1146z"/>
   <line fill="none" stroke="black" stroke-width="7.62" x1="20985" y1="1058" x2="20985" y2= "3983" />
  </g>
  <g id="Coty_lineaire" onclick="parent.replacechar('Coty_lineaire')" onmousemove="parent.showtooltip('Coty_lineaire','Cotyl&#233;dons lin&#233;aires')" onmouseout="parent.hidetooltip('Coty_lineaire')" cursor="pointer">
    <metadata id="CorelCorpID_5">
     <odm name="Name" value="Linéaire" type="0"/>
    </metadata>
   <path fill="#99FF00" stroke="black" stroke-width="7.62" d="M3068 10364l0 889 -113 0 0 -879c-174,-99 -346,-699 -329,-1790 19,-1184 194,-1818 355,-1837 157,27 378,686 392,1837 12,1012 -141,1650 -305,1780z"/>
   <line fill="none" stroke="black" stroke-width="7.62" x1="3005" y1="7024" x2="3005" y2= "10332" />
  </g>
  <g id="Coty_oblong" onclick="parent.replacechar('Coty_oblong')" onmousemove="parent.showtooltip('Coty_oblong','Cotyl&#233;dons oblongs')" onmouseout="parent.hidetooltip('Coty_oblong')" cursor="pointer">
    <metadata id="CorelCorpID_6">
     <odm name="Name" value="Oblong" type="0"/>
    </metadata>
   <path fill="#99FF00" stroke="black" stroke-width="7.62" d="M9106 11253l-149 -7 -7 -720c-1,-93 -541,-347 -544,-1585 -1,-314 -82,-2216 604,-2192 611,21 599,1649 585,2200 -18,708 -28,902 -488,1574 8,142 0,731 0,731z"/>
   <line fill="none" stroke="black" stroke-width="7.62" x1="9026" y1="6902" x2="9026" y2= "10422" />
  </g>
  <g id="Coty_emargine" onclick="parent.replacechar('Coty_emargine')" onmousemove="parent.showtooltip('Coty_emargine','Cotyl&#233;dons &#233;margin&#233;s')" onmouseout="parent.hidetooltip('Coty_emargine')" cursor="pointer">
    <metadata id="CorelCorpID_7">
     <odm name="Name" value="Emarginé" type="0"/>
    </metadata>
   <path fill="#99FF00" stroke="black" stroke-width="7.62" d="M15149 11253l-279 0c0,0 36,-350 -36,-636 -71,-286 -764,-1086 -729,-2201 35,-1115 152,-1168 183,-1258 31,-91 168,-332 336,-346 168,-14 284,92 381,97 97,5 295,-233 542,15 247,248 405,1147 330,1850 -112,1051 -556,1175 -679,1836 -71,386 -50,643 -50,643z"/>
   <line fill="none" stroke="black" stroke-width="7.62" x1="15017" y1="7064" x2="15017" y2= "10655" />
  </g>
  <g id="Coty_tronque" onclick="parent.replacechar('Coty_tronque')" onmousemove="parent.showtooltip('Coty_tronque','Cotyl&#233;dons tronqu&#233;s')" onmouseout="parent.hidetooltip('Coty_tronque')" cursor="pointer">
    <metadata id="CorelCorpID_8">
     <odm name="Name" value="Tronqué" type="0"/>
    </metadata>
   <path fill="#99FF00" stroke="black" stroke-width="7.62" d="M21088 10521c30,-409 893,-1056 1046,-1672 148,-595 114,-1156 -348,-1743 -160,-204 -248,-298 -800,-315 -495,-16 -645,73 -859,327 -500,596 -313,1620 -273,1722 216,557 900,1152 1010,1672 32,152 35,737 35,737l180 4c7,-469 -1,-11 10,-732z"/>
   <line fill="none" stroke="black" stroke-width="7.62" x1="20969" y1="6942" x2="20969" y2= "10356" />
  </g>
  <g id="Coty_reniforme" onclick="parent.replacechar('Coty_reniforme')" onmousemove="parent.showtooltip('Coty_reniforme','Cotyl&#233;dons reniformes')" onmouseout="parent.hidetooltip('Coty_reniforme')" cursor="pointer">
    <metadata id="CorelCorpID_9">
     <odm name="Name" value="Reniforme" type="0"/>
    </metadata>
   <path fill="#99FF00" stroke="black" stroke-width="7.62" d="M3049 17217l-113 -5c0,0 8,-346 -113,-380 -121,-34 -682,-226 -714,-635 -31,-409 126,-672 231,-913 105,-241 168,-703 -10,-1417 -178,-714 52,-881 283,-1028 231,-147 818,42 1070,756 252,714 220,1228 189,1721 -31,493 -302,1165 -546,1354 -244,189 -265,197 -275,302 -10,105 -3,246 -3,246z"/>
   <path fill="none" stroke="black" stroke-width="7.62" d="M2992 16836c94,-346 776,-2613 -168,-3798"/>
  </g>
  <g id="Coty_bilobe" onclick="parent.replacechar('Coty_bilobe')" onmousemove="parent.showtooltip('Coty_bilobe','Cotyl&#233;dons bilob&#233;s')" onmouseout="parent.hidetooltip('Coty_bilobe')" cursor="pointer">
    <metadata id="CorelCorpID_10">
     <odm name="Name" value="Bilobé" type="0"/>
    </metadata>
   <path fill="#99FF00" stroke="black" stroke-width="7.62" d="M9105 17217c-49,-6 -76,-1 -143,-4 -3,-166 25,-571 -61,-817 -54,-154 -486,245 -698,-206 -291,-616 -1030,-2756 -770,-3204 413,-709 1028,1386 1593,1412 501,23 1224,-2182 1558,-1412 214,494 -562,2964 -771,3245 -249,334 -527,48 -634,138 -79,66 -64,697 -74,848z"/>
   <g>
    <polyline fill="none" stroke="black" stroke-width="7.62" points="9027,16360 9027,16288 9027,14400 "/>
    <path fill="none" stroke="black" stroke-width="7.62" d="M9024 16234c-546,179 -1119,-1047 -1316,-1781"/>
    <path fill="none" stroke="black" stroke-width="7.62" d="M9002 16234c546,179 1119,-1047 1316,-1781"/>
    <path fill="none" stroke="black" stroke-width="7.62" d="M9025 14906c0,0 -754,-421 -819,-1006"/>
    <path fill="none" stroke="black" stroke-width="7.62" d="M9030 14905c0,0 754,-421 819,-1006"/>
   </g>
  </g>
  <g id="Coty_bilobeBis" onclick="parent.replacechar('Coty_bilobeBis')" onmousemove="parent.showtooltip('Coty_bilobeBis','Cotyl&#233;dons profondement bilob&#233;s')" onmouseout="parent.hidetooltip('Coty_bilobeBis')" cursor="pointer">
    <metadata id="CorelCorpID_11">
     <odm name="Name" value="Profondement bilobé" type="0"/>
    </metadata>
   <path fill="#99FF00" stroke="black" stroke-width="7.62" d="M15129 16480l-9 737 -132 -3 -9 -738c-324,-39 -567,-116 -705,-341 0,0 -950,-981 -982,-2501 -32,-1520 525,-534 658,-275 134,259 658,1315 858,1542 200,227 447,105 687,-241 240,-346 227,-592 655,-1328 428,-737 477,-559 517,-298 213,1400 -390,2529 -823,3061 -51,62 -205,308 -714,387z"/>
   <g>
    <polyline fill="none" stroke="black" stroke-width="7.62" points="15044,16480 15044,16425 15044,15015 "/>
    <path fill="none" stroke="black" stroke-width="7.62" d="M15041 16353c-555,182 -1137,-1064 -1337,-1810"/>
    <path fill="none" stroke="black" stroke-width="7.62" d="M15018 16353c555,182 1137,-1064 1337,-1810"/>
   </g>
  </g>
  <g id="Coty_asym" onclick="parent.replacechar('Coty_asym')" onmousemove="parent.showtooltip('Coty_asym','Cotyl&#233;dons asym&#233;triques')" onmouseout="parent.hidetooltip('Coty_asym')" cursor="pointer">
    <metadata id="CorelCorpID_12">
     <odm name="Name" value="Asymétriques" type="0"/>
    </metadata>
   <g>
    <path fill="#99FF00" stroke="black" stroke-width="7.62" d="M20187 17204l-152 13 -63 -1649c0,0 -38,-507 -304,-634 -266,-127 -292,-114 -672,-457 -381,-342 -25,-1459 507,-1611 431,-114 660,-114 1040,25 393,228 888,1154 545,1560 -342,406 -565,362 -761,571 -232,247 -91,870 -140,2182z"/>
    <line fill="none" stroke="black" stroke-width="7.62" x1="20035" y1="15022" x2="20035" y2= "12866" />
   </g>
   <g>
    <path fill="#99FF00" stroke="black" stroke-width="7.62" d="M22555 17211l-114 6 -18 -660c0,0 -78,-434 -235,-699 -157,-265 -410,-593 -440,-889 -30,-295 169,-542 410,-771 241,-229 422,-217 603,-12 181,205 410,404 404,753 -6,350 -307,639 -416,922 -109,283 -145,551 -169,684 -24,133 -24,666 -24,666z"/>
    <line fill="none" stroke="black" stroke-width="7.62" x1="22493" y1="16546" x2="22493" y2= "14063" />
   </g>
  </g>
 </g>
<image xlink:href="tick.gif" id="imgtick" x="-10000" y="-10000" width="1500" height="1500"/>
<rect id="recttooltip" x="-10000" y="-10000" width="5500" height="600" fill-opacity="0.85" pointer-events="none"/>
<text id="textboxid" x="-10000" y="-10000" pointer-events="none"> </text>
</a></svg>
