<?xml version="1.0" encoding="UTF-8"?>
<!DOCTYPE svg PUBLIC "-//W3C//DTD SVG 1.1//EN" "http://www.w3.org/Graphics/SVG/1.1/DTD/svg11.dtd">
<!-- Creator: CorelDRAW X5 -->
<svg xmlns="http://www.w3.org/2000/svg" xml:space="preserve" width="100%" height="100%" shape-rendering="geometricPrecision" text-rendering="geometricPrecision" image-rendering="optimizeQuality" fill-rule="evenodd" clip-rule="evenodd"
viewBox="0 0 24000 18000"
 xmlns:xlink="http://www.w3.org/1999/xlink">
<a>
 <g id="Layer_x0020_1">
  <metadata id="CorelCorpID_0Corel-Layer"/>
  <g id="base_attenuate" onclick="parent.replacechar('base_attenuate')" onmousemove="parent.showtooltip('base_attenuate','Base att&#233;nu&#233;e')" onmouseout="parent.hidetooltip('base_attenuate')" cursor="pointer">
    <metadata id="CorelCorpID_1">
     <odm name="Name" value="attenuate" type="0"/>
    </metadata>
   <path fill="#E5E5E5" stroke="black" stroke-width="7.62" stroke-linejoin="bevel" d="M2136 4184c11,49 22,100 33,153 58,272 106,922 82,1290l593 0c-18,-249 109,-993 167,-1345 6,-38 13,-75 19,-111l-894 13z"/>
   <path fill="#78B43C" stroke="black" stroke-width="7.62" stroke-linejoin="bevel" d="M3029 4172c196,-1118 459,-1318 1472,-2683 11,9 -3956,-2 -3956,2 1318,1619 1262,1173 1590,2693l894 -13z"/>
   <polygon fill="none" stroke="black" stroke-width="7.62" stroke-linejoin="bevel" points="2508,1621 2508,4095 "/>
   <path fill="none" stroke="black" stroke-width="7.62" stroke-linejoin="bevel" d="M3708 1621c-192,752 -721,1382 -1158,1856"/>
   <path fill="none" stroke="black" stroke-width="7.62" stroke-linejoin="bevel" d="M1503 1509c179,538 591,955 1005,1195"/>
  </g>
  <g id="base_cone" onclick="parent.replacechar('base_cone')" onmousemove="parent.showtooltip('base_cone','Base en coin')" onmouseout="parent.hidetooltip('base_cone')" cursor="pointer">
   <g>
    <path fill="#78B43C" stroke="black" stroke-width="7.62" stroke-linejoin="bevel" d="M6889 4241c103,258 181,1019 157,1387l593 0c-18,-249 -64,-936 167,-1468 246,-566 1508,-1248 1491,-2670 11,9 -3955,-2 -3955,2 96,1626 1176,1818 1548,2749z"/>
    <polygon fill="none" stroke="black" stroke-width="7.62" stroke-linejoin="bevel" points="7303,1621 7303,4095 "/>
    <path fill="none" stroke="black" stroke-width="7.62" stroke-linejoin="bevel" d="M8503 1621c-192,752 -721,1382 -1158,1856"/>
    <path fill="none" stroke="black" stroke-width="7.62" stroke-linejoin="bevel" d="M6298 1509c179,538 591,955 1005,1195"/>
   </g>
   <path fill="#E5E5E5" stroke="black" stroke-width="7.62" stroke-linejoin="bevel" d="M6866 4184c153,482 186,936 179,1443l593 0c-21,-299 24,-1092 167,-1452l-939 9z"/>
  </g>
  <g id="base_rounded" onclick="parent.replacechar('base_rounded')" onmousemove="parent.showtooltip('base_rounded','Base arrondie')" onmouseout="parent.hidetooltip('base_rounded')" cursor="pointer">
    <metadata id="CorelCorpID_2">
     <odm name="Name" value="rounded" type="0"/>
    </metadata>
   <path fill="#78B43C" stroke="black" stroke-width="7.62" stroke-linejoin="bevel" d="M12262 4333c24,-24 52,-41 84,-50 837,-103 1508,-1371 1491,-2794 11,9 -3956,-2 -3956,2 96,1626 373,2696 1623,2846 4,1 9,1 13,2l745 -7z"/>
   <path fill="#E5E5E5" stroke="black" stroke-width="7.62" stroke-linejoin="bevel" d="M11517 4340c258,59 93,925 69,1288l593 0c-16,-226 -147,-1065 83,-1295l-745 7z"/>
   <polygon fill="none" stroke="black" stroke-width="7.62" stroke-linejoin="bevel" points="11843,1621 11843,4095 "/>
   <path fill="none" stroke="black" stroke-width="7.62" stroke-linejoin="bevel" d="M13043 1621c-192,752 -721,1382 -1158,1856"/>
   <path fill="none" stroke="black" stroke-width="7.62" stroke-linejoin="bevel" d="M10838 1509c179,538 591,955 1005,1195"/>
  </g>
  <g id="base_truncate" onclick="parent.replacechar('base_truncate')" onmousemove="parent.showtooltip('base_truncate','Base tronqu&#233;e')" onmouseout="parent.hidetooltip('base_truncate')" cursor="pointer">
    <metadata id="CorelCorpID_3">
     <odm name="Name" value="truncate" type="0"/>
    </metadata>
   <path fill="#78B43C" stroke="black" stroke-width="7.62" stroke-linejoin="bevel" d="M16931 4568c16,-9 34,-5 45,-16l778 -13c-79,-4 366,101 518,-379 148,-448 99,-2683 64,-2670l-3466 0c0,0 -165,2928 331,2955 370,196 648,53 1043,108 95,12 139,13 161,18l526 -2z"/>
   <path fill="#E5E5E5" stroke="black" stroke-width="7.62" stroke-linejoin="bevel" d="M16405 4570c21,5 20,14 22,41l51 1003 406 0 11 -948c6,-66 20,-89 37,-99l-526 2z"/>
   <polygon fill="none" stroke="black" stroke-width="7.62" stroke-linejoin="bevel" points="16645,1641 16665,4539 "/>
   <path fill="none" stroke="black" stroke-width="7.62" stroke-linejoin="bevel" d="M17741 1619c-35,646 -346,2128 -1001,2423"/>
   <path fill="none" stroke="black" stroke-width="7.62" stroke-linejoin="bevel" d="M15736 1613c31,439 203,1098 875,1363"/>
   <path fill="none" stroke="black" stroke-width="7.62" stroke-linejoin="bevel" d="M16665 4305c-725,-306 -1111,-970 -1186,-1605"/>
   <path fill="none" stroke="black" stroke-width="7.62" stroke-linejoin="bevel" d="M16213 4047c-276,57 -661,71 -670,-108"/>
   <path fill="none" stroke="black" stroke-width="7.62" stroke-linejoin="bevel" d="M17983 3335c-170,309 -348,633 -933,474"/>
  </g>
  <g id="base_asymetric" onclick="parent.replacechar('base_asymetric')" onmousemove="parent.showtooltip('base_asymetric','Base asym&#233;trique')" onmouseout="parent.hidetooltip('base_asymetric')" cursor="pointer">
    <metadata id="CorelCorpID_4">
     <odm name="Name" value="asymetric" type="0"/>
    </metadata>
   <path fill="#78B43C" stroke="black" stroke-width="7.62" stroke-linejoin="bevel" d="M21797 4568c9,-21 19,-41 30,-62 432,-306 690,-487 831,-763 324,-587 505,-935 512,-2253 0,0 -3144,0 -3144,0 -564,1061 -622,2714 -218,3213 406,498 860,196 1023,150 233,-66 296,-83 316,-67l651 -217z"/>
   <path fill="#E5E5E5" stroke="black" stroke-width="7.62" stroke-linejoin="bevel" d="M21145 4785c20,16 -5,64 53,126l108 719 441 0c-21,-457 -86,-753 50,-1062l-651 217z"/>
   <polygon fill="none" stroke="black" stroke-width="7.62" stroke-linejoin="bevel" points="21747,1692 21401,4587 "/>
   <path fill="none" stroke="black" stroke-width="7.62" stroke-linejoin="bevel" d="M22702 1575c-7,633 -582,1793 -1072,1409"/>
   <path fill="none" stroke="black" stroke-width="7.62" stroke-linejoin="bevel" d="M20611 1575c-183,761 -540,2145 864,2467"/>
   <path fill="none" stroke="black" stroke-width="7.62" stroke-linejoin="bevel" d="M20927 3853c-179,463 -549,553 -849,258"/>
  </g>
  <g id="base_cordate" onclick="parent.replacechar('base_cordate')" onmousemove="parent.showtooltip('base_cordate','Base cord&#233;e')" onmouseout="parent.hidetooltip('base_cordate')" cursor="pointer">
    <metadata id="CorelCorpID_5">
     <odm name="Name" value="cordate" type="0"/>
    </metadata>
   <path fill="#78B43C" stroke="black" stroke-width="7.62" stroke-linejoin="bevel" d="M3670 9484c122,-33 543,336 616,411 71,68 417,209 609,192 509,-117 703,-712 379,-2630l-3900 0c-203,997 -364,1777 -108,2306 106,553 1045,309 1208,159 86,-79 445,-450 556,-450 17,0 27,2 33,8 597,8 602,5 607,4z"/>
   <path fill="#E5E5E5" stroke="black" stroke-width="7.62" stroke-linejoin="bevel" d="M3063 9480c19,18 4,70 17,192 22,262 115,1473 130,1931l441 0c4,-653 -73,-1691 -13,-2079 3,-23 15,-36 32,-41 -5,2 -10,4 -607,-4z"/>
   <polygon fill="none" stroke="black" stroke-width="7.62" stroke-linejoin="bevel" points="3343,7686 3343,9385 "/>
   <path fill="none" stroke="black" stroke-width="7.62" stroke-linejoin="bevel" d="M4527 7496c-269,498 -723,948 -1164,1288"/>
   <path fill="none" stroke="black" stroke-width="7.62" stroke-linejoin="bevel" d="M1832 7554c289,456 1014,604 1486,840"/>
   <path fill="none" stroke="black" stroke-width="7.62" stroke-linejoin="bevel" d="M3323 9115c-456,-624 -1213,-90 -1574,306"/>
   <path fill="none" stroke="black" stroke-width="7.62" stroke-linejoin="bevel" d="M3403 9339c514,-622 1018,-871 1428,-50"/>
  </g>
  <g id="base_auriculate" onclick="parent.replacechar('base_auriculate')" onmousemove="parent.showtooltip('base_auriculate','Base auricul&#233;e')" onmouseout="parent.hidetooltip('base_auriculate')" cursor="pointer">
    <metadata id="CorelCorpID_6">
     <odm name="Name" value="auriculate" type="0"/>
    </metadata>
   <path fill="#78B43C" stroke="black" stroke-width="7.62" stroke-linejoin="bevel" d="M9326 9525c505,83 1561,-71 1479,1372 113,-562 -124,-1504 -537,-1605 -286,-650 653,-572 694,-1835l-3900 0c-203,997 964,1222 806,1788 -685,49 -696,1584 -600,1712 -101,-1902 1035,-1191 1478,-1425 488,-6 581,-7 581,-7z"/>
   <path fill="#E5E5E5" stroke="black" stroke-width="7.62" stroke-linejoin="bevel" d="M8745 9531c84,0 138,1644 153,2073l441 0c4,-653 -73,-1691 -13,-2079 0,0 0,0 -581,7z"/>
   <polygon fill="none" stroke="black" stroke-width="7.62" stroke-linejoin="bevel" points="9030,7686 9030,9424 "/>
   <path fill="none" stroke="black" stroke-width="7.62" stroke-linejoin="bevel" d="M10214 7496c-269,498 -723,948 -1164,1288"/>
   <path fill="none" stroke="black" stroke-width="7.62" stroke-linejoin="bevel" d="M7520 7554c289,456 1014,604 1486,840"/>
   <path fill="none" stroke="black" stroke-width="7.62" stroke-linejoin="bevel" d="M9010 9115c-456,-624 -591,-426 -953,-29"/>
   <path fill="none" stroke="black" stroke-width="7.62" stroke-linejoin="bevel" d="M9066 9419c353,-505 523,-788 933,-373"/>
  </g>
  <g id="base_saggitate" onclick="parent.replacechar('base_saggitate')" onmousemove="parent.showtooltip('base_saggitate','Base sagitt&#233;e')" onmouseout="parent.hidetooltip('base_saggitate')" cursor="pointer">
   <path id="limbe" fill="#78B43C" stroke="black" stroke-width="7.62" d="M13220 7466c-142,666 -694,3119 -723,3913 634,-282 1384,-1775 1834,-1789 137,373 194,1630 186,1832 225,5 92,4 317,0 0,-88 0,-1838 61,-1838 409,54 880,1326 1776,1785 -93,-592 -586,-3228 -871,-3907 -342,0 -2471,-13 -2579,4z"/>
   <line id="nervure" fill="none" stroke="black" stroke-width="7.62" x1="14666" y1="7576" x2="14666" y2= "9852" />
   <path id="nervure_0" fill="none" stroke="black" stroke-width="7.62" d="M14666 8899c596,0 802,-910 802,-1270"/>
   <path id="nervure_1" fill="none" stroke="black" stroke-width="7.62" d="M14666 9273c959,0 1046,1192 1617,1505"/>
   <path id="nervure_2" fill="none" stroke="black" stroke-width="7.62" d="M14666 9344c-1025,-123 -1156,1117 -1727,1431"/>
   <path id="nervure_3" fill="none" stroke="black" stroke-width="7.62" d="M14654 9040c-695,0 -935,-910 -935,-1270"/>
   <path fill="#E5E5E5" stroke="black" stroke-width="7.62" stroke-linejoin="bevel" d="M14313 9590c84,0 138,1644 153,2073l441 0c4,-653 -73,-1691 -13,-2079 0,0 0,0 -581,7z"/>
  </g>
  <g id="base_hastate" onclick="parent.replacechar('base_hastate')" onmousemove="parent.showtooltip('base_hastate','Base hast&#233;e')" onmouseout="parent.hidetooltip('base_hastate')" cursor="pointer">
   <path id="limbe_4" fill="#78B43C" stroke="black" stroke-width="7.62" d="M19201 7466c-142,666 -49,1868 -1114,2740 1260,891 1960,-208 2410,-222 0,344 8,1236 0,1438 225,5 92,4 317,0 0,-88 -84,-1424 -23,-1425 429,-161 944,924 2408,218 -1215,-950 -1309,-1918 -1418,-2754 -342,0 -2471,-13 -2579,4z"/>
   <line id="nervure_5" fill="none" stroke="black" stroke-width="7.62" x1="20647" y1="7576" x2="20647" y2= "9852" />
   <path id="nervure_6" fill="none" stroke="black" stroke-width="7.62" d="M20647 8899c596,0 802,-910 802,-1270"/>
   <path id="nervure_7" fill="none" stroke="black" stroke-width="7.62" d="M20672 9560c685,645 1431,317 2002,631"/>
   <path id="nervure_8" fill="none" stroke="black" stroke-width="7.62" d="M20637 9666c-1084,600 -1556,209 -2127,522"/>
   <path id="nervure_9" fill="none" stroke="black" stroke-width="7.62" d="M20635 9040c-695,0 -935,-910 -935,-1270"/>
   <path fill="#E5E5E5" stroke="black" stroke-width="7.62" stroke-linejoin="bevel" d="M20396 10003c77,-34 83,1133 97,1561l441 0c4,-653 -95,-1195 -36,-1583 0,0 -255,-61 -502,22z"/>
  </g>
  <g id="base_peltate" onclick="parent.replacechar('base_peltate')" onmousemove="parent.showtooltip('base_peltate','Base pelt&#233;e')" onmouseout="parent.hidetooltip('base_peltate')" cursor="pointer">
    <metadata id="CorelCorpID_7">
     <odm name="Name" value="peltate" type="0"/>
    </metadata>
   <path fill="#E5E5E5" stroke="black" stroke-width="7.62" stroke-linejoin="bevel" d="M2712 14659c178,517 38,2358 14,2721l593 0c-16,-226 -213,-2095 -67,-2702 -159,-245 -377,-176 -540,-18z"/>
   <path fill="#78B43C" stroke="black" stroke-width="7.62" stroke-linejoin="bevel" d="M3449 16068c837,-103 1546,-1405 1529,-2827 11,9 -3956,-2 -3956,2 96,1626 373,2696 1623,2846 249,30 557,15 804,-22z"/>
   <polygon fill="none" stroke="black" stroke-width="7.62" stroke-linejoin="bevel" points="2985,13373 2992,14517 "/>
   <path fill="none" stroke="black" stroke-width="7.62" stroke-linejoin="bevel" d="M4444 13382c-527,316 -1024,410 -1452,1135"/>
   <path fill="none" stroke="black" stroke-width="7.62" stroke-linejoin="bevel" d="M1510 13366c732,220 1042,601 1482,1151"/>
   <path fill="none" stroke="black" stroke-width="7.62" stroke-linejoin="bevel" d="M4661 14309c-393,-78 -1073,-364 -1669,208"/>
   <path fill="none" stroke="black" stroke-width="7.62" stroke-linejoin="bevel" d="M1359 14397c275,-246 1017,-371 1633,120"/>
   <path fill="none" stroke="black" stroke-width="7.62" stroke-linejoin="bevel" d="M1719 15327c183,-354 657,-1302 1273,-810"/>
   <path fill="none" stroke="black" stroke-width="7.62" stroke-linejoin="bevel" d="M4271 15281c-246,-463 -683,-1336 -1279,-765"/>
   <path fill="none" stroke="black" stroke-width="7.62" stroke-linejoin="bevel" d="M3789 15642c1,-446 -201,-1697 -797,-1125"/>
   <path fill="none" stroke="black" stroke-width="7.62" stroke-linejoin="bevel" d="M2134 15691c57,-287 184,-1561 858,-1174"/>
  </g>
  <g id="base_cyp" onclick="parent.replacechar('base_cyp')" onmousemove="parent.showtooltip('base_cyp','Base engainante &#224; section triangulaire')" onmouseout="parent.hidetooltip('base_cyp')" cursor="pointer">
    <metadata id="CorelCorpID_8">
     <odm name="Name" value="cyperacee" type="0"/>
    </metadata>
   <polygon id="lamina" fill="#00C800" stroke="#221D1A" stroke-width="7.62" stroke-linejoin="bevel" points="6947,13241 9894,15124 9181,15436 6735,13665 ">
    <metadata id="CorelCorpID_9">
     <odm name="Name" value="lamina" type="0"/>
    </metadata>
   </polygon>
   <polygon fill="#E5E5E5" stroke="#221D1A" stroke-width="7.62" stroke-linejoin="bevel" points="8556,15386 8556,13595 9231,13849 9797,13484 9811,15653 "/>
   <polygon id="gaine" fill="#78B43C" stroke="#221D1A" stroke-width="7.62" stroke-linejoin="bevel" points="6576,13813 8461,15202 8461,17410 9247,17759 9883,17416 9883,15140 9239,15436 6400,13328 ">
    <metadata id="CorelCorpID_10">
     <odm name="Name" value="gaine" type="0"/>
    </metadata>
   </polygon>
   <polygon fill="#CCCCCC" stroke="#221D1A" stroke-width="7.62" stroke-linejoin="bevel" points="8556,13595 9239,13849 9783,13484 "/>
   <polygon fill="none" stroke="#221D1A" stroke-width="7.62" stroke-linejoin="bevel" points="9239,15436 9239,17714 "/>
   <polygon fill="none" stroke="#221D1A" stroke-width="7.62" stroke-linejoin="bevel" points="9239,13860 9239,15344 "/>
   <polygon fill="none" stroke="#221D1A" stroke-width="7.62" stroke-linejoin="bevel" points="8545,15232 9147,15416 "/>
  </g>
  <g id="base_grass_tiny" onclick="parent.replacechar('base_grass_tiny')" onmousemove="parent.showtooltip('base_grass_tiny','Base &#224; gaine &#233;troite')" onmouseout="parent.hidetooltip('base_grass_tiny')" cursor="pointer">
    <metadata id="CorelCorpID_11">
     <odm name="Name" value="grass base etroite" type="0"/>
    </metadata>
   <path fill="#78B43C" stroke="black" stroke-width="7.62" stroke-linejoin="bevel" d="M13388 14615c-200,53 -2,1913 -377,2364 -206,-216 -441,-154 -560,47 -120,13 -386,-960 -374,-2340 -152,-326 -544,-919 -544,-1445 547,0 1873,0 2422,0 -25,517 -404,1023 -567,1373z"/>
   <path fill="none" stroke="black" stroke-width="7.62" d="M11622 13241c30,369 340,1064 554,1427"/>
   <path fill="none" stroke="black" stroke-width="7.62" d="M11848 13244c30,369 256,1056 471,1419"/>
   <path fill="none" stroke="black" stroke-width="7.62" d="M12089 13241c30,369 235,1020 449,1383"/>
   <path fill="none" stroke="black" stroke-width="7.62" d="M13133 13241c-24,288 -143,1081 -310,1365"/>
   <path fill="none" stroke="black" stroke-width="7.62" d="M13393 13246c-30,369 -223,1010 -437,1374"/>
   <path fill="none" stroke="black" stroke-width="7.62" d="M13674 13246c-30,369 -292,1051 -506,1414"/>
   <path fill="none" stroke="black" stroke-width="7.62" d="M13860 13246c-30,369 -322,1027 -537,1390"/>
   <path fill="none" stroke="black" stroke-width="7.62" d="M12406 13245c-14,314 132,1031 274,1359"/>
   <g>
    <line fill="none" fill-rule="nonzero" stroke="black" stroke-width="7.62" x1="12749" y1="13243" x2="12749" y2= "14609" />
   </g>
   <path fill="white" stroke="black" stroke-width="7.62" d="M11960 14957c141,-845 1728,-620 1502,-7 -50,239 -220,206 -373,392 -189,230 -59,981 -81,1334l-19 296c10,90 -172,-346 -526,29 0,-306 -57,-1358 -57,-1674 -196,-131 -350,-132 -445,-371z"/>
   <path fill="#78B43C" stroke="black" stroke-width="7.62" stroke-linejoin="bevel" d="M13492 14888c-52,478 -25,1478 -23,2040 -52,269 -162,355 -449,430 -91,-294 -75,-1822 -50,-2063 132,-62 435,-272 512,-477l9 69z"/>
   <path fill="#78B43C" stroke="black" stroke-width="7.62" stroke-linejoin="bevel" d="M11962 14945c60,224 235,280 485,353 5,155 82,1753 39,2063 -271,-61 -437,-200 -467,-428 -22,-641 -87,-1606 -57,-1988z"/>
   <path fill="none" stroke="black" stroke-width="7.62" d="M12558 14728c90,672 37,1784 50,2150"/>
   <g>
    <line fill="none" fill-rule="nonzero" stroke="black" stroke-width="7.62" x1="12749" y1="14686" x2="12749" y2= "16834" />
   </g>
   <path fill="none" stroke="black" stroke-width="7.62" d="M12368 14772c36,118 70,337 76,524"/>
   <path fill="none" stroke="black" stroke-width="7.62" d="M12255 14846c30,102 48,242 54,403"/>
   <path fill="none" stroke="black" stroke-width="7.62" d="M12143 14892c30,83 41,176 48,308"/>
   <path fill="none" stroke="black" stroke-width="7.62" d="M12956 14728c-90,678 -44,1800 -58,2169"/>
   <path fill="none" stroke="black" stroke-width="7.62" d="M13103 14759c-27,115 -61,304 -54,483"/>
   <path fill="none" stroke="black" stroke-width="7.62" d="M13256 14811c-25,83 -61,219 -60,348"/>
  </g>
  <g id="base_grass" onclick="parent.replacechar('base_grass')" onmousemove="parent.showtooltip('base_grass','Base engainante')" onmouseout="parent.hidetooltip('base_grass')" cursor="pointer">
    <metadata id="CorelCorpID_12">
     <odm name="Name" value="grass base" type="0"/>
    </metadata>
   <path fill="#78B43C" stroke="black" stroke-width="7.62" stroke-linejoin="bevel" d="M17738 15036c-200,53 -35,1491 -410,1942 -206,-216 -441,-154 -560,47 -120,13 -303,-231 -291,-1612 -118,-344 -710,-1647 -710,-2173 547,0 2077,0 2626,0 -25,517 -571,1399 -655,1795z"/>
   <path fill="none" stroke="black" stroke-width="7.62" d="M15939 13241c30,369 294,1132 509,1495"/>
   <path fill="none" stroke="black" stroke-width="7.62" d="M16165 13244c30,369 256,1056 471,1419"/>
   <path fill="none" stroke="black" stroke-width="7.62" d="M16406 13241c30,369 235,1020 449,1383"/>
   <path fill="none" stroke="black" stroke-width="7.62" d="M17450 13241c-24,288 -143,1081 -310,1365"/>
   <path fill="none" stroke="black" stroke-width="7.62" d="M17710 13246c-30,369 -223,1010 -437,1374"/>
   <path fill="none" stroke="black" stroke-width="7.62" d="M17991 13246c-30,369 -292,1051 -506,1414"/>
   <path fill="none" stroke="black" stroke-width="7.62" d="M18177 13246c-30,369 -292,1125 -506,1488"/>
   <path fill="none" stroke="black" stroke-width="7.62" d="M16723 13245c-14,314 132,1031 274,1360"/>
   <g>
    <line fill="none" fill-rule="nonzero" stroke="black" stroke-width="7.62" x1="17066" y1="13243" x2="17066" y2= "14609" />
   </g>
   <path fill="white" stroke="black" stroke-width="7.62" d="M16277 14957c141,-845 1728,-620 1502,-7 -50,239 -220,206 -373,392 -189,230 -59,981 -81,1334l-19 296c10,90 -172,-346 -526,29 0,-306 -57,-1358 -57,-1674 -196,-131 -350,-132 -445,-371z"/>
   <path fill="#78B43C" stroke="black" stroke-width="7.62" stroke-linejoin="bevel" d="M17810 14888c-52,478 -25,1478 -23,2040 -52,269 -162,355 -449,430 -91,-294 -75,-1822 -50,-2063 132,-62 453,-287 531,-492l-9 84z"/>
   <path fill="#78B43C" stroke="black" stroke-width="7.62" stroke-linejoin="bevel" d="M16270 14920c41,241 244,305 494,378 5,155 82,1753 39,2063 -271,-61 -437,-200 -467,-428 -21,-599 77,-1455 -55,-1927l-11 -87z"/>
   <path fill="none" stroke="black" stroke-width="7.62" d="M16875 14728c90,672 37,1784 50,2150"/>
   <g>
    <line fill="none" fill-rule="nonzero" stroke="black" stroke-width="7.62" x1="17066" y1="14686" x2="17066" y2= "16834" />
   </g>
   <path fill="none" stroke="black" stroke-width="7.62" d="M16686 14772c36,118 70,337 76,524"/>
   <path fill="none" stroke="black" stroke-width="7.62" d="M16573 14846c30,102 48,242 54,403"/>
   <path fill="none" stroke="black" stroke-width="7.62" d="M16460 14892c30,83 41,176 48,308"/>
   <path fill="none" stroke="black" stroke-width="7.62" d="M17274 14728c-90,678 -44,1800 -58,2169"/>
   <path fill="none" stroke="black" stroke-width="7.62" d="M17420 14759c-27,115 -61,304 -54,483"/>
   <path fill="none" stroke="black" stroke-width="7.62" d="M17573 14811c-25,83 -61,219 -60,348"/>
  </g>
  <g id="base_ore" onclick="parent.replacechar('base_ore')" onmousemove="parent.showtooltip('base_ore','Base &#224; oreillettes')" onmouseout="parent.hidetooltip('base_ore')" cursor="pointer">
    <metadata id="CorelCorpID_13">
     <odm name="Name" value="grass cordate" type="0"/>
    </metadata>
   <path fill="#78B43C" stroke="black" stroke-width="7.62" stroke-linejoin="bevel" d="M22199 15701c-156,95 -436,227 -669,-384 -206,-215 -454,-189 -574,12 114,254 -267,857 -690,162 -232,-382 -264,-1721 -264,-2247 546,0 2075,0 2624,0 -25,517 141,2112 -427,2457z"/>
   <path fill="none" stroke="black" stroke-width="7.62" d="M20174 13244c30,369 294,1131 508,1494"/>
   <path fill="none" stroke="black" stroke-width="7.62" d="M20401 13246c30,369 256,1055 470,1418"/>
   <path fill="none" stroke="black" stroke-width="7.62" d="M20641 13244c30,369 235,1019 449,1382"/>
   <path fill="none" stroke="black" stroke-width="7.62" d="M21684 13244c-24,288 -142,1080 -310,1364"/>
   <path fill="none" stroke="black" stroke-width="7.62" d="M21944 13249c-30,369 -223,1010 -437,1373"/>
   <path fill="none" stroke="black" stroke-width="7.62" d="M22225 13249c-30,369 -292,1050 -506,1413"/>
   <path fill="none" stroke="black" stroke-width="7.62" d="M22411 13249c-30,369 -292,1124 -506,1487"/>
   <path fill="none" stroke="black" stroke-width="7.62" d="M20958 13248c-14,314 132,1030 273,1359"/>
   <g>
    <line fill="none" fill-rule="nonzero" stroke="black" stroke-width="7.62" x1="21301" y1="13245" x2="21301" y2= "14611" />
   </g>
   <path fill="white" stroke="black" stroke-width="7.62" d="M20595 14913c36,-855 1644,-574 1418,38 -50,239 -220,206 -373,392 -189,230 -58,980 -81,1333l-19 296c10,90 -172,-346 -526,29 0,-306 -57,-1357 -57,-1673 -196,-131 -372,-159 -361,-416z"/>
   <path fill="#78B43C" stroke="black" stroke-width="7.62" stroke-linejoin="bevel" d="M22012 15779c-2,422 8,833 9,1149 -52,269 -162,355 -448,430 -91,-294 -77,-1662 13,-1912 145,288 262,347 427,333z"/>
   <path fill="#78B43C" stroke="black" stroke-width="7.62" stroke-linejoin="bevel" d="M20957 15329c10,257 125,1722 81,2032 -271,-61 -437,-200 -467,-428 -21,-599 9,-786 -18,-1152 244,94 418,-109 404,-452z"/>
   <path fill="none" stroke="black" stroke-width="7.62" d="M21110 14729c90,672 37,1783 50,2149"/>
   <g>
    <line fill="none" fill-rule="nonzero" stroke="black" stroke-width="7.62" x1="21301" y1="14688" x2="21301" y2= "16835" />
   </g>
   <path fill="none" stroke="black" stroke-width="7.62" d="M20920 14774c36,118 70,337 76,523"/>
   <path fill="none" stroke="black" stroke-width="7.62" d="M20808 14848c30,102 48,242 54,402"/>
   <path fill="none" stroke="black" stroke-width="7.62" d="M20695 14893c30,83 41,176 48,308"/>
   <path fill="none" stroke="black" stroke-width="7.62" d="M21508 14729c-90,677 -44,1799 -58,2168"/>
   <path fill="none" stroke="black" stroke-width="7.62" d="M21655 14761c-27,115 -61,304 -54,482"/>
   <path fill="none" stroke="black" stroke-width="7.62" d="M21807 14813c-25,83 -61,219 -60,348"/>
   <g>
    <path fill="none" fill-rule="nonzero" stroke="black" stroke-width="7.62" d="M20830 15256c-354,548 -636,-1563 -729,-2012"/>
   </g>
   <g>
    <path fill="none" fill-rule="nonzero" stroke="black" stroke-width="7.62" d="M20955 15324c-542,1139 -942,-531 -952,-2080"/>
   </g>
   <g>
    <path fill="none" fill-rule="nonzero" stroke="black" stroke-width="7.62" d="M20908 15298c-545,964 -714,-937 -866,-2055"/>
   </g>
   <g>
    <path fill="none" fill-rule="nonzero" stroke="black" stroke-width="7.62" d="M21786 15217c354,548 635,-1527 729,-1976"/>
   </g>
   <g>
    <path fill="none" fill-rule="nonzero" stroke="black" stroke-width="7.62" d="M21617 15377c644,1038 1000,-584 1010,-2133"/>
   </g>
   <g>
    <path fill="none" fill-rule="nonzero" stroke="black" stroke-width="7.62" d="M21699 15282c545,964 723,-923 874,-2041"/>
   </g>
  </g>
 </g>
<image xlink:href="tick.gif" id="imgtick" x="-10000" y="-10000" width="1500" height="1500"/>
<rect id="recttooltip" x="-10000" y="-10000" width="5500" height="600" fill-opacity="0.85" pointer-events="none"/>
<text id="textboxid" x="-10000" y="-10000" pointer-events="none"> </text>
</a></svg>
